<?xml version="1.0" encoding="UTF-8"?>
<svg width="240px" height="170px" viewBox="0 0 240 170" version="1.1" xmlns="http://www.w3.org/2000/svg" xmlns:xlink="http://www.w3.org/1999/xlink">
    <!-- Generator: Sketch 47.1 (45422) - http://www.bohemiancoding.com/sketch -->
    <title>06-tap-right-curve-up-hook</title>
    <desc>Created with Sketch.</desc>
    <defs></defs>
    <g id="Page-1" stroke="none" stroke-width="1" fill="none" fill-rule="evenodd">
        <g id="06-tap-right-curve-up-hook">
            <path d="M11.7157288,158.284271 C27.3367004,173.905243 52.6632996,173.905243 68.2842712,158.284271 C83.9052429,142.6633 83.9052429,117.3367 68.2842712,101.715729 C52.6632996,86.0947571 27.3367004,86.0947571 11.7157288,101.715729 C-3.90524292,117.3367 -3.90524292,142.6633 11.7157288,158.284271 Z" id="6-tap" fill-opacity="0.400000006" fill="#006DFF"></path>
            <path d="M36.4644661,133.535534 C38.4170876,135.488155 41.5829124,135.488155 43.5355339,133.535534 C45.4881554,131.582912 45.4881554,128.417088 43.5355339,126.464466 C41.5829124,124.511845 38.4170876,124.511845 36.4644661,126.464466 C34.5118446,128.417088 34.5118446,131.582912 36.4644661,133.535534 Z" id="6-endpoint-a" fill="#252525"></path>
            <path d="M119,15.258963 L119,4.741037 L119,4.741037 C119,4.18875225 118.552285,3.741037 118,3.741037 C117.822945,3.741037 117.649065,3.7880454 117.496129,3.8772581 L108.480764,9.1362211 L108.480764,9.1362211 C108.003712,9.41450138 107.842576,10.0268191 108.120856,10.503871 C108.207775,10.6528747 108.33176,10.7768601 108.480764,10.8637789 L117.496129,16.1227419 L117.496129,16.1227419 C117.973181,16.4010222 118.585499,16.2398859 118.863779,15.762834 C118.952992,15.609898 119,15.4360176 119,15.258963 Z" id="6-endpoint-b" fill="#252525"></path>
            <path d="M115.294118,10 L160,10 C182.09139,10 200,27.90861 200,50 L200,90 C200,112.09139 182.09139,130 160,130 L40,130 L40,130" id="6-path" stroke="#252525" stroke-width="4" stroke-linecap="round"></path>
        </g>
    </g>
</svg>