<svg width="1200" height="600" viewBox="0 0 1200 600" fill="none" xmlns="http://www.w3.org/2000/svg">
<rect width="1200" height="600" fill="white"/>
<path d="M69.75 158.75C69.75 151.501 75.6261 145.625 82.875 145.625H96V171.875H82.875C75.6261 171.875 69.75 165.999 69.75 158.75Z" fill="#7B61FF" fill-opacity="0.9"/>
<path d="M96 145.625H109.125C116.374 145.625 122.25 151.501 122.25 158.75C122.25 165.999 116.374 171.875 109.125 171.875H96V145.625Z" fill="#7B61FF" fill-opacity="0.7"/>
<path d="M69.75 185C69.75 177.751 75.6261 171.875 82.875 171.875H96V198.125H82.875C75.6261 198.125 69.75 192.249 69.75 185Z" fill="#7B61FF"/>
<path d="M122.25 185C122.25 177.751 116.374 171.875 109.125 171.875C101.876 171.875 96 177.751 96 185C96 192.249 101.876 198.125 109.125 198.125C116.374 198.125 122.25 192.249 122.25 185Z" fill="#7B61FF" fill-opacity="0.7"/>
<path d="M69.75 211.25C69.75 204.001 75.6261 198.125 82.875 198.125H96V211.25C96 218.499 90.1239 224.375 82.875 224.375C75.6261 224.375 69.75 218.499 69.75 211.25Z" fill="#7B61FF" fill-opacity="0.7"/>
<path d="M849.031 73.6406L872 47.3906L849.031 50.6719V73.6406Z" fill="#7B61FF" fill-opacity="0.5"/>
<path d="M894.969 73.6406L872 47.3906L894.969 50.6719V73.6406Z" fill="#7B61FF" fill-opacity="0.5"/>
<path fill-rule="evenodd" clip-rule="evenodd" d="M832.625 73.6406H849.031V50.6719L832.625 73.6406Z" fill="#7B61FF" fill-opacity="0.7"/>
<path fill-rule="evenodd" clip-rule="evenodd" d="M911.375 73.6406H894.969V50.6719L911.375 73.6406Z" fill="#7B61FF" fill-opacity="0.7"/>
<path fill-rule="evenodd" clip-rule="evenodd" d="M849.031 73.6406L872 122.859L894.969 73.6406H849.031Z" fill="#A390FF"/>
<path fill-rule="evenodd" clip-rule="evenodd" d="M849.031 73.6406L872 47.3906L894.969 73.6406H849.031Z" fill="#E5DFFF"/>
<path fill-rule="evenodd" clip-rule="evenodd" d="M832.625 73.6406L872 122.859L849.031 73.6406H832.625Z" fill="#7B61FF"/>
<path fill-rule="evenodd" clip-rule="evenodd" d="M911.375 73.6406L872 122.859L894.969 73.6406H911.375Z" fill="#7B61FF"/>
<path d="M444.071 475.5H411.929C400.094 475.5 390.5 485.094 390.5 496.929V529.071C390.5 540.906 400.094 550.5 411.929 550.5H444.071C455.906 550.5 465.5 540.906 465.5 529.071V496.929C465.5 485.094 455.906 475.5 444.071 475.5Z" fill="#7B61FF"/>
<path d="M421.845 526.125C421.015 524.556 420.099 522.973 419.097 521.377C418.124 519.753 416.993 518.103 415.705 516.425C415.304 516.912 414.789 517.589 414.159 518.455C413.558 519.32 412.943 520.24 412.313 521.214C411.712 522.188 411.139 523.122 410.595 524.015C410.051 524.907 409.651 525.611 409.393 526.125H401.75C403.01 523.933 404.469 521.634 406.13 519.226C407.819 516.818 409.694 514.261 411.755 511.555L402.179 498H410.295L416.092 506.766L421.76 498H429.403L419.956 511.636C422.361 514.585 424.379 517.318 426.01 519.834C427.642 522.324 428.93 524.42 429.875 526.125H421.845Z" fill="white"/>
<path d="M436.869 515.357C436.869 517.434 437.344 519.105 438.295 520.369C439.246 521.634 440.657 522.266 442.528 522.266C443.142 522.266 443.709 522.251 444.231 522.221C444.752 522.16 445.182 522.1 445.519 522.04V509.804C445.09 509.533 444.522 509.307 443.817 509.126C443.142 508.946 442.452 508.856 441.746 508.856C438.495 508.856 436.869 511.023 436.869 515.357ZM452.375 526.645C451.762 526.826 451.056 527.007 450.258 527.187C449.461 527.338 448.617 527.473 447.728 527.594C446.869 527.714 445.979 527.804 445.059 527.865C444.169 527.955 443.311 528 442.482 528C440.488 528 438.709 527.714 437.145 527.142C435.581 526.57 434.262 525.757 433.188 524.704C432.114 523.62 431.286 522.326 430.703 520.821C430.151 519.286 429.875 517.57 429.875 515.673C429.875 513.747 430.12 512.016 430.611 510.481C431.102 508.916 431.808 507.591 432.728 506.508C433.648 505.424 434.768 504.596 436.087 504.024C437.436 503.452 438.97 503.166 440.688 503.166C441.639 503.166 442.482 503.257 443.219 503.437C443.985 503.618 444.752 503.874 445.519 504.205V493.459L452.375 492.375V526.645Z" fill="white"/>
<path d="M760.298 295.766V128.21C760.298 98.271 736.027 74 706.088 74H95" stroke="#222222" stroke-width="6" stroke-linecap="round" stroke-linejoin="round" stroke-dasharray="4.93 14.78"/>
<path fill-rule="evenodd" clip-rule="evenodd" d="M95.856 65C101.3 65 105.712 69.413 105.712 74.856C105.712 80.3 101.3 84.713 95.856 84.713C90.413 84.713 86 80.3 86 74.856C86 69.413 90.413 65 95.856 65Z" fill="white" stroke="#222222" stroke-width="6" stroke-linecap="round" stroke-linejoin="round"/>
<path d="M163 185H486.323C516.262 185 540.532 209.27 540.532 239.209V295.883" stroke="#24252C" stroke-width="6" stroke-linecap="round" stroke-linejoin="round"/>
<path d="M174.4 173L161.887 183.428C160.704 184.413 160.704 186.229 161.887 187.214L174.4 197.641" stroke="#222222" stroke-width="6" stroke-linecap="round" stroke-linejoin="round"/>
<path fill-rule="evenodd" clip-rule="evenodd" d="M549.712 295.856C549.712 290.413 545.299 286 539.856 286C534.412 286 530 290.413 530 295.856C530 301.3 534.412 305.713 539.856 305.713C545.299 305.713 549.712 301.3 549.712 295.856Z" fill="white" stroke="#222222" stroke-width="4.92813" stroke-linecap="round" stroke-linejoin="round"/>
<path d="M427 426.883V350.21C427 320.27 402.776 296 372.896 296H95" stroke="#222222" stroke-width="6" stroke-linecap="round" stroke-linejoin="round" stroke-dasharray="4.93 14.78"/>
<path d="M439.641 420L429.214 432.513C428.229 433.695 426.413 433.695 425.428 432.513L415 420" stroke="#222222" stroke-width="6" stroke-linecap="round" stroke-linejoin="round"/>
<path fill-rule="evenodd" clip-rule="evenodd" d="M95.856 286C101.3 286 105.712 290.413 105.712 295.856C105.712 301.3 101.3 305.713 95.856 305.713C90.413 305.713 86 301.3 86 295.856C86 290.413 90.413 286 95.856 286Z" fill="white" stroke="#222222" stroke-width="6" stroke-linecap="round" stroke-linejoin="round"/>
<path d="M257 407V463.674C257 493.613 281.27 517.883 311.209 517.883H350.5" stroke="#222222" stroke-width="6" stroke-linecap="round" stroke-linejoin="round"/>
<path d="M341 505L353.513 515.427C354.695 516.412 354.695 518.228 353.513 519.213L341 529.64" stroke="#222222" stroke-width="6" stroke-linecap="round" stroke-linejoin="round"/>
<path d="M514.399 505.38L501.886 515.807C500.704 516.792 500.704 518.608 501.886 519.593L514.399 530.02" stroke="#222222" stroke-width="6" stroke-linecap="round" stroke-linejoin="round"/>
<path d="M95 517.883V461.209C95 431.27 119.27 407 149.209 407H256.766" stroke="#222222" stroke-width="6" stroke-linecap="round" stroke-linejoin="round"/>
<path fill-rule="evenodd" clip-rule="evenodd" d="M86 517.856C86 523.299 90.413 527.712 95.856 527.712C101.299 527.712 105.712 523.299 105.712 517.856C105.712 512.413 101.299 508 95.856 508C90.413 508 86 512.413 86 517.856Z" fill="#222222"/>
<path fill-rule="evenodd" clip-rule="evenodd" d="M258.505 419.805C257.543 420.767 255.984 420.767 255.022 419.805L243.722 408.505C242.76 407.543 242.76 405.983 243.722 405.021L255.022 393.722C255.984 392.76 257.543 392.76 258.505 393.722L269.806 405.021C270.768 405.983 270.768 407.543 269.806 408.505L258.505 419.805Z" fill="white" stroke="#222222" stroke-width="6" stroke-linecap="round" stroke-linejoin="round"/>
<path d="M650.883 406.883H594.209C564.27 406.883 540 382.613 540 352.673V296" stroke="#222222" stroke-width="6" stroke-linecap="round" stroke-linejoin="round"/>
<path d="M651 406.883H707.673C737.612 406.883 761.883 382.613 761.883 352.673V296" stroke="#222222" stroke-width="6" stroke-linecap="round" stroke-linejoin="round"/>
<path fill-rule="evenodd" clip-rule="evenodd" d="M752 295.856C752 290.413 756.412 286 761.856 286C767.299 286 771.712 290.413 771.712 295.856C771.712 301.3 767.299 305.713 761.856 305.713C756.412 305.713 752 301.3 752 295.856Z" fill="#222222"/>
<path fill-rule="evenodd" clip-rule="evenodd" d="M530 295.857C530 301.3 534.413 305.713 539.857 305.713C545.3 305.713 549.713 301.3 549.713 295.857C549.713 290.413 545.3 286 539.857 286C534.413 286 530 290.413 530 295.857Z" fill="white" stroke="#222222" stroke-width="6" stroke-linecap="round" stroke-linejoin="round"/>
<path d="M662.64 289L652.213 301.513C651.228 302.695 649.412 302.695 648.427 301.513L638 289" stroke="#222222" stroke-width="6" stroke-linecap="round" stroke-linejoin="round"/>
<path d="M650 296L651.232 299.696" stroke="#222222" stroke-width="4.92813" stroke-linecap="round" stroke-linejoin="round"/>
<path fill-rule="evenodd" clip-rule="evenodd" d="M723.844 184.922C723.844 225.748 690.748 258.844 649.922 258.844C609.096 258.844 576 225.748 576 184.922C576 144.096 609.096 111 649.922 111C690.748 111 723.844 144.096 723.844 184.922Z" fill="#7B61FF" fill-opacity="0.1"/>
<path fill-rule="evenodd" clip-rule="evenodd" d="M704.883 185.441C704.883 216.061 680.061 240.883 649.442 240.883C618.822 240.883 594 216.061 594 185.441C594 154.822 618.822 130 649.442 130C680.061 130 704.883 154.822 704.883 185.441Z" fill="#7B61FF" fill-opacity="0.1"/>
<path fill-rule="evenodd" clip-rule="evenodd" d="M686.922 184.961C686.922 205.374 670.374 221.922 649.961 221.922C629.548 221.922 613 205.374 613 184.961C613 164.548 629.548 148 649.961 148C670.374 148 686.922 164.548 686.922 184.961Z" fill="#7B61FF" fill-opacity="0.2"/>
<path fill-rule="evenodd" clip-rule="evenodd" d="M659.712 185.856C659.712 191.299 655.299 195.712 649.856 195.712C644.412 195.712 640 191.299 640 185.856C640 180.412 644.412 176 649.856 176C655.299 176 659.712 180.412 659.712 185.856Z" fill="white" stroke="#222222" stroke-width="6" stroke-linecap="round" stroke-linejoin="round"/>
<path d="M960.401 62L947.887 72.4271C946.704 73.4121 946.704 75.2281 947.887 76.2131L960.401 86.6411" stroke="#222222" stroke-width="6" stroke-linecap="round" stroke-linejoin="round"/>
<path d="M1059 404.916V296.497C1059 277.445 1074.45 262 1093.5 262C1112.55 262 1128 277.445 1128 296.497V404.916H1059Z" fill="url(#paint0_linear)" stroke="url(#paint1_linear)" stroke-width="6"/>
<path d="M1093.5 262C1112.55 262 1128 277.445 1128 296.497C1128 315.549 1112.55 330.994 1093.5 330.994C1074.45 330.994 1059 315.549 1059 296.497C1059 277.445 1074.45 262 1093.5 262Z" stroke="#7B61FF" stroke-width="6" stroke-linecap="round" stroke-linejoin="round"/>
<path fill-rule="evenodd" clip-rule="evenodd" d="M1103.72 295.856C1103.72 290.413 1099.3 286 1093.86 286C1088.42 286 1084 290.413 1084 295.856C1084 301.3 1088.42 305.713 1093.86 305.713C1099.3 305.713 1103.72 301.3 1103.72 295.856Z" fill="white" stroke="#222222" stroke-width="6" stroke-linecap="round" stroke-linejoin="round"/>
<path d="M951 74L1039.67 74C1069.61 74 1093.88 97.0671 1093.88 125.521V284.766" stroke="#222222" stroke-width="6" stroke-linecap="round" stroke-linejoin="round"/>
<path d="M872.648 296V463.556C872.648 493.496 848.378 517.766 818.439 517.766H507" stroke="#222222" stroke-width="6" stroke-linecap="round" stroke-linejoin="round" stroke-dasharray="4.93 14.78"/>
<path d="M983.883 406.883V350.21C983.883 320.27 959.612 296 929.673 296H873" stroke="#222222" stroke-width="6" stroke-linecap="round" stroke-linejoin="round"/>
<path d="M1129 518.497C1129 499.445 1113.55 484 1094.5 484C1075.45 484 1060 499.445 1060 518.497C1060 537.549 1075.45 552.994 1094.5 552.994C1113.55 552.994 1129 537.549 1129 518.497Z" fill="#7B61FF" fill-opacity="0.1" stroke="#7B61FF" stroke-width="6" stroke-linecap="round" stroke-linejoin="round"/>
<path fill-rule="evenodd" clip-rule="evenodd" d="M1094.85 508C1100.29 508 1104.71 512.412 1104.71 517.856C1104.71 523.299 1100.29 527.712 1094.85 527.712C1089.41 527.712 1085 523.299 1085 517.856C1085 512.412 1089.41 508 1094.85 508Z" fill="white" stroke="#222222" stroke-width="6" stroke-linecap="round" stroke-linejoin="round"/>
<path fill-rule="evenodd" clip-rule="evenodd" d="M872.857 305.713C878.3 305.713 882.713 301.3 882.713 295.857C882.713 290.413 878.3 286 872.857 286C867.413 286 863 290.413 863 295.857C863 301.3 867.413 305.713 872.857 305.713Z" fill="white" stroke="#222222" stroke-width="4.92813" stroke-linecap="round" stroke-linejoin="round"/>
<path d="M873 303.838V159.5" stroke="#222222" stroke-width="6" stroke-linecap="round" stroke-linejoin="round"/>
<path d="M885.641 171.4L875.214 158.887C874.228 157.704 872.413 157.704 871.428 158.887L861 171.4" stroke="#222222" stroke-width="6" stroke-linecap="round" stroke-linejoin="round"/>
<path fill-rule="evenodd" clip-rule="evenodd" d="M882.713 295.856C882.713 290.413 878.3 286 872.857 286C867.413 286 863 290.413 863 295.856C863 301.3 867.413 305.713 872.857 305.713C878.3 305.713 882.713 301.3 882.713 295.856Z" fill="white" stroke="#222222" stroke-width="6" stroke-linecap="round" stroke-linejoin="round"/>
<path d="M984 407V463.673C984 493.612 1005.86 517.883 1032.83 517.883H1083.88" stroke="#222222" stroke-width="6" stroke-linecap="round" stroke-linejoin="round"/>
<path d="M650 196V296.955" stroke="#222222" stroke-width="6" stroke-linecap="round" stroke-linejoin="round"/>
<defs>
<linearGradient id="paint0_linear" x1="1093.5" y1="296.497" x2="1093.5" y2="407.38" gradientUnits="userSpaceOnUse">
<stop stop-color="#7B61FF" stop-opacity="0.2"/>
<stop offset="1" stop-color="#7B61FF" stop-opacity="0"/>
</linearGradient>
<linearGradient id="paint1_linear" x1="1093.5" y1="262.616" x2="1093.5" y2="401.836" gradientUnits="userSpaceOnUse">
<stop stop-color="#7B61FF"/>
<stop offset="1" stop-color="#7B61FF" stop-opacity="0"/>
</linearGradient>
</defs>
</svg>
