<?xml version="1.0" encoding="UTF-8"?>
<svg width="788px" height="675px" viewBox="0 0 788 675" version="1.1" xmlns="http://www.w3.org/2000/svg" xmlns:xlink="http://www.w3.org/1999/xlink">
    <!-- Generator: Sketch 47.1 (45422) - http://www.bohemiancoding.com/sketch -->
    <title>flow-devices-flows-large</title>
    <desc>Created with Sketch.</desc>
    <defs></defs>
    <g id="Page-1" stroke="none" stroke-width="1" fill="none" fill-rule="evenodd">
        <g id="flow-devices-large" transform="translate(3.000000, -30.000000)">
            <g id="flow-devices-flows-large" transform="translate(37.000000, 0.000000)">
                <g id="Tap-/-Up-/-Curve-/-Right-/-Hook" transform="translate(0.000000, 368.000000)">
                    <g id="Assets-/-Tap-/-Default" transform="translate(-40.000000, 80.000000)" fill-rule="evenodd" fill="#006DFF" fill-opacity="0.400000006">
                        <circle id="Oval" cx="40" cy="40" r="40"></circle>
                    </g>
                    <g id="Flow-/-Up-/-Curve-/-Right-/-Hook">
                        <path d="M2.13162821e-14,120 L2.13162821e-14,40 L2.13162821e-14,40 C1.86108671e-14,17.90861 17.90861,-1.01527322e-14 40,-1.42108547e-14 L270,0" id="Path" stroke="#252525" stroke-width="4" stroke-linecap="round"></path>
                        <path d="M270,1.12585494e-14 L320,5.00379973e-15 L320,7.10542736e-14 C342.09139,6.69961511e-14 360,17.90861 360,40 L360,90" id="hook" stroke="#252525" stroke-width="4" stroke-linecap="round" transform="translate(315.000000, 45.000000) rotate(-360.000000) translate(-315.000000, -45.000000) "></path>
                        <g id="Assets-/-Cap-/-Arrow-/-Default" transform="translate(360.000000, 90.000000) scale(1, -1) rotate(-90.000000) translate(-360.000000, -90.000000) translate(350.000000, 80.000000)" fill-rule="evenodd" fill="#252525">
                            <path d="M4,15.258963 L4,4.741037 L4,4.741037 C4,4.18875225 4.44771525,3.741037 5,3.741037 C5.17705464,3.741037 5.35093497,3.7880454 5.50387103,3.8772581 L14.5192362,9.1362211 L14.5192362,9.1362211 C14.9962881,9.41450138 15.1574243,10.0268191 14.879144,10.503871 C14.7922253,10.6528747 14.6682398,10.7768601 14.5192362,10.8637789 L5.50387103,16.1227419 L5.50387103,16.1227419 C5.02681911,16.4010222 4.41450138,16.2398859 4.1362211,15.762834 C4.0470084,15.609898 4,15.4360176 4,15.258963 Z" id="shape"></path>
                        </g>
                        <g id="Assets-/-Cap-/-Circle-/-Default" transform="translate(0.000000, 120.000000) rotate(-90.000000) translate(-0.000000, -120.000000) translate(-10.000000, 110.000000)" fill-rule="evenodd" fill="#252525">
                            <circle id="map/path-end-circle" cx="10" cy="10" r="5"></circle>
                        </g>
                    </g>
                </g>
                <g id="Tap-/-Left-/-Arrow-ALT" transform="translate(452.000000, 411.000000)">
                    <g id="Assets-/-Tap-/-ALT" transform="translate(124.000000, 50.000000)" fill-rule="evenodd" fill="#EF0055" fill-opacity="0.4">
                        <circle id="Oval" cx="40" cy="40" r="40"></circle>
                    </g>
                    <g id="Flow-/-Left-/-Arrow-ALT">
                        <path class="fk-path-alt" d="M0,90 L164,90" id="path" stroke="#252525" stroke-width="4" stroke-linecap="round" stroke-linejoin="round" stroke-dasharray="4,12"></path>
                        <g id="Assets-/-Cap-/-Arrow-/-ALT" transform="translate(0.000000, 90.000000) scale(-1, 1) translate(-0.000000, -90.000000) translate(-10.000000, 80.000000)" fill-rule="evenodd" fill="#252525">
                            <path d="M4,15.258963 L4,4.741037 L4,4.741037 C4,4.18875225 4.44771525,3.741037 5,3.741037 C5.17705464,3.741037 5.35093497,3.7880454 5.50387103,3.8772581 L14.5192362,9.1362211 L14.5192362,9.1362211 C14.9962881,9.41450138 15.1574243,10.0268191 14.879144,10.503871 C14.7922253,10.6528747 14.6682398,10.7768601 14.5192362,10.8637789 L5.50387103,16.1227419 L5.50387103,16.1227419 C5.02681911,16.4010222 4.41450138,16.2398859 4.1362211,15.762834 C4.0470084,15.609898 4,15.4360176 4,15.258963 Z" id="shape"></path>
                        </g>
                        <g id="Assets-/-Cap-/-Circle-/-ALT" transform="translate(154.000000, 80.000000)" fill-rule="evenodd" fill="#252525">
                            <circle id="map/path-end-circle" cx="10" cy="10" r="5"></circle>
                        </g>
                    </g>
                </g>
                <g id="flow4-annotate" transform="translate(658.000000, 259.000000)">
                    <g id="Annotate-/-Down-/-Circle">
                        <path d="M50,80 L50,40 L50,80 Z" id="path" stroke="#EF0055" stroke-width="4"></path>
                        <g id="Assets-/-Cap-/-Line-/-Vertical" transform="translate(50.000000, 80.000000) rotate(-270.000000) translate(-50.000000, -80.000000) translate(40.000000, 70.000000)" fill-rule="evenodd" fill="#EF0055">
                            <rect id="Rectangle-2" x="8" y="2" width="4" height="16" rx="1"></rect>
                        </g>
                        <g id="Assets-/-Annotate" transform="translate(10.000000, -40.000000)" stroke-width="4" stroke="#EF0055">
                            <circle id="Oval" cx="40" cy="40" r="38"></circle>
                        </g>
                    </g>
                    <rect id="Rectangle-12" fill="#EF0055" x="14" y="96" width="72" height="4" rx="2"></rect>
                    <rect id="Rectangle-12" fill="#EF0055" x="14" y="104" width="42" height="4" rx="2"></rect>
                </g>
                <g id="Tap-/-Right-/-Snake-/-Down-/-Default" transform="translate(103.000000, 114.000000)">
                    <g id="Assets-/-Tap-/-Default" transform="translate(-40.000000, -40.000000)" fill-rule="evenodd" fill="#006DFF" fill-opacity="0.400000006">
                        <circle id="Oval" cx="40" cy="40" r="40"></circle>
                    </g>
                    <g id="Flow-/-Right-/-Snake-/-Down-/-Default">
                        <path d="M0,100 L48.5,100 L48.5,100 C70.59139,100 88.5,82.09139 88.5,60 L88.5,40 L88.5,40 C88.5,17.90861 106.40861,4.05812251e-15 128.5,4.73316543e-30 L177,-7.10542736e-15" id="path" stroke="#252525" stroke-width="4" stroke-linecap="round" transform="translate(88.500000, 50.000000) scale(1, -1) translate(-88.500000, -50.000000) "></path>
                        <g id="Assets-/-Cap-/-Arrow-/-Default" transform="translate(177.000000, 100.000000) scale(1, -1) translate(-177.000000, -100.000000) translate(167.000000, 90.000000)" fill-rule="evenodd" fill="#252525">
                            <path d="M4,15.258963 L4,4.741037 L4,4.741037 C4,4.18875225 4.44771525,3.741037 5,3.741037 C5.17705464,3.741037 5.35093497,3.7880454 5.50387103,3.8772581 L14.5192362,9.1362211 L14.5192362,9.1362211 C14.9962881,9.41450138 15.1574243,10.0268191 14.879144,10.503871 C14.7922253,10.6528747 14.6682398,10.7768601 14.5192362,10.8637789 L5.50387103,16.1227419 L5.50387103,16.1227419 C5.02681911,16.4010222 4.41450138,16.2398859 4.1362211,15.762834 C4.0470084,15.609898 4,15.4360176 4,15.258963 Z" id="shape"></path>
                        </g>
                        <g id="Assets-/-Cap-/-Circle-/-Default" transform="translate(0.000000, 0.000000) scale(1, -1) translate(-0.000000, -0.000000) translate(-10.000000, -10.000000)" fill-rule="evenodd" fill="#252525">
                            <circle id="map/path-end-circle" cx="10" cy="10" r="5"></circle>
                        </g>
                    </g>
                </g>
                <g id="Tap-/-Right-/-Snake-/-Down-/-Default" transform="translate(429.000000, 70.000000)">
                    <g id="Assets-/-Tap-/-Default" transform="translate(-40.000000, -40.000000)" fill-rule="evenodd" fill="#006DFF" fill-opacity="0.400000006">
                        <circle id="Oval" cx="40" cy="40" r="40"></circle>
                    </g>
                    <g id="Flow-/-Right-/-Snake-/-Down-/-Default">
                        <path d="M0,100 L41.5,100 L41.5,100 C63.59139,100 81.5,82.09139 81.5,60 L81.5,40 L81.5,40 C81.5,17.90861 99.40861,4.05812251e-15 121.5,4.73316543e-30 L163,-7.10542736e-15" id="path" stroke="#252525" stroke-width="4" stroke-linecap="round" transform="translate(81.500000, 50.000000) scale(1, -1) translate(-81.500000, -50.000000) "></path>
                        <g id="Assets-/-Cap-/-Arrow-/-Default" transform="translate(163.000000, 100.000000) scale(1, -1) translate(-163.000000, -100.000000) translate(153.000000, 90.000000)" fill-rule="evenodd" fill="#252525">
                            <path d="M4,15.258963 L4,4.741037 L4,4.741037 C4,4.18875225 4.44771525,3.741037 5,3.741037 C5.17705464,3.741037 5.35093497,3.7880454 5.50387103,3.8772581 L14.5192362,9.1362211 L14.5192362,9.1362211 C14.9962881,9.41450138 15.1574243,10.0268191 14.879144,10.503871 C14.7922253,10.6528747 14.6682398,10.7768601 14.5192362,10.8637789 L5.50387103,16.1227419 L5.50387103,16.1227419 C5.02681911,16.4010222 4.41450138,16.2398859 4.1362211,15.762834 C4.0470084,15.609898 4,15.4360176 4,15.258963 Z" id="shape"></path>
                        </g>
                        <g id="Assets-/-Cap-/-Circle-/-Default" transform="translate(0.000000, 0.000000) scale(1, -1) translate(-0.000000, -0.000000) translate(-10.000000, -10.000000)" fill-rule="evenodd" fill="#252525">
                            <circle id="map/path-end-circle" cx="10" cy="10" r="5"></circle>
                        </g>
                    </g>
                </g>
                <g id="Tap-/-Left-/-Arrow-ALT" transform="translate(139.000000, 0.000000)">
                    <g id="Assets-/-Tap-/-ALT" transform="translate(124.000000, 30.000000)" fill-rule="evenodd" fill="#EF0055" fill-opacity="0.4">
                        <circle id="Oval" cx="40" cy="40" r="40"></circle>
                    </g>
                    <g id="Flow-/-Left-/-Arrow-ALT">
                        <path class="fk-path-alt" d="M0,70 L164,70" id="path" stroke="#252525" stroke-width="4" stroke-linecap="round" stroke-linejoin="round" stroke-dasharray="4,12"></path>
                        <g id="Assets-/-Cap-/-Arrow-/-ALT" transform="translate(0.000000, 70.000000) scale(-1, 1) translate(-0.000000, -70.000000) translate(-10.000000, 60.000000)" fill-rule="evenodd" fill="#252525">
                            <path d="M4,15.258963 L4,4.741037 L4,4.741037 C4,4.18875225 4.44771525,3.741037 5,3.741037 C5.17705464,3.741037 5.35093497,3.7880454 5.50387103,3.8772581 L14.5192362,9.1362211 L14.5192362,9.1362211 C14.9962881,9.41450138 15.1574243,10.0268191 14.879144,10.503871 C14.7922253,10.6528747 14.6682398,10.7768601 14.5192362,10.8637789 L5.50387103,16.1227419 L5.50387103,16.1227419 C5.02681911,16.4010222 4.41450138,16.2398859 4.1362211,15.762834 C4.0470084,15.609898 4,15.4360176 4,15.258963 Z" id="shape"></path>
                        </g>
                        <g id="Assets-/-Cap-/-Circle-/-ALT" transform="translate(154.000000, 60.000000)" fill-rule="evenodd" fill="#252525">
                            <circle id="map/path-end-circle" cx="10" cy="10" r="5"></circle>
                        </g>
                    </g>
                </g>
                <g id="Tap-/-Right-/-Snake-/-Up-/-Default" transform="translate(359.000000, 565.000000)">
                    <g id="Assets-/-Tap-/-Default" transform="translate(-40.000000, 60.000000)" fill-rule="evenodd" fill="#006DFF" fill-opacity="0.400000006">
                        <circle id="Oval" cx="40" cy="40" r="40"></circle>
                    </g>
                    <g id="Flow-/-Right-/-Snake-/-Up-/-Default">
                        <path d="M0,100 L76.5,100 L76.5,100 C98.59139,100 116.5,82.09139 116.5,60 L116.5,40 L116.5,40 C116.5,17.90861 134.40861,3.07846457e-14 156.5,7.10542736e-15 L233,-7.10542736e-15" id="path" stroke="#252525" stroke-width="4" stroke-linecap="round"></path>
                        <g id="Assets-/-Cap-/-Arrow-/-Default" transform="translate(223.000000, -10.000000)" fill-rule="evenodd" fill="#252525">
                            <path d="M4,15.258963 L4,4.741037 L4,4.741037 C4,4.18875225 4.44771525,3.741037 5,3.741037 C5.17705464,3.741037 5.35093497,3.7880454 5.50387103,3.8772581 L14.5192362,9.1362211 L14.5192362,9.1362211 C14.9962881,9.41450138 15.1574243,10.0268191 14.879144,10.503871 C14.7922253,10.6528747 14.6682398,10.7768601 14.5192362,10.8637789 L5.50387103,16.1227419 L5.50387103,16.1227419 C5.02681911,16.4010222 4.41450138,16.2398859 4.1362211,15.762834 C4.0470084,15.609898 4,15.4360176 4,15.258963 Z" id="shape"></path>
                        </g>
                        <g id="Assets-/-Cap-/-Circle-/-Default" transform="translate(-10.000000, 90.000000)" fill-rule="evenodd" fill="#252525">
                            <circle id="map/path-end-circle" cx="10" cy="10" r="5"></circle>
                        </g>
                    </g>
                </g>
            </g>
        </g>
    </g>
</svg>
