<svg width="788" height="675" viewBox="0 0 788 675" fill="none" xmlns="http://www.w3.org/2000/svg">
<g clip-path="url(#clip0)">
<path fill-rule="evenodd" clip-rule="evenodd" d="M748 309V269V309Z" stroke="#FC5555" stroke-width="4"/>
<path d="M756 310V308C756 307.448 755.552 307 755 307H741C740.448 307 740 307.448 740 308V310C740 310.552 740.448 311 741 311H755C755.552 311 756 310.552 756 310Z" fill="#FC5555"/>
<path d="M748 267C768.987 267 786 249.987 786 229C786 208.013 768.987 191 748 191C727.013 191 710 208.013 710 229C710 249.987 727.013 267 748 267Z" stroke="#FC5555" stroke-width="4"/>
<path d="M782 325H714C712.895 325 712 325.895 712 327C712 328.105 712.895 329 714 329H782C783.105 329 784 328.105 784 327C784 325.895 783.105 325 782 325Z" fill="#FC5555"/>
<path d="M752 333H714C712.895 333 712 333.895 712 335C712 336.105 712.895 337 714 337H752C753.105 337 754 336.105 754 335C754 333.895 753.105 333 752 333Z" fill="#FC5555"/>
<path d="M229.436 136L229.436 129C229.437 104.699 209.737 85 185.437 85L143 85" stroke="#2B2C34" stroke-width="4" stroke-linecap="round" stroke-linejoin="round"/>
<path d="M229.437 136L229.437 140C229.437 164.301 249.136 184 273.437 184L315 184" stroke="#2B2C34" stroke-width="4" stroke-linecap="round" stroke-linejoin="round"/>
<path d="M309 174L319.156 182.464C320.116 183.263 320.116 184.737 319.156 185.536L309 194" stroke="#2B2C34" stroke-width="4" stroke-linecap="round" stroke-linejoin="round"/>
<line x1="2" y1="-2" x2="8" y2="-1" transform="matrix(1 0 0 -1 309 182)" stroke="#2B2C34" stroke-width="4" stroke-linecap="round" stroke-linejoin="round"/>
<path d="M171 85C171 100.464 158.464 113 143 113C127.536 113 115 100.464 115 85C115 69.536 127.536 57 143 57C158.464 57 171 69.536 171 85Z" fill="#7B61FF" fill-opacity="0.1" stroke="#7B61FF" stroke-width="4" stroke-linecap="round" stroke-linejoin="round"/>
<path fill-rule="evenodd" clip-rule="evenodd" d="M143 93C147.418 93 151 89.4183 151 85C151 80.5817 147.418 77 143 77C138.582 77 135 80.5817 135 85C135 89.4183 138.582 93 143 93Z" fill="white" stroke="#2B2C34" stroke-width="4" stroke-linecap="round" stroke-linejoin="round"/>
<path d="M550.411 91L550.411 83C550.411 58.6995 530.712 39 506.411 39L469 39" stroke="#2B2C34" stroke-width="4" stroke-linecap="round" stroke-linejoin="round"/>
<path d="M550.411 90L550.411 95C550.411 119.301 570.111 139 594.411 139L631 139" stroke="#2B2C34" stroke-width="4" stroke-linecap="round" stroke-linejoin="round"/>
<path d="M625 129L635.156 137.464C636.116 138.263 636.116 139.737 635.156 140.536L625 149" stroke="#2B2C34" stroke-width="4" stroke-linecap="round" stroke-linejoin="round"/>
<line x1="2" y1="-2" x2="8" y2="-1" transform="matrix(1 0 0 -1 625 137)" stroke="#2B2C34" stroke-width="4" stroke-linecap="round" stroke-linejoin="round"/>
<path d="M497 39C497 54.464 484.464 67 469 67C453.536 67 441 54.464 441 39C441 23.536 453.536 11 469 11C484.464 11 497 23.536 497 39Z" fill="#7B61FF" fill-opacity="0.1" stroke="#7B61FF" stroke-width="4" stroke-linecap="round" stroke-linejoin="round"/>
<path fill-rule="evenodd" clip-rule="evenodd" d="M469 47C473.418 47 477 43.4183 477 39C477 34.5817 473.418 31 469 31C464.582 31 461 34.5817 461 39C461 43.4183 464.582 47 469 47Z" fill="white" stroke="#2B2C34" stroke-width="4" stroke-linecap="round" stroke-linejoin="round"/>
<path d="M517.086 563L517.086 570C517.086 594.301 497.386 614 473.086 614L401 614" stroke="#2B2C34" stroke-width="4" stroke-linecap="round" stroke-linejoin="round"/>
<path d="M517.086 563L517.086 559C517.086 534.699 536.785 515 561.086 515L632 515" stroke="#2B2C34" stroke-width="4" stroke-linecap="round" stroke-linejoin="round"/>
<path d="M626 525L636.156 516.536C637.116 515.737 637.116 514.263 636.156 513.464L626 505" stroke="#2B2C34" stroke-width="4" stroke-linecap="round" stroke-linejoin="round"/>
<line x1="628" y1="515" x2="634" y2="516" stroke="#2B2C34" stroke-width="4" stroke-linecap="round" stroke-linejoin="round"/>
<path d="M429 614C429 598.536 416.464 586 401 586C385.536 586 373 598.536 373 614C373 629.464 385.536 642 401 642C416.464 642 429 629.464 429 614Z" fill="#7B61FF" fill-opacity="0.1" stroke="#7B61FF" stroke-width="4" stroke-linecap="round" stroke-linejoin="round"/>
<path fill-rule="evenodd" clip-rule="evenodd" d="M401 606C405.418 606 409 609.582 409 614C409 618.418 405.418 622 401 622C396.582 622 393 618.418 393 614C393 609.582 396.582 606 401 606Z" fill="white" stroke="#2B2C34" stroke-width="4" stroke-linecap="round" stroke-linejoin="round"/>
<line x1="2" y1="-2" x2="164" y2="-2" transform="matrix(-1 0 0 1 345 42)" stroke="#2B2C34" stroke-width="4" stroke-linecap="round" stroke-linejoin="round" class="fk-path-alt" stroke-dasharray="4 12"/>
<path d="M317 40C317 55.464 329.536 68 345 68C360.464 68 373 55.464 373 40C373 24.536 360.464 12 345 12C329.536 12 317 24.536 317 40Z" fill="#F56D4E" fill-opacity="0.05" stroke="#FC5555" stroke-width="4" stroke-linecap="round" stroke-linejoin="round"/>
<path fill-rule="evenodd" clip-rule="evenodd" d="M345 48C340.582 48 337 44.4183 337 40C337 35.5817 340.582 32 345 32C349.418 32 353 35.5817 353 40C353 44.4183 349.418 48 345 48Z" fill="white" stroke="#2B2C34" stroke-width="4" stroke-linecap="round" stroke-linejoin="round"/>
<path d="M185 50L174.844 41.5364C173.884 40.7369 173.884 39.2631 174.844 38.4636L185 30" stroke="#2B2C34" stroke-width="4" stroke-linecap="round" stroke-linejoin="round"/>
<line x1="2" y1="-2" x2="8" y2="-1" transform="matrix(-1 0 0 1 185 42)" stroke="#2B2C34" stroke-width="4" stroke-linecap="round" stroke-linejoin="round"/>
<line x1="2" y1="-2" x2="164" y2="-2" transform="matrix(-1 0 0 1 656 475)" stroke="#2B2C34" stroke-width="4" stroke-linecap="round" stroke-linejoin="round" class="fk-path-alt" stroke-dasharray="4 12"/>
<path d="M628 473C628 488.464 640.536 501 656 501C671.464 501 684 488.464 684 473C684 457.536 671.464 445 656 445C640.536 445 628 457.536 628 473Z" fill="#F56D4E" fill-opacity="0.05" stroke="#FC5555" stroke-width="4" stroke-linecap="round" stroke-linejoin="round"/>
<path fill-rule="evenodd" clip-rule="evenodd" d="M656 481C651.582 481 648 477.418 648 473C648 468.582 651.582 465 656 465C660.418 465 664 468.582 664 473C664 477.418 660.418 481 656 481Z" fill="white" stroke="#2B2C34" stroke-width="4" stroke-linecap="round" stroke-linejoin="round"/>
<path d="M496 483L485.844 474.536C484.884 473.737 484.884 472.263 485.844 471.464L496 463" stroke="#2B2C34" stroke-width="4" stroke-linecap="round" stroke-linejoin="round"/>
<line x1="2" y1="-2" x2="8" y2="-1" transform="matrix(-1 0 0 1 496 475)" stroke="#2B2C34" stroke-width="4" stroke-linecap="round" stroke-linejoin="round"/>
<path d="M399 401L399 400C399 375.699 379.301 356 355 356L127 356" stroke="#2B2C34" stroke-width="4" stroke-linecap="round" stroke-linejoin="round"/>
<path d="M309 356L81 356C56.6995 356 37 375.699 37 400L37 462" stroke="#2B2C34" stroke-width="4" stroke-linecap="round" stroke-linejoin="round"/>
<path d="M408.784 394.655L400.68 405.1C399.915 406.087 398.442 406.138 397.609 405.207L388.796 395.353" stroke="#2B2C34" stroke-width="4" stroke-linecap="round" stroke-linejoin="round"/>
<line x1="2" y1="-2" x2="8" y2="-1" transform="matrix(0.0348995 0.999391 0.999391 -0.0348996 400.789 394.934)" stroke="#2B2C34" stroke-width="4" stroke-linecap="round" stroke-linejoin="round"/>
<path d="M37 434C21.536 434 9 446.536 9 462C9 477.464 21.536 490 37 490C52.464 490 65 477.464 65 462C65 446.536 52.464 434 37 434Z" fill="#7B61FF" fill-opacity="0.1" stroke="#7B61FF" stroke-width="4" stroke-linecap="round" stroke-linejoin="round"/>
<path fill-rule="evenodd" clip-rule="evenodd" d="M29 462C29 457.582 32.5817 454 37 454C41.4183 454 45 457.582 45 462C45 466.418 41.4183 470 37 470C32.5817 470 29 466.418 29 462Z" fill="white" stroke="#2B2C34" stroke-width="4" stroke-linecap="round" stroke-linejoin="round"/>
</g>
<defs>
<clipPath id="clip0">
<rect width="788" height="675" fill="white"/>
</clipPath>
</defs>
</svg>
