<svg width="48" height="48" viewBox="0 0 48 48" fill="none" xmlns="http://www.w3.org/2000/svg">
<path d="M10 10C10 6.13398 13.1339 3 17 3H24V17H17C13.1339 17 10 13.866 10 10Z" fill="#7B61FF" fill-opacity="0.9"/>
<path d="M24 3H31C34.866 3 38 6.13398 38 10C38 13.866 34.866 17 31 17H24V3Z" fill="#7B61FF" fill-opacity="0.7"/>
<path d="M10 24C10 20.1339 13.1339 17 17 17H24V31H17C13.1339 31 10 27.8661 10 24Z" fill="#7B61FF"/>
<path d="M38 24C38 20.134 34.866 17 31 17C27.134 17 24 20.134 24 24C24 27.866 27.134 31 31 31C34.866 31 38 27.866 38 24Z" fill="#7B61FF" fill-opacity="0.7"/>
<path d="M10 38C10 34.134 13.1339 31 17 31H24V38C24 41.866 20.8661 45 17 45C13.1339 45 10 41.866 10 38Z" fill="#7B61FF" fill-opacity="0.7"/>
</svg>
