<svg width="48" height="48" viewBox="0 0 48 48" fill="none" xmlns="http://www.w3.org/2000/svg">
<rect x="3" y="3" width="42" height="42" rx="12" fill="#7B61FF"/>
<path d="M20.4954 32C20.0314 31.072 19.5194 30.136 18.9594 29.192C18.4154 28.232 17.7834 27.256 17.0634 26.264C16.8394 26.552 16.5514 26.952 16.1994 27.464C15.8634 27.976 15.5194 28.52 15.1674 29.096C14.8314 29.672 14.5114 30.224 14.2074 30.752C13.9034 31.28 13.6794 31.696 13.5354 32H9.26343C9.96743 30.704 10.7834 29.344 11.7114 27.92C12.6554 26.496 13.7034 24.984 14.8554 23.384L9.50343 15.368H14.0394L17.2794 20.552L20.4474 15.368H24.7194L19.4394 23.432C20.7834 25.176 21.9114 26.792 22.8234 28.28C23.7354 29.752 24.4554 30.992 24.9834 32H20.4954Z" fill="white"/>
<path d="M29.2202 25.592C29.2202 26.696 29.4682 27.584 29.9642 28.256C30.4602 28.928 31.1962 29.264 32.1722 29.264C32.4922 29.264 32.7882 29.256 33.0602 29.24C33.3322 29.208 33.5562 29.176 33.7322 29.144V22.64C33.5082 22.496 33.2122 22.376 32.8442 22.28C32.4922 22.184 32.1322 22.136 31.7642 22.136C30.0682 22.136 29.2202 23.288 29.2202 25.592ZM37.3082 31.592C36.9882 31.688 36.6202 31.784 36.2042 31.88C35.7882 31.96 35.3482 32.032 34.8842 32.096C34.4362 32.16 33.9722 32.208 33.4922 32.24C33.0282 32.288 32.5802 32.312 32.1482 32.312C31.1082 32.312 30.1802 32.16 29.3642 31.856C28.5482 31.552 27.8602 31.12 27.3002 30.56C26.7402 29.984 26.3082 29.296 26.0042 28.496C25.7162 27.68 25.5722 26.768 25.5722 25.76C25.5722 24.736 25.7002 23.816 25.9562 23C26.2122 22.168 26.5802 21.464 27.0602 20.888C27.5402 20.312 28.1242 19.872 28.8122 19.568C29.5162 19.264 30.3162 19.112 31.2122 19.112C31.7082 19.112 32.1482 19.16 32.5322 19.256C32.9322 19.352 33.3322 19.488 33.7322 19.664V13.952L37.3082 13.376V31.592Z" fill="white"/>
</svg>
