<?xml version="1.0" encoding="UTF-8"?>
<svg width="271px" height="145px" viewBox="0 0 271 145" version="1.1" xmlns="http://www.w3.org/2000/svg" xmlns:xlink="http://www.w3.org/1999/xlink">
    <!-- Generator: Sketch 52.3 (67297) - http://www.bohemiancoding.com/sketch -->
    <title>logo-dribbble</title>
    <desc>Created with Sketch.</desc>
    <g id="Page-1" stroke="none" stroke-width="1" fill="none" fill-rule="evenodd">
        <g id="logo-dribbble" fill-rule="nonzero">
            <rect id="Rectangle" fill="#F9F9F9" x="0" y="0" width="271" height="145" rx="72.5"></rect>
            <g transform="translate(91.000000, 61.000000)" fill="#111133" id="Shape">
                <path d="M89.8606838,17.2602264 C86.1000585,23.5992805 80.1465354,21.7635364 78.3575931,20.3198001 C77.5977738,20.8361031 76.2608758,21.9547597 74.4815516,21.8304645 C70.6920718,21.5531907 69.3359382,16.1702532 69.3359382,16.1702532 C69.3647922,16.1893756 68.2106358,16.5622612 67.5854678,16.5622612 C67.5758499,18.1398538 66.2004803,21.9165151 62.4975623,21.8687092 C58.3425997,21.8113422 57.4962184,15.6539502 57.4962184,15.6539502 C57.4962184,15.6539502 57.0826458,16.2276202 55.5052988,16.7917292 C55.5822426,15.5774608 55.5245348,21.6774858 50.5424268,21.7730975 C46.5990596,21.8400257 45.541083,15.5583385 45.541083,15.5583385 C45.541083,15.5583385 44.8582072,16.2658649 43.5309275,16.5048942 C43.6174892,15.2715035 43.4828376,21.7922198 38.4911118,21.7635364 C35.1248226,21.7539752 33.9706664,17.8912635 34.0572281,17.3558381 C34.1726437,16.6769952 32.9223078,21.8591481 29.6425803,21.7826587 C28.2960647,21.744414 27.2861779,20.7691749 26.651392,19.4784173 C25.8050107,20.4440952 24.5739107,21.7826587 23.1985412,21.7826587 C20.7267231,21.7826587 19.6398926,19.7270076 19.822634,13.8564507 C19.8418699,13.1584855 19.7841622,12.8812115 19.0916684,12.7855999 C18.6780957,12.7186717 18.2452871,12.5848154 17.7932425,12.5178872 C17.648973,12.9959456 16.417873,21.62968 12.1859667,21.8017811 C10.7625072,21.8591481 9.99306977,20.6353186 9.34866585,19.7270076 C8.367633,21.0177653 7.07882515,21.8400257 5.24179308,21.8400257 C2.12557114,21.8400257 0,19.3349998 0,16.2467426 C0,13.1584855 2.12557114,10.6534595 5.24179308,10.6534595 C5.79001732,10.6534595 5.94390482,10.7299488 6.45365717,10.8733664 C5.41491652,1.50342199 7.85788062,0.04056333 10.0026877,0.04056333 C12.0513151,0.04056333 15.5618738,4.77334135 10.6278557,16.782168 C11.7243042,20.3676059 14.0807065,20.1668214 15.2156269,12.7855999 C15.4464582,11.2844965 14.8309082,9.26709015 15.792705,8.98025515 C17.5527933,8.46395208 17.7355348,10.0128612 18.5530622,10.2710128 C19.4186793,10.5482866 19.9284317,10.5196032 20.765195,10.6917042 C22.1886544,10.968978 22.7464966,11.7338715 22.5733732,13.4261982 C22.3617778,15.5774608 21.996295,18.7039627 23.1119794,19.0864094 C23.9198888,19.3636833 25.3818201,17.7096012 25.6415052,16.8012903 C25.9011904,15.8929794 25.9492802,15.587022 25.9781342,14.9177403 C26.016606,13.4931263 26.0550779,12.450959 26.3051451,11.3801082 C26.4109428,10.9594168 26.5263584,10.6917042 26.9976388,10.6725818 C27.3823576,10.6630207 28.1037053,10.5482866 28.4114803,10.7873158 C28.825053,11.1028344 28.7769632,11.4183529 28.7288733,12.2501745 C28.2383568,24.134706 31.9797468,18.1972208 33.0954312,13.4548816 C32.7010945,8.08150538 32.9703976,0.136175007 36.3559227,0.00231865915 C38.116011,-0.0646095148 38.8950665,1.33132097 38.9816282,2.38304942 C39.2220774,5.33745025 37.8659438,10.2327681 36.0866195,13.531371 C35.0671148,20.2528718 40.5493572,21.5818742 41.4245923,16.2180591 C39.9915149,15.5392162 38.4430219,12.7951611 39.7029758,11.4661588 C40.4147055,10.7203877 43.3578041,11.7912385 43.4058939,14.1432857 C44.8485892,13.760839 45.0409486,12.9481398 45.0601845,13.0819961 C44.6658478,7.70861985 45.0313307,0.145736175 48.4168557,0.0118798268 C50.1769441,-0.0550483472 50.9559995,1.34088214 51.0425612,2.39261058 C51.2830105,5.34701141 49.9268768,10.2423293 48.1475526,13.5409322 C47.1280479,20.2624331 52.6102902,21.5914354 53.4855254,16.2276202 C52.4275488,16.0268358 50.186562,13.1106796 51.4753698,11.4757199 C52.1678636,10.6056536 55.1013442,12.4222755 55.4283551,14.2293362 C56.8133426,13.8373283 57.005702,13.0533126 57.0249379,13.1871689 C56.6306012,7.81379269 56.996084,0.25090902 60.3816091,0.117052672 C62.1416975,0.0501244977 62.9207529,1.44605498 63.0073146,2.49778343 C63.2477638,5.45218425 61.8916302,10.3475022 60.112306,13.646105 C59.0928013,20.3676059 64.5750435,21.6966082 65.4502788,16.3327931 C63.9883475,16.0937639 61.9204842,13.0150679 63.5843928,11.4374752 C64.2480326,10.8064382 66.7967944,12.4413978 67.3931085,14.3058255 C68.2202538,14.2771421 68.7396242,13.990307 68.8454218,13.9616235 C67.5277601,7.660814 68.5087928,0.0883691685 72.1540031,0.0310021623 C74.1256868,-0.00724250856 76.0492805,1.09229178 75.2028993,7.08714393 C74.3949898,12.8142834 71.4999812,15.2141365 71.4999812,15.2523812 C71.6731047,15.9407852 73.1542718,21.6774858 76.9052798,18.6465957 C76.7129204,18.206782 76.520561,17.7669682 76.4051454,17.2219817 C75.7799774,14.0763575 77.0014592,10.5196032 80.3196585,9.94593308 C82.2143985,9.62085338 84.0033408,10.5387255 84.29188,12.6039377 C84.7535423,15.9981522 81.6757923,18.4458112 80.5024,18.9812365 C79.9734115,18.6848404 85.2536769,22.0503714 88.3891346,15.3097482 C88.5718762,14.9273015 88.7930892,14.9559849 89.0720108,15.1567695 C89.2547515,15.2715035 90.3896723,16.3519155 89.8606838,17.2602264 Z M7.50201578,15.4053598 C7.33851032,14.9273015 7.01149937,13.8851342 6.89608374,13.4357593 C6.26129779,12.8812115 5.79963528,12.7951611 4.98210792,12.7951611 C3.16431178,12.7951611 2.09671723,14.4683654 2.09671723,16.2658649 C2.09671723,18.0633645 3.26049148,19.7365688 5.07828761,19.7365688 C6.65563452,19.7365688 7.84826269,18.6752792 8.21374546,17.1646147 C7.96367831,16.5813835 7.71361108,16.0363969 7.50201578,15.4053598 Z M9.94497992,2.51690577 C8.66579,2.51690577 8.23298146,5.54779593 8.31954315,8.12931123 C8.39648692,10.4144303 9.03127285,12.4222755 9.36790177,13.3210253 C9.45446346,13.4357593 9.43522754,13.3592699 9.51217131,13.4835652 C11.7243042,8.65517546 10.8105971,2.51690577 9.94497992,2.51690577 Z M36.5290461,2.61251745 C34.8747555,2.42129409 34.8843734,9.257529 35.0959687,10.7873158 C35.9519679,9.42963 37.4427532,2.98540298 36.5290461,2.61251745 Z M48.5899792,2.61251745 C46.9356885,2.42129409 46.9549245,9.257529 47.1569018,10.7873158 C48.0032831,9.42963 49.4940682,2.98540298 48.5899792,2.61251745 Z M60.5451146,2.70812912 C58.8908239,2.51690577 58.9100598,9.35314069 59.1120372,10.8829275 C59.9680365,9.52524169 61.4492037,3.08101466 60.5451146,2.70812912 Z M72.3078906,2.22050957 C69.7398929,2.73681262 70.336207,11.2558131 70.7305437,12.7473552 C73.7505859,8.60736962 73.8179118,2.05796972 72.3078906,2.22050957 Z M81.9450954,12.8716504 C81.8104438,12.3266638 81.1564223,12.0398288 80.7139954,12.106757 C79.4251877,12.278858 78.1748515,13.8851342 78.65575,16.3136708 C78.7615477,16.8586573 79.0308508,17.3558381 79.0308508,17.3367157 C81.9162415,15.4053598 82.1566908,13.8946953 81.9450954,12.8716504 Z M27.4977732,8.79859292 C26.4686505,8.79859292 25.6318873,7.96677138 25.6318873,6.94372642 C25.6318873,5.92068147 26.4686505,5.08885988 27.4977732,5.08885988 C28.5268959,5.08885988 29.3636592,5.92068147 29.3636592,6.94372642 C29.3636592,7.96677138 28.5268959,8.79859292 27.4977732,8.79859292 Z"></path>
            </g>
        </g>
    </g>
</svg>