<?xml version="1.0" encoding="UTF-8"?>
<svg width="271px" height="145px" viewBox="0 0 271 145" version="1.1" xmlns="http://www.w3.org/2000/svg" xmlns:xlink="http://www.w3.org/1999/xlink">
    <!-- Generator: Sketch 52.3 (67297) - http://www.bohemiancoding.com/sketch -->
    <title>logo-instacart</title>
    <desc>Created with Sketch.</desc>
    <g id="Page-1" stroke="none" stroke-width="1" fill="none" fill-rule="evenodd">
        <g id="logo-instacart">
            <rect id="Rectangle" fill="#FFFFFF" fill-rule="nonzero" x="0" y="0" width="271" height="145" rx="72.5"></rect>
            <g id="instacart" transform="translate(73.000000, 60.000000)" fill="#2b2c34">
                <path d="M14.9986301,10.344863 C16.480137,11.8335616 17.6914384,14.2708904 16.9979452,15.7188356 C15.1438356,19.5914384 1.30993151,26.3828767 0.134589041,25.2078767 C-1.04041096,24.0325342 5.75616438,10.1934932 9.62876712,8.33938356 C11.0770548,7.64589041 13.514726,8.85753425 15.0034247,10.3390411 L14.9986301,10.344863" id="Fill-1"></path>
                <path d="M101.677055,19.085274 C101.341096,19.1965753 100.998973,19.2609589 100.658904,19.275 L100.584247,19.2770548 L100.521575,19.2780822 L100.458904,19.2770548 L100.384247,19.275 C100.044178,19.2609589 99.7020548,19.1965753 99.3660959,19.085274 C98.010274,18.6065068 97.1099315,17.2760274 97.1099315,15.5743151 C97.1099315,13.564726 98.364726,12.0712329 100.143493,11.8890411 L100.171575,11.8866438 L100.293151,11.8773973 L100.361986,11.8739726 L100.480479,11.8708904 L100.521575,11.8702055 L100.562671,11.8708904 L100.680822,11.8739726 L100.75,11.8773973 L100.871233,11.8866438 L100.899658,11.8890411 C102.678425,12.0712329 103.933219,13.564726 103.933219,15.5743151 C103.933219,17.2760274 103.032877,18.6065068 101.677055,19.085274 Z M104.071575,10.1311644 C105.817808,11.230137 106.883904,13.1715753 106.883904,15.5743151 L106.883904,20.7626712 C106.883904,21.2705479 106.471918,21.6825342 105.964041,21.6825342 L104.915411,21.6825342 C104.407534,21.6825342 103.995548,21.2705479 103.995548,20.7626712 L103.995548,20.3219178 C103.603425,20.8332192 102.355822,22.0037671 100.289726,22.0020548 C99.1585616,22.0013699 98.1092466,21.6900685 97.225,21.1684932 C95.3291096,20.1023973 94.1592466,18.0910959 94.1592466,15.5743151 C94.1592466,13.1715753 95.2253425,11.230137 96.9715753,10.1311644 L96.9763699,10.1277397 C97.9462329,9.48458904 99.1486301,9.14452055 100.45411,9.14452055 L100.521575,9.14623288 L100.589041,9.14452055 C101.894521,9.14452055 103.096918,9.48458904 104.066781,10.1277397 L104.071575,10.1311644 Z M54.3503425,14.4267123 C57.185274,14.8335616 58.6232877,15.994863 58.6232877,18.0208904 C58.6232877,20.5523973 56.5910959,21.9914384 53.3082192,21.9914384 C52.3239726,21.9914384 50.4554795,21.6684932 48.8366438,20.7578767 C48.5530822,20.5986301 48.3517123,20.3359589 48.269863,20.0181507 C48.1876712,19.6996575 48.239726,19.3568493 48.4123288,19.0773973 L48.4818493,18.964726 C48.6969178,18.6164384 49.0839041,18.4 49.4914384,18.4 C49.7106164,18.4 49.9243151,18.4619863 50.109589,18.5794521 C51.0380137,19.1674658 52.1818493,19.4534247 53.3082192,19.4534247 C55.3517123,19.4534247 55.660274,18.6941781 55.660274,18.1232877 C55.660274,17.505137 55.0191781,17.114726 53.7,16.9297945 L52.4517123,16.7671233 C49.7195205,16.3934932 48.2756849,15.1342466 48.2756849,13.125 C48.2756849,10.6777397 50.3041096,9.15719178 53.4530822,9.15719178 C54.9599315,9.15719178 56.1037671,9.63116438 57.1582192,10.1592466 C57.4534247,10.3071918 57.6702055,10.5626712 57.7684932,10.8787671 C57.8667808,11.1958904 57.8328767,11.5308219 57.6726027,11.8212329 L57.5715753,12.0041096 C57.3640411,12.3797945 56.9684932,12.6130137 56.5390411,12.6130137 C56.3523973,12.6130137 56.1732877,12.5702055 56.0061644,12.485274 L55.8619863,12.4119863 C55.1383562,12.0434932 54.3821918,11.6952055 53.4530822,11.6952055 C52.139726,11.6952055 51.2513699,12.190411 51.2513699,12.9880137 C51.2513699,13.6832192 51.9339041,14.0650685 53.1130137,14.2390411 L54.3503425,14.4267123 Z M92.5219178,18.8482877 L92.6150685,18.9523973 C92.8804795,19.2482877 93.0041096,19.6445205 92.9547945,20.039726 C92.9058219,20.4311644 92.6907534,20.7818493 92.3643836,21.0010274 C91.3873288,21.6571918 90.1780822,22.0041096 88.8678082,22.0041096 C85.0818493,22.0041096 82.4380137,19.3599315 82.4380137,15.5743151 C82.4380137,11.7886986 85.0818493,9.14452055 88.8678082,9.14452055 C90.1729452,9.14452055 91.3753425,9.48458904 92.3455479,10.1277397 C92.6756849,10.3465753 92.8917808,10.6996575 92.9380137,11.0965753 C92.9849315,11.5003425 92.8530822,11.9020548 92.5753425,12.1986301 L92.4702055,12.3106164 C92.0650685,12.7431507 91.3568493,12.8270548 90.8640411,12.4993151 C90.2273973,12.0756849 89.55,11.8702055 88.7928082,11.8702055 C86.8202055,11.8702055 85.3886986,13.4280822 85.3886986,15.5743151 C85.3886986,17.7205479 86.8202055,19.2780822 88.7928082,19.2780822 C89.510274,19.2780822 90.2424658,19.0541096 90.910274,18.630137 C91.1143836,18.5006849 91.3489726,18.4321918 91.5893836,18.4321918 C91.944863,18.4321918 92.2849315,18.5839041 92.5219178,18.8482877 Z M31.2541096,4.79452055 C32.2520548,4.79452055 33.0335616,5.5760274 33.0335616,6.5739726 C33.0335616,7.55924658 32.2520548,8.33116438 31.2541096,8.33116438 C30.2523973,8.33116438 29.4969178,7.57568493 29.4969178,6.5739726 C29.4969178,5.5760274 30.2688356,4.79452055 31.2541096,4.79452055 Z M31.7859589,9.24863014 C32.2938356,9.24863014 32.7054795,9.66027397 32.7054795,10.1681507 L32.7054795,20.7715753 C32.7054795,21.2797945 32.2938356,21.6914384 31.7856164,21.6914384 L30.7496575,21.6914384 C30.2417808,21.6914384 29.8297945,21.2797945 29.8297945,20.7715753 L29.8297945,10.1681507 C29.8297945,9.66027397 30.2414384,9.24863014 30.7493151,9.24863014 L31.7859589,9.24863014 Z M65.8164384,19.2232877 C66.3270548,19.225 66.744863,19.6321918 66.744863,20.1431507 L66.744863,20.8517123 C66.744863,21.155137 66.6260274,21.4410959 66.410274,21.6568493 C66.1945205,21.8726027 65.9085616,21.9914384 65.605137,21.9914384 L65.6041096,21.9914384 C62.5636986,21.9914384 60.3678082,19.4328767 60.3678082,16.539726 L60.3678082,6.48869863 C60.3678082,5.98047945 60.7797945,5.56883562 61.2876712,5.56883562 L62.3815068,5.56883562 C62.8893836,5.56883562 63.3013699,5.98047945 63.3013699,6.48869863 L63.3013699,9.24863014 L65.825,9.24863014 C66.3328767,9.24863014 66.744863,9.66061644 66.744863,10.1684932 L66.744863,11.0082192 C66.744863,11.5160959 66.3328767,11.9280822 65.825,11.9280822 L63.3013699,11.9280822 L63.3013699,16.7109589 C63.3013699,18.3068493 64.6530822,19.2184932 65.8164384,19.2232877 Z M40.6986301,9.14452055 C44.3784247,9.14452055 46.4304795,12.0876712 46.4304795,14.6065068 L46.4304795,20.7715753 C46.4304795,21.2797945 46.0188356,21.6914384 45.5106164,21.6914384 L44.4623288,21.6914384 C43.9541096,21.6914384 43.5424658,21.2797945 43.5424658,20.7715753 L43.5424658,15.0691781 C43.5424658,13.1599315 42.3856164,11.8952055 40.6986301,11.8952055 C39.0116438,11.8952055 37.8547945,13.1599315 37.8547945,15.0691781 L37.8547945,20.7715753 C37.8547945,21.2797945 37.4428082,21.6914384 36.9349315,21.6914384 L35.8863014,21.6914384 C35.3784247,21.6914384 34.9664384,21.2797945 34.9664384,20.7715753 L34.9664384,14.6065068 C34.9664384,12.0876712 37.0184932,9.14452055 40.6986301,9.14452055 Z M116.390411,9.27226027 C116.614726,9.32123288 116.804795,9.45513699 116.92637,9.64931507 C117.047603,9.84280822 117.082877,10.0825342 117.030822,10.2938356 C116.97911,10.5047945 116.923973,10.7363014 116.849315,11.0469178 C116.713014,11.6126712 116.208904,12.0143836 115.627055,12.0143836 L115.384932,11.9907534 C115.091438,11.9328767 114.792123,11.9013699 114.512671,11.8969178 C112.988014,11.8969178 111.743493,13.0332192 111.743493,14.7760274 L111.743493,20.7715753 C111.743493,21.2797945 111.331849,21.6914384 110.82363,21.6914384 L109.775342,21.6914384 C109.267123,21.6914384 108.855479,21.2797945 108.855479,20.7715753 L108.855479,14.6787671 L108.856164,14.6708904 C108.856164,11.4691781 111.486644,9.14623288 114.336301,9.14623288 L114.473973,9.14452055 C114.991781,9.14452055 115.991781,9.18527397 116.390411,9.27226027 Z M124.080137,11.9280822 L121.556507,11.9280822 L121.556507,16.7109589 C121.556507,18.3068493 122.908219,19.2184932 124.071575,19.2232877 C124.582192,19.225 125,19.6321918 125,20.1431507 L125,20.8517123 C125,21.155137 124.881164,21.4410959 124.665411,21.6568493 C124.449658,21.8726027 124.163699,21.9914384 123.860274,21.9914384 L123.859247,21.9914384 C120.818836,21.9914384 118.622945,19.4328767 118.622945,16.539726 L118.622945,6.48869863 C118.622945,5.98047945 119.034932,5.56883562 119.542808,5.56883562 L120.636644,5.56883562 C121.144521,5.56883562 121.556507,5.98047945 121.556507,6.48869863 L121.556507,9.24863014 L124.080137,9.24863014 C124.588014,9.24863014 125,9.66061644 125,10.1684932 L125,11.0082192 C125,11.5160959 124.588014,11.9280822 124.080137,11.9280822 Z M75.5071918,19.085274 C76.8630137,18.6065068 77.7633562,17.2760274 77.7633562,15.5743151 C77.7633562,13.564726 76.5085616,12.0712329 74.7297945,11.8890411 L74.7017123,11.8866438 L74.580137,11.8773973 L74.5113014,11.8739726 L74.3928082,11.8708904 L74.3517123,11.8702055 L74.3106164,11.8708904 L74.1924658,11.8739726 L74.1232877,11.8773973 L74.0020548,11.8866438 L73.9736301,11.8890411 C72.194863,12.0712329 70.9400685,13.564726 70.9400685,15.5743151 C70.9400685,17.2760274 71.840411,18.6065068 73.1962329,19.085274 C73.5321918,19.1965753 73.8743151,19.2609589 74.2143836,19.275 L74.2890411,19.2770548 L74.3517123,19.2780822 L74.4143836,19.2770548 L74.4890411,19.275 C74.8291096,19.2609589 75.1712329,19.1965753 75.5071918,19.085274 Z M77.9017123,10.1311644 C79.6479452,11.230137 80.7140411,13.1715753 80.7140411,15.5743151 L80.7140411,20.7626712 C80.7140411,21.2705479 80.3023973,21.6825342 79.7941781,21.6825342 L78.7458904,21.6825342 C78.2376712,21.6825342 77.8260274,21.2705479 77.8260274,20.7626712 L77.8260274,20.3219178 C77.4335616,20.8332192 76.1859589,22.0037671 74.119863,22.0020548 C72.9886986,22.0013699 71.9393836,21.6900685 71.055137,21.1684932 C69.1592466,20.1023973 67.9893836,18.0910959 67.9893836,15.5743151 C67.9893836,13.1715753 69.0558219,11.230137 70.8017123,10.1311644 L70.8065068,10.1277397 C71.7763699,9.48458904 72.9787671,9.14452055 74.2842466,9.14452055 L74.3517123,9.14623288 L74.4191781,9.14452055 C75.7246575,9.14452055 76.9270548,9.48458904 77.8969178,10.1277397 L77.9017123,10.1311644 Z M17.1253425,0.476369863 C18.3743151,0.814383562 19.6356164,1.675 19.7849315,2.95993151 C20.0589041,5.31643836 15.8924658,9.03116438 14.9034247,8.76609589 C13.914726,8.50136986 12.1715753,3.25308219 13.5804795,1.29246575 C14.3068493,0.282191781 15.8756849,0.140068493 17.1260274,0.471917808 L17.1253425,0.476369863 Z M22.3277397,8.70993151 L22.3308219,8.70924658 C22.5678082,9.6010274 22.4664384,10.719863 21.7455479,11.2380137 C20.3472603,12.2428082 16.6041096,10.9996575 16.4150685,10.2941781 C16.2260274,9.58869863 18.8756849,6.61712329 20.5565068,6.81267123 C21.4729452,6.91917808 22.0869863,7.81917808 22.3280822,8.70993151 L22.3277397,8.70993151 Z" id="Fill-13"></path>
            </g>
        </g>
    </g>
</svg>