<?xml version="1.0" encoding="UTF-8"?>
<svg width="271px" height="145px" viewBox="0 0 271 145" version="1.1" xmlns="http://www.w3.org/2000/svg" xmlns:xlink="http://www.w3.org/1999/xlink">
    <!-- Generator: Sketch 52.3 (67297) - http://www.bohemiancoding.com/sketch -->
    <title>logo-metalab</title>
    <desc>Created with Sketch.</desc>
    <g id="Page-1" stroke="none" stroke-width="1" fill="none" fill-rule="evenodd">
        <g id="logo-metalab">
            <rect id="Rectangle" fill="#F9F9F9" fill-rule="nonzero" x="0" y="0" width="271" height="145" rx="72.5"></rect>
            <g transform="translate(111.000000, 48.000000)" fill="#111133">
                <path d="M29.248062,45.4058303 L30.8551499,46.7094886 C33.0092413,48.4611239 36.2827818,47.0453675 36.4099919,44.305609 L36.4651163,43.1136334 L31.296145,41.4031008 L29.248062,45.4058303 Z" id="Fill-1"></path>
                <path d="M3.97431021,29.627907 L2.65958138,31.2627561 C0.916317518,33.42279 2.35586238,36.6840175 5.09765447,36.7941369 L6.2792462,36.8449612 L7.97674419,31.6439386 L3.97431021,29.627907 Z" id="Fill-3"></path>
                <path d="M45.3760516,19.751938 L46.7086976,18.1250477 C48.46196,15.9783977 47.0460236,12.7165883 44.2974413,12.5898177 L43.1397051,12.5348837 L41.4031008,17.7324812 L45.3760516,19.751938 Z" id="Fill-5"></path>
                <path d="M19.751938,4.00530978 L18.0932817,2.66020039 C15.9366064,0.915024328 12.6910422,2.35576552 12.5813092,5.11154845 L12.5348837,6.25996534 L17.7640827,7.97674419 L19.751938,4.00530978 Z" id="Fill-7"></path>
                <path d="M4.00643885,19.751938 L7.97674419,17.7324812 L6.24364133,12.5348837 L5.08546202,12.5898177 C2.33582768,12.7165883 0.915183271,15.9783977 2.6732828,18.1250477 L4.00643885,19.751938 Z" id="Fill-9"></path>
                <path d="M36.8449612,6.25106921 L36.798886,5.10506434 C36.689981,2.35465265 33.4647159,0.916937452 31.3285013,2.65886486 L29.627907,4.04657257 L31.6133299,7.97674419 L36.8449612,6.25106921 Z" id="Fill-11"></path>
                <path d="M12.5348837,43.1017103 L12.5875088,44.2965656 C12.7089512,47.0443164 15.83407,48.4639876 17.8904953,46.7070924 L19.372093,45.4414618 L17.429014,41.4031008 L12.5348837,43.1017103 Z" id="Fill-13"></path>
                <path d="M45.4068181,29.627907 L41.4031008,31.6451224 L43.101143,36.8449612 L44.2789518,36.7983449 C47.0257849,36.6881609 48.4616294,33.4250183 46.7219685,31.2637161 L45.4068181,29.627907 Z" id="Fill-15"></path>
                <path d="M6.63132182,11.5464793 L6.90738877,12.3582691 L8.51022527,17.0930233 L11.1349215,15.7785006 L11.9754836,15.3540622 L13.9986011,14.3403551 C14.1592968,14.2579399 14.2911497,14.1260755 14.3694373,13.9694866 L15.3583339,11.9667969 L15.7786149,11.1220409 L17.0930233,8.46415022 L12.317477,6.88177809 L11.5057577,6.61392864 L10.4179715,6.25088962 C7.83447929,5.39418346 5.38696032,7.85839839 6.25636521,10.4379946 L6.63132182,11.5464793 Z" id="Fill-17"></path>
                <path d="M42.384309,37.4719583 L42.1154473,36.6527268 L40.5395043,31.9069767 L37.8508877,33.2351248 L37.0029394,33.6567393 L35.0340447,34.6294733 C34.876864,34.7118102 34.7445014,34.8404875 34.6617747,35.0014375 L33.6607821,36.996142 L33.2388761,37.8401987 L31.9069767,40.4964947 L36.614124,42.0890311 L37.4289817,42.3662458 L38.5457917,42.7427612 C41.1351363,43.6161944 43.6086636,41.1580862 42.7483063,38.5642669 L42.384309,37.4719583 Z" id="Fill-19"></path>
                <path d="M15.7690586,37.8400459 L15.3498723,36.9960109 L14.3620867,35.0017715 C14.2832299,34.8404119 14.1504184,34.7080143 13.9885544,34.6294032 L12.0129833,33.657108 L11.1663099,33.239228 L8.46857628,31.9069767 L6.88728932,36.6526046 L6.61751596,37.4718149 L6.25228432,38.5640954 C5.38900955,41.1582616 7.87092452,43.6158928 10.4690495,42.7428959 L11.5896466,42.3659763 L12.4072674,42.0891825 L17.0930233,40.5086857 L15.7690586,37.8400459 Z" id="Fill-21"></path>
                <path d="M33.2301261,11.1218292 L33.6533696,11.9666151 L34.6560045,13.9693758 C34.7340785,14.1259703 34.8655716,14.2578393 35.0217197,14.3361365 L37.0434262,15.3544126 L37.8816948,15.778454 L40.4992294,17.0930233 L42.0935833,12.3581012 L42.368897,11.5462826 L42.7428305,10.4377586 C43.6139724,7.8580709 41.1690224,5.39418066 38.5966885,6.25091721 L37.5118704,6.60943611 L36.702366,6.88141596 L31.9069767,8.47620693 L33.2301261,11.1218292 Z" id="Fill-23"></path>
                <path d="M28.5237342,28.9564253 C28.3375818,28.7702703 28.2217536,28.5096534 28.2217536,28.2238021 L28.2217536,22.8588161 L25.2929555,25.2912409 C24.8337795,25.6718244 24.1677675,25.6718244 23.7085915,25.2912409 L20.7756566,22.8588161 L20.7756566,28.2238021 C20.7756566,28.7946773 20.3123439,29.2579963 19.7414765,29.2579963 C19.4560428,29.2579963 19.1954294,29.1425803 19.009277,28.9564253 C18.8231245,28.7702703 18.7072964,28.5096534 18.7072964,28.2238021 L18.7072964,21.2413363 C18.7072964,20.4139809 19.3774451,19.7434094 20.2047892,19.7434094 L20.2089259,19.7434094 C20.5729573,19.7434094 20.9287153,19.8761999 21.2017389,20.1202698 L24.4987051,23.0528309 L27.7998081,20.1202698 C28.0728317,19.8761999 28.4244529,19.7434094 28.7926211,19.7434094 C29.2062931,19.7434094 29.578598,19.9092942 29.8516215,20.1823214 C30.1246451,20.4553487 30.2901139,20.8276586 30.2901139,21.2413363 L30.2901139,28.2238021 C30.2901139,28.7946773 29.8268012,29.2579963 29.2559338,29.2579963 C28.9705001,29.2579963 28.7098867,29.1425803 28.5237342,28.9564253 M47.1762072,21.5884119 L45.3022728,20.6497772 L44.5411162,20.2646433 L40.8718451,18.4241912 L40.1230987,18.0518813 L37.7982617,16.8811734 L36.950234,16.4592222 L34.5054322,15.2301858 C34.1869047,15.0692652 33.930428,14.812785 33.7690959,14.4942532 L32.5529001,12.0659651 L32.1268178,11.2179258 L30.9478525,8.87237331 L30.5714109,8.12361669 L28.7512539,4.49566332 L28.3706756,3.73863315 L27.4109564,1.82330543 C26.1864871,-0.617392958 22.6992317,-0.604982627 21.4871726,1.84398931 L20.5729573,3.68899182 L20.1965158,4.45015878 L18.3887689,8.11079268 L18.016464,8.85996298 L16.8499088,11.2179258 L16.4279633,12.0701019 L15.2324511,14.4859796 C15.0752557,14.8086482 14.8146423,15.0729883 14.4919781,15.2347362 L12.051313,16.4592222 L11.2032853,16.8848965 L8.87431159,18.0518813 L8.12970189,18.428328 L4.46043075,20.2646433 L3.69927417,20.6497772 L1.82533976,21.5884119 C-0.615325371,22.8128979 -0.60705193,26.3047513 1.84188664,27.5126902 L3.66618041,28.4140938 L4.43147371,28.7909542 L8.12970189,30.6231327 L8.87844831,30.9917195 L11.2611994,32.170701 L12.1092271,32.5881018 L14.4837047,33.7633601 C14.8105056,33.9246944 15.0752557,34.1890344 15.2365878,34.5158398 L16.4196899,36.9110337 L16.8374987,37.7553498 L18.0040539,40.1170358 L18.3763587,40.8662061 L20.2254728,44.6058524 L20.6019144,45.3670194 L21.4871726,47.1582438 C22.6992317,49.6072157 26.1864871,49.6150756 27.4109564,47.1747909 L28.3417185,45.3215148 L28.7222968,44.5603479 L30.5838211,40.8537957 L30.9602626,40.1050391 L32.139228,37.7553498 L32.5611735,36.9110337 L33.7690959,34.5079799 C33.930428,34.1853113 34.1910414,33.9288312 34.5137056,33.7674969 L36.8881832,32.5926522 L37.7403476,32.170701 L40.1230987,30.9958563 L40.8718451,30.6231327 L44.5700733,28.7909542 L45.3312299,28.4186443 L47.1596604,27.5126902 C49.6044622,26.3047513 49.6168724,22.8128979 47.1762072,21.5884119" id="Fill-25" fill-rule="nonzero"></path>
            </g>
        </g>
    </g>
</svg>