<?xml version="1.0" encoding="UTF-8"?>
<svg width="271px" height="145px" viewBox="0 0 271 145" version="1.1" xmlns="http://www.w3.org/2000/svg" xmlns:xlink="http://www.w3.org/1999/xlink">
    <!-- Generator: Sketch 52.3 (67297) - http://www.bohemiancoding.com/sketch -->
    <title>logo-shopify</title>
    <desc>Created with Sketch.</desc>
    <g id="Page-1" stroke="none" stroke-width="1" fill="none" fill-rule="evenodd">
        <g id="logo-shopify">
            <rect id="Rectangle" fill="#F9F9F9" fill-rule="nonzero" x="0" y="0" width="271" height="145" rx="72.5"></rect>
            <g transform="translate(86.000000, 58.000000)" fill="#111133">
                <g id="Group">
                    <path d="M21.48,5.44 C21.46,5.3 21.34,5.22 21.24,5.22 C21.14,5.22 19,5.06 19,5.06 C19,5.06 17.52,3.58 17.34,3.42 C17.18,3.26 16.86,3.3 16.74,3.34 C16.72,3.34 16.42,3.44 15.9,3.6 C15.4,2.14 14.52,0.82 12.98,0.82 C12.94,0.82 12.9,0.82 12.84,0.82 C12.42,0.26 11.86,0 11.4,0 C7.8,0 6.08,4.5 5.54,6.78 C4.14,7.22 3.14,7.52 3.02,7.56 C2.24,7.8 2.22,7.82 2.12,8.56 C2.04,9.12 0,24.92 0,24.92 L15.9,27.9 L24.52,26.04 C24.52,26.02 21.5,5.58 21.48,5.44 Z M15.02,3.84 C14.62,3.96 14.16,4.1 13.68,4.26 C13.68,4.16 13.68,4.08 13.68,3.96 C13.68,3.08 13.56,2.36 13.36,1.78 C14.16,1.9 14.68,2.8 15.02,3.84 Z M12.36,1.98 C12.58,2.54 12.72,3.32 12.72,4.4 C12.72,4.46 12.72,4.5 12.72,4.56 C11.84,4.84 10.9,5.12 9.94,5.42 C10.48,3.36 11.5,2.36 12.36,1.98 Z M11.3,0.96 C11.46,0.96 11.62,1.02 11.76,1.12 C10.6,1.66 9.38,3.02 8.86,5.76 C8.1,6 7.36,6.22 6.66,6.44 C7.26,4.36 8.72,0.96 11.3,0.96 Z" id="Shape" fill-rule="nonzero"></path>
                    <path d="M21.24,5.2 C21.14,5.2 19,5.04 19,5.04 C19,5.04 17.52,3.56 17.34,3.4 C17.28,3.34 17.2,3.3 17.12,3.3 L15.92,27.9 L24.54,26.04 C24.54,26.04 21.52,5.58 21.5,5.44 C21.46,5.3 21.34,5.22 21.24,5.2 Z" id="Shape"></path>
                    <path d="M12.98,9.96 L11.92,13.12 C11.92,13.12 10.98,12.62 9.84,12.62 C8.16,12.62 8.08,13.68 8.08,13.94 C8.08,15.38 11.84,15.94 11.84,19.32 C11.84,21.98 10.16,23.7 7.88,23.7 C5.14,23.7 3.76,22 3.76,22 L4.5,19.58 C4.5,19.58 5.94,20.82 7.14,20.82 C7.94,20.82 8.26,20.2 8.26,19.74 C8.26,17.86 5.18,17.78 5.18,14.68 C5.18,12.08 7.04,9.56 10.82,9.56 C12.26,9.54 12.98,9.96 12.98,9.96 Z" id="Shape"></path>
                </g>
                <path d="M34.58,15.9 C33.72,15.44 33.28,15.04 33.28,14.5 C33.28,13.82 33.9,13.38 34.86,13.38 C35.98,13.38 36.98,13.84 36.98,13.84 L37.76,11.44 C37.76,11.44 37.04,10.88 34.92,10.88 C31.96,10.88 29.9,12.58 29.9,14.96 C29.9,16.32 30.86,17.34 32.14,18.08 C33.18,18.66 33.54,19.08 33.54,19.7 C33.54,20.34 33.02,20.86 32.06,20.86 C30.64,20.86 29.28,20.12 29.28,20.12 L28.44,22.52 C28.44,22.52 29.68,23.36 31.78,23.36 C34.82,23.36 37.02,21.86 37.02,19.16 C37,17.68 35.9,16.66 34.58,15.9 Z" id="s"></path>
                <path d="M46.7,10.84 C45.2,10.84 44.02,11.56 43.12,12.64 L43.08,12.62 L44.38,5.82 L41,5.82 L37.7,23.14 L41.08,23.14 L42.2,17.22 C42.64,14.98 43.8,13.6 44.88,13.6 C45.64,13.6 45.94,14.12 45.94,14.86 C45.94,15.32 45.9,15.9 45.8,16.36 L44.52,23.14 L47.9,23.14 L49.22,16.14 C49.36,15.4 49.46,14.52 49.46,13.92 C49.48,11.98 48.48,10.84 46.7,10.84 Z" id="h"></path>
                <path d="M57.14,10.84 C53.06,10.84 50.36,14.52 50.36,18.62 C50.36,21.24 51.98,23.36 55.02,23.36 C59.02,23.36 61.72,19.78 61.72,15.58 C61.74,13.14 60.32,10.84 57.14,10.84 Z M55.48,20.76 C54.32,20.76 53.84,19.78 53.84,18.54 C53.84,16.6 54.84,13.44 56.68,13.44 C57.88,13.44 58.28,14.48 58.28,15.48 C58.28,17.56 57.26,20.76 55.48,20.76 Z" id="o" fill-rule="nonzero"></path>
                <path d="M70.4,10.84 C68.12,10.84 66.82,12.86 66.82,12.86 L66.78,12.86 L66.98,11.04 L63.98,11.04 C63.84,12.26 63.56,14.14 63.3,15.54 L60.94,27.94 L64.32,27.94 L65.26,22.92 L65.34,22.92 C65.34,22.92 66.04,23.36 67.32,23.36 C71.3,23.36 73.9,19.28 73.9,15.16 C73.9,12.88 72.88,10.84 70.4,10.84 Z M67.16,20.8 C66.28,20.8 65.76,20.3 65.76,20.3 L66.32,17.14 C66.72,15.02 67.82,13.62 69,13.62 C70.04,13.62 70.36,14.58 70.36,15.48 C70.36,17.68 69.06,20.8 67.16,20.8 Z" id="p" fill-rule="nonzero"></path>
                <path d="M78.74,5.98 C77.66,5.98 76.8,6.84 76.8,7.94 C76.8,8.94 77.44,9.64 78.4,9.64 L78.44,9.64 C79.5,9.64 80.4,8.92 80.42,7.68 C80.42,6.68 79.76,5.98 78.74,5.98 Z" id="dot"></path>
                <polygon id="i" points="74 23.12 77.38 23.12 79.68 11.1 76.28 11.1"></polygon>
                <path d="M88.3,11.08 L85.94,11.08 L86.06,10.52 C86.26,9.36 86.94,8.34 88.08,8.34 C88.68,8.34 89.16,8.52 89.16,8.52 L89.82,5.86 C89.82,5.86 89.24,5.56 87.98,5.56 C86.78,5.56 85.58,5.9 84.66,6.68 C83.5,7.66 82.96,9.08 82.7,10.52 L82.6,11.08 L81.02,11.08 L80.52,13.64 L82.1,13.64 L80.3,23.12 L83.68,23.12 L85.48,13.64 L87.82,13.64 L88.3,11.08 Z" id="f"></path>
                <path d="M96.46,11.1 C96.46,11.1 94.34,16.44 93.4,19.36 L93.36,19.36 C93.3,18.42 92.52,11.1 92.52,11.1 L88.96,11.1 L91,22.12 C91.04,22.36 91.02,22.52 90.92,22.68 C90.52,23.44 89.86,24.18 89.08,24.72 C88.44,25.18 87.72,25.48 87.16,25.68 L88.1,28.56 C88.78,28.42 90.22,27.84 91.42,26.72 C92.96,25.28 94.4,23.04 95.86,20 L100,11.1 L96.46,11.1 Z" id="y"></path>
            </g>
        </g>
    </g>
</svg>