<?xml version="1.0" encoding="UTF-8"?>
<svg width="271px" height="145px" viewBox="0 0 271 145" version="1.1" xmlns="http://www.w3.org/2000/svg" xmlns:xlink="http://www.w3.org/1999/xlink">
    <!-- Generator: Sketch 52.3 (67297) - http://www.bohemiancoding.com/sketch -->
    <title>logo-stripe</title>
    <desc>Created with Sketch.</desc>
    <g id="Page-1" stroke="none" stroke-width="1" fill="none" fill-rule="evenodd">
        <g id="logo-stripe">
            <rect id="Rectangle" fill="#FFFFFF" fill-rule="nonzero" x="0" y="0" width="271" height="145" rx="72.5"></rect>
            <g transform="translate(106.000000, 60.000000)" fill="#2b2c34">
                <path d="M60,13.1827558 C60,8.95833334 57.9138627,5.625 53.9266487,5.625 C49.922611,5.625 47.5,8.95833334 47.5,13.1497525 C47.5,18.1167492 50.3600269,20.625 54.4650067,20.625 C56.4670256,20.625 57.9811575,20.1794555 59.1251682,19.5523928 L59.1251682,16.2520627 C57.9811575,16.8131188 56.6689098,17.1596534 55.0033647,17.1596534 C53.371467,17.1596534 51.9246299,16.5985974 51.7395693,14.6514027 L59.9663526,14.6514027 C59.9663526,14.4368812 60,13.5787954 60,13.1827558 Z M51.6890982,11.615099 C51.6890982,9.75041257 52.8499327,8.97483498 53.909825,8.97483498 C54.93607,8.97483498 56.0296097,9.75041257 56.0296097,11.615099 L51.6890982,11.615099 Z" id="Shape" fill-rule="nonzero"></path>
                <path d="M40.7142857,5.625 C39.1233766,5.625 38.1006494,6.37901862 37.5324675,6.9035533 L37.3214285,5.88726734 L33.75,5.88726734 L33.75,25 L37.8084416,24.1312394 L37.8246753,19.4923858 C38.4090909,19.9185702 39.2694805,20.5250635 40.698052,20.5250635 C43.6038961,20.5250635 46.25,18.1646574 46.25,12.9684856 C46.2337662,8.21489005 43.5551948,5.625 40.7142857,5.625 Z M39.7402597,16.9188875 C38.7824675,16.9188875 38.2142857,16.5746616 37.8246753,16.1484772 L37.8084416,10.0671531 C38.2305195,9.59179357 38.814935,9.26395936 39.7402597,9.26395936 C41.2175325,9.26395936 42.2402598,10.9359137 42.2402598,13.0832276 C42.2402598,15.2797166 41.2337662,16.9188875 39.7402597,16.9188875 Z" id="Shape" fill-rule="nonzero"></path>
                <polygon id="Shape" points="28.125 4.375 31.875 3.4557393 31.875 0 28.125 0.902237352"></polygon>
                <rect id="Rectangle-path" x="28.125" y="5.625" width="3.75" height="14.375"></rect>
                <path d="M23.9545454,7.05388984 L23.6818182,5.80012932 L20,5.80012932 L20,20.625 L24.2613636,20.625 L24.2613636,10.5779733 C25.2670454,9.27338475 26.9715909,9.51058268 27.5,9.6969525 L27.5,5.80012932 C26.9545454,5.59681681 24.9602273,5.2240772 23.9545454,7.05388984 Z" id="Shape"></path>
                <path d="M15.1310484,1.875 L11.265841,2.75337838 L11.25,16.2837838 C11.25,18.7837838 13.0083526,20.625 15.3528226,20.625 C16.6517857,20.625 17.6022466,20.3716216 18.125,20.0675675 L18.125,16.6385135 C17.6180876,16.8581081 15.1152074,17.6351352 15.1152074,15.1351351 L15.1152074,9.13851355 L18.125,9.13851355 L18.125,5.54054054 L15.1152074,5.54054054 L15.1310484,1.875 Z" id="Shape"></path>
                <path d="M4.23326772,10.092033 C4.23326772,9.44917582 4.76870079,9.20192305 5.65551181,9.20192305 C6.92716534,9.20192305 8.53346455,9.58104395 9.80511811,10.2568681 L9.80511811,6.38324176 C8.41633861,5.83928571 7.04429134,5.625 5.65551181,5.625 C2.25885827,5.625 0,7.37225277 0,10.2898351 C0,14.8392857 6.35826772,14.114011 6.35826772,16.0755494 C6.35826772,16.8337912 5.68897638,17.081044 4.75196851,17.081044 C3.36318898,17.081044 1.58956693,16.5206044 0.184055118,15.7623627 L0.184055118,19.6854395 C1.74015748,20.3447802 3.31299213,20.625 4.75196851,20.625 C8.23228343,20.625 10.625,18.9271978 10.625,15.9766484 C10.6082677,11.0645605 4.23326772,11.9381868 4.23326772,10.092033 Z" id="Shape"></path>
            </g>
        </g>
    </g>
</svg>