<?xml version="1.0" encoding="UTF-8"?>
<svg width="271px" height="145px" viewBox="0 0 271 145" version="1.1" xmlns="http://www.w3.org/2000/svg" xmlns:xlink="http://www.w3.org/1999/xlink">
    <!-- Generator: Sketch 52.3 (67297) - http://www.bohemiancoding.com/sketch -->
    <title>logo-apple</title>
    <desc>Created with Sketch.</desc>
    <g id="Page-1" stroke="none" stroke-width="1" fill="none" fill-rule="evenodd">
        <g id="logo-apple">
            <rect id="Rectangle" fill="#FFFFFF" fill-rule="nonzero" x="0" y="0" width="271" height="145" rx="72.5"></rect>
            <path d="M150.068966,66.4137931 C147.436768,68.2758714 146.12069,70.5172283 146.12069,73.137931 C146.12069,76.2758778 147.74711,78.6838997 151,80.362069 C150.126432,82.8908172 148.862077,85.0919447 147.206897,86.9655172 C145.551716,88.8390898 144.040237,89.7758621 142.672414,89.7758621 C142.028732,89.7758621 141.149431,89.5632205 140.034483,89.137931 L139.5,88.9310345 C138.408041,88.505745 137.442533,88.2931034 136.603448,88.2931034 C135.810341,88.2931034 134.942533,88.4597684 134,88.7931034 L133.327586,89.0344828 L132.482759,89.3793103 C131.816089,89.6436795 131.143682,89.7758621 130.465517,89.7758621 C128.867808,89.7758621 127.103458,88.4597833 125.172414,85.8275862 C122.390791,82.0574524 121,77.9482981 121,73.5 C121,70.3390647 121.867807,67.7931131 123.603448,65.862069 C125.339089,63.9310248 127.637917,62.9655172 130.5,62.9655172 C131.568971,62.9655172 132.568961,63.1609176 133.5,63.5517241 L134.137931,63.8103448 L134.810345,64.0862069 C135.408049,64.3390817 135.890803,64.4655172 136.258621,64.4655172 C136.729887,64.4655172 137.252871,64.3563229 137.827586,64.137931 L138.706897,63.7931034 L139.362069,63.5517241 C140.408051,63.1724119 141.563212,62.9827586 142.827586,62.9827586 C145.827601,62.9827586 148.24137,64.1264253 150.068966,66.4137931 Z M142.965517,55 C143,55.4023009 143.017241,55.7126426 143.017241,55.9310345 C143.017241,57.9195502 142.293111,59.6637856 140.844828,61.1637931 C139.396544,62.6638006 137.712653,63.4137931 135.793103,63.4137931 C135.735632,62.965515 135.706897,62.6436791 135.706897,62.4482759 C135.706897,60.7586122 136.379304,59.1724212 137.724138,57.6896552 C139.068972,56.2068891 140.626428,55.3390817 142.396552,55.0862069 C142.522989,55.0632183 142.712642,55.0344829 142.965517,55 Z" id="" fill="#2b2c34"></path>
        </g>
    </g>
</svg>