<?xml version="1.0" encoding="UTF-8"?>
<svg width="271px" height="145px" viewBox="0 0 271 145" version="1.1" xmlns="http://www.w3.org/2000/svg" xmlns:xlink="http://www.w3.org/1999/xlink">
    <!-- Generator: Sketch 52.3 (67297) - http://www.bohemiancoding.com/sketch -->
    <title>logo-lyft</title>
    <desc>Created with Sketch.</desc>
    <g id="Page-1" stroke="none" stroke-width="1" fill="none" fill-rule="evenodd">
        <g id="logo-lyft" fill-rule="nonzero">
            <rect id="Rectangle" fill="#FFFFFF" x="0" y="0" width="271" height="145" rx="72.5"></rect>
            <g id="logo_standard" transform="translate(114.000000, 57.000000)" fill="#2b2c34">
                <path d="M0.154773869,0.508542714 L6.81005025,0.508542714 L6.81005025,18.3517588 C6.81005025,21.1819095 8.09246231,22.8623116 9.13165829,23.5698492 C8.04824121,24.520603 4.75376884,25.360804 2.27738693,23.3266332 C0.818090452,22.1326633 0.154773869,20.1427136 0.154773869,18.2854271 L0.154773869,0.508542714 Z M41.7005025,15.3447236 L41.7005025,13.4653266 L43.7346734,13.4653266 L43.7346734,6.89849246 L41.5015075,6.89849246 C40.639196,2.94070352 37.1236181,0 32.9226131,0 C28.080402,0 24.1447236,3.93567839 24.1447236,8.77788945 L24.1447236,24.1005025 C25.5155779,24.2994975 27.1738693,24.078392 28.5668342,22.9065327 C30.0261307,21.7125628 30.6894472,19.7226131 30.6894472,17.8653266 L30.6894472,17.2904523 L34.0060302,17.2904523 L34.0060302,10.7236181 L30.6894472,10.7236181 L30.6894472,8.73366834 C30.6894472,7.49547739 31.6844221,6.50050251 32.9226131,6.50050251 C34.160804,6.50050251 35.1557789,7.49547739 35.1557789,8.73366834 L35.1557789,15.3226131 C35.1557789,20.1648241 39.0914573,24.1005025 43.9336683,24.1005025 L43.9336683,17.5557789 C42.6954774,17.5557789 41.7005025,16.560804 41.7005025,15.3447236 Z M16.5386935,6.87638191 L16.5386935,16.5386935 C16.5386935,17.0914573 16.0743719,17.5336683 15.521608,17.5336683 C14.9688442,17.5336683 14.5045226,17.0914573 14.5045226,16.5386935 L14.5045226,6.87638191 L7.93768844,6.87638191 L7.93768844,18.2190955 C7.93768844,20.2532663 8.62311558,22.840201 11.7849246,23.680402 C14.9467337,24.520603 16.759799,22.7738693 16.759799,22.7738693 C16.5829146,23.9236181 15.521608,24.7638191 13.7748744,24.9407035 C12.4482412,25.0733668 10.7678392,24.6311558 9.92763819,24.2773869 L9.92763819,30.2914573 C12.0723618,30.9326633 14.3276382,31.1316583 16.560804,30.6894472 C20.5849246,29.9155779 23.1276382,26.5547739 23.1276382,22.0663317 L23.1276382,6.8321608 L16.5386935,6.8321608 L16.5386935,6.87638191 Z"></path>
            </g>
        </g>
    </g>
</svg>