<?xml version="1.0" encoding="UTF-8"?>
<svg width="271px" height="145px" viewBox="0 0 271 145" version="1.1" xmlns="http://www.w3.org/2000/svg" xmlns:xlink="http://www.w3.org/1999/xlink">
    <!-- Generator: Sketch 52.3 (67297) - http://www.bohemiancoding.com/sketch -->
    <title>logo-microsoft</title>
    <desc>Created with Sketch.</desc>
    <defs>
        <polygon id="path-1" points="12.3661942 0.0331198351 12.3661942 15.2261611 0.046698502 15.2261611 0.046698502 0.0331198351"></polygon>
        <polygon id="path-3" points="10.7053368 10.7371982 0 10.7371982 0 5.38434167 0 0.0314850658 10.7053368 0.0314850658"></polygon>
        <polygon id="path-5" points="10.7371854 10.7371982 0.0321344413 10.7371982 0.0321344413 0.0319750297 10.7371854 0.0319750297"></polygon>
    </defs>
    <g id="Page-1" stroke="none" stroke-width="1" fill="none" fill-rule="evenodd">
        <g id="logo-microsoft">
            <rect id="Rectangle" fill="#F9F9F9" fill-rule="nonzero" x="0" y="0" width="271" height="145" rx="72.5"></rect>
            <g transform="translate(81.000000, 61.000000)">
                <path d="M0,0 L10.7371982,0 C10.7365534,3.57906609 10.7371982,7.15813218 10.7365534,10.7371982 L0,10.7371982 L0,0 Z" id="Fill-1" fill="#111133"></path>
                <path d="M12.4327066,0 L23.1695824,0 C23.1695824,3.57906609 23.1702273,7.15813218 23.1689376,10.7371982 C19.5906238,10.7364889 16.0116652,10.7371982 12.4333514,10.7371982 C12.4320617,7.15813218 12.4327066,3.57906609 12.4327066,0" id="Fill-3" fill="#111133"></path>
                <g id="Group-7" transform="translate(96.069668, 3.390694)">
                    <g id="Fill-5-Clipped">
                        <mask id="mask-2" fill="white">
                            <use xlink:href="#path-1"></use>
                        </mask>
                        <g id="path-1"></g>
                        <path d="M9.98808088,6.93621706 C9.9914051,8.05138689 9.98874571,9.16655675 9.98941062,10.2823236 C10.0020426,10.9000123 9.95616852,11.5208852 10.0285698,12.1365837 C10.0725158,12.4993954 10.2048194,12.9014801 10.5458834,13.0892214 C11.1169161,13.4083152 11.8416604,13.2690018 12.3662208,12.9187284 L12.3662208,14.8777388 C11.6820319,15.1742771 10.9174635,15.2644991 10.1775608,15.2120908 C9.47548772,15.1603459 8.74815059,14.9056015 8.29007442,14.348282 C7.76086021,13.7187185 7.6245676,12.8663201 7.61393012,12.0689172 C7.60794655,10.3572875 7.61459497,8.6457903 7.61127076,6.93356348 C6.44314337,6.93290008 5.27494949,6.93217035 4.10755343,6.93422688 C4.10615726,9.62032008 4.10688858,12.3064132 4.10688858,14.9924401 L1.71272607,14.9924401 C1.71272607,12.3070766 1.70940186,9.62224391 1.71412224,6.93688046 C1.15897916,6.92626611 0.603171254,6.93953405 0.0479617018,6.9282563 C0.050022712,6.29073208 0.05268208,5.65247813 0.046698502,5.01429052 C0.599115718,5.00175232 1.15233074,5.00705949 1.70614413,5.01097353 C1.74669949,4.1632189 1.6170553,3.29085225 1.87095846,2.46492337 C2.08576891,1.71919915 2.56305898,1.04658125 3.22131904,0.62598775 C4.24178503,-0.0367455427 5.56016671,-0.0984414349 6.71040985,0.21733539 C6.72038248,0.899307187 6.71173954,1.58194238 6.71506375,2.26457758 C6.16856363,2.02442797 5.52566141,1.86786635 4.9505066,2.10330584 C4.49449147,2.28381608 4.22323594,2.75084734 4.15209784,3.21787861 C4.06633323,3.81029186 4.12217996,4.41066587 4.10755343,5.00639609 C5.27494949,5.00904968 6.44247852,5.00705949 7.6098746,5.00772288 C7.61851754,4.25138432 7.60063329,3.49451503 7.61991371,2.73824281 C8.41366856,2.51262159 9.19891342,2.25993379 9.98874571,2.02243778 C9.9953277,3.01885961 9.97943796,4.0158785 9.99738871,5.01303006 C10.7865562,5.00175232 11.5763885,5.01037647 12.3662208,5.00772288 L12.3662208,6.94749481 C11.5737291,6.91498837 10.7805726,6.93887065 9.98808088,6.93621706" id="Fill-5" fill="#111133" mask="url(#mask-2)"></path>
                    </g>
                </g>
                <path d="M48.0983866,4.53840555 C48.572602,4.4629979 49.0860087,4.63292197 49.4002581,5.02194603 C49.7685916,5.44788629 49.8365232,6.1260073 49.5635554,6.62386222 C49.261782,7.18548147 48.5863843,7.44649745 47.9977954,7.31150336 C47.3870634,7.19650839 46.878229,6.60126047 46.9056629,5.93765938 C46.8880921,5.23899133 47.4451973,4.61648433 48.0983866,4.53840555" id="Fill-8" fill="#111133"></path>
                <path d="M29.9519072,4.52230845 L33.4673603,4.52230845 C34.5615342,7.30619178 35.6637634,10.0873175 36.7592799,12.8712681 C37.0392004,13.5673398 37.3009295,14.27155 37.5943426,14.9623754 C39.0020007,11.4836983 40.4297969,8.0136977 41.8267146,4.53031237 C42.9537809,4.51221948 44.0815184,4.52634404 45.2092559,4.52365365 C45.2065708,9.23116737 45.2079134,13.9386811 45.2085846,18.6461277 C44.3950025,18.6441772 43.5820918,18.6529209 42.769181,18.6414867 C42.7779075,15.1675178 42.7685097,11.6934816 42.7732086,8.21890737 C42.7745511,8.06286463 42.769181,7.90675459 42.7584406,7.7507791 C42.7107803,7.82335243 42.6684901,7.89868341 42.6315701,7.97670478 C41.2346524,11.5327307 39.8108838,15.0786676 38.4220214,18.6380565 C37.8433846,18.6589743 37.2640766,18.6394689 36.6847686,18.648818 C35.2435469,15.0927921 33.8204496,11.5287623 32.3866119,7.97004602 C32.3490206,7.89599302 32.3087443,7.82409229 32.2651116,7.75481468 C32.2355756,9.27683679 32.2604127,10.8003386 32.2523574,12.322428 C32.2530287,14.4303504 32.2510149,16.5382054 32.2530287,18.6461277 C31.4857644,18.6482127 30.7185002,18.6461277 29.9519072,18.6468675 C29.9512358,13.9386811 29.9505646,9.23049484 29.9519072,4.52230845" id="Fill-10" fill="#111133"></path>
                <path d="M55.064672,8.72295191 C56.2292836,8.38615676 57.4850272,8.39976465 58.6489017,8.73383826 C58.888793,8.80187765 59.1213803,8.89645243 59.3371484,9.02504695 C59.3237466,9.80545917 59.3371484,10.5865518 59.3297104,11.3676444 C58.5518061,10.7641347 57.5647676,10.3817531 56.5757187,10.5083064 C55.7903765,10.5804282 55.0411519,10.9941079 54.5714878,11.6384412 C53.9677391,12.4372241 53.828361,13.4979588 53.9322245,14.4750049 C54.0099546,15.239768 54.3214782,16.0038507 54.9071345,16.5107445 C55.5155737,17.0598226 56.3686618,17.2544153 57.1647255,17.1931799 C57.9514079,17.1013267 58.6937976,16.7631707 59.3297104,16.2909091 C59.3364783,17.0305656 59.326427,17.7701542 59.3350711,18.5097427 C58.3487697,19.1057681 57.1659986,19.2595372 56.0369686,19.2030645 C54.8817381,19.1411486 53.7298582,18.6968511 52.8935893,17.8722133 C51.9849509,16.982938 51.4917667,15.7146832 51.4334691,14.4443872 C51.3745014,13.1237419 51.6391859,11.7459435 52.3876734,10.6430245 C53.014808,9.7020392 53.9958828,9.0359333 55.064672,8.72295191" id="Fill-12" fill="#111133"></path>
                <path d="M74.0776421,15.8217368 C73.8516249,16.3481975 73.4375776,16.7930363 72.9150893,17.0038927 C72.3038767,17.2467176 71.6170841,17.2610014 70.9860892,17.0916361 C70.3439872,16.9168974 69.7991536,16.4366211 69.5028141,15.8252056 C69.1216277,15.0375551 69.0644497,14.1267236 69.1433159,13.2628928 C69.2149526,12.4772828 69.4790885,11.6692268 70.0574403,11.1271219 C70.4767453,10.7218016 71.0485249,10.5238007 71.6144552,10.491152 C72.3255649,10.442859 73.0826142,10.6509947 73.5939955,11.1863657 C74.140735,11.7426865 74.3524249,12.5500623 74.4108515,13.3200961 C74.4529135,14.1627733 74.4193954,15.040956 74.0776421,15.8217368 M76.3634459,11.1230409 C75.9526848,10.1776562 75.211343,9.38789708 74.2964957,8.9607429 C73.2423182,8.46421016 72.0442756,8.39762037 70.9085375,8.54726036 C69.715687,8.70295397 68.5543829,9.28382927 67.7972679,10.2681203 C67.1059404,11.1469152 66.7693791,12.275949 66.7049718,13.3962084 C66.6096752,14.7164413 66.8226138,16.1176838 67.5719079,17.2195784 C68.2100665,18.1704045 69.2175158,18.8241272 70.3058686,19.0649115 C71.2154582,19.2627764 72.1671754,19.2635247 73.076765,19.0676323 C74.140735,18.8411318 75.1344485,18.2316889 75.793638,17.3324205 C76.4377116,16.4856622 76.7610628,15.4177768 76.8340139,14.3519319 C76.9082796,13.2601721 76.8018102,12.1297779 76.3634459,11.1230409" id="Fill-14" fill="#111133" fill-rule="nonzero"></path>
                <path d="M80.85553,8.56515967 C81.9812354,8.36577667 83.1596762,8.51208165 84.2252081,8.91833301 C84.22656,9.66959187 84.2252081,10.4201702 84.2258837,11.1707486 C83.4814989,10.6556191 82.5721455,10.3786604 81.6688775,10.4106433 C81.213863,10.4283361 80.7135498,10.6222752 80.505987,11.0577876 C80.3410192,11.4885365 80.4552799,12.0533416 80.8589109,12.3112466 C81.5492077,12.7760199 82.3726963,12.9733615 83.0880097,13.3898202 C83.6512002,13.7082887 84.1974878,14.1247473 84.4828017,14.7249378 C85.0189482,15.8491042 84.7917787,17.3346097 83.8492967,18.172971 C82.9494088,19.0194981 81.6533273,19.2535861 80.4613645,19.2086738 C79.6148884,19.1535543 78.7643558,18.9854738 77.9861659,18.6370639 C77.9895464,17.8470172 77.9814332,17.057651 77.9902225,16.2682848 C78.6446864,16.7466679 79.399889,17.0889535 80.1990382,17.227773 C80.7554677,17.3189584 81.360576,17.3230414 81.8791441,17.0726217 C82.3754009,16.8242436 82.4646458,16.1144945 82.1698671,15.6803431 C81.8940188,15.345543 81.4890351,15.1611307 81.1070389,14.9801208 C80.3896981,14.655528 79.6358477,14.3840133 79.0057232,13.8974644 C78.5628783,13.5497349 78.2275332,13.0597835 78.09637,12.5072272 C77.9016534,11.6926829 77.9625024,10.7747045 78.4330673,10.062914 C78.970566,9.23339897 79.9042587,8.73596222 80.85553,8.56515967" id="Fill-16" fill="#111133"></path>
                <path d="M93.5632979,14.8896296 C93.4725305,15.4283769 93.2923117,15.9657638 92.9508816,16.3922722 C92.6069525,16.8208893 92.0952352,17.0820321 91.5670746,17.1623001 C91.0001079,17.2500506 90.4028845,17.2078759 89.8727513,16.9718338 C89.3004564,16.7215747 88.8572088,16.2092885 88.6237134,15.6202037 C88.3428608,14.9181995 88.2869533,14.1406891 88.3428608,13.3897079 C88.3967956,12.662603 88.5960891,11.9163154 89.0604492,11.3510388 C89.4840299,10.8232432 90.1338059,10.5314217 90.7889744,10.4932604 C91.4578904,10.4449636 92.1721901,10.6048873 92.6865381,11.0721418 C93.1607647,11.4789233 93.4232006,12.0884153 93.5435658,12.7019887 C93.6790597,13.421679 93.6777435,14.1665381 93.5632979,14.8896296 M95.6996193,11.4190624 C95.3351683,10.402789 94.6058066,9.5239233 93.6652472,9.03762216 C92.5865623,8.47431824 91.3316057,8.39200962 90.149657,8.54370236 C89.1965345,8.67022635 88.2599863,9.04435649 87.5325322,9.70486624 C86.6445914,10.4959814 86.1236657,11.659254 85.9704132,12.8489198 C85.8243963,14.0386536 85.8737262,15.2916495 86.3426913,16.4051967 C86.7925816,17.4976567 87.6805224,18.3846852 88.7486827,18.8194244 C89.8030313,19.2485857 90.9751135,19.2968825 92.0847114,19.1112459 C93.2193029,18.9173105 94.293975,18.3004039 94.9965014,17.3507936 C95.7469757,16.3698924 96.0698573,15.100571 96.0679506,13.8638328 C96.0843938,13.0359848 95.984418,12.1965729 95.6996193,11.4190624" id="Fill-18" fill="#111133" fill-rule="nonzero"></path>
                <path d="M64.5264262,8.81684139 C65.1680236,8.42070962 65.9832526,8.38753833 66.6836525,8.62975521 C66.6803605,9.42646376 66.6836525,10.223305 66.681716,11.0200799 C66.2233676,10.7148375 65.6515454,10.5842089 65.1106413,10.6406001 C64.4509062,10.7174912 63.9280752,11.2383472 63.6569777,11.8354308 C63.3627078,12.4676096 63.3071328,13.1828494 63.3258515,13.8740731 C63.3258515,15.4656991 63.3264969,17.0572585 63.3258515,18.648818 L61.0344319,18.648818 C61.0324954,15.3223989 61.0370137,11.9953165 61.0324954,8.66889733 C61.7974423,8.65894595 62.5622601,8.6629265 63.3271424,8.66690705 C63.323915,9.23811706 63.3271424,9.80932708 63.3252705,10.3812005 C63.573712,9.7595701 63.943631,9.15578591 64.5264262,8.81684139" id="Fill-20" fill="#111133"></path>
                <path d="M47.4697187,8.48193109 C48.222996,8.47848494 48.9769673,8.47037627 49.7301815,8.48598539 C49.7213491,11.8733035 49.7295506,15.2613648 49.7264593,18.648818 L47.4710435,18.648818 C47.4690878,15.260081 47.4716113,11.8712763 47.4697187,8.48193109" id="Fill-22" fill="#111133"></path>
                <g id="Group-26" transform="translate(0.000000, 12.432545)">
                    <g id="Fill-24-Clipped">
                        <mask id="mask-4" fill="white">
                            <use xlink:href="#path-3"></use>
                        </mask>
                        <g id="path-3"></g>
                        <path d="M0,0.0314850658 C3.56835032,0.0328352525 7.13670065,0.0308421198 10.705051,0.0328352525 C10.7056939,3.60118558 10.705051,7.16889296 10.705051,10.7372433 L0,10.7372433 L0,0.0314850658 Z" id="Fill-24" fill="#111133" mask="url(#mask-4)"></path>
                    </g>
                </g>
                <g id="Group-29" transform="translate(12.432545, 12.432545)">
                    <g id="Fill-27-Clipped">
                        <mask id="mask-6" fill="white">
                            <use xlink:href="#path-5"></use>
                        </mask>
                        <g id="path-5"></g>
                        <path d="M0.0327773873,0.0328031051 C3.60048477,0.0314529185 7.16883509,0.0321601591 10.7371854,0.0321601591 L10.7371854,10.7372111 L0.0321344413,10.7372111 C0.0327773873,7.16886081 0.0314914953,3.60051048 0.0327773873,0.0328031051" id="Fill-27" fill="#111133" mask="url(#mask-6)"></path>
                    </g>
                </g>
            </g>
        </g>
    </g>
</svg>