<?xml version="1.0" encoding="UTF-8"?>
<svg width="271px" height="145px" viewBox="0 0 271 145" version="1.1" xmlns="http://www.w3.org/2000/svg" xmlns:xlink="http://www.w3.org/1999/xlink">
    <!-- Generator: Sketch 52.3 (67297) - http://www.bohemiancoding.com/sketch -->
    <title>logo-gopro</title>
    <desc>Created with Sketch.</desc>
    <g id="Page-1" stroke="none" stroke-width="1" fill="none" fill-rule="evenodd">
        <g id="logo-gopro">
            <rect id="Rectangle" fill="#FFFFFF" fill-rule="nonzero" x="0" y="0" width="271" height="145" rx="72.5"></rect>
            <g transform="translate(101.000000, 61.000000)" fill="#2b2c34">
                <path d="M25.45,10 C28.55,10 30.1,9.2 30.1,7.55 L30.1,4.775 C30.1,3.125 28.55,2.325 25.45,2.325 L21.725,2.325 C18.625,2.325 17.075,3.125 17.075,4.775 L17.075,7.55 C17.075,9.2 18.625,10 21.725,10 L25.45,10 Z M25.45,8.575 L21.725,8.575 C20,8.575 19.175,8.275 19.175,7.675 L19.175,4.675 C19.175,4.075 20,3.775 21.725,3.775 L25.45,3.775 C27.175,3.775 28,4.075 28,4.675 L28,7.675 C28,8.275 27.2,8.575 25.45,8.575 Z" id="Shape" fill-rule="nonzero"></path>
                <path d="M65.325,10 C68.425,10 69.975,9.2 69.975,7.55 L69.975,4.775 C69.975,3.125 68.425,2.325 65.325,2.325 L61.6,2.325 C58.5,2.325 56.95,3.125 56.95,4.775 L56.95,7.55 C56.95,9.2 58.5,10 61.6,10 L65.325,10 Z M65.325,8.575 L61.6,8.575 C59.875,8.575 59.05,8.275 59.05,7.675 L59.05,4.675 C59.05,4.075 59.875,3.775 61.6,3.775 L65.325,3.775 C67.05,3.775 67.875,4.075 67.875,4.675 L67.875,7.675 C67.9,8.275 67.075,8.575 65.325,8.575 Z" id="Shape" fill-rule="nonzero"></path>
                <path d="M14.925,7.525 L14.925,5.6 C14.925,5.175 14.675,5 14.15,5 L9.625,5 C9.2,5.025 8.85,5.375 8.875,5.825 C8.9,6.225 9.225,6.55 9.625,6.575 L12.725,6.575 L12.725,7.6 C12.725,7.9 12.325,8.2 11.65,8.4 C11.175,8.525 10.675,8.575 10.2,8.55 L5.2,8.55 C3.2,8.55 2.225,8.225 2.225,7.55 L2.225,2.65 C2.225,2 3.425,1.675 5.8,1.675 L7.2,1.675 C7.725,1.675 8,1.425 8,0.95 C7.975,0.5 7.725,0.25 7.175,0.25 L5.175,0.25 C4.05,0.225 2.95,0.375 1.875,0.725 C0.775,1.1 0,1.775 0,2.65 L0,7.55 C0,8.45 0.625,9.125 1.85,9.525 C2.925,9.85 4.05,10 5.175,9.975 L10.2,9.975 C11.25,10 12.325,9.825 13.3,9.475 C14.4,9.05 14.95,8.4 14.925,7.525 Z" id="Path"></path>
                <path d="M45.5,0.65 C44.45,0.35 43.4,0.225 42.3,0.25 L32.925,0.25 C32.575,0.25 32.3,0.525 32.3,0.875 L32.3,9.35 C32.3,9.775 32.575,10 33.075,10 L33.725,10 C34.225,10 34.5,9.8 34.5,9.35 L34.5,6.5 L42.3,6.5 C43.425,6.525 44.525,6.375 45.6,6.05 C46.8,5.6 47.425,4.9 47.425,3.925 L47.425,2.4 C47.425,1.65 46.775,1.05 45.5,0.65 Z M45.2,4.05 C45.2,4.825 44.225,5.075 42.3,5.075 L34.5,5.075 L34.5,1.7 L42.3,1.7 C44.225,1.7 45.2,1.925 45.2,2.725 L45.2,4.05 Z" id="Shape" fill-rule="nonzero"></path>
                <path d="M54.725,2.325 C52.8,2.325 51.975,2.3 50.85,2.75 C49.775,3.2 49.325,3.975 49.325,4.675 L49.325,9.375 C49.325,9.775 49.575,9.975 50.075,9.975 L50.7,9.975 C51.175,9.975 51.45,9.775 51.45,9.375 L51.45,4.7 C51.45,4.05 52.275,3.775 53.875,3.775 L54.775,3.775 C55.3,3.775 55.55,3.525 55.55,3.05 C55.5,2.575 55.25,2.325 54.725,2.325" id="Path"></path>
                <rect id="Rectangle" x="0" y="12.4" width="15.175" height="9.95"></rect>
                <rect id="Rectangle" x="18.275" y="12.4" width="15.175" height="9.95"></rect>
                <rect id="Rectangle" x="36.525" y="12.4" width="15.175" height="9.95"></rect>
                <rect id="Rectangle" x="54.8" y="12.4" width="15.175" height="9.95"></rect>
            </g>
        </g>
    </g>
</svg>