<?xml version="1.0" encoding="UTF-8"?>
<svg width="271px" height="145px" viewBox="0 0 271 145" version="1.1" xmlns="http://www.w3.org/2000/svg" xmlns:xlink="http://www.w3.org/1999/xlink">
    <!-- Generator: Sketch 52.3 (67297) - http://www.bohemiancoding.com/sketch -->
    <title>logo-salesforce</title>
    <desc>Created with Sketch.</desc>
    <g id="Page-1" stroke="none" stroke-width="1" fill="none" fill-rule="evenodd">
        <g id="logo-salesforce">
            <rect id="Rectangle" fill="#FFFFFF" fill-rule="nonzero" x="0" y="0" width="271" height="145" rx="72.5"></rect>
            <path d="M158.957143,70.2857143 L156.1,70.2857143 C156.162112,69.9393939 156.255279,69.6363636 156.426087,69.4054834 C156.674534,69.059163 157.047205,68.8571428 157.575155,68.8571428 C158.103106,68.8571428 158.444721,69.044733 158.693168,69.4054834 C158.863975,69.6363636 158.941615,69.9393939 158.957143,70.2857143 Z" id="Shape" fill="#2b2c34"></path>
            <path d="M144.703103,69.3834854 C144.487712,69.0593098 144.164625,68.897222 143.706919,68.897222 C143.249213,68.897222 142.926126,69.0593098 142.710735,69.3834854 C142.495344,69.707661 142.387648,70.1804172 142.387648,70.7747392 C142.387648,71.3690611 142.495344,71.8418172 142.710735,72.1795002 C142.926126,72.5036758 143.249213,72.6657636 143.706919,72.6657636 C144.164625,72.6657636 144.487712,72.5036758 144.703103,72.1795002 C144.918494,71.8418172 145.039652,71.3690611 145.039652,70.7747392 C145.02619,70.1804172 144.918494,69.707661 144.703103,69.3834854 Z M144.703103,69.3834854 C144.487712,69.0593098 144.164625,68.897222 143.706919,68.897222 C143.249213,68.897222 142.926126,69.0593098 142.710735,69.3834854 C142.495344,69.707661 142.387648,70.1804172 142.387648,70.7747392 C142.387648,71.3690611 142.495344,71.8418172 142.710735,72.1795002 C142.926126,72.5036758 143.249213,72.6657636 143.706919,72.6657636 C144.164625,72.6657636 144.487712,72.5036758 144.703103,72.1795002 C144.918494,71.8418172 145.039652,71.3690611 145.039652,70.7747392 C145.02619,70.1804172 144.918494,69.707661 144.703103,69.3834854 Z M130.675752,69.3834854 C130.460361,69.0593098 130.150736,68.8702074 129.706492,68.8702074 C129.248786,68.8702074 128.925699,69.0458025 128.710308,69.3834854 C128.575688,69.5996025 128.481455,69.8697488 128.427607,70.2074318 L130.904606,70.2074318 C130.891144,69.8832562 130.823834,69.5996025 130.675752,69.3834854 Z M144.703103,69.3834854 C144.487712,69.0593098 144.164625,68.897222 143.706919,68.897222 C143.249213,68.897222 142.926126,69.0593098 142.710735,69.3834854 C142.495344,69.707661 142.387648,70.1804172 142.387648,70.7747392 C142.387648,71.3690611 142.495344,71.8418172 142.710735,72.1795002 C142.926126,72.5036758 143.249213,72.6657636 143.706919,72.6657636 C144.164625,72.6657636 144.487712,72.5036758 144.703103,72.1795002 C144.918494,71.8418172 145.039652,71.3690611 145.039652,70.7747392 C145.02619,70.1804172 144.918494,69.707661 144.703103,69.3834854 Z M144.703103,69.3834854 C144.487712,69.0593098 144.164625,68.897222 143.706919,68.897222 C143.249213,68.897222 142.926126,69.0593098 142.710735,69.3834854 C142.495344,69.707661 142.387648,70.1804172 142.387648,70.7747392 C142.387648,71.3690611 142.495344,71.8418172 142.710735,72.1795002 C142.926126,72.5036758 143.249213,72.6657636 143.706919,72.6657636 C144.164625,72.6657636 144.487712,72.5036758 144.703103,72.1795002 C144.918494,71.8418172 145.039652,71.3690611 145.039652,70.7747392 C145.02619,70.1804172 144.918494,69.707661 144.703103,69.3834854 Z M130.675752,69.3834854 C130.460361,69.0593098 130.150736,68.8702074 129.706492,68.8702074 C129.248786,68.8702074 128.925699,69.0458025 128.710308,69.3834854 C128.575688,69.5996025 128.481455,69.8697488 128.427607,70.2074318 L130.904606,70.2074318 C130.891144,69.8832562 130.823834,69.5996025 130.675752,69.3834854 Z M121.925486,70.896305 C121.212002,70.8827977 120.915839,71.152944 120.915839,71.152944 C120.71391,71.3015245 120.606215,71.5176416 120.606215,71.8283099 C120.606215,72.0174124 120.6466,72.1795002 120.71391,72.2875587 C120.754296,72.3550953 120.78122,72.3821099 120.915839,72.4901685 C120.915839,72.4901685 121.225464,72.7333002 121.938948,72.6927783 C122.43704,72.6657636 122.881284,72.5712124 122.881284,72.5712124 L122.881284,70.9773489 C122.867822,70.9773489 122.423578,70.9098123 121.925486,70.896305 Z M130.675752,69.3834854 C130.460361,69.0593098 130.150736,68.8702074 129.706492,68.8702074 C129.248786,68.8702074 128.925699,69.0458025 128.710308,69.3834854 C128.575688,69.5996025 128.481455,69.8697488 128.427607,70.2074318 L130.904606,70.2074318 C130.891144,69.8832562 130.823834,69.5996025 130.675752,69.3834854 Z M144.703103,69.3834854 C144.487712,69.0593098 144.164625,68.897222 143.706919,68.897222 C143.249213,68.897222 142.926126,69.0593098 142.710735,69.3834854 C142.495344,69.707661 142.387648,70.1804172 142.387648,70.7747392 C142.387648,71.3690611 142.495344,71.8418172 142.710735,72.1795002 C142.926126,72.5036758 143.249213,72.6657636 143.706919,72.6657636 C144.164625,72.6657636 144.487712,72.5036758 144.703103,72.1795002 C144.918494,71.8418172 145.039652,71.3690611 145.039652,70.7747392 C145.02619,70.1804172 144.918494,69.707661 144.703103,69.3834854 Z M144.703103,69.3834854 C144.487712,69.0593098 144.164625,68.897222 143.706919,68.897222 C143.249213,68.897222 142.926126,69.0593098 142.710735,69.3834854 C142.495344,69.707661 142.387648,70.1804172 142.387648,70.7747392 C142.387648,71.3690611 142.495344,71.8418172 142.710735,72.1795002 C142.926126,72.5036758 143.249213,72.6657636 143.706919,72.6657636 C144.164625,72.6657636 144.487712,72.5036758 144.703103,72.1795002 C144.918494,71.8418172 145.039652,71.3690611 145.039652,70.7747392 C145.02619,70.1804172 144.918494,69.707661 144.703103,69.3834854 Z M130.675752,69.3834854 C130.460361,69.0593098 130.150736,68.8702074 129.706492,68.8702074 C129.248786,68.8702074 128.925699,69.0458025 128.710308,69.3834854 C128.575688,69.5996025 128.481455,69.8697488 128.427607,70.2074318 L130.904606,70.2074318 C130.891144,69.8832562 130.823834,69.5996025 130.675752,69.3834854 Z M121.925486,70.896305 C121.212002,70.8827977 120.915839,71.152944 120.915839,71.152944 C120.71391,71.3015245 120.606215,71.5176416 120.606215,71.8283099 C120.606215,72.0174124 120.6466,72.1795002 120.71391,72.2875587 C120.754296,72.3550953 120.78122,72.3821099 120.915839,72.4901685 C120.915839,72.4901685 121.225464,72.7333002 121.938948,72.6927783 C122.43704,72.6657636 122.881284,72.5712124 122.881284,72.5712124 L122.881284,70.9773489 C122.867822,70.9773489 122.423578,70.9098123 121.925486,70.896305 Z M121.925486,70.896305 C121.212002,70.8827977 120.915839,71.152944 120.915839,71.152944 C120.71391,71.3015245 120.606215,71.5176416 120.606215,71.8283099 C120.606215,72.0174124 120.6466,72.1795002 120.71391,72.2875587 C120.754296,72.3550953 120.78122,72.3821099 120.915839,72.4901685 C120.915839,72.4901685 121.225464,72.7333002 121.938948,72.6927783 C122.43704,72.6657636 122.881284,72.5712124 122.881284,72.5712124 L122.881284,70.9773489 C122.867822,70.9773489 122.423578,70.9098123 121.925486,70.896305 Z M130.675752,69.3834854 C130.460361,69.0593098 130.150736,68.8702074 129.706492,68.8702074 C129.248786,68.8702074 128.925699,69.0458025 128.710308,69.3834854 C128.575688,69.5996025 128.481455,69.8697488 128.427607,70.2074318 L130.904606,70.2074318 C130.891144,69.8832562 130.823834,69.5996025 130.675752,69.3834854 Z M144.703103,69.3834854 C144.487712,69.0593098 144.164625,68.897222 143.706919,68.897222 C143.249213,68.897222 142.926126,69.0593098 142.710735,69.3834854 C142.495344,69.707661 142.387648,70.1804172 142.387648,70.7747392 C142.387648,71.3690611 142.495344,71.8418172 142.710735,72.1795002 C142.926126,72.5036758 143.249213,72.6657636 143.706919,72.6657636 C144.164625,72.6657636 144.487712,72.5036758 144.703103,72.1795002 C144.918494,71.8418172 145.039652,71.3690611 145.039652,70.7747392 C145.02619,70.1804172 144.918494,69.707661 144.703103,69.3834854 Z M144.703103,69.3834854 C144.487712,69.0593098 144.164625,68.897222 143.706919,68.897222 C143.249213,68.897222 142.926126,69.0593098 142.710735,69.3834854 C142.495344,69.707661 142.387648,70.1804172 142.387648,70.7747392 C142.387648,71.3690611 142.495344,71.8418172 142.710735,72.1795002 C142.926126,72.5036758 143.249213,72.6657636 143.706919,72.6657636 C144.164625,72.6657636 144.487712,72.5036758 144.703103,72.1795002 C144.918494,71.8418172 145.039652,71.3690611 145.039652,70.7747392 C145.02619,70.1804172 144.918494,69.707661 144.703103,69.3834854 Z M130.675752,69.3834854 C130.460361,69.0593098 130.150736,68.8702074 129.706492,68.8702074 C129.248786,68.8702074 128.925699,69.0458025 128.710308,69.3834854 C128.575688,69.5996025 128.481455,69.8697488 128.427607,70.2074318 L130.904606,70.2074318 C130.891144,69.8832562 130.823834,69.5996025 130.675752,69.3834854 Z M121.925486,70.896305 C121.212002,70.8827977 120.915839,71.152944 120.915839,71.152944 C120.71391,71.3015245 120.606215,71.5176416 120.606215,71.8283099 C120.606215,72.0174124 120.6466,72.1795002 120.71391,72.2875587 C120.754296,72.3550953 120.78122,72.3821099 120.915839,72.4901685 C120.915839,72.4901685 121.225464,72.7333002 121.938948,72.6927783 C122.43704,72.6657636 122.881284,72.5712124 122.881284,72.5712124 L122.881284,70.9773489 C122.867822,70.9773489 122.423578,70.9098123 121.925486,70.896305 Z M121.925486,70.896305 C121.212002,70.8827977 120.915839,71.152944 120.915839,71.152944 C120.71391,71.3015245 120.606215,71.5176416 120.606215,71.8283099 C120.606215,72.0174124 120.6466,72.1795002 120.71391,72.2875587 C120.754296,72.3550953 120.78122,72.3821099 120.915839,72.4901685 C120.915839,72.4901685 121.225464,72.7333002 121.938948,72.6927783 C122.43704,72.6657636 122.881284,72.5712124 122.881284,72.5712124 L122.881284,70.9773489 C122.867822,70.9773489 122.423578,70.9098123 121.925486,70.896305 Z M130.675752,69.3834854 C130.460361,69.0593098 130.150736,68.8702074 129.706492,68.8702074 C129.248786,68.8702074 128.925699,69.0458025 128.710308,69.3834854 C128.575688,69.5996025 128.481455,69.8697488 128.427607,70.2074318 L130.904606,70.2074318 C130.891144,69.8832562 130.823834,69.5996025 130.675752,69.3834854 Z M144.703103,69.3834854 C144.487712,69.0593098 144.164625,68.897222 143.706919,68.897222 C143.249213,68.897222 142.926126,69.0593098 142.710735,69.3834854 C142.495344,69.707661 142.387648,70.1804172 142.387648,70.7747392 C142.387648,71.3690611 142.495344,71.8418172 142.710735,72.1795002 C142.926126,72.5036758 143.249213,72.6657636 143.706919,72.6657636 C144.164625,72.6657636 144.487712,72.5036758 144.703103,72.1795002 C144.918494,71.8418172 145.039652,71.3690611 145.039652,70.7747392 C145.02619,70.1804172 144.918494,69.707661 144.703103,69.3834854 Z M144.703103,69.3834854 C144.487712,69.0593098 144.164625,68.897222 143.706919,68.897222 C143.249213,68.897222 142.926126,69.0593098 142.710735,69.3834854 C142.495344,69.707661 142.387648,70.1804172 142.387648,70.7747392 C142.387648,71.3690611 142.495344,71.8418172 142.710735,72.1795002 C142.926126,72.5036758 143.249213,72.6657636 143.706919,72.6657636 C144.164625,72.6657636 144.487712,72.5036758 144.703103,72.1795002 C144.918494,71.8418172 145.039652,71.3690611 145.039652,70.7747392 C145.02619,70.1804172 144.918494,69.707661 144.703103,69.3834854 Z M130.675752,69.3834854 C130.460361,69.0593098 130.150736,68.8702074 129.706492,68.8702074 C129.248786,68.8702074 128.925699,69.0458025 128.710308,69.3834854 C128.575688,69.5996025 128.481455,69.8697488 128.427607,70.2074318 L130.904606,70.2074318 C130.891144,69.8832562 130.823834,69.5996025 130.675752,69.3834854 Z M121.925486,70.896305 C121.212002,70.8827977 120.915839,71.152944 120.915839,71.152944 C120.71391,71.3015245 120.606215,71.5176416 120.606215,71.8283099 C120.606215,72.0174124 120.6466,72.1795002 120.71391,72.2875587 C120.754296,72.3550953 120.78122,72.3821099 120.915839,72.4901685 C120.915839,72.4901685 121.225464,72.7333002 121.938948,72.6927783 C122.43704,72.6657636 122.881284,72.5712124 122.881284,72.5712124 L122.881284,70.9773489 C122.867822,70.9773489 122.423578,70.9098123 121.925486,70.896305 Z M121.925486,70.896305 C121.212002,70.8827977 120.915839,71.152944 120.915839,71.152944 C120.71391,71.3015245 120.606215,71.5176416 120.606215,71.8283099 C120.606215,72.0174124 120.6466,72.1795002 120.71391,72.2875587 C120.754296,72.3550953 120.78122,72.3821099 120.915839,72.4901685 C120.915839,72.4901685 121.225464,72.7333002 121.938948,72.6927783 C122.43704,72.6657636 122.881284,72.5712124 122.881284,72.5712124 L122.881284,70.9773489 C122.867822,70.9773489 122.423578,70.9098123 121.925486,70.896305 Z M130.675752,69.3834854 C130.460361,69.0593098 130.150736,68.8702074 129.706492,68.8702074 C129.248786,68.8702074 128.925699,69.0458025 128.710308,69.3834854 C128.575688,69.5996025 128.481455,69.8697488 128.427607,70.2074318 L130.904606,70.2074318 C130.891144,69.8832562 130.823834,69.5996025 130.675752,69.3834854 Z M144.703103,69.3834854 C144.487712,69.0593098 144.164625,68.897222 143.706919,68.897222 C143.249213,68.897222 142.926126,69.0593098 142.710735,69.3834854 C142.495344,69.707661 142.387648,70.1804172 142.387648,70.7747392 C142.387648,71.3690611 142.495344,71.8418172 142.710735,72.1795002 C142.926126,72.5036758 143.249213,72.6657636 143.706919,72.6657636 C144.164625,72.6657636 144.487712,72.5036758 144.703103,72.1795002 C144.918494,71.8418172 145.039652,71.3690611 145.039652,70.7747392 C145.02619,70.1804172 144.918494,69.707661 144.703103,69.3834854 Z M144.703103,69.3834854 C144.487712,69.0593098 144.164625,68.897222 143.706919,68.897222 C143.249213,68.897222 142.926126,69.0593098 142.710735,69.3834854 C142.495344,69.707661 142.387648,70.1804172 142.387648,70.7747392 C142.387648,71.3690611 142.495344,71.8418172 142.710735,72.1795002 C142.926126,72.5036758 143.249213,72.6657636 143.706919,72.6657636 C144.164625,72.6657636 144.487712,72.5036758 144.703103,72.1795002 C144.918494,71.8418172 145.039652,71.3690611 145.039652,70.7747392 C145.02619,70.1804172 144.918494,69.707661 144.703103,69.3834854 Z M130.675752,69.3834854 C130.460361,69.0593098 130.150736,68.8702074 129.706492,68.8702074 C129.248786,68.8702074 128.925699,69.0458025 128.710308,69.3834854 C128.575688,69.5996025 128.481455,69.8697488 128.427607,70.2074318 L130.904606,70.2074318 C130.891144,69.8832562 130.823834,69.5996025 130.675752,69.3834854 Z M121.925486,70.896305 C121.212002,70.8827977 120.915839,71.152944 120.915839,71.152944 C120.71391,71.3015245 120.606215,71.5176416 120.606215,71.8283099 C120.606215,72.0174124 120.6466,72.1795002 120.71391,72.2875587 C120.754296,72.3550953 120.78122,72.3821099 120.915839,72.4901685 C120.915839,72.4901685 121.225464,72.7333002 121.938948,72.6927783 C122.43704,72.6657636 122.881284,72.5712124 122.881284,72.5712124 L122.881284,70.9773489 C122.867822,70.9773489 122.423578,70.9098123 121.925486,70.896305 Z M121.925486,70.896305 C121.212002,70.8827977 120.915839,71.152944 120.915839,71.152944 C120.71391,71.3015245 120.606215,71.5176416 120.606215,71.8283099 C120.606215,72.0174124 120.6466,72.1795002 120.71391,72.2875587 C120.754296,72.3550953 120.78122,72.3821099 120.915839,72.4901685 C120.915839,72.4901685 121.225464,72.7333002 121.938948,72.6927783 C122.43704,72.6657636 122.881284,72.5712124 122.881284,72.5712124 L122.881284,70.9773489 C122.867822,70.9773489 122.423578,70.9098123 121.925486,70.896305 Z M130.675752,69.3834854 C130.460361,69.0593098 130.150736,68.8702074 129.706492,68.8702074 C129.248786,68.8702074 128.925699,69.0458025 128.710308,69.3834854 C128.575688,69.5996025 128.481455,69.8697488 128.427607,70.2074318 L130.904606,70.2074318 C130.891144,69.8832562 130.823834,69.5996025 130.675752,69.3834854 Z M144.703103,69.3834854 C144.487712,69.0593098 144.164625,68.897222 143.706919,68.897222 C143.249213,68.897222 142.926126,69.0593098 142.710735,69.3834854 C142.495344,69.707661 142.387648,70.1804172 142.387648,70.7747392 C142.387648,71.3690611 142.495344,71.8418172 142.710735,72.1795002 C142.926126,72.5036758 143.249213,72.6657636 143.706919,72.6657636 C144.164625,72.6657636 144.487712,72.5036758 144.703103,72.1795002 C144.918494,71.8418172 145.039652,71.3690611 145.039652,70.7747392 C145.02619,70.1804172 144.918494,69.707661 144.703103,69.3834854 Z M144.703103,69.3834854 C144.487712,69.0593098 144.164625,68.897222 143.706919,68.897222 C143.249213,68.897222 142.926126,69.0593098 142.710735,69.3834854 C142.495344,69.707661 142.387648,70.1804172 142.387648,70.7747392 C142.387648,71.3690611 142.495344,71.8418172 142.710735,72.1795002 C142.926126,72.5036758 143.249213,72.6657636 143.706919,72.6657636 C144.164625,72.6657636 144.487712,72.5036758 144.703103,72.1795002 C144.918494,71.8418172 145.039652,71.3690611 145.039652,70.7747392 C145.02619,70.1804172 144.918494,69.707661 144.703103,69.3834854 Z M130.675752,69.3834854 C130.460361,69.0593098 130.150736,68.8702074 129.706492,68.8702074 C129.248786,68.8702074 128.925699,69.0458025 128.710308,69.3834854 C128.575688,69.5996025 128.481455,69.8697488 128.427607,70.2074318 L130.904606,70.2074318 C130.891144,69.8832562 130.823834,69.5996025 130.675752,69.3834854 Z M121.925486,70.896305 C121.212002,70.8827977 120.915839,71.152944 120.915839,71.152944 C120.71391,71.3015245 120.606215,71.5176416 120.606215,71.8283099 C120.606215,72.0174124 120.6466,72.1795002 120.71391,72.2875587 C120.754296,72.3550953 120.78122,72.3821099 120.915839,72.4901685 C120.915839,72.4901685 121.225464,72.7333002 121.938948,72.6927783 C122.43704,72.6657636 122.881284,72.5712124 122.881284,72.5712124 L122.881284,70.9773489 C122.867822,70.9773489 122.423578,70.9098123 121.925486,70.896305 Z M121.925486,70.896305 C121.212002,70.8827977 120.915839,71.152944 120.915839,71.152944 C120.71391,71.3015245 120.606215,71.5176416 120.606215,71.8283099 C120.606215,72.0174124 120.6466,72.1795002 120.71391,72.2875587 C120.754296,72.3550953 120.78122,72.3821099 120.915839,72.4901685 C120.915839,72.4901685 121.225464,72.7333002 121.938948,72.6927783 C122.43704,72.6657636 122.881284,72.5712124 122.881284,72.5712124 L122.881284,70.9773489 C122.867822,70.9773489 122.423578,70.9098123 121.925486,70.896305 Z M130.675752,69.3834854 C130.460361,69.0593098 130.150736,68.8702074 129.706492,68.8702074 C129.248786,68.8702074 128.925699,69.0458025 128.710308,69.3834854 C128.575688,69.5996025 128.481455,69.8697488 128.427607,70.2074318 L130.904606,70.2074318 C130.891144,69.8832562 130.823834,69.5996025 130.675752,69.3834854 Z M144.703103,69.3834854 C144.487712,69.0593098 144.164625,68.897222 143.706919,68.897222 C143.249213,68.897222 142.926126,69.0593098 142.710735,69.3834854 C142.495344,69.707661 142.387648,70.1804172 142.387648,70.7747392 C142.387648,71.3690611 142.495344,71.8418172 142.710735,72.1795002 C142.926126,72.5036758 143.249213,72.6657636 143.706919,72.6657636 C144.164625,72.6657636 144.487712,72.5036758 144.703103,72.1795002 C144.918494,71.8418172 145.039652,71.3690611 145.039652,70.7747392 C145.02619,70.1804172 144.918494,69.707661 144.703103,69.3834854 Z M144.703103,69.3834854 C144.487712,69.0593098 144.164625,68.897222 143.706919,68.897222 C143.249213,68.897222 142.926126,69.0593098 142.710735,69.3834854 C142.495344,69.707661 142.387648,70.1804172 142.387648,70.7747392 C142.387648,71.3690611 142.495344,71.8418172 142.710735,72.1795002 C142.926126,72.5036758 143.249213,72.6657636 143.706919,72.6657636 C144.164625,72.6657636 144.487712,72.5036758 144.703103,72.1795002 C144.918494,71.8418172 145.039652,71.3690611 145.039652,70.7747392 C145.02619,70.1804172 144.918494,69.707661 144.703103,69.3834854 Z M130.675752,69.3834854 C130.460361,69.0593098 130.150736,68.8702074 129.706492,68.8702074 C129.248786,68.8702074 128.925699,69.0458025 128.710308,69.3834854 C128.575688,69.5996025 128.481455,69.8697488 128.427607,70.2074318 L130.904606,70.2074318 C130.891144,69.8832562 130.823834,69.5996025 130.675752,69.3834854 Z M121.925486,70.896305 C121.212002,70.8827977 120.915839,71.152944 120.915839,71.152944 C120.71391,71.3015245 120.606215,71.5176416 120.606215,71.8283099 C120.606215,72.0174124 120.6466,72.1795002 120.71391,72.2875587 C120.754296,72.3550953 120.78122,72.3821099 120.915839,72.4901685 C120.915839,72.4901685 121.225464,72.7333002 121.938948,72.6927783 C122.43704,72.6657636 122.881284,72.5712124 122.881284,72.5712124 L122.881284,70.9773489 C122.867822,70.9773489 122.423578,70.9098123 121.925486,70.896305 Z M121.925486,70.896305 C121.212002,70.8827977 120.915839,71.152944 120.915839,71.152944 C120.71391,71.3015245 120.606215,71.5176416 120.606215,71.8283099 C120.606215,72.0174124 120.6466,72.1795002 120.71391,72.2875587 C120.754296,72.3550953 120.78122,72.3821099 120.915839,72.4901685 C120.915839,72.4901685 121.225464,72.7333002 121.938948,72.6927783 C122.43704,72.6657636 122.881284,72.5712124 122.881284,72.5712124 L122.881284,70.9773489 C122.867822,70.9773489 122.423578,70.9098123 121.925486,70.896305 Z M130.675752,69.3834854 C130.460361,69.0593098 130.150736,68.8702074 129.706492,68.8702074 C129.248786,68.8702074 128.925699,69.0458025 128.710308,69.3834854 C128.575688,69.5996025 128.481455,69.8697488 128.427607,70.2074318 L130.904606,70.2074318 C130.891144,69.8832562 130.823834,69.5996025 130.675752,69.3834854 Z M144.703103,69.3834854 C144.487712,69.0593098 144.164625,68.897222 143.706919,68.897222 C143.249213,68.897222 142.926126,69.0593098 142.710735,69.3834854 C142.495344,69.707661 142.387648,70.1804172 142.387648,70.7747392 C142.387648,71.3690611 142.495344,71.8418172 142.710735,72.1795002 C142.926126,72.5036758 143.249213,72.6657636 143.706919,72.6657636 C144.164625,72.6657636 144.487712,72.5036758 144.703103,72.1795002 C144.918494,71.8418172 145.039652,71.3690611 145.039652,70.7747392 C145.02619,70.1804172 144.918494,69.707661 144.703103,69.3834854 Z M144.703103,69.3834854 C144.487712,69.0593098 144.164625,68.897222 143.706919,68.897222 C143.249213,68.897222 142.926126,69.0593098 142.710735,69.3834854 C142.495344,69.707661 142.387648,70.1804172 142.387648,70.7747392 C142.387648,71.3690611 142.495344,71.8418172 142.710735,72.1795002 C142.926126,72.5036758 143.249213,72.6657636 143.706919,72.6657636 C144.164625,72.6657636 144.487712,72.5036758 144.703103,72.1795002 C144.918494,71.8418172 145.039652,71.3690611 145.039652,70.7747392 C145.02619,70.1804172 144.918494,69.707661 144.703103,69.3834854 Z M130.675752,69.3834854 C130.460361,69.0593098 130.150736,68.8702074 129.706492,68.8702074 C129.248786,68.8702074 128.925699,69.0458025 128.710308,69.3834854 C128.575688,69.5996025 128.481455,69.8697488 128.427607,70.2074318 L130.904606,70.2074318 C130.891144,69.8832562 130.823834,69.5996025 130.675752,69.3834854 Z M121.925486,70.896305 C121.212002,70.8827977 120.915839,71.152944 120.915839,71.152944 C120.71391,71.3015245 120.606215,71.5176416 120.606215,71.8283099 C120.606215,72.0174124 120.6466,72.1795002 120.71391,72.2875587 C120.754296,72.3550953 120.78122,72.3821099 120.915839,72.4901685 C120.915839,72.4901685 121.225464,72.7333002 121.938948,72.6927783 C122.43704,72.6657636 122.881284,72.5712124 122.881284,72.5712124 L122.881284,70.9773489 C122.867822,70.9773489 122.423578,70.9098123 121.925486,70.896305 Z M121.925486,70.896305 C121.212002,70.8827977 120.915839,71.152944 120.915839,71.152944 C120.71391,71.3015245 120.606215,71.5176416 120.606215,71.8283099 C120.606215,72.0174124 120.6466,72.1795002 120.71391,72.2875587 C120.754296,72.3550953 120.78122,72.3821099 120.915839,72.4901685 C120.915839,72.4901685 121.225464,72.7333002 121.938948,72.6927783 C122.43704,72.6657636 122.881284,72.5712124 122.881284,72.5712124 L122.881284,70.9773489 C122.867822,70.9773489 122.423578,70.9098123 121.925486,70.896305 Z M130.675752,69.3834854 C130.460361,69.0593098 130.150736,68.8702074 129.706492,68.8702074 C129.248786,68.8702074 128.925699,69.0458025 128.710308,69.3834854 C128.575688,69.5996025 128.481455,69.8697488 128.427607,70.2074318 L130.904606,70.2074318 C130.891144,69.8832562 130.823834,69.5996025 130.675752,69.3834854 Z M144.703103,69.3834854 C144.487712,69.0593098 144.164625,68.897222 143.706919,68.897222 C143.249213,68.897222 142.926126,69.0593098 142.710735,69.3834854 C142.495344,69.707661 142.387648,70.1804172 142.387648,70.7747392 C142.387648,71.3690611 142.495344,71.8418172 142.710735,72.1795002 C142.926126,72.5036758 143.249213,72.6657636 143.706919,72.6657636 C144.164625,72.6657636 144.487712,72.5036758 144.703103,72.1795002 C144.918494,71.8418172 145.039652,71.3690611 145.039652,70.7747392 C145.02619,70.1804172 144.918494,69.707661 144.703103,69.3834854 Z M144.703103,69.3834854 C144.487712,69.0593098 144.164625,68.897222 143.706919,68.897222 C143.249213,68.897222 142.926126,69.0593098 142.710735,69.3834854 C142.495344,69.707661 142.387648,70.1804172 142.387648,70.7747392 C142.387648,71.3690611 142.495344,71.8418172 142.710735,72.1795002 C142.926126,72.5036758 143.249213,72.6657636 143.706919,72.6657636 C144.164625,72.6657636 144.487712,72.5036758 144.703103,72.1795002 C144.918494,71.8418172 145.039652,71.3690611 145.039652,70.7747392 C145.02619,70.1804172 144.918494,69.707661 144.703103,69.3834854 Z M130.675752,69.3834854 C130.460361,69.0593098 130.150736,68.8702074 129.706492,68.8702074 C129.248786,68.8702074 128.925699,69.0458025 128.710308,69.3834854 C128.575688,69.5996025 128.481455,69.8697488 128.427607,70.2074318 L130.904606,70.2074318 C130.891144,69.8832562 130.823834,69.5996025 130.675752,69.3834854 Z M121.925486,70.896305 C121.212002,70.8827977 120.915839,71.152944 120.915839,71.152944 C120.71391,71.3015245 120.606215,71.5176416 120.606215,71.8283099 C120.606215,72.0174124 120.6466,72.1795002 120.71391,72.2875587 C120.754296,72.3550953 120.78122,72.3821099 120.915839,72.4901685 C120.915839,72.4901685 121.225464,72.7333002 121.938948,72.6927783 C122.43704,72.6657636 122.881284,72.5712124 122.881284,72.5712124 L122.881284,70.9773489 C122.867822,70.9773489 122.423578,70.9098123 121.925486,70.896305 Z M121.925486,70.896305 C121.212002,70.8827977 120.915839,71.152944 120.915839,71.152944 C120.71391,71.3015245 120.606215,71.5176416 120.606215,71.8283099 C120.606215,72.0174124 120.6466,72.1795002 120.71391,72.2875587 C120.754296,72.3550953 120.78122,72.3821099 120.915839,72.4901685 C120.915839,72.4901685 121.225464,72.7333002 121.938948,72.6927783 C122.43704,72.6657636 122.881284,72.5712124 122.881284,72.5712124 L122.881284,70.9773489 C122.867822,70.9773489 122.423578,70.9098123 121.925486,70.896305 Z M130.675752,69.3834854 C130.460361,69.0593098 130.150736,68.8702074 129.706492,68.8702074 C129.248786,68.8702074 128.925699,69.0458025 128.710308,69.3834854 C128.575688,69.5996025 128.481455,69.8697488 128.427607,70.2074318 L130.904606,70.2074318 C130.891144,69.8832562 130.823834,69.5996025 130.675752,69.3834854 Z M144.703103,69.3834854 C144.487712,69.0593098 144.164625,68.897222 143.706919,68.897222 C143.249213,68.897222 142.926126,69.0593098 142.710735,69.3834854 C142.495344,69.707661 142.387648,70.1804172 142.387648,70.7747392 C142.387648,71.3690611 142.495344,71.8418172 142.710735,72.1795002 C142.926126,72.5036758 143.249213,72.6657636 143.706919,72.6657636 C144.164625,72.6657636 144.487712,72.5036758 144.703103,72.1795002 C144.918494,71.8418172 145.039652,71.3690611 145.039652,70.7747392 C145.02619,70.1804172 144.918494,69.707661 144.703103,69.3834854 Z M144.703103,69.3834854 C144.487712,69.0593098 144.164625,68.897222 143.706919,68.897222 C143.249213,68.897222 142.926126,69.0593098 142.710735,69.3834854 C142.495344,69.707661 142.387648,70.1804172 142.387648,70.7747392 C142.387648,71.3690611 142.495344,71.8418172 142.710735,72.1795002 C142.926126,72.5036758 143.249213,72.6657636 143.706919,72.6657636 C144.164625,72.6657636 144.487712,72.5036758 144.703103,72.1795002 C144.918494,71.8418172 145.039652,71.3690611 145.039652,70.7747392 C145.02619,70.1804172 144.918494,69.707661 144.703103,69.3834854 Z M130.675752,69.3834854 C130.460361,69.0593098 130.150736,68.8702074 129.706492,68.8702074 C129.248786,68.8702074 128.925699,69.0458025 128.710308,69.3834854 C128.575688,69.5996025 128.481455,69.8697488 128.427607,70.2074318 L130.904606,70.2074318 C130.891144,69.8832562 130.823834,69.5996025 130.675752,69.3834854 Z M121.925486,70.896305 C121.212002,70.8827977 120.915839,71.152944 120.915839,71.152944 C120.71391,71.3015245 120.606215,71.5176416 120.606215,71.8283099 C120.606215,72.0174124 120.6466,72.1795002 120.71391,72.2875587 C120.754296,72.3550953 120.78122,72.3821099 120.915839,72.4901685 C120.915839,72.4901685 121.225464,72.7333002 121.938948,72.6927783 C122.43704,72.6657636 122.881284,72.5712124 122.881284,72.5712124 L122.881284,70.9773489 C122.867822,70.9773489 122.423578,70.9098123 121.925486,70.896305 Z M121.925486,70.896305 C121.212002,70.8827977 120.915839,71.152944 120.915839,71.152944 C120.71391,71.3015245 120.606215,71.5176416 120.606215,71.8283099 C120.606215,72.0174124 120.6466,72.1795002 120.71391,72.2875587 C120.754296,72.3550953 120.78122,72.3821099 120.915839,72.4901685 C120.915839,72.4901685 121.225464,72.7333002 121.938948,72.6927783 C122.43704,72.6657636 122.881284,72.5712124 122.881284,72.5712124 L122.881284,70.9773489 C122.867822,70.9773489 122.423578,70.9098123 121.925486,70.896305 Z M130.675752,69.3834854 C130.460361,69.0593098 130.150736,68.8702074 129.706492,68.8702074 C129.248786,68.8702074 128.925699,69.0458025 128.710308,69.3834854 C128.575688,69.5996025 128.481455,69.8697488 128.427607,70.2074318 L130.904606,70.2074318 C130.891144,69.8832562 130.823834,69.5996025 130.675752,69.3834854 Z M144.703103,69.3834854 C144.487712,69.0593098 144.164625,68.897222 143.706919,68.897222 C143.249213,68.897222 142.926126,69.0593098 142.710735,69.3834854 C142.495344,69.707661 142.387648,70.1804172 142.387648,70.7747392 C142.387648,71.3690611 142.495344,71.8418172 142.710735,72.1795002 C142.926126,72.5036758 143.249213,72.6657636 143.706919,72.6657636 C144.164625,72.6657636 144.487712,72.5036758 144.703103,72.1795002 C144.918494,71.8418172 145.039652,71.3690611 145.039652,70.7747392 C145.02619,70.1804172 144.918494,69.707661 144.703103,69.3834854 Z M144.703103,69.3834854 C144.487712,69.0593098 144.164625,68.897222 143.706919,68.897222 C143.249213,68.897222 142.926126,69.0593098 142.710735,69.3834854 C142.495344,69.707661 142.387648,70.1804172 142.387648,70.7747392 C142.387648,71.3690611 142.495344,71.8418172 142.710735,72.1795002 C142.926126,72.5036758 143.249213,72.6657636 143.706919,72.6657636 C144.164625,72.6657636 144.487712,72.5036758 144.703103,72.1795002 C144.918494,71.8418172 145.039652,71.3690611 145.039652,70.7747392 C145.02619,70.1804172 144.918494,69.707661 144.703103,69.3834854 Z M130.675752,69.3834854 C130.460361,69.0593098 130.150736,68.8702074 129.706492,68.8702074 C129.248786,68.8702074 128.925699,69.0458025 128.710308,69.3834854 C128.575688,69.5996025 128.481455,69.8697488 128.427607,70.2074318 L130.904606,70.2074318 C130.891144,69.8832562 130.823834,69.5996025 130.675752,69.3834854 Z M121.925486,70.896305 C121.212002,70.8827977 120.915839,71.152944 120.915839,71.152944 C120.71391,71.3015245 120.606215,71.5176416 120.606215,71.8283099 C120.606215,72.0174124 120.6466,72.1795002 120.71391,72.2875587 C120.754296,72.3550953 120.78122,72.3821099 120.915839,72.4901685 C120.915839,72.4901685 121.225464,72.7333002 121.938948,72.6927783 C122.43704,72.6657636 122.881284,72.5712124 122.881284,72.5712124 L122.881284,70.9773489 C122.867822,70.9773489 122.423578,70.9098123 121.925486,70.896305 Z M121.925486,70.896305 C121.212002,70.8827977 120.915839,71.152944 120.915839,71.152944 C120.71391,71.3015245 120.606215,71.5176416 120.606215,71.8283099 C120.606215,72.0174124 120.6466,72.1795002 120.71391,72.2875587 C120.754296,72.3550953 120.78122,72.3821099 120.915839,72.4901685 C120.915839,72.4901685 121.225464,72.7333002 121.938948,72.6927783 C122.43704,72.6657636 122.881284,72.5712124 122.881284,72.5712124 L122.881284,70.9773489 C122.867822,70.9773489 122.423578,70.9098123 121.925486,70.896305 Z M130.675752,69.3834854 C130.460361,69.0593098 130.150736,68.8702074 129.706492,68.8702074 C129.248786,68.8702074 128.925699,69.0458025 128.710308,69.3834854 C128.575688,69.5996025 128.481455,69.8697488 128.427607,70.2074318 L130.904606,70.2074318 C130.891144,69.8832562 130.823834,69.5996025 130.675752,69.3834854 Z M144.703103,69.3834854 C144.487712,69.0593098 144.164625,68.897222 143.706919,68.897222 C143.249213,68.897222 142.926126,69.0593098 142.710735,69.3834854 C142.495344,69.707661 142.387648,70.1804172 142.387648,70.7747392 C142.387648,71.3690611 142.495344,71.8418172 142.710735,72.1795002 C142.926126,72.5036758 143.249213,72.6657636 143.706919,72.6657636 C144.164625,72.6657636 144.487712,72.5036758 144.703103,72.1795002 C144.918494,71.8418172 145.039652,71.3690611 145.039652,70.7747392 C145.02619,70.1804172 144.918494,69.707661 144.703103,69.3834854 Z M144.703103,69.3834854 C144.487712,69.0593098 144.164625,68.897222 143.706919,68.897222 C143.249213,68.897222 142.926126,69.0593098 142.710735,69.3834854 C142.495344,69.707661 142.387648,70.1804172 142.387648,70.7747392 C142.387648,71.3690611 142.495344,71.8418172 142.710735,72.1795002 C142.926126,72.5036758 143.249213,72.6657636 143.706919,72.6657636 C144.164625,72.6657636 144.487712,72.5036758 144.703103,72.1795002 C144.918494,71.8418172 145.039652,71.3690611 145.039652,70.7747392 C145.02619,70.1804172 144.918494,69.707661 144.703103,69.3834854 Z M130.675752,69.3834854 C130.460361,69.0593098 130.150736,68.8702074 129.706492,68.8702074 C129.248786,68.8702074 128.925699,69.0458025 128.710308,69.3834854 C128.575688,69.5996025 128.481455,69.8697488 128.427607,70.2074318 L130.904606,70.2074318 C130.891144,69.8832562 130.823834,69.5996025 130.675752,69.3834854 Z M121.925486,70.896305 C121.212002,70.8827977 120.915839,71.152944 120.915839,71.152944 C120.71391,71.3015245 120.606215,71.5176416 120.606215,71.8283099 C120.606215,72.0174124 120.6466,72.1795002 120.71391,72.2875587 C120.754296,72.3550953 120.78122,72.3821099 120.915839,72.4901685 C120.915839,72.4901685 121.225464,72.7333002 121.938948,72.6927783 C122.43704,72.6657636 122.881284,72.5712124 122.881284,72.5712124 L122.881284,70.9773489 C122.867822,70.9773489 122.423578,70.9098123 121.925486,70.896305 Z M153.089897,56.7001142 C151.232148,56.7001142 149.455171,57.1053337 147.853199,57.8212215 C146.008912,54.525436 142.562653,52.3102359 138.591378,52.3102359 C135.602826,52.3102359 132.910436,53.5664165 130.985377,55.5925141 C128.858389,52.7964994 125.492902,51.0000261 121.710094,51.0000261 C115.275283,50.9865188 110.052047,56.2138507 110.052047,62.6703486 C110.052047,64.3182413 110.388595,65.8985975 111.007845,67.3168658 C108.019292,69.0728171 106,72.3550953 106,76.1101296 C106,81.7156665 110.482829,86.2676325 116.01569,86.2676325 C116.715711,86.2676325 117.415733,86.2000959 118.075368,86.0515154 C119.596568,90.1847546 123.554381,93.1428572 128.198754,93.1428572 C132.668121,93.1428572 136.491314,90.4278863 138.133672,86.5377788 C139.385633,87.1456081 140.785676,87.4967984 142.26649,87.4967984 C145.806983,87.4967984 148.903231,85.5382373 150.518665,82.634164 C151.339844,82.7962518 152.201409,82.890803 153.062974,82.890803 C160.211268,82.890803 165.999906,77.0286272 165.999906,69.788705 C166.02683,62.56229 160.238192,56.7001142 153.089897,56.7001142 Z M118.856161,71.8958465 C118.856161,72.9494173 118.08883,73.6112759 116.863793,73.6112759 C116.258005,73.6112759 115.679141,73.5167246 115.073354,73.192549 C114.952196,73.1250124 114.8445,73.0709832 114.736805,72.9899392 C114.723343,72.9764319 114.669495,72.9494173 114.709881,72.8548661 L114.952196,72.1795002 C114.992582,72.0579343 115.073354,72.0984563 115.113739,72.1254709 C115.181049,72.1659928 115.234897,72.2065148 115.315669,72.2605441 C116.029152,72.7197929 116.688787,72.7197929 116.904179,72.7197929 C117.442657,72.7197929 117.765743,72.4361392 117.765743,72.0579343 L117.765743,72.0309197 C117.765743,71.6121928 117.254189,71.450105 116.661864,71.2745099 L116.527244,71.2339879 C115.719527,71.0043635 114.8445,70.6666806 114.8445,69.6401245 L114.8445,69.6131098 C114.8445,68.640583 115.625293,67.9517097 116.756097,67.9517097 L116.877255,67.9517097 C117.53689,67.9517097 118.183064,68.1408122 118.64077,68.4244659 C118.681156,68.4514805 118.721542,68.4920025 118.694618,68.559539 C118.667694,68.6135683 118.465765,69.1673683 118.438841,69.2349049 C118.398455,69.3564708 118.277297,69.2754269 118.277297,69.2754269 C117.873439,69.0458025 117.240727,68.8702074 116.715711,68.8702074 C116.244543,68.8702074 115.934918,69.1268464 115.934918,69.4645294 L115.934918,69.4780366 C115.934918,69.8832562 116.459934,70.0588513 117.079184,70.2479537 L117.18688,70.2749684 C117.994597,70.5316074 118.856161,70.8827977 118.856161,71.8688319 L118.856161,71.8958465 Z M123.89093,73.2735929 C123.89093,73.2735929 123.756311,73.3141148 123.648615,73.3411295 C123.527458,73.3681441 123.110137,73.449188 122.773588,73.5167246 C122.423578,73.5707539 122.073567,73.6112759 121.710094,73.6112759 C121.373546,73.6112759 121.063921,73.5842612 120.794682,73.5167246 C120.525443,73.449188 120.283128,73.3546368 120.081199,73.2060563 C119.879269,73.0709832 119.731188,72.8818807 119.623492,72.6657636 C119.515797,72.4496465 119.461949,72.1795002 119.461949,71.8688319 C119.461949,71.5716709 119.529259,71.3015245 119.650416,71.0583928 C119.771574,70.8287684 119.946579,70.6396659 120.16197,70.4775781 C120.377361,70.3289977 120.619677,70.2074318 120.888916,70.1398952 C121.158155,70.0723586 121.440855,70.0318366 121.75048,70.0318366 C121.965871,70.0318366 122.154339,70.0318366 122.288958,70.045344 C122.288958,70.045344 122.558197,70.0723586 122.867822,70.1128806 L122.867822,69.9643001 C122.867822,69.4915439 122.773588,69.2754269 122.585121,69.1268464 C122.396654,68.9782659 122.100491,68.897222 121.723556,68.897222 C121.723556,68.897222 120.875454,68.8837146 120.215818,69.2484123 C120.188894,69.2619195 120.16197,69.2754269 120.16197,69.2754269 C120.16197,69.2754269 120.081199,69.3024415 120.054275,69.2213976 L119.81196,68.559539 C119.771574,68.4649878 119.838884,68.4244659 119.838884,68.4244659 C120.148508,68.1813341 120.915839,68.0327537 120.915839,68.0327537 C121.171616,67.9787244 121.588937,67.9517097 121.844714,67.9517097 C122.544735,67.9517097 123.083213,68.1137975 123.446686,68.4379732 C123.810158,68.7621488 123.998626,69.2754269 123.998626,69.9778074 L123.998626,73.1655344 C123.971702,73.1655344 123.985164,73.2465783 123.89093,73.2735929 Z M126.233309,73.3681441 C126.233309,73.4221734 126.192923,73.4762026 126.139076,73.4762026 L125.210201,73.4762026 C125.156353,73.4762026 125.115967,73.4221734 125.115967,73.3681441 L125.115967,65.9121048 C125.115967,65.8580755 125.156353,65.8040463 125.210201,65.8040463 L126.139076,65.8040463 C126.192923,65.8040463 126.233309,65.8445682 126.233309,65.9121048 L126.233309,73.3681441 Z M131.995023,70.9773489 C131.981561,71.0719001 131.887328,71.0719001 131.887328,71.0719001 L128.414145,71.0719001 C128.441069,71.5986855 128.562226,71.9768904 128.818003,72.2335294 C129.073781,72.4766612 129.464177,72.638749 130.002655,72.638749 C130.823834,72.638749 131.187306,72.4766612 131.429622,72.3821099 C131.429622,72.3821099 131.523855,72.3550953 131.564241,72.4496465 L131.793094,73.0844905 C131.83348,73.192549 131.806556,73.233071 131.76617,73.2465783 C131.550779,73.3681441 131.025763,73.5977685 130.016117,73.5977685 C129.531487,73.5977685 129.100704,73.5302319 128.750694,73.3951588 C128.400683,73.2600856 128.10452,73.0574758 127.875667,72.8143441 C127.646814,72.5712124 127.471809,72.2740514 127.364113,71.9228612 C127.256417,71.5851782 127.20257,71.2069733 127.20257,70.8152611 C127.20257,70.4235489 127.256417,70.045344 127.350651,69.707661 C127.458347,69.3564708 127.606428,69.0593098 127.821819,68.8026708 C128.03721,68.5460317 128.306449,68.3434219 128.629536,68.1948415 C128.952623,68.046261 129.343019,67.9652171 129.773802,67.9652171 C130.150736,67.9652171 130.487285,68.046261 130.769986,68.1678268 C130.985377,68.2623781 131.200768,68.4244659 131.429622,68.6675976 C131.564241,68.8161781 131.793094,69.153861 131.873866,69.4780366 C132.116181,70.2614611 131.995023,70.936827 131.995023,70.9773489 Z M134.889342,73.6112759 C134.283555,73.6112759 133.704691,73.5167246 133.098903,73.192549 C132.977746,73.1250124 132.87005,73.0709832 132.762355,72.9899392 C132.748893,72.9764319 132.695045,72.9494173 132.735431,72.8548661 L132.977746,72.1795002 C133.018132,72.0714416 133.112365,72.1119636 133.139289,72.1254709 C133.206599,72.1659928 133.260447,72.2065148 133.341218,72.2605441 C134.054702,72.7197929 134.714337,72.7197929 134.929728,72.7197929 C135.468206,72.7197929 135.804755,72.4361392 135.804755,72.0579343 L135.804755,72.0309197 C135.804755,71.6121928 135.293201,71.450105 134.700875,71.2745099 L134.566256,71.2339879 C133.758539,71.0043635 132.883512,70.6666806 132.883512,69.6401245 L132.883512,69.6131098 C132.883512,68.640583 133.664305,67.9517097 134.795109,67.9517097 L134.916266,67.9517097 C135.575902,67.9517097 136.222075,68.1408122 136.679782,68.4244659 C136.720167,68.4514805 136.760553,68.4920025 136.733629,68.559539 C136.706706,68.6135683 136.504776,69.1673683 136.477852,69.2349049 C136.437467,69.3564708 136.316309,69.2754269 136.316309,69.2754269 C135.912451,69.0458025 135.279739,68.8702074 134.754723,68.8702074 C134.270093,68.8702074 133.97393,69.1268464 133.97393,69.4645294 L133.97393,69.4780366 C133.97393,69.8832562 134.498946,70.0588513 135.104734,70.2479537 L135.212429,70.2749684 C136.020146,70.5316074 136.881711,70.8827977 136.881711,71.8688319 L136.881711,71.8958465 C136.881711,72.9629246 136.11438,73.6112759 134.889342,73.6112759 Z M140.960681,68.897222 C140.947219,69.0052805 140.839524,69.0052805 140.839524,69.0052805 L139.695258,69.0052805 L138.914465,73.449188 C138.833693,73.9084368 138.725998,74.300149 138.60484,74.6243246 C138.483683,74.9485003 138.349063,75.1781247 138.147134,75.4077491 C137.958667,75.6103588 137.743276,75.7724466 137.500961,75.8534906 C137.258645,75.9345345 136.962483,75.9885637 136.652858,75.9885637 C136.504776,75.9885637 136.343233,75.9885637 136.141304,75.9345345 C136.006684,75.9075199 135.925913,75.8805052 135.818217,75.8399832 C135.777831,75.8264759 135.737445,75.7724466 135.764369,75.7049101 C135.791293,75.6373735 135.993222,75.0700661 136.020146,75.0025295 C136.060532,74.9079783 136.141304,74.9485003 136.141304,74.9485003 C136.208613,74.9755149 136.248999,74.9890223 136.329771,75.0025295 C136.410543,75.0160369 136.5317,75.0295442 136.612472,75.0295442 C136.760553,75.0295442 136.908635,75.0160369 137.01633,74.9755149 C137.164412,74.9214857 137.245183,74.8404417 137.339417,74.7323832 C137.433651,74.6108174 137.500961,74.4487295 137.581732,74.2326125 C137.662504,74.0164954 137.729814,73.7193344 137.783661,73.3681441 L138.564455,69.0052805 L137.797123,69.0052805 C137.70289,69.0052805 137.675966,68.9647586 137.689428,68.897222 L137.824047,68.1678268 C137.837509,68.0732756 137.931743,68.0597683 137.945205,68.0597683 L138.73946,68.0597683 L138.779846,67.8166366 C138.901003,67.1142561 139.129856,66.5874706 139.479867,66.2362804 C139.829878,65.8850901 140.32797,65.709495 140.960681,65.709495 C141.135687,65.709495 141.29723,65.7230023 141.43185,65.750017 C141.566469,65.7770316 141.660703,65.7905389 141.78186,65.8310609 C141.808784,65.8445682 141.876094,65.8715828 141.84917,65.9526267 L141.579931,66.6820219 C141.553007,66.7360512 141.539545,66.7765731 141.43185,66.7360512 C141.404926,66.7225439 141.36454,66.7090365 141.256844,66.6955292 C141.176073,66.6820219 141.081839,66.6685146 140.974143,66.6685146 C140.839524,66.6685146 140.704904,66.6820219 140.597209,66.7225439 C140.489513,66.7630658 140.39528,66.8170951 140.301046,66.898139 C140.206812,66.9926902 140.112579,67.1142561 140.058731,67.2763439 C139.924111,67.6410414 139.883725,68.0327537 139.870264,68.0597683 L140.987605,68.0597683 C141.081839,68.0597683 141.108763,68.1002903 141.095301,68.1678268 L140.960681,68.897222 Z M146.049298,71.8823392 C145.941603,72.2200221 145.793521,72.5306905 145.57813,72.7738221 C145.362739,73.0304612 145.106962,73.233071 144.783875,73.3681441 C144.47425,73.5167246 144.097316,73.5842612 143.679995,73.5842612 C143.262675,73.5842612 142.899202,73.5167246 142.576115,73.3681441 C142.26649,73.2195636 141.997251,73.0169539 141.78186,72.7738221 C141.566469,72.5171831 141.418388,72.2200221 141.310692,71.8823392 C141.216458,71.5446563 141.162611,71.1664514 141.162611,70.7747392 C141.162611,70.3830269 141.216458,70.004822 141.310692,69.6671391 C141.418388,69.3294561 141.566469,69.0187879 141.78186,68.7756561 C141.98379,68.5190171 142.253029,68.3164074 142.576115,68.1678268 C142.88574,68.0192463 143.262675,67.9517097 143.679995,67.9517097 C144.097316,67.9517097 144.460788,68.0192463 144.783875,68.1678268 C145.0935,68.3164074 145.362739,68.5190171 145.57813,68.7756561 C145.793521,69.0322952 145.941603,69.3294561 146.049298,69.6671391 C146.143532,70.004822 146.19738,70.3830269 146.19738,70.7747392 C146.210841,71.1664514 146.156994,71.5446563 146.049298,71.8823392 Z M150.357122,68.2353634 C150.330198,68.3299146 150.155193,68.8026708 150.101345,68.9647586 C150.074421,69.0187879 150.047497,69.0728171 149.966725,69.0593098 C149.966725,69.0593098 149.764796,69.0052805 149.589791,69.0052805 C149.468633,69.0052805 149.280166,69.0187879 149.118622,69.0728171 C148.957079,69.1268464 148.82246,69.2078903 148.68784,69.3294561 C148.553221,69.451022 148.458987,69.6266172 148.378215,69.8427342 C148.297444,70.0588513 148.27052,70.4100415 148.27052,70.7612318 L148.27052,73.3681441 C148.27052,73.4221734 148.216672,73.4762026 148.162824,73.4762026 L147.247412,73.4762026 C147.193564,73.4762026 147.139716,73.4356807 147.139716,73.3681441 L147.139716,68.1678268 C147.139716,68.1137975 147.180102,68.0597683 147.23395,68.0597683 L148.122438,68.0597683 C148.176286,68.0597683 148.216672,68.1002903 148.216672,68.1678268 L148.216672,68.5865537 C148.351291,68.4109586 148.593606,68.2488707 148.808998,68.1543195 C149.024389,68.0597683 149.266704,67.9787244 149.710948,68.005739 C149.939801,68.0192463 150.235964,68.0867829 150.289812,68.1002903 C150.330198,68.1137975 150.384046,68.1543195 150.357122,68.2353634 Z M154.705331,73.3276222 C154.314935,73.4762026 153.776457,73.5842612 153.251441,73.5842612 C152.362952,73.5842612 151.676393,73.3276222 151.218687,72.8143441 C150.76098,72.3145734 150.532127,71.6121928 150.532127,70.7612318 C150.532127,70.3695196 150.585975,69.9913147 150.693671,69.6536317 C150.801366,69.3159488 150.976371,69.0052805 151.191763,68.7621488 C151.407154,68.5055098 151.689855,68.3029 152.026403,68.1543195 C152.34949,68.005739 152.739887,67.9382025 153.170669,67.9382025 C153.466832,67.9382025 153.722609,67.9517097 153.938,67.9922317 C154.180315,68.0327537 154.48994,68.1137975 154.62456,68.1678268 C154.651483,68.1813341 154.718793,68.2083488 154.691869,68.2893927 C154.597636,68.559539 154.530326,68.7486415 154.436092,68.9917732 C154.395706,69.0998317 154.314935,69.0593098 154.314935,69.0593098 C153.978386,68.9512512 153.655299,68.9107293 153.224517,68.9107293 C152.712963,68.9107293 152.336028,69.0863245 152.080251,69.4105001 C151.824474,69.748183 151.689855,70.1804172 151.689855,70.7612318 C151.689855,71.4095831 151.851398,71.8823392 152.134099,72.1659928 C152.4168,72.4631539 152.807197,72.6117343 153.305289,72.6117343 C153.507218,72.6117343 153.695685,72.598227 153.87069,72.5712124 C154.045696,72.5441977 154.193777,72.4901685 154.341859,72.4361392 C154.341859,72.4361392 154.436092,72.3956172 154.476478,72.5036758 L154.732255,73.2060563 C154.786103,73.3006075 154.705331,73.3276222 154.705331,73.3276222 Z M159.861258,70.9773489 C159.847796,71.0719001 159.753562,71.0719001 159.753562,71.0719001 L156.280379,71.0719001 C156.307303,71.5986855 156.428461,71.9768904 156.684238,72.2335294 C156.940015,72.4766612 157.330411,72.638749 157.868889,72.638749 C158.690068,72.638749 159.053541,72.4766612 159.295856,72.3821099 C159.295856,72.3821099 159.39009,72.3550953 159.430475,72.4496465 L159.659329,73.0844905 C159.699714,73.192549 159.67279,73.233071 159.632405,73.2465783 C159.417013,73.3681441 158.891997,73.5977685 157.882351,73.5977685 C157.397721,73.5977685 156.966939,73.5302319 156.616928,73.3951588 C156.266917,73.2600856 155.970755,73.0574758 155.741901,72.8143441 C155.513048,72.5712124 155.338043,72.2740514 155.243809,71.9228612 C155.136114,71.5851782 155.082266,71.2069733 155.082266,70.8152611 C155.082266,70.4235489 155.136114,70.045344 155.230347,69.707661 C155.338043,69.3564708 155.486124,69.0593098 155.701515,68.8026708 C155.916907,68.5460317 156.186146,68.3434219 156.509232,68.1948415 C156.832319,68.046261 157.222716,67.9652171 157.653498,67.9652171 C158.030433,67.9652171 158.366981,68.046261 158.649682,68.1678268 C158.865074,68.2623781 159.080465,68.4244659 159.309318,68.6675976 C159.443937,68.8161781 159.659329,69.153861 159.753562,69.4780366 C159.982415,70.2614611 159.861258,70.936827 159.861258,70.9773489 Z M143.693457,68.897222 C143.235751,68.897222 142.912664,69.0593098 142.697273,69.3834854 C142.481882,69.707661 142.374186,70.1804172 142.374186,70.7747392 C142.374186,71.3690611 142.481882,71.8418172 142.697273,72.1795002 C142.912664,72.5036758 143.235751,72.6657636 143.693457,72.6657636 C144.151163,72.6657636 144.47425,72.5036758 144.689641,72.1795002 C144.905032,71.8418172 145.02619,71.3690611 145.02619,70.7747392 C145.02619,70.1804172 144.918494,69.707661 144.689641,69.3834854 C144.47425,69.0593098 144.151163,68.897222 143.693457,68.897222 Z M129.706492,68.8702074 C129.248786,68.8702074 128.925699,69.0458025 128.710308,69.3834854 C128.575688,69.5996025 128.481455,69.8697488 128.427607,70.2074318 L130.904606,70.2074318 C130.877682,69.8832562 130.810372,69.5996025 130.675752,69.3834854 C130.460361,69.0593098 130.164198,68.8702074 129.706492,68.8702074 Z M120.915839,71.152944 C120.71391,71.3015245 120.606215,71.5176416 120.606215,71.8283099 C120.606215,72.0174124 120.6466,72.1795002 120.71391,72.2875587 C120.754296,72.3550953 120.78122,72.3821099 120.915839,72.4901685 C120.915839,72.4901685 121.225464,72.7333002 121.938948,72.6927783 C122.43704,72.6657636 122.881284,72.5712124 122.881284,72.5712124 L122.881284,70.9773489 C122.881284,70.9773489 122.43704,70.9098123 121.938948,70.896305 C121.212002,70.896305 120.915839,71.152944 120.915839,71.152944 Z M121.925486,70.896305 C121.212002,70.8827977 120.915839,71.152944 120.915839,71.152944 C120.71391,71.3015245 120.606215,71.5176416 120.606215,71.8283099 C120.606215,72.0174124 120.6466,72.1795002 120.71391,72.2875587 C120.754296,72.3550953 120.78122,72.3821099 120.915839,72.4901685 C120.915839,72.4901685 121.225464,72.7333002 121.938948,72.6927783 C122.43704,72.6657636 122.881284,72.5712124 122.881284,72.5712124 L122.881284,70.9773489 C122.867822,70.9773489 122.423578,70.9098123 121.925486,70.896305 Z M130.675752,69.3834854 C130.460361,69.0593098 130.150736,68.8702074 129.706492,68.8702074 C129.248786,68.8702074 128.925699,69.0458025 128.710308,69.3834854 C128.575688,69.5996025 128.481455,69.8697488 128.427607,70.2074318 L130.904606,70.2074318 C130.891144,69.8832562 130.823834,69.5996025 130.675752,69.3834854 Z M144.703103,69.3834854 C144.487712,69.0593098 144.164625,68.897222 143.706919,68.897222 C143.249213,68.897222 142.926126,69.0593098 142.710735,69.3834854 C142.495344,69.707661 142.387648,70.1804172 142.387648,70.7747392 C142.387648,71.3690611 142.495344,71.8418172 142.710735,72.1795002 C142.926126,72.5036758 143.249213,72.6657636 143.706919,72.6657636 C144.164625,72.6657636 144.487712,72.5036758 144.703103,72.1795002 C144.918494,71.8418172 145.039652,71.3690611 145.039652,70.7747392 C145.02619,70.1804172 144.918494,69.707661 144.703103,69.3834854 Z M144.703103,69.3834854 C144.487712,69.0593098 144.164625,68.897222 143.706919,68.897222 C143.249213,68.897222 142.926126,69.0593098 142.710735,69.3834854 C142.495344,69.707661 142.387648,70.1804172 142.387648,70.7747392 C142.387648,71.3690611 142.495344,71.8418172 142.710735,72.1795002 C142.926126,72.5036758 143.249213,72.6657636 143.706919,72.6657636 C144.164625,72.6657636 144.487712,72.5036758 144.703103,72.1795002 C144.918494,71.8418172 145.039652,71.3690611 145.039652,70.7747392 C145.02619,70.1804172 144.918494,69.707661 144.703103,69.3834854 Z M130.675752,69.3834854 C130.460361,69.0593098 130.150736,68.8702074 129.706492,68.8702074 C129.248786,68.8702074 128.925699,69.0458025 128.710308,69.3834854 C128.575688,69.5996025 128.481455,69.8697488 128.427607,70.2074318 L130.904606,70.2074318 C130.891144,69.8832562 130.823834,69.5996025 130.675752,69.3834854 Z M121.925486,70.896305 C121.212002,70.8827977 120.915839,71.152944 120.915839,71.152944 C120.71391,71.3015245 120.606215,71.5176416 120.606215,71.8283099 C120.606215,72.0174124 120.6466,72.1795002 120.71391,72.2875587 C120.754296,72.3550953 120.78122,72.3821099 120.915839,72.4901685 C120.915839,72.4901685 121.225464,72.7333002 121.938948,72.6927783 C122.43704,72.6657636 122.881284,72.5712124 122.881284,72.5712124 L122.881284,70.9773489 C122.867822,70.9773489 122.423578,70.9098123 121.925486,70.896305 Z M121.925486,70.896305 C121.212002,70.8827977 120.915839,71.152944 120.915839,71.152944 C120.71391,71.3015245 120.606215,71.5176416 120.606215,71.8283099 C120.606215,72.0174124 120.6466,72.1795002 120.71391,72.2875587 C120.754296,72.3550953 120.78122,72.3821099 120.915839,72.4901685 C120.915839,72.4901685 121.225464,72.7333002 121.938948,72.6927783 C122.43704,72.6657636 122.881284,72.5712124 122.881284,72.5712124 L122.881284,70.9773489 C122.867822,70.9773489 122.423578,70.9098123 121.925486,70.896305 Z M130.675752,69.3834854 C130.460361,69.0593098 130.150736,68.8702074 129.706492,68.8702074 C129.248786,68.8702074 128.925699,69.0458025 128.710308,69.3834854 C128.575688,69.5996025 128.481455,69.8697488 128.427607,70.2074318 L130.904606,70.2074318 C130.891144,69.8832562 130.823834,69.5996025 130.675752,69.3834854 Z M144.703103,69.3834854 C144.487712,69.0593098 144.164625,68.897222 143.706919,68.897222 C143.249213,68.897222 142.926126,69.0593098 142.710735,69.3834854 C142.495344,69.707661 142.387648,70.1804172 142.387648,70.7747392 C142.387648,71.3690611 142.495344,71.8418172 142.710735,72.1795002 C142.926126,72.5036758 143.249213,72.6657636 143.706919,72.6657636 C144.164625,72.6657636 144.487712,72.5036758 144.703103,72.1795002 C144.918494,71.8418172 145.039652,71.3690611 145.039652,70.7747392 C145.02619,70.1804172 144.918494,69.707661 144.703103,69.3834854 Z M144.703103,69.3834854 C144.487712,69.0593098 144.164625,68.897222 143.706919,68.897222 C143.249213,68.897222 142.926126,69.0593098 142.710735,69.3834854 C142.495344,69.707661 142.387648,70.1804172 142.387648,70.7747392 C142.387648,71.3690611 142.495344,71.8418172 142.710735,72.1795002 C142.926126,72.5036758 143.249213,72.6657636 143.706919,72.6657636 C144.164625,72.6657636 144.487712,72.5036758 144.703103,72.1795002 C144.918494,71.8418172 145.039652,71.3690611 145.039652,70.7747392 C145.02619,70.1804172 144.918494,69.707661 144.703103,69.3834854 Z M130.675752,69.3834854 C130.460361,69.0593098 130.150736,68.8702074 129.706492,68.8702074 C129.248786,68.8702074 128.925699,69.0458025 128.710308,69.3834854 C128.575688,69.5996025 128.481455,69.8697488 128.427607,70.2074318 L130.904606,70.2074318 C130.891144,69.8832562 130.823834,69.5996025 130.675752,69.3834854 Z M121.925486,70.896305 C121.212002,70.8827977 120.915839,71.152944 120.915839,71.152944 C120.71391,71.3015245 120.606215,71.5176416 120.606215,71.8283099 C120.606215,72.0174124 120.6466,72.1795002 120.71391,72.2875587 C120.754296,72.3550953 120.78122,72.3821099 120.915839,72.4901685 C120.915839,72.4901685 121.225464,72.7333002 121.938948,72.6927783 C122.43704,72.6657636 122.881284,72.5712124 122.881284,72.5712124 L122.881284,70.9773489 C122.867822,70.9773489 122.423578,70.9098123 121.925486,70.896305 Z M121.925486,70.896305 C121.212002,70.8827977 120.915839,71.152944 120.915839,71.152944 C120.71391,71.3015245 120.606215,71.5176416 120.606215,71.8283099 C120.606215,72.0174124 120.6466,72.1795002 120.71391,72.2875587 C120.754296,72.3550953 120.78122,72.3821099 120.915839,72.4901685 C120.915839,72.4901685 121.225464,72.7333002 121.938948,72.6927783 C122.43704,72.6657636 122.881284,72.5712124 122.881284,72.5712124 L122.881284,70.9773489 C122.867822,70.9773489 122.423578,70.9098123 121.925486,70.896305 Z M130.675752,69.3834854 C130.460361,69.0593098 130.150736,68.8702074 129.706492,68.8702074 C129.248786,68.8702074 128.925699,69.0458025 128.710308,69.3834854 C128.575688,69.5996025 128.481455,69.8697488 128.427607,70.2074318 L130.904606,70.2074318 C130.891144,69.8832562 130.823834,69.5996025 130.675752,69.3834854 Z M144.703103,69.3834854 C144.487712,69.0593098 144.164625,68.897222 143.706919,68.897222 C143.249213,68.897222 142.926126,69.0593098 142.710735,69.3834854 C142.495344,69.707661 142.387648,70.1804172 142.387648,70.7747392 C142.387648,71.3690611 142.495344,71.8418172 142.710735,72.1795002 C142.926126,72.5036758 143.249213,72.6657636 143.706919,72.6657636 C144.164625,72.6657636 144.487712,72.5036758 144.703103,72.1795002 C144.918494,71.8418172 145.039652,71.3690611 145.039652,70.7747392 C145.02619,70.1804172 144.918494,69.707661 144.703103,69.3834854 Z M144.703103,69.3834854 C144.487712,69.0593098 144.164625,68.897222 143.706919,68.897222 C143.249213,68.897222 142.926126,69.0593098 142.710735,69.3834854 C142.495344,69.707661 142.387648,70.1804172 142.387648,70.7747392 C142.387648,71.3690611 142.495344,71.8418172 142.710735,72.1795002 C142.926126,72.5036758 143.249213,72.6657636 143.706919,72.6657636 C144.164625,72.6657636 144.487712,72.5036758 144.703103,72.1795002 C144.918494,71.8418172 145.039652,71.3690611 145.039652,70.7747392 C145.02619,70.1804172 144.918494,69.707661 144.703103,69.3834854 Z M130.675752,69.3834854 C130.460361,69.0593098 130.150736,68.8702074 129.706492,68.8702074 C129.248786,68.8702074 128.925699,69.0458025 128.710308,69.3834854 C128.575688,69.5996025 128.481455,69.8697488 128.427607,70.2074318 L130.904606,70.2074318 C130.891144,69.8832562 130.823834,69.5996025 130.675752,69.3834854 Z M121.925486,70.896305 C121.212002,70.8827977 120.915839,71.152944 120.915839,71.152944 C120.71391,71.3015245 120.606215,71.5176416 120.606215,71.8283099 C120.606215,72.0174124 120.6466,72.1795002 120.71391,72.2875587 C120.754296,72.3550953 120.78122,72.3821099 120.915839,72.4901685 C120.915839,72.4901685 121.225464,72.7333002 121.938948,72.6927783 C122.43704,72.6657636 122.881284,72.5712124 122.881284,72.5712124 L122.881284,70.9773489 C122.867822,70.9773489 122.423578,70.9098123 121.925486,70.896305 Z M121.925486,70.896305 C121.212002,70.8827977 120.915839,71.152944 120.915839,71.152944 C120.71391,71.3015245 120.606215,71.5176416 120.606215,71.8283099 C120.606215,72.0174124 120.6466,72.1795002 120.71391,72.2875587 C120.754296,72.3550953 120.78122,72.3821099 120.915839,72.4901685 C120.915839,72.4901685 121.225464,72.7333002 121.938948,72.6927783 C122.43704,72.6657636 122.881284,72.5712124 122.881284,72.5712124 L122.881284,70.9773489 C122.867822,70.9773489 122.423578,70.9098123 121.925486,70.896305 Z M130.675752,69.3834854 C130.460361,69.0593098 130.150736,68.8702074 129.706492,68.8702074 C129.248786,68.8702074 128.925699,69.0458025 128.710308,69.3834854 C128.575688,69.5996025 128.481455,69.8697488 128.427607,70.2074318 L130.904606,70.2074318 C130.891144,69.8832562 130.823834,69.5996025 130.675752,69.3834854 Z M144.703103,69.3834854 C144.487712,69.0593098 144.164625,68.897222 143.706919,68.897222 C143.249213,68.897222 142.926126,69.0593098 142.710735,69.3834854 C142.495344,69.707661 142.387648,70.1804172 142.387648,70.7747392 C142.387648,71.3690611 142.495344,71.8418172 142.710735,72.1795002 C142.926126,72.5036758 143.249213,72.6657636 143.706919,72.6657636 C144.164625,72.6657636 144.487712,72.5036758 144.703103,72.1795002 C144.918494,71.8418172 145.039652,71.3690611 145.039652,70.7747392 C145.02619,70.1804172 144.918494,69.707661 144.703103,69.3834854 Z M144.703103,69.3834854 C144.487712,69.0593098 144.164625,68.897222 143.706919,68.897222 C143.249213,68.897222 142.926126,69.0593098 142.710735,69.3834854 C142.495344,69.707661 142.387648,70.1804172 142.387648,70.7747392 C142.387648,71.3690611 142.495344,71.8418172 142.710735,72.1795002 C142.926126,72.5036758 143.249213,72.6657636 143.706919,72.6657636 C144.164625,72.6657636 144.487712,72.5036758 144.703103,72.1795002 C144.918494,71.8418172 145.039652,71.3690611 145.039652,70.7747392 C145.02619,70.1804172 144.918494,69.707661 144.703103,69.3834854 Z M130.675752,69.3834854 C130.460361,69.0593098 130.150736,68.8702074 129.706492,68.8702074 C129.248786,68.8702074 128.925699,69.0458025 128.710308,69.3834854 C128.575688,69.5996025 128.481455,69.8697488 128.427607,70.2074318 L130.904606,70.2074318 C130.891144,69.8832562 130.823834,69.5996025 130.675752,69.3834854 Z M121.925486,70.896305 C121.212002,70.8827977 120.915839,71.152944 120.915839,71.152944 C120.71391,71.3015245 120.606215,71.5176416 120.606215,71.8283099 C120.606215,72.0174124 120.6466,72.1795002 120.71391,72.2875587 C120.754296,72.3550953 120.78122,72.3821099 120.915839,72.4901685 C120.915839,72.4901685 121.225464,72.7333002 121.938948,72.6927783 C122.43704,72.6657636 122.881284,72.5712124 122.881284,72.5712124 L122.881284,70.9773489 C122.867822,70.9773489 122.423578,70.9098123 121.925486,70.896305 Z M121.925486,70.896305 C121.212002,70.8827977 120.915839,71.152944 120.915839,71.152944 C120.71391,71.3015245 120.606215,71.5176416 120.606215,71.8283099 C120.606215,72.0174124 120.6466,72.1795002 120.71391,72.2875587 C120.754296,72.3550953 120.78122,72.3821099 120.915839,72.4901685 C120.915839,72.4901685 121.225464,72.7333002 121.938948,72.6927783 C122.43704,72.6657636 122.881284,72.5712124 122.881284,72.5712124 L122.881284,70.9773489 C122.867822,70.9773489 122.423578,70.9098123 121.925486,70.896305 Z M130.675752,69.3834854 C130.460361,69.0593098 130.150736,68.8702074 129.706492,68.8702074 C129.248786,68.8702074 128.925699,69.0458025 128.710308,69.3834854 C128.575688,69.5996025 128.481455,69.8697488 128.427607,70.2074318 L130.904606,70.2074318 C130.891144,69.8832562 130.823834,69.5996025 130.675752,69.3834854 Z M144.703103,69.3834854 C144.487712,69.0593098 144.164625,68.897222 143.706919,68.897222 C143.249213,68.897222 142.926126,69.0593098 142.710735,69.3834854 C142.495344,69.707661 142.387648,70.1804172 142.387648,70.7747392 C142.387648,71.3690611 142.495344,71.8418172 142.710735,72.1795002 C142.926126,72.5036758 143.249213,72.6657636 143.706919,72.6657636 C144.164625,72.6657636 144.487712,72.5036758 144.703103,72.1795002 C144.918494,71.8418172 145.039652,71.3690611 145.039652,70.7747392 C145.02619,70.1804172 144.918494,69.707661 144.703103,69.3834854 Z M144.703103,69.3834854 C144.487712,69.0593098 144.164625,68.897222 143.706919,68.897222 C143.249213,68.897222 142.926126,69.0593098 142.710735,69.3834854 C142.495344,69.707661 142.387648,70.1804172 142.387648,70.7747392 C142.387648,71.3690611 142.495344,71.8418172 142.710735,72.1795002 C142.926126,72.5036758 143.249213,72.6657636 143.706919,72.6657636 C144.164625,72.6657636 144.487712,72.5036758 144.703103,72.1795002 C144.918494,71.8418172 145.039652,71.3690611 145.039652,70.7747392 C145.02619,70.1804172 144.918494,69.707661 144.703103,69.3834854 Z M130.675752,69.3834854 C130.460361,69.0593098 130.150736,68.8702074 129.706492,68.8702074 C129.248786,68.8702074 128.925699,69.0458025 128.710308,69.3834854 C128.575688,69.5996025 128.481455,69.8697488 128.427607,70.2074318 L130.904606,70.2074318 C130.891144,69.8832562 130.823834,69.5996025 130.675752,69.3834854 Z M121.925486,70.896305 C121.212002,70.8827977 120.915839,71.152944 120.915839,71.152944 C120.71391,71.3015245 120.606215,71.5176416 120.606215,71.8283099 C120.606215,72.0174124 120.6466,72.1795002 120.71391,72.2875587 C120.754296,72.3550953 120.78122,72.3821099 120.915839,72.4901685 C120.915839,72.4901685 121.225464,72.7333002 121.938948,72.6927783 C122.43704,72.6657636 122.881284,72.5712124 122.881284,72.5712124 L122.881284,70.9773489 C122.867822,70.9773489 122.423578,70.9098123 121.925486,70.896305 Z M121.925486,70.896305 C121.212002,70.8827977 120.915839,71.152944 120.915839,71.152944 C120.71391,71.3015245 120.606215,71.5176416 120.606215,71.8283099 C120.606215,72.0174124 120.6466,72.1795002 120.71391,72.2875587 C120.754296,72.3550953 120.78122,72.3821099 120.915839,72.4901685 C120.915839,72.4901685 121.225464,72.7333002 121.938948,72.6927783 C122.43704,72.6657636 122.881284,72.5712124 122.881284,72.5712124 L122.881284,70.9773489 C122.867822,70.9773489 122.423578,70.9098123 121.925486,70.896305 Z M130.675752,69.3834854 C130.460361,69.0593098 130.150736,68.8702074 129.706492,68.8702074 C129.248786,68.8702074 128.925699,69.0458025 128.710308,69.3834854 C128.575688,69.5996025 128.481455,69.8697488 128.427607,70.2074318 L130.904606,70.2074318 C130.891144,69.8832562 130.823834,69.5996025 130.675752,69.3834854 Z M144.703103,69.3834854 C144.487712,69.0593098 144.164625,68.897222 143.706919,68.897222 C143.249213,68.897222 142.926126,69.0593098 142.710735,69.3834854 C142.495344,69.707661 142.387648,70.1804172 142.387648,70.7747392 C142.387648,71.3690611 142.495344,71.8418172 142.710735,72.1795002 C142.926126,72.5036758 143.249213,72.6657636 143.706919,72.6657636 C144.164625,72.6657636 144.487712,72.5036758 144.703103,72.1795002 C144.918494,71.8418172 145.039652,71.3690611 145.039652,70.7747392 C145.02619,70.1804172 144.918494,69.707661 144.703103,69.3834854 Z M144.703103,69.3834854 C144.487712,69.0593098 144.164625,68.897222 143.706919,68.897222 C143.249213,68.897222 142.926126,69.0593098 142.710735,69.3834854 C142.495344,69.707661 142.387648,70.1804172 142.387648,70.7747392 C142.387648,71.3690611 142.495344,71.8418172 142.710735,72.1795002 C142.926126,72.5036758 143.249213,72.6657636 143.706919,72.6657636 C144.164625,72.6657636 144.487712,72.5036758 144.703103,72.1795002 C144.918494,71.8418172 145.039652,71.3690611 145.039652,70.7747392 C145.02619,70.1804172 144.918494,69.707661 144.703103,69.3834854 Z M130.675752,69.3834854 C130.460361,69.0593098 130.150736,68.8702074 129.706492,68.8702074 C129.248786,68.8702074 128.925699,69.0458025 128.710308,69.3834854 C128.575688,69.5996025 128.481455,69.8697488 128.427607,70.2074318 L130.904606,70.2074318 C130.891144,69.8832562 130.823834,69.5996025 130.675752,69.3834854 Z M121.925486,70.896305 C121.212002,70.8827977 120.915839,71.152944 120.915839,71.152944 C120.71391,71.3015245 120.606215,71.5176416 120.606215,71.8283099 C120.606215,72.0174124 120.6466,72.1795002 120.71391,72.2875587 C120.754296,72.3550953 120.78122,72.3821099 120.915839,72.4901685 C120.915839,72.4901685 121.225464,72.7333002 121.938948,72.6927783 C122.43704,72.6657636 122.881284,72.5712124 122.881284,72.5712124 L122.881284,70.9773489 C122.867822,70.9773489 122.423578,70.9098123 121.925486,70.896305 Z M121.925486,70.896305 C121.212002,70.8827977 120.915839,71.152944 120.915839,71.152944 C120.71391,71.3015245 120.606215,71.5176416 120.606215,71.8283099 C120.606215,72.0174124 120.6466,72.1795002 120.71391,72.2875587 C120.754296,72.3550953 120.78122,72.3821099 120.915839,72.4901685 C120.915839,72.4901685 121.225464,72.7333002 121.938948,72.6927783 C122.43704,72.6657636 122.881284,72.5712124 122.881284,72.5712124 L122.881284,70.9773489 C122.867822,70.9773489 122.423578,70.9098123 121.925486,70.896305 Z M130.675752,69.3834854 C130.460361,69.0593098 130.150736,68.8702074 129.706492,68.8702074 C129.248786,68.8702074 128.925699,69.0458025 128.710308,69.3834854 C128.575688,69.5996025 128.481455,69.8697488 128.427607,70.2074318 L130.904606,70.2074318 C130.891144,69.8832562 130.823834,69.5996025 130.675752,69.3834854 Z M144.703103,69.3834854 C144.487712,69.0593098 144.164625,68.897222 143.706919,68.897222 C143.249213,68.897222 142.926126,69.0593098 142.710735,69.3834854 C142.495344,69.707661 142.387648,70.1804172 142.387648,70.7747392 C142.387648,71.3690611 142.495344,71.8418172 142.710735,72.1795002 C142.926126,72.5036758 143.249213,72.6657636 143.706919,72.6657636 C144.164625,72.6657636 144.487712,72.5036758 144.703103,72.1795002 C144.918494,71.8418172 145.039652,71.3690611 145.039652,70.7747392 C145.02619,70.1804172 144.918494,69.707661 144.703103,69.3834854 Z M144.703103,69.3834854 C144.487712,69.0593098 144.164625,68.897222 143.706919,68.897222 C143.249213,68.897222 142.926126,69.0593098 142.710735,69.3834854 C142.495344,69.707661 142.387648,70.1804172 142.387648,70.7747392 C142.387648,71.3690611 142.495344,71.8418172 142.710735,72.1795002 C142.926126,72.5036758 143.249213,72.6657636 143.706919,72.6657636 C144.164625,72.6657636 144.487712,72.5036758 144.703103,72.1795002 C144.918494,71.8418172 145.039652,71.3690611 145.039652,70.7747392 C145.02619,70.1804172 144.918494,69.707661 144.703103,69.3834854 Z M130.675752,69.3834854 C130.460361,69.0593098 130.150736,68.8702074 129.706492,68.8702074 C129.248786,68.8702074 128.925699,69.0458025 128.710308,69.3834854 C128.575688,69.5996025 128.481455,69.8697488 128.427607,70.2074318 L130.904606,70.2074318 C130.891144,69.8832562 130.823834,69.5996025 130.675752,69.3834854 Z M121.925486,70.896305 C121.212002,70.8827977 120.915839,71.152944 120.915839,71.152944 C120.71391,71.3015245 120.606215,71.5176416 120.606215,71.8283099 C120.606215,72.0174124 120.6466,72.1795002 120.71391,72.2875587 C120.754296,72.3550953 120.78122,72.3821099 120.915839,72.4901685 C120.915839,72.4901685 121.225464,72.7333002 121.938948,72.6927783 C122.43704,72.6657636 122.881284,72.5712124 122.881284,72.5712124 L122.881284,70.9773489 C122.867822,70.9773489 122.423578,70.9098123 121.925486,70.896305 Z M121.925486,70.896305 C121.212002,70.8827977 120.915839,71.152944 120.915839,71.152944 C120.71391,71.3015245 120.606215,71.5176416 120.606215,71.8283099 C120.606215,72.0174124 120.6466,72.1795002 120.71391,72.2875587 C120.754296,72.3550953 120.78122,72.3821099 120.915839,72.4901685 C120.915839,72.4901685 121.225464,72.7333002 121.938948,72.6927783 C122.43704,72.6657636 122.881284,72.5712124 122.881284,72.5712124 L122.881284,70.9773489 C122.867822,70.9773489 122.423578,70.9098123 121.925486,70.896305 Z M130.675752,69.3834854 C130.460361,69.0593098 130.150736,68.8702074 129.706492,68.8702074 C129.248786,68.8702074 128.925699,69.0458025 128.710308,69.3834854 C128.575688,69.5996025 128.481455,69.8697488 128.427607,70.2074318 L130.904606,70.2074318 C130.891144,69.8832562 130.823834,69.5996025 130.675752,69.3834854 Z M144.703103,69.3834854 C144.487712,69.0593098 144.164625,68.897222 143.706919,68.897222 C143.249213,68.897222 142.926126,69.0593098 142.710735,69.3834854 C142.495344,69.707661 142.387648,70.1804172 142.387648,70.7747392 C142.387648,71.3690611 142.495344,71.8418172 142.710735,72.1795002 C142.926126,72.5036758 143.249213,72.6657636 143.706919,72.6657636 C144.164625,72.6657636 144.487712,72.5036758 144.703103,72.1795002 C144.918494,71.8418172 145.039652,71.3690611 145.039652,70.7747392 C145.02619,70.1804172 144.918494,69.707661 144.703103,69.3834854 Z M144.703103,69.3834854 C144.487712,69.0593098 144.164625,68.897222 143.706919,68.897222 C143.249213,68.897222 142.926126,69.0593098 142.710735,69.3834854 C142.495344,69.707661 142.387648,70.1804172 142.387648,70.7747392 C142.387648,71.3690611 142.495344,71.8418172 142.710735,72.1795002 C142.926126,72.5036758 143.249213,72.6657636 143.706919,72.6657636 C144.164625,72.6657636 144.487712,72.5036758 144.703103,72.1795002 C144.918494,71.8418172 145.039652,71.3690611 145.039652,70.7747392 C145.02619,70.1804172 144.918494,69.707661 144.703103,69.3834854 Z M130.675752,69.3834854 C130.460361,69.0593098 130.150736,68.8702074 129.706492,68.8702074 C129.248786,68.8702074 128.925699,69.0458025 128.710308,69.3834854 C128.575688,69.5996025 128.481455,69.8697488 128.427607,70.2074318 L130.904606,70.2074318 C130.891144,69.8832562 130.823834,69.5996025 130.675752,69.3834854 Z M121.925486,70.896305 C121.212002,70.8827977 120.915839,71.152944 120.915839,71.152944 C120.71391,71.3015245 120.606215,71.5176416 120.606215,71.8283099 C120.606215,72.0174124 120.6466,72.1795002 120.71391,72.2875587 C120.754296,72.3550953 120.78122,72.3821099 120.915839,72.4901685 C120.915839,72.4901685 121.225464,72.7333002 121.938948,72.6927783 C122.43704,72.6657636 122.881284,72.5712124 122.881284,72.5712124 L122.881284,70.9773489 C122.867822,70.9773489 122.423578,70.9098123 121.925486,70.896305 Z M121.925486,70.896305 C121.212002,70.8827977 120.915839,71.152944 120.915839,71.152944 C120.71391,71.3015245 120.606215,71.5176416 120.606215,71.8283099 C120.606215,72.0174124 120.6466,72.1795002 120.71391,72.2875587 C120.754296,72.3550953 120.78122,72.3821099 120.915839,72.4901685 C120.915839,72.4901685 121.225464,72.7333002 121.938948,72.6927783 C122.43704,72.6657636 122.881284,72.5712124 122.881284,72.5712124 L122.881284,70.9773489 C122.867822,70.9773489 122.423578,70.9098123 121.925486,70.896305 Z M130.675752,69.3834854 C130.460361,69.0593098 130.150736,68.8702074 129.706492,68.8702074 C129.248786,68.8702074 128.925699,69.0458025 128.710308,69.3834854 C128.575688,69.5996025 128.481455,69.8697488 128.427607,70.2074318 L130.904606,70.2074318 C130.891144,69.8832562 130.823834,69.5996025 130.675752,69.3834854 Z M144.703103,69.3834854 C144.487712,69.0593098 144.164625,68.897222 143.706919,68.897222 C143.249213,68.897222 142.926126,69.0593098 142.710735,69.3834854 C142.495344,69.707661 142.387648,70.1804172 142.387648,70.7747392 C142.387648,71.3690611 142.495344,71.8418172 142.710735,72.1795002 C142.926126,72.5036758 143.249213,72.6657636 143.706919,72.6657636 C144.164625,72.6657636 144.487712,72.5036758 144.703103,72.1795002 C144.918494,71.8418172 145.039652,71.3690611 145.039652,70.7747392 C145.02619,70.1804172 144.918494,69.707661 144.703103,69.3834854 Z M144.703103,69.3834854 C144.487712,69.0593098 144.164625,68.897222 143.706919,68.897222 C143.249213,68.897222 142.926126,69.0593098 142.710735,69.3834854 C142.495344,69.707661 142.387648,70.1804172 142.387648,70.7747392 C142.387648,71.3690611 142.495344,71.8418172 142.710735,72.1795002 C142.926126,72.5036758 143.249213,72.6657636 143.706919,72.6657636 C144.164625,72.6657636 144.487712,72.5036758 144.703103,72.1795002 C144.918494,71.8418172 145.039652,71.3690611 145.039652,70.7747392 C145.02619,70.1804172 144.918494,69.707661 144.703103,69.3834854 Z M130.675752,69.3834854 C130.460361,69.0593098 130.150736,68.8702074 129.706492,68.8702074 C129.248786,68.8702074 128.925699,69.0458025 128.710308,69.3834854 C128.575688,69.5996025 128.481455,69.8697488 128.427607,70.2074318 L130.904606,70.2074318 C130.891144,69.8832562 130.823834,69.5996025 130.675752,69.3834854 Z M121.925486,70.896305 C121.212002,70.8827977 120.915839,71.152944 120.915839,71.152944 C120.71391,71.3015245 120.606215,71.5176416 120.606215,71.8283099 C120.606215,72.0174124 120.6466,72.1795002 120.71391,72.2875587 C120.754296,72.3550953 120.78122,72.3821099 120.915839,72.4901685 C120.915839,72.4901685 121.225464,72.7333002 121.938948,72.6927783 C122.43704,72.6657636 122.881284,72.5712124 122.881284,72.5712124 L122.881284,70.9773489 C122.867822,70.9773489 122.423578,70.9098123 121.925486,70.896305 Z M121.925486,70.896305 C121.212002,70.8827977 120.915839,71.152944 120.915839,71.152944 C120.71391,71.3015245 120.606215,71.5176416 120.606215,71.8283099 C120.606215,72.0174124 120.6466,72.1795002 120.71391,72.2875587 C120.754296,72.3550953 120.78122,72.3821099 120.915839,72.4901685 C120.915839,72.4901685 121.225464,72.7333002 121.938948,72.6927783 C122.43704,72.6657636 122.881284,72.5712124 122.881284,72.5712124 L122.881284,70.9773489 C122.867822,70.9773489 122.423578,70.9098123 121.925486,70.896305 Z M130.675752,69.3834854 C130.460361,69.0593098 130.150736,68.8702074 129.706492,68.8702074 C129.248786,68.8702074 128.925699,69.0458025 128.710308,69.3834854 C128.575688,69.5996025 128.481455,69.8697488 128.427607,70.2074318 L130.904606,70.2074318 C130.891144,69.8832562 130.823834,69.5996025 130.675752,69.3834854 Z M144.703103,69.3834854 C144.487712,69.0593098 144.164625,68.897222 143.706919,68.897222 C143.249213,68.897222 142.926126,69.0593098 142.710735,69.3834854 C142.495344,69.707661 142.387648,70.1804172 142.387648,70.7747392 C142.387648,71.3690611 142.495344,71.8418172 142.710735,72.1795002 C142.926126,72.5036758 143.249213,72.6657636 143.706919,72.6657636 C144.164625,72.6657636 144.487712,72.5036758 144.703103,72.1795002 C144.918494,71.8418172 145.039652,71.3690611 145.039652,70.7747392 C145.02619,70.1804172 144.918494,69.707661 144.703103,69.3834854 Z M144.703103,69.3834854 C144.487712,69.0593098 144.164625,68.897222 143.706919,68.897222 C143.249213,68.897222 142.926126,69.0593098 142.710735,69.3834854 C142.495344,69.707661 142.387648,70.1804172 142.387648,70.7747392 C142.387648,71.3690611 142.495344,71.8418172 142.710735,72.1795002 C142.926126,72.5036758 143.249213,72.6657636 143.706919,72.6657636 C144.164625,72.6657636 144.487712,72.5036758 144.703103,72.1795002 C144.918494,71.8418172 145.039652,71.3690611 145.039652,70.7747392 C145.02619,70.1804172 144.918494,69.707661 144.703103,69.3834854 Z M130.675752,69.3834854 C130.460361,69.0593098 130.150736,68.8702074 129.706492,68.8702074 C129.248786,68.8702074 128.925699,69.0458025 128.710308,69.3834854 C128.575688,69.5996025 128.481455,69.8697488 128.427607,70.2074318 L130.904606,70.2074318 C130.891144,69.8832562 130.823834,69.5996025 130.675752,69.3834854 Z M121.925486,70.896305 C121.212002,70.8827977 120.915839,71.152944 120.915839,71.152944 C120.71391,71.3015245 120.606215,71.5176416 120.606215,71.8283099 C120.606215,72.0174124 120.6466,72.1795002 120.71391,72.2875587 C120.754296,72.3550953 120.78122,72.3821099 120.915839,72.4901685 C120.915839,72.4901685 121.225464,72.7333002 121.938948,72.6927783 C122.43704,72.6657636 122.881284,72.5712124 122.881284,72.5712124 L122.881284,70.9773489 C122.867822,70.9773489 122.423578,70.9098123 121.925486,70.896305 Z M130.675752,69.3834854 C130.460361,69.0593098 130.150736,68.8702074 129.706492,68.8702074 C129.248786,68.8702074 128.925699,69.0458025 128.710308,69.3834854 C128.575688,69.5996025 128.481455,69.8697488 128.427607,70.2074318 L130.904606,70.2074318 C130.891144,69.8832562 130.823834,69.5996025 130.675752,69.3834854 Z M144.703103,69.3834854 C144.487712,69.0593098 144.164625,68.897222 143.706919,68.897222 C143.249213,68.897222 142.926126,69.0593098 142.710735,69.3834854 C142.495344,69.707661 142.387648,70.1804172 142.387648,70.7747392 C142.387648,71.3690611 142.495344,71.8418172 142.710735,72.1795002 C142.926126,72.5036758 143.249213,72.6657636 143.706919,72.6657636 C144.164625,72.6657636 144.487712,72.5036758 144.703103,72.1795002 C144.918494,71.8418172 145.039652,71.3690611 145.039652,70.7747392 C145.02619,70.1804172 144.918494,69.707661 144.703103,69.3834854 Z M144.703103,69.3834854 C144.487712,69.0593098 144.164625,68.897222 143.706919,68.897222 C143.249213,68.897222 142.926126,69.0593098 142.710735,69.3834854 C142.495344,69.707661 142.387648,70.1804172 142.387648,70.7747392 C142.387648,71.3690611 142.495344,71.8418172 142.710735,72.1795002 C142.926126,72.5036758 143.249213,72.6657636 143.706919,72.6657636 C144.164625,72.6657636 144.487712,72.5036758 144.703103,72.1795002 C144.918494,71.8418172 145.039652,71.3690611 145.039652,70.7747392 C145.02619,70.1804172 144.918494,69.707661 144.703103,69.3834854 Z M130.675752,69.3834854 C130.460361,69.0593098 130.150736,68.8702074 129.706492,68.8702074 C129.248786,68.8702074 128.925699,69.0458025 128.710308,69.3834854 C128.575688,69.5996025 128.481455,69.8697488 128.427607,70.2074318 L130.904606,70.2074318 C130.891144,69.8832562 130.823834,69.5996025 130.675752,69.3834854 Z M144.703103,69.3834854 C144.487712,69.0593098 144.164625,68.897222 143.706919,68.897222 C143.249213,68.897222 142.926126,69.0593098 142.710735,69.3834854 C142.495344,69.707661 142.387648,70.1804172 142.387648,70.7747392 C142.387648,71.3690611 142.495344,71.8418172 142.710735,72.1795002 C142.926126,72.5036758 143.249213,72.6657636 143.706919,72.6657636 C144.164625,72.6657636 144.487712,72.5036758 144.703103,72.1795002 C144.918494,71.8418172 145.039652,71.3690611 145.039652,70.7747392 C145.02619,70.1804172 144.918494,69.707661 144.703103,69.3834854 Z M144.703103,69.3834854 C144.487712,69.0593098 144.164625,68.897222 143.706919,68.897222 C143.249213,68.897222 142.926126,69.0593098 142.710735,69.3834854 C142.495344,69.707661 142.387648,70.1804172 142.387648,70.7747392 C142.387648,71.3690611 142.495344,71.8418172 142.710735,72.1795002 C142.926126,72.5036758 143.249213,72.6657636 143.706919,72.6657636 C144.164625,72.6657636 144.487712,72.5036758 144.703103,72.1795002 C144.918494,71.8418172 145.039652,71.3690611 145.039652,70.7747392 C145.02619,70.1804172 144.918494,69.707661 144.703103,69.3834854 Z M144.703103,69.3834854 C144.487712,69.0593098 144.164625,68.897222 143.706919,68.897222 C143.249213,68.897222 142.926126,69.0593098 142.710735,69.3834854 C142.495344,69.707661 142.387648,70.1804172 142.387648,70.7747392 C142.387648,71.3690611 142.495344,71.8418172 142.710735,72.1795002 C142.926126,72.5036758 143.249213,72.6657636 143.706919,72.6657636 C144.164625,72.6657636 144.487712,72.5036758 144.703103,72.1795002 C144.918494,71.8418172 145.039652,71.3690611 145.039652,70.7747392 C145.02619,70.1804172 144.918494,69.707661 144.703103,69.3834854 Z M144.703103,69.3834854 C144.487712,69.0593098 144.164625,68.897222 143.706919,68.897222 C143.249213,68.897222 142.926126,69.0593098 142.710735,69.3834854 C142.495344,69.707661 142.387648,70.1804172 142.387648,70.7747392 C142.387648,71.3690611 142.495344,71.8418172 142.710735,72.1795002 C142.926126,72.5036758 143.249213,72.6657636 143.706919,72.6657636 C144.164625,72.6657636 144.487712,72.5036758 144.703103,72.1795002 C144.918494,71.8418172 145.039652,71.3690611 145.039652,70.7747392 C145.02619,70.1804172 144.918494,69.707661 144.703103,69.3834854 Z" id="Shape" fill="#2b2c34" fill-rule="nonzero"></path>
        </g>
    </g>
</svg>