<?xml version="1.0" encoding="UTF-8"?>
<svg width="24px" height="23px" viewBox="0 0 24 23" version="1.1" xmlns="http://www.w3.org/2000/svg" xmlns:xlink="http://www.w3.org/1999/xlink">
    <!-- Generator: Sketch 47.1 (45422) - http://www.bohemiancoding.com/sketch -->
    <title>icon/24/sketch</title>
    <desc>Created with Sketch.</desc>
    <defs>
        <linearGradient x1="50%" y1="45.9010626%" x2="6.07912365%" y2="13.6809059%" id="linearGradient-1">
            <stop stop-color="#FDC004" offset="0%"></stop>
            <stop stop-color="#FDD026" offset="100%"></stop>
        </linearGradient>
        <polygon id="path-2" points="5 8 12 4.54747351e-13 5 1"></polygon>
        <polygon id="path-3" points="19 8 12 0 19 1"></polygon>
    </defs>
    <g id="Page-1" stroke="none" stroke-width="1" fill="none" fill-rule="evenodd">
        <g id="Desktop-HD-Copy-17" transform="translate(-80.000000, -74.000000)">
            <g id="Group-13" transform="translate(80.000000, 73.000000)">
                <g id="icon/24/sketch">
                    <g id="logo-sketch-copy" transform="translate(0.000000, 1.000000)">
                        <path d="M24,8 L12,23 L19,8 L24,8 Z M5,8 L5,1 L12,4.54747351e-13 L5,8 Z M19,8 L12,4.54747351e-13 L19,1 L19,8 Z M0,8 L5,1 L5,8 L0,8 Z M24,8 L19,8 L19,1 L24,8 Z M5,8 L19,8 L12,23 L5,8 Z M5,8 L12,4.54747351e-13 L19,8 L5,8 Z M0,8 L5,8 L12,23 L0,8 Z" id="Path-2-Copy" fill="#FCEEB0"></path>
                        <g id="Path-2-Copy-6">
                            <use fill="#FECE1D" xlink:href="#path-2"></use>
                            <use fill="url(#linearGradient-1)" xlink:href="#path-2"></use>
                        </g>
                        <g id="Path-2-Copy-6">
                            <use fill="#FECE1D" xlink:href="#path-3"></use>
                            <use fill="url(#linearGradient-1)" xlink:href="#path-3"></use>
                        </g>
                        <polygon id="Path-2-Copy-4" fill="#FCA200" points="0 8 5 8 5 1"></polygon>
                        <polygon id="Path-2-Copy-4" fill="#FCA200" points="24 8 19 8 19 1"></polygon>
                        <polygon id="Path-2-Copy-3" fill="#FC9A00" points="5 8 12 23 19 8"></polygon>
                        <polygon id="Path-2-Copy-3" fill="#FCEEB0" points="5 8 12 0 19 8"></polygon>
                        <polygon id="Path-2-Copy" fill="#EF6D01" points="0 8 12 23 5 8"></polygon>
                        <polygon id="Path-2-Copy" fill="#EF6D01" points="24 8 12 23 19 8"></polygon>
                    </g>
                </g>
            </g>
        </g>
    </g>
</svg>