<svg width="720" height="300" viewBox="0 0 720 300" fill="none" xmlns="http://www.w3.org/2000/svg">
<rect x="45.5" y="59.5" width="179" height="179" fill="white" stroke="#7567F6"/>
<rect x="41.5" y="55.5" width="8" height="8" fill="white" stroke="#7567F6"/>
<rect x="220.5" y="55.5" width="8" height="8" fill="white" stroke="#7567F6"/>
<rect x="41.5" y="234.5" width="8" height="8" fill="white" stroke="#7567F6"/>
<rect x="220.5" y="234.5" width="8" height="8" fill="white" stroke="#7567F6"/>
<path d="M5 149H45" stroke="#48A0F4" stroke-dasharray="2 2"/>
<path d="M135 19V59" stroke="#48A0F4" stroke-dasharray="2 2"/>
<path d="M118.453 249.727H117.573L115.754 250.935V251.83L117.53 250.651H117.573V257H118.453V249.727ZM122.874 257.099C124.327 257.099 125.339 256.251 125.346 255.068C125.339 254.148 124.725 253.367 123.94 253.222V253.179C124.622 253.001 125.069 252.334 125.076 251.56C125.069 250.452 124.139 249.628 122.874 249.628C121.596 249.628 120.666 250.452 120.673 251.56C120.666 252.334 121.113 253.001 121.809 253.179V253.222C121.01 253.367 120.396 254.148 120.403 255.068C120.396 256.251 121.408 257.099 122.874 257.099ZM122.874 256.318C121.877 256.318 121.262 255.807 121.269 255.026C121.262 254.205 121.94 253.619 122.874 253.619C123.794 253.619 124.472 254.205 124.479 255.026C124.472 255.807 123.858 256.318 122.874 256.318ZM122.874 252.866C122.079 252.866 121.518 252.369 121.525 251.616C121.518 250.878 122.058 250.395 122.874 250.395C123.677 250.395 124.217 250.878 124.224 251.616C124.217 252.369 123.656 252.866 122.874 252.866ZM129.079 257.099C130.684 257.099 131.608 255.739 131.608 253.364C131.608 251.006 130.67 249.628 129.079 249.628C127.488 249.628 126.551 251.006 126.551 253.364C126.551 255.739 127.474 257.099 129.079 257.099ZM129.079 256.318C128.021 256.318 127.403 255.256 127.403 253.364C127.403 251.474 128.028 250.395 129.079 250.395C130.13 250.395 130.755 251.474 130.755 253.364C130.755 255.256 130.137 256.318 129.079 256.318ZM137.233 255.693L137.772 255.153L136.039 253.42L137.772 251.688L137.233 251.148L135.5 252.881L133.767 251.148L133.227 251.688L134.96 253.42L133.227 255.153L133.767 255.693L135.5 253.96L137.233 255.693ZM142.106 249.727H141.225L139.407 250.935V251.83L141.182 250.651H141.225V257H142.106V249.727ZM146.527 257.099C147.979 257.099 148.991 256.251 148.998 255.068C148.991 254.148 148.377 253.367 147.592 253.222V253.179C148.274 253.001 148.721 252.334 148.728 251.56C148.721 250.452 147.791 249.628 146.527 249.628C145.248 249.628 144.318 250.452 144.325 251.56C144.318 252.334 144.765 253.001 145.461 253.179V253.222C144.662 253.367 144.048 254.148 144.055 255.068C144.048 256.251 145.06 257.099 146.527 257.099ZM146.527 256.318C145.529 256.318 144.915 255.807 144.922 255.026C144.915 254.205 145.593 253.619 146.527 253.619C147.446 253.619 148.125 254.205 148.132 255.026C148.125 255.807 147.51 256.318 146.527 256.318ZM146.527 252.866C145.731 252.866 145.17 252.369 145.177 251.616C145.17 250.878 145.71 250.395 146.527 250.395C147.329 250.395 147.869 250.878 147.876 251.616C147.869 252.369 147.308 252.866 146.527 252.866ZM152.731 257.099C154.337 257.099 155.26 255.739 155.26 253.364C155.26 251.006 154.322 249.628 152.731 249.628C151.141 249.628 150.203 251.006 150.203 253.364C150.203 255.739 151.126 257.099 152.731 257.099ZM152.731 256.318C151.673 256.318 151.055 255.256 151.055 253.364C151.055 251.474 151.68 250.395 152.731 250.395C153.783 250.395 154.408 251.474 154.408 253.364C154.408 255.256 153.79 256.318 152.731 256.318Z" fill="#7B61FF"/>
<line x1="227" y1="150" x2="313" y2="150" stroke="#7B61FF" stroke-width="4" stroke-linecap="round" stroke-linejoin="round"/>
<path fill-rule="evenodd" clip-rule="evenodd" d="M225 158C229.418 158 233 154.418 233 150C233 145.582 229.418 142 225 142C220.582 142 217 145.582 217 150C217 154.418 220.582 158 225 158Z" fill="white" stroke="#7B61FF" stroke-width="4" stroke-linecap="round" stroke-linejoin="round"/>
<path d="M309 160L319.156 151.536C320.116 150.737 320.116 149.263 319.156 148.464L309 140" stroke="#7B61FF" stroke-width="4" stroke-linecap="round" stroke-linejoin="round"/>
<line x1="311" y1="150" x2="317" y2="151" stroke="#7B61FF" stroke-width="4" stroke-linecap="round" stroke-linejoin="round"/>
<line x1="497" y1="150" x2="673" y2="150" stroke="#7B61FF" stroke-width="4" stroke-linecap="round" stroke-linejoin="round" stroke-dasharray="4 12"/>
<path fill-rule="evenodd" clip-rule="evenodd" d="M495 158C499.418 158 503 154.418 503 150C503 145.582 499.418 142 495 142C490.582 142 487 145.582 487 150C487 154.418 490.582 158 495 158Z" fill="white" stroke="#7B61FF" stroke-width="4" stroke-linecap="round" stroke-linejoin="round"/>
<path d="M669 160L679.156 151.536C680.116 150.737 680.116 149.263 679.156 148.464L669 140" stroke="#7B61FF" stroke-width="4" stroke-linecap="round" stroke-linejoin="round"/>
<line x1="671" y1="150" x2="677" y2="151" stroke="#7B61FF" stroke-width="4" stroke-linecap="round" stroke-linejoin="round"/>
<rect x="77" y="92" width="116" height="116" rx="28" fill="#7B61FF" fill-opacity="0.05" stroke="#7B61FF" stroke-width="4"/>
<path d="M108.519 156H113.491C116.104 156 117.496 154.636 117.496 152.784C117.496 151.062 116.263 150.023 114.94 149.96V149.847C116.15 149.574 117.042 148.716 117.042 147.347C117.042 145.602 115.746 144.364 113.178 144.364H108.519V156ZM110.979 153.989V150.898H113.042C114.224 150.898 114.957 151.58 114.957 152.54C114.957 153.415 114.36 153.989 112.985 153.989H110.979ZM110.979 149.233V146.352H112.849C113.94 146.352 114.559 146.915 114.559 147.756C114.559 148.676 113.809 149.233 112.803 149.233H110.979ZM121.472 144.364H119.052V156H121.472V144.364ZM127.354 156.17C130.002 156.17 131.65 154.358 131.65 151.67C131.65 148.966 130.002 147.159 127.354 147.159C124.707 147.159 123.059 148.966 123.059 151.67C123.059 154.358 124.707 156.17 127.354 156.17ZM127.366 154.295C126.144 154.295 125.519 153.176 125.519 151.653C125.519 150.131 126.144 149.006 127.366 149.006C128.565 149.006 129.19 150.131 129.19 151.653C129.19 153.176 128.565 154.295 127.366 154.295ZM137.167 156.17C139.491 156.17 140.951 154.807 141.065 152.801H138.781C138.638 153.733 138.025 154.256 137.195 154.256C136.065 154.256 135.332 153.307 135.332 151.636C135.332 149.989 136.07 149.045 137.195 149.045C138.082 149.045 138.65 149.631 138.781 150.5H141.065C140.962 148.483 139.434 147.159 137.156 147.159C134.508 147.159 132.871 148.994 132.871 151.67C132.871 154.324 134.479 156.17 137.167 156.17ZM142.614 156H145.035V153.227L145.688 152.483L148.069 156H150.904L147.501 151.051L150.739 147.273H147.961L145.165 150.585H145.035V144.364H142.614V156ZM160.67 144.364H158.357L155.477 146.188V148.369L158.141 146.699H158.21V156H160.67V144.364Z" fill="#7B61FF"/>
<rect x="347" y="92" width="116" height="116" rx="28" fill="#7B61FF" fill-opacity="0.05" stroke="#7B61FF" stroke-width="4"/>
<path d="M373.894 156H378.866C381.479 156 382.871 154.636 382.871 152.784C382.871 151.062 381.638 150.023 380.315 149.96V149.847C381.525 149.574 382.417 148.716 382.417 147.347C382.417 145.602 381.121 144.364 378.553 144.364H373.894V156ZM376.354 153.989V150.898H378.417C379.599 150.898 380.332 151.58 380.332 152.54C380.332 153.415 379.735 153.989 378.36 153.989H376.354ZM376.354 149.233V146.352H378.224C379.315 146.352 379.934 146.915 379.934 147.756C379.934 148.676 379.184 149.233 378.178 149.233H376.354ZM387.847 144.364H385.427V156H387.847V144.364ZM394.729 156.17C397.377 156.17 399.025 154.358 399.025 151.67C399.025 148.966 397.377 147.159 394.729 147.159C392.082 147.159 390.434 148.966 390.434 151.67C390.434 154.358 392.082 156.17 394.729 156.17ZM394.741 154.295C393.519 154.295 392.894 153.176 392.894 151.653C392.894 150.131 393.519 149.006 394.741 149.006C395.94 149.006 396.565 150.131 396.565 151.653C396.565 153.176 395.94 154.295 394.741 154.295ZM405.542 156.17C407.866 156.17 409.326 154.807 409.44 152.801H407.156C407.013 153.733 406.4 154.256 405.57 154.256C404.44 154.256 403.707 153.307 403.707 151.636C403.707 149.989 404.445 149.045 405.57 149.045C406.457 149.045 407.025 149.631 407.156 150.5H409.44C409.337 148.483 407.809 147.159 405.531 147.159C402.883 147.159 401.246 148.994 401.246 151.67C401.246 154.324 402.854 156.17 405.542 156.17ZM411.989 156H414.41V153.227L415.063 152.483L417.444 156H420.279L416.876 151.051L420.114 147.273H417.336L414.54 150.585H414.41V144.364H411.989V156ZM426.982 156H435.278V153.989H430.391V153.909L432.09 152.244C434.482 150.062 435.124 148.972 435.124 147.648C435.124 145.631 433.477 144.205 430.982 144.205C428.539 144.205 426.863 145.665 426.869 147.949H429.204C429.198 146.835 429.903 146.153 430.965 146.153C431.988 146.153 432.749 146.79 432.749 147.812C432.749 148.739 432.181 149.375 431.124 150.392L426.982 154.227V156Z" fill="#7B61FF"/>
</svg>
