<svg width="1440" height="1080" viewBox="0 0 1440 1080" fill="none" xmlns="http://www.w3.org/2000/svg">
<rect width="1440" height="1080" fill="white"/>
<rect x="572" y="32" width="116" height="116" rx="28" fill="#F7F7F7" stroke="#222222" stroke-width="4"/>
<path d="M614.258 86.1484C614.922 86.1484 615.305 85.7422 615.305 85.0469V78.3906H615.367L618.156 85.2188C618.352 85.7031 618.68 85.9297 619.18 85.9297C619.672 85.9297 619.984 85.7109 620.188 85.2109L622.977 78.3906H623.039V85.0469C623.039 85.7422 623.422 86.1484 624.086 86.1484C624.75 86.1484 625.141 85.7422 625.141 85.0469V76.0938C625.141 75.1328 624.578 74.5703 623.625 74.5703C622.797 74.5703 622.336 74.9219 621.992 75.7891L619.203 82.7188H619.141L616.344 75.7891C616 74.9141 615.547 74.5703 614.727 74.5703C613.766 74.5703 613.203 75.1406 613.203 76.0938V85.0469C613.203 85.7422 613.594 86.1484 614.258 86.1484ZM629.125 86.1328C630.172 86.1328 631.219 85.6094 631.688 84.7188H631.734V85.1484C631.781 85.8203 632.211 86.1641 632.828 86.1641C633.477 86.1641 633.938 85.7734 633.938 85.0156V80.2422C633.938 78.5547 632.539 77.4453 630.391 77.4453C628.656 77.4453 627.312 78.0625 626.922 79.0625C626.844 79.2344 626.805 79.3984 626.805 79.5781C626.805 80.0938 627.203 80.4531 627.758 80.4531C628.125 80.4531 628.414 80.3125 628.664 80.0312C629.172 79.375 629.594 79.1484 630.289 79.1484C631.148 79.1484 631.695 79.6016 631.695 80.3828V80.9375L629.586 81.0625C627.492 81.1875 626.32 82.0703 626.32 83.5938C626.32 85.1016 627.531 86.1328 629.125 86.1328ZM629.875 84.4844C629.109 84.4844 628.594 84.0938 628.594 83.4688C628.594 82.875 629.078 82.4922 629.93 82.4297L631.695 82.3203V82.9297C631.695 83.8359 630.875 84.4844 629.875 84.4844ZM636.594 76.5859C637.281 76.5859 637.812 76.0625 637.812 75.4062C637.812 74.7422 637.281 74.2266 636.594 74.2266C635.906 74.2266 635.375 74.7422 635.375 75.4062C635.375 76.0625 635.906 76.5859 636.594 76.5859ZM636.594 86.1641C637.297 86.1641 637.734 85.7188 637.734 84.9766V78.6484C637.734 77.9062 637.297 77.4531 636.594 77.4531C635.883 77.4531 635.453 77.9062 635.453 78.6484V84.9766C635.453 85.7188 635.883 86.1641 636.594 86.1641ZM640.398 86.1641C641.07 86.1641 641.539 85.7578 641.539 84.9766V81.1953C641.539 80.1094 642.188 79.3594 643.211 79.3594C644.234 79.3594 644.75 79.9844 644.75 81.0781V84.9766C644.75 85.7578 645.219 86.1641 645.891 86.1641C646.555 86.1641 647.031 85.7578 647.031 84.9766V80.6016C647.031 78.6406 645.984 77.4688 644.125 77.4688C642.836 77.4688 641.992 78.0391 641.547 79.0781H641.5V78.6094C641.5 77.8906 641.047 77.4531 640.359 77.4531C639.672 77.4531 639.258 77.8906 639.258 78.6016V84.9766C639.258 85.7578 639.734 86.1641 640.398 86.1641ZM613.867 106.148C614.609 106.148 615.047 105.695 615.047 104.922V102.445H617.156C619.531 102.445 621.18 100.898 621.18 98.5859C621.18 96.2656 619.586 94.7266 617.273 94.7266H613.867C613.125 94.7266 612.688 95.1797 612.688 95.9531V104.922C612.688 105.695 613.125 106.148 613.867 106.148ZM615.047 100.602V96.5938H616.648C618 96.5938 618.781 97.3125 618.781 98.5938C618.781 99.8828 617.992 100.602 616.641 100.602H615.047ZM624.312 106.133C625.359 106.133 626.406 105.609 626.875 104.719H626.922V105.148C626.969 105.82 627.398 106.164 628.016 106.164C628.664 106.164 629.125 105.773 629.125 105.016V100.242C629.125 98.5547 627.727 97.4453 625.578 97.4453C623.844 97.4453 622.5 98.0625 622.109 99.0625C622.031 99.2344 621.992 99.3984 621.992 99.5781C621.992 100.094 622.391 100.453 622.945 100.453C623.312 100.453 623.602 100.312 623.852 100.031C624.359 99.375 624.781 99.1484 625.477 99.1484C626.336 99.1484 626.883 99.6016 626.883 100.383V100.938L624.773 101.062C622.68 101.188 621.508 102.07 621.508 103.594C621.508 105.102 622.719 106.133 624.312 106.133ZM625.062 104.484C624.297 104.484 623.781 104.094 623.781 103.469C623.781 102.875 624.266 102.492 625.117 102.43L626.883 102.32V102.93C626.883 103.836 626.062 104.484 625.062 104.484ZM634.344 109.148C637.039 109.164 638.617 107.852 638.617 105.672V98.6094C638.617 97.8359 638.141 97.4531 637.484 97.4531C636.828 97.4531 636.336 97.8359 636.336 98.6094V99.0703H636.289C635.852 98.125 634.938 97.4922 633.734 97.4922C631.578 97.4922 630.297 99.0469 630.297 101.672C630.297 104.227 631.609 105.82 633.695 105.82C634.906 105.82 635.883 105.219 636.273 104.32H636.32V105.656C636.32 106.703 635.586 107.391 634.336 107.383C633.578 107.375 632.984 107.055 632.367 106.469C632.109 106.234 631.875 106.141 631.578 106.141C631.008 106.141 630.648 106.5 630.648 106.977C630.648 107.188 630.695 107.398 630.82 107.609C631.359 108.492 632.633 109.141 634.344 109.148ZM634.469 104.125C633.336 104.125 632.633 103.227 632.633 101.695C632.633 100.18 633.344 99.2266 634.469 99.2266C635.609 99.2266 636.344 100.195 636.344 101.703C636.344 103.219 635.609 104.125 634.469 104.125ZM643.953 106.18C645.57 106.18 646.867 105.57 647.422 104.539C647.523 104.352 647.578 104.164 647.578 103.984C647.578 103.461 647.18 103.148 646.688 103.148C646.391 103.148 646.188 103.234 645.945 103.484C645.328 104.211 644.781 104.492 643.945 104.492C642.789 104.492 642.039 103.68 642.039 102.438V102.336H646.82C647.453 102.336 647.812 101.977 647.812 101.344C647.812 99.0703 646.219 97.4453 643.844 97.4453C641.367 97.4453 639.797 99.1562 639.797 101.852C639.797 104.562 641.336 106.18 643.953 106.18ZM642.062 100.938C642.141 99.8672 642.867 99.1328 643.867 99.1328C644.867 99.1328 645.57 99.8438 645.617 100.938H642.062Z" fill="#222222"/>
<rect x="574" y="394" width="112" height="112" rx="26" fill="#F7F7F7" stroke="#222222" stroke-width="8"/>
<path d="M603.57 456.188C606.383 456.188 608.109 454.797 608.109 452.594C608.109 450.883 607.078 449.922 604.688 449.445L603.5 449.203C602.164 448.938 601.625 448.508 601.625 447.812C601.625 446.984 602.398 446.438 603.562 446.438C604.531 446.438 605.258 446.789 605.633 447.641C605.898 448.125 606.227 448.336 606.758 448.336C607.359 448.336 607.766 447.953 607.766 447.391C607.766 447.188 607.734 447.023 607.68 446.867C607.18 445.398 605.625 444.531 603.562 444.531C601.055 444.531 599.258 445.898 599.258 447.961C599.258 449.641 600.359 450.719 602.609 451.164L603.805 451.398C605.219 451.688 605.75 452.109 605.75 452.852C605.75 453.68 604.891 454.289 603.625 454.289C602.547 454.289 601.664 453.898 601.297 453.039C601.016 452.539 600.695 452.352 600.211 452.352C599.602 452.352 599.172 452.766 599.172 453.391C599.172 453.602 599.219 453.82 599.297 454.023C599.75 455.258 601.242 456.188 603.57 456.188ZM613.211 456.18C614.828 456.18 616.125 455.57 616.68 454.539C616.781 454.352 616.836 454.164 616.836 453.984C616.836 453.461 616.438 453.148 615.945 453.148C615.648 453.148 615.445 453.234 615.203 453.484C614.586 454.211 614.039 454.492 613.203 454.492C612.047 454.492 611.297 453.68 611.297 452.438V452.336H616.078C616.711 452.336 617.07 451.977 617.07 451.344C617.07 449.07 615.477 447.445 613.102 447.445C610.625 447.445 609.055 449.156 609.055 451.852C609.055 454.562 610.594 456.18 613.211 456.18ZM611.32 450.938C611.398 449.867 612.125 449.133 613.125 449.133C614.125 449.133 614.828 449.844 614.875 450.938H611.32ZM619.391 456.164C620.086 456.164 620.531 455.734 620.531 454.977V451.258C620.531 450.266 620.898 449.68 621.938 449.664C622.383 449.656 622.711 449.555 622.93 449.367C623.148 449.18 623.258 448.906 623.258 448.547C623.258 448.156 623.148 447.875 622.93 447.703C622.766 447.562 622.523 447.492 622.219 447.492C621.383 447.492 620.695 448.109 620.477 449.148H620.43V448.602C620.43 447.875 619.992 447.453 619.352 447.453C618.695 447.453 618.25 447.875 618.25 448.602V454.977C618.25 455.734 618.703 456.164 619.391 456.164ZM627.594 456.164C628.422 456.164 628.898 455.805 629.188 455L631.367 449.109C631.438 448.914 631.492 448.68 631.492 448.469C631.492 447.891 631.016 447.453 630.383 447.453C629.852 447.453 629.469 447.742 629.312 448.344L627.617 453.984H627.57L625.875 448.367C625.703 447.75 625.336 447.453 624.781 447.453C624.133 447.453 623.641 447.859 623.641 448.477C623.641 448.711 623.695 448.953 623.766 449.156L625.945 455C626.25 455.812 626.719 456.164 627.594 456.164ZM633.711 446.586C634.398 446.586 634.93 446.062 634.93 445.406C634.93 444.742 634.398 444.227 633.711 444.227C633.023 444.227 632.492 444.742 632.492 445.406C632.492 446.062 633.023 446.586 633.711 446.586ZM633.711 456.164C634.414 456.164 634.852 455.719 634.852 454.977V448.648C634.852 447.906 634.414 447.453 633.711 447.453C633 447.453 632.57 447.906 632.57 448.648V454.977C632.57 455.719 633 456.164 633.711 456.164ZM640.195 456.18C641.797 456.18 643.227 455.383 643.727 454.242C643.828 454.016 643.875 453.828 643.875 453.648C643.875 453.086 643.445 452.734 642.914 452.734C642.43 452.734 642.18 452.93 641.875 453.406C641.523 454 641.031 454.391 640.234 454.391C639.094 454.391 638.383 453.453 638.383 451.805C638.383 450.188 639.094 449.234 640.25 449.234C640.977 449.234 641.484 449.57 641.898 450.305C642.133 450.719 642.406 450.898 642.859 450.898C643.398 450.898 643.836 450.57 643.836 450.008C643.836 449.844 643.789 449.641 643.711 449.445C643.258 448.258 641.859 447.445 640.18 447.445C637.664 447.445 636.07 449.133 636.07 451.812C636.07 454.523 637.672 456.18 640.195 456.18ZM648.945 456.18C650.562 456.18 651.859 455.57 652.414 454.539C652.516 454.352 652.57 454.164 652.57 453.984C652.57 453.461 652.172 453.148 651.68 453.148C651.383 453.148 651.18 453.234 650.938 453.484C650.32 454.211 649.773 454.492 648.938 454.492C647.781 454.492 647.031 453.68 647.031 452.438V452.336H651.812C652.445 452.336 652.805 451.977 652.805 451.344C652.805 449.07 651.211 447.445 648.836 447.445C646.359 447.445 644.789 449.156 644.789 451.852C644.789 454.562 646.328 456.18 648.945 456.18ZM647.055 450.938C647.133 449.867 647.859 449.133 648.859 449.133C649.859 449.133 650.562 449.844 650.609 450.938H647.055ZM657.398 456.18C659.609 456.18 661.102 455.102 661.102 453.438C661.102 452.188 660.367 451.531 658.586 451.156L657.203 450.859C656.367 450.68 656.039 450.391 656.039 449.953C656.039 449.414 656.578 449.047 657.352 449.047C658.172 449.047 658.625 449.438 659.023 449.945C659.227 450.188 659.555 450.297 659.852 450.297C660.438 450.297 660.727 449.977 660.727 449.516C660.727 449.406 660.703 449.297 660.672 449.18C660.398 448.234 659.125 447.445 657.391 447.445C655.219 447.445 653.836 448.477 653.836 450.078C653.836 451.32 654.664 452.156 656.305 452.508L657.711 452.805C658.531 452.984 658.82 453.227 658.82 453.68C658.82 454.234 658.281 454.578 657.453 454.578C656.586 454.578 656.07 454.312 655.625 453.727C655.312 453.375 655 453.211 654.633 453.211C654.102 453.211 653.711 453.562 653.711 454.086C653.711 454.211 653.742 454.359 653.797 454.508C654.195 455.492 655.477 456.18 657.398 456.18Z" fill="#222222"/>
<rect x="1024" y="394" width="112" height="112" rx="26" fill="#F7F7F7" stroke="#222222" stroke-width="8"/>
<path d="M1056.67 456.188C1058.8 456.188 1060.48 455.227 1061.19 453.664C1061.3 453.391 1061.37 453.141 1061.37 452.875C1061.37 452.25 1060.93 451.828 1060.27 451.828C1059.77 451.828 1059.47 452.039 1059.23 452.57C1058.72 453.703 1057.83 454.242 1056.64 454.242C1054.84 454.242 1053.7 452.758 1053.7 450.352C1053.7 447.977 1054.85 446.484 1056.63 446.484C1057.76 446.484 1058.68 447.062 1059.2 448.211C1059.45 448.758 1059.79 448.992 1060.32 448.992C1060.95 448.992 1061.36 448.594 1061.36 447.977C1061.36 447.695 1061.28 447.391 1061.12 447.094C1060.35 445.469 1058.72 444.531 1056.61 444.531C1053.37 444.531 1051.3 446.727 1051.3 450.359C1051.3 454 1053.33 456.188 1056.67 456.188ZM1066.7 456.18C1069.23 456.18 1070.85 454.562 1070.85 451.805C1070.85 449.086 1069.21 447.445 1066.7 447.445C1064.2 447.445 1062.55 449.094 1062.55 451.805C1062.55 454.555 1064.17 456.18 1066.7 456.18ZM1066.7 454.438C1065.58 454.438 1064.87 453.492 1064.87 451.812C1064.87 450.148 1065.59 449.188 1066.7 449.188C1067.81 449.188 1068.53 450.148 1068.53 451.812C1068.53 453.492 1067.82 454.438 1066.7 454.438ZM1073.17 456.164C1073.84 456.164 1074.31 455.758 1074.31 454.977V451.195C1074.31 450.109 1074.96 449.359 1075.98 449.359C1077.01 449.359 1077.52 449.984 1077.52 451.078V454.977C1077.52 455.758 1077.99 456.164 1078.66 456.164C1079.33 456.164 1079.8 455.758 1079.8 454.977V450.602C1079.8 448.641 1078.76 447.469 1076.9 447.469C1075.61 447.469 1074.77 448.039 1074.32 449.078H1074.27V448.609C1074.27 447.891 1073.82 447.453 1073.13 447.453C1072.45 447.453 1072.03 447.891 1072.03 448.602V454.977C1072.03 455.758 1072.51 456.164 1073.17 456.164ZM1081.86 453.859C1081.86 455.336 1082.63 456.094 1084.16 456.094H1084.23C1085.2 456.094 1085.85 455.75 1085.85 455.078C1085.85 454.547 1085.55 454.312 1084.98 454.25L1084.84 454.234C1084.34 454.195 1084.14 453.945 1084.14 453.352V449.344H1084.95C1085.48 449.344 1085.82 449.008 1085.82 448.484C1085.82 447.961 1085.48 447.625 1084.95 447.625H1084.14V446.695C1084.14 445.961 1083.71 445.508 1083 445.508C1082.29 445.508 1081.86 445.961 1081.86 446.695V447.625H1081.42C1080.88 447.625 1080.54 447.953 1080.54 448.484C1080.54 449.016 1080.88 449.344 1081.42 449.344H1081.86V453.859ZM1089.34 456.133C1090.38 456.133 1091.43 455.609 1091.9 454.719H1091.95V455.148C1091.99 455.82 1092.42 456.164 1093.04 456.164C1093.69 456.164 1094.15 455.773 1094.15 455.016V450.242C1094.15 448.555 1092.75 447.445 1090.6 447.445C1088.87 447.445 1087.52 448.062 1087.13 449.062C1087.05 449.234 1087.02 449.398 1087.02 449.578C1087.02 450.094 1087.41 450.453 1087.97 450.453C1088.34 450.453 1088.62 450.312 1088.88 450.031C1089.38 449.375 1089.8 449.148 1090.5 449.148C1091.36 449.148 1091.91 449.602 1091.91 450.383V450.938L1089.8 451.062C1087.7 451.188 1086.53 452.07 1086.53 453.594C1086.53 455.102 1087.74 456.133 1089.34 456.133ZM1090.09 454.484C1089.32 454.484 1088.8 454.094 1088.8 453.469C1088.8 452.875 1089.29 452.492 1090.14 452.43L1091.91 452.32V452.93C1091.91 453.836 1091.09 454.484 1090.09 454.484ZM1099.45 456.18C1101.05 456.18 1102.48 455.383 1102.98 454.242C1103.08 454.016 1103.12 453.828 1103.12 453.648C1103.12 453.086 1102.7 452.734 1102.16 452.734C1101.68 452.734 1101.43 452.93 1101.12 453.406C1100.77 454 1100.28 454.391 1099.48 454.391C1098.34 454.391 1097.63 453.453 1097.63 451.805C1097.63 450.188 1098.34 449.234 1099.5 449.234C1100.23 449.234 1100.73 449.57 1101.15 450.305C1101.38 450.719 1101.66 450.898 1102.11 450.898C1102.65 450.898 1103.09 450.57 1103.09 450.008C1103.09 449.844 1103.04 449.641 1102.96 449.445C1102.51 448.258 1101.11 447.445 1099.43 447.445C1096.91 447.445 1095.32 449.133 1095.32 451.812C1095.32 454.523 1096.92 456.18 1099.45 456.18ZM1104.95 453.859C1104.95 455.336 1105.73 456.094 1107.25 456.094H1107.33C1108.29 456.094 1108.95 455.75 1108.95 455.078C1108.95 454.547 1108.64 454.312 1108.08 454.25L1107.93 454.234C1107.44 454.195 1107.23 453.945 1107.23 453.352V449.344H1108.04C1108.58 449.344 1108.91 449.008 1108.91 448.484C1108.91 447.961 1108.58 447.625 1108.04 447.625H1107.23V446.695C1107.23 445.961 1106.8 445.508 1106.09 445.508C1105.38 445.508 1104.95 445.961 1104.95 446.695V447.625H1104.52C1103.98 447.625 1103.63 447.953 1103.63 448.484C1103.63 449.016 1103.98 449.344 1104.52 449.344H1104.95V453.859Z" fill="#222222"/>
<rect x="300" y="570" width="120" height="120" rx="30" stroke="#222222" stroke-width="4" stroke-miterlimit="2.61313" stroke-linecap="round" stroke-linejoin="round" stroke-dasharray="4 12"/>
<path d="M345.188 636.148C345.93 636.148 346.367 635.695 346.367 634.922V626.68H348.703C349.336 626.68 349.766 626.312 349.766 625.703C349.766 625.094 349.344 624.727 348.703 624.727H341.68C341.031 624.727 340.609 625.094 340.609 625.703C340.609 626.312 341.039 626.68 341.68 626.68H344.008V634.922C344.008 635.695 344.445 636.148 345.188 636.148ZM352.75 636.18C354.367 636.18 355.664 635.57 356.219 634.539C356.32 634.352 356.375 634.164 356.375 633.984C356.375 633.461 355.977 633.148 355.484 633.148C355.188 633.148 354.984 633.234 354.742 633.484C354.125 634.211 353.578 634.492 352.742 634.492C351.586 634.492 350.836 633.68 350.836 632.438V632.336H355.617C356.25 632.336 356.609 631.977 356.609 631.344C356.609 629.07 355.016 627.445 352.641 627.445C350.164 627.445 348.594 629.156 348.594 631.852C348.594 634.562 350.133 636.18 352.75 636.18ZM350.859 630.938C350.938 629.867 351.664 629.133 352.664 629.133C353.664 629.133 354.367 629.844 354.414 630.938H350.859ZM360.266 636.133C361.312 636.133 362.359 635.609 362.828 634.719H362.875V635.148C362.922 635.82 363.352 636.164 363.969 636.164C364.617 636.164 365.078 635.773 365.078 635.016V630.242C365.078 628.555 363.68 627.445 361.531 627.445C359.797 627.445 358.453 628.062 358.062 629.062C357.984 629.234 357.945 629.398 357.945 629.578C357.945 630.094 358.344 630.453 358.898 630.453C359.266 630.453 359.555 630.312 359.805 630.031C360.312 629.375 360.734 629.148 361.43 629.148C362.289 629.148 362.836 629.602 362.836 630.383V630.938L360.727 631.062C358.633 631.188 357.461 632.07 357.461 633.594C357.461 635.102 358.672 636.133 360.266 636.133ZM361.016 634.484C360.25 634.484 359.734 634.094 359.734 633.469C359.734 632.875 360.219 632.492 361.07 632.43L362.836 632.32V632.93C362.836 633.836 362.016 634.484 361.016 634.484ZM367.695 636.164C368.367 636.164 368.836 635.75 368.836 634.977V630.945C368.836 630.008 369.422 629.352 370.289 629.352C371.133 629.352 371.641 629.883 371.641 630.781V634.977C371.641 635.75 372.062 636.164 372.734 636.164C373.414 636.164 373.836 635.75 373.836 634.977V630.914C373.836 629.984 374.406 629.352 375.273 629.352C376.156 629.352 376.641 629.883 376.641 630.852V634.977C376.641 635.75 377.102 636.164 377.773 636.164C378.453 636.164 378.922 635.75 378.922 634.977V630.281C378.922 628.594 377.82 627.469 376.18 627.469C374.953 627.469 373.953 628.133 373.578 629.188H373.531C373.25 628.094 372.406 627.469 371.195 627.469C370.055 627.469 369.156 628.133 368.805 629.141H368.758V628.617C368.758 627.852 368.305 627.453 367.656 627.453C367.008 627.453 366.555 627.852 366.555 628.617V634.977C366.555 635.75 367.016 636.164 367.695 636.164Z" fill="#222222"/>
<rect x="300" y="750" width="120" height="120" rx="30" stroke="#222222" stroke-width="4" stroke-miterlimit="2.61313" stroke-linecap="round" stroke-linejoin="round" stroke-dasharray="4 12"/>
<path d="M328.328 816.148C329.07 816.148 329.508 815.695 329.508 814.922V805.805C329.508 805.023 329.07 804.57 328.328 804.57C327.586 804.57 327.148 805.023 327.148 805.805V814.922C327.148 815.695 327.586 816.148 328.328 816.148ZM332.328 816.164C333 816.164 333.469 815.758 333.469 814.977V811.195C333.469 810.109 334.117 809.359 335.141 809.359C336.164 809.359 336.68 809.984 336.68 811.078V814.977C336.68 815.758 337.148 816.164 337.82 816.164C338.484 816.164 338.961 815.758 338.961 814.977V810.602C338.961 808.641 337.914 807.469 336.055 807.469C334.766 807.469 333.922 808.039 333.477 809.078H333.43V808.609C333.43 807.891 332.977 807.453 332.289 807.453C331.602 807.453 331.188 807.891 331.188 808.602V814.977C331.188 815.758 331.664 816.164 332.328 816.164ZM343.875 816.164C344.703 816.164 345.18 815.805 345.469 815L347.648 809.109C347.719 808.914 347.773 808.68 347.773 808.469C347.773 807.891 347.297 807.453 346.664 807.453C346.133 807.453 345.75 807.742 345.594 808.344L343.898 813.984H343.852L342.156 808.367C341.984 807.75 341.617 807.453 341.062 807.453C340.414 807.453 339.922 807.859 339.922 808.477C339.922 808.711 339.977 808.953 340.047 809.156L342.227 815C342.531 815.812 343 816.164 343.875 816.164ZM352.43 816.18C354.047 816.18 355.344 815.57 355.898 814.539C356 814.352 356.055 814.164 356.055 813.984C356.055 813.461 355.656 813.148 355.164 813.148C354.867 813.148 354.664 813.234 354.422 813.484C353.805 814.211 353.258 814.492 352.422 814.492C351.266 814.492 350.516 813.68 350.516 812.438V812.336H355.297C355.93 812.336 356.289 811.977 356.289 811.344C356.289 809.07 354.695 807.445 352.32 807.445C349.844 807.445 348.273 809.156 348.273 811.852C348.273 814.562 349.812 816.18 352.43 816.18ZM350.539 810.938C350.617 809.867 351.344 809.133 352.344 809.133C353.344 809.133 354.047 809.844 354.094 810.938H350.539ZM360.883 816.18C363.094 816.18 364.586 815.102 364.586 813.438C364.586 812.188 363.852 811.531 362.07 811.156L360.688 810.859C359.852 810.68 359.523 810.391 359.523 809.953C359.523 809.414 360.062 809.047 360.836 809.047C361.656 809.047 362.109 809.438 362.508 809.945C362.711 810.188 363.039 810.297 363.336 810.297C363.922 810.297 364.211 809.977 364.211 809.516C364.211 809.406 364.188 809.297 364.156 809.18C363.883 808.234 362.609 807.445 360.875 807.445C358.703 807.445 357.32 808.477 357.32 810.078C357.32 811.32 358.148 812.156 359.789 812.508L361.195 812.805C362.016 812.984 362.305 813.227 362.305 813.68C362.305 814.234 361.766 814.578 360.938 814.578C360.07 814.578 359.555 814.312 359.109 813.727C358.797 813.375 358.484 813.211 358.117 813.211C357.586 813.211 357.195 813.562 357.195 814.086C357.195 814.211 357.227 814.359 357.281 814.508C357.68 815.492 358.961 816.18 360.883 816.18ZM366.328 813.859C366.328 815.336 367.102 816.094 368.625 816.094H368.703C369.664 816.094 370.32 815.75 370.32 815.078C370.32 814.547 370.016 814.312 369.453 814.25L369.305 814.234C368.812 814.195 368.609 813.945 368.609 813.352V809.344H369.414C369.953 809.344 370.289 809.008 370.289 808.484C370.289 807.961 369.953 807.625 369.414 807.625H368.609V806.695C368.609 805.961 368.18 805.508 367.469 805.508C366.758 805.508 366.328 805.961 366.328 806.695V807.625H365.891C365.352 807.625 365.008 807.953 365.008 808.484C365.008 809.016 365.352 809.344 365.891 809.344H366.328V813.859ZM375.125 816.18C377.656 816.18 379.273 814.562 379.273 811.805C379.273 809.086 377.633 807.445 375.125 807.445C372.617 807.445 370.977 809.094 370.977 811.805C370.977 814.555 372.594 816.18 375.125 816.18ZM375.125 814.438C374 814.438 373.289 813.492 373.289 811.812C373.289 810.148 374.016 809.188 375.125 809.188C376.234 809.188 376.953 810.148 376.953 811.812C376.953 813.492 376.242 814.438 375.125 814.438ZM381.594 816.164C382.289 816.164 382.734 815.734 382.734 814.977V811.258C382.734 810.266 383.102 809.68 384.141 809.664C384.586 809.656 384.914 809.555 385.133 809.367C385.352 809.18 385.461 808.906 385.461 808.547C385.461 808.156 385.352 807.875 385.133 807.703C384.969 807.562 384.727 807.492 384.422 807.492C383.586 807.492 382.898 808.109 382.68 809.148H382.633V808.602C382.633 807.875 382.195 807.453 381.555 807.453C380.898 807.453 380.453 807.875 380.453 808.602V814.977C380.453 815.734 380.906 816.164 381.594 816.164ZM389.695 816.18C391.906 816.18 393.398 815.102 393.398 813.438C393.398 812.188 392.664 811.531 390.883 811.156L389.5 810.859C388.664 810.68 388.336 810.391 388.336 809.953C388.336 809.414 388.875 809.047 389.648 809.047C390.469 809.047 390.922 809.438 391.32 809.945C391.523 810.188 391.852 810.297 392.148 810.297C392.734 810.297 393.023 809.977 393.023 809.516C393.023 809.406 393 809.297 392.969 809.18C392.695 808.234 391.422 807.445 389.688 807.445C387.516 807.445 386.133 808.477 386.133 810.078C386.133 811.32 386.961 812.156 388.602 812.508L390.008 812.805C390.828 812.984 391.117 813.227 391.117 813.68C391.117 814.234 390.578 814.578 389.75 814.578C388.883 814.578 388.367 814.312 387.922 813.727C387.609 813.375 387.297 813.211 386.93 813.211C386.398 813.211 386.008 813.562 386.008 814.086C386.008 814.211 386.039 814.359 386.094 814.508C386.492 815.492 387.773 816.18 389.695 816.18Z" fill="#222222"/>
<rect x="300" y="930" width="120" height="120" rx="30" stroke="#222222" stroke-width="4" stroke-miterlimit="2.61313" stroke-linecap="round" stroke-linejoin="round" stroke-dasharray="4 12"/>
<path d="M333.797 996.148C334.461 996.148 334.844 995.742 334.844 995.047V988.391H334.906L337.695 995.219C337.891 995.703 338.219 995.93 338.719 995.93C339.211 995.93 339.523 995.711 339.727 995.211L342.516 988.391H342.578V995.047C342.578 995.742 342.961 996.148 343.625 996.148C344.289 996.148 344.68 995.742 344.68 995.047V986.094C344.68 985.133 344.117 984.57 343.164 984.57C342.336 984.57 341.875 984.922 341.531 985.789L338.742 992.719H338.68L335.883 985.789C335.539 984.914 335.086 984.57 334.266 984.57C333.305 984.57 332.742 985.141 332.742 986.094V995.047C332.742 995.742 333.133 996.148 333.797 996.148ZM347.539 986.586C348.227 986.586 348.758 986.062 348.758 985.406C348.758 984.742 348.227 984.227 347.539 984.227C346.852 984.227 346.32 984.742 346.32 985.406C346.32 986.062 346.852 986.586 347.539 986.586ZM347.539 996.164C348.242 996.164 348.68 995.719 348.68 994.977V988.648C348.68 987.906 348.242 987.453 347.539 987.453C346.828 987.453 346.398 987.906 346.398 988.648V994.977C346.398 995.719 346.828 996.164 347.539 996.164ZM353.617 996.18C355.828 996.18 357.32 995.102 357.32 993.438C357.32 992.188 356.586 991.531 354.805 991.156L353.422 990.859C352.586 990.68 352.258 990.391 352.258 989.953C352.258 989.414 352.797 989.047 353.57 989.047C354.391 989.047 354.844 989.438 355.242 989.945C355.445 990.188 355.773 990.297 356.07 990.297C356.656 990.297 356.945 989.977 356.945 989.516C356.945 989.406 356.922 989.297 356.891 989.18C356.617 988.234 355.344 987.445 353.609 987.445C351.438 987.445 350.055 988.477 350.055 990.078C350.055 991.32 350.883 992.156 352.523 992.508L353.93 992.805C354.75 992.984 355.039 993.227 355.039 993.68C355.039 994.234 354.5 994.578 353.672 994.578C352.805 994.578 352.289 994.312 351.844 993.727C351.531 993.375 351.219 993.211 350.852 993.211C350.32 993.211 349.93 993.562 349.93 994.086C349.93 994.211 349.961 994.359 350.016 994.508C350.414 995.492 351.695 996.18 353.617 996.18ZM361.867 996.18C364.078 996.18 365.57 995.102 365.57 993.438C365.57 992.188 364.836 991.531 363.055 991.156L361.672 990.859C360.836 990.68 360.508 990.391 360.508 989.953C360.508 989.414 361.047 989.047 361.82 989.047C362.641 989.047 363.094 989.438 363.492 989.945C363.695 990.188 364.023 990.297 364.32 990.297C364.906 990.297 365.195 989.977 365.195 989.516C365.195 989.406 365.172 989.297 365.141 989.18C364.867 988.234 363.594 987.445 361.859 987.445C359.688 987.445 358.305 988.477 358.305 990.078C358.305 991.32 359.133 992.156 360.773 992.508L362.18 992.805C363 992.984 363.289 993.227 363.289 993.68C363.289 994.234 362.75 994.578 361.922 994.578C361.055 994.578 360.539 994.312 360.094 993.727C359.781 993.375 359.469 993.211 359.102 993.211C358.57 993.211 358.18 993.562 358.18 994.086C358.18 994.211 358.211 994.359 358.266 994.508C358.664 995.492 359.945 996.18 361.867 996.18ZM367.883 986.586C368.57 986.586 369.102 986.062 369.102 985.406C369.102 984.742 368.57 984.227 367.883 984.227C367.195 984.227 366.664 984.742 366.664 985.406C366.664 986.062 367.195 986.586 367.883 986.586ZM367.883 996.164C368.586 996.164 369.023 995.719 369.023 994.977V988.648C369.023 987.906 368.586 987.453 367.883 987.453C367.172 987.453 366.742 987.906 366.742 988.648V994.977C366.742 995.719 367.172 996.164 367.883 996.164ZM374.391 996.18C376.922 996.18 378.539 994.562 378.539 991.805C378.539 989.086 376.898 987.445 374.391 987.445C371.883 987.445 370.242 989.094 370.242 991.805C370.242 994.555 371.859 996.18 374.391 996.18ZM374.391 994.438C373.266 994.438 372.555 993.492 372.555 991.812C372.555 990.148 373.281 989.188 374.391 989.188C375.5 989.188 376.219 990.148 376.219 991.812C376.219 993.492 375.508 994.438 374.391 994.438ZM380.859 996.164C381.531 996.164 382 995.758 382 994.977V991.195C382 990.109 382.648 989.359 383.672 989.359C384.695 989.359 385.211 989.984 385.211 991.078V994.977C385.211 995.758 385.68 996.164 386.352 996.164C387.016 996.164 387.492 995.758 387.492 994.977V990.602C387.492 988.641 386.445 987.469 384.586 987.469C383.297 987.469 382.453 988.039 382.008 989.078H381.961V988.609C381.961 987.891 381.508 987.453 380.82 987.453C380.133 987.453 379.719 987.891 379.719 988.602V994.977C379.719 995.758 380.195 996.164 380.859 996.164Z" fill="#222222"/>
<rect x="124" y="394" width="112" height="112" rx="26" fill="#F7F7F7" stroke="#222222" stroke-width="8"/>
<path d="M159.344 456.148C159.969 456.148 160.32 455.836 160.539 455.086L161.133 453.328H165.203L165.797 455.109C166.008 455.844 166.359 456.148 167.023 456.148C167.711 456.148 168.203 455.688 168.203 455.039C168.203 454.805 168.164 454.594 168.055 454.289L164.961 445.898C164.625 444.977 164.078 444.57 163.156 444.57C162.266 444.57 161.711 444.992 161.383 445.906L158.305 454.289C158.203 454.578 158.148 454.844 158.148 455.039C158.148 455.719 158.609 456.148 159.344 456.148ZM161.648 451.5L163.109 446.883H163.164L164.656 451.5H161.648ZM170.617 456.164C171.281 456.164 171.75 455.766 171.75 455.008V454.562H171.797C172.266 455.539 173.195 456.133 174.422 456.133C176.539 456.133 177.82 454.508 177.82 451.812C177.82 449.109 176.531 447.492 174.414 447.492C173.227 447.492 172.289 448.086 171.828 449.078H171.781V445.75C171.781 444.969 171.312 444.555 170.641 444.555C169.977 444.555 169.5 444.969 169.5 445.75V455.008C169.5 455.773 169.961 456.164 170.617 456.164ZM173.641 454.297C172.531 454.297 171.773 453.328 171.773 451.812C171.773 450.312 172.531 449.32 173.641 449.32C174.773 449.32 175.484 450.289 175.484 451.812C175.484 453.344 174.773 454.297 173.641 454.297ZM182.852 456.18C185.383 456.18 187 454.562 187 451.805C187 449.086 185.359 447.445 182.852 447.445C180.344 447.445 178.703 449.094 178.703 451.805C178.703 454.555 180.32 456.18 182.852 456.18ZM182.852 454.438C181.727 454.438 181.016 453.492 181.016 451.812C181.016 450.148 181.742 449.188 182.852 449.188C183.961 449.188 184.68 450.148 184.68 451.812C184.68 453.492 183.969 454.438 182.852 454.438ZM191.156 456.156C192.422 456.156 193.25 455.547 193.664 454.492H193.711V455.008C193.711 455.766 194.156 456.164 194.812 456.164C195.469 456.164 195.914 455.766 195.914 455.008V448.648C195.914 447.867 195.445 447.453 194.773 447.453C194.109 447.453 193.633 447.867 193.633 448.648V452.422C193.633 453.531 193 454.258 191.984 454.258C190.977 454.258 190.422 453.664 190.422 452.547V448.648C190.422 447.867 189.953 447.453 189.281 447.453C188.617 447.453 188.141 447.867 188.141 448.648V453.023C188.141 454.977 189.344 456.156 191.156 456.156ZM198.008 453.859C198.008 455.336 198.781 456.094 200.305 456.094H200.383C201.344 456.094 202 455.75 202 455.078C202 454.547 201.695 454.312 201.133 454.25L200.984 454.234C200.492 454.195 200.289 453.945 200.289 453.352V449.344H201.094C201.633 449.344 201.969 449.008 201.969 448.484C201.969 447.961 201.633 447.625 201.094 447.625H200.289V446.695C200.289 445.961 199.859 445.508 199.148 445.508C198.438 445.508 198.008 445.961 198.008 446.695V447.625H197.57C197.031 447.625 196.688 447.953 196.688 448.484C196.688 449.016 197.031 449.344 197.57 449.344H198.008V453.859Z" fill="#222222"/>
<path d="M269 810L223 810C198.699 810 179 790.301 179 766L179 540" stroke="#222222" stroke-width="4" stroke-linecap="round" stroke-linejoin="round"/>
<path d="M263 820L273.156 811.536C274.116 810.737 274.116 809.263 273.156 808.464L263 800" stroke="#222222" stroke-width="4" stroke-linecap="round" stroke-linejoin="round"/>
<line x1="266" y1="810" x2="272" y2="811" stroke="#222222" stroke-width="4" stroke-linecap="round" stroke-linejoin="round"/>
<path d="M269 990L223 990C198.699 990 179 970.301 179 946L179 540" stroke="#222222" stroke-width="4" stroke-linecap="round" stroke-linejoin="round"/>
<path d="M263 1000L273.156 991.536C274.116 990.737 274.116 989.263 273.156 988.464L263 980" stroke="#222222" stroke-width="4" stroke-linecap="round" stroke-linejoin="round"/>
<line x1="266" y1="990" x2="272" y2="991" stroke="#222222" stroke-width="4" stroke-linecap="round" stroke-linejoin="round"/>
<path d="M269 630L223 630C198.699 630 179 610.301 179 586L179 540" stroke="#222222" stroke-width="4" stroke-linecap="round" stroke-linejoin="round"/>
<path d="M263 640L273.156 631.536C274.116 630.737 274.116 629.263 273.156 628.464L263 620" stroke="#222222" stroke-width="4" stroke-linecap="round" stroke-linejoin="round"/>
<line x1="266" y1="630" x2="272" y2="631" stroke="#222222" stroke-width="4" stroke-linecap="round" stroke-linejoin="round"/>
<path fill-rule="evenodd" clip-rule="evenodd" d="M171 540C171 544.418 174.582 548 179 548C183.418 548 187 544.418 187 540C187 535.582 183.418 532 179 532C174.582 532 171 535.582 171 540Z" fill="white" stroke="#222222" stroke-width="4" stroke-linecap="round" stroke-linejoin="round"/>
<path d="M719 810L673 810C648.699 810 629 790.301 629 766L629 540" stroke="#222222" stroke-width="4" stroke-linecap="round" stroke-linejoin="round"/>
<path d="M713 820L723.156 811.536C724.116 810.737 724.116 809.263 723.156 808.464L713 800" stroke="#222222" stroke-width="4" stroke-linecap="round" stroke-linejoin="round"/>
<line x1="716" y1="810" x2="722" y2="811" stroke="#222222" stroke-width="4" stroke-linecap="round" stroke-linejoin="round"/>
<path d="M719 990L673 990C648.699 990 629 970.301 629 946L629 540" stroke="#222222" stroke-width="4" stroke-linecap="round" stroke-linejoin="round"/>
<path d="M713 1000L723.156 991.536C724.116 990.737 724.116 989.263 723.156 988.464L713 980" stroke="#222222" stroke-width="4" stroke-linecap="round" stroke-linejoin="round"/>
<line x1="716" y1="990" x2="722" y2="991" stroke="#222222" stroke-width="4" stroke-linecap="round" stroke-linejoin="round"/>
<path d="M719 630L673 630C648.699 630 629 610.301 629 586L629 540" stroke="#222222" stroke-width="4" stroke-linecap="round" stroke-linejoin="round"/>
<path d="M713 640L723.156 631.536C724.116 630.737 724.116 629.263 723.156 628.464L713 620" stroke="#222222" stroke-width="4" stroke-linecap="round" stroke-linejoin="round"/>
<line x1="716" y1="630" x2="722" y2="631" stroke="#222222" stroke-width="4" stroke-linecap="round" stroke-linejoin="round"/>
<path fill-rule="evenodd" clip-rule="evenodd" d="M621 540C621 544.418 624.582 548 629 548C633.418 548 637 544.418 637 540C637 535.582 633.418 532 629 532C624.582 532 621 535.582 621 540Z" fill="white" stroke="#222222" stroke-width="4" stroke-linecap="round" stroke-linejoin="round"/>
<path d="M1169 810L1123 810C1098.7 810 1079 790.301 1079 766L1079 540" stroke="#222222" stroke-width="4" stroke-linecap="round" stroke-linejoin="round"/>
<path d="M1163 820L1173.16 811.536C1174.12 810.737 1174.12 809.263 1173.16 808.464L1163 800" stroke="#222222" stroke-width="4" stroke-linecap="round" stroke-linejoin="round"/>
<line x1="1166" y1="810" x2="1172" y2="811" stroke="#222222" stroke-width="4" stroke-linecap="round" stroke-linejoin="round"/>
<path d="M1169 990L1123 990C1098.7 990 1079 970.301 1079 946L1079 540" stroke="#222222" stroke-width="4" stroke-linecap="round" stroke-linejoin="round"/>
<path d="M1163 1000L1173.16 991.536C1174.12 990.737 1174.12 989.263 1173.16 988.464L1163 980" stroke="#222222" stroke-width="4" stroke-linecap="round" stroke-linejoin="round"/>
<line x1="1166" y1="990" x2="1172" y2="991" stroke="#222222" stroke-width="4" stroke-linecap="round" stroke-linejoin="round"/>
<path d="M1169 630L1123 630C1098.7 630 1079 610.301 1079 586L1079 540" stroke="#222222" stroke-width="4" stroke-linecap="round" stroke-linejoin="round"/>
<path d="M1163 640L1173.16 631.536C1174.12 630.737 1174.12 629.263 1173.16 628.464L1163 620" stroke="#222222" stroke-width="4" stroke-linecap="round" stroke-linejoin="round"/>
<line x1="1166" y1="630" x2="1172" y2="631" stroke="#222222" stroke-width="4" stroke-linecap="round" stroke-linejoin="round"/>
<path fill-rule="evenodd" clip-rule="evenodd" d="M1071 540C1071 544.418 1074.58 548 1079 548C1083.42 548 1087 544.418 1087 540C1087 535.582 1083.42 532 1079 532C1074.58 532 1071 535.582 1071 540Z" fill="white" stroke="#222222" stroke-width="4" stroke-linecap="round" stroke-linejoin="round"/>
<rect x="750" y="570" width="120" height="120" rx="30" stroke="#222222" stroke-width="4" stroke-miterlimit="2.61313" stroke-linecap="round" stroke-linejoin="round" stroke-dasharray="4 12"/>
<path d="M786.664 636H789.789C793.172 636 795.164 633.898 795.164 630.32C795.164 626.742 793.172 624.727 789.789 624.727H786.664C785.922 624.727 785.484 625.18 785.484 625.953V634.766C785.484 635.547 785.922 636 786.664 636ZM787.844 634.047V626.672H789.508C791.586 626.672 792.758 627.969 792.758 630.328C792.758 632.766 791.617 634.047 789.508 634.047H787.844ZM800.344 636.18C801.961 636.18 803.258 635.57 803.812 634.539C803.914 634.352 803.969 634.164 803.969 633.984C803.969 633.461 803.57 633.148 803.078 633.148C802.781 633.148 802.578 633.234 802.336 633.484C801.719 634.211 801.172 634.492 800.336 634.492C799.18 634.492 798.43 633.68 798.43 632.438V632.336H803.211C803.844 632.336 804.203 631.977 804.203 631.344C804.203 629.07 802.609 627.445 800.234 627.445C797.758 627.445 796.188 629.156 796.188 631.852C796.188 634.562 797.727 636.18 800.344 636.18ZM798.453 630.938C798.531 629.867 799.258 629.133 800.258 629.133C801.258 629.133 801.961 629.844 802.008 630.938H798.453ZM808.797 636.18C811.008 636.18 812.5 635.102 812.5 633.438C812.5 632.188 811.766 631.531 809.984 631.156L808.602 630.859C807.766 630.68 807.438 630.391 807.438 629.953C807.438 629.414 807.977 629.047 808.75 629.047C809.57 629.047 810.023 629.438 810.422 629.945C810.625 630.188 810.953 630.297 811.25 630.297C811.836 630.297 812.125 629.977 812.125 629.516C812.125 629.406 812.102 629.297 812.07 629.18C811.797 628.234 810.523 627.445 808.789 627.445C806.617 627.445 805.234 628.477 805.234 630.078C805.234 631.32 806.062 632.156 807.703 632.508L809.109 632.805C809.93 632.984 810.219 633.227 810.219 633.68C810.219 634.234 809.68 634.578 808.852 634.578C807.984 634.578 807.469 634.312 807.023 633.727C806.711 633.375 806.398 633.211 806.031 633.211C805.5 633.211 805.109 633.562 805.109 634.086C805.109 634.211 805.141 634.359 805.195 634.508C805.594 635.492 806.875 636.18 808.797 636.18ZM814.812 626.586C815.5 626.586 816.031 626.062 816.031 625.406C816.031 624.742 815.5 624.227 814.812 624.227C814.125 624.227 813.594 624.742 813.594 625.406C813.594 626.062 814.125 626.586 814.812 626.586ZM814.812 636.164C815.516 636.164 815.953 635.719 815.953 634.977V628.648C815.953 627.906 815.516 627.453 814.812 627.453C814.102 627.453 813.672 627.906 813.672 628.648V634.977C813.672 635.719 814.102 636.164 814.812 636.164ZM821.219 639.148C823.914 639.164 825.492 637.852 825.492 635.672V628.609C825.492 627.836 825.016 627.453 824.359 627.453C823.703 627.453 823.211 627.836 823.211 628.609V629.07H823.164C822.727 628.125 821.812 627.492 820.609 627.492C818.453 627.492 817.172 629.047 817.172 631.672C817.172 634.227 818.484 635.82 820.57 635.82C821.781 635.82 822.758 635.219 823.148 634.32H823.195V635.656C823.195 636.703 822.461 637.391 821.211 637.383C820.453 637.375 819.859 637.055 819.242 636.469C818.984 636.234 818.75 636.141 818.453 636.141C817.883 636.141 817.523 636.5 817.523 636.977C817.523 637.188 817.57 637.398 817.695 637.609C818.234 638.492 819.508 639.141 821.219 639.148ZM821.344 634.125C820.211 634.125 819.508 633.227 819.508 631.695C819.508 630.18 820.219 629.227 821.344 629.227C822.484 629.227 823.219 630.195 823.219 631.703C823.219 633.219 822.484 634.125 821.344 634.125ZM828.117 636.164C828.789 636.164 829.258 635.758 829.258 634.977V631.195C829.258 630.109 829.906 629.359 830.93 629.359C831.953 629.359 832.469 629.984 832.469 631.078V634.977C832.469 635.758 832.938 636.164 833.609 636.164C834.273 636.164 834.75 635.758 834.75 634.977V630.602C834.75 628.641 833.703 627.469 831.844 627.469C830.555 627.469 829.711 628.039 829.266 629.078H829.219V628.609C829.219 627.891 828.766 627.453 828.078 627.453C827.391 627.453 826.977 627.891 826.977 628.602V634.977C826.977 635.758 827.453 636.164 828.117 636.164Z" fill="#222222"/>
<rect x="750" y="750" width="120" height="120" rx="30" stroke="#222222" stroke-width="4" stroke-miterlimit="2.61313" stroke-linecap="round" stroke-linejoin="round" stroke-dasharray="4 12"/>
<path d="M778.766 806H781.891C785.273 806 787.266 803.898 787.266 800.32C787.266 796.742 785.273 794.727 781.891 794.727H778.766C778.023 794.727 777.586 795.18 777.586 795.953V804.766C777.586 805.547 778.023 806 778.766 806ZM779.945 804.047V796.672H781.609C783.688 796.672 784.859 797.969 784.859 800.328C784.859 802.766 783.719 804.047 781.609 804.047H779.945ZM792.445 806.18C794.062 806.18 795.359 805.57 795.914 804.539C796.016 804.352 796.07 804.164 796.07 803.984C796.07 803.461 795.672 803.148 795.18 803.148C794.883 803.148 794.68 803.234 794.438 803.484C793.82 804.211 793.273 804.492 792.438 804.492C791.281 804.492 790.531 803.68 790.531 802.438V802.336H795.312C795.945 802.336 796.305 801.977 796.305 801.344C796.305 799.07 794.711 797.445 792.336 797.445C789.859 797.445 788.289 799.156 788.289 801.852C788.289 804.562 789.828 806.18 792.445 806.18ZM790.555 800.938C790.633 799.867 791.359 799.133 792.359 799.133C793.359 799.133 794.062 799.844 794.109 800.938H790.555ZM800.875 806.164C801.703 806.164 802.18 805.805 802.469 805L804.648 799.109C804.719 798.914 804.773 798.68 804.773 798.469C804.773 797.891 804.297 797.453 803.664 797.453C803.133 797.453 802.75 797.742 802.594 798.344L800.898 803.984H800.852L799.156 798.367C798.984 797.75 798.617 797.453 798.062 797.453C797.414 797.453 796.922 797.859 796.922 798.477C796.922 798.711 796.977 798.953 797.047 799.156L799.227 805C799.531 805.812 800 806.164 800.875 806.164ZM809.43 806.18C811.047 806.18 812.344 805.57 812.898 804.539C813 804.352 813.055 804.164 813.055 803.984C813.055 803.461 812.656 803.148 812.164 803.148C811.867 803.148 811.664 803.234 811.422 803.484C810.805 804.211 810.258 804.492 809.422 804.492C808.266 804.492 807.516 803.68 807.516 802.438V802.336H812.297C812.93 802.336 813.289 801.977 813.289 801.344C813.289 799.07 811.695 797.445 809.32 797.445C806.844 797.445 805.273 799.156 805.273 801.852C805.273 804.562 806.812 806.18 809.43 806.18ZM807.539 800.938C807.617 799.867 808.344 799.133 809.344 799.133C810.344 799.133 811.047 799.844 811.094 800.938H807.539ZM815.664 806.164C816.336 806.164 816.805 805.758 816.805 804.977V795.75C816.805 794.969 816.336 794.555 815.664 794.555C815 794.555 814.523 794.969 814.523 795.75V804.977C814.523 805.758 815 806.164 815.664 806.164ZM822.188 806.18C824.719 806.18 826.336 804.562 826.336 801.805C826.336 799.086 824.695 797.445 822.188 797.445C819.68 797.445 818.039 799.094 818.039 801.805C818.039 804.555 819.656 806.18 822.188 806.18ZM822.188 804.438C821.062 804.438 820.352 803.492 820.352 801.812C820.352 800.148 821.078 799.188 822.188 799.188C823.297 799.188 824.016 800.148 824.016 801.812C824.016 803.492 823.305 804.438 822.188 804.438ZM828.656 808.984C829.328 808.984 829.797 808.578 829.797 807.797V804.594H829.844C830.289 805.539 831.227 806.133 832.445 806.133C834.539 806.133 835.836 804.508 835.836 801.812C835.836 799.109 834.531 797.492 832.406 797.492C831.195 797.492 830.266 798.102 829.812 799.086H829.766V798.633C829.766 797.859 829.297 797.453 828.641 797.453C827.984 797.453 827.516 797.859 827.516 798.625V807.797C827.516 808.578 827.992 808.984 828.656 808.984ZM831.641 804.297C830.523 804.297 829.789 803.328 829.789 801.812C829.789 800.312 830.523 799.32 831.641 799.32C832.781 799.32 833.5 800.297 833.5 801.812C833.5 803.336 832.781 804.297 831.641 804.297ZM838.18 802.414H841.438C842.055 802.414 842.516 802.047 842.516 801.414C842.516 800.781 842.055 800.422 841.438 800.422H838.18C837.562 800.422 837.102 800.781 837.102 801.414C837.102 802.047 837.562 802.414 838.18 802.414ZM793.078 826.164C793.75 826.164 794.219 825.75 794.219 824.977V820.945C794.219 820.008 794.805 819.352 795.672 819.352C796.516 819.352 797.023 819.883 797.023 820.781V824.977C797.023 825.75 797.445 826.164 798.117 826.164C798.797 826.164 799.219 825.75 799.219 824.977V820.914C799.219 819.984 799.789 819.352 800.656 819.352C801.539 819.352 802.023 819.883 802.023 820.852V824.977C802.023 825.75 802.484 826.164 803.156 826.164C803.836 826.164 804.305 825.75 804.305 824.977V820.281C804.305 818.594 803.203 817.469 801.562 817.469C800.336 817.469 799.336 818.133 798.961 819.188H798.914C798.633 818.094 797.789 817.469 796.578 817.469C795.438 817.469 794.539 818.133 794.188 819.141H794.141V818.617C794.141 817.852 793.688 817.453 793.039 817.453C792.391 817.453 791.938 817.852 791.938 818.617V824.977C791.938 825.75 792.398 826.164 793.078 826.164ZM809.602 826.18C811.219 826.18 812.516 825.57 813.07 824.539C813.172 824.352 813.227 824.164 813.227 823.984C813.227 823.461 812.828 823.148 812.336 823.148C812.039 823.148 811.836 823.234 811.594 823.484C810.977 824.211 810.43 824.492 809.594 824.492C808.438 824.492 807.688 823.68 807.688 822.438V822.336H812.469C813.102 822.336 813.461 821.977 813.461 821.344C813.461 819.07 811.867 817.445 809.492 817.445C807.016 817.445 805.445 819.156 805.445 821.852C805.445 824.562 806.984 826.18 809.602 826.18ZM807.711 820.938C807.789 819.867 808.516 819.133 809.516 819.133C810.516 819.133 811.219 819.844 811.266 820.938H807.711ZM815.781 826.164C816.453 826.164 816.922 825.758 816.922 824.977V821.195C816.922 820.109 817.57 819.359 818.594 819.359C819.617 819.359 820.133 819.984 820.133 821.078V824.977C820.133 825.758 820.602 826.164 821.273 826.164C821.938 826.164 822.414 825.758 822.414 824.977V820.602C822.414 818.641 821.367 817.469 819.508 817.469C818.219 817.469 817.375 818.039 816.93 819.078H816.883V818.609C816.883 817.891 816.43 817.453 815.742 817.453C815.055 817.453 814.641 817.891 814.641 818.602V824.977C814.641 825.758 815.117 826.164 815.781 826.164ZM824.469 823.859C824.469 825.336 825.242 826.094 826.766 826.094H826.844C827.805 826.094 828.461 825.75 828.461 825.078C828.461 824.547 828.156 824.312 827.594 824.25L827.445 824.234C826.953 824.195 826.75 823.945 826.75 823.352V819.344H827.555C828.094 819.344 828.43 819.008 828.43 818.484C828.43 817.961 828.094 817.625 827.555 817.625H826.75V816.695C826.75 815.961 826.32 815.508 825.609 815.508C824.898 815.508 824.469 815.961 824.469 816.695V817.625H824.031C823.492 817.625 823.148 817.953 823.148 818.484C823.148 819.016 823.492 819.344 824.031 819.344H824.469V823.859Z" fill="#222222"/>
<rect x="750" y="930" width="120" height="120" rx="30" stroke="#222222" stroke-width="4" stroke-miterlimit="2.61313" stroke-linecap="round" stroke-linejoin="round" stroke-dasharray="4 12"/>
<path d="M779.148 996H782.961C785.367 996 786.859 994.758 786.859 992.773C786.859 991.281 785.734 990.164 784.203 990.047V989.984C785.398 989.805 786.32 988.773 786.32 987.539C786.32 985.812 784.992 984.727 782.875 984.727H779.148C778.406 984.727 777.969 985.18 777.969 985.953V994.766C777.969 995.547 778.406 996 779.148 996ZM780.328 989.414V986.484H782.266C783.367 986.484 784 987 784 987.906C784 988.859 783.281 989.414 782.023 989.414H780.328ZM780.328 994.242V990.969H782.305C783.695 990.969 784.453 991.531 784.453 992.586C784.453 993.664 783.719 994.242 782.359 994.242H780.328ZM789.148 996.164C789.844 996.164 790.289 995.734 790.289 994.977V991.258C790.289 990.266 790.656 989.68 791.695 989.664C792.141 989.656 792.469 989.555 792.688 989.367C792.906 989.18 793.016 988.906 793.016 988.547C793.016 988.156 792.906 987.875 792.688 987.703C792.523 987.562 792.281 987.492 791.977 987.492C791.141 987.492 790.453 988.109 790.234 989.148H790.188V988.602C790.188 987.875 789.75 987.453 789.109 987.453C788.453 987.453 788.008 987.875 788.008 988.602V994.977C788.008 995.734 788.461 996.164 789.148 996.164ZM796.109 996.133C797.156 996.133 798.203 995.609 798.672 994.719H798.719V995.148C798.766 995.82 799.195 996.164 799.812 996.164C800.461 996.164 800.922 995.773 800.922 995.016V990.242C800.922 988.555 799.523 987.445 797.375 987.445C795.641 987.445 794.297 988.062 793.906 989.062C793.828 989.234 793.789 989.398 793.789 989.578C793.789 990.094 794.188 990.453 794.742 990.453C795.109 990.453 795.398 990.312 795.648 990.031C796.156 989.375 796.578 989.148 797.273 989.148C798.133 989.148 798.68 989.602 798.68 990.383V990.938L796.57 991.062C794.477 991.188 793.305 992.07 793.305 993.594C793.305 995.102 794.516 996.133 796.109 996.133ZM796.859 994.484C796.094 994.484 795.578 994.094 795.578 993.469C795.578 992.875 796.062 992.492 796.914 992.43L798.68 992.32V992.93C798.68 993.836 797.859 994.484 796.859 994.484ZM803.539 996.164C804.211 996.164 804.68 995.758 804.68 994.977V991.195C804.68 990.109 805.328 989.359 806.352 989.359C807.375 989.359 807.891 989.984 807.891 991.078V994.977C807.891 995.758 808.359 996.164 809.031 996.164C809.695 996.164 810.172 995.758 810.172 994.977V990.602C810.172 988.641 809.125 987.469 807.266 987.469C805.977 987.469 805.133 988.039 804.688 989.078H804.641V988.609C804.641 987.891 804.188 987.453 803.5 987.453C802.812 987.453 802.398 987.891 802.398 988.602V994.977C802.398 995.758 802.875 996.164 803.539 996.164ZM814.727 996.133C816.016 996.133 816.938 995.461 817.305 994.523H817.344V995.008C817.344 995.773 817.836 996.164 818.492 996.164C819.156 996.164 819.625 995.766 819.625 995.008V985.75C819.625 984.969 819.156 984.555 818.484 984.555C817.82 984.555 817.344 984.969 817.344 985.75V989.062H817.297C816.891 988.133 815.953 987.492 814.742 987.492C812.641 987.492 811.312 989.141 811.312 991.797C811.312 994.477 812.633 996.133 814.727 996.133ZM815.5 994.297C814.352 994.297 813.648 993.352 813.648 991.812C813.648 990.281 814.352 989.32 815.5 989.32C816.633 989.32 817.359 990.289 817.359 991.812C817.359 993.344 816.633 994.297 815.5 994.297ZM822.328 986.586C823.016 986.586 823.547 986.062 823.547 985.406C823.547 984.742 823.016 984.227 822.328 984.227C821.641 984.227 821.109 984.742 821.109 985.406C821.109 986.062 821.641 986.586 822.328 986.586ZM822.328 996.164C823.031 996.164 823.469 995.719 823.469 994.977V988.648C823.469 987.906 823.031 987.453 822.328 987.453C821.617 987.453 821.188 987.906 821.188 988.648V994.977C821.188 995.719 821.617 996.164 822.328 996.164ZM826.133 996.164C826.805 996.164 827.273 995.758 827.273 994.977V991.195C827.273 990.109 827.922 989.359 828.945 989.359C829.969 989.359 830.484 989.984 830.484 991.078V994.977C830.484 995.758 830.953 996.164 831.625 996.164C832.289 996.164 832.766 995.758 832.766 994.977V990.602C832.766 988.641 831.719 987.469 829.859 987.469C828.57 987.469 827.727 988.039 827.281 989.078H827.234V988.609C827.234 987.891 826.781 987.453 826.094 987.453C825.406 987.453 824.992 987.891 824.992 988.602V994.977C824.992 995.758 825.469 996.164 826.133 996.164ZM837.953 999.148C840.648 999.164 842.227 997.852 842.227 995.672V988.609C842.227 987.836 841.75 987.453 841.094 987.453C840.438 987.453 839.945 987.836 839.945 988.609V989.07H839.898C839.461 988.125 838.547 987.492 837.344 987.492C835.188 987.492 833.906 989.047 833.906 991.672C833.906 994.227 835.219 995.82 837.305 995.82C838.516 995.82 839.492 995.219 839.883 994.32H839.93V995.656C839.93 996.703 839.195 997.391 837.945 997.383C837.188 997.375 836.594 997.055 835.977 996.469C835.719 996.234 835.484 996.141 835.188 996.141C834.617 996.141 834.258 996.5 834.258 996.977C834.258 997.188 834.305 997.398 834.43 997.609C834.969 998.492 836.242 999.141 837.953 999.148ZM838.078 994.125C836.945 994.125 836.242 993.227 836.242 991.695C836.242 990.18 836.953 989.227 838.078 989.227C839.219 989.227 839.953 990.195 839.953 991.703C839.953 993.219 839.219 994.125 838.078 994.125Z" fill="#222222"/>
<rect x="1200" y="570" width="120" height="120" rx="30" stroke="#222222" stroke-width="4" stroke-miterlimit="2.61313" stroke-linecap="round" stroke-linejoin="round" stroke-dasharray="4 12"/>
<path d="M1251.03 626.148C1251.73 626.148 1252.16 625.719 1252.16 624.969V618.617H1252.23L1257.12 625.469C1257.48 625.969 1257.79 626.148 1258.3 626.148C1259.04 626.148 1259.45 625.734 1259.45 625V615.758C1259.45 615 1259.04 614.57 1258.33 614.57C1257.62 614.57 1257.2 615 1257.2 615.758V622.07H1257.13L1252.26 615.258C1251.9 614.766 1251.57 614.57 1251.09 614.57C1250.34 614.57 1249.9 615 1249.9 615.75V624.969C1249.9 625.719 1250.32 626.148 1251.03 626.148ZM1265.72 626.148C1266.46 626.148 1266.9 625.695 1266.9 624.922V621.789L1270.34 616.469C1270.51 616.195 1270.59 615.938 1270.59 615.664C1270.59 615.039 1270.09 614.57 1269.42 614.57C1268.95 614.57 1268.65 614.781 1268.35 615.297L1265.77 619.539H1265.71L1263.13 615.297C1262.82 614.758 1262.55 614.57 1262.04 614.57C1261.36 614.57 1260.86 615.039 1260.86 615.68C1260.86 615.945 1260.93 616.211 1261.1 616.477L1264.54 621.789V624.922C1264.54 625.695 1264.98 626.148 1265.72 626.148ZM1243.57 646.188C1246.91 646.188 1249.01 643.953 1249.01 640.367C1249.01 636.773 1246.91 634.531 1243.57 634.531C1240.23 634.531 1238.13 636.773 1238.13 640.367C1238.13 643.953 1240.23 646.188 1243.57 646.188ZM1243.57 644.219C1241.72 644.219 1240.54 642.727 1240.54 640.367C1240.54 638 1241.73 636.5 1243.57 636.5C1245.41 636.5 1246.59 638 1246.59 640.367C1246.59 642.727 1245.41 644.219 1243.57 644.219ZM1252.09 646.164C1252.76 646.164 1253.23 645.766 1253.23 644.977V639.344H1254.13C1254.61 639.344 1254.97 639.039 1254.97 638.5C1254.97 637.969 1254.61 637.664 1254.13 637.664H1253.17V637.133C1253.17 636.516 1253.45 636.234 1254.16 636.211C1254.33 636.203 1254.47 636.18 1254.59 636.148C1254.9 636.055 1255.05 635.867 1255.05 635.547C1255.05 635.008 1254.55 634.625 1253.34 634.625C1251.76 634.641 1250.95 635.375 1250.95 637.031V637.664H1250.51C1250.03 637.664 1249.67 637.969 1249.67 638.5C1249.67 639.039 1250.03 639.344 1250.51 639.344H1250.95V644.977C1250.95 645.766 1251.41 646.164 1252.09 646.164ZM1257.79 646.164C1258.46 646.164 1258.93 645.766 1258.93 644.977V639.344H1259.84C1260.31 639.344 1260.67 639.039 1260.67 638.5C1260.67 637.969 1260.31 637.664 1259.84 637.664H1258.88V637.133C1258.88 636.516 1259.16 636.234 1259.86 636.211C1260.03 636.203 1260.17 636.18 1260.3 636.148C1260.6 636.055 1260.76 635.867 1260.76 635.547C1260.76 635.008 1260.25 634.625 1259.04 634.625C1257.46 634.641 1256.65 635.375 1256.65 637.031V637.664H1256.21C1255.73 637.664 1255.38 637.969 1255.38 638.5C1255.38 639.039 1255.73 639.344 1256.21 639.344H1256.65V644.977C1256.65 645.766 1257.11 646.164 1257.79 646.164ZM1262.92 636.586C1263.61 636.586 1264.14 636.062 1264.14 635.406C1264.14 634.742 1263.61 634.227 1262.92 634.227C1262.23 634.227 1261.7 634.742 1261.7 635.406C1261.7 636.062 1262.23 636.586 1262.92 636.586ZM1262.92 646.164C1263.62 646.164 1264.06 645.719 1264.06 644.977V638.648C1264.06 637.906 1263.62 637.453 1262.92 637.453C1262.21 637.453 1261.78 637.906 1261.78 638.648V644.977C1261.78 645.719 1262.21 646.164 1262.92 646.164ZM1269.41 646.18C1271.01 646.18 1272.44 645.383 1272.94 644.242C1273.04 644.016 1273.09 643.828 1273.09 643.648C1273.09 643.086 1272.66 642.734 1272.12 642.734C1271.64 642.734 1271.39 642.93 1271.09 643.406C1270.73 644 1270.24 644.391 1269.45 644.391C1268.3 644.391 1267.59 643.453 1267.59 641.805C1267.59 640.188 1268.3 639.234 1269.46 639.234C1270.19 639.234 1270.7 639.57 1271.11 640.305C1271.34 640.719 1271.62 640.898 1272.07 640.898C1272.61 640.898 1273.05 640.57 1273.05 640.008C1273.05 639.844 1273 639.641 1272.92 639.445C1272.47 638.258 1271.07 637.445 1269.39 637.445C1266.88 637.445 1265.28 639.133 1265.28 641.812C1265.28 644.523 1266.88 646.18 1269.41 646.18ZM1278.16 646.18C1279.77 646.18 1281.07 645.57 1281.62 644.539C1281.73 644.352 1281.78 644.164 1281.78 643.984C1281.78 643.461 1281.38 643.148 1280.89 643.148C1280.59 643.148 1280.39 643.234 1280.15 643.484C1279.53 644.211 1278.98 644.492 1278.15 644.492C1276.99 644.492 1276.24 643.68 1276.24 642.438V642.336H1281.02C1281.66 642.336 1282.02 641.977 1282.02 641.344C1282.02 639.07 1280.42 637.445 1278.05 637.445C1275.57 637.445 1274 639.156 1274 641.852C1274 644.562 1275.54 646.18 1278.16 646.18ZM1276.27 640.938C1276.34 639.867 1277.07 639.133 1278.07 639.133C1279.07 639.133 1279.77 639.844 1279.82 640.938H1276.27Z" fill="#222222"/>
<rect x="1200" y="750" width="120" height="120" rx="30" stroke="#222222" stroke-width="4" stroke-miterlimit="2.61313" stroke-linecap="round" stroke-linejoin="round" stroke-dasharray="4 12"/>
<path d="M1255.62 806.188C1258.43 806.188 1260.16 804.797 1260.16 802.594C1260.16 800.883 1259.12 799.922 1256.73 799.445L1255.55 799.203C1254.21 798.938 1253.67 798.508 1253.67 797.812C1253.67 796.984 1254.45 796.438 1255.61 796.438C1256.58 796.438 1257.3 796.789 1257.68 797.641C1257.95 798.125 1258.27 798.336 1258.8 798.336C1259.41 798.336 1259.81 797.953 1259.81 797.391C1259.81 797.188 1259.78 797.023 1259.73 796.867C1259.23 795.398 1257.67 794.531 1255.61 794.531C1253.1 794.531 1251.3 795.898 1251.3 797.961C1251.3 799.641 1252.41 800.719 1254.66 801.164L1255.85 801.398C1257.27 801.688 1257.8 802.109 1257.8 802.852C1257.8 803.68 1256.94 804.289 1255.67 804.289C1254.59 804.289 1253.71 803.898 1253.34 803.039C1253.06 802.539 1252.74 802.352 1252.26 802.352C1251.65 802.352 1251.22 802.766 1251.22 803.391C1251.22 803.602 1251.27 803.82 1251.34 804.023C1251.8 805.258 1253.29 806.188 1255.62 806.188ZM1262.78 806.148C1263.52 806.148 1263.96 805.695 1263.96 804.922V801.562H1267.67C1268.29 801.562 1268.68 801.211 1268.68 800.625C1268.68 800.047 1268.28 799.695 1267.67 799.695H1263.96V796.68H1268.05C1268.7 796.68 1269.12 796.312 1269.12 795.703C1269.12 795.094 1268.7 794.727 1268.05 794.727H1262.78C1262.04 794.727 1261.6 795.18 1261.6 795.953V804.922C1261.6 805.695 1262.04 806.148 1262.78 806.148ZM1243.57 826.188C1246.91 826.188 1249.01 823.953 1249.01 820.367C1249.01 816.773 1246.91 814.531 1243.57 814.531C1240.23 814.531 1238.13 816.773 1238.13 820.367C1238.13 823.953 1240.23 826.188 1243.57 826.188ZM1243.57 824.219C1241.72 824.219 1240.54 822.727 1240.54 820.367C1240.54 818 1241.73 816.5 1243.57 816.5C1245.41 816.5 1246.59 818 1246.59 820.367C1246.59 822.727 1245.41 824.219 1243.57 824.219ZM1252.09 826.164C1252.76 826.164 1253.23 825.766 1253.23 824.977V819.344H1254.13C1254.61 819.344 1254.97 819.039 1254.97 818.5C1254.97 817.969 1254.61 817.664 1254.13 817.664H1253.17V817.133C1253.17 816.516 1253.45 816.234 1254.16 816.211C1254.33 816.203 1254.47 816.18 1254.59 816.148C1254.9 816.055 1255.05 815.867 1255.05 815.547C1255.05 815.008 1254.55 814.625 1253.34 814.625C1251.76 814.641 1250.95 815.375 1250.95 817.031V817.664H1250.51C1250.03 817.664 1249.67 817.969 1249.67 818.5C1249.67 819.039 1250.03 819.344 1250.51 819.344H1250.95V824.977C1250.95 825.766 1251.41 826.164 1252.09 826.164ZM1257.79 826.164C1258.46 826.164 1258.93 825.766 1258.93 824.977V819.344H1259.84C1260.31 819.344 1260.67 819.039 1260.67 818.5C1260.67 817.969 1260.31 817.664 1259.84 817.664H1258.88V817.133C1258.88 816.516 1259.16 816.234 1259.86 816.211C1260.03 816.203 1260.17 816.18 1260.3 816.148C1260.6 816.055 1260.76 815.867 1260.76 815.547C1260.76 815.008 1260.25 814.625 1259.04 814.625C1257.46 814.641 1256.65 815.375 1256.65 817.031V817.664H1256.21C1255.73 817.664 1255.38 817.969 1255.38 818.5C1255.38 819.039 1255.73 819.344 1256.21 819.344H1256.65V824.977C1256.65 825.766 1257.11 826.164 1257.79 826.164ZM1262.92 816.586C1263.61 816.586 1264.14 816.062 1264.14 815.406C1264.14 814.742 1263.61 814.227 1262.92 814.227C1262.23 814.227 1261.7 814.742 1261.7 815.406C1261.7 816.062 1262.23 816.586 1262.92 816.586ZM1262.92 826.164C1263.62 826.164 1264.06 825.719 1264.06 824.977V818.648C1264.06 817.906 1263.62 817.453 1262.92 817.453C1262.21 817.453 1261.78 817.906 1261.78 818.648V824.977C1261.78 825.719 1262.21 826.164 1262.92 826.164ZM1269.41 826.18C1271.01 826.18 1272.44 825.383 1272.94 824.242C1273.04 824.016 1273.09 823.828 1273.09 823.648C1273.09 823.086 1272.66 822.734 1272.12 822.734C1271.64 822.734 1271.39 822.93 1271.09 823.406C1270.73 824 1270.24 824.391 1269.45 824.391C1268.3 824.391 1267.59 823.453 1267.59 821.805C1267.59 820.188 1268.3 819.234 1269.46 819.234C1270.19 819.234 1270.7 819.57 1271.11 820.305C1271.34 820.719 1271.62 820.898 1272.07 820.898C1272.61 820.898 1273.05 820.57 1273.05 820.008C1273.05 819.844 1273 819.641 1272.92 819.445C1272.47 818.258 1271.07 817.445 1269.39 817.445C1266.88 817.445 1265.28 819.133 1265.28 821.812C1265.28 824.523 1266.88 826.18 1269.41 826.18ZM1278.16 826.18C1279.77 826.18 1281.07 825.57 1281.62 824.539C1281.73 824.352 1281.78 824.164 1281.78 823.984C1281.78 823.461 1281.38 823.148 1280.89 823.148C1280.59 823.148 1280.39 823.234 1280.15 823.484C1279.53 824.211 1278.98 824.492 1278.15 824.492C1276.99 824.492 1276.24 823.68 1276.24 822.438V822.336H1281.02C1281.66 822.336 1282.02 821.977 1282.02 821.344C1282.02 819.07 1280.42 817.445 1278.05 817.445C1275.57 817.445 1274 819.156 1274 821.852C1274 824.562 1275.54 826.18 1278.16 826.18ZM1276.27 820.938C1276.34 819.867 1277.07 819.133 1278.07 819.133C1279.07 819.133 1279.77 819.844 1279.82 820.938H1276.27Z" fill="#222222"/>
<rect x="1200" y="930" width="120" height="120" rx="30" stroke="#222222" stroke-width="4" stroke-miterlimit="2.61313" stroke-linecap="round" stroke-linejoin="round" stroke-dasharray="4 12"/>
<path d="M1236.67 986.188C1238.8 986.188 1240.48 985.227 1241.19 983.664C1241.3 983.391 1241.37 983.141 1241.37 982.875C1241.37 982.25 1240.93 981.828 1240.27 981.828C1239.77 981.828 1239.47 982.039 1239.23 982.57C1238.72 983.703 1237.83 984.242 1236.64 984.242C1234.84 984.242 1233.7 982.758 1233.7 980.352C1233.7 977.977 1234.85 976.484 1236.63 976.484C1237.76 976.484 1238.68 977.062 1239.2 978.211C1239.45 978.758 1239.79 978.992 1240.32 978.992C1240.95 978.992 1241.36 978.594 1241.36 977.977C1241.36 977.695 1241.28 977.391 1241.12 977.094C1240.35 975.469 1238.72 974.531 1236.61 974.531C1233.37 974.531 1231.3 976.727 1231.3 980.359C1231.3 984 1233.33 986.188 1236.67 986.188ZM1246.7 986.18C1249.23 986.18 1250.85 984.562 1250.85 981.805C1250.85 979.086 1249.21 977.445 1246.7 977.445C1244.2 977.445 1242.55 979.094 1242.55 981.805C1242.55 984.555 1244.17 986.18 1246.7 986.18ZM1246.7 984.438C1245.58 984.438 1244.87 983.492 1244.87 981.812C1244.87 980.148 1245.59 979.188 1246.7 979.188C1247.81 979.188 1248.53 980.148 1248.53 981.812C1248.53 983.492 1247.82 984.438 1246.7 984.438ZM1253.17 986.164C1253.84 986.164 1254.31 985.758 1254.31 984.977V981.195C1254.31 980.109 1254.96 979.359 1255.98 979.359C1257.01 979.359 1257.52 979.984 1257.52 981.078V984.977C1257.52 985.758 1257.99 986.164 1258.66 986.164C1259.33 986.164 1259.8 985.758 1259.8 984.977V980.602C1259.8 978.641 1258.76 977.469 1256.9 977.469C1255.61 977.469 1254.77 978.039 1254.32 979.078H1254.27V978.609C1254.27 977.891 1253.82 977.453 1253.13 977.453C1252.45 977.453 1252.03 977.891 1252.03 978.602V984.977C1252.03 985.758 1252.51 986.164 1253.17 986.164ZM1261.86 983.859C1261.86 985.336 1262.63 986.094 1264.16 986.094H1264.23C1265.2 986.094 1265.85 985.75 1265.85 985.078C1265.85 984.547 1265.55 984.312 1264.98 984.25L1264.84 984.234C1264.34 984.195 1264.14 983.945 1264.14 983.352V979.344H1264.95C1265.48 979.344 1265.82 979.008 1265.82 978.484C1265.82 977.961 1265.48 977.625 1264.95 977.625H1264.14V976.695C1264.14 975.961 1263.71 975.508 1263 975.508C1262.29 975.508 1261.86 975.961 1261.86 976.695V977.625H1261.42C1260.88 977.625 1260.54 977.953 1260.54 978.484C1260.54 979.016 1260.88 979.344 1261.42 979.344H1261.86V983.859ZM1269.34 986.133C1270.38 986.133 1271.43 985.609 1271.9 984.719H1271.95V985.148C1271.99 985.82 1272.42 986.164 1273.04 986.164C1273.69 986.164 1274.15 985.773 1274.15 985.016V980.242C1274.15 978.555 1272.75 977.445 1270.6 977.445C1268.87 977.445 1267.52 978.062 1267.13 979.062C1267.05 979.234 1267.02 979.398 1267.02 979.578C1267.02 980.094 1267.41 980.453 1267.97 980.453C1268.34 980.453 1268.62 980.312 1268.88 980.031C1269.38 979.375 1269.8 979.148 1270.5 979.148C1271.36 979.148 1271.91 979.602 1271.91 980.383V980.938L1269.8 981.062C1267.7 981.188 1266.53 982.07 1266.53 983.594C1266.53 985.102 1267.74 986.133 1269.34 986.133ZM1270.09 984.484C1269.32 984.484 1268.8 984.094 1268.8 983.469C1268.8 982.875 1269.29 982.492 1270.14 982.43L1271.91 982.32V982.93C1271.91 983.836 1271.09 984.484 1270.09 984.484ZM1279.45 986.18C1281.05 986.18 1282.48 985.383 1282.98 984.242C1283.08 984.016 1283.12 983.828 1283.12 983.648C1283.12 983.086 1282.7 982.734 1282.16 982.734C1281.68 982.734 1281.43 982.93 1281.12 983.406C1280.77 984 1280.28 984.391 1279.48 984.391C1278.34 984.391 1277.63 983.453 1277.63 981.805C1277.63 980.188 1278.34 979.234 1279.5 979.234C1280.23 979.234 1280.73 979.57 1281.15 980.305C1281.38 980.719 1281.66 980.898 1282.11 980.898C1282.65 980.898 1283.09 980.57 1283.09 980.008C1283.09 979.844 1283.04 979.641 1282.96 979.445C1282.51 978.258 1281.11 977.445 1279.43 977.445C1276.91 977.445 1275.32 979.133 1275.32 981.812C1275.32 984.523 1276.92 986.18 1279.45 986.18ZM1284.95 983.859C1284.95 985.336 1285.73 986.094 1287.25 986.094H1287.33C1288.29 986.094 1288.95 985.75 1288.95 985.078C1288.95 984.547 1288.64 984.312 1288.08 984.25L1287.93 984.234C1287.44 984.195 1287.23 983.945 1287.23 983.352V979.344H1288.04C1288.58 979.344 1288.91 979.008 1288.91 978.484C1288.91 977.961 1288.58 977.625 1288.04 977.625H1287.23V976.695C1287.23 975.961 1286.8 975.508 1286.09 975.508C1285.38 975.508 1284.95 975.961 1284.95 976.695V977.625H1284.52C1283.98 977.625 1283.63 977.953 1283.63 978.484C1283.63 979.016 1283.98 979.344 1284.52 979.344H1284.95V983.859ZM1243.44 1006.15C1244.18 1006.15 1244.62 1005.7 1244.62 1004.92V1001.56H1248.33C1248.95 1001.56 1249.34 1001.21 1249.34 1000.62C1249.34 1000.05 1248.94 999.695 1248.33 999.695H1244.62V996.68H1248.71C1249.35 996.68 1249.78 996.312 1249.78 995.703C1249.78 995.094 1249.36 994.727 1248.71 994.727H1243.44C1242.7 994.727 1242.26 995.18 1242.26 995.953V1004.92C1242.26 1005.7 1242.7 1006.15 1243.44 1006.15ZM1254.45 1006.18C1256.98 1006.18 1258.6 1004.56 1258.6 1001.8C1258.6 999.086 1256.96 997.445 1254.45 997.445C1251.95 997.445 1250.3 999.094 1250.3 1001.8C1250.3 1004.55 1251.92 1006.18 1254.45 1006.18ZM1254.45 1004.44C1253.33 1004.44 1252.62 1003.49 1252.62 1001.81C1252.62 1000.15 1253.34 999.188 1254.45 999.188C1255.56 999.188 1256.28 1000.15 1256.28 1001.81C1256.28 1003.49 1255.57 1004.44 1254.45 1004.44ZM1260.92 1006.16C1261.62 1006.16 1262.06 1005.73 1262.06 1004.98V1001.26C1262.06 1000.27 1262.43 999.68 1263.47 999.664C1263.91 999.656 1264.24 999.555 1264.46 999.367C1264.68 999.18 1264.79 998.906 1264.79 998.547C1264.79 998.156 1264.68 997.875 1264.46 997.703C1264.3 997.562 1264.05 997.492 1263.75 997.492C1262.91 997.492 1262.23 998.109 1262.01 999.148H1261.96V998.602C1261.96 997.875 1261.52 997.453 1260.88 997.453C1260.23 997.453 1259.78 997.875 1259.78 998.602V1004.98C1259.78 1005.73 1260.23 1006.16 1260.92 1006.16ZM1266.75 1006.16C1267.42 1006.16 1267.89 1005.75 1267.89 1004.98V1000.95C1267.89 1000.01 1268.48 999.352 1269.34 999.352C1270.19 999.352 1270.7 999.883 1270.7 1000.78V1004.98C1270.7 1005.75 1271.12 1006.16 1271.79 1006.16C1272.47 1006.16 1272.89 1005.75 1272.89 1004.98V1000.91C1272.89 999.984 1273.46 999.352 1274.33 999.352C1275.21 999.352 1275.7 999.883 1275.7 1000.85V1004.98C1275.7 1005.75 1276.16 1006.16 1276.83 1006.16C1277.51 1006.16 1277.98 1005.75 1277.98 1004.98V1000.28C1277.98 998.594 1276.88 997.469 1275.23 997.469C1274.01 997.469 1273.01 998.133 1272.63 999.188H1272.59C1272.3 998.094 1271.46 997.469 1270.25 997.469C1269.11 997.469 1268.21 998.133 1267.86 999.141H1267.81V998.617C1267.81 997.852 1267.36 997.453 1266.71 997.453C1266.06 997.453 1265.61 997.852 1265.61 998.617V1004.98C1265.61 1005.75 1266.07 1006.16 1266.75 1006.16Z" fill="#222222"/>
<path d="M269 270L1037 270C1061.3 270 1081 289.699 1081 314L1081 360" stroke="#222222" stroke-width="4" stroke-linecap="round" stroke-linejoin="round"/>
<path d="M991 270L223 270C198.699 270 179 289.699 179 314L179 360" stroke="#222222" stroke-width="4" stroke-linecap="round" stroke-linejoin="round"/>
<path d="M189 354L180.536 364.156C179.737 365.116 178.263 365.116 177.464 364.156L169 354" stroke="#222222" stroke-width="4" stroke-linecap="round" stroke-linejoin="round"/>
<line x1="2" y1="-2" x2="8" y2="-1" transform="matrix(0 1 1 0 181 355)" stroke="#222222" stroke-width="4" stroke-linecap="round" stroke-linejoin="round"/>
<path d="M1091 354L1082.54 364.156C1081.74 365.116 1080.26 365.116 1079.46 364.156L1071 354" stroke="#222222" stroke-width="4" stroke-linecap="round" stroke-linejoin="round"/>
<line x1="2" y1="-2" x2="8" y2="-1" transform="matrix(0 1 1 0 1083 355)" stroke="#222222" stroke-width="4" stroke-linecap="round" stroke-linejoin="round"/>
<line x1="2" y1="-2" x2="172" y2="-2" transform="matrix(0 1 1 0 632 180)" stroke="#222222" stroke-width="4" stroke-linecap="round" stroke-linejoin="round"/>
<path fill-rule="evenodd" clip-rule="evenodd" d="M638 180C638 184.418 634.418 188 630 188C625.582 188 622 184.418 622 180C622 175.582 625.582 172 630 172C634.418 172 638 175.582 638 180Z" fill="white" stroke="#222222" stroke-width="4" stroke-linecap="round" stroke-linejoin="round"/>
<path d="M640 348L631.536 358.156C630.737 359.116 629.263 359.116 628.464 358.156L620 348" stroke="#222222" stroke-width="4" stroke-linecap="round" stroke-linejoin="round"/>
<line x1="2" y1="-2" x2="8" y2="-1" transform="matrix(0 1 1 0 632 349)" stroke="#222222" stroke-width="4" stroke-linecap="round" stroke-linejoin="round"/>
</svg>
