<?xml version="1.0" encoding="UTF-8"?>
<svg width="189px" height="145px" viewBox="0 0 189 145" version="1.1" xmlns="http://www.w3.org/2000/svg" xmlns:xlink="http://www.w3.org/1999/xlink">
    <!-- Generator: Sketch 47.1 (45422) - http://www.bohemiancoding.com/sketch -->
    <title>decision-small</title>
    <desc>Created with Sketch.</desc>
    <defs>
        <polygon id="path-1" points="10 0 20 10 10 20 0 10"></polygon>
    </defs>
    <g id="Page-1" stroke="none" stroke-width="1" fill="none" fill-rule="evenodd">
        <g id="Desktop-HD-Copy-18" transform="translate(-93.000000, -2928.000000)">
            <g id="Group-10" transform="translate(0.000000, 2933.000000)">
                <g id="decision-small" transform="translate(100.000000, 0.000000)">
                    <g id="Flow-/-Left-/-Curve-/-Up-/-Default">
                        <path d="M72,0 L72,90 L72,90 C72,112.09139 54.09139,130 32,130 L8.52651283e-14,130" id="path" stroke="#252525" stroke-width="4" stroke-linecap="round" transform="translate(36.000000, 65.000000) scale(-1, 1) translate(-36.000000, -65.000000) "></path>
                        <g id="Assets-/-Cap-/-Arrow-/-Default" transform="translate(0.000000, 0.000000) scale(-1, 1) rotate(-90.000000) translate(-0.000000, -0.000000) translate(-10.000000, -10.000000)" fill-rule="evenodd" fill="#252525">
                            <path d="M4,15.258963 L4,4.741037 L4,4.741037 C4,4.18875225 4.44771525,3.741037 5,3.741037 C5.17705464,3.741037 5.35093497,3.7880454 5.50387103,3.8772581 L14.5192362,9.1362211 L14.5192362,9.1362211 C14.9962881,9.41450138 15.1574243,10.0268191 14.879144,10.503871 C14.7922253,10.6528747 14.6682398,10.7768601 14.5192362,10.8637789 L5.50387103,16.1227419 L5.50387103,16.1227419 C5.02681911,16.4010222 4.41450138,16.2398859 4.1362211,15.762834 C4.0470084,15.609898 4,15.4360176 4,15.258963 Z" id="shape"></path>
                        </g>
                    </g>
                    <g id="Flow-/-Right-/-Curve-/-Up-/-Default-ALT" transform="translate(90.000000, 0.000000)">
                        <path class="fk-path-alt" d="M85,0 L85,90 L85,90 C85,112.09139 67.09139,130 45,130 L0,130" id="path" stroke="#252525" stroke-width="4" stroke-linecap="round" stroke-linejoin="round" stroke-dasharray="4,12"></path>
                        <g id="Assets-/-Cap-/-Arrow-/-ALT" transform="translate(85.000000, 0.000000) rotate(-90.000000) translate(-85.000000, -0.000000) translate(75.000000, -10.000000)" fill-rule="evenodd" fill="#252525">
                            <path d="M4,15.258963 L4,4.741037 L4,4.741037 C4,4.18875225 4.44771525,3.741037 5,3.741037 C5.17705464,3.741037 5.35093497,3.7880454 5.50387103,3.8772581 L14.5192362,9.1362211 L14.5192362,9.1362211 C14.9962881,9.41450138 15.1574243,10.0268191 14.879144,10.503871 C14.7922253,10.6528747 14.6682398,10.7768601 14.5192362,10.8637789 L5.50387103,16.1227419 L5.50387103,16.1227419 C5.02681911,16.4010222 4.41450138,16.2398859 4.1362211,15.762834 C4.0470084,15.609898 4,15.4360176 4,15.258963 Z" id="shape"></path>
                        </g>
                        <g id="Assets-/-Cap-/-Decision" transform="translate(0.000000, 130.000000) scale(1, -1) translate(-0.000000, -130.000000) translate(-10.000000, 120.000000)">
                            <g id="Rectangle">
                                <use fill="#F7F7F7" fill-rule="evenodd" xlink:href="#path-1"></use>
                                <path stroke="#252525" stroke-width="4" d="M10,2.82842712 L2.82842712,10 L10,17.1715729 L17.1715729,10 L10,2.82842712 Z"></path>
                            </g>
                        </g>
                    </g>
                </g>
            </g>
        </g>
    </g>
</svg>
