<?xml version="1.0" encoding="UTF-8"?>
<svg width="112px" height="250px" viewBox="0 0 112 250" version="1.1" xmlns="http://www.w3.org/2000/svg" xmlns:xlink="http://www.w3.org/1999/xlink">
    <!-- Generator: Sketch 47.1 (45422) - http://www.bohemiancoding.com/sketch -->
    <title>left</title>
    <desc>Created with Sketch.</desc>
    <defs></defs>
    <g id="Page-1" stroke="none" stroke-width="1" fill="none" fill-rule="evenodd">
        <g id="Desktop-HD-Copy-17" transform="translate(-498.000000, -3834.000000)">
            <g id="X-/-Up" transform="translate(505.000000, 3839.000000)">
                <g id="Flow-/-Left-/-Curve-/-Up-/-Default">
                    <path d="M100,0 L100,200 L100,200 C100,222.09139 82.09139,240 60,240 L8.52651283e-14,240" id="path" stroke="#252525" stroke-width="4" stroke-linecap="round" transform="translate(50.000000, 120.000000) scale(-1, 1) translate(-50.000000, -120.000000) "></path>
                    <g id="Assets-/-Cap-/-Arrow-/-Default" transform="translate(0.000000, 0.000000) scale(-1, 1) rotate(-90.000000) translate(-0.000000, -0.000000) translate(-10.000000, -10.000000)" fill-rule="evenodd" fill="#252525">
                        <path d="M4,15.258963 L4,4.741037 L4,4.741037 C4,4.18875225 4.44771525,3.741037 5,3.741037 C5.17705464,3.741037 5.35093497,3.7880454 5.50387103,3.8772581 L14.5192362,9.1362211 L14.5192362,9.1362211 C14.9962881,9.41450138 15.1574243,10.0268191 14.879144,10.503871 C14.7922253,10.6528747 14.6682398,10.7768601 14.5192362,10.8637789 L5.50387103,16.1227419 L5.50387103,16.1227419 C5.02681911,16.4010222 4.41450138,16.2398859 4.1362211,15.762834 C4.0470084,15.609898 4,15.4360176 4,15.258963 Z" id="shape"></path>
                    </g>
                    <g id="Assets-/-Cap-/-Circle-/-Default" transform="translate(100.000000, 240.000000) scale(-1, -1) translate(-100.000000, -240.000000) translate(90.000000, 230.000000)" fill-rule="evenodd" fill="#252525">
                        <circle id="map/path-end-circle" cx="10" cy="10" r="5"></circle>
                    </g>
                </g>
            </g>
        </g>
    </g>
</svg>