<svg width="200" height="246" viewBox="0 0 200 246" fill="none" xmlns="http://www.w3.org/2000/svg">
<path d="M0 0H118.979C128.378 0 137.301 4.13182 143.382 11.2989L192.402 69.0838C197.307 74.8661 200 82.2023 200 89.7849V246H0V0Z" fill="url(#paint0_linear)"/>
<mask id="mask0" mask-type="alpha" maskUnits="userSpaceOnUse" x="0" y="0" width="200" height="246">
<path d="M0 0H118.979C128.378 0 137.301 4.13182 143.382 11.2989L192.402 69.0838C197.307 74.8661 200 82.2023 200 89.7849V246H0V0Z" fill="#2C2D35"/>
</mask>
<g mask="url(#mask0)">
<g filter="url(#filter0_di)">
<path d="M133.333 -4.43335L204.445 72.4111C204.445 72.4111 188.889 70.9333 169.63 70.9333C150.37 70.9333 133.333 72.4111 133.333 72.4111C133.333 72.4111 134.815 57.2639 134.815 33.9889C134.815 10.7139 133.333 -4.43335 133.333 -4.43335Z" fill="#40434C"/>
</g>
</g>
<path opacity="0.7" d="M60 119.857C60 107.233 70.2335 97 82.8571 97H117.143C129.767 97 140 107.233 140 119.857V154.143C140 166.767 129.767 177 117.143 177H82.8571C70.2335 177 60 166.767 60 154.143V119.857Z" fill="#7B61FF"/>
<g opacity="0.8">
<path d="M93.721 151.333C92.8897 149.671 91.9723 147.994 90.969 146.302C89.9943 144.582 88.862 142.834 87.572 141.056C87.1707 141.572 86.6547 142.289 86.024 143.206C85.422 144.124 84.8057 145.098 84.175 146.13C83.573 147.162 82.9997 148.151 82.455 149.097C81.9103 150.043 81.509 150.789 81.251 151.333H73.597C74.8583 149.011 76.3203 146.575 77.983 144.023C79.6743 141.472 81.552 138.763 83.616 135.896L74.027 121.534H82.154L87.959 130.822L93.635 121.534H101.289L91.829 135.982C94.237 139.107 96.258 142.002 97.892 144.668C99.526 147.306 100.816 149.527 101.762 151.333H93.721Z" fill="#30333B"/>
<path d="M109.353 139.852C109.353 141.83 109.797 143.421 110.686 144.625C111.574 145.829 112.893 146.431 114.642 146.431C115.215 146.431 115.745 146.417 116.233 146.388C116.72 146.331 117.121 146.274 117.437 146.216V134.563C117.035 134.305 116.505 134.09 115.846 133.918C115.215 133.746 114.57 133.66 113.911 133.66C110.872 133.66 109.353 135.724 109.353 139.852ZM123.844 150.602C123.27 150.774 122.611 150.946 121.866 151.118C121.12 151.262 120.332 151.391 119.501 151.505C118.698 151.62 117.867 151.706 117.007 151.763C116.175 151.849 115.373 151.892 114.599 151.892C112.735 151.892 111.073 151.62 109.611 151.075C108.149 150.531 106.916 149.757 105.913 148.753C104.909 147.721 104.135 146.489 103.591 145.055C103.075 143.593 102.817 141.959 102.817 140.153C102.817 138.319 103.046 136.67 103.505 135.208C103.963 133.718 104.623 132.456 105.483 131.424C106.343 130.392 107.389 129.604 108.622 129.059C109.883 128.515 111.316 128.242 112.922 128.242C113.81 128.242 114.599 128.328 115.287 128.5C116.003 128.672 116.72 128.916 117.437 129.231V118.997L123.844 117.965V150.602Z" fill="#30333B"/>
</g>
<defs>
<filter id="filter0_di" x="99.3334" y="-24.4333" width="139.111" height="144.844" filterUnits="userSpaceOnUse" color-interpolation-filters="sRGB">
<feFlood flood-opacity="0" result="BackgroundImageFix"/>
<feColorMatrix in="SourceAlpha" type="matrix" values="0 0 0 0 0 0 0 0 0 0 0 0 0 0 0 0 0 0 127 0"/>
<feOffset dy="14"/>
<feGaussianBlur stdDeviation="17"/>
<feColorMatrix type="matrix" values="0 0 0 0 0 0 0 0 0 0 0 0 0 0 0 0 0 0 0.4 0"/>
<feBlend mode="normal" in2="BackgroundImageFix" result="effect1_dropShadow"/>
<feBlend mode="normal" in="SourceGraphic" in2="effect1_dropShadow" result="shape"/>
<feColorMatrix in="SourceAlpha" type="matrix" values="0 0 0 0 0 0 0 0 0 0 0 0 0 0 0 0 0 0 127 0" result="hardAlpha"/>
<feOffset dx="-11"/>
<feGaussianBlur stdDeviation="6.5"/>
<feComposite in2="hardAlpha" operator="arithmetic" k2="-1" k3="1"/>
<feColorMatrix type="matrix" values="0 0 0 0 0 0 0 0 0 0 0 0 0 0 0 0 0 0 0.1 0"/>
<feBlend mode="normal" in2="shape" result="effect2_innerShadow"/>
</filter>
<linearGradient id="paint0_linear" x1="100" y1="219.417" x2="100" y2="79.171" gradientUnits="userSpaceOnUse">
<stop stop-color="#30333B"/>
<stop offset="1" stop-color="#2B2C34"/>
</linearGradient>
</defs>
</svg>
