<svg width="362" height="612" viewBox="0 0 362 612" fill="none" xmlns="http://www.w3.org/2000/svg">
<g filter="url(#filter0_d)">
<g filter="url(#filter1_d)">
<path d="M41 23C41 21.8954 41.8954 21 43 21H319C320.105 21 321 21.8954 321 23V549C321 550.105 320.105 551 319 551H43C41.8954 551 41 550.105 41 549V23Z" fill="white"/>
<path d="M319 20.75H43C41.7574 20.75 40.75 21.7574 40.75 23V549C40.75 550.243 41.7574 551.25 43 551.25H319C320.243 551.25 321.25 550.243 321.25 549V23C321.25 21.7574 320.243 20.75 319 20.75Z" stroke="#AAAAAA" stroke-width="0.5"/>
</g>
<g filter="url(#filter2_i)">
<path d="M41 62H320V23C320 21.8954 319.105 21 318 21H43C41.8954 21 41 21.8954 41 23V62Z" fill="white"/>
</g>
<path fill-rule="evenodd" clip-rule="evenodd" d="M299.506 41.6746L294.567 46.7769L293.886 46.0447L298.811 40.9576L294 35.9998L294.682 35.2684L299.506 40.2396L304.319 35.2676L305 35.9997L300.201 40.9567L305.128 46.0338L304.446 46.7652L299.506 41.6746Z" fill="black"/>
<path d="M58.1089 45H59.5581V41.6016H62.8823V40.3867H59.5581V38.2148H63.2339V37H58.1089V45ZM65.9058 37H64.4917V45H65.9058V37ZM69.9771 45.1172C71.7349 45.1172 72.8521 43.8789 72.8521 42.0234C72.8521 40.1641 71.7349 38.9219 69.9771 38.9219C68.2192 38.9219 67.1021 40.1641 67.1021 42.0234C67.1021 43.8789 68.2192 45.1172 69.9771 45.1172ZM69.9849 43.9844C69.0122 43.9844 68.5356 43.1172 68.5356 42.0195C68.5356 40.9219 69.0122 40.043 69.9849 40.043C70.9419 40.043 71.4185 40.9219 71.4185 42.0195C71.4185 43.1172 70.9419 43.9844 69.9849 43.9844ZM75.1294 45H76.606L77.731 40.9453H77.813L78.938 45H80.4106L82.1099 39H80.6646L79.6255 43.1953H79.5669L78.4888 39H77.063L75.9849 43.2187H75.9302L74.8755 39H73.4341L75.1294 45ZM83.0972 45H84.5112V42.9844L85.0269 42.4336L86.8628 45H88.5542L86.0933 41.5898L88.4175 39H86.7651L84.6089 41.4102H84.5112V37H83.0972V45ZM89.3599 45H90.7739V39H89.3599V45ZM90.0708 38.1484C90.52 38.1484 90.8872 37.8047 90.8872 37.3828C90.8872 36.957 90.52 36.6133 90.0708 36.6133C89.6177 36.6133 89.2505 36.957 89.2505 37.3828C89.2505 37.8047 89.6177 38.1484 90.0708 38.1484ZM95.2241 39H94.0405V37.5625H92.6265V39H91.7749V40.0937H92.6265V43.4297C92.6187 44.5586 93.439 45.1133 94.5015 45.082C94.9038 45.0703 95.1812 44.9922 95.3335 44.9414L95.0952 43.8359C95.0171 43.8555 94.8569 43.8906 94.6812 43.8906C94.3257 43.8906 94.0405 43.7656 94.0405 43.1953V40.0937H95.2241V39Z" fill="#333333"/>
<g clip-path="url(#clip0)">
<path fill-rule="evenodd" clip-rule="evenodd" d="M69.7197 151.47C70.0126 151.177 70.4874 151.177 70.7803 151.47L72.4268 153.116C72.9149 153.604 72.9149 154.396 72.4268 154.884L70.7803 156.53C70.4874 156.823 70.0126 156.823 69.7197 156.53C69.4268 156.237 69.4268 155.763 69.7197 155.47L71.1893 154L69.7197 152.53C69.4268 152.237 69.4268 151.763 69.7197 151.47Z" fill="#7B61FF"/>
<path d="M61.75 154C61.75 154.552 61.3023 155 60.75 155C60.1977 155 59.75 154.552 59.75 154C59.75 153.448 60.1977 153 60.75 153C61.3023 153 61.75 153.448 61.75 154Z" fill="#7B61FF" stroke="#7B61FF" stroke-width="2" stroke-linecap="round" stroke-linejoin="round"/>
<path d="M60.5 154H71.5" stroke="#7B61FF" stroke-width="1.5" stroke-linecap="round" stroke-linejoin="round"/>
<path d="M89.5156 152H88.1719V151.391C88.1719 150.797 88.4219 150.484 89.0313 150.484C89.2969 150.484 89.4531 150.547 89.5469 150.578L89.8125 149.781C89.6719 149.719 89.3906 149.625 88.9375 149.625C88.0781 149.625 87.25 150.141 87.25 151.172V152H86.2813V152.781H87.25V158H88.1719V152.781H89.5156V152ZM91.7295 150H90.8076V158H91.7295V150ZM95.8555 158.125C97.4805 158.125 98.5742 156.891 98.5742 155.031C98.5742 153.156 97.4805 151.922 95.8555 151.922C94.2305 151.922 93.1367 153.156 93.1367 155.031C93.1367 156.891 94.2305 158.125 95.8555 158.125ZM95.8555 157.297C94.6211 157.297 94.0586 156.234 94.0586 155.031C94.0586 153.828 94.6211 152.75 95.8555 152.75C97.0898 152.75 97.6523 153.828 97.6523 155.031C97.6523 156.234 97.0898 157.297 95.8555 157.297ZM101.137 158H102.043L103.355 153.391H103.449L104.762 158H105.668L107.496 152H106.527L105.23 156.578H105.168L103.902 152H102.918L101.637 156.594H101.574L100.277 152H99.3086L101.137 158ZM111.809 158H112.73V154.203C112.73 153.391 113.371 152.797 114.246 152.797C114.492 152.797 114.746 152.844 114.809 152.859V151.922C114.703 151.914 114.461 151.906 114.324 151.906C113.605 151.906 112.98 152.312 112.762 152.906H112.699V152H111.809V158ZM115.901 158H116.823V152H115.901V158ZM116.37 151C116.729 151 117.026 150.719 117.026 150.375C117.026 150.031 116.729 149.75 116.37 149.75C116.011 149.75 115.714 150.031 115.714 150.375C115.714 150.719 116.011 151 116.37 151ZM120.934 160.375C122.371 160.375 123.527 159.719 123.527 158.172V152H122.637V152.953H122.543C122.34 152.641 121.965 151.922 120.793 151.922C119.277 151.922 118.23 153.125 118.23 154.969C118.23 156.844 119.324 157.906 120.777 157.906C121.949 157.906 122.324 157.219 122.527 156.891H122.605V158.109C122.605 159.109 121.902 159.562 120.934 159.562C119.844 159.562 119.461 158.988 119.215 158.656L118.48 159.172C118.855 159.801 119.594 160.375 120.934 160.375ZM120.902 157.078C119.746 157.078 119.152 156.203 119.152 154.953C119.152 153.734 119.73 152.75 120.902 152.75C122.027 152.75 122.621 153.656 122.621 154.953C122.621 156.281 122.012 157.078 120.902 157.078ZM126.137 154.391C126.137 153.344 126.805 152.75 127.715 152.75C128.582 152.75 129.105 153.297 129.105 154.25V158H130.027V154.188C130.027 152.645 129.207 151.922 127.98 151.922C127.035 151.922 126.496 152.316 126.215 152.937H126.137V150H125.215V158H126.137V154.391ZM134.323 152H133.042V150.562H132.12V152H131.214V152.781H132.12V156.531C132.12 157.578 132.964 158.078 133.745 158.078C134.089 158.078 134.308 158.016 134.433 157.969L134.245 157.141C134.167 157.156 134.042 157.187 133.839 157.187C133.433 157.187 133.042 157.062 133.042 156.281V152.781H134.323V152ZM143.054 153.344C142.765 152.492 142.116 151.922 140.929 151.922C139.663 151.922 138.726 152.641 138.726 153.656C138.726 154.484 139.218 155.039 140.319 155.297L141.319 155.531C141.925 155.672 142.21 155.961 142.21 156.375C142.21 156.891 141.663 157.312 140.804 157.312C140.05 157.312 139.577 156.988 139.413 156.344L138.538 156.562C138.753 157.582 139.593 158.125 140.819 158.125C142.214 158.125 143.163 157.363 143.163 156.328C143.163 155.492 142.64 154.965 141.569 154.703L140.679 154.484C139.968 154.309 139.647 154.07 139.647 153.609C139.647 153.094 140.194 152.719 140.929 152.719C141.733 152.719 142.065 153.164 142.226 153.578L143.054 153.344ZM147.16 152H145.879V150.562H144.957V152H144.051V152.781H144.957V156.531C144.957 157.578 145.801 158.078 146.582 158.078C146.926 158.078 147.145 158.016 147.27 157.969L147.082 157.141C147.004 157.156 146.879 157.187 146.676 157.187C146.27 157.187 145.879 157.062 145.879 156.281V152.781H147.16V152ZM148.547 158H149.469V154.203C149.469 153.391 150.109 152.797 150.984 152.797C151.23 152.797 151.484 152.844 151.547 152.859V151.922C151.441 151.914 151.199 151.906 151.063 151.906C150.344 151.906 149.719 152.312 149.5 152.906H149.437V152H148.547V158ZM154.405 158.141C155.452 158.141 155.999 157.578 156.187 157.187H156.233V158H157.155V154.047C157.155 152.141 155.702 151.922 154.937 151.922C154.03 151.922 152.999 152.234 152.53 153.328L153.405 153.641C153.608 153.203 154.089 152.734 154.968 152.734C155.815 152.734 156.233 153.184 156.233 153.953V153.984C156.233 154.43 155.78 154.391 154.687 154.531C153.573 154.676 152.358 154.922 152.358 156.297C152.358 157.469 153.265 158.141 154.405 158.141ZM154.546 157.312C153.812 157.312 153.28 156.984 153.28 156.344C153.28 155.641 153.921 155.422 154.64 155.328C155.03 155.281 156.077 155.172 156.233 154.984V155.828C156.233 156.578 155.64 157.312 154.546 157.312ZM158.838 158H159.76V152H158.838V158ZM159.307 151C159.666 151 159.963 150.719 159.963 150.375C159.963 150.031 159.666 149.75 159.307 149.75C158.947 149.75 158.65 150.031 158.65 150.375C158.65 150.719 158.947 151 159.307 151ZM163.87 160.375C165.308 160.375 166.464 159.719 166.464 158.172V152H165.573V152.953H165.479C165.276 152.641 164.901 151.922 163.729 151.922C162.214 151.922 161.167 153.125 161.167 154.969C161.167 156.844 162.261 157.906 163.714 157.906C164.886 157.906 165.261 157.219 165.464 156.891H165.542V158.109C165.542 159.109 164.839 159.562 163.87 159.562C162.78 159.562 162.397 158.988 162.151 158.656L161.417 159.172C161.792 159.801 162.53 160.375 163.87 160.375ZM163.839 157.078C162.683 157.078 162.089 156.203 162.089 154.953C162.089 153.734 162.667 152.75 163.839 152.75C164.964 152.75 165.558 153.656 165.558 154.953C165.558 156.281 164.948 157.078 163.839 157.078ZM169.073 154.391C169.073 153.344 169.741 152.75 170.651 152.75C171.519 152.75 172.042 153.297 172.042 154.25V158H172.964V154.188C172.964 152.645 172.144 151.922 170.917 151.922C169.972 151.922 169.433 152.316 169.151 152.937H169.073V150H168.151V158H169.073V154.391ZM177.26 152H175.979V150.562H175.057V152H174.15V152.781H175.057V156.531C175.057 157.578 175.9 158.078 176.682 158.078C177.025 158.078 177.244 158.016 177.369 157.969L177.182 157.141C177.104 157.156 176.979 157.187 176.775 157.187C176.369 157.187 175.979 157.062 175.979 156.281V152.781H177.26V152Z" fill="#333333"/>
<path d="M73 218L73 217C73 214.791 71.2091 213 69 213L61 213" stroke="#7B61FF" stroke-width="1.5" stroke-linecap="round" stroke-linejoin="round"/>
<path d="M73 217L73 219C73 221.209 71.2091 223 69 223L61 223" stroke="#7B61FF" stroke-width="1.5" stroke-linecap="round" stroke-linejoin="round"/>
<path fill-rule="evenodd" clip-rule="evenodd" d="M62.5303 225.53C62.2374 225.823 61.7626 225.823 61.4697 225.53L59.8232 223.884C59.3351 223.396 59.3351 222.604 59.8232 222.116L61.4697 220.47C61.7626 220.177 62.2374 220.177 62.5303 220.47C62.8232 220.763 62.8232 221.237 62.5303 221.53L61.0607 223L62.5303 224.47C62.8232 224.763 62.8232 225.237 62.5303 225.53Z" fill="#7B61FF"/>
<path d="M61.75 212.75C61.75 212.198 61.3023 211.75 60.75 211.75C60.1977 211.75 59.75 212.198 59.75 212.75C59.75 213.302 60.1977 213.75 60.75 213.75C61.3023 213.75 61.75 213.302 61.75 212.75Z" fill="#7B61FF" stroke="#7B61FF" stroke-width="2" stroke-linecap="round" stroke-linejoin="round"/>
<path d="M89.5156 216H88.1719V215.391C88.1719 214.797 88.4219 214.484 89.0313 214.484C89.2969 214.484 89.4531 214.547 89.5469 214.578L89.8125 213.781C89.6719 213.719 89.3906 213.625 88.9375 213.625C88.0781 213.625 87.25 214.141 87.25 215.172V216H86.2813V216.781H87.25V222H88.1719V216.781H89.5156V216ZM91.7295 214H90.8076V222H91.7295V214ZM95.8555 222.125C97.4805 222.125 98.5742 220.891 98.5742 219.031C98.5742 217.156 97.4805 215.922 95.8555 215.922C94.2305 215.922 93.1367 217.156 93.1367 219.031C93.1367 220.891 94.2305 222.125 95.8555 222.125ZM95.8555 221.297C94.6211 221.297 94.0586 220.234 94.0586 219.031C94.0586 217.828 94.6211 216.75 95.8555 216.75C97.0898 216.75 97.6523 217.828 97.6523 219.031C97.6523 220.234 97.0898 221.297 95.8555 221.297ZM101.137 222H102.043L103.355 217.391H103.449L104.762 222H105.668L107.496 216H106.527L105.23 220.578H105.168L103.902 216H102.918L101.637 220.594H101.574L100.277 216H99.3086L101.137 222ZM111.809 222H112.73V218.203C112.73 217.391 113.371 216.797 114.246 216.797C114.492 216.797 114.746 216.844 114.809 216.859V215.922C114.703 215.914 114.461 215.906 114.324 215.906C113.605 215.906 112.98 216.312 112.762 216.906H112.699V216H111.809V222ZM115.901 222H116.823V216H115.901V222ZM116.37 215C116.729 215 117.026 214.719 117.026 214.375C117.026 214.031 116.729 213.75 116.37 213.75C116.011 213.75 115.714 214.031 115.714 214.375C115.714 214.719 116.011 215 116.37 215ZM120.934 224.375C122.371 224.375 123.527 223.719 123.527 222.172V216H122.637V216.953H122.543C122.34 216.641 121.965 215.922 120.793 215.922C119.277 215.922 118.23 217.125 118.23 218.969C118.23 220.844 119.324 221.906 120.777 221.906C121.949 221.906 122.324 221.219 122.527 220.891H122.605V222.109C122.605 223.109 121.902 223.562 120.934 223.562C119.844 223.562 119.461 222.988 119.215 222.656L118.48 223.172C118.855 223.801 119.594 224.375 120.934 224.375ZM120.902 221.078C119.746 221.078 119.152 220.203 119.152 218.953C119.152 217.734 119.73 216.75 120.902 216.75C122.027 216.75 122.621 217.656 122.621 218.953C122.621 220.281 122.012 221.078 120.902 221.078ZM126.137 218.391C126.137 217.344 126.805 216.75 127.715 216.75C128.582 216.75 129.105 217.297 129.105 218.25V222H130.027V218.188C130.027 216.645 129.207 215.922 127.98 215.922C127.035 215.922 126.496 216.316 126.215 216.937H126.137V214H125.215V222H126.137V218.391ZM134.323 216H133.042V214.562H132.12V216H131.214V216.781H132.12V220.531C132.12 221.578 132.964 222.078 133.745 222.078C134.089 222.078 134.308 222.016 134.433 221.969L134.245 221.141C134.167 221.156 134.042 221.187 133.839 221.187C133.433 221.187 133.042 221.062 133.042 220.281V216.781H134.323V216ZM141.241 222.125C142.569 222.125 143.444 221.312 143.601 220.25H142.679C142.507 220.906 141.96 221.297 141.241 221.297C140.147 221.297 139.444 220.391 139.444 219C139.444 217.641 140.163 216.75 141.241 216.75C142.054 216.75 142.538 217.25 142.679 217.797H143.601C143.444 216.672 142.491 215.922 141.226 215.922C139.601 215.922 138.522 217.203 138.522 219.031C138.522 220.828 139.554 222.125 141.241 222.125ZM148.729 219.547C148.729 220.672 147.87 221.187 147.183 221.187C146.417 221.187 145.87 220.625 145.87 219.75V216H144.948V219.812C144.948 221.344 145.761 222.078 146.886 222.078C147.792 222.078 148.386 221.594 148.667 220.984H148.729V222H149.651V216H148.729V219.547ZM151.34 222H152.262V218.203C152.262 217.391 152.902 216.797 153.777 216.797C154.023 216.797 154.277 216.844 154.34 216.859V215.922C154.234 215.914 153.992 215.906 153.855 215.906C153.137 215.906 152.512 216.312 152.293 216.906H152.23V216H151.34V222ZM160.521 216H159.521L157.865 220.781H157.803L156.146 216H155.146L157.365 222H158.303L160.521 216ZM164.039 222.125C165.258 222.125 166.148 221.516 166.43 220.609L165.539 220.359C165.305 220.984 164.762 221.297 164.039 221.297C162.957 221.297 162.211 220.598 162.168 219.312H166.523V218.922C166.523 216.687 165.195 215.922 163.945 215.922C162.32 215.922 161.242 217.203 161.242 219.047C161.242 220.891 162.305 222.125 164.039 222.125ZM162.168 218.516C162.23 217.582 162.891 216.75 163.945 216.75C164.945 216.75 165.586 217.5 165.586 218.516H162.168ZM173.285 222.125C174.441 222.125 174.832 221.406 175.035 221.078H175.145V222H176.035V214H175.113V216.953H175.035C174.832 216.641 174.473 215.922 173.301 215.922C171.785 215.922 170.738 217.125 170.738 219.016C170.738 220.922 171.785 222.125 173.285 222.125ZM173.41 221.297C172.254 221.297 171.66 220.281 171.66 219C171.66 217.734 172.238 216.75 173.41 216.75C174.535 216.75 175.129 217.656 175.129 219C175.129 220.359 174.52 221.297 173.41 221.297ZM180.289 222.125C181.914 222.125 183.008 220.891 183.008 219.031C183.008 217.156 181.914 215.922 180.289 215.922C178.664 215.922 177.57 217.156 177.57 219.031C177.57 220.891 178.664 222.125 180.289 222.125ZM180.289 221.297C179.055 221.297 178.492 220.234 178.492 219.031C178.492 217.828 179.055 216.75 180.289 216.75C181.523 216.75 182.086 217.828 182.086 219.031C182.086 220.234 181.523 221.297 180.289 221.297ZM185.57 222H186.477L187.789 217.391H187.883L189.195 222H190.102L191.93 216H190.961L189.664 220.578H189.602L188.336 216H187.352L186.07 220.594H186.008L184.711 216H183.742L185.57 222ZM194.07 218.391C194.07 217.344 194.719 216.75 195.602 216.75C196.457 216.75 196.977 217.309 196.977 218.25V222H197.898V218.188C197.898 216.656 197.082 215.922 195.867 215.922C194.961 215.922 194.398 216.328 194.117 216.937H194.039V216H193.148V222H194.07V218.391ZM206.458 219.547C206.458 220.672 205.599 221.187 204.911 221.187C204.146 221.187 203.599 220.625 203.599 219.75V216H202.677V219.812C202.677 221.344 203.489 222.078 204.614 222.078C205.521 222.078 206.114 221.594 206.396 220.984H206.458V222H207.38V216H206.458V219.547ZM212.506 218.141H209.006V219H212.506V218.141ZM216.737 216H215.456V214.562H214.534V216H213.628V216.781H214.534V220.531C214.534 221.578 215.378 222.078 216.159 222.078C216.503 222.078 216.722 222.016 216.847 221.969L216.659 221.141C216.581 221.156 216.456 221.187 216.253 221.187C215.847 221.187 215.456 221.062 215.456 220.281V216.781H216.737V216ZM221.905 219.547C221.905 220.672 221.046 221.187 220.358 221.187C219.593 221.187 219.046 220.625 219.046 219.75V216H218.124V219.812C218.124 221.344 218.937 222.078 220.062 222.078C220.968 222.078 221.562 221.594 221.843 220.984H221.905V222H222.827V216H221.905V219.547ZM224.516 222H225.438V218.203C225.438 217.391 226.078 216.797 226.953 216.797C227.199 216.797 227.453 216.844 227.516 216.859V215.922C227.41 215.914 227.168 215.906 227.031 215.906C226.313 215.906 225.688 216.312 225.469 216.906H225.406V216H224.516V222ZM229.53 218.391C229.53 217.344 230.179 216.75 231.062 216.75C231.917 216.75 232.437 217.309 232.437 218.25V222H233.358V218.188C233.358 216.656 232.542 215.922 231.327 215.922C230.421 215.922 229.858 216.328 229.577 216.937H229.499V216H228.608V222H229.53V218.391Z" fill="#333333"/>
<path d="M73 249.75L73 248.75C73 246.541 71.2091 244.75 69 244.75L61 244.75" stroke="#7B61FF" stroke-width="1.5" stroke-linecap="round" stroke-linejoin="round"/>
<path d="M73 249.25L73 251.25C73 253.459 71.2091 255.25 69 255.25L66 255.25" stroke="#7B61FF" stroke-width="1.5" stroke-linecap="round" stroke-linejoin="round"/>
<path fill-rule="evenodd" clip-rule="evenodd" d="M67.5303 257.78C67.2374 258.073 66.7626 258.073 66.4697 257.78L64.8232 256.134C64.3351 255.646 64.3351 254.854 64.8232 254.366L66.4697 252.72C66.7626 252.427 67.2374 252.427 67.5303 252.72C67.8232 253.013 67.8232 253.487 67.5303 253.78L66.0607 255.25L67.5303 256.72C67.8232 257.013 67.8232 257.487 67.5303 257.78Z" fill="#7B61FF"/>
<path d="M61.75 244.75C61.75 244.198 61.3023 243.75 60.75 243.75C60.1977 243.75 59.75 244.198 59.75 244.75C59.75 245.302 60.1977 245.75 60.75 245.75C61.3023 245.75 61.75 245.302 61.75 244.75Z" fill="#7B61FF" stroke="#7B61FF" stroke-width="2" stroke-linecap="round" stroke-linejoin="round"/>
<path d="M89.5156 248H88.1719V247.391C88.1719 246.797 88.4219 246.484 89.0313 246.484C89.2969 246.484 89.4531 246.547 89.5469 246.578L89.8125 245.781C89.6719 245.719 89.3906 245.625 88.9375 245.625C88.0781 245.625 87.25 246.141 87.25 247.172V248H86.2813V248.781H87.25V254H88.1719V248.781H89.5156V248ZM91.7295 246H90.8076V254H91.7295V246ZM95.8555 254.125C97.4805 254.125 98.5742 252.891 98.5742 251.031C98.5742 249.156 97.4805 247.922 95.8555 247.922C94.2305 247.922 93.1367 249.156 93.1367 251.031C93.1367 252.891 94.2305 254.125 95.8555 254.125ZM95.8555 253.297C94.6211 253.297 94.0586 252.234 94.0586 251.031C94.0586 249.828 94.6211 248.75 95.8555 248.75C97.0898 248.75 97.6523 249.828 97.6523 251.031C97.6523 252.234 97.0898 253.297 95.8555 253.297ZM101.137 254H102.043L103.355 249.391H103.449L104.762 254H105.668L107.496 248H106.527L105.23 252.578H105.168L103.902 248H102.918L101.637 252.594H101.574L100.277 248H99.3086L101.137 254ZM111.809 254H112.73V250.203C112.73 249.391 113.371 248.797 114.246 248.797C114.492 248.797 114.746 248.844 114.809 248.859V247.922C114.703 247.914 114.461 247.906 114.324 247.906C113.605 247.906 112.98 248.312 112.762 248.906H112.699V248H111.809V254ZM115.901 254H116.823V248H115.901V254ZM116.37 247C116.729 247 117.026 246.719 117.026 246.375C117.026 246.031 116.729 245.75 116.37 245.75C116.011 245.75 115.714 246.031 115.714 246.375C115.714 246.719 116.011 247 116.37 247ZM120.934 256.375C122.371 256.375 123.527 255.719 123.527 254.172V248H122.637V248.953H122.543C122.34 248.641 121.965 247.922 120.793 247.922C119.277 247.922 118.23 249.125 118.23 250.969C118.23 252.844 119.324 253.906 120.777 253.906C121.949 253.906 122.324 253.219 122.527 252.891H122.605V254.109C122.605 255.109 121.902 255.562 120.934 255.562C119.844 255.562 119.461 254.988 119.215 254.656L118.48 255.172C118.855 255.801 119.594 256.375 120.934 256.375ZM120.902 253.078C119.746 253.078 119.152 252.203 119.152 250.953C119.152 249.734 119.73 248.75 120.902 248.75C122.027 248.75 122.621 249.656 122.621 250.953C122.621 252.281 122.012 253.078 120.902 253.078ZM126.137 250.391C126.137 249.344 126.805 248.75 127.715 248.75C128.582 248.75 129.105 249.297 129.105 250.25V254H130.027V250.188C130.027 248.645 129.207 247.922 127.98 247.922C127.035 247.922 126.496 248.316 126.215 248.937H126.137V246H125.215V254H126.137V250.391ZM134.323 248H133.042V246.562H132.12V248H131.214V248.781H132.12V252.531C132.12 253.578 132.964 254.078 133.745 254.078C134.089 254.078 134.308 254.016 134.433 253.969L134.245 253.141C134.167 253.156 134.042 253.187 133.839 253.187C133.433 253.187 133.042 253.062 133.042 252.281V248.781H134.323V248ZM141.241 254.125C142.569 254.125 143.444 253.312 143.601 252.25H142.679C142.507 252.906 141.96 253.297 141.241 253.297C140.147 253.297 139.444 252.391 139.444 251C139.444 249.641 140.163 248.75 141.241 248.75C142.054 248.75 142.538 249.25 142.679 249.797H143.601C143.444 248.672 142.491 247.922 141.226 247.922C139.601 247.922 138.522 249.203 138.522 251.031C138.522 252.828 139.554 254.125 141.241 254.125ZM148.729 251.547C148.729 252.672 147.87 253.187 147.183 253.187C146.417 253.187 145.87 252.625 145.87 251.75V248H144.948V251.812C144.948 253.344 145.761 254.078 146.886 254.078C147.792 254.078 148.386 253.594 148.667 252.984H148.729V254H149.651V248H148.729V251.547ZM151.34 254H152.262V250.203C152.262 249.391 152.902 248.797 153.777 248.797C154.023 248.797 154.277 248.844 154.34 248.859V247.922C154.234 247.914 153.992 247.906 153.855 247.906C153.137 247.906 152.512 248.312 152.293 248.906H152.23V248H151.34V254ZM160.521 248H159.521L157.865 252.781H157.803L156.146 248H155.146L157.365 254H158.303L160.521 248ZM164.039 254.125C165.258 254.125 166.148 253.516 166.43 252.609L165.539 252.359C165.305 252.984 164.762 253.297 164.039 253.297C162.957 253.297 162.211 252.598 162.168 251.312H166.523V250.922C166.523 248.687 165.195 247.922 163.945 247.922C162.32 247.922 161.242 249.203 161.242 251.047C161.242 252.891 162.305 254.125 164.039 254.125ZM162.168 250.516C162.23 249.582 162.891 248.75 163.945 248.75C164.945 248.75 165.586 249.5 165.586 250.516H162.168ZM173.285 254.125C174.441 254.125 174.832 253.406 175.035 253.078H175.145V254H176.035V246H175.113V248.953H175.035C174.832 248.641 174.473 247.922 173.301 247.922C171.785 247.922 170.738 249.125 170.738 251.016C170.738 252.922 171.785 254.125 173.285 254.125ZM173.41 253.297C172.254 253.297 171.66 252.281 171.66 251C171.66 249.734 172.238 248.75 173.41 248.75C174.535 248.75 175.129 249.656 175.129 251C175.129 252.359 174.52 253.297 173.41 253.297ZM180.289 254.125C181.914 254.125 183.008 252.891 183.008 251.031C183.008 249.156 181.914 247.922 180.289 247.922C178.664 247.922 177.57 249.156 177.57 251.031C177.57 252.891 178.664 254.125 180.289 254.125ZM180.289 253.297C179.055 253.297 178.492 252.234 178.492 251.031C178.492 249.828 179.055 248.75 180.289 248.75C181.523 248.75 182.086 249.828 182.086 251.031C182.086 252.234 181.523 253.297 180.289 253.297ZM185.57 254H186.477L187.789 249.391H187.883L189.195 254H190.102L191.93 248H190.961L189.664 252.578H189.602L188.336 248H187.352L186.07 252.594H186.008L184.711 248H183.742L185.57 254ZM194.07 250.391C194.07 249.344 194.719 248.75 195.602 248.75C196.457 248.75 196.977 249.309 196.977 250.25V254H197.898V250.188C197.898 248.656 197.082 247.922 195.867 247.922C194.961 247.922 194.398 248.328 194.117 248.937H194.039V248H193.148V254H194.07V250.391ZM203.599 250.391C203.599 249.344 204.267 248.75 205.177 248.75C206.044 248.75 206.567 249.297 206.567 250.25V254H207.489V250.188C207.489 248.645 206.669 247.922 205.442 247.922C204.497 247.922 203.958 248.316 203.677 248.937H203.599V246H202.677V254H203.599V250.391ZM211.613 254.125C213.238 254.125 214.332 252.891 214.332 251.031C214.332 249.156 213.238 247.922 211.613 247.922C209.988 247.922 208.895 249.156 208.895 251.031C208.895 252.891 209.988 254.125 211.613 254.125ZM211.613 253.297C210.379 253.297 209.816 252.234 209.816 251.031C209.816 249.828 210.379 248.75 211.613 248.75C212.848 248.75 213.41 249.828 213.41 251.031C213.41 252.234 212.848 253.297 211.613 253.297ZM218.177 254.125C219.802 254.125 220.896 252.891 220.896 251.031C220.896 249.156 219.802 247.922 218.177 247.922C216.552 247.922 215.458 249.156 215.458 251.031C215.458 252.891 216.552 254.125 218.177 254.125ZM218.177 253.297C216.942 253.297 216.38 252.234 216.38 251.031C216.38 249.828 216.942 248.75 218.177 248.75C219.411 248.75 219.974 249.828 219.974 251.031C219.974 252.234 219.411 253.297 218.177 253.297ZM222.303 254H223.225V251.754L223.869 251.156L226.115 254H227.287L224.564 250.562L227.1 248H225.959L223.334 250.672H223.225V246H222.303V254Z" fill="#333333"/>
<path d="M73 314L73 315C73 317.209 71.2091 319 69 319L61 319" stroke="#7B61FF" stroke-width="1.5" stroke-linecap="round" stroke-linejoin="round"/>
<path d="M73 315L73 313C73 310.791 71.2091 309 69 309L61 309" stroke="#7B61FF" stroke-width="1.5" stroke-linecap="round" stroke-linejoin="round"/>
<path fill-rule="evenodd" clip-rule="evenodd" d="M62.5303 306.47C62.2374 306.177 61.7626 306.177 61.4697 306.47L59.8232 308.116C59.3351 308.604 59.3351 309.396 59.8232 309.884L61.4697 311.53C61.7626 311.823 62.2374 311.823 62.5303 311.53C62.8232 311.237 62.8232 310.763 62.5303 310.47L61.0607 309L62.5303 307.53C62.8232 307.237 62.8232 306.763 62.5303 306.47Z" fill="#7B61FF"/>
<path d="M61.75 319.25C61.75 319.802 61.3023 320.25 60.75 320.25C60.1977 320.25 59.75 319.802 59.75 319.25C59.75 318.698 60.1977 318.25 60.75 318.25C61.3023 318.25 61.75 318.698 61.75 319.25Z" fill="#7B61FF" stroke="#7B61FF" stroke-width="2" stroke-linecap="round" stroke-linejoin="round"/>
<path d="M89.5156 312H88.1719V311.391C88.1719 310.797 88.4219 310.484 89.0313 310.484C89.2969 310.484 89.4531 310.547 89.5469 310.578L89.8125 309.781C89.6719 309.719 89.3906 309.625 88.9375 309.625C88.0781 309.625 87.25 310.141 87.25 311.172V312H86.2813V312.781H87.25V318H88.1719V312.781H89.5156V312ZM91.7295 310H90.8076V318H91.7295V310ZM95.8555 318.125C97.4805 318.125 98.5742 316.891 98.5742 315.031C98.5742 313.156 97.4805 311.922 95.8555 311.922C94.2305 311.922 93.1367 313.156 93.1367 315.031C93.1367 316.891 94.2305 318.125 95.8555 318.125ZM95.8555 317.297C94.6211 317.297 94.0586 316.234 94.0586 315.031C94.0586 313.828 94.6211 312.75 95.8555 312.75C97.0898 312.75 97.6523 313.828 97.6523 315.031C97.6523 316.234 97.0898 317.297 95.8555 317.297ZM101.137 318H102.043L103.355 313.391H103.449L104.762 318H105.668L107.496 312H106.527L105.23 316.578H105.168L103.902 312H102.918L101.637 316.594H101.574L100.277 312H99.3086L101.137 318ZM111.809 318H112.73V314.203C112.73 313.391 113.371 312.797 114.246 312.797C114.492 312.797 114.746 312.844 114.809 312.859V311.922C114.703 311.914 114.461 311.906 114.324 311.906C113.605 311.906 112.98 312.312 112.762 312.906H112.699V312H111.809V318ZM115.901 318H116.823V312H115.901V318ZM116.37 311C116.729 311 117.026 310.719 117.026 310.375C117.026 310.031 116.729 309.75 116.37 309.75C116.011 309.75 115.714 310.031 115.714 310.375C115.714 310.719 116.011 311 116.37 311ZM120.934 320.375C122.371 320.375 123.527 319.719 123.527 318.172V312H122.637V312.953H122.543C122.34 312.641 121.965 311.922 120.793 311.922C119.277 311.922 118.23 313.125 118.23 314.969C118.23 316.844 119.324 317.906 120.777 317.906C121.949 317.906 122.324 317.219 122.527 316.891H122.605V318.109C122.605 319.109 121.902 319.562 120.934 319.562C119.844 319.562 119.461 318.988 119.215 318.656L118.48 319.172C118.855 319.801 119.594 320.375 120.934 320.375ZM120.902 317.078C119.746 317.078 119.152 316.203 119.152 314.953C119.152 313.734 119.73 312.75 120.902 312.75C122.027 312.75 122.621 313.656 122.621 314.953C122.621 316.281 122.012 317.078 120.902 317.078ZM126.137 314.391C126.137 313.344 126.805 312.75 127.715 312.75C128.582 312.75 129.105 313.297 129.105 314.25V318H130.027V314.188C130.027 312.645 129.207 311.922 127.98 311.922C127.035 311.922 126.496 312.316 126.215 312.937H126.137V310H125.215V318H126.137V314.391ZM134.323 312H133.042V310.562H132.12V312H131.214V312.781H132.12V316.531C132.12 317.578 132.964 318.078 133.745 318.078C134.089 318.078 134.308 318.016 134.433 317.969L134.245 317.141C134.167 317.156 134.042 317.187 133.839 317.187C133.433 317.187 133.042 317.062 133.042 316.281V312.781H134.323V312ZM141.241 318.125C142.569 318.125 143.444 317.312 143.601 316.25H142.679C142.507 316.906 141.96 317.297 141.241 317.297C140.147 317.297 139.444 316.391 139.444 315C139.444 313.641 140.163 312.75 141.241 312.75C142.054 312.75 142.538 313.25 142.679 313.797H143.601C143.444 312.672 142.491 311.922 141.226 311.922C139.601 311.922 138.522 313.203 138.522 315.031C138.522 316.828 139.554 318.125 141.241 318.125ZM148.729 315.547C148.729 316.672 147.87 317.187 147.183 317.187C146.417 317.187 145.87 316.625 145.87 315.75V312H144.948V315.812C144.948 317.344 145.761 318.078 146.886 318.078C147.792 318.078 148.386 317.594 148.667 316.984H148.729V318H149.651V312H148.729V315.547ZM151.34 318H152.262V314.203C152.262 313.391 152.902 312.797 153.777 312.797C154.023 312.797 154.277 312.844 154.34 312.859V311.922C154.234 311.914 153.992 311.906 153.855 311.906C153.137 311.906 152.512 312.312 152.293 312.906H152.23V312H151.34V318ZM160.521 312H159.521L157.865 316.781H157.803L156.146 312H155.146L157.365 318H158.303L160.521 312ZM164.039 318.125C165.258 318.125 166.148 317.516 166.43 316.609L165.539 316.359C165.305 316.984 164.762 317.297 164.039 317.297C162.957 317.297 162.211 316.598 162.168 315.312H166.523V314.922C166.523 312.687 165.195 311.922 163.945 311.922C162.32 311.922 161.242 313.203 161.242 315.047C161.242 316.891 162.305 318.125 164.039 318.125ZM162.168 314.516C162.23 313.582 162.891 312.75 163.945 312.75C164.945 312.75 165.586 313.5 165.586 314.516H162.168ZM174.801 315.547C174.801 316.672 173.941 317.187 173.254 317.187C172.488 317.187 171.941 316.625 171.941 315.75V312H171.02V315.812C171.02 317.344 171.832 318.078 172.957 318.078C173.863 318.078 174.457 317.594 174.738 316.984H174.801V318H175.723V312H174.801V315.547ZM177.411 320.25H178.333V317.078H178.411C178.614 317.406 179.005 318.125 180.161 318.125C181.661 318.125 182.708 316.922 182.708 315.016C182.708 313.125 181.661 311.922 180.146 311.922C178.974 311.922 178.614 312.641 178.411 312.953H178.302V312H177.411V320.25ZM178.317 315C178.317 313.656 178.911 312.75 180.036 312.75C181.208 312.75 181.786 313.734 181.786 315C181.786 316.281 181.192 317.297 180.036 317.297C178.927 317.297 178.317 316.359 178.317 315ZM190.989 315.547C190.989 316.672 190.13 317.187 189.442 317.187C188.677 317.187 188.13 316.625 188.13 315.75V312H187.208V315.812C187.208 317.344 188.021 318.078 189.146 318.078C190.052 318.078 190.646 317.594 190.927 316.984H190.989V318H191.911V312H190.989V315.547ZM197.037 314.141H193.537V315H197.037V314.141ZM201.269 312H199.987V310.562H199.065V312H198.159V312.781H199.065V316.531C199.065 317.578 199.909 318.078 200.69 318.078C201.034 318.078 201.253 318.016 201.378 317.969L201.19 317.141C201.112 317.156 200.987 317.187 200.784 317.187C200.378 317.187 199.987 317.062 199.987 316.281V312.781H201.269V312ZM206.437 315.547C206.437 316.672 205.577 317.187 204.89 317.187C204.124 317.187 203.577 316.625 203.577 315.75V312H202.655V315.812C202.655 317.344 203.468 318.078 204.593 318.078C205.499 318.078 206.093 317.594 206.374 316.984H206.437V318H207.358V312H206.437V315.547ZM209.047 318H209.969V314.203C209.969 313.391 210.609 312.797 211.484 312.797C211.73 312.797 211.984 312.844 212.047 312.859V311.922C211.941 311.914 211.699 311.906 211.563 311.906C210.844 311.906 210.219 312.312 210 312.906H209.937V312H209.047V318ZM214.062 314.391C214.062 313.344 214.71 312.75 215.593 312.75C216.448 312.75 216.968 313.309 216.968 314.25V318H217.89V314.188C217.89 312.656 217.073 311.922 215.858 311.922C214.952 311.922 214.39 312.328 214.108 312.937H214.03V312H213.14V318H214.062V314.391Z" fill="#333333"/>
<path d="M73 346.25L73 347.25C73 349.459 71.2091 351.25 69 351.25L61 351.25" stroke="#7B61FF" stroke-width="1.5" stroke-linecap="round" stroke-linejoin="round"/>
<path d="M73 346.75L73 344.75C73 342.541 71.2091 340.75 69 340.75L66 340.75" stroke="#7B61FF" stroke-width="1.5" stroke-linecap="round" stroke-linejoin="round"/>
<path fill-rule="evenodd" clip-rule="evenodd" d="M67.5303 338.22C67.2374 337.927 66.7626 337.927 66.4697 338.22L64.8232 339.866C64.3351 340.354 64.3351 341.146 64.8232 341.634L66.4697 343.28C66.7626 343.573 67.2374 343.573 67.5303 343.28C67.8232 342.987 67.8232 342.513 67.5303 342.22L66.0607 340.75L67.5303 339.28C67.8232 338.987 67.8232 338.513 67.5303 338.22Z" fill="#7B61FF"/>
<path d="M61.75 351.25C61.75 351.802 61.3023 352.25 60.75 352.25C60.1977 352.25 59.75 351.802 59.75 351.25C59.75 350.698 60.1977 350.25 60.75 350.25C61.3023 350.25 61.75 350.698 61.75 351.25Z" fill="#7B61FF" stroke="#7B61FF" stroke-width="2" stroke-linecap="round" stroke-linejoin="round"/>
<path d="M89.5156 344H88.1719V343.391C88.1719 342.797 88.4219 342.484 89.0313 342.484C89.2969 342.484 89.4531 342.547 89.5469 342.578L89.8125 341.781C89.6719 341.719 89.3906 341.625 88.9375 341.625C88.0781 341.625 87.25 342.141 87.25 343.172V344H86.2813V344.781H87.25V350H88.1719V344.781H89.5156V344ZM91.7295 342H90.8076V350H91.7295V342ZM95.8555 350.125C97.4805 350.125 98.5742 348.891 98.5742 347.031C98.5742 345.156 97.4805 343.922 95.8555 343.922C94.2305 343.922 93.1367 345.156 93.1367 347.031C93.1367 348.891 94.2305 350.125 95.8555 350.125ZM95.8555 349.297C94.6211 349.297 94.0586 348.234 94.0586 347.031C94.0586 345.828 94.6211 344.75 95.8555 344.75C97.0898 344.75 97.6523 345.828 97.6523 347.031C97.6523 348.234 97.0898 349.297 95.8555 349.297ZM101.137 350H102.043L103.355 345.391H103.449L104.762 350H105.668L107.496 344H106.527L105.23 348.578H105.168L103.902 344H102.918L101.637 348.594H101.574L100.277 344H99.3086L101.137 350ZM111.809 350H112.73V346.203C112.73 345.391 113.371 344.797 114.246 344.797C114.492 344.797 114.746 344.844 114.809 344.859V343.922C114.703 343.914 114.461 343.906 114.324 343.906C113.605 343.906 112.98 344.312 112.762 344.906H112.699V344H111.809V350ZM115.901 350H116.823V344H115.901V350ZM116.37 343C116.729 343 117.026 342.719 117.026 342.375C117.026 342.031 116.729 341.75 116.37 341.75C116.011 341.75 115.714 342.031 115.714 342.375C115.714 342.719 116.011 343 116.37 343ZM120.934 352.375C122.371 352.375 123.527 351.719 123.527 350.172V344H122.637V344.953H122.543C122.34 344.641 121.965 343.922 120.793 343.922C119.277 343.922 118.23 345.125 118.23 346.969C118.23 348.844 119.324 349.906 120.777 349.906C121.949 349.906 122.324 349.219 122.527 348.891H122.605V350.109C122.605 351.109 121.902 351.562 120.934 351.562C119.844 351.562 119.461 350.988 119.215 350.656L118.48 351.172C118.855 351.801 119.594 352.375 120.934 352.375ZM120.902 349.078C119.746 349.078 119.152 348.203 119.152 346.953C119.152 345.734 119.73 344.75 120.902 344.75C122.027 344.75 122.621 345.656 122.621 346.953C122.621 348.281 122.012 349.078 120.902 349.078ZM126.137 346.391C126.137 345.344 126.805 344.75 127.715 344.75C128.582 344.75 129.105 345.297 129.105 346.25V350H130.027V346.188C130.027 344.645 129.207 343.922 127.98 343.922C127.035 343.922 126.496 344.316 126.215 344.937H126.137V342H125.215V350H126.137V346.391ZM134.323 344H133.042V342.562H132.12V344H131.214V344.781H132.12V348.531C132.12 349.578 132.964 350.078 133.745 350.078C134.089 350.078 134.308 350.016 134.433 349.969L134.245 349.141C134.167 349.156 134.042 349.187 133.839 349.187C133.433 349.187 133.042 349.062 133.042 348.281V344.781H134.323V344ZM141.241 350.125C142.569 350.125 143.444 349.312 143.601 348.25H142.679C142.507 348.906 141.96 349.297 141.241 349.297C140.147 349.297 139.444 348.391 139.444 347C139.444 345.641 140.163 344.75 141.241 344.75C142.054 344.75 142.538 345.25 142.679 345.797H143.601C143.444 344.672 142.491 343.922 141.226 343.922C139.601 343.922 138.522 345.203 138.522 347.031C138.522 348.828 139.554 350.125 141.241 350.125ZM148.729 347.547C148.729 348.672 147.87 349.187 147.183 349.187C146.417 349.187 145.87 348.625 145.87 347.75V344H144.948V347.812C144.948 349.344 145.761 350.078 146.886 350.078C147.792 350.078 148.386 349.594 148.667 348.984H148.729V350H149.651V344H148.729V347.547ZM151.34 350H152.262V346.203C152.262 345.391 152.902 344.797 153.777 344.797C154.023 344.797 154.277 344.844 154.34 344.859V343.922C154.234 343.914 153.992 343.906 153.855 343.906C153.137 343.906 152.512 344.312 152.293 344.906H152.23V344H151.34V350ZM160.521 344H159.521L157.865 348.781H157.803L156.146 344H155.146L157.365 350H158.303L160.521 344ZM164.039 350.125C165.258 350.125 166.148 349.516 166.43 348.609L165.539 348.359C165.305 348.984 164.762 349.297 164.039 349.297C162.957 349.297 162.211 348.598 162.168 347.312H166.523V346.922C166.523 344.687 165.195 343.922 163.945 343.922C162.32 343.922 161.242 345.203 161.242 347.047C161.242 348.891 162.305 350.125 164.039 350.125ZM162.168 346.516C162.23 345.582 162.891 344.75 163.945 344.75C164.945 344.75 165.586 345.5 165.586 346.516H162.168ZM174.801 347.547C174.801 348.672 173.941 349.187 173.254 349.187C172.488 349.187 171.941 348.625 171.941 347.75V344H171.02V347.812C171.02 349.344 171.832 350.078 172.957 350.078C173.863 350.078 174.457 349.594 174.738 348.984H174.801V350H175.723V344H174.801V347.547ZM177.411 352.25H178.333V349.078H178.411C178.614 349.406 179.005 350.125 180.161 350.125C181.661 350.125 182.708 348.922 182.708 347.016C182.708 345.125 181.661 343.922 180.146 343.922C178.974 343.922 178.614 344.641 178.411 344.953H178.302V344H177.411V352.25ZM178.317 347C178.317 345.656 178.911 344.75 180.036 344.75C181.208 344.75 181.786 345.734 181.786 347C181.786 348.281 181.192 349.297 180.036 349.297C178.927 349.297 178.317 348.359 178.317 347ZM188.13 346.391C188.13 345.344 188.798 344.75 189.708 344.75C190.575 344.75 191.099 345.297 191.099 346.25V350H192.021V346.188C192.021 344.645 191.2 343.922 189.974 343.922C189.028 343.922 188.489 344.316 188.208 344.937H188.13V342H187.208V350H188.13V346.391ZM196.145 350.125C197.77 350.125 198.863 348.891 198.863 347.031C198.863 345.156 197.77 343.922 196.145 343.922C194.52 343.922 193.426 345.156 193.426 347.031C193.426 348.891 194.52 350.125 196.145 350.125ZM196.145 349.297C194.91 349.297 194.348 348.234 194.348 347.031C194.348 345.828 194.91 344.75 196.145 344.75C197.379 344.75 197.941 345.828 197.941 347.031C197.941 348.234 197.379 349.297 196.145 349.297ZM202.708 350.125C204.333 350.125 205.427 348.891 205.427 347.031C205.427 345.156 204.333 343.922 202.708 343.922C201.083 343.922 199.989 345.156 199.989 347.031C199.989 348.891 201.083 350.125 202.708 350.125ZM202.708 349.297C201.474 349.297 200.911 348.234 200.911 347.031C200.911 345.828 201.474 344.75 202.708 344.75C203.942 344.75 204.505 345.828 204.505 347.031C204.505 348.234 203.942 349.297 202.708 349.297ZM206.834 350H207.756V347.754L208.4 347.156L210.646 350H211.818L209.096 346.562L211.631 344H210.49L207.865 346.672H207.756V342H206.834V350Z" fill="#333333"/>
<path d="M66 379L66 377C66 374.791 64.2091 373 62 373L60 373" stroke="#7B61FF" stroke-width="1.5" stroke-linecap="round" stroke-linejoin="round"/>
<path d="M66 377.25L66 379.25C66 381.459 67.7909 383.25 70 383.25L72 383.25" stroke="#7B61FF" stroke-width="1.5" stroke-linecap="round" stroke-linejoin="round"/>
<path fill-rule="evenodd" clip-rule="evenodd" d="M70.7197 385.78C71.0126 386.073 71.4874 386.073 71.7803 385.78L73.4268 384.134C73.9149 383.646 73.9149 382.854 73.4268 382.366L71.7803 380.72C71.4874 380.427 71.0126 380.427 70.7197 380.72C70.4268 381.013 70.4268 381.487 70.7197 381.78L72.1893 383.25L70.7197 384.72C70.4268 385.013 70.4268 385.487 70.7197 385.78Z" fill="#7B61FF"/>
<path d="M61.75 373C61.75 372.448 61.3023 372 60.75 372C60.1977 372 59.75 372.448 59.75 373C59.75 373.552 60.1977 374 60.75 374C61.3023 374 61.75 373.552 61.75 373Z" fill="#7B61FF" stroke="#7B61FF" stroke-width="2" stroke-linecap="round" stroke-linejoin="round"/>
<path d="M89.5156 376H88.1719V375.391C88.1719 374.797 88.4219 374.484 89.0313 374.484C89.2969 374.484 89.4531 374.547 89.5469 374.578L89.8125 373.781C89.6719 373.719 89.3906 373.625 88.9375 373.625C88.0781 373.625 87.25 374.141 87.25 375.172V376H86.2813V376.781H87.25V382H88.1719V376.781H89.5156V376ZM91.7295 374H90.8076V382H91.7295V374ZM95.8555 382.125C97.4805 382.125 98.5742 380.891 98.5742 379.031C98.5742 377.156 97.4805 375.922 95.8555 375.922C94.2305 375.922 93.1367 377.156 93.1367 379.031C93.1367 380.891 94.2305 382.125 95.8555 382.125ZM95.8555 381.297C94.6211 381.297 94.0586 380.234 94.0586 379.031C94.0586 377.828 94.6211 376.75 95.8555 376.75C97.0898 376.75 97.6523 377.828 97.6523 379.031C97.6523 380.234 97.0898 381.297 95.8555 381.297ZM101.137 382H102.043L103.355 377.391H103.449L104.762 382H105.668L107.496 376H106.527L105.23 380.578H105.168L103.902 376H102.918L101.637 380.594H101.574L100.277 376H99.3086L101.137 382ZM111.809 382H112.73V378.203C112.73 377.391 113.371 376.797 114.246 376.797C114.492 376.797 114.746 376.844 114.809 376.859V375.922C114.703 375.914 114.461 375.906 114.324 375.906C113.605 375.906 112.98 376.312 112.762 376.906H112.699V376H111.809V382ZM115.901 382H116.823V376H115.901V382ZM116.37 375C116.729 375 117.026 374.719 117.026 374.375C117.026 374.031 116.729 373.75 116.37 373.75C116.011 373.75 115.714 374.031 115.714 374.375C115.714 374.719 116.011 375 116.37 375ZM120.934 384.375C122.371 384.375 123.527 383.719 123.527 382.172V376H122.637V376.953H122.543C122.34 376.641 121.965 375.922 120.793 375.922C119.277 375.922 118.23 377.125 118.23 378.969C118.23 380.844 119.324 381.906 120.777 381.906C121.949 381.906 122.324 381.219 122.527 380.891H122.605V382.109C122.605 383.109 121.902 383.562 120.934 383.562C119.844 383.562 119.461 382.988 119.215 382.656L118.48 383.172C118.855 383.801 119.594 384.375 120.934 384.375ZM120.902 381.078C119.746 381.078 119.152 380.203 119.152 378.953C119.152 377.734 119.73 376.75 120.902 376.75C122.027 376.75 122.621 377.656 122.621 378.953C122.621 380.281 122.012 381.078 120.902 381.078ZM126.137 378.391C126.137 377.344 126.805 376.75 127.715 376.75C128.582 376.75 129.105 377.297 129.105 378.25V382H130.027V378.188C130.027 376.645 129.207 375.922 127.98 375.922C127.035 375.922 126.496 376.316 126.215 376.937H126.137V374H125.215V382H126.137V378.391ZM134.323 376H133.042V374.562H132.12V376H131.214V376.781H132.12V380.531C132.12 381.578 132.964 382.078 133.745 382.078C134.089 382.078 134.308 382.016 134.433 381.969L134.245 381.141C134.167 381.156 134.042 381.187 133.839 381.187C133.433 381.187 133.042 381.062 133.042 380.281V376.781H134.323V376ZM143.054 377.344C142.765 376.492 142.116 375.922 140.929 375.922C139.663 375.922 138.726 376.641 138.726 377.656C138.726 378.484 139.218 379.039 140.319 379.297L141.319 379.531C141.925 379.672 142.21 379.961 142.21 380.375C142.21 380.891 141.663 381.312 140.804 381.312C140.05 381.312 139.577 380.988 139.413 380.344L138.538 380.562C138.753 381.582 139.593 382.125 140.819 382.125C142.214 382.125 143.163 381.363 143.163 380.328C143.163 379.492 142.64 378.965 141.569 378.703L140.679 378.484C139.968 378.309 139.647 378.07 139.647 377.609C139.647 377.094 140.194 376.719 140.929 376.719C141.733 376.719 142.065 377.164 142.226 377.578L143.054 377.344ZM145.473 378.391C145.473 377.344 146.121 376.75 147.004 376.75C147.859 376.75 148.379 377.309 148.379 378.25V382H149.301V378.188C149.301 376.656 148.484 375.922 147.27 375.922C146.363 375.922 145.801 376.328 145.52 376.937H145.441V376H144.551V382H145.473V378.391ZM152.751 382.141C153.798 382.141 154.345 381.578 154.532 381.187H154.579V382H155.501V378.047C155.501 376.141 154.048 375.922 153.282 375.922C152.376 375.922 151.345 376.234 150.876 377.328L151.751 377.641C151.954 377.203 152.435 376.734 153.313 376.734C154.161 376.734 154.579 377.184 154.579 377.953V377.984C154.579 378.43 154.126 378.391 153.032 378.531C151.919 378.676 150.704 378.922 150.704 380.297C150.704 381.469 151.61 382.141 152.751 382.141ZM152.892 381.312C152.157 381.312 151.626 380.984 151.626 380.344C151.626 379.641 152.267 379.422 152.985 379.328C153.376 379.281 154.423 379.172 154.579 378.984V379.828C154.579 380.578 153.985 381.312 152.892 381.312ZM157.184 382H158.105V379.754L158.75 379.156L160.996 382H162.168L159.445 378.562L161.98 376H160.84L158.215 378.672H158.105V374H157.184V382ZM165.436 382.125C166.654 382.125 167.545 381.516 167.826 380.609L166.936 380.359C166.701 380.984 166.158 381.297 165.436 381.297C164.354 381.297 163.607 380.598 163.564 379.312H167.92V378.922C167.92 376.687 166.592 375.922 165.342 375.922C163.717 375.922 162.639 377.203 162.639 379.047C162.639 380.891 163.701 382.125 165.436 382.125ZM163.564 378.516C163.627 377.582 164.287 376.75 165.342 376.75C166.342 376.75 166.982 377.5 166.982 378.516H163.564ZM174.682 382.125C175.838 382.125 176.229 381.406 176.432 381.078H176.541V382H177.432V374H176.51V376.953H176.432C176.229 376.641 175.869 375.922 174.697 375.922C173.182 375.922 172.135 377.125 172.135 379.016C172.135 380.922 173.182 382.125 174.682 382.125ZM174.807 381.297C173.65 381.297 173.057 380.281 173.057 379C173.057 377.734 173.635 376.75 174.807 376.75C175.932 376.75 176.525 377.656 176.525 379C176.525 380.359 175.916 381.297 174.807 381.297ZM181.686 382.125C183.311 382.125 184.404 380.891 184.404 379.031C184.404 377.156 183.311 375.922 181.686 375.922C180.061 375.922 178.967 377.156 178.967 379.031C178.967 380.891 180.061 382.125 181.686 382.125ZM181.686 381.297C180.451 381.297 179.889 380.234 179.889 379.031C179.889 377.828 180.451 376.75 181.686 376.75C182.92 376.75 183.482 377.828 183.482 379.031C183.482 380.234 182.92 381.297 181.686 381.297ZM186.967 382H187.873L189.186 377.391H189.279L190.592 382H191.498L193.326 376H192.357L191.061 380.578H190.998L189.732 376H188.748L187.467 380.594H187.404L186.107 376H185.139L186.967 382ZM195.467 378.391C195.467 377.344 196.115 376.75 196.998 376.75C197.854 376.75 198.373 377.309 198.373 378.25V382H199.295V378.188C199.295 376.656 198.479 375.922 197.264 375.922C196.357 375.922 195.795 376.328 195.514 376.937H195.436V376H194.545V382H195.467V378.391Z" fill="#333333"/>
<path d="M66 441L66 443C66 445.209 64.2091 447 62 447L60 447" stroke="#7B61FF" stroke-width="1.5" stroke-linecap="round" stroke-linejoin="round"/>
<path d="M66 442.75L66 440.75C66 438.541 67.7909 436.75 70 436.75L72 436.75" stroke="#7B61FF" stroke-width="1.5" stroke-linecap="round" stroke-linejoin="round"/>
<path fill-rule="evenodd" clip-rule="evenodd" d="M70.7197 434.22C71.0126 433.927 71.4874 433.927 71.7803 434.22L73.4268 435.866C73.9149 436.354 73.9149 437.146 73.4268 437.634L71.7803 439.28C71.4874 439.573 71.0126 439.573 70.7197 439.28C70.4268 438.987 70.4268 438.513 70.7197 438.22L72.1893 436.75L70.7197 435.28C70.4268 434.987 70.4268 434.513 70.7197 434.22Z" fill="#7B61FF"/>
<path d="M61.75 447C61.75 447.552 61.3023 448 60.75 448C60.1977 448 59.75 447.552 59.75 447C59.75 446.448 60.1977 446 60.75 446C61.3023 446 61.75 446.448 61.75 447Z" fill="#7B61FF" stroke="#7B61FF" stroke-width="2" stroke-linecap="round" stroke-linejoin="round"/>
<path d="M89.5156 440H88.1719V439.391C88.1719 438.797 88.4219 438.484 89.0313 438.484C89.2969 438.484 89.4531 438.547 89.5469 438.578L89.8125 437.781C89.6719 437.719 89.3906 437.625 88.9375 437.625C88.0781 437.625 87.25 438.141 87.25 439.172V440H86.2813V440.781H87.25V446H88.1719V440.781H89.5156V440ZM91.7295 438H90.8076V446H91.7295V438ZM95.8555 446.125C97.4805 446.125 98.5742 444.891 98.5742 443.031C98.5742 441.156 97.4805 439.922 95.8555 439.922C94.2305 439.922 93.1367 441.156 93.1367 443.031C93.1367 444.891 94.2305 446.125 95.8555 446.125ZM95.8555 445.297C94.6211 445.297 94.0586 444.234 94.0586 443.031C94.0586 441.828 94.6211 440.75 95.8555 440.75C97.0898 440.75 97.6523 441.828 97.6523 443.031C97.6523 444.234 97.0898 445.297 95.8555 445.297ZM101.137 446H102.043L103.355 441.391H103.449L104.762 446H105.668L107.496 440H106.527L105.23 444.578H105.168L103.902 440H102.918L101.637 444.594H101.574L100.277 440H99.3086L101.137 446ZM111.809 446H112.73V442.203C112.73 441.391 113.371 440.797 114.246 440.797C114.492 440.797 114.746 440.844 114.809 440.859V439.922C114.703 439.914 114.461 439.906 114.324 439.906C113.605 439.906 112.98 440.312 112.762 440.906H112.699V440H111.809V446ZM115.901 446H116.823V440H115.901V446ZM116.37 439C116.729 439 117.026 438.719 117.026 438.375C117.026 438.031 116.729 437.75 116.37 437.75C116.011 437.75 115.714 438.031 115.714 438.375C115.714 438.719 116.011 439 116.37 439ZM120.934 448.375C122.371 448.375 123.527 447.719 123.527 446.172V440H122.637V440.953H122.543C122.34 440.641 121.965 439.922 120.793 439.922C119.277 439.922 118.23 441.125 118.23 442.969C118.23 444.844 119.324 445.906 120.777 445.906C121.949 445.906 122.324 445.219 122.527 444.891H122.605V446.109C122.605 447.109 121.902 447.562 120.934 447.562C119.844 447.562 119.461 446.988 119.215 446.656L118.48 447.172C118.855 447.801 119.594 448.375 120.934 448.375ZM120.902 445.078C119.746 445.078 119.152 444.203 119.152 442.953C119.152 441.734 119.73 440.75 120.902 440.75C122.027 440.75 122.621 441.656 122.621 442.953C122.621 444.281 122.012 445.078 120.902 445.078ZM126.137 442.391C126.137 441.344 126.805 440.75 127.715 440.75C128.582 440.75 129.105 441.297 129.105 442.25V446H130.027V442.188C130.027 440.645 129.207 439.922 127.98 439.922C127.035 439.922 126.496 440.316 126.215 440.937H126.137V438H125.215V446H126.137V442.391ZM134.323 440H133.042V438.562H132.12V440H131.214V440.781H132.12V444.531C132.12 445.578 132.964 446.078 133.745 446.078C134.089 446.078 134.308 446.016 134.433 445.969L134.245 445.141C134.167 445.156 134.042 445.187 133.839 445.187C133.433 445.187 133.042 445.062 133.042 444.281V440.781H134.323V440ZM143.054 441.344C142.765 440.492 142.116 439.922 140.929 439.922C139.663 439.922 138.726 440.641 138.726 441.656C138.726 442.484 139.218 443.039 140.319 443.297L141.319 443.531C141.925 443.672 142.21 443.961 142.21 444.375C142.21 444.891 141.663 445.312 140.804 445.312C140.05 445.312 139.577 444.988 139.413 444.344L138.538 444.562C138.753 445.582 139.593 446.125 140.819 446.125C142.214 446.125 143.163 445.363 143.163 444.328C143.163 443.492 142.64 442.965 141.569 442.703L140.679 442.484C139.968 442.309 139.647 442.07 139.647 441.609C139.647 441.094 140.194 440.719 140.929 440.719C141.733 440.719 142.065 441.164 142.226 441.578L143.054 441.344ZM145.473 442.391C145.473 441.344 146.121 440.75 147.004 440.75C147.859 440.75 148.379 441.309 148.379 442.25V446H149.301V442.188C149.301 440.656 148.484 439.922 147.27 439.922C146.363 439.922 145.801 440.328 145.52 440.937H145.441V440H144.551V446H145.473V442.391ZM152.751 446.141C153.798 446.141 154.345 445.578 154.532 445.187H154.579V446H155.501V442.047C155.501 440.141 154.048 439.922 153.282 439.922C152.376 439.922 151.345 440.234 150.876 441.328L151.751 441.641C151.954 441.203 152.435 440.734 153.313 440.734C154.161 440.734 154.579 441.184 154.579 441.953V441.984C154.579 442.43 154.126 442.391 153.032 442.531C151.919 442.676 150.704 442.922 150.704 444.297C150.704 445.469 151.61 446.141 152.751 446.141ZM152.892 445.312C152.157 445.312 151.626 444.984 151.626 444.344C151.626 443.641 152.267 443.422 152.985 443.328C153.376 443.281 154.423 443.172 154.579 442.984V443.828C154.579 444.578 153.985 445.312 152.892 445.312ZM157.184 446H158.105V443.754L158.75 443.156L160.996 446H162.168L159.445 442.562L161.98 440H160.84L158.215 442.672H158.105V438H157.184V446ZM165.436 446.125C166.654 446.125 167.545 445.516 167.826 444.609L166.936 444.359C166.701 444.984 166.158 445.297 165.436 445.297C164.354 445.297 163.607 444.598 163.564 443.312H167.92V442.922C167.92 440.687 166.592 439.922 165.342 439.922C163.717 439.922 162.639 441.203 162.639 443.047C162.639 444.891 163.701 446.125 165.436 446.125ZM163.564 442.516C163.627 441.582 164.287 440.75 165.342 440.75C166.342 440.75 166.982 441.5 166.982 442.516H163.564ZM176.197 443.547C176.197 444.672 175.338 445.187 174.65 445.187C173.885 445.187 173.338 444.625 173.338 443.75V440H172.416V443.812C172.416 445.344 173.229 446.078 174.354 446.078C175.26 446.078 175.854 445.594 176.135 444.984H176.197V446H177.119V440H176.197V443.547ZM178.808 448.25H179.729V445.078H179.808C180.011 445.406 180.401 446.125 181.558 446.125C183.058 446.125 184.104 444.922 184.104 443.016C184.104 441.125 183.058 439.922 181.542 439.922C180.37 439.922 180.011 440.641 179.808 440.953H179.698V440H178.808V448.25ZM179.714 443C179.714 441.656 180.308 440.75 181.433 440.75C182.604 440.75 183.183 441.734 183.183 443C183.183 444.281 182.589 445.297 181.433 445.297C180.323 445.297 179.714 444.359 179.714 443Z" fill="#333333"/>
<path d="M71.25 410.25L71.25 412.25C71.25 413.907 69.9069 415.25 68.25 415.25V415.25" stroke="#7B61FF" stroke-width="1.5" stroke-linecap="round" stroke-linejoin="round"/>
<path d="M66 410.75L66 408.75C66 406.541 64.2091 404.75 62 404.75L60.6667 404.75" stroke="#7B61FF" stroke-width="1.5" stroke-linecap="round" stroke-linejoin="round"/>
<path d="M66 410.75L66 412.75C66 414.131 67.1193 415.25 68.5 415.25V415.25" stroke="#7B61FF" stroke-width="1.5" stroke-linecap="round" stroke-linejoin="round"/>
<path fill-rule="evenodd" clip-rule="evenodd" d="M73.7803 411.53C74.0732 411.237 74.0732 410.763 73.7803 410.47L72.1339 408.823C71.6457 408.335 70.8543 408.335 70.3661 408.823L68.7197 410.47C68.4268 410.763 68.4268 411.237 68.7197 411.53C69.0126 411.823 69.4874 411.823 69.7803 411.53L71.25 410.061L72.7197 411.53C73.0126 411.823 73.4874 411.823 73.7803 411.53Z" fill="#7B61FF"/>
<path d="M61.75 404.75C61.75 404.198 61.3023 403.75 60.75 403.75C60.1977 403.75 59.75 404.198 59.75 404.75C59.75 405.302 60.1977 405.75 60.75 405.75C61.3023 405.75 61.75 405.302 61.75 404.75Z" fill="#7B61FF" stroke="#7B61FF" stroke-width="2" stroke-linecap="round" stroke-linejoin="round"/>
<path d="M89.5156 408H88.1719V407.391C88.1719 406.797 88.4219 406.484 89.0313 406.484C89.2969 406.484 89.4531 406.547 89.5469 406.578L89.8125 405.781C89.6719 405.719 89.3906 405.625 88.9375 405.625C88.0781 405.625 87.25 406.141 87.25 407.172V408H86.2813V408.781H87.25V414H88.1719V408.781H89.5156V408ZM91.7295 406H90.8076V414H91.7295V406ZM95.8555 414.125C97.4805 414.125 98.5742 412.891 98.5742 411.031C98.5742 409.156 97.4805 407.922 95.8555 407.922C94.2305 407.922 93.1367 409.156 93.1367 411.031C93.1367 412.891 94.2305 414.125 95.8555 414.125ZM95.8555 413.297C94.6211 413.297 94.0586 412.234 94.0586 411.031C94.0586 409.828 94.6211 408.75 95.8555 408.75C97.0898 408.75 97.6523 409.828 97.6523 411.031C97.6523 412.234 97.0898 413.297 95.8555 413.297ZM101.137 414H102.043L103.355 409.391H103.449L104.762 414H105.668L107.496 408H106.527L105.23 412.578H105.168L103.902 408H102.918L101.637 412.594H101.574L100.277 408H99.3086L101.137 414ZM111.809 414H112.73V410.203C112.73 409.391 113.371 408.797 114.246 408.797C114.492 408.797 114.746 408.844 114.809 408.859V407.922C114.703 407.914 114.461 407.906 114.324 407.906C113.605 407.906 112.98 408.312 112.762 408.906H112.699V408H111.809V414ZM115.901 414H116.823V408H115.901V414ZM116.37 407C116.729 407 117.026 406.719 117.026 406.375C117.026 406.031 116.729 405.75 116.37 405.75C116.011 405.75 115.714 406.031 115.714 406.375C115.714 406.719 116.011 407 116.37 407ZM120.934 416.375C122.371 416.375 123.527 415.719 123.527 414.172V408H122.637V408.953H122.543C122.34 408.641 121.965 407.922 120.793 407.922C119.277 407.922 118.23 409.125 118.23 410.969C118.23 412.844 119.324 413.906 120.777 413.906C121.949 413.906 122.324 413.219 122.527 412.891H122.605V414.109C122.605 415.109 121.902 415.562 120.934 415.562C119.844 415.562 119.461 414.988 119.215 414.656L118.48 415.172C118.855 415.801 119.594 416.375 120.934 416.375ZM120.902 413.078C119.746 413.078 119.152 412.203 119.152 410.953C119.152 409.734 119.73 408.75 120.902 408.75C122.027 408.75 122.621 409.656 122.621 410.953C122.621 412.281 122.012 413.078 120.902 413.078ZM126.137 410.391C126.137 409.344 126.805 408.75 127.715 408.75C128.582 408.75 129.105 409.297 129.105 410.25V414H130.027V410.188C130.027 408.645 129.207 407.922 127.98 407.922C127.035 407.922 126.496 408.316 126.215 408.937H126.137V406H125.215V414H126.137V410.391ZM134.323 408H133.042V406.562H132.12V408H131.214V408.781H132.12V412.531C132.12 413.578 132.964 414.078 133.745 414.078C134.089 414.078 134.308 414.016 134.433 413.969L134.245 413.141C134.167 413.156 134.042 413.187 133.839 413.187C133.433 413.187 133.042 413.062 133.042 412.281V408.781H134.323V408ZM143.054 409.344C142.765 408.492 142.116 407.922 140.929 407.922C139.663 407.922 138.726 408.641 138.726 409.656C138.726 410.484 139.218 411.039 140.319 411.297L141.319 411.531C141.925 411.672 142.21 411.961 142.21 412.375C142.21 412.891 141.663 413.312 140.804 413.312C140.05 413.312 139.577 412.988 139.413 412.344L138.538 412.562C138.753 413.582 139.593 414.125 140.819 414.125C142.214 414.125 143.163 413.363 143.163 412.328C143.163 411.492 142.64 410.965 141.569 410.703L140.679 410.484C139.968 410.309 139.647 410.07 139.647 409.609C139.647 409.094 140.194 408.719 140.929 408.719C141.733 408.719 142.065 409.164 142.226 409.578L143.054 409.344ZM145.473 410.391C145.473 409.344 146.121 408.75 147.004 408.75C147.859 408.75 148.379 409.309 148.379 410.25V414H149.301V410.188C149.301 408.656 148.484 407.922 147.27 407.922C146.363 407.922 145.801 408.328 145.52 408.937H145.441V408H144.551V414H145.473V410.391ZM152.751 414.141C153.798 414.141 154.345 413.578 154.532 413.187H154.579V414H155.501V410.047C155.501 408.141 154.048 407.922 153.282 407.922C152.376 407.922 151.345 408.234 150.876 409.328L151.751 409.641C151.954 409.203 152.435 408.734 153.313 408.734C154.161 408.734 154.579 409.184 154.579 409.953V409.984C154.579 410.43 154.126 410.391 153.032 410.531C151.919 410.676 150.704 410.922 150.704 412.297C150.704 413.469 151.61 414.141 152.751 414.141ZM152.892 413.312C152.157 413.312 151.626 412.984 151.626 412.344C151.626 411.641 152.267 411.422 152.985 411.328C153.376 411.281 154.423 411.172 154.579 410.984V411.828C154.579 412.578 153.985 413.312 152.892 413.312ZM157.184 414H158.105V411.754L158.75 411.156L160.996 414H162.168L159.445 410.562L161.98 408H160.84L158.215 410.672H158.105V406H157.184V414ZM165.436 414.125C166.654 414.125 167.545 413.516 167.826 412.609L166.936 412.359C166.701 412.984 166.158 413.297 165.436 413.297C164.354 413.297 163.607 412.598 163.564 411.312H167.92V410.922C167.92 408.687 166.592 407.922 165.342 407.922C163.717 407.922 162.639 409.203 162.639 411.047C162.639 412.891 163.701 414.125 165.436 414.125ZM163.564 410.516C163.627 409.582 164.287 408.75 165.342 408.75C166.342 408.75 166.982 409.5 166.982 410.516H163.564ZM174.682 414.125C175.838 414.125 176.229 413.406 176.432 413.078H176.541V414H177.432V406H176.51V408.953H176.432C176.229 408.641 175.869 407.922 174.697 407.922C173.182 407.922 172.135 409.125 172.135 411.016C172.135 412.922 173.182 414.125 174.682 414.125ZM174.807 413.297C173.65 413.297 173.057 412.281 173.057 411C173.057 409.734 173.635 408.75 174.807 408.75C175.932 408.75 176.525 409.656 176.525 411C176.525 412.359 175.916 413.297 174.807 413.297ZM181.686 414.125C183.311 414.125 184.404 412.891 184.404 411.031C184.404 409.156 183.311 407.922 181.686 407.922C180.061 407.922 178.967 409.156 178.967 411.031C178.967 412.891 180.061 414.125 181.686 414.125ZM181.686 413.297C180.451 413.297 179.889 412.234 179.889 411.031C179.889 409.828 180.451 408.75 181.686 408.75C182.92 408.75 183.482 409.828 183.482 411.031C183.482 412.234 182.92 413.297 181.686 413.297ZM186.967 414H187.873L189.186 409.391H189.279L190.592 414H191.498L193.326 408H192.357L191.061 412.578H190.998L189.732 408H188.748L187.467 412.594H187.404L186.107 408H185.139L186.967 414ZM195.467 410.391C195.467 409.344 196.115 408.75 196.998 408.75C197.854 408.75 198.373 409.309 198.373 410.25V414H199.295V410.188C199.295 408.656 198.479 407.922 197.264 407.922C196.357 407.922 195.795 408.328 195.514 408.937H195.436V408H194.545V414H195.467V410.391ZM204.995 410.391C204.995 409.344 205.663 408.75 206.573 408.75C207.44 408.75 207.964 409.297 207.964 410.25V414H208.886V410.188C208.886 408.645 208.065 407.922 206.839 407.922C205.894 407.922 205.354 408.316 205.073 408.937H204.995V406H204.073V414H204.995V410.391ZM213.01 414.125C214.635 414.125 215.729 412.891 215.729 411.031C215.729 409.156 214.635 407.922 213.01 407.922C211.385 407.922 210.291 409.156 210.291 411.031C210.291 412.891 211.385 414.125 213.01 414.125ZM213.01 413.297C211.775 413.297 211.213 412.234 211.213 411.031C211.213 409.828 211.775 408.75 213.01 408.75C214.244 408.75 214.807 409.828 214.807 411.031C214.807 412.234 214.244 413.297 213.01 413.297ZM219.573 414.125C221.198 414.125 222.292 412.891 222.292 411.031C222.292 409.156 221.198 407.922 219.573 407.922C217.948 407.922 216.854 409.156 216.854 411.031C216.854 412.891 217.948 414.125 219.573 414.125ZM219.573 413.297C218.339 413.297 217.776 412.234 217.776 411.031C217.776 409.828 218.339 408.75 219.573 408.75C220.808 408.75 221.37 409.828 221.37 411.031C221.37 412.234 220.808 413.297 219.573 413.297ZM223.699 414H224.621V411.754L225.266 411.156L227.512 414H228.684L225.961 410.562L228.496 408H227.355L224.73 410.672H224.621V406H223.699V414Z" fill="#333333"/>
<path d="M71.25 473.75L71.25 471.75C71.25 470.093 69.9069 468.75 68.25 468.75V468.75" stroke="#7B61FF" stroke-width="1.5" stroke-linecap="round" stroke-linejoin="round"/>
<path d="M66 473.25L66 475.25C66 477.459 64.2091 479.25 62 479.25L60.6667 479.25" stroke="#7B61FF" stroke-width="1.5" stroke-linecap="round" stroke-linejoin="round"/>
<path d="M66 473.25L66 471.25C66 469.869 67.1193 468.75 68.5 468.75V468.75" stroke="#7B61FF" stroke-width="1.5" stroke-linecap="round" stroke-linejoin="round"/>
<path fill-rule="evenodd" clip-rule="evenodd" d="M73.7803 472.47C74.0732 472.763 74.0732 473.237 73.7803 473.53L72.1339 475.177C71.6457 475.665 70.8543 475.665 70.3661 475.177L68.7197 473.53C68.4268 473.237 68.4268 472.763 68.7197 472.47C69.0126 472.177 69.4874 472.177 69.7803 472.47L71.25 473.939L72.7197 472.47C73.0126 472.177 73.4874 472.177 73.7803 472.47Z" fill="#7B61FF"/>
<path d="M61.75 479.25C61.75 479.802 61.3023 480.25 60.75 480.25C60.1977 480.25 59.75 479.802 59.75 479.25C59.75 478.698 60.1977 478.25 60.75 478.25C61.3023 478.25 61.75 478.698 61.75 479.25Z" fill="#7B61FF" stroke="#7B61FF" stroke-width="2" stroke-linecap="round" stroke-linejoin="round"/>
<path d="M89.5156 472H88.1719V471.391C88.1719 470.797 88.4219 470.484 89.0313 470.484C89.2969 470.484 89.4531 470.547 89.5469 470.578L89.8125 469.781C89.6719 469.719 89.3906 469.625 88.9375 469.625C88.0781 469.625 87.25 470.141 87.25 471.172V472H86.2813V472.781H87.25V478H88.1719V472.781H89.5156V472ZM91.7295 470H90.8076V478H91.7295V470ZM95.8555 478.125C97.4805 478.125 98.5742 476.891 98.5742 475.031C98.5742 473.156 97.4805 471.922 95.8555 471.922C94.2305 471.922 93.1367 473.156 93.1367 475.031C93.1367 476.891 94.2305 478.125 95.8555 478.125ZM95.8555 477.297C94.6211 477.297 94.0586 476.234 94.0586 475.031C94.0586 473.828 94.6211 472.75 95.8555 472.75C97.0898 472.75 97.6523 473.828 97.6523 475.031C97.6523 476.234 97.0898 477.297 95.8555 477.297ZM101.137 478H102.043L103.355 473.391H103.449L104.762 478H105.668L107.496 472H106.527L105.23 476.578H105.168L103.902 472H102.918L101.637 476.594H101.574L100.277 472H99.3086L101.137 478ZM111.809 478H112.73V474.203C112.73 473.391 113.371 472.797 114.246 472.797C114.492 472.797 114.746 472.844 114.809 472.859V471.922C114.703 471.914 114.461 471.906 114.324 471.906C113.605 471.906 112.98 472.312 112.762 472.906H112.699V472H111.809V478ZM115.901 478H116.823V472H115.901V478ZM116.37 471C116.729 471 117.026 470.719 117.026 470.375C117.026 470.031 116.729 469.75 116.37 469.75C116.011 469.75 115.714 470.031 115.714 470.375C115.714 470.719 116.011 471 116.37 471ZM120.934 480.375C122.371 480.375 123.527 479.719 123.527 478.172V472H122.637V472.953H122.543C122.34 472.641 121.965 471.922 120.793 471.922C119.277 471.922 118.23 473.125 118.23 474.969C118.23 476.844 119.324 477.906 120.777 477.906C121.949 477.906 122.324 477.219 122.527 476.891H122.605V478.109C122.605 479.109 121.902 479.562 120.934 479.562C119.844 479.562 119.461 478.988 119.215 478.656L118.48 479.172C118.855 479.801 119.594 480.375 120.934 480.375ZM120.902 477.078C119.746 477.078 119.152 476.203 119.152 474.953C119.152 473.734 119.73 472.75 120.902 472.75C122.027 472.75 122.621 473.656 122.621 474.953C122.621 476.281 122.012 477.078 120.902 477.078ZM126.137 474.391C126.137 473.344 126.805 472.75 127.715 472.75C128.582 472.75 129.105 473.297 129.105 474.25V478H130.027V474.188C130.027 472.645 129.207 471.922 127.98 471.922C127.035 471.922 126.496 472.316 126.215 472.937H126.137V470H125.215V478H126.137V474.391ZM134.323 472H133.042V470.562H132.12V472H131.214V472.781H132.12V476.531C132.12 477.578 132.964 478.078 133.745 478.078C134.089 478.078 134.308 478.016 134.433 477.969L134.245 477.141C134.167 477.156 134.042 477.187 133.839 477.187C133.433 477.187 133.042 477.062 133.042 476.281V472.781H134.323V472ZM143.054 473.344C142.765 472.492 142.116 471.922 140.929 471.922C139.663 471.922 138.726 472.641 138.726 473.656C138.726 474.484 139.218 475.039 140.319 475.297L141.319 475.531C141.925 475.672 142.21 475.961 142.21 476.375C142.21 476.891 141.663 477.312 140.804 477.312C140.05 477.312 139.577 476.988 139.413 476.344L138.538 476.562C138.753 477.582 139.593 478.125 140.819 478.125C142.214 478.125 143.163 477.363 143.163 476.328C143.163 475.492 142.64 474.965 141.569 474.703L140.679 474.484C139.968 474.309 139.647 474.07 139.647 473.609C139.647 473.094 140.194 472.719 140.929 472.719C141.733 472.719 142.065 473.164 142.226 473.578L143.054 473.344ZM145.473 474.391C145.473 473.344 146.121 472.75 147.004 472.75C147.859 472.75 148.379 473.309 148.379 474.25V478H149.301V474.188C149.301 472.656 148.484 471.922 147.27 471.922C146.363 471.922 145.801 472.328 145.52 472.937H145.441V472H144.551V478H145.473V474.391ZM152.751 478.141C153.798 478.141 154.345 477.578 154.532 477.187H154.579V478H155.501V474.047C155.501 472.141 154.048 471.922 153.282 471.922C152.376 471.922 151.345 472.234 150.876 473.328L151.751 473.641C151.954 473.203 152.435 472.734 153.313 472.734C154.161 472.734 154.579 473.184 154.579 473.953V473.984C154.579 474.43 154.126 474.391 153.032 474.531C151.919 474.676 150.704 474.922 150.704 476.297C150.704 477.469 151.61 478.141 152.751 478.141ZM152.892 477.312C152.157 477.312 151.626 476.984 151.626 476.344C151.626 475.641 152.267 475.422 152.985 475.328C153.376 475.281 154.423 475.172 154.579 474.984V475.828C154.579 476.578 153.985 477.312 152.892 477.312ZM157.184 478H158.105V475.754L158.75 475.156L160.996 478H162.168L159.445 474.562L161.98 472H160.84L158.215 474.672H158.105V470H157.184V478ZM165.436 478.125C166.654 478.125 167.545 477.516 167.826 476.609L166.936 476.359C166.701 476.984 166.158 477.297 165.436 477.297C164.354 477.297 163.607 476.598 163.564 475.312H167.92V474.922C167.92 472.687 166.592 471.922 165.342 471.922C163.717 471.922 162.639 473.203 162.639 475.047C162.639 476.891 163.701 478.125 165.436 478.125ZM163.564 474.516C163.627 473.582 164.287 472.75 165.342 472.75C166.342 472.75 166.982 473.5 166.982 474.516H163.564ZM176.197 475.547C176.197 476.672 175.338 477.187 174.65 477.187C173.885 477.187 173.338 476.625 173.338 475.75V472H172.416V475.812C172.416 477.344 173.229 478.078 174.354 478.078C175.26 478.078 175.854 477.594 176.135 476.984H176.197V478H177.119V472H176.197V475.547ZM178.808 480.25H179.729V477.078H179.808C180.011 477.406 180.401 478.125 181.558 478.125C183.058 478.125 184.104 476.922 184.104 475.016C184.104 473.125 183.058 471.922 181.542 471.922C180.37 471.922 180.011 472.641 179.808 472.953H179.698V472H178.808V480.25ZM179.714 475C179.714 473.656 180.308 472.75 181.433 472.75C182.604 472.75 183.183 473.734 183.183 475C183.183 476.281 182.589 477.297 181.433 477.297C180.323 477.297 179.714 476.359 179.714 475ZM189.526 474.391C189.526 473.344 190.194 472.75 191.104 472.75C191.972 472.75 192.495 473.297 192.495 474.25V478H193.417V474.188C193.417 472.645 192.597 471.922 191.37 471.922C190.425 471.922 189.886 472.316 189.604 472.937H189.526V470H188.604V478H189.526V474.391ZM197.541 478.125C199.166 478.125 200.26 476.891 200.26 475.031C200.26 473.156 199.166 471.922 197.541 471.922C195.916 471.922 194.822 473.156 194.822 475.031C194.822 476.891 195.916 478.125 197.541 478.125ZM197.541 477.297C196.307 477.297 195.744 476.234 195.744 475.031C195.744 473.828 196.307 472.75 197.541 472.75C198.775 472.75 199.338 473.828 199.338 475.031C199.338 476.234 198.775 477.297 197.541 477.297ZM204.104 478.125C205.729 478.125 206.823 476.891 206.823 475.031C206.823 473.156 205.729 471.922 204.104 471.922C202.479 471.922 201.386 473.156 201.386 475.031C201.386 476.891 202.479 478.125 204.104 478.125ZM204.104 477.297C202.87 477.297 202.308 476.234 202.308 475.031C202.308 473.828 202.87 472.75 204.104 472.75C205.339 472.75 205.901 473.828 205.901 475.031C205.901 476.234 205.339 477.297 204.104 477.297ZM208.23 478H209.152V475.754L209.797 475.156L212.043 478H213.215L210.492 474.562L213.027 472H211.887L209.262 474.672H209.152V470H208.23V478Z" fill="#333333"/>
<line x1="61.083" y1="505.719" x2="65.2497" y2="506.656" stroke="#7B61FF" stroke-width="1.5" stroke-linecap="round" stroke-linejoin="round"/>
<path d="M61 506C61 506.552 60.5523 507 60 507C59.4477 507 59 506.552 59 506C59 505.448 59.4477 505 60 505C60.5523 505 61 505.448 61 506Z" fill="#7B61FF" stroke="#7B61FF" stroke-width="2" stroke-linecap="round" stroke-linejoin="round"/>
<path d="M70.75 501H67.75C66.6454 501 65.75 501.895 65.75 503L65.75 506" stroke="#7B61FF" stroke-width="1.5" stroke-linecap="round" stroke-linejoin="round"/>
<path d="M70.75 511H67.75C66.6454 511 65.75 510.105 65.75 509L65.75 506" stroke="#7B61FF" stroke-width="1.5" stroke-linecap="round" stroke-linejoin="round"/>
<path fill-rule="evenodd" clip-rule="evenodd" d="M69.9697 498.47C70.2626 498.177 70.7374 498.177 71.0303 498.47L72.6768 500.116C73.1649 500.604 73.1649 501.396 72.6768 501.884L71.0303 503.53C70.7374 503.823 70.2626 503.823 69.9697 503.53C69.6768 503.237 69.6768 502.763 69.9697 502.47L71.4393 501L69.9697 499.53C69.6768 499.237 69.6768 498.763 69.9697 498.47Z" fill="#7B61FF"/>
<path fill-rule="evenodd" clip-rule="evenodd" d="M69.9697 508.47C70.2626 508.177 70.7374 508.177 71.0303 508.47L72.6768 510.116C73.1649 510.604 73.1649 511.396 72.6768 511.884L71.0303 513.53C70.7374 513.823 70.2626 513.823 69.9697 513.53C69.6768 513.237 69.6768 512.763 69.9697 512.47L71.4393 511L69.9697 509.53C69.6768 509.237 69.6768 508.763 69.9697 508.47Z" fill="#0099FF"/>
<path d="M89.5156 504H88.1719V503.391C88.1719 502.797 88.4219 502.484 89.0313 502.484C89.2969 502.484 89.4531 502.547 89.5469 502.578L89.8125 501.781C89.6719 501.719 89.3906 501.625 88.9375 501.625C88.0781 501.625 87.25 502.141 87.25 503.172V504H86.2813V504.781H87.25V510H88.1719V504.781H89.5156V504ZM91.7295 502H90.8076V510H91.7295V502ZM95.8555 510.125C97.4805 510.125 98.5742 508.891 98.5742 507.031C98.5742 505.156 97.4805 503.922 95.8555 503.922C94.2305 503.922 93.1367 505.156 93.1367 507.031C93.1367 508.891 94.2305 510.125 95.8555 510.125ZM95.8555 509.297C94.6211 509.297 94.0586 508.234 94.0586 507.031C94.0586 505.828 94.6211 504.75 95.8555 504.75C97.0898 504.75 97.6523 505.828 97.6523 507.031C97.6523 508.234 97.0898 509.297 95.8555 509.297ZM101.137 510H102.043L103.355 505.391H103.449L104.762 510H105.668L107.496 504H106.527L105.23 508.578H105.168L103.902 504H102.918L101.637 508.594H101.574L100.277 504H99.3086L101.137 510ZM111.809 510H112.73V506.203C112.73 505.391 113.371 504.797 114.246 504.797C114.492 504.797 114.746 504.844 114.809 504.859V503.922C114.703 503.914 114.461 503.906 114.324 503.906C113.605 503.906 112.98 504.312 112.762 504.906H112.699V504H111.809V510ZM115.901 510H116.823V504H115.901V510ZM116.37 503C116.729 503 117.026 502.719 117.026 502.375C117.026 502.031 116.729 501.75 116.37 501.75C116.011 501.75 115.714 502.031 115.714 502.375C115.714 502.719 116.011 503 116.37 503ZM120.934 512.375C122.371 512.375 123.527 511.719 123.527 510.172V504H122.637V504.953H122.543C122.34 504.641 121.965 503.922 120.793 503.922C119.277 503.922 118.23 505.125 118.23 506.969C118.23 508.844 119.324 509.906 120.777 509.906C121.949 509.906 122.324 509.219 122.527 508.891H122.605V510.109C122.605 511.109 121.902 511.562 120.934 511.562C119.844 511.562 119.461 510.988 119.215 510.656L118.48 511.172C118.855 511.801 119.594 512.375 120.934 512.375ZM120.902 509.078C119.746 509.078 119.152 508.203 119.152 506.953C119.152 505.734 119.73 504.75 120.902 504.75C122.027 504.75 122.621 505.656 122.621 506.953C122.621 508.281 122.012 509.078 120.902 509.078ZM126.137 506.391C126.137 505.344 126.805 504.75 127.715 504.75C128.582 504.75 129.105 505.297 129.105 506.25V510H130.027V506.188C130.027 504.645 129.207 503.922 127.98 503.922C127.035 503.922 126.496 504.316 126.215 504.937H126.137V502H125.215V510H126.137V506.391ZM134.323 504H133.042V502.562H132.12V504H131.214V504.781H132.12V508.531C132.12 509.578 132.964 510.078 133.745 510.078C134.089 510.078 134.308 510.016 134.433 509.969L134.245 509.141C134.167 509.156 134.042 509.187 133.839 509.187C133.433 509.187 133.042 509.062 133.042 508.281V504.781H134.323V504ZM143.054 505.344C142.765 504.492 142.116 503.922 140.929 503.922C139.663 503.922 138.726 504.641 138.726 505.656C138.726 506.484 139.218 507.039 140.319 507.297L141.319 507.531C141.925 507.672 142.21 507.961 142.21 508.375C142.21 508.891 141.663 509.312 140.804 509.312C140.05 509.312 139.577 508.988 139.413 508.344L138.538 508.562C138.753 509.582 139.593 510.125 140.819 510.125C142.214 510.125 143.163 509.363 143.163 508.328C143.163 507.492 142.64 506.965 141.569 506.703L140.679 506.484C139.968 506.309 139.647 506.07 139.647 505.609C139.647 505.094 140.194 504.719 140.929 504.719C141.733 504.719 142.065 505.164 142.226 505.578L143.054 505.344ZM144.551 512.25H145.473V509.078H145.551C145.754 509.406 146.145 510.125 147.301 510.125C148.801 510.125 149.848 508.922 149.848 507.016C149.848 505.125 148.801 503.922 147.285 503.922C146.113 503.922 145.754 504.641 145.551 504.953H145.441V504H144.551V512.25ZM145.457 507C145.457 505.656 146.051 504.75 147.176 504.75C148.348 504.75 148.926 505.734 148.926 507C148.926 508.281 148.332 509.297 147.176 509.297C146.066 509.297 145.457 508.359 145.457 507ZM152.176 502H151.254V510H152.176V502ZM153.864 510H154.786V504H153.864V510ZM154.333 503C154.692 503 154.989 502.719 154.989 502.375C154.989 502.031 154.692 501.75 154.333 501.75C153.974 501.75 153.677 502.031 153.677 502.375C153.677 502.719 153.974 503 154.333 503ZM159.084 504H157.803V502.562H156.881V504H155.975V504.781H156.881V508.531C156.881 509.578 157.725 510.078 158.506 510.078C158.85 510.078 159.068 510.016 159.193 509.969L159.006 509.141C158.928 509.156 158.803 509.187 158.6 509.187C158.193 509.187 157.803 509.062 157.803 508.281V504.781H159.084V504Z" fill="#333333"/>
<path d="M89.5156 184H88.1719V183.391C88.1719 182.797 88.4219 182.484 89.0313 182.484C89.2969 182.484 89.4531 182.547 89.5469 182.578L89.8125 181.781C89.6719 181.719 89.3906 181.625 88.9375 181.625C88.0781 181.625 87.25 182.141 87.25 183.172V184H86.2813V184.781H87.25V190H88.1719V184.781H89.5156V184ZM91.7295 182H90.8076V190H91.7295V182ZM95.8555 190.125C97.4805 190.125 98.5742 188.891 98.5742 187.031C98.5742 185.156 97.4805 183.922 95.8555 183.922C94.2305 183.922 93.1367 185.156 93.1367 187.031C93.1367 188.891 94.2305 190.125 95.8555 190.125ZM95.8555 189.297C94.6211 189.297 94.0586 188.234 94.0586 187.031C94.0586 185.828 94.6211 184.75 95.8555 184.75C97.0898 184.75 97.6523 185.828 97.6523 187.031C97.6523 188.234 97.0898 189.297 95.8555 189.297ZM101.137 190H102.043L103.355 185.391H103.449L104.762 190H105.668L107.496 184H106.527L105.23 188.578H105.168L103.902 184H102.918L101.637 188.594H101.574L100.277 184H99.3086L101.137 190ZM111.809 190H112.73V186.203C112.73 185.391 113.371 184.797 114.246 184.797C114.492 184.797 114.746 184.844 114.809 184.859V183.922C114.703 183.914 114.461 183.906 114.324 183.906C113.605 183.906 112.98 184.312 112.762 184.906H112.699V184H111.809V190ZM115.901 190H116.823V184H115.901V190ZM116.37 183C116.729 183 117.026 182.719 117.026 182.375C117.026 182.031 116.729 181.75 116.37 181.75C116.011 181.75 115.714 182.031 115.714 182.375C115.714 182.719 116.011 183 116.37 183ZM120.934 192.375C122.371 192.375 123.527 191.719 123.527 190.172V184H122.637V184.953H122.543C122.34 184.641 121.965 183.922 120.793 183.922C119.277 183.922 118.23 185.125 118.23 186.969C118.23 188.844 119.324 189.906 120.777 189.906C121.949 189.906 122.324 189.219 122.527 188.891H122.605V190.109C122.605 191.109 121.902 191.562 120.934 191.562C119.844 191.562 119.461 190.988 119.215 190.656L118.48 191.172C118.855 191.801 119.594 192.375 120.934 192.375ZM120.902 189.078C119.746 189.078 119.152 188.203 119.152 186.953C119.152 185.734 119.73 184.75 120.902 184.75C122.027 184.75 122.621 185.656 122.621 186.953C122.621 188.281 122.012 189.078 120.902 189.078ZM126.137 186.391C126.137 185.344 126.805 184.75 127.715 184.75C128.582 184.75 129.105 185.297 129.105 186.25V190H130.027V186.188C130.027 184.645 129.207 183.922 127.98 183.922C127.035 183.922 126.496 184.316 126.215 184.937H126.137V182H125.215V190H126.137V186.391ZM134.323 184H133.042V182.562H132.12V184H131.214V184.781H132.12V188.531C132.12 189.578 132.964 190.078 133.745 190.078C134.089 190.078 134.308 190.016 134.433 189.969L134.245 189.141C134.167 189.156 134.042 189.187 133.839 189.187C133.433 189.187 133.042 189.062 133.042 188.281V184.781H134.323V184ZM141.241 190.125C142.569 190.125 143.444 189.312 143.601 188.25H142.679C142.507 188.906 141.96 189.297 141.241 189.297C140.147 189.297 139.444 188.391 139.444 187C139.444 185.641 140.163 184.75 141.241 184.75C142.054 184.75 142.538 185.25 142.679 185.797H143.601C143.444 184.672 142.491 183.922 141.226 183.922C139.601 183.922 138.522 185.203 138.522 187.031C138.522 188.828 139.554 190.125 141.241 190.125ZM148.729 187.547C148.729 188.672 147.87 189.187 147.183 189.187C146.417 189.187 145.87 188.625 145.87 187.75V184H144.948V187.812C144.948 189.344 145.761 190.078 146.886 190.078C147.792 190.078 148.386 189.594 148.667 188.984H148.729V190H149.651V184H148.729V187.547ZM151.34 190H152.262V186.203C152.262 185.391 152.902 184.797 153.777 184.797C154.023 184.797 154.277 184.844 154.34 184.859V183.922C154.234 183.914 153.992 183.906 153.855 183.906C153.137 183.906 152.512 184.312 152.293 184.906H152.23V184H151.34V190ZM160.521 184H159.521L157.865 188.781H157.803L156.146 184H155.146L157.365 190H158.303L160.521 184ZM164.039 190.125C165.258 190.125 166.148 189.516 166.43 188.609L165.539 188.359C165.305 188.984 164.762 189.297 164.039 189.297C162.957 189.297 162.211 188.598 162.168 187.312H166.523V186.922C166.523 184.687 165.195 183.922 163.945 183.922C162.32 183.922 161.242 185.203 161.242 187.047C161.242 188.891 162.305 190.125 164.039 190.125ZM162.168 186.516C162.23 185.582 162.891 184.75 163.945 184.75C164.945 184.75 165.586 185.5 165.586 186.516H162.168ZM173.285 190.125C174.441 190.125 174.832 189.406 175.035 189.078H175.145V190H176.035V182H175.113V184.953H175.035C174.832 184.641 174.473 183.922 173.301 183.922C171.785 183.922 170.738 185.125 170.738 187.016C170.738 188.922 171.785 190.125 173.285 190.125ZM173.41 189.297C172.254 189.297 171.66 188.281 171.66 187C171.66 185.734 172.238 184.75 173.41 184.75C174.535 184.75 175.129 185.656 175.129 187C175.129 188.359 174.52 189.297 173.41 189.297ZM180.289 190.125C181.914 190.125 183.008 188.891 183.008 187.031C183.008 185.156 181.914 183.922 180.289 183.922C178.664 183.922 177.57 185.156 177.57 187.031C177.57 188.891 178.664 190.125 180.289 190.125ZM180.289 189.297C179.055 189.297 178.492 188.234 178.492 187.031C178.492 185.828 179.055 184.75 180.289 184.75C181.523 184.75 182.086 185.828 182.086 187.031C182.086 188.234 181.523 189.297 180.289 189.297ZM185.57 190H186.477L187.789 185.391H187.883L189.195 190H190.102L191.93 184H190.961L189.664 188.578H189.602L188.336 184H187.352L186.07 188.594H186.008L184.711 184H183.742L185.57 190ZM194.07 186.391C194.07 185.344 194.719 184.75 195.602 184.75C196.457 184.75 196.977 185.309 196.977 186.25V190H197.898V186.188C197.898 184.656 197.082 183.922 195.867 183.922C194.961 183.922 194.398 184.328 194.117 184.937H194.039V184H193.148V190H194.07V186.391Z" fill="#333333"/>
<path d="M71 190.75L71 184.75C71 182.541 69.2091 180.75 67 180.75L61 180.75" stroke="#7B61FF" stroke-width="1.5" stroke-linecap="round" stroke-linejoin="round"/>
<path fill-rule="evenodd" clip-rule="evenodd" d="M68.4697 189.72C68.1768 190.013 68.1768 190.487 68.4697 190.78L70.1161 192.427C70.6043 192.915 71.3957 192.915 71.8839 192.427L73.5303 190.78C73.8232 190.487 73.8232 190.013 73.5303 189.72C73.2374 189.427 72.7626 189.427 72.4697 189.72L71 191.189L69.5303 189.72C69.2374 189.427 68.7626 189.427 68.4697 189.72Z" fill="#7B61FF"/>
<path d="M61.75 180.75C61.75 180.198 61.3023 179.75 60.75 179.75C60.1977 179.75 59.75 180.198 59.75 180.75C59.75 181.302 60.1977 181.75 60.75 181.75C61.3023 181.75 61.75 181.302 61.75 180.75Z" fill="#7B61FF" stroke="#7B61FF" stroke-width="2" stroke-linecap="round" stroke-linejoin="round"/>
<path d="M89.5156 280H88.1719V279.391C88.1719 278.797 88.4219 278.484 89.0313 278.484C89.2969 278.484 89.4531 278.547 89.5469 278.578L89.8125 277.781C89.6719 277.719 89.3906 277.625 88.9375 277.625C88.0781 277.625 87.25 278.141 87.25 279.172V280H86.2813V280.781H87.25V286H88.1719V280.781H89.5156V280ZM91.7295 278H90.8076V286H91.7295V278ZM95.8555 286.125C97.4805 286.125 98.5742 284.891 98.5742 283.031C98.5742 281.156 97.4805 279.922 95.8555 279.922C94.2305 279.922 93.1367 281.156 93.1367 283.031C93.1367 284.891 94.2305 286.125 95.8555 286.125ZM95.8555 285.297C94.6211 285.297 94.0586 284.234 94.0586 283.031C94.0586 281.828 94.6211 280.75 95.8555 280.75C97.0898 280.75 97.6523 281.828 97.6523 283.031C97.6523 284.234 97.0898 285.297 95.8555 285.297ZM101.137 286H102.043L103.355 281.391H103.449L104.762 286H105.668L107.496 280H106.527L105.23 284.578H105.168L103.902 280H102.918L101.637 284.594H101.574L100.277 280H99.3086L101.137 286ZM111.809 286H112.73V282.203C112.73 281.391 113.371 280.797 114.246 280.797C114.492 280.797 114.746 280.844 114.809 280.859V279.922C114.703 279.914 114.461 279.906 114.324 279.906C113.605 279.906 112.98 280.312 112.762 280.906H112.699V280H111.809V286ZM115.901 286H116.823V280H115.901V286ZM116.37 279C116.729 279 117.026 278.719 117.026 278.375C117.026 278.031 116.729 277.75 116.37 277.75C116.011 277.75 115.714 278.031 115.714 278.375C115.714 278.719 116.011 279 116.37 279ZM120.934 288.375C122.371 288.375 123.527 287.719 123.527 286.172V280H122.637V280.953H122.543C122.34 280.641 121.965 279.922 120.793 279.922C119.277 279.922 118.23 281.125 118.23 282.969C118.23 284.844 119.324 285.906 120.777 285.906C121.949 285.906 122.324 285.219 122.527 284.891H122.605V286.109C122.605 287.109 121.902 287.562 120.934 287.562C119.844 287.562 119.461 286.988 119.215 286.656L118.48 287.172C118.855 287.801 119.594 288.375 120.934 288.375ZM120.902 285.078C119.746 285.078 119.152 284.203 119.152 282.953C119.152 281.734 119.73 280.75 120.902 280.75C122.027 280.75 122.621 281.656 122.621 282.953C122.621 284.281 122.012 285.078 120.902 285.078ZM126.137 282.391C126.137 281.344 126.805 280.75 127.715 280.75C128.582 280.75 129.105 281.297 129.105 282.25V286H130.027V282.188C130.027 280.645 129.207 279.922 127.98 279.922C127.035 279.922 126.496 280.316 126.215 280.937H126.137V278H125.215V286H126.137V282.391ZM134.323 280H133.042V278.562H132.12V280H131.214V280.781H132.12V284.531C132.12 285.578 132.964 286.078 133.745 286.078C134.089 286.078 134.308 286.016 134.433 285.969L134.245 285.141C134.167 285.156 134.042 285.187 133.839 285.187C133.433 285.187 133.042 285.062 133.042 284.281V280.781H134.323V280ZM141.241 286.125C142.569 286.125 143.444 285.312 143.601 284.25H142.679C142.507 284.906 141.96 285.297 141.241 285.297C140.147 285.297 139.444 284.391 139.444 283C139.444 281.641 140.163 280.75 141.241 280.75C142.054 280.75 142.538 281.25 142.679 281.797H143.601C143.444 280.672 142.491 279.922 141.226 279.922C139.601 279.922 138.522 281.203 138.522 283.031C138.522 284.828 139.554 286.125 141.241 286.125ZM148.729 283.547C148.729 284.672 147.87 285.187 147.183 285.187C146.417 285.187 145.87 284.625 145.87 283.75V280H144.948V283.812C144.948 285.344 145.761 286.078 146.886 286.078C147.792 286.078 148.386 285.594 148.667 284.984H148.729V286H149.651V280H148.729V283.547ZM151.34 286H152.262V282.203C152.262 281.391 152.902 280.797 153.777 280.797C154.023 280.797 154.277 280.844 154.34 280.859V279.922C154.234 279.914 153.992 279.906 153.855 279.906C153.137 279.906 152.512 280.312 152.293 280.906H152.23V280H151.34V286ZM160.521 280H159.521L157.865 284.781H157.803L156.146 280H155.146L157.365 286H158.303L160.521 280ZM164.039 286.125C165.258 286.125 166.148 285.516 166.43 284.609L165.539 284.359C165.305 284.984 164.762 285.297 164.039 285.297C162.957 285.297 162.211 284.598 162.168 283.312H166.523V282.922C166.523 280.687 165.195 279.922 163.945 279.922C162.32 279.922 161.242 281.203 161.242 283.047C161.242 284.891 162.305 286.125 164.039 286.125ZM162.168 282.516C162.23 281.582 162.891 280.75 163.945 280.75C164.945 280.75 165.586 281.5 165.586 282.516H162.168ZM174.801 283.547C174.801 284.672 173.941 285.187 173.254 285.187C172.488 285.187 171.941 284.625 171.941 283.75V280H171.02V283.812C171.02 285.344 171.832 286.078 172.957 286.078C173.863 286.078 174.457 285.594 174.738 284.984H174.801V286H175.723V280H174.801V283.547ZM177.411 288.25H178.333V285.078H178.411C178.614 285.406 179.005 286.125 180.161 286.125C181.661 286.125 182.708 284.922 182.708 283.016C182.708 281.125 181.661 279.922 180.146 279.922C178.974 279.922 178.614 280.641 178.411 280.953H178.302V280H177.411V288.25ZM178.317 283C178.317 281.656 178.911 280.75 180.036 280.75C181.208 280.75 181.786 281.734 181.786 283C181.786 284.281 181.192 285.297 180.036 285.297C178.927 285.297 178.317 284.359 178.317 283Z" fill="#333333"/>
<path d="M71 277.25L71 283.25C71 285.459 69.2091 287.25 67 287.25L61 287.25" stroke="#7B61FF" stroke-width="1.5" stroke-linecap="round" stroke-linejoin="round"/>
<path fill-rule="evenodd" clip-rule="evenodd" d="M68.4697 278.28C68.1768 277.987 68.1768 277.513 68.4697 277.22L70.1161 275.573C70.6043 275.085 71.3957 275.085 71.8839 275.573L73.5303 277.22C73.8232 277.513 73.8232 277.987 73.5303 278.28C73.2374 278.573 72.7626 278.573 72.4697 278.28L71 276.811L69.5303 278.28C69.2374 278.573 68.7626 278.573 68.4697 278.28Z" fill="#7B61FF"/>
<path d="M61.75 287.25C61.75 287.802 61.3023 288.25 60.75 288.25C60.1977 288.25 59.75 287.802 59.75 287.25C59.75 286.698 60.1977 286.25 60.75 286.25C61.3023 286.25 61.75 286.698 61.75 287.25Z" fill="#7B61FF" stroke="#7B61FF" stroke-width="2" stroke-linecap="round" stroke-linejoin="round"/>
</g>
<rect width="279" height="48" transform="translate(41 62)" fill="white"/>
<rect x="53.5" y="74.5" width="89" height="23" rx="1.5" fill="white" stroke="#E5E5E5"/>
<path d="M62.2969 90L63.1016 87.7344H66.3359L67.1406 90H68.1563L65.2188 82H64.2188L61.2813 90H62.2969ZM63.4062 86.875L64.6875 83.2656H64.75L66.0313 86.875H63.4062ZM70.1992 82H69.2773V90H70.1992V82ZM72.8096 82H71.8877V90H72.8096V82Z" fill="#333333"/>
<path d="M127 85L130 88L133 85" stroke="#333333"/>
<rect x="159.5" y="74.5" width="49" height="23" rx="1.5" fill="white" stroke="#E5E5E5"/>
<path d="M172.477 90.4375L176.414 86.5L172.477 82.5625L171.57 83.4648L173.949 85.8398H168.375V87.1602H173.949L171.57 89.5391L172.477 90.4375Z" fill="#333333"/>
<path d="M193 85L196 88L199 85" stroke="#333333"/>
<rect x="225.5" y="74.5" width="78" height="23" rx="1.5" fill="white" stroke="#E5E5E5"/>
<path d="M254.078 90H255.094L258.656 82.9062V82H253.531V82.8594H257.656V82.9219L254.078 90ZM260.253 90H263.144C265.034 90 265.815 89.0781 265.815 87.875C265.815 86.6094 264.94 85.9219 264.206 85.875V85.7969C264.894 85.6094 265.503 85.1562 265.503 84.125C265.503 82.9531 264.722 82 263.05 82H260.253V90ZM261.222 89.1406V86.3594H263.19C264.237 86.3594 264.894 87.0625 264.894 87.875C264.894 88.5781 264.409 89.1406 263.144 89.1406H261.222ZM261.222 85.5156V82.8594H263.05C264.112 82.8594 264.581 83.4219 264.581 84.125C264.581 84.9687 263.894 85.5156 263.019 85.5156H261.222ZM269.923 90.1094C271.54 90.1289 272.595 88.9102 272.595 87.4219C272.595 85.875 271.45 84.7656 270.079 84.7656C269.255 84.7656 268.548 85.168 268.11 85.8281H268.048C268.052 83.8633 268.81 82.7344 270.048 82.7344C270.892 82.7344 271.399 83.2656 271.579 84H272.532C272.337 82.7422 271.392 81.875 270.048 81.875C268.247 81.875 267.142 83.4688 267.142 86.3125C267.142 89.2695 268.61 90.0938 269.923 90.1094ZM269.923 89.25C268.919 89.25 268.185 88.3945 268.188 87.4375C268.192 86.4805 268.962 85.625 269.954 85.625C270.935 85.625 271.657 86.4297 271.657 87.4219C271.657 88.4375 270.903 89.25 269.923 89.25ZM276.943 82H275.975L273.975 83.3281V84.3125L275.928 83.0156H275.975V90H276.943V82ZM279.385 90H280.354V86.4219H283.822V85.5625H280.354V82.8594H284.182V82H279.385V90ZM285.841 90H286.81V86.4219H290.278V85.5625H286.81V82.8594H290.638V82H285.841V90Z" fill="#333333"/>
<rect x="229" y="78" width="16" height="16" rx="1" fill="#7B61FF"/>
<path d="M60.5 130C62.9375 130 64.3828 128.492 64.3828 125.992C64.3828 123.5 62.9375 122 60.5547 122H57.7891V130H60.5ZM59.2383 128.746V123.254H60.4727C62.0977 123.254 62.9453 124.16 62.9453 125.992C62.9453 127.832 62.0977 128.746 60.4297 128.746H59.2383ZM68.3535 130.117C69.752 130.117 70.7129 129.434 70.9629 128.391L69.6426 128.242C69.4512 128.75 68.9824 129.016 68.373 129.016C67.459 129.016 66.8535 128.414 66.8418 127.387H71.0215V126.953C71.0215 124.848 69.7559 123.922 68.2793 123.922C66.5605 123.922 65.4395 125.184 65.4395 127.035C65.4395 128.918 66.5449 130.117 68.3535 130.117ZM66.8457 126.434C66.8887 125.668 67.4551 125.023 68.2988 125.023C69.1113 125.023 69.6582 125.617 69.666 126.434H66.8457ZM75.2568 124H74.0107V123.527C74.0107 123.059 74.2061 122.797 74.7334 122.797C74.9561 122.797 75.1436 122.848 75.2607 122.883L75.5459 121.789C75.3623 121.727 74.96 121.625 74.4717 121.625C73.4287 121.625 72.5967 122.223 72.5967 123.434V124H71.71V125.094H72.5967V130H74.0107V125.094H75.2568V124ZM77.8867 130.121C78.8281 130.121 79.3906 129.68 79.6484 129.176H79.6953V130H81.0547V125.984C81.0547 124.398 79.7617 123.922 78.6172 123.922C77.3555 123.922 76.3867 124.484 76.0742 125.578L77.3945 125.766C77.5352 125.355 77.9336 125.004 78.625 125.004C79.2813 125.004 79.6406 125.34 79.6406 125.93V125.953C79.6406 126.359 79.2148 126.379 78.1563 126.492C76.9922 126.617 75.8789 126.965 75.8789 128.316C75.8789 129.496 76.7422 130.121 77.8867 130.121ZM78.2539 129.082C77.6641 129.082 77.2422 128.812 77.2422 128.293C77.2422 127.75 77.7148 127.523 78.3477 127.434C78.7187 127.383 79.4609 127.289 79.6445 127.141V127.848C79.6445 128.516 79.1055 129.082 78.2539 129.082ZM86.3008 127.477C86.3008 128.391 85.6484 128.844 85.0234 128.844C84.3438 128.844 83.8906 128.363 83.8906 127.602V124H82.4766V127.82C82.4766 129.262 83.2969 130.078 84.4766 130.078C85.375 130.078 86.0078 129.605 86.2813 128.934H86.3438V130H87.7148V124H86.3008V127.477ZM90.583 122H89.1689V130H90.583V122ZM95.0332 124H93.8496V122.562H92.4355V124H91.584V125.094H92.4355V128.43C92.4277 129.559 93.248 130.113 94.3105 130.082C94.7129 130.07 94.9902 129.992 95.1426 129.941L94.9043 128.836C94.8262 128.855 94.666 128.891 94.4902 128.891C94.1348 128.891 93.8496 128.766 93.8496 128.195V125.094H95.0332V124Z" fill="#333333"/>
<g clip-path="url(#clip1)">
<g filter="url(#filter3_i)">
<path d="M41 508H321V549C321 550.105 320.105 551 319 551H43C41.8954 551 41 550.105 41 549V508Z" fill="white"/>
</g>
<path d="M61.7045 528.091H60.8864L59.5312 532.003H59.4801L58.125 528.091H57.3068L59.1222 533H59.8892L61.7045 528.091ZM64.9885 526.455H64.1958L62.5595 527.541V528.347L64.1575 527.286H64.1958V533H64.9885V526.455ZM67.0467 533.051C67.3631 533.051 67.622 532.792 67.622 532.476C67.622 532.159 67.3631 531.901 67.0467 531.901C66.7303 531.901 66.4714 532.159 66.4714 532.476C66.4714 532.792 66.7303 533.051 67.0467 533.051ZM70.8691 533.089C72.3137 533.089 73.1447 531.865 73.1447 529.727C73.1447 527.605 72.301 526.365 70.8691 526.365C69.4373 526.365 68.5936 527.605 68.5936 529.727C68.5936 531.865 69.4245 533.089 70.8691 533.089ZM70.8691 532.386C69.9167 532.386 69.3606 531.431 69.3606 529.727C69.3606 528.027 69.9231 527.055 70.8691 527.055C71.8152 527.055 72.3777 528.027 72.3777 529.727C72.3777 531.431 71.8216 532.386 70.8691 532.386Z" fill="#959595"/>
<g filter="url(#filter4_i)">
<rect x="17" y="460" width="387" height="48" fill="white" fill-opacity="0.01"/>
</g>
<path fill-rule="evenodd" clip-rule="evenodd" d="M299 529L299 536H300L300 533H303V532H300V529H299ZM298 533H291V532H298V533Z" fill="#333333"/>
<path fill-rule="evenodd" clip-rule="evenodd" d="M294 526L294 529H295L295 522H294V525H291V526H294ZM303 526H296V525H303V526Z" fill="#333333"/>
</g>
</g>
<defs>
<filter id="filter0_d" x="0.5" y="0.5" width="361" height="611" filterUnits="userSpaceOnUse" color-interpolation-filters="sRGB">
<feFlood flood-opacity="0" result="BackgroundImageFix"/>
<feColorMatrix in="SourceAlpha" type="matrix" values="0 0 0 0 0 0 0 0 0 0 0 0 0 0 0 0 0 0 127 0"/>
<feOffset dy="20"/>
<feGaussianBlur stdDeviation="20"/>
<feColorMatrix type="matrix" values="0 0 0 0 0 0 0 0 0 0 0 0 0 0 0 0 0 0 0.05 0"/>
<feBlend mode="normal" in2="BackgroundImageFix" result="effect1_dropShadow"/>
<feBlend mode="normal" in="SourceGraphic" in2="effect1_dropShadow" result="shape"/>
</filter>
<filter id="filter1_d" x="32.5" y="14.5" width="297" height="547" filterUnits="userSpaceOnUse" color-interpolation-filters="sRGB">
<feFlood flood-opacity="0" result="BackgroundImageFix"/>
<feColorMatrix in="SourceAlpha" type="matrix" values="0 0 0 0 0 0 0 0 0 0 0 0 0 0 0 0 0 0 127 0"/>
<feOffset dy="2"/>
<feGaussianBlur stdDeviation="4"/>
<feColorMatrix type="matrix" values="0 0 0 0 0 0 0 0 0 0 0 0 0 0 0 0 0 0 0.15 0"/>
<feBlend mode="normal" in2="BackgroundImageFix" result="effect1_dropShadow"/>
<feBlend mode="normal" in="SourceGraphic" in2="effect1_dropShadow" result="shape"/>
</filter>
<filter id="filter2_i" x="41" y="21" width="279" height="41" filterUnits="userSpaceOnUse" color-interpolation-filters="sRGB">
<feFlood flood-opacity="0" result="BackgroundImageFix"/>
<feBlend mode="normal" in="SourceGraphic" in2="BackgroundImageFix" result="shape"/>
<feColorMatrix in="SourceAlpha" type="matrix" values="0 0 0 0 0 0 0 0 0 0 0 0 0 0 0 0 0 0 127 0" result="hardAlpha"/>
<feOffset dy="-1"/>
<feComposite in2="hardAlpha" operator="arithmetic" k2="-1" k3="1"/>
<feColorMatrix type="matrix" values="0 0 0 0 0.898039 0 0 0 0 0.898039 0 0 0 0 0.898039 0 0 0 1 0"/>
<feBlend mode="normal" in2="shape" result="effect1_innerShadow"/>
</filter>
<filter id="filter3_i" x="41" y="508" width="280" height="43" filterUnits="userSpaceOnUse" color-interpolation-filters="sRGB">
<feFlood flood-opacity="0" result="BackgroundImageFix"/>
<feBlend mode="normal" in="SourceGraphic" in2="BackgroundImageFix" result="shape"/>
<feColorMatrix in="SourceAlpha" type="matrix" values="0 0 0 0 0 0 0 0 0 0 0 0 0 0 0 0 0 0 127 0" result="hardAlpha"/>
<feOffset dy="1"/>
<feComposite in2="hardAlpha" operator="arithmetic" k2="-1" k3="1"/>
<feColorMatrix type="matrix" values="0 0 0 0 0.898039 0 0 0 0 0.898039 0 0 0 0 0.898039 0 0 0 1 0"/>
<feBlend mode="normal" in2="shape" result="effect1_innerShadow"/>
</filter>
<filter id="filter4_i" x="17" y="457" width="387" height="51" filterUnits="userSpaceOnUse" color-interpolation-filters="sRGB">
<feFlood flood-opacity="0" result="BackgroundImageFix"/>
<feBlend mode="normal" in="SourceGraphic" in2="BackgroundImageFix" result="shape"/>
<feColorMatrix in="SourceAlpha" type="matrix" values="0 0 0 0 0 0 0 0 0 0 0 0 0 0 0 0 0 0 127 0" result="hardAlpha"/>
<feOffset dy="-3"/>
<feGaussianBlur stdDeviation="2"/>
<feComposite in2="hardAlpha" operator="arithmetic" k2="-1" k3="1"/>
<feColorMatrix type="matrix" values="0 0 0 0 0 0 0 0 0 0 0 0 0 0 0 0 0 0 0.05 0"/>
<feBlend mode="normal" in2="shape" result="effect1_innerShadow"/>
</filter>
<clipPath id="clip0">
<rect width="279" height="405" fill="white" transform="translate(41 146)"/>
</clipPath>
<clipPath id="clip1">
<rect width="280" height="91" fill="white" transform="translate(41 460)"/>
</clipPath>
</defs>
</svg>
