<svg width="292" height="617" viewBox="0 0 292 617" fill="none" xmlns="http://www.w3.org/2000/svg">
<g clip-path="url(#clip0)">
<path fill-rule="evenodd" clip-rule="evenodd" d="M195 589V549V589Z" stroke="#FC5555" stroke-width="4"/>
<path d="M203 590V588C203 587.448 202.552 587 202 587H188C187.448 587 187 587.448 187 588V590C187 590.552 187.448 591 188 591H202C202.552 591 203 590.552 203 590Z" fill="#FC5555"/>
<path d="M195 547C215.987 547 233 529.987 233 509C233 488.013 215.987 471 195 471C174.013 471 157 488.013 157 509C157 529.987 174.013 547 195 547Z" stroke="#FC5555" stroke-width="4"/>
<path d="M229 605H161C159.895 605 159 605.895 159 607C159 608.105 159.895 609 161 609H229C230.105 609 231 608.105 231 607C231 605.895 230.105 605 229 605Z" fill="#FC5555"/>
<path d="M199 613H161C159.895 613 159 613.895 159 615C159 616.105 159.895 617 161 617H199C200.105 617 201 616.105 201 615C201 613.895 200.105 613 199 613Z" fill="#FC5555"/>
<line x1="2" y1="-2" x2="98" y2="-2" transform="matrix(-1 0 0 1 115 42)" stroke="#2B2C34" stroke-width="4" stroke-linecap="round" stroke-linejoin="round" class="fk-path-alt" stroke-dasharray="4 12"/>
<path d="M87 40C87 55.464 99.536 68 115 68C130.464 68 143 55.464 143 40C143 24.536 130.464 12 115 12C99.536 12 87 24.536 87 40Z" fill="#F56D4E" fill-opacity="0.05" stroke="#FC5555" stroke-width="4" stroke-linecap="round" stroke-linejoin="round"/>
<path fill-rule="evenodd" clip-rule="evenodd" d="M115 48C110.582 48 107 44.4183 107 40C107 35.5817 110.582 32 115 32C119.418 32 123 35.5817 123 40C123 44.4183 119.418 48 115 48Z" fill="white" stroke="#2B2C34" stroke-width="4" stroke-linecap="round" stroke-linejoin="round"/>
<path d="M21 50L10.8437 41.5364C9.88422 40.7369 9.88422 39.2631 10.8437 38.4636L21 30" stroke="#2B2C34" stroke-width="4" stroke-linecap="round" stroke-linejoin="round"/>
<line x1="2" y1="-2" x2="8" y2="-1" transform="matrix(-1 0 0 1 21 42)" stroke="#2B2C34" stroke-width="4" stroke-linecap="round" stroke-linejoin="round"/>
<path d="M290 303L290 84C290 59.6995 270.301 40 246 40L200 40" stroke="#2B2C34" stroke-width="4" stroke-linecap="round" stroke-linejoin="round"/>
<path d="M290 130L290 349C290 373.301 270.301 393 246 393L200 393" stroke="#2B2C34" stroke-width="4" stroke-linecap="round" stroke-linejoin="round"/>
<path d="M206 383L195.844 391.464C194.884 392.263 194.884 393.737 195.844 394.536L206 403" stroke="#2B2C34" stroke-width="4" stroke-linecap="round" stroke-linejoin="round"/>
<line x1="204" y1="393" x2="198" y2="392" stroke="#2B2C34" stroke-width="4" stroke-linecap="round" stroke-linejoin="round"/>
<path d="M172 40C172 24.536 184.536 12 200 12C215.464 12 228 24.536 228 40C228 55.464 215.464 68 200 68C184.536 68 172 55.464 172 40Z" fill="#7B61FF" fill-opacity="0.1" stroke="#7B61FF" stroke-width="4" stroke-linecap="round" stroke-linejoin="round"/>
<path fill-rule="evenodd" clip-rule="evenodd" d="M200 32C195.582 32 192 35.5817 192 40C192 44.4183 195.582 48 200 48C204.418 48 208 44.4183 208 40C208 35.5817 204.418 32 200 32Z" fill="white" stroke="#2B2C34" stroke-width="4" stroke-linecap="round" stroke-linejoin="round"/>
</g>
<defs>
<clipPath id="clip0">
<rect width="292" height="617" fill="white"/>
</clipPath>
</defs>
</svg>
