<?xml version="1.0" encoding="UTF-8"?>
<svg width="200px" height="288px" viewBox="0 0 200 288" version="1.1" xmlns="http://www.w3.org/2000/svg" xmlns:xlink="http://www.w3.org/1999/xlink">
    <!-- Generator: Sketch 47.1 (45422) - http://www.bohemiancoding.com/sketch -->
    <title>flow-device</title>
    <desc>Created with Sketch.</desc>
    <defs>
        <path d="M24,0 L128,0 C141.254834,0 152,10.745166 152,24 L152,216 C152,229.254834 141.254834,240 128,240 L24,240 C10.745166,240 0,229.254834 0,216 L0,24 C0,10.745166 10.745166,0 24,0 Z" id="path-1"></path>
        <filter x="-26.3%" y="-16.7%" width="168.4%" height="143.3%" filterUnits="objectBoundingBox" id="filter-2">
            <feOffset dx="8" dy="8" in="SourceAlpha" result="shadowOffsetOuter1"></feOffset>
            <feGaussianBlur stdDeviation="12" in="shadowOffsetOuter1" result="shadowBlurOuter1"></feGaussianBlur>
            <feColorMatrix values="0 0 0 0 0.0666666667   0 0 0 0 0.0666666667   0 0 0 0 0.2  0 0 0 0.08 0" type="matrix" in="shadowBlurOuter1" result="shadowMatrixOuter1"></feColorMatrix>
            <feOffset dx="4" dy="4" in="SourceAlpha" result="shadowOffsetOuter2"></feOffset>
            <feGaussianBlur stdDeviation="6" in="shadowOffsetOuter2" result="shadowBlurOuter2"></feGaussianBlur>
            <feColorMatrix values="0 0 0 0 0   0 0 0 0 0   0 0 0 0 0  0 0 0 0.08 0" type="matrix" in="shadowBlurOuter2" result="shadowMatrixOuter2"></feColorMatrix>
            <feMerge>
                <feMergeNode in="shadowMatrixOuter1"></feMergeNode>
                <feMergeNode in="shadowMatrixOuter2"></feMergeNode>
            </feMerge>
        </filter>
        <path d="M24,8 L128,8 C136.836556,8 144,15.163444 144,24 L144,216 C144,224.836556 136.836556,232 128,232 L24,232 C15.163444,232 8,224.836556 8,216 L8,24 C8,15.163444 15.163444,8 24,8 Z M41.015873,13 C41.015873,15.7614237 43.2544493,18 46.015873,18 L105.984127,18 C108.745551,18 110.984127,15.7614237 110.984127,13 C110.984127,10.2385763 113.222703,8 115.984127,8 L120,8 L32,8 L36.015873,8 C38.7772968,8 41.015873,10.2385763 41.015873,13 Z" id="path-3"></path>
    </defs>
    <g id="Page-1" stroke="none" stroke-width="1" fill="none" fill-rule="evenodd">
        <g id="Desktop-HD-Copy-17" transform="translate(-328.000000, -3111.000000)">
            <g id="Group-19" transform="translate(344.000000, 2776.000000)">
                <g id="Group-12">
                    <g id="flow-device" transform="translate(0.000000, 351.000000)">
                        <g id="-">
                            <use fill="black" fill-opacity="1" filter="url(#filter-2)" xlink:href="#path-1"></use>
                            <use fill="#000000" fill-rule="evenodd" xlink:href="#path-1"></use>
                        </g>
                        <mask id="mask-4" fill="white">
                            <use xlink:href="#path-3"></use>
                        </mask>
                        <use id="Mask" fill="#FF5040" xlink:href="#path-3"></use>
                    </g>
                </g>
            </g>
        </g>
    </g>
</svg>