<?xml version="1.0" encoding="UTF-8"?>
<svg width="292px" height="617px" viewBox="0 0 292 617" version="1.1" xmlns="http://www.w3.org/2000/svg" xmlns:xlink="http://www.w3.org/1999/xlink">
    <!-- Generator: Sketch 47.1 (45422) - http://www.bohemiancoding.com/sketch -->
    <title>flow-devices-flows-small</title>
    <desc>Created with Sketch.</desc>
    <defs></defs>
    <g id="Page-1" stroke="none" stroke-width="1" fill="none" fill-rule="evenodd">
        <g id="flow-devices-small" transform="translate(5.000000, -6.000000)">
            <g id="flow-devices-flows-small" transform="translate(0.000000, 6.000000)">
                <g id="Tap-/-Left-/-Arrow-ALT">
                    <g id="Assets-/-Tap-/-ALT" transform="translate(60.000000, 0.000000)" fill-rule="evenodd" fill="#EF0055" fill-opacity="0.4">
                        <circle id="Oval" cx="40" cy="40" r="40"></circle>
                    </g>
                    <g id="Flow-/-Left-/-Arrow-ALT">
                        <path class="fk-path-alt" d="M0,40 L100,40" id="path" stroke="#252525" stroke-width="4" stroke-linecap="round" stroke-linejoin="round" stroke-dasharray="4,12"></path>
                        <g id="Assets-/-Cap-/-Arrow-/-ALT" transform="translate(0.000000, 40.000000) scale(-1, 1) translate(-0.000000, -40.000000) translate(-10.000000, 30.000000)" fill-rule="evenodd" fill="#252525">
                            <path d="M4,15.258963 L4,4.741037 L4,4.741037 C4,4.18875225 4.44771525,3.741037 5,3.741037 C5.17705464,3.741037 5.35093497,3.7880454 5.50387103,3.8772581 L14.5192362,9.1362211 L14.5192362,9.1362211 C14.9962881,9.41450138 15.1574243,10.0268191 14.879144,10.503871 C14.7922253,10.6528747 14.6682398,10.7768601 14.5192362,10.8637789 L5.50387103,16.1227419 L5.50387103,16.1227419 C5.02681911,16.4010222 4.41450138,16.2398859 4.1362211,15.762834 C4.0470084,15.609898 4,15.4360176 4,15.258963 Z" id="shape"></path>
                        </g>
                        <g id="Assets-/-Cap-/-Circle-/-ALT" transform="translate(90.000000, 30.000000)" fill-rule="evenodd" fill="#252525">
                            <circle id="map/path-end-circle" cx="10" cy="10" r="5"></circle>
                        </g>
                    </g>
                </g>
                <g id="Tap-/-Right-/-Curve-/-Down-/-Hook" transform="translate(215.000000, 40.000000)">
                    <g id="Assets-/-Tap-/-Default" transform="translate(-40.000000, -40.000000)" fill-rule="evenodd" fill="#006DFF" fill-opacity="0.400000006">
                        <circle id="Oval" cx="40" cy="40" r="40"></circle>
                    </g>
                    <g id="Flow-/-Right-/-Curve-/-Down-/-Hook">
                        <path d="M70,0 L70,275 L70,275 C70,297.09139 52.09139,315 30,315 L0,315" id="Path" stroke="#252525" stroke-width="4" stroke-linecap="round" transform="translate(35.000000, 157.500000) scale(1, -1) translate(-35.000000, -157.500000) "></path>
                        <path d="M5,290 L5,290 L5,290 C27.09139,290 45,307.90861 45,330 L45,380" id="hook" stroke="#252525" stroke-width="4" stroke-linecap="round" transform="translate(25.000000, 335.000000) rotate(-270.000000) translate(-25.000000, -335.000000) "></path>
                        <g id="Assets-/-Cap-/-Arrow-/-Default" transform="translate(-20.000000, 355.000000) scale(1, -1) rotate(-180.000000) translate(20.000000, -355.000000) translate(-30.000000, 345.000000)" fill-rule="evenodd" fill="#252525">
                            <path d="M4,15.258963 L4,4.741037 L4,4.741037 C4,4.18875225 4.44771525,3.741037 5,3.741037 C5.17705464,3.741037 5.35093497,3.7880454 5.50387103,3.8772581 L14.5192362,9.1362211 L14.5192362,9.1362211 C14.9962881,9.41450138 15.1574243,10.0268191 14.879144,10.503871 C14.7922253,10.6528747 14.6682398,10.7768601 14.5192362,10.8637789 L5.50387103,16.1227419 L5.50387103,16.1227419 C5.02681911,16.4010222 4.41450138,16.2398859 4.1362211,15.762834 C4.0470084,15.609898 4,15.4360176 4,15.258963 Z" id="shape"></path>
                        </g>
                        <g id="Assets-/-Cap-/-Circle-/-Default" transform="translate(-10.000000, -10.000000)" fill-rule="evenodd" fill="#252525">
                            <circle id="map/path-end-circle" cx="10" cy="10" r="5"></circle>
                        </g>
                    </g>
                </g>
                <g id="flow3-annotation" transform="translate(140.000000, 509.000000)">
                    <g id="Annotate-/-Down-/-Circle">
                        <path d="M50,80 L50,40 L50,80 Z" id="path" stroke="#EF0055" stroke-width="4"></path>
                        <g id="Assets-/-Cap-/-Line-/-Vertical" transform="translate(50.000000, 80.000000) rotate(-270.000000) translate(-50.000000, -80.000000) translate(40.000000, 70.000000)" fill-rule="evenodd" fill="#EF0055">
                            <rect id="Rectangle-2" x="8" y="2" width="4" height="16" rx="1"></rect>
                        </g>
                        <g id="Assets-/-Annotate" transform="translate(10.000000, -40.000000)" stroke-width="4" stroke="#EF0055">
                            <circle id="Oval" cx="40" cy="40" r="38"></circle>
                        </g>
                    </g>
                    <rect id="Rectangle-12" fill="#EF0055" x="14" y="96" width="72" height="4" rx="2"></rect>
                    <rect id="Rectangle-12" fill="#EF0055" x="14" y="104" width="42" height="4" rx="2"></rect>
                </g>
            </g>
        </g>
    </g>
</svg>
