<?xml version="1.0" encoding="UTF-8"?>
<svg width="332px" height="180px" viewBox="0 0 332 180" version="1.1" xmlns="http://www.w3.org/2000/svg" xmlns:xlink="http://www.w3.org/1999/xlink">
    <!-- Generator: Sketch 47.1 (45422) - http://www.bohemiancoding.com/sketch -->
    <title>flow-montage-small</title>
    <desc>Created with Sketch.</desc>
    <defs>
        <polygon id="path-1" points="10 0 20 10 10 20 0 10"></polygon>
        <polygon id="path-2" points="10 0 20 10 10 20 0 10"></polygon>
    </defs>
    <g id="Page-1" stroke="none" stroke-width="1" fill="none" fill-rule="evenodd">
        <g id="Desktop-HD-Copy-18" transform="translate(-23.000000, -767.000000)">
            <g id="video-thumb-mobile" transform="translate(30.000000, 774.000000)">
                <g id="flow-montage-small">
                    <g id="Flow-/-Right-/-Curve-/-Down-/-Default-ALT">
                        <path class="fk-path-alt" d="M0,86 L0,40 L-7.10542736e-15,40 C-9.81084236e-15,17.90861 17.90861,-3.04730485e-15 40,-7.10542736e-15 L64,0" id="path" stroke="#252525" stroke-width="4" stroke-linecap="round" stroke-linejoin="round" stroke-dasharray="4,12" transform="translate(32.000000, 43.000000) scale(-1, 1) translate(-32.000000, -43.000000) "></path>
                        <g id="Assets-/-Cap-/-Circle-/-ALT" transform="translate(0.000000, 0.000000) scale(1, -1) translate(-0.000000, -0.000000) translate(-10.000000, -10.000000)" fill-rule="evenodd" fill="#252525">
                            <circle id="map/path-end-circle" cx="10" cy="10" r="5"></circle>
                        </g>
                    </g>
                    <g id="Flow-/-Down-/-Arrow" transform="translate(157.000000, 128.000000) scale(1, -1) translate(-157.000000, -128.000000) translate(77.000000, 88.000000)">
                        <path d="M80,80 L80,1.42108547e-14 L80,80 Z" id="path" stroke="#252525" stroke-width="4" stroke-linecap="round"></path>
                        <g id="Assets-/-Cap-/-Circle-/-Default" transform="translate(80.000000, 0.000000) rotate(-90.000000) translate(-80.000000, -0.000000) translate(70.000000, -10.000000)" fill-rule="evenodd" fill="#252525">
                            <circle id="map/path-end-circle" cx="10" cy="10" r="5"></circle>
                        </g>
                    </g>
                    <g id="Flow-/-Up-/-Curve-/-Right-/-Default" transform="translate(157.000000, 0.000000)">
                        <path d="M3.80964191e-14,85 L3.2974514e-14,40 L2.84217094e-14,40 C1.59057465e-14,17.90861 17.90861,1.82689772e-14 40,1.42108547e-14 L158,2.84217094e-14" id="path" stroke="#252525" stroke-width="4" stroke-linecap="round"></path>
                        <g id="Assets-/-Cap-/-Arrow-/-Default" transform="translate(148.000000, -10.000000)" fill-rule="evenodd" fill="#252525">
                            <path d="M4,15.258963 L4,4.741037 L4,4.741037 C4,4.18875225 4.44771525,3.741037 5,3.741037 C5.17705464,3.741037 5.35093497,3.7880454 5.50387103,3.8772581 L14.5192362,9.1362211 L14.5192362,9.1362211 C14.9962881,9.41450138 15.1574243,10.0268191 14.879144,10.503871 C14.7922253,10.6528747 14.6682398,10.7768601 14.5192362,10.8637789 L5.50387103,16.1227419 L5.50387103,16.1227419 C5.02681911,16.4010222 4.41450138,16.2398859 4.1362211,15.762834 C4.0470084,15.609898 4,15.4360176 4,15.258963 Z" id="shape"></path>
                        </g>
                        <g id="Assets-/-Cap-/-Circle-/-Default" transform="translate(0.000000, 85.000000) rotate(90.000000) translate(-0.000000, -85.000000) translate(-10.000000, 75.000000)" fill-rule="evenodd" fill="#252525">
                            <circle id="map/path-end-circle" cx="10" cy="10" r="5"></circle>
                        </g>
                    </g>
                    <g id="Tap-/-Left-/-Curve-/-Down-/-Default" transform="translate(0.000000, 84.000000)">
                        <g id="Flow-/-Left-/-Curve-/-Down-/-Default">
                            <path d="M5.68434189e-14,83 L5.68434189e-14,40 L5.68434189e-14,40 C5.41380039e-14,17.90861 17.90861,4.05812251e-15 40,0 L60,0" id="path" stroke="#252525" stroke-width="4" stroke-linecap="round"></path>
                            <g id="Assets-/-Cap-/-Arrow-/-Default" transform="translate(0.000000, 83.000000) scale(-1, -1) rotate(-90.000000) translate(-0.000000, -83.000000) translate(-10.000000, 73.000000)" fill-rule="evenodd" fill="#252525">
                                <path d="M4,15.258963 L4,4.741037 L4,4.741037 C4,4.18875225 4.44771525,3.741037 5,3.741037 C5.17705464,3.741037 5.35093497,3.7880454 5.50387103,3.8772581 L14.5192362,9.1362211 L14.5192362,9.1362211 C14.9962881,9.41450138 15.1574243,10.0268191 14.879144,10.503871 C14.7922253,10.6528747 14.6682398,10.7768601 14.5192362,10.8637789 L5.50387103,16.1227419 L5.50387103,16.1227419 C5.02681911,16.4010222 4.41450138,16.2398859 4.1362211,15.762834 C4.0470084,15.609898 4,15.4360176 4,15.258963 Z" id="shape"></path>
                            </g>
                        </g>
                    </g>
                    <g id="Tap-/-Right-/-Snake-/-Up-/-Default-ALT" transform="translate(157.000000, 84.000000)">
                        <g id="Flow-/-Right-/-Snake-/-Up-/-Default-ALT">
                            <path class="fk-path-alt" d="M0,84 L39,84 L39,84 C61.09139,84 79,66.09139 79,44 L79,40 L79,40 C79,17.90861 96.90861,4.05812251e-15 119,4.73316543e-30 L158,-7.10542736e-15" id="path" stroke="#252525" stroke-width="4" stroke-linecap="round" stroke-linejoin="round" stroke-dasharray="4,12"></path>
                            <g id="Assets-/-Cap-/-Decision" transform="translate(148.000000, -10.000000)">
                                <g id="Rectangle">
                                    <use fill="#F7F7F7" fill-rule="evenodd" xlink:href="#path-1"></use>
                                    <path stroke="#252525" stroke-width="4" d="M10,2.82842712 L2.82842712,10 L10,17.1715729 L17.1715729,10 L10,2.82842712 Z"></path>
                                </g>
                            </g>
                            <g id="Assets-/-Cap-/-Circle-/-ALT" transform="translate(-10.000000, 74.000000)" fill-rule="evenodd" fill="#252525">
                                <circle id="map/path-end-circle" cx="10" cy="10" r="5"></circle>
                            </g>
                        </g>
                    </g>
                    <g id="Flow-/-Down-/-Curve-/-Right-/-Default" transform="translate(63.000000, 84.000000)">
                        <path d="M5.75583996e-15,84 L2.74087617e-15,40 L0,40 C-2.705415e-15,17.90861 17.90861,4.05812251e-15 40,0 L94,0" id="path" stroke="#252525" stroke-width="4" stroke-linecap="round" transform="translate(47.000000, 42.000000) scale(1, -1) translate(-47.000000, -42.000000) "></path>
                        <g id="Assets-/-Cap-/-Circle-/-Default" transform="translate(94.000000, 84.000000) scale(1, -1) translate(-94.000000, -84.000000) translate(84.000000, 74.000000)" fill-rule="evenodd" fill="#252525">
                            <circle id="map/path-end-circle" cx="10" cy="10" r="5"></circle>
                        </g>
                        <g id="Assets-/-Cap-/-Decision" transform="translate(0.000000, 0.000000) scale(1, -1) rotate(90.000000) translate(-0.000000, -0.000000) translate(-10.000000, -10.000000)">
                            <g id="Rectangle">
                                <use fill="#F7F7F7" fill-rule="evenodd" xlink:href="#path-2"></use>
                                <path stroke="#252525" stroke-width="4" d="M10,2.82842712 L2.82842712,10 L10,17.1715729 L17.1715729,10 L10,2.82842712 Z"></path>
                            </g>
                        </g>
                    </g>
                </g>
            </g>
        </g>
    </g>
</svg>
