<?xml version="1.0" encoding="UTF-8"?>
<svg width="271px" height="145px" viewBox="0 0 271 145" version="1.1" xmlns="http://www.w3.org/2000/svg" xmlns:xlink="http://www.w3.org/1999/xlink">
    <!-- Generator: Sketch 52.3 (67297) - http://www.bohemiancoding.com/sketch -->
    <title>logo-nbc</title>
    <desc>Created with Sketch.</desc>
    <g id="Page-1" stroke="none" stroke-width="1" fill="none" fill-rule="evenodd">
        <g id="logo-nbc">
            <rect id="Rectangle" fill="#FFFFFF" fill-rule="nonzero" x="0" y="0" width="271" height="145" rx="72.5"></rect>
            <g transform="translate(113.000000, 60.000000)" fill="#2b2c34" id="Path">
                <path d="M38.5696466,15.2058212 L25.4220374,24.024948 L29.8503119,13.4968815 L31.970894,8.56964657 C32.7935412,6.9988629 34.4020797,5.99650955 36.1746362,5.95010395 C37.8387109,5.93907014 39.390522,6.78808536 40.2785863,8.1954262 C41.2449312,9.82152891 41.2449312,11.8458308 40.2785863,13.4719335 C39.8253134,14.1624161 39.2351812,14.7525483 38.5446985,15.2058212 L38.5696466,15.2058212 Z"></path>
                <path d="M31.970894,6.8981289 L25.5218295,22.2785863 L25.2224532,20.5945946 L23.2390852,7.995842 C23.1435728,7.2685872 23.4733012,6.55094297 24.0873181,6.14968815 L25.022869,5.6008316 C25.022869,5.4012474 24.7983368,5.33887734 24.6735967,5.27650728 L22.8773389,5.31392931 C22.7392796,3.5335782 23.5927479,1.82184689 25.0977131,0.860706861 C26.4020921,0.0158983374 28.0371087,-0.137821171 29.4760915,0.449064449 C31.2325761,1.23209061 32.3827117,2.95486757 32.4324324,4.87733888 C32.4080963,5.57812322 32.2515007,6.26799043 31.970894,6.91060291 L31.970894,6.8981289 Z"></path>
                <path d="M19.4968815,22.3284823 L13.1351351,6.92307692 C12.4417244,5.19238966 12.7375053,3.22210691 13.9085239,1.77130977 C15.1032066,0.371685531 16.9940696,-0.219815194 18.7733888,0.249480249 C20.4170636,0.739767697 21.693687,2.03994505 22.1538462,3.69230769 C22.2982266,4.33456669 22.3361533,4.99617698 22.2661123,5.65072765 L19.4968815,22.3284823 Z"></path>
                <path d="M5.85031185,14.6444906 C4.56243689,13.5620599 3.91770027,11.8960981 4.14137214,10.2286902 C4.38330296,8.37095169 5.64547439,6.80528103 7.40956341,6.17463617 C9.11477699,5.61828878 10.9879656,6.07210252 12.2494802,7.34719335 C12.7328205,7.83716316 13.114376,8.41797542 13.3721414,9.05613306 L19.6091476,24.024948 L5.88773389,14.6569647 L5.85031185,14.6444906 Z"></path>
                <path d="M4.44074844,25.5841996 C2.78060357,25.4281298 1.3254482,24.4090471 0.611226611,22.9022869 C-0.188774216,21.1953403 0.00235817752,19.1884502 1.11018711,17.6632017 C2.65679615,15.6339868 5.5273269,15.1830606 7.62162162,16.6403326 L20.9313929,25.5966736 L4.44074844,25.5841996 Z"></path>
                <path d="M40.5779626,25.5841996 C42.2537107,25.445828 43.7280762,24.4232842 44.4449064,22.9022869 C45.2540086,21.1985388 45.0673939,19.1888427 43.95842,17.6632017 C42.8551321,16.2478222 41.0607474,15.5569361 39.2931393,15.8669439 C38.6274858,15.9957837 37.9950737,16.258935 37.4345114,16.6403326 L24.0873181,25.5966736 L40.5779626,25.5841996 Z"></path>
            </g>
        </g>
    </g>
</svg>