<svg width="96" height="60" viewBox="0 0 96 60" fill="none" xmlns="http://www.w3.org/2000/svg">
<path d="M82 40L92.1563 31.5364C93.1158 30.7369 93.1158 29.2631 92.1563 28.4636L82 20" stroke="#222222" stroke-width="4" stroke-linecap="round" stroke-linejoin="round"/>
<path d="M58 30C58 45.464 45.464 58 30 58C14.536 58 2 45.464 2 30C2 14.536 14.536 2 30 2C45.464 2 58 14.536 58 30Z" fill="#7B61FF" fill-opacity="0.1" stroke="#7B61FF" stroke-width="4" stroke-linecap="round" stroke-linejoin="round"/>
<path fill-rule="evenodd" clip-rule="evenodd" d="M30 38C34.4183 38 38 34.4183 38 30C38 25.5817 34.4183 22 30 22C25.5817 22 22 25.5817 22 30C22 34.4183 25.5817 38 30 38Z" stroke="#222222" stroke-width="4" stroke-linecap="round" stroke-linejoin="round"/>
<line x1="2" y1="-2" x2="53" y2="-2" transform="matrix(1 0 0 -1 37 28)" stroke="#222222" stroke-width="4" stroke-linecap="round" stroke-linejoin="round"/>
</svg>
