<svg id="Layer_1" data-name="Layer 1" xmlns="http://www.w3.org/2000/svg" viewBox="0 0 43.78 28.67"><defs><style>.cls-1{fill:#0089cf;}.cls-1,.cls-2,.cls-3,.cls-4,.cls-5,.cls-6{fill-rule:evenodd;}.cls-2{fill:#645faa;}.cls-3{fill:#d04347;}.cls-4{fill:#f37021;}.cls-5{fill:#fdb913;}.cls-6{fill:#0db14b;}</style></defs><title>logo-nbc</title><path class="cls-1" d="M34.29,14.93,23.75,22l3.55-8.44L29,9.61a3.92,3.92,0,0,1,3.37-2.1,3.86,3.86,0,0,1,3.29,1.8,4.14,4.14,0,0,1,0,4.23,4.84,4.84,0,0,1-1.39,1.39Z"/><path class="cls-2" d="M29,8.27,23.83,20.6l-.24-1.35L22,9.15a1.53,1.53,0,0,1,.68-1.48l.75-.44c0-.16-.18-.21-.28-.26L21.71,7a3.88,3.88,0,0,1,1.78-3.57A3.81,3.81,0,0,1,27,3.1a4,4,0,0,1,2.37,3.55A4.46,4.46,0,0,1,29,8.28Z"/><path class="cls-3" d="M19,20.64,13.9,8.29a4.13,4.13,0,0,1,.62-4.13,3.84,3.84,0,0,1,3.9-1.22A4,4,0,0,1,21.13,5.7a4.82,4.82,0,0,1,.09,1.57L19,20.64Z"/><path class="cls-4" d="M8.06,14.48a3.94,3.94,0,0,1-1.37-3.54A4,4,0,0,1,9.31,7.69a3.8,3.8,0,0,1,3.88.94,4.18,4.18,0,0,1,.9,1.37l5,12-11-7.51Z"/><path class="cls-5" d="M6.93,23.25A3.79,3.79,0,0,1,3.86,21.1a4.15,4.15,0,0,1,.4-4.2,3.82,3.82,0,0,1,5.22-.82l10.67,7.18Z"/><path class="cls-6" d="M35.9,23.25A3.77,3.77,0,0,0,39,21.1a4.13,4.13,0,0,0-.39-4.2,3.89,3.89,0,0,0-3.74-1.44,4,4,0,0,0-1.49.62L22.68,23.26Z"/></svg>