<svg id="Capa_1" data-name="Capa 1" xmlns="http://www.w3.org/2000/svg" viewBox="0 0 409.44 160.78"><title>logo-uber</title><g id="Boostrap3-grid-system-layouts"><g id="Artboard-8-Copy"><path id="logo" d="M96.73,51.45V85q.06,8.34-3.92,12.11T80.2,100.83q-8.62,0-12.61-3.77T63.67,85V50H52.48A1.25,1.25,0,0,0,51,51.45V85.5q.18,13.85,8.1,19.62t21.07,5.6q13.17.18,21.1-5.6T109.4,85.5V50H98.22a1.26,1.26,0,0,0-1.49,1.42Zm162,8.28a1.81,1.81,0,0,0,1.05-.25,1.77,1.77,0,0,0,.62-.74l3.22-8c.16-.45,0-.68-.5-.68h-45a7.72,7.72,0,0,0-4.45,1,3.62,3.62,0,0,0-1.36,3.15v52a3.3,3.3,0,0,0,1,2.66,5.3,5.3,0,0,0,3.43.87h42a1.89,1.89,0,0,0,1.05-.25,1.77,1.77,0,0,0,.62-.74l3.22-8c.16-.5,0-.75-.5-.75H224.84V89.4a4.56,4.56,0,0,1,1.67-4c1.16-.87,3.07-1.3,5.75-1.3h16.63a1.85,1.85,0,0,0,1.05-.25,1.83,1.83,0,0,0,.61-.74l3.09-7.66c.17-.49,0-.74-.49-.74H224.84v-15ZM179.55,78.21a11.69,11.69,0,0,0,5.28-5.31,17.65,17.65,0,0,0,1.64-7.73q-.32-9.64-6.77-12.54A33.47,33.47,0,0,0,164.59,50h-25.4a7.84,7.84,0,0,0-4.51,1,3.49,3.49,0,0,0-1.3,3.15v52a3.3,3.3,0,0,0,1,2.66,5.3,5.3,0,0,0,3.43.87H169.1q9,.06,14.52-3.8t5.69-12.7a18.35,18.35,0,0,0-2.38-9.49,12,12,0,0,0-7.38-5.47ZM145.68,59.48h19.84q4.81,0,6.64,1.89c1.21,1.26,1.8,3.18,1.76,5.78s-.55,4.53-1.76,5.81-3.43,1.91-6.64,1.91H145.68Zm22.12,40.73H145.68V89.15a4.52,4.52,0,0,1,1.7-4c1.17-.86,3.1-1.3,5.78-1.3H167.8q5.19,0,7.14,2t1.82,6.18q.13,4.08-1.82,6.12t-7.14,2Zm173.91,8.41L328.3,85.69a15.58,15.58,0,0,0,8.53-5.1q3.39-3.93,3.52-12.21Q340.23,57.76,334,53.8T316.49,50H291a7.72,7.72,0,0,0-4.45,1,3.65,3.65,0,0,0-1.36,3.15v54.08c0,.94.5,1.42,1.49,1.42h10.87V92.24a4.55,4.55,0,0,1,1.7-4c1.18-.86,3.1-1.3,5.78-1.3h11.06l12.05,21.76a1.85,1.85,0,0,0,.62.74,1.94,1.94,0,0,0,1,.25h11.37c.37,0,.59-.18.65-.4a.82.82,0,0,0-.09-.65Zm-23.36-31H297.52v-18h20.83q5.68,0,7.63,2.25c1.3,1.51,1.91,3.76,1.82,6.77q.13,4.58-1.82,6.8t-7.63,2.22Z"/></g></g></svg>