<?xml version="1.0" encoding="UTF-8"?>
<svg width="88px" height="37px" viewBox="0 0 88 37" version="1.1" xmlns="http://www.w3.org/2000/svg" xmlns:xlink="http://www.w3.org/1999/xlink">
    <!-- Generator: Sketch 48.2 (47327) - http://www.bohemiancoding.com/sketch -->
    <title>logo-stripe</title>
    <desc>Created with Sketch.</desc>
    <defs></defs>
    <g id="Desktop-HD-Copy-17" stroke="none" stroke-width="1" fill="none" fill-rule="evenodd" transform="translate(-826.000000, -5023.000000)">
        <g id="logos---color" transform="translate(222.000000, 4880.000000)" fill="#6772E5">
            <g id="logo-stripe" transform="translate(604.000000, 143.000000)">
                <path d="M88,19.3347085 C88,13.1388889 84.940332,8.25 79.0924181,8.25 C73.2198295,8.25 69.6666667,13.1388889 69.6666667,19.2863036 C69.6666667,26.5712321 73.8613728,30.25 79.8820099,30.25 C82.8183042,30.25 85.039031,29.5965347 86.7169134,28.6768427 L86.7169134,23.8363586 C85.039031,24.6592409 83.1144011,25.1674917 80.6716016,25.1674917 C78.2781516,25.1674917 76.1561238,24.3446095 75.8847017,21.4887239 L87.9506505,21.4887239 C87.9506505,21.1740924 88,19.9155666 88,19.3347085 Z M75.8106774,17.0354785 C75.8106774,14.3006051 77.5132346,13.1630913 79.0677434,13.1630913 C80.5729026,13.1630913 82.1767609,14.3006051 82.1767609,17.0354785 L75.8106774,17.0354785 Z" id="Shape"></path>
                <path d="M59.7142857,8.25 C57.3809524,8.25 55.8809524,9.35589397 55.047619,10.1252115 L54.7380952,8.63465877 L49.5,8.63465877 L49.5,36.6666667 L55.452381,35.3924845 L55.4761905,28.5888325 C56.3333333,29.213903 57.5952381,30.1034264 59.6904762,30.1034264 C63.952381,30.1034264 67.8333333,26.6414975 67.8333333,19.0204456 C67.8095238,12.0485054 63.8809524,8.25 59.7142857,8.25 Z M58.2857143,24.8143683 C56.8809524,24.8143683 56.047619,24.3095037 55.4761905,23.6844332 L55.452381,14.7651579 C56.0714286,14.0679639 56.9285714,13.5871404 58.2857143,13.5871404 C60.452381,13.5871404 61.952381,16.0393401 61.952381,19.1887338 C61.952381,22.410251 60.4761905,24.8143683 58.2857143,24.8143683 Z" id="Shape"></path>
                <polygon id="Shape" points="41.25 6.41666667 46.75 5.06841764 46.75 0 41.25 1.32328145"></polygon>
                <rect id="Rectangle-path" x="41.25" y="8.25" width="5.5" height="21.0833333"></rect>
                <path d="M35.1333333,10.3457051 L34.7333333,8.50685634 L29.3333333,8.50685634 L29.3333333,30.25 L35.5833333,30.25 L35.5833333,15.5143609 C37.0583333,13.6009643 39.5583333,13.9488546 40.3333333,14.222197 L40.3333333,8.50685634 C39.5333333,8.20866465 36.6083333,7.6619799 35.1333333,10.3457051 Z" id="Shape"></path>
                <path d="M22.1922043,2.75 L16.5232335,4.03828829 L16.5,23.8828829 C16.5,27.5495495 19.0789171,30.25 22.5174731,30.25 C24.422619,30.25 25.8166283,29.8783784 26.5833333,29.4324324 L26.5833333,24.4031532 C25.8398618,24.7252252 22.1689708,25.8648649 22.1689708,22.1981982 L22.1689708,13.4031532 L26.5833333,13.4031532 L26.5833333,8.12612613 L22.1689708,8.12612613 L22.1922043,2.75 Z" id="Shape"></path>
                <path d="M6.20879265,14.8016484 C6.20879265,13.8587912 6.99409449,13.4961538 8.29475066,13.4961538 C10.1598425,13.4961538 12.515748,14.0521978 14.3808399,15.0434066 L14.3808399,9.36208791 C12.3439633,8.56428571 10.3316273,8.25 8.29475066,8.25 C3.31299213,8.25 0,10.8126374 0,15.0917582 C0,21.7642857 9.32545932,20.7005495 9.32545932,23.5774725 C9.32545932,24.6895604 8.34383202,25.0521978 6.96955381,25.0521978 C4.93267717,25.0521978 2.33136483,24.2302198 0.269947507,23.1181319 L0.269947507,28.871978 C2.55223097,29.839011 4.85905512,30.25 6.96955381,30.25 C12.0740157,30.25 15.5833333,27.7598901 15.5833333,23.4324176 C15.5587927,16.228022 6.20879265,17.5093407 6.20879265,14.8016484 Z" id="Shape"></path>
            </g>
        </g>
    </g>
</svg>