<?xml version="1.0" encoding="UTF-8"?>
<svg width="271px" height="145px" viewBox="0 0 271 145" version="1.1" xmlns="http://www.w3.org/2000/svg" xmlns:xlink="http://www.w3.org/1999/xlink">
    <!-- Generator: Sketch 57.1 (83088) - https://sketch.com -->
    <title>logo-square</title>
    <desc>Created with Sketch.</desc>
    <g id="Page-1" stroke="none" stroke-width="1" fill="none" fill-rule="evenodd">
        <g id="logo-square" fill-rule="nonzero">
            <rect id="Rectangle" fill="#FFFFFF" x="0" y="0" width="271" height="145" rx="72.5"></rect>
            <g id="Group" transform="translate(113.000000, 50.000000)" fill="#2b2c34">
                <path d="M36.65,-2.72503335e-07 L7.354,-2.72503335e-07 C3.29249795,-2.72503335e-07 0,3.29249795 0,7.354 L0,36.65 C0,40.7115021 3.29249795,44.0040001 7.354,44.0040001 L36.65,44.0040001 C38.6004834,44.0040001 40.4711562,43.2295563 41.8503562,41.8503562 C43.2295563,40.4711562 44.0040003,38.6004834 44.0040003,36.65 L44.0040003,7.354 C44.0045307,5.40343529 43.2299069,3.53260826 41.8506493,2.15335067 C40.4713917,0.774093089 38.6005647,-0.000530693733 36.65,-2.72503335e-07 Z M36.0039998,33.685 C36.0039998,34.9663006 34.9653006,36.0050002 33.684,36.0050002 L10.325,36.0050002 C9.7095245,36.0050002 9.11916649,35.7609545 8.68386578,35.3258414 C8.24856508,34.8907282 8.00399978,34.3004756 8.00399978,33.685 L8.00399978,10.325 C8.00399978,9.7093512 8.24818257,9.11884154 8.68351205,8.68351205 C9.11884154,8.24818257 9.7093512,8.00399978 10.325,8.00399978 L33.684,8.00399978 C34.2994756,8.00399978 34.8897282,8.24856508 35.3248414,8.68386578 C35.7599545,9.11916649 36.0039998,9.7095245 36.0039998,10.325 L36.0039998,33.685 Z" id="Shape"></path>
                <path d="M17.333,28.003 C16.597,28.003 16.001,27.403 16.001,26.664 L16.001,17.34 C16.001,16.601 16.597,16.001 17.333,16.001 L26.671,16.001 C27.409,16.001 28.003,16.601 28.003,17.34 L28.003,26.664 C28.003,27.403 27.409,28.003 26.671,28.003 L17.333,28.003 Z" id="Path"></path>
            </g>
        </g>
    </g>
</svg>