<?xml version="1.0" encoding="UTF-8"?>
<svg width="271px" height="145px" viewBox="0 0 271 145" version="1.1" xmlns="http://www.w3.org/2000/svg" xmlns:xlink="http://www.w3.org/1999/xlink">
    <!-- Generator: Sketch 52.3 (67297) - http://www.bohemiancoding.com/sketch -->
    <title>logo-ueno</title>
    <desc>Created with Sketch.</desc>
    <g id="Page-1" stroke="none" stroke-width="1" fill="none" fill-rule="evenodd">
        <g id="logo-ueno" fill-rule="nonzero">
            <rect id="Rectangle" fill="#FFFFFF" x="0" y="0" width="271" height="145" rx="72.5"></rect>
            <g transform="translate(101.000000, 64.000000)" fill="#2b2c34" id="Shape">
                <path d="M37.4721519,15.6360148 L33.3164557,15.6360148 L33.3164557,0.509812257 L37.4703798,0.509812257 L37.4703798,2.98019201 C38.4251335,1.12628211 40.3742609,0.000373619101 42.4572152,0.0995590966 C46.5420253,0.0995590966 48.0306329,2.84639454 48.0306329,6.20550846 L48.0306329,15.6360148 L43.8767089,15.6360148 L43.8767089,7.02690087 C43.8767089,4.69563505 42.9418988,3.35677428 40.8994937,3.35677428 C38.7879747,3.35677428 37.4721519,5.00221733 37.4721519,7.54082496 L37.4721519,15.6360148 Z M57.5949367,16.0489262 C53.2002035,16.0000826 49.6734151,12.4047669 49.7091429,8.00990746 C49.7448706,3.61504806 53.329645,0.0775454966 57.7245914,0.100157125 C62.1195379,0.122768753 65.6677231,3.69696978 65.6582278,8.09196413 C65.6582278,12.790825 62.335443,16.0489262 57.5949367,16.0489262 Z M57.5949367,12.9272806 C60.1565823,12.9272806 61.4724051,10.9389262 61.4724051,8.09196413 C61.4724051,5.20867302 60.1565823,3.21854644 57.5949367,3.21854644 C55.0678481,3.21854644 53.7529114,5.20690087 53.7529114,8.09196413 C53.7511393,10.9380401 55.066076,12.9263945 57.5949367,12.9263945 L57.5949367,12.9272806 Z M10.558481,0.509812257 L14.7088607,0.509812257 L14.7088607,15.6360148 L10.5549367,15.6360148 L10.5549367,13.1656351 C9.60174804,15.0187667 7.65508553,16.1454902 5.57341772,16.0489262 C1.4886076,16.0489262 2.84217094e-14,13.3020907 2.84217094e-14,9.9438629 L2.84217094e-14,0.509812257 L4.15392405,0.509812257 L4.15392405,9.11981228 C4.15392405,11.451078 5.08873418,12.7899389 7.13113924,12.7899389 C9.24265819,12.7899389 10.558481,11.1427236 10.558481,8.60411607 L10.558481,0.509812257 Z M27.8573418,11.3341161 C27.1078261,12.4415309 25.8146399,13.0528059 24.4831645,12.9290528 C22.291298,13.0035551 20.4434825,11.3090347 20.3283544,9.11892619 L31.7870886,9.11892619 L31.7870886,7.64449582 C31.7870886,3.52867302 29.225443,0.0986730225 24.2403798,0.0986730225 C22.0723446,0.0587638517 19.9841476,0.916343487 18.4699319,2.46847751 C16.9557162,4.02061153 16.1500359,6.12937629 16.2435443,8.29576166 C16.2435443,13.0628502 19.6363291,16.047154 24.3440506,16.047154 C27.3301266,16.047154 29.5718988,14.8872806 30.8124051,12.8439895 L27.8573418,11.3341161 Z M24.2058228,3.11664771 C25.1330004,3.08784587 26.0322014,3.43639338 26.6977464,4.08256492 C27.3632914,4.72873647 27.7382427,5.61725179 27.7368433,6.54487555 L20.3974684,6.54487555 C20.778481,4.66107808 21.921519,3.11753378 24.2058228,3.11753378 L24.2058228,3.11664771 Z M67.9141772,15.964749 C66.7679313,15.9701454 65.8342125,15.0455496 65.8283544,13.8993059 L65.8283544,13.8106984 C65.8309334,13.2600869 66.0521394,12.7330522 66.4433084,12.345539 C66.8344774,11.9580258 67.3635658,11.7417781 67.9141772,11.7443692 C68.4652473,11.7417788 68.9947376,11.9583909 69.385983,12.3464786 C69.7772285,12.7345661 69.9981245,13.2622835 70,13.8133566 L70,13.9019641 C69.9936547,15.0478611 69.060079,15.9719186 67.9141772,15.9665211 L67.9141772,15.964749 Z"></path>
            </g>
        </g>
    </g>
</svg>