<?xml version="1.0" encoding="UTF-8"?>
<svg width="117px" height="29px" viewBox="0 0 117 29" version="1.1" xmlns="http://www.w3.org/2000/svg" xmlns:xlink="http://www.w3.org/1999/xlink">
    <!-- Generator: Sketch 48.2 (47327) - http://www.bohemiancoding.com/sketch -->
    <title>logo-dribbble</title>
    <desc>Created with Sketch.</desc>
    <defs></defs>
    <g id="Desktop-HD-Copy-17" stroke="none" stroke-width="1" fill="none" fill-rule="evenodd" transform="translate(-222.000000, -4880.000000)">
        <g id="logos---color" transform="translate(222.000000, 4880.000000)" fill="#000000" fill-rule="nonzero">
            <g id="logo-dribbble">
                <path d="M116.818889,22.4382943 C111.930076,30.6790647 104.190496,28.2925973 101.864871,26.4157401 C100.877106,27.086934 99.1391386,28.5411876 96.8260171,28.3796039 C91.8996934,28.0191479 90.1367197,21.0213292 90.1367197,21.0213292 C90.1742298,21.0461883 88.6738266,21.5309395 87.8611082,21.5309395 C87.8486049,23.58181 86.0606244,28.4914696 81.246831,28.429322 C75.8453796,28.3547449 74.7450839,20.3501353 74.7450839,20.3501353 C74.7450839,20.3501353 74.2074395,21.0959063 72.1568885,21.8292479 C72.2569154,20.2506991 72.1818952,28.1807316 65.7051549,28.3050268 C60.5787775,28.3920334 59.2034079,20.2258401 59.2034079,20.2258401 C59.2034079,20.2258401 58.3156694,21.1456244 56.5902057,21.4563624 C56.702736,19.8529545 56.5276889,28.3298858 50.0384453,28.2925973 C45.6622694,28.2801678 44.1618663,23.2586425 44.2743965,22.5625895 C44.4244368,21.6800937 42.7990001,28.4168925 38.5353544,28.3174563 C36.7848841,28.2677382 35.4720313,26.9999274 34.6468096,25.3219425 C33.5465139,26.5773238 31.9460839,28.3174563 30.1581035,28.3174563 C26.94474,28.3174563 25.5318604,25.6451099 25.7694242,18.0133859 C25.7944309,17.1060311 25.7194108,16.745575 24.8191689,16.6212799 C24.2815244,16.5342732 23.7188732,16.36026 23.1312153,16.2732534 C22.9436649,16.8947293 21.3432349,28.118584 15.8417567,28.3423154 C13.9912594,28.4168925 12.9909907,26.8259142 12.1532656,25.6451099 C10.8779229,27.3230949 9.2024727,28.3920334 6.81433101,28.3920334 C2.76324248,28.3920334 0,25.1354997 0,21.1207654 C0,17.1060311 2.76324248,13.8494973 6.81433101,13.8494973 C7.52702251,13.8494973 7.72707626,13.9489335 8.38975432,14.1353763 C7.03939148,1.95444859 10.2152448,0.052732329 13.003494,0.052732329 C15.6667096,0.052732329 20.2304359,6.20534375 13.8162124,21.8168184 C15.2415954,26.4778877 18.3049185,26.2168678 19.780315,16.6212799 C20.0803956,14.6698455 19.2801806,12.0472172 20.5305165,11.6743317 C22.8186313,11.0031377 23.0561952,13.0167196 24.1189808,13.3523166 C25.2442831,13.7127726 25.9069612,13.6754841 26.9947535,13.8992154 C28.8452507,14.2596714 29.5704456,15.2540329 29.3453851,17.4540576 C29.0703112,20.2506991 28.5951835,24.3151515 30.0455732,24.8123322 C31.0958554,25.1727883 32.9963661,23.0224816 33.3339568,21.8416774 C33.6715475,20.6608732 33.7340643,20.2631286 33.7715744,19.3930624 C33.8215878,17.5410642 33.8716013,16.1862467 34.1966886,14.7941407 C34.3342256,14.2472419 34.4842659,13.8992154 35.0969305,13.8743564 C35.5970649,13.8619269 36.5348169,13.7127726 36.9349244,14.0235106 C37.4725689,14.4336847 37.4100521,14.8438588 37.3475353,15.9252268 C36.7098639,31.3751178 41.5736708,23.6563871 43.0240605,17.4913461 C42.5114228,10.505957 42.8615169,0.177027509 47.2626995,0.0030142569 C49.5508143,-0.0839923693 50.5635864,1.73071726 50.6761166,3.09796425 C50.9887006,6.93868532 49.2257269,13.3025985 46.9126054,17.5907823 C45.5872493,26.3287334 52.7141643,28.0564364 53.85197,21.0834768 C51.9889694,20.200981 49.9759285,16.6337094 51.6138686,14.9060064 C52.5391172,13.936504 56.3651453,15.32861 56.4276621,18.3862714 C58.303166,17.8890907 58.5532332,16.8325817 58.5782399,17.0065949 C58.0656022,10.0212058 58.5407299,0.189457027 62.9419124,0.0154437749 C65.2300273,-0.0715628513 66.2427994,1.74314678 66.3553296,3.11039376 C66.6679136,6.95111483 64.9049399,13.3150281 62.5918184,17.6032118 C61.2664623,26.341163 68.3933773,28.068866 69.531183,21.0959063 C68.1558134,20.8348865 65.2425306,17.0438835 66.9179808,14.9184359 C67.8182227,13.7873497 71.6317474,16.1489582 72.0568616,18.4981371 C73.8573454,17.9885268 74.1074126,16.9693064 74.1324193,17.1433196 C73.6197816,10.1579305 74.0949092,0.326181726 78.4960918,0.152168473 C80.7842067,0.065161847 81.7969788,1.87987148 81.909509,3.24711846 C82.222093,7.08783953 80.4591193,13.4517528 78.1459978,17.7399365 C76.8206417,26.4778877 83.9475566,28.2055907 85.0853624,21.232631 C83.1848517,20.9218931 80.4966294,16.9195883 82.6597106,14.8687178 C83.5224424,14.0483696 86.8358327,16.1738172 87.611041,18.5975732 C88.68633,18.5602847 89.3615114,18.1873991 89.4990483,18.1501106 C87.7860881,9.9590582 89.0614307,0.114879919 93.800204,0.040302811 C96.3633928,-0.00941526113 98.8640647,1.41997931 97.7637691,9.21328711 C96.7134868,16.6585684 92.9499756,19.7783774 92.9499756,19.8280955 C93.1750361,20.7230208 95.1005534,28.1807316 99.9768637,24.2405744 C99.7267965,23.6688166 99.4767293,23.0970587 99.326689,22.3885762 C98.5139706,18.2992648 100.101897,13.6754841 104.415556,12.929713 C106.878718,12.5071094 109.204343,13.7003431 109.579444,16.385119 C110.179605,20.7975979 106.17853,23.9795545 104.65312,24.6756075 C103.965435,24.2902925 110.82978,28.6654828 114.905875,19.9026726 C115.143439,19.4054919 115.431016,19.4427804 115.793614,19.7038003 C116.031177,19.8529545 117.506574,21.2574901 116.818889,22.4382943 Z M9.75262052,20.0269678 C9.54006341,19.4054919 9.11494918,18.0506744 8.96490886,17.4664871 C8.13968713,16.745575 7.53952587,16.6337094 6.4767403,16.6337094 C4.11360532,16.6337094 2.7257324,18.808875 2.7257324,21.1456244 C2.7257324,23.4823738 4.23863892,25.6575395 6.60177389,25.6575395 C8.65232487,25.6575395 10.2027415,24.277863 10.6778691,22.3139991 C10.3527818,21.5557985 10.0276944,20.847316 9.75262052,20.0269678 Z M12.9284739,3.2719775 C11.265527,3.2719775 10.7028759,7.21213471 10.8154061,10.5681046 C10.915433,13.5387594 11.7406547,16.1489582 12.1782723,17.3173329 C12.2908025,17.4664871 12.2657958,17.3670509 12.3658227,17.5286347 C15.2415954,11.2517281 14.0537762,3.2719775 12.9284739,3.2719775 Z M47.4877599,3.39627268 C45.3371821,3.14768232 45.3496854,12.0347877 45.6247593,14.0235106 C46.7375583,12.258519 48.6755791,3.88102388 47.4877599,3.39627268 Z M63.1669729,3.39627268 C61.0163951,3.14768232 61.0414018,12.0347877 61.3039723,14.0235106 C62.404268,12.258519 64.3422887,3.88102388 63.1669729,3.39627268 Z M78.708649,3.52056786 C76.5580711,3.2719775 76.5830778,12.1590829 76.8456484,14.1478058 C77.9584474,12.3828142 79.8839648,4.00531906 78.708649,3.52056786 Z M94.0002578,2.88666244 C90.6618608,3.55785641 91.4370691,14.632557 91.9497068,16.5715618 C95.8757617,11.1895805 95.9632853,2.67536063 94.0002578,2.88666244 Z M106.528624,16.7331455 C106.353577,16.024663 105.503349,15.6517775 104.928194,15.7387841 C103.252744,15.9625154 101.627307,18.0506744 102.252475,21.207772 C102.390012,21.9162545 102.740106,22.5625895 102.740106,22.5377304 C106.491114,20.0269678 106.803698,18.0631039 106.528624,16.7331455 Z M35.7471052,11.4381708 C34.4092457,11.4381708 33.3214535,10.3568028 33.3214535,9.02684434 C33.3214535,7.69688591 34.4092457,6.61551785 35.7471052,6.61551785 C37.0849647,6.61551785 38.172757,7.69688591 38.172757,9.02684434 C38.172757,10.3568028 37.0849647,11.4381708 35.7471052,11.4381708 Z" id="Shape"></path>
            </g>
        </g>
    </g>
</svg>