<?xml version="1.0" encoding="UTF-8"?>
<svg width="119px" height="119px" viewBox="0 0 119 119" version="1.1" xmlns="http://www.w3.org/2000/svg" xmlns:xlink="http://www.w3.org/1999/xlink">
    <!-- Generator: Sketch 48.2 (47327) - http://www.bohemiancoding.com/sketch -->
    <title>logo-metalab</title>
    <desc>Created with Sketch.</desc>
    <defs></defs>
    <g id="Desktop-HD-Copy-17" stroke="none" stroke-width="1" fill="none" fill-rule="evenodd" transform="translate(-211.000000, -5396.000000)">
        <g id="logo-metalab" transform="translate(211.000000, 5400.000000)">
            <path d="M71.013,105.0378 L74.803,108.1778 C79.883,112.3968 87.603,108.9868 87.903,102.3878 L88.033,99.5168 L75.843,95.3968 L71.013,105.0378 Z" id="Fill-1" fill="#FEB913"></path>
            <path d="M9.4026,67.1872 L6.2426,71.0472 C2.0526,76.1472 5.5126,83.8472 12.1026,84.1072 L14.9426,84.2272 L19.0226,71.9472 L9.4026,67.1872 Z" id="Fill-3" fill="#FEB913"></path>
            <path d="M108.9827,43.407 L112.1827,39.557 C116.3927,34.477 112.9927,26.758 106.3927,26.458 L103.6127,26.328 L99.4427,38.628 L108.9827,43.407 Z" id="Fill-5" fill="#FEB913"></path>
            <path d="M47.243,5.4577 L43.313,2.2367 C38.203,-1.9423 30.513,1.5077 30.253,8.1067 L30.143,10.8567 L42.533,14.9677 L47.243,5.4577 Z" id="Fill-7" fill="#FEB913"></path>
            <path d="M9.473,43.407 L19.003,38.628 L14.843,26.328 L12.063,26.458 C5.463,26.758 2.053,34.477 6.273,39.557 L9.473,43.407 Z" id="Fill-9" fill="#FEB913"></path>
            <path d="M88.3128,10.8572 L88.2028,8.1072 C87.9428,1.5072 80.2428,-1.9428 75.1428,2.2372 L71.0828,5.5672 L75.8228,14.9982 L88.3128,10.8572 Z" id="Fill-11" fill="#FEB913"></path>
            <path d="M30.4227,99.5173 L30.5527,102.3873 C30.8527,108.9873 38.5727,112.3973 43.6527,108.1773 L47.3127,105.1373 L42.5127,95.4373 L30.4227,99.5173 Z" id="Fill-13" fill="#FEB913"></path>
            <path d="M109.053,67.1872 L99.433,71.9472 L103.513,84.2172 L106.343,84.1072 C112.943,83.8472 116.393,76.1472 112.213,71.0472 L109.053,67.1872 Z" id="Fill-15" fill="#FEB913"></path>
            <path d="M16.2527,24.2575 L16.9227,26.2275 L20.8127,37.7175 L27.1827,34.5275 L29.2227,33.4975 L34.1327,31.0375 C34.5227,30.8375 34.8427,30.5175 35.0327,30.1375 L37.4327,25.2775 L38.4527,23.2275 L41.6427,16.7775 L30.0527,12.9375 L28.0827,12.2875 L25.4427,11.4065 C19.1727,9.3275 13.2327,15.3075 15.3427,21.5675 L16.2527,24.2575 Z" id="Fill-17" fill="#E42C62"></path>
            <path d="M102.0828,86.2878 L101.4328,84.3078 L97.6228,72.8378 L91.1228,76.0478 L89.0728,77.0668 L84.3128,79.4178 C83.9328,79.6168 83.6128,79.9278 83.4128,80.3168 L80.9928,85.1378 L79.9728,87.1778 L76.7528,93.5978 L88.1328,97.4468 L90.1028,98.1168 L92.8028,99.0268 C99.0628,101.1378 105.0428,95.1968 102.9628,88.9278 L102.0828,86.2878 Z" id="Fill-19" fill="#E42C62"></path>
            <path d="M38.4227,87.1775 L37.4127,85.1375 L35.0327,80.3175 C34.8427,79.9275 34.5227,79.6075 34.1327,79.4175 L29.3727,77.0675 L27.3327,76.0575 L20.8327,72.8375 L17.0227,84.3075 L16.3727,86.2875 L15.4927,88.9275 C13.4127,95.1975 19.3927,101.1375 25.6527,99.0275 L28.3527,98.1165 L30.3227,97.4475 L41.6127,93.6275 L38.4227,87.1775 Z" id="Fill-21" fill="#E42C62"></path>
            <path d="M79.9529,23.2273 L80.9829,25.2773 L83.4229,30.1373 C83.6129,30.5173 83.9329,30.8373 84.3129,31.0273 L89.2329,33.4983 L91.2729,34.5273 L97.6429,37.7173 L101.5229,26.2273 L102.1929,24.2573 L103.1029,21.5673 C105.2229,15.3073 99.2729,9.3283 93.0129,11.4073 L90.3729,12.2773 L88.4029,12.9373 L76.7329,16.8073 L79.9529,23.2273 Z" id="Fill-23" fill="#E42C62"></path>
            <path d="M68.9525,65.9978 C68.5025,65.5478 68.2225,64.9178 68.2225,64.2268 L68.2225,51.2578 L61.1425,57.1378 C60.0325,58.0578 58.4225,58.0578 57.3125,57.1378 L50.2225,51.2578 L50.2225,64.2268 C50.2225,65.6068 49.1025,66.7268 47.7225,66.7268 C47.0325,66.7268 46.4025,66.4478 45.9525,65.9978 C45.5025,65.5478 45.2225,64.9178 45.2225,64.2268 L45.2225,47.3478 C45.2225,45.3478 46.8425,43.7268 48.8425,43.7268 L48.8525,43.7268 C49.7325,43.7268 50.5925,44.0478 51.2525,44.6378 L59.2225,51.7268 L67.2025,44.6378 C67.8625,44.0478 68.7125,43.7268 69.6025,43.7268 C70.6025,43.7268 71.5025,44.1278 72.1625,44.7878 C72.8225,45.4478 73.2225,46.3478 73.2225,47.3478 L73.2225,64.2268 C73.2225,65.6068 72.1025,66.7268 70.7225,66.7268 C70.0325,66.7268 69.4025,66.4478 68.9525,65.9978 M114.0425,48.1868 L109.5125,45.9178 L107.6725,44.9868 L98.8025,40.5378 L96.9925,39.6378 L91.3725,36.8078 L89.3225,35.7878 L83.4125,32.8168 C82.6425,32.4278 82.0225,31.8078 81.6325,31.0378 L78.6925,25.1678 L77.6625,23.1178 L74.8125,17.4478 L73.9025,15.6378 L69.5025,6.8678 L68.5825,5.0378 L66.2625,0.4078 C63.3025,-5.4922 54.8725,-5.4622 51.9425,0.4578 L49.7325,4.9178 L48.8225,6.7578 L44.4525,15.6068 L43.5525,17.4178 L40.7325,23.1178 L39.7125,25.1778 L36.8225,31.0178 C36.4425,31.7978 35.8125,32.4368 35.0325,32.8278 L29.1325,35.7878 L27.0825,36.8168 L21.4525,39.6378 L19.6525,40.5478 L10.7825,44.9868 L8.9425,45.9178 L4.4125,48.1868 C-1.4875,51.1468 -1.4675,59.5878 4.4525,62.5078 L8.8625,64.6868 L10.7125,65.5978 L19.6525,70.0268 L21.4625,70.9178 L27.2225,73.7678 L29.2725,74.7768 L35.0125,77.6178 C35.8025,78.0078 36.4425,78.6468 36.8325,79.4368 L39.6925,85.2268 L40.7025,87.2678 L43.5225,92.9768 L44.4225,94.7878 L48.8925,103.8278 L49.8025,105.6678 L51.9425,109.9978 C54.8725,115.9178 63.3025,115.9368 66.2625,110.0378 L68.5125,105.5578 L69.4325,103.7178 L73.9325,94.7578 L74.8425,92.9478 L77.6925,87.2678 L78.7125,85.2268 L81.6325,79.4178 C82.0225,78.6378 82.6525,78.0178 83.4325,77.6278 L89.1725,74.7878 L91.2325,73.7678 L96.9925,70.9278 L98.8025,70.0268 L107.7425,65.5978 L109.5825,64.6978 L114.0025,62.5078 C119.9125,59.5878 119.9425,51.1468 114.0425,48.1868" id="Fill-25" fill="#1C1D1D"></path>
        </g>
    </g>
</svg>