<?xml version="1.0" encoding="UTF-8"?>
<svg width="271px" height="145px" viewBox="0 0 271 145" version="1.1" xmlns="http://www.w3.org/2000/svg" xmlns:xlink="http://www.w3.org/1999/xlink">
    <!-- Generator: Sketch 52.3 (67297) - http://www.bohemiancoding.com/sketch -->
    <title>logo-intuit</title>
    <desc>Created with Sketch.</desc>
    <g id="Page-1" stroke="none" stroke-width="1" fill="none" fill-rule="evenodd">
        <g id="logo-intuit">
            <rect id="Rectangle" fill="#F9F9F9" fill-rule="nonzero" x="0" y="0" width="271" height="145" rx="72.5"></rect>
            <g transform="translate(81.000000, 46.000000)">
                <g id="Logo" transform="translate(15.157480, 15.590551)" fill="#111133" fill-rule="nonzero">
                    <path d="M78.5633858,21.0992126 C78.5578437,20.9817635 78.5017898,20.872447 78.4096523,20.7994011 C78.3175149,20.7263552 78.198294,20.6967151 78.0826772,20.7181102 L77.6496063,20.7181102 L77.6496063,22.0173228 L77.8791339,22.0173228 L77.8791339,21.4759843 L78.0480315,21.4759843 L78.3511811,22.0173228 L78.6326772,22.0173228 L78.2818898,21.45 C78.4501963,21.4198422 78.5703952,21.2700559 78.5633858,21.0992126 Z M77.861811,21.2854331 L77.861811,20.9259843 L78.0740157,20.9259843 C78.1318196,20.9119396 78.1928708,20.9233317 78.2417197,20.9572775 C78.2905686,20.9912234 78.3225343,21.0444702 78.3295276,21.1035433 C78.320371,21.1676262 78.2845799,21.224863 78.2309733,21.2611505 C78.1773666,21.2974381 78.1109293,21.3094021 78.0480315,21.2940945 L77.861811,21.2940945 L77.861811,21.2854331 Z M78.0783465,20.2244094 C77.4487502,20.236353 76.9473398,20.7551486 76.9568547,21.3847862 C76.9663696,22.0144239 77.4832273,22.5178317 78.1128969,22.5107456 C78.7425666,22.5036594 79.2479643,21.9887474 79.2433071,21.3590551 C79.2398875,21.053916 79.1150815,20.762703 78.8964765,20.5497866 C78.6778714,20.3368702 78.3834697,20.2197841 78.0783465,20.2244094 Z M78.0783465,22.342126 C77.5425868,22.342126 77.1082677,21.9078069 77.1082677,21.3720472 C77.1082677,20.8362875 77.5425868,20.4019685 78.0783465,20.4019685 C78.6141062,20.4019685 79.0484252,20.8362875 79.0484252,21.3720472 C79.0460537,21.9068215 78.6131207,22.3397544 78.0783465,22.342126 Z" id="_"></path>
                    <path d="M0.424409449,6.7515748 L4.32204724,6.7515748 L4.32204724,22.342126 L0.424409449,22.342126 L0.424409449,6.7515748 Z M16.9200787,6.29685039 C14.8800405,6.26652483 13.0030744,7.40785491 12.0913386,9.23307087 L12.026378,9.23307087 L12.026378,6.73425197 L8.32362205,6.73425197 L8.32362205,22.3248031 L12.2212598,22.3248031 L12.2212598,13.75 C12.2212598,11.6712598 13.3905512,9.52755906 15.8590551,9.52755906 C18.3275591,9.52755906 18.7822835,11.8358268 18.7822835,13.6850394 L18.7822835,22.3464567 L22.6799213,22.3464567 L22.6799213,12.6023622 C22.6799213,9.41496063 20.9909449,6.29685039 16.9330709,6.29685039 L16.9200787,6.29685039 Z M50.465748,15.326378 C50.465748,17.4051181 49.2964567,19.5488189 46.8279528,19.5488189 C44.3594488,19.5488189 43.9047244,17.2448819 43.9047244,15.3913386 L43.9047244,6.72992126 L40.0070866,6.72992126 L40.0070866,16.4740157 C40.0070866,19.6570866 41.696063,22.7751969 45.7582677,22.7751969 C47.8065751,22.8058996 49.6895261,21.6545518 50.5956693,19.8173228 L50.6606299,19.8173228 L50.6606299,22.3204724 L54.3633858,22.3204724 L54.3633858,6.72992126 L50.465748,6.72992126 L50.465748,15.3047244 L50.465748,15.326378 Z M58.3519685,22.342126 L62.2496063,22.342126 L62.2496063,6.7515748 L58.3519685,6.7515748 L58.3519685,22.342126 Z M24.6547244,10.2161417 L29.0244094,10.2161417 L29.0244094,22.342126 L32.9220472,22.342126 L32.9220472,10.2161417 L37.2917323,10.2161417 L37.2917323,6.7515748 L24.676378,6.7515748 L24.676378,10.2161417 L24.6547244,10.2161417 Z M30.9732283,4.72913386 C32.274359,4.72913386 33.3291339,3.67435903 33.3291339,2.37322835 C33.3291339,1.07209766 32.274359,0.0173228346 30.9732283,0.0173228346 C29.6720977,0.0173228346 28.6173228,1.07209766 28.6173228,2.37322835 C28.6268579,3.67267197 29.6867618,4.71901225 30.9862205,4.71181102 L30.9732283,4.72913386 Z M64.9822835,6.76023622 L64.9822835,10.2248031 L69.3519685,10.2248031 L69.3519685,22.3507874 L73.2496063,22.3507874 L73.2496063,10.2248031 L77.6192913,10.2248031 L77.6192913,6.76023622 L64.9952756,6.76023622 L64.9822835,6.76023622 Z M71.3007874,4.72913386 C72.6019181,4.72913386 73.6566929,3.67435903 73.6566929,2.37322835 C73.6566929,1.07209766 72.6019181,0.0173228346 71.3007874,0.0173228346 C69.9996567,0.0173228346 68.9448819,1.07209766 68.9448819,2.37322835 C68.9544169,3.67267197 70.0143209,4.71901225 71.3137795,4.71181102 L71.3007874,4.72913386 Z" id="Intuit"></path>
                </g>
                <rect id="Clearspace" x="0" y="0" width="109.978346" height="53.9779528"></rect>
            </g>
        </g>
    </g>
</svg>