<?xml version="1.0" encoding="UTF-8"?>
<svg width="138px" height="40px" viewBox="0 0 138 40" version="1.1" xmlns="http://www.w3.org/2000/svg" xmlns:xlink="http://www.w3.org/1999/xlink">
    <!-- Generator: Sketch 48.2 (47327) - http://www.bohemiancoding.com/sketch -->
    <title>logo-shopify</title>
    <desc>Created with Sketch.</desc>
    <defs></defs>
    <g id="Desktop-HD-Copy-17" stroke="none" stroke-width="1" fill="none" fill-rule="evenodd" transform="translate(-501.000000, -5021.000000)">
        <g id="logos---color" transform="translate(222.000000, 4880.000000)" fill-rule="nonzero">
            <g id="logo-shopify" transform="translate(279.000000, 141.000000)">
                <g id="Group">
                    <path d="M29.6424,7.5072 C29.6148,7.314 29.4492,7.2036 29.3112,7.2036 C29.1732,7.2036 26.22,6.9828 26.22,6.9828 C26.22,6.9828 24.1776,4.9404 23.9292,4.7196 C23.7084,4.4988 23.2668,4.554 23.1012,4.6092 C23.0736,4.6092 22.6596,4.7472 21.942,4.968 C21.252,2.9532 20.0376,1.1316 17.9124,1.1316 C17.8572,1.1316 17.802,1.1316 17.7192,1.1316 C17.1396,0.3588 16.3668,0 15.732,0 C10.764,0 8.3904,6.21 7.6452,9.3564 C5.7132,9.9636 4.3332,10.3776 4.1676,10.4328 C3.0912,10.764 3.0636,10.7916 2.9256,11.8128 C2.8152,12.5856 0,34.3896 0,34.3896 L21.942,38.502 L33.8376,35.9352 C33.8376,35.9076 29.67,7.7004 29.6424,7.5072 Z M20.7276,5.2992 C20.1756,5.4648 19.5408,5.658 18.8784,5.8788 C18.8784,5.7408 18.8784,5.6304 18.8784,5.4648 C18.8784,4.2504 18.7128,3.2568 18.4368,2.4564 C19.5408,2.622 20.2584,3.864 20.7276,5.2992 Z M17.0568,2.7324 C17.3604,3.5052 17.5536,4.5816 17.5536,6.072 C17.5536,6.1548 17.5536,6.21 17.5536,6.2928 C16.3392,6.6792 15.042,7.0656 13.7172,7.4796 C14.4624,4.6368 15.87,3.2568 17.0568,2.7324 Z M15.594,1.3248 C15.8148,1.3248 16.0356,1.4076 16.2288,1.5456 C14.628,2.2908 12.9444,4.1676 12.2268,7.9488 C11.178,8.28 10.1568,8.5836 9.1908,8.8872 C10.0188,6.0168 12.0336,1.3248 15.594,1.3248 Z" id="Shape" fill="#95BF47"></path>
                    <path d="M29.3112,7.176 C29.1732,7.176 26.22,6.9552 26.22,6.9552 C26.22,6.9552 24.1776,4.9128 23.9292,4.692 C23.8464,4.6092 23.736,4.554 23.6256,4.554 L21.9696,38.502 L33.8652,35.9352 C33.8652,35.9352 29.6976,7.7004 29.67,7.5072 C29.6148,7.314 29.4492,7.2036 29.3112,7.176 Z" id="Shape" fill="#5E8E3E"></path>
                    <path d="M17.9124,13.7448 L16.4496,18.1056 C16.4496,18.1056 15.1524,17.4156 13.5792,17.4156 C11.2608,17.4156 11.1504,18.8784 11.1504,19.2372 C11.1504,21.2244 16.3392,21.9972 16.3392,26.6616 C16.3392,30.3324 14.0208,32.706 10.8744,32.706 C7.0932,32.706 5.1888,30.36 5.1888,30.36 L6.21,27.0204 C6.21,27.0204 8.1972,28.7316 9.8532,28.7316 C10.9572,28.7316 11.3988,27.876 11.3988,27.2412 C11.3988,24.6468 7.1484,24.5364 7.1484,20.2584 C7.1484,16.6704 9.7152,13.1928 14.9316,13.1928 C16.9188,13.1652 17.9124,13.7448 17.9124,13.7448 Z" id="Shape" fill="#FFFFFF"></path>
                </g>
                <path d="M47.7204,21.942 C46.5336,21.3072 45.9264,20.7552 45.9264,20.01 C45.9264,19.0716 46.782,18.4644 48.1068,18.4644 C49.6524,18.4644 51.0324,19.0992 51.0324,19.0992 L52.1088,15.7872 C52.1088,15.7872 51.1152,15.0144 48.1896,15.0144 C44.1048,15.0144 41.262,17.3604 41.262,20.6448 C41.262,22.5216 42.5868,23.9292 44.3532,24.9504 C45.7884,25.7508 46.2852,26.3304 46.2852,27.186 C46.2852,28.0692 45.5676,28.7868 44.2428,28.7868 C42.2832,28.7868 40.4064,27.7656 40.4064,27.7656 L39.2472,31.0776 C39.2472,31.0776 40.9584,32.2368 43.8564,32.2368 C48.0516,32.2368 51.0876,30.1668 51.0876,26.4408 C51.06,24.3984 49.542,22.9908 47.7204,21.942 Z" id="s" fill="#000000"></path>
                <path d="M64.446,14.9592 C62.376,14.9592 60.7476,15.9528 59.5056,17.4432 L59.4504,17.4156 L61.2444,8.0316 L56.58,8.0316 L52.026,31.9332 L56.6904,31.9332 L58.236,23.7636 C58.8432,20.6724 60.444,18.768 61.9344,18.768 C62.9832,18.768 63.3972,19.4856 63.3972,20.5068 C63.3972,21.1416 63.342,21.942 63.204,22.5768 L61.4376,31.9332 L66.102,31.9332 L67.9236,22.2732 C68.1168,21.252 68.2548,20.0376 68.2548,19.2096 C68.2824,16.5324 66.9024,14.9592 64.446,14.9592 Z" id="h" fill="#000000"></path>
                <path d="M78.8532,14.9592 C73.2228,14.9592 69.4968,20.0376 69.4968,25.6956 C69.4968,29.3112 71.7324,32.2368 75.9276,32.2368 C81.4476,32.2368 85.1736,27.2964 85.1736,21.5004 C85.2012,18.1332 83.2416,14.9592 78.8532,14.9592 Z M76.5624,28.6488 C74.9616,28.6488 74.2992,27.2964 74.2992,25.5852 C74.2992,22.908 75.6792,18.5472 78.2184,18.5472 C79.8744,18.5472 80.4264,19.9824 80.4264,21.3624 C80.4264,24.2328 79.0188,28.6488 76.5624,28.6488 Z" id="o" fill="#000000"></path>
                <path d="M97.152,14.9592 C94.0056,14.9592 92.2116,17.7468 92.2116,17.7468 L92.1564,17.7468 L92.4324,15.2352 L88.2924,15.2352 C88.0992,16.9188 87.7128,19.5132 87.354,21.4452 L84.0972,38.5572 L88.7616,38.5572 L90.0588,31.6296 L90.1692,31.6296 C90.1692,31.6296 91.1352,32.2368 92.9016,32.2368 C98.394,32.2368 101.982,26.6064 101.982,20.9208 C101.982,17.7744 100.5744,14.9592 97.152,14.9592 Z M92.6808,28.704 C91.4664,28.704 90.7488,28.014 90.7488,28.014 L91.5216,23.6532 C92.0736,20.7276 93.5916,18.7956 95.22,18.7956 C96.6552,18.7956 97.0968,20.1204 97.0968,21.3624 C97.0968,24.3984 95.3028,28.704 92.6808,28.704 Z" id="p" fill="#000000"></path>
                <path d="M108.6612,8.2524 C107.1708,8.2524 105.984,9.4392 105.984,10.9572 C105.984,12.3372 106.8672,13.3032 108.192,13.3032 L108.2472,13.3032 C109.71,13.3032 110.952,12.3096 110.9796,10.5984 C110.9796,9.2184 110.0688,8.2524 108.6612,8.2524 Z" id="dot" fill="#000000"></path>
                <polygon id="i" fill="#000000" points="102.12 31.9056 106.7844 31.9056 109.9584 15.318 105.2664 15.318"></polygon>
                <path d="M121.854,15.2904 L118.5972,15.2904 L118.7628,14.5176 C119.0388,12.9168 119.9772,11.5092 121.5504,11.5092 C122.3784,11.5092 123.0408,11.7576 123.0408,11.7576 L123.9516,8.0868 C123.9516,8.0868 123.1512,7.6728 121.4124,7.6728 C119.7564,7.6728 118.1004,8.142 116.8308,9.2184 C115.23,10.5708 114.4848,12.5304 114.126,14.5176 L113.988,15.2904 L111.8076,15.2904 L111.1176,18.8232 L113.298,18.8232 L110.814,31.9056 L115.4784,31.9056 L117.9624,18.8232 L121.1916,18.8232 L121.854,15.2904 Z" id="f" fill="#000000"></path>
                <path d="M133.1148,15.318 C133.1148,15.318 130.1892,22.6872 128.892,26.7168 L128.8368,26.7168 C128.754,25.4196 127.6776,15.318 127.6776,15.318 L122.7648,15.318 L125.58,30.5256 C125.6352,30.8568 125.6076,31.0776 125.4696,31.2984 C124.9176,32.3472 124.0068,33.3684 122.9304,34.1136 C122.0472,34.7484 121.0536,35.1624 120.2808,35.4384 L121.578,39.4128 C122.5164,39.2196 124.5036,38.4192 126.1596,36.8736 C128.2848,34.8864 130.272,31.7952 132.2868,27.6 L138,15.318 L133.1148,15.318 Z" id="y" fill="#000000"></path>
            </g>
        </g>
    </g>
</svg>
