<svg id="Logo" xmlns="http://www.w3.org/2000/svg" viewBox="0 0 648 216"><defs><style>.cls-1{fill:#3499cd;}.cls-2{fill:#010101;}</style></defs><title>logo-automattic</title><path class="cls-1" d="M256.08,127.09c-12.59,0-20.75-9.06-20.75-18.5v-1.18c0-9.6,8.16-18.5,20.75-18.5s20.8,8.9,20.8,18.5v1.18C276.88,118,268.72,127.09,256.08,127.09Zm14.08-19.57c0-6.88-5-13-14.08-13s-14,6.13-14,13v.85c0,6.88,5,13.12,14,13.12s14.08-6.24,14.08-13.12Z"/><path class="cls-2" d="M114,125.71l-4.7-8.8H88.4l-4.54,8.8h-7L96,90.19h5.55l19.52,35.52ZM98.64,97.12l-7.73,14.93h15.73Z"/><path class="cls-2" d="M151.38,127.09c-12.74,0-18.66-6.93-18.66-16.16V90.19h6.61V111c0,6.56,4.32,10.45,12.53,10.45,8.43,0,11.9-3.89,11.9-10.45V90.19h6.66v20.74C170.42,119.73,164.77,127.09,151.38,127.09Z"/><path class="cls-2" d="M207.55,95.73v30h-6.67v-30H185.36V90.19h37.71v5.54Z"/><path class="cls-2" d="M336.29,125.71V97.6l-1.76,3.09-14.88,25H316.4l-14.72-25-1.76-3.09v28.11h-6.51V90.19h9.23l14,24.37,1.65,3,1.65-3,13.87-24.37H343v35.52Z"/><path class="cls-2" d="M393.36,125.71l-4.69-8.8H367.81l-4.53,8.8h-7l19.2-35.52H381l19.52,35.52ZM378.05,97.12l-7.73,14.93h15.73Z"/><path class="cls-2" d="M427.39,95.73v30h-6.67v-30H405.2V90.19h37.71v5.54Z"/><path class="cls-2" d="M476.29,95.73v30h-6.66v-30H454.11V90.19h37.71v5.54Z"/><path class="cls-2" d="M508.24,125.71V93.55c2.67,0,3.73-1.44,3.73-3.36h2.83v35.52Z"/><path class="cls-2" d="M567,100.21a20.75,20.75,0,0,0-14.24-5.7c-9.5,0-14.83,6.5-14.83,13.28v.69c0,6.72,5.38,13,15.3,13a20.8,20.8,0,0,0,13.93-5.7l4,4.21a26.54,26.54,0,0,1-18.35,7.09c-13.44,0-21.6-8.74-21.6-18.34v-1.18c0-9.6,8.9-18.66,21.92-18.66,7.52,0,14.35,3.14,18,7.09Z"/><path class="cls-2" d="M260.47,101.26a2.61,2.61,0,0,1,.76,3.6l-6.08,9.42a2.59,2.59,0,0,1-3.59.78h0a2.59,2.59,0,0,1-.76-3.59l6.08-9.42a2.6,2.6,0,0,1,3.59-.79Z"/></svg>