<?xml version="1.0" encoding="UTF-8"?>
<svg width="271px" height="145px" viewBox="0 0 271 145" version="1.1" xmlns="http://www.w3.org/2000/svg" xmlns:xlink="http://www.w3.org/1999/xlink">
    <!-- Generator: Sketch 52.3 (67297) - http://www.bohemiancoding.com/sketch -->
    <title>logo-uber</title>
    <desc>Created with Sketch.</desc>
    <g id="Page-1" stroke="none" stroke-width="1" fill="none" fill-rule="evenodd">
        <g id="logo-uber" fill-rule="nonzero">
            <rect id="Rectangle" fill="#F9F9F9" x="0" y="0" width="271" height="145" rx="72.5"></rect>
            <g transform="translate(101.000000, 65.000000)" fill="#111133" id="logo">
                <path d="M11.2023973,0.587328767 L11.2023973,8.63013699 C11.2119863,9.9630137 10.8987443,10.9307078 10.2626712,11.5332192 C9.62659817,12.1357306 8.61894977,12.4329909 7.23972603,12.425 C5.86210046,12.425 4.85445205,12.1237443 4.21678082,11.5212329 C3.57910959,10.9187215 3.26586758,9.95502283 3.27705479,8.63013699 L3.27705479,0.239726027 L0.594520548,0.239726027 C0.496972952,0.219774257 0.395885964,0.249577439 0.324764257,0.31925749 C0.25364255,0.388937541 0.221775792,0.489393096 0.239726027,0.587328767 L0.239726027,8.75 C0.268493151,10.9634703 0.915753425,12.5312785 2.18150685,13.4534247 C3.44726027,14.3755708 5.13093607,14.8230594 7.23253425,14.7958904 C9.33732877,14.8246575 11.0234018,14.3771689 12.2907534,13.4534247 C13.558105,12.5296804 14.2077626,10.9618721 14.239726,8.75 L14.239726,0.239726027 L11.559589,0.239726027 C11.4633289,0.220768382 11.3638579,0.249743318 11.292836,0.317428613 C11.2218141,0.385113907 11.1880899,0.48307665 11.2023973,0.580136986 L11.2023973,0.587328767 Z M50.0380137,2.57226027 C50.1260603,2.57834734 50.2138696,2.55744036 50.289726,2.51232877 C50.35475,2.46811078 50.4062075,2.40669369 50.4383562,2.33493151 L51.210274,0.417123288 C51.2486301,0.309246575 51.210274,0.254109589 51.090411,0.254109589 L40.3027397,0.254109589 C39.9311179,0.224754891 39.5592933,0.308310983 39.2359589,0.493835616 C39.0073223,0.674791284 38.884844,0.95847259 38.9099315,1.2489726 L38.9099315,13.714726 C38.8895395,13.9525651 38.9776335,14.1868951 39.1496575,14.3523973 C39.3917568,14.5140657 39.6820315,14.5876922 39.9719178,14.5609589 L50.040411,14.5609589 C50.1283569,14.565874 50.2158286,14.5450474 50.2921233,14.5010274 C50.3571472,14.4568094 50.4086048,14.3953923 50.4407534,14.3236301 L51.2126712,12.4058219 C51.2510274,12.2859589 51.2126712,12.2260274 51.0928082,12.2260274 L41.9136986,12.2260274 L41.9136986,9.68493151 C41.8769858,9.31824924 42.0274947,8.95774892 42.3140411,8.7260274 C42.5921233,8.51746575 43.05,8.41438356 43.6924658,8.41438356 L47.6791096,8.41438356 C47.7671056,8.41987087 47.8547403,8.39900547 47.9308219,8.35445205 C47.9944692,8.3093703 48.0449468,8.24813513 48.0770548,8.17705479 L48.8178082,6.34075342 C48.8585616,6.22328767 48.8178082,6.16335616 48.7003425,6.16335616 L41.9136986,6.16335616 L41.9136986,2.56746575 L50.0380137,2.57226027 Z M31.0565068,7.00239726 C31.6065896,6.72835093 32.0513349,6.28107862 32.3222603,5.72945205 C32.5916768,5.14940963 32.7260955,4.51583865 32.715411,3.87636986 C32.6642694,2.33573059 32.1232877,1.3336758 31.0924658,0.870205479 C29.9501222,0.382507479 28.7101501,0.166681754 27.4702055,0.239726027 L21.3811644,0.239726027 C21.0048789,0.209236376 20.6281325,0.292772162 20.3,0.479452055 C20.0719382,0.659894764 19.953937,0.94582087 19.9883562,1.23458904 L19.9883562,13.7003425 C19.9679642,13.9381815 20.0560582,14.1725115 20.2280822,14.3380137 C20.4701815,14.4996821 20.7604562,14.5733086 21.0503425,14.5465753 L28.5513699,14.5465753 C29.989726,14.5561644 31.15,14.2525114 32.0321918,13.6356164 C32.9143836,13.0187215 33.3690639,12.0038813 33.3962329,10.5910959 C33.4154455,9.79510224 33.2182532,9.00881888 32.8256849,8.31609589 C32.4332268,7.66164108 31.7968152,7.18993765 31.0565068,7.00479452 L31.0565068,7.00239726 Z M22.9369863,2.51232877 L27.6931507,2.51232877 C28.4618721,2.51232877 28.9924658,2.66335616 29.2849315,2.96541096 C29.575,3.26746575 29.7164384,3.72773973 29.7068493,4.3510274 C29.6972603,4.97431507 29.575,5.4369863 29.2849315,5.74383562 C28.994863,6.05068493 28.4626712,6.20171233 27.6931507,6.20171233 L22.9369863,6.20171233 L22.9369863,2.51232877 Z M28.239726,12.2763699 L22.9369863,12.2763699 L22.9369863,9.625 C22.9001582,9.25674252 23.0538314,8.89515857 23.3445205,8.66609589 C23.625,8.45993151 24.0876712,8.35445205 24.730137,8.35445205 L28.239726,8.35445205 C29.0691781,8.35445205 29.639726,8.51426941 29.9513699,8.83390411 C30.2630137,9.15353881 30.4084475,9.64737443 30.3876712,10.315411 C30.4084475,10.9674658 30.2630137,11.4565068 29.9513699,11.7825342 C29.639726,12.1085616 29.0691781,12.268379 28.239726,12.2619863 L28.239726,12.2763699 Z M69.9304795,14.2924658 L66.7157534,8.79554795 C67.5125643,8.62217077 68.2307389,8.19278149 68.7606164,7.57294521 C69.3023973,6.94486301 69.5836758,5.96917808 69.6044521,4.64589041 C69.585274,2.94863014 69.0778539,1.78356164 68.0821918,1.15068493 C67.0865297,0.517808219 65.6873288,0.214155251 63.884589,0.239726027 L57.7739726,0.239726027 C57.4023508,0.21037133 57.0305261,0.293927422 56.7071918,0.479452055 C56.4796092,0.661214556 56.357387,0.944302888 56.3811644,1.23458904 L56.3811644,14.1989726 C56.3811644,14.4243151 56.5010274,14.5393836 56.7383562,14.5393836 L59.3441781,14.5393836 L59.3441781,10.3657534 C59.308713,9.99770473 59.4621194,9.63674837 59.7517123,9.40684932 C60.034589,9.20068493 60.494863,9.09520548 61.1373288,9.09520548 L63.7886986,9.09520548 L66.6773973,14.3116438 C66.7103667,14.3828887 66.7616565,14.4441055 66.8260274,14.4890411 C66.8990698,14.53027 66.9819024,14.5509782 67.0657534,14.5489726 L69.7914384,14.5489726 C69.880137,14.5489726 69.9328767,14.5058219 69.9472603,14.4530822 C69.9620705,14.4004026 69.9542518,14.3439338 69.9256849,14.2972603 L69.9304795,14.2924658 Z M64.3304795,6.8609589 L59.3369863,6.8609589 L59.3369863,2.54589041 L64.3304795,2.54589041 C65.238242,2.54589041 65.8479452,2.72568493 66.159589,3.08527397 C66.4712329,3.44726027 66.6174658,3.98664384 66.5958904,4.70821918 C66.6166667,5.44018265 66.4712329,5.98356164 66.159589,6.33835616 C65.8479452,6.69315068 65.238242,6.87054795 64.3304795,6.87054795 L64.3304795,6.8609589 Z"></path>
            </g>
        </g>
    </g>
</svg>