<?xml version="1.0" encoding="UTF-8"?>
<svg width="271px" height="145px" viewBox="0 0 271 145" version="1.1" xmlns="http://www.w3.org/2000/svg" xmlns:xlink="http://www.w3.org/1999/xlink">
    <!-- Generator: Sketch 52.3 (67297) - http://www.bohemiancoding.com/sketch -->
    <title>logo-facebook</title>
    <desc>Created with Sketch.</desc>
    <g id="Page-1" stroke="none" stroke-width="1" fill="none" fill-rule="evenodd">
        <g id="logo-facebook">
            <rect id="Rectangle" fill="#F9F9F9" fill-rule="nonzero" x="0" y="0" width="271" height="145" rx="72.5"></rect>
            <g transform="translate(81.000000, 62.000000)" fill="#111133" id="Shape">
                <polygon points="109.964516 20.4585146 105.575474 20.4585146 101.313284 13.91179 101.313284 20.4585146 97.1779449 20.4585146 97.1779449 0.347174794 101.313284 0 101.313284 13.4654224 105.397883 7.06748687 109.812295 7.06748687 105.524734 13.6886062"></polygon>
                <path d="M7.86483044,0 C8.68615767,0 9.6319284,0.049416702 10.2292573,0.148250106 L10.2292573,3.26150233 L8.43727064,3.26150233 C7.16794673,3.26150233 6.79461617,3.8297944 6.79461617,5.06521195 L6.79461617,7.11600509 L10.1794799,7.11600509 L9.83103807,10.4269241 L6.79461617,10.4269241 L6.79461617,20.4585146 L2.73775743,20.4585146 L2.73775743,10.4269241 L0,10.4269241 L0,7.11600509 L2.73775743,7.11600509 L2.73775743,5.13933701 C2.73775743,1.75429293 4.08174744,0 7.86483044,0 Z"></path>
                <path d="M19.8507726,9.24334134 C19.2366334,7.90249564 17.9571766,6.81950488 15.8844565,6.81950488 C12.046086,6.81950488 10.2292573,9.73326573 10.2292573,13.6268754 L10.2292573,14.5035822 C10.2292573,18.3971919 12.046086,21.3109527 15.8844565,21.3109527 C17.9827657,21.3109527 19.2878116,20.2537474 19.8507726,18.9129017 L19.8507726,21.0273123 L23.8682671,21.0273123 L23.8682671,7.10314531 L19.8507726,7.10314531 L19.8507726,9.24334134 Z M19.6716487,14.7614371 C19.6716487,16.7469202 18.801618,18.0104095 17.0871459,18.0104095 C15.1423715,18.0104095 14.4002866,16.6437783 14.4002866,14.5551532 L14.4002866,13.5495189 C14.4002866,11.4866794 15.1679607,10.0942627 17.0871459,10.0942627 C18.801618,10.0942627 19.6716487,11.3577519 19.6716487,13.343235 L19.6716487,14.7614371 Z" fill-rule="nonzero"></path>
                <path d="M59.9992611,6.97634534 C58.0689729,6.97634534 56.7482495,7.9693288 56.1386848,9.16600114 L56.1386848,0 L51.9987247,0.381916716 L51.9987247,21.0308805 L55.910098,21.0308805 L55.910098,18.9430691 C56.4942642,20.267047 57.9165818,21.3109527 59.9992611,21.3109527 C63.8090404,21.3109527 65.6377344,18.4338468 65.6377344,14.5892186 L65.6377344,13.6980796 C65.6377344,9.85345128 63.8090404,6.97634534 59.9992611,6.97634534 Z M61.4977743,14.6656019 C61.4977743,16.6006465 60.7358184,18.0519301 58.7547333,18.0519301 C57.0530318,18.0519301 56.1386848,16.8297966 56.1386848,14.8692908 L56.1386848,13.4180073 C56.1386848,11.4575014 57.0530318,10.235368 58.7547333,10.235368 C60.7358184,10.235368 61.4977743,11.6866515 61.4977743,13.6216962 L61.4977743,14.6656019 Z" fill-rule="nonzero"></path>
                <path d="M88.6535634,6.81950488 C84.0903259,6.81950488 81.8340585,9.70235067 81.8340585,13.7177429 L81.8340585,14.4127147 C81.8340585,18.4023673 84.0649746,21.3109527 88.6535634,21.3109527 C93.2168006,21.3109527 95.4730682,18.428107 95.4730682,14.4127147 L95.4730682,13.7177429 C95.4730682,9.70235067 93.2168006,6.81950488 88.6535634,6.81950488 Z M91.3408029,14.6958513 C91.3408029,16.5233696 90.5802638,17.9905322 88.6789147,17.9905322 C86.7522145,17.9905322 85.9916749,16.5233696 85.9916749,14.6958513 L85.9916749,13.4088666 C85.9916749,11.5813483 86.7522145,10.1141857 88.6789147,10.1141857 C90.6056152,10.1141857 91.3408029,11.5813483 91.3408029,13.4088666 L91.3408029,14.6958513 Z" fill-rule="nonzero"></path>
                <path d="M29.7255947,13.6662636 L29.7255947,14.4899338 C29.7255947,16.7292872 30.6936508,18.0420116 32.9609402,18.0420116 C34.0563722,18.0420116 35.1008538,17.7331352 35.7377329,17.3985192 L36.6548387,20.3843237 C35.8141584,20.9763367 34.2856487,21.3109527 32.6807135,21.3109527 C27.7894824,21.3109527 25.5731433,18.6597642 25.5731433,14.386975 L25.5731433,13.7434826 C25.5731433,9.49643306 27.7894824,6.81950488 32.6807135,6.81950488 C34.2856487,6.81950488 35.8396335,7.1798606 36.6548387,7.74613387 L35.7377329,10.7319384 C35.1008538,10.4230621 34.0563722,10.0884461 32.9609402,10.0884461 C30.6936508,10.1141857 29.7255947,11.4269102 29.7255947,13.6662636 Z"></path>
                <path d="M44.2036693,6.81950488 C39.7057151,6.81950488 37.5072768,9.4146046 37.5072768,13.3457952 L37.5072768,14.5791099 C37.5072768,18.6644649 39.453021,21.3109527 44.6585185,21.3109527 C46.6295322,21.3109527 48.8785092,20.8741538 49.9650937,20.2831904 L49.2070115,17.4054561 C47.99408,17.9193373 46.3768381,18.25336 44.8354044,18.25336 C42.5358885,18.25336 41.7019981,17.4054561 41.6261899,15.5297901 L50.2935959,15.5297901 L50.2935959,13.3201012 C50.3188653,9.44029865 48.4489293,6.81950488 44.2036693,6.81950488 Z M46.6295322,12.754832 L41.6514593,12.754832 C41.6514593,10.9048598 42.3590026,9.69723922 44.2289387,9.69723922 C46.0230664,9.69723922 46.6295322,10.9048598 46.6295322,12.3951151 L46.6295322,12.754832 Z" fill-rule="nonzero"></path>
                <path d="M74.1621155,6.81950488 C69.5988781,6.81950488 67.3426107,9.70235067 67.3426107,13.7177429 L67.3426107,14.4127147 C67.3426107,18.4023673 69.5735267,21.3109527 74.1621155,21.3109527 C78.725353,21.3109527 80.9816204,18.428107 80.9816204,14.4127147 L80.9816204,13.7177429 C80.9816204,9.70235067 78.725353,6.81950488 74.1621155,6.81950488 Z M76.8493554,14.6958513 C76.8493554,16.5233696 76.0888158,17.9905322 74.1874669,17.9905322 C72.2607666,17.9905322 71.5255784,16.5233696 71.5255784,14.6958513 L71.5255784,13.4088666 C71.5255784,11.5813483 72.2607666,10.1141857 74.1874669,10.1141857 C76.1141671,10.1141857 76.8493554,11.5813483 76.8493554,13.4088666 L76.8493554,14.6958513 Z" fill-rule="nonzero"></path>
            </g>
        </g>
    </g>
</svg>