<?xml version="1.0" encoding="UTF-8"?>
<svg width="150px" height="397px" viewBox="0 0 150 397" version="1.1" xmlns="http://www.w3.org/2000/svg" xmlns:xlink="http://www.w3.org/1999/xlink">
    <!-- Generator: Sketch 47.1 (45422) - http://www.bohemiancoding.com/sketch -->
    <title>section-path-3-3</title>
    <desc>Created with Sketch.</desc>
    <defs></defs>
    <g id="Page-1" stroke="none" stroke-width="1" fill="none" fill-rule="evenodd">
        <g id="Desktop-HD-Copy-17" transform="translate(-75.000000, -2841.000000)">
            <g id="Flow-/-Down-/-Curve-/-Right-/-Default-ALT" transform="translate(80.000000, 2846.000000)">
                <path class="fk-path-alt" d="M8.57252759e-15,385 L8.90652218e-16,40 L7.10542736e-15,40 C4.40001235e-15,17.90861 17.90861,-3.04730485e-15 40,-7.10542736e-15 L140,0" id="path" stroke="#252525" stroke-width="4" stroke-linecap="round" stroke-linejoin="round" stroke-dasharray="4,12" transform="translate(70.000000, 192.500000) scale(1, -1) translate(-70.000000, -192.500000) "></path>
                <g id="Assets-/-Cap-/-Arrow-/-ALT" transform="translate(140.000000, 385.000000) scale(1, -1) translate(-140.000000, -385.000000) translate(130.000000, 375.000000)" fill-rule="evenodd" fill="#252525">
                    <path d="M4,15.258963 L4,4.741037 L4,4.741037 C4,4.18875225 4.44771525,3.741037 5,3.741037 C5.17705464,3.741037 5.35093497,3.7880454 5.50387103,3.8772581 L14.5192362,9.1362211 L14.5192362,9.1362211 C14.9962881,9.41450138 15.1574243,10.0268191 14.879144,10.503871 C14.7922253,10.6528747 14.6682398,10.7768601 14.5192362,10.8637789 L5.50387103,16.1227419 L5.50387103,16.1227419 C5.02681911,16.4010222 4.41450138,16.2398859 4.1362211,15.762834 C4.0470084,15.609898 4,15.4360176 4,15.258963 Z" id="shape"></path>
                </g>
                <g id="Assets-/-Cap-/-Circle-/-ALT" transform="translate(0.000000, 0.000000) scale(1, -1) rotate(90.000000) translate(-0.000000, -0.000000) translate(-10.000000, -10.000000)" fill-rule="evenodd" fill="#252525">
                    <circle id="map/path-end-circle" cx="10" cy="10" r="5"></circle>
                </g>
            </g>
        </g>
    </g>
</svg>
