<svg width="1292" height="978" viewBox="0 0 1292 978" fill="none" xmlns="http://www.w3.org/2000/svg">
<path d="M646 439L650 439C652.209 439 654 437.209 654 435V435" stroke="#7B61FF" stroke-width="1.5" stroke-linecap="round" stroke-linejoin="round"/>
<path d="M646 431L650 431C652.209 431 654 432.791 654 435V435" stroke="#7B61FF" stroke-width="1.5" stroke-linecap="round" stroke-linejoin="round"/>
<path d="M646 431V431C641.582 431 638 427.418 638 423V423" stroke="#7B61FF" stroke-width="1.5" stroke-linecap="round" stroke-linejoin="round"/>
<path d="M648 435L644.354 438.646C644.158 438.842 644.158 439.158 644.354 439.354L648 443" stroke="#7B61FF" stroke-width="1.5" stroke-linecap="round" stroke-linejoin="round"/>
<line x1="646.25" y1="439" x2="645.75" y2="437" stroke="#7B61FF" stroke-width="1.5" stroke-linecap="round" stroke-linejoin="round"/>
<path d="M638 424.5C637.172 424.5 636.5 423.828 636.5 423C636.5 422.172 637.172 421.5 638 421.5C638.828 421.5 639.5 422.172 639.5 423C639.5 423.828 638.828 424.5 638 424.5Z" stroke="#7B61FF" stroke-width="3" stroke-linecap="round" stroke-linejoin="round"/>
<path d="M530 431V431C525.582 431 522 427.418 522 423V423" stroke="#7B61FF" stroke-width="1.5" stroke-linecap="round" stroke-linejoin="round"/>
<path d="M530 431V431C534.418 431 538 434.582 538 439V439" stroke="#7B61FF" stroke-width="1.5" stroke-linecap="round" stroke-linejoin="round"/>
<path d="M534 437L537.646 440.646C537.842 440.842 538.158 440.842 538.354 440.646L542 437" stroke="#7B61FF" stroke-width="1.5" stroke-linecap="round" stroke-linejoin="round"/>
<line x1="538" y1="438.75" x2="536" y2="439.25" stroke="#7B61FF" stroke-width="1.5" stroke-linecap="round" stroke-linejoin="round"/>
<path d="M522 424.5C521.172 424.5 520.5 423.828 520.5 423C520.5 422.172 521.172 421.5 522 421.5C522.828 421.5 523.5 422.172 523.5 423C523.5 423.828 522.828 424.5 522 424.5Z" stroke="#7B61FF" stroke-width="3" stroke-linecap="round" stroke-linejoin="round"/>
<path d="M414 439V439C409.582 439 406 435.418 406 431L406 423" stroke="#7B61FF" stroke-width="1.5" stroke-linecap="round" stroke-linejoin="round"/>
<path d="M414 439V439C418.418 439 422 435.418 422 431V431" stroke="#7B61FF" stroke-width="1.5" stroke-linecap="round" stroke-linejoin="round"/>
<path d="M418 433L421.646 429.354C421.842 429.158 422.158 429.158 422.354 429.354L426 433" stroke="#7B61FF" stroke-width="1.5" stroke-linecap="round" stroke-linejoin="round"/>
<line x1="0.75" y1="-0.75" x2="1.25" y2="1.25" transform="matrix(0 -1 -1 0 421.25 432)" stroke="#7B61FF" stroke-width="1.5" stroke-linecap="round" stroke-linejoin="round"/>
<path d="M406 424.5C405.172 424.5 404.5 423.828 404.5 423C404.5 422.172 405.172 421.5 406 421.5C406.828 421.5 407.5 422.172 407.5 423C407.5 423.828 406.828 424.5 406 424.5Z" stroke="#7B61FF" stroke-width="3" stroke-linecap="round" stroke-linejoin="round"/>
<path d="M298 439V439C293.582 439 290 435.418 290 431L290 423" stroke="#7B61FF" stroke-width="1.5" stroke-linecap="round" stroke-linejoin="round"/>
<path d="M298 439V439C302.418 439 306 435.418 306 431L306 423" stroke="#7B61FF" stroke-width="1.5" stroke-linecap="round" stroke-linejoin="round"/>
<path d="M302 425L305.646 421.354C305.842 421.158 306.158 421.158 306.354 421.354L310 425" stroke="#7B61FF" stroke-width="1.5" stroke-linecap="round" stroke-linejoin="round"/>
<line x1="0.75" y1="-0.75" x2="1.25" y2="1.25" transform="matrix(0 -1 -1 0 305.25 424)" stroke="#7B61FF" stroke-width="1.5" stroke-linecap="round" stroke-linejoin="round"/>
<path d="M290 423.25C289.172 423.25 288.5 422.578 288.5 421.75C288.5 420.922 289.172 420.25 290 420.25C290.828 420.25 291.5 420.922 291.5 421.75C291.5 422.578 290.828 423.25 290 423.25Z" stroke="#7B61FF" stroke-width="3" stroke-linecap="round" stroke-linejoin="round"/>
<path d="M1226 439L1222 439C1219.79 439 1218 437.209 1218 435V435" stroke="#7B61FF" stroke-width="1.5" stroke-linecap="round" stroke-linejoin="round"/>
<path d="M1226 431L1222 431C1219.79 431 1218 432.791 1218 435V435" stroke="#7B61FF" stroke-width="1.5" stroke-linecap="round" stroke-linejoin="round"/>
<path d="M1226 431V431C1230.42 431 1234 427.418 1234 423V423" stroke="#7B61FF" stroke-width="1.5" stroke-linecap="round" stroke-linejoin="round"/>
<path d="M1224 435L1227.65 438.646C1227.84 438.842 1227.84 439.158 1227.65 439.354L1224 443" stroke="#7B61FF" stroke-width="1.5" stroke-linecap="round" stroke-linejoin="round"/>
<line x1="0.75" y1="-0.75" x2="1.25" y2="1.25" transform="matrix(1 0 0 -1 1225 438.25)" stroke="#7B61FF" stroke-width="1.5" stroke-linecap="round" stroke-linejoin="round"/>
<path d="M1234 424.5C1234.83 424.5 1235.5 423.828 1235.5 423C1235.5 422.172 1234.83 421.5 1234 421.5C1233.17 421.5 1232.5 422.172 1232.5 423C1232.5 423.828 1233.17 424.5 1234 424.5Z" stroke="#7B61FF" stroke-width="3" stroke-linecap="round" stroke-linejoin="round"/>
<path d="M1110 431V431C1114.42 431 1118 427.418 1118 423V423" stroke="#7B61FF" stroke-width="1.5" stroke-linecap="round" stroke-linejoin="round"/>
<path d="M1110 431V431C1105.58 431 1102 434.582 1102 439V439" stroke="#7B61FF" stroke-width="1.5" stroke-linecap="round" stroke-linejoin="round"/>
<path d="M1106 437L1102.35 440.646C1102.16 440.842 1101.84 440.842 1101.65 440.646L1098 437" stroke="#7B61FF" stroke-width="1.5" stroke-linecap="round" stroke-linejoin="round"/>
<line x1="0.75" y1="-0.75" x2="1.25" y2="1.25" transform="matrix(0 1 1 0 1102.75 438)" stroke="#7B61FF" stroke-width="1.5" stroke-linecap="round" stroke-linejoin="round"/>
<path d="M1118 424.5C1118.83 424.5 1119.5 423.828 1119.5 423C1119.5 422.172 1118.83 421.5 1118 421.5C1117.17 421.5 1116.5 422.172 1116.5 423C1116.5 423.828 1117.17 424.5 1118 424.5Z" stroke="#7B61FF" stroke-width="3" stroke-linecap="round" stroke-linejoin="round"/>
<path d="M994 439V439C998.418 439 1002 435.418 1002 431L1002 423" stroke="#7B61FF" stroke-width="1.5" stroke-linecap="round" stroke-linejoin="round"/>
<path d="M994 439V439C989.582 439 986 435.418 986 431V431" stroke="#7B61FF" stroke-width="1.5" stroke-linecap="round" stroke-linejoin="round"/>
<path d="M990 433L986.354 429.354C986.158 429.158 985.842 429.158 985.646 429.354L982 433" stroke="#7B61FF" stroke-width="1.5" stroke-linecap="round" stroke-linejoin="round"/>
<line x1="986" y1="431.25" x2="988" y2="430.75" stroke="#7B61FF" stroke-width="1.5" stroke-linecap="round" stroke-linejoin="round"/>
<path d="M1002 424.5C1002.83 424.5 1003.5 423.828 1003.5 423C1003.5 422.172 1002.83 421.5 1002 421.5C1001.17 421.5 1000.5 422.172 1000.5 423C1000.5 423.828 1001.17 424.5 1002 424.5Z" stroke="#7B61FF" stroke-width="3" stroke-linecap="round" stroke-linejoin="round"/>
<path d="M878 439V439C882.418 439 886 435.418 886 431L886 423" stroke="#7B61FF" stroke-width="1.5" stroke-linecap="round" stroke-linejoin="round"/>
<path d="M878 439V439C873.582 439 870 435.418 870 431L870 423" stroke="#7B61FF" stroke-width="1.5" stroke-linecap="round" stroke-linejoin="round"/>
<path d="M874 425L870.354 421.354C870.158 421.158 869.842 421.158 869.646 421.354L866 425" stroke="#7B61FF" stroke-width="1.5" stroke-linecap="round" stroke-linejoin="round"/>
<line x1="870" y1="423.25" x2="872" y2="422.75" stroke="#7B61FF" stroke-width="1.5" stroke-linecap="round" stroke-linejoin="round"/>
<path d="M886 423.25C886.828 423.25 887.5 422.578 887.5 421.75C887.5 420.922 886.828 420.25 886 420.25C885.172 420.25 884.5 420.922 884.5 421.75C884.5 422.578 885.172 423.25 886 423.25Z" stroke="#7B61FF" stroke-width="3" stroke-linecap="round" stroke-linejoin="round"/>
<path d="M754 439L762 439C766.418 439 770 435.418 770 431L770 423" stroke="#7B61FF" stroke-width="1.5" stroke-linecap="round" stroke-linejoin="round"/>
<path d="M756 443L752.354 439.354C752.158 439.158 752.158 438.842 752.354 438.646L756 435" stroke="#7B61FF" stroke-width="1.5" stroke-linecap="round" stroke-linejoin="round"/>
<line x1="0.75" y1="-0.75" x2="1.25" y2="1.25" transform="matrix(-1 0 0 1 755 439.75)" stroke="#7B61FF" stroke-width="1.5" stroke-linecap="round" stroke-linejoin="round"/>
<path d="M770.25 424.5C771.078 424.5 771.75 423.828 771.75 423C771.75 422.172 771.078 421.5 770.25 421.5C769.422 421.5 768.75 422.172 768.75 423C768.75 423.828 769.422 424.5 770.25 424.5Z" stroke="#7B61FF" stroke-width="3" stroke-linecap="round" stroke-linejoin="round"/>
<path d="M190 439L182 439C177.582 439 174 435.418 174 431L174 423" stroke="#7B61FF" stroke-width="1.5" stroke-linecap="round" stroke-linejoin="round"/>
<path d="M188 443L191.646 439.354C191.842 439.158 191.842 438.842 191.646 438.646L188 435" stroke="#7B61FF" stroke-width="1.5" stroke-linecap="round" stroke-linejoin="round"/>
<line x1="189.75" y1="439" x2="190.25" y2="441" stroke="#7B61FF" stroke-width="1.5" stroke-linecap="round" stroke-linejoin="round"/>
<path d="M173.75 424.5C172.922 424.5 172.25 423.828 172.25 423C172.25 422.172 172.922 421.5 173.75 421.5C174.578 421.5 175.25 422.172 175.25 423C175.25 423.828 174.578 424.5 173.75 424.5Z" stroke="#7B61FF" stroke-width="3" stroke-linecap="round" stroke-linejoin="round"/>
<line x1="0.75" y1="-0.75" x2="15.25" y2="0.1875" transform="matrix(0 1 1 0 66.75 423)" stroke="#7B61FF" stroke-width="1.5" stroke-linecap="round" stroke-linejoin="round"/>
<path d="M70 437L66.3536 440.646C66.1583 440.842 65.8417 440.842 65.6464 440.646L62 437" stroke="#7B61FF" stroke-width="1.5" stroke-linecap="round" stroke-linejoin="round"/>
<line x1="0.75" y1="-0.75" x2="1.25" y2="1.25" transform="matrix(0 1 1 0 66.75 438)" stroke="#7B61FF" stroke-width="1.5" stroke-linecap="round" stroke-linejoin="round"/>
<path d="M66 424.5C66.8284 424.5 67.5 423.828 67.5 423C67.5 422.172 66.8284 421.5 66 421.5C65.1716 421.5 64.5 422.172 64.5 423C64.5 423.828 65.1716 424.5 66 424.5Z" stroke="#7B61FF" stroke-width="3" stroke-linecap="round" stroke-linejoin="round"/>
<line x1="66" y1="322.25" x2="66.9375" y2="307.75" stroke="#7B61FF" stroke-width="1.5" stroke-linecap="round" stroke-linejoin="round"/>
<path d="M70 309L66.3536 305.354C66.1583 305.158 65.8417 305.158 65.6464 305.354L62 309" stroke="#7B61FF" stroke-width="1.5" stroke-linecap="round" stroke-linejoin="round"/>
<line x1="66" y1="307.25" x2="68" y2="306.75" stroke="#7B61FF" stroke-width="1.5" stroke-linecap="round" stroke-linejoin="round"/>
<path d="M66 321.5C66.8284 321.5 67.5 322.172 67.5 323C67.5 323.828 66.8284 324.5 66 324.5C65.1716 324.5 64.5 323.828 64.5 323C64.5 322.172 65.1716 321.5 66 321.5Z" stroke="#7B61FF" stroke-width="3" stroke-linecap="round" stroke-linejoin="round"/>
<path d="M646 307L650 307C652.209 307 654 308.791 654 311V311" stroke="#7B61FF" stroke-width="1.5" stroke-linecap="round" stroke-linejoin="round"/>
<path d="M646 315L650 315C652.209 315 654 313.209 654 311V311" stroke="#7B61FF" stroke-width="1.5" stroke-linecap="round" stroke-linejoin="round"/>
<path d="M646 315V315C641.582 315 638 318.582 638 323V323" stroke="#7B61FF" stroke-width="1.5" stroke-linecap="round" stroke-linejoin="round"/>
<path d="M648 311L644.354 307.354C644.158 307.158 644.158 306.842 644.354 306.646L648 303" stroke="#7B61FF" stroke-width="1.5" stroke-linecap="round" stroke-linejoin="round"/>
<line x1="0.75" y1="-0.75" x2="1.25" y2="1.25" transform="matrix(-1 0 0 1 647 307.75)" stroke="#7B61FF" stroke-width="1.5" stroke-linecap="round" stroke-linejoin="round"/>
<path d="M638 321.5C637.172 321.5 636.5 322.172 636.5 323C636.5 323.828 637.172 324.5 638 324.5C638.828 324.5 639.5 323.828 639.5 323C639.5 322.172 638.828 321.5 638 321.5Z" stroke="#7B61FF" stroke-width="3" stroke-linecap="round" stroke-linejoin="round"/>
<path d="M530 315V315C525.582 315 522 318.582 522 323V323" stroke="#7B61FF" stroke-width="1.5" stroke-linecap="round" stroke-linejoin="round"/>
<path d="M530 315V315C534.418 315 538 311.418 538 307V307" stroke="#7B61FF" stroke-width="1.5" stroke-linecap="round" stroke-linejoin="round"/>
<path d="M534 309L537.646 305.354C537.842 305.158 538.158 305.158 538.354 305.354L542 309" stroke="#7B61FF" stroke-width="1.5" stroke-linecap="round" stroke-linejoin="round"/>
<line x1="0.75" y1="-0.75" x2="1.25" y2="1.25" transform="matrix(0 -1 -1 0 537.25 308)" stroke="#7B61FF" stroke-width="1.5" stroke-linecap="round" stroke-linejoin="round"/>
<path d="M522 321.5C521.172 321.5 520.5 322.172 520.5 323C520.5 323.828 521.172 324.5 522 324.5C522.828 324.5 523.5 323.828 523.5 323C523.5 322.172 522.828 321.5 522 321.5Z" stroke="#7B61FF" stroke-width="3" stroke-linecap="round" stroke-linejoin="round"/>
<path d="M414 307V307C409.582 307 406 310.582 406 315L406 323" stroke="#7B61FF" stroke-width="1.5" stroke-linecap="round" stroke-linejoin="round"/>
<path d="M414 307V307C418.418 307 422 310.582 422 315V315" stroke="#7B61FF" stroke-width="1.5" stroke-linecap="round" stroke-linejoin="round"/>
<path d="M418 313L421.646 316.646C421.842 316.842 422.158 316.842 422.354 316.646L426 313" stroke="#7B61FF" stroke-width="1.5" stroke-linecap="round" stroke-linejoin="round"/>
<line x1="422" y1="314.75" x2="420" y2="315.25" stroke="#7B61FF" stroke-width="1.5" stroke-linecap="round" stroke-linejoin="round"/>
<path d="M406 321.5C405.172 321.5 404.5 322.172 404.5 323C404.5 323.828 405.172 324.5 406 324.5C406.828 324.5 407.5 323.828 407.5 323C407.5 322.172 406.828 321.5 406 321.5Z" stroke="#7B61FF" stroke-width="3" stroke-linecap="round" stroke-linejoin="round"/>
<path d="M298 307V307C293.582 307 290 310.582 290 315L290 323" stroke="#7B61FF" stroke-width="1.5" stroke-linecap="round" stroke-linejoin="round"/>
<path d="M298 307V307C302.418 307 306 310.582 306 315L306 323" stroke="#7B61FF" stroke-width="1.5" stroke-linecap="round" stroke-linejoin="round"/>
<path d="M302 321L305.646 324.646C305.842 324.842 306.158 324.842 306.354 324.646L310 321" stroke="#7B61FF" stroke-width="1.5" stroke-linecap="round" stroke-linejoin="round"/>
<line x1="306" y1="322.75" x2="304" y2="323.25" stroke="#7B61FF" stroke-width="1.5" stroke-linecap="round" stroke-linejoin="round"/>
<path d="M290 322.75C289.172 322.75 288.5 323.422 288.5 324.25C288.5 325.078 289.172 325.75 290 325.75C290.828 325.75 291.5 325.078 291.5 324.25C291.5 323.422 290.828 322.75 290 322.75Z" stroke="#7B61FF" stroke-width="3" stroke-linecap="round" stroke-linejoin="round"/>
<path d="M1226 307L1222 307C1219.79 307 1218 308.791 1218 311V311" stroke="#7B61FF" stroke-width="1.5" stroke-linecap="round" stroke-linejoin="round"/>
<path d="M1226 315L1222 315C1219.79 315 1218 313.209 1218 311V311" stroke="#7B61FF" stroke-width="1.5" stroke-linecap="round" stroke-linejoin="round"/>
<path d="M1226 315V315C1230.42 315 1234 318.582 1234 323V323" stroke="#7B61FF" stroke-width="1.5" stroke-linecap="round" stroke-linejoin="round"/>
<path d="M1224 311L1227.65 307.354C1227.84 307.158 1227.84 306.842 1227.65 306.646L1224 303" stroke="#7B61FF" stroke-width="1.5" stroke-linecap="round" stroke-linejoin="round"/>
<line x1="1225.75" y1="307" x2="1226.25" y2="309" stroke="#7B61FF" stroke-width="1.5" stroke-linecap="round" stroke-linejoin="round"/>
<path d="M1234 321.5C1234.83 321.5 1235.5 322.172 1235.5 323C1235.5 323.828 1234.83 324.5 1234 324.5C1233.17 324.5 1232.5 323.828 1232.5 323C1232.5 322.172 1233.17 321.5 1234 321.5Z" stroke="#7B61FF" stroke-width="3" stroke-linecap="round" stroke-linejoin="round"/>
<path d="M1110 315V315C1114.42 315 1118 318.582 1118 323V323" stroke="#7B61FF" stroke-width="1.5" stroke-linecap="round" stroke-linejoin="round"/>
<path d="M1110 315V315C1105.58 315 1102 311.418 1102 307V307" stroke="#7B61FF" stroke-width="1.5" stroke-linecap="round" stroke-linejoin="round"/>
<path d="M1106 309L1102.35 305.354C1102.16 305.158 1101.84 305.158 1101.65 305.354L1098 309" stroke="#7B61FF" stroke-width="1.5" stroke-linecap="round" stroke-linejoin="round"/>
<line x1="1102" y1="307.25" x2="1104" y2="306.75" stroke="#7B61FF" stroke-width="1.5" stroke-linecap="round" stroke-linejoin="round"/>
<path d="M1118 321.5C1118.83 321.5 1119.5 322.172 1119.5 323C1119.5 323.828 1118.83 324.5 1118 324.5C1117.17 324.5 1116.5 323.828 1116.5 323C1116.5 322.172 1117.17 321.5 1118 321.5Z" stroke="#7B61FF" stroke-width="3" stroke-linecap="round" stroke-linejoin="round"/>
<path d="M994 307V307C998.418 307 1002 310.582 1002 315L1002 323" stroke="#7B61FF" stroke-width="1.5" stroke-linecap="round" stroke-linejoin="round"/>
<path d="M994 307V307C989.582 307 986 310.582 986 315V315" stroke="#7B61FF" stroke-width="1.5" stroke-linecap="round" stroke-linejoin="round"/>
<path d="M990 313L986.354 316.646C986.158 316.842 985.842 316.842 985.646 316.646L982 313" stroke="#7B61FF" stroke-width="1.5" stroke-linecap="round" stroke-linejoin="round"/>
<line x1="0.75" y1="-0.75" x2="1.25" y2="1.25" transform="matrix(0 1 1 0 986.75 314)" stroke="#7B61FF" stroke-width="1.5" stroke-linecap="round" stroke-linejoin="round"/>
<path d="M1002 321.5C1002.83 321.5 1003.5 322.172 1003.5 323C1003.5 323.828 1002.83 324.5 1002 324.5C1001.17 324.5 1000.5 323.828 1000.5 323C1000.5 322.172 1001.17 321.5 1002 321.5Z" stroke="#7B61FF" stroke-width="3" stroke-linecap="round" stroke-linejoin="round"/>
<path d="M878 307V307C882.418 307 886 310.582 886 315L886 323" stroke="#7B61FF" stroke-width="1.5" stroke-linecap="round" stroke-linejoin="round"/>
<path d="M878 307V307C873.582 307 870 310.582 870 315L870 323" stroke="#7B61FF" stroke-width="1.5" stroke-linecap="round" stroke-linejoin="round"/>
<path d="M874 321L870.354 324.646C870.158 324.842 869.842 324.842 869.646 324.646L866 321" stroke="#7B61FF" stroke-width="1.5" stroke-linecap="round" stroke-linejoin="round"/>
<line x1="0.75" y1="-0.75" x2="1.25" y2="1.25" transform="matrix(0 1 1 0 870.75 322)" stroke="#7B61FF" stroke-width="1.5" stroke-linecap="round" stroke-linejoin="round"/>
<path d="M886 322.75C886.828 322.75 887.5 323.422 887.5 324.25C887.5 325.078 886.828 325.75 886 325.75C885.172 325.75 884.5 325.078 884.5 324.25C884.5 323.422 885.172 322.75 886 322.75Z" stroke="#7B61FF" stroke-width="3" stroke-linecap="round" stroke-linejoin="round"/>
<path d="M754 307L762 307C766.418 307 770 310.582 770 315L770 323" stroke="#7B61FF" stroke-width="1.5" stroke-linecap="round" stroke-linejoin="round"/>
<path d="M756 303L752.354 306.646C752.158 306.842 752.158 307.158 752.354 307.354L756 311" stroke="#7B61FF" stroke-width="1.5" stroke-linecap="round" stroke-linejoin="round"/>
<line x1="754.25" y1="307" x2="753.75" y2="305" stroke="#7B61FF" stroke-width="1.5" stroke-linecap="round" stroke-linejoin="round"/>
<path d="M770.25 321.5C771.078 321.5 771.75 322.172 771.75 323C771.75 323.828 771.078 324.5 770.25 324.5C769.422 324.5 768.75 323.828 768.75 323C768.75 322.172 769.422 321.5 770.25 321.5Z" stroke="#7B61FF" stroke-width="3" stroke-linecap="round" stroke-linejoin="round"/>
<path d="M190 307L182 307C177.582 307 174 310.582 174 315L174 323" stroke="#7B61FF" stroke-width="1.5" stroke-linecap="round" stroke-linejoin="round"/>
<path d="M188 303L191.646 306.646C191.842 306.842 191.842 307.158 191.646 307.354L188 311" stroke="#7B61FF" stroke-width="1.5" stroke-linecap="round" stroke-linejoin="round"/>
<line x1="0.75" y1="-0.75" x2="1.25" y2="1.25" transform="matrix(1 0 0 -1 189 306.25)" stroke="#7B61FF" stroke-width="1.5" stroke-linecap="round" stroke-linejoin="round"/>
<path d="M173.75 321.5C172.922 321.5 172.25 322.172 172.25 323C172.25 323.828 172.922 324.5 173.75 324.5C174.578 324.5 175.25 323.828 175.25 323C175.25 322.172 174.578 321.5 173.75 321.5Z" stroke="#7B61FF" stroke-width="3" stroke-linecap="round" stroke-linejoin="round"/>
<path d="M638 199L638 203C638 205.209 639.791 207 642 207V207" stroke="#7B61FF" stroke-width="1.5" stroke-linecap="round" stroke-linejoin="round"/>
<path d="M646 199L646 203C646 205.209 644.209 207 642 207V207" stroke="#7B61FF" stroke-width="1.5" stroke-linecap="round" stroke-linejoin="round"/>
<path d="M646 199V199C646 194.582 649.582 191 654 191V191" stroke="#7B61FF" stroke-width="1.5" stroke-linecap="round" stroke-linejoin="round"/>
<path d="M642 201L638.354 197.354C638.158 197.158 637.842 197.158 637.646 197.354L634 201" stroke="#7B61FF" stroke-width="1.5" stroke-linecap="round" stroke-linejoin="round"/>
<line x1="638" y1="199.25" x2="640" y2="198.75" stroke="#7B61FF" stroke-width="1.5" stroke-linecap="round" stroke-linejoin="round"/>
<path d="M652.5 191C652.5 190.172 653.172 189.5 654 189.5C654.828 189.5 655.5 190.172 655.5 191C655.5 191.828 654.828 192.5 654 192.5C653.172 192.5 652.5 191.828 652.5 191Z" stroke="#7B61FF" stroke-width="3" stroke-linecap="round" stroke-linejoin="round"/>
<path d="M530 199V199C530 194.582 533.582 191 538 191V191" stroke="#7B61FF" stroke-width="1.5" stroke-linecap="round" stroke-linejoin="round"/>
<path d="M530 199V199C530 203.418 526.418 207 522 207V207" stroke="#7B61FF" stroke-width="1.5" stroke-linecap="round" stroke-linejoin="round"/>
<path d="M524 203L520.354 206.646C520.158 206.842 520.158 207.158 520.354 207.354L524 211" stroke="#7B61FF" stroke-width="1.5" stroke-linecap="round" stroke-linejoin="round"/>
<line x1="522.25" y1="207" x2="521.75" y2="205" stroke="#7B61FF" stroke-width="1.5" stroke-linecap="round" stroke-linejoin="round"/>
<path d="M536.5 191C536.5 190.172 537.172 189.5 538 189.5C538.828 189.5 539.5 190.172 539.5 191C539.5 191.828 538.828 192.5 538 192.5C537.172 192.5 536.5 191.828 536.5 191Z" stroke="#7B61FF" stroke-width="3" stroke-linecap="round" stroke-linejoin="round"/>
<path d="M406 199V199C406 194.582 409.582 191 414 191L422 191" stroke="#7B61FF" stroke-width="1.5" stroke-linecap="round" stroke-linejoin="round"/>
<path d="M406 199V199C406 203.418 409.582 207 414 207V207" stroke="#7B61FF" stroke-width="1.5" stroke-linecap="round" stroke-linejoin="round"/>
<path d="M412 203L415.646 206.646C415.842 206.842 415.842 207.158 415.646 207.354L412 211" stroke="#7B61FF" stroke-width="1.5" stroke-linecap="round" stroke-linejoin="round"/>
<line x1="0.75" y1="-0.75" x2="1.25" y2="1.25" transform="matrix(1 0 0 -1 413 206.25)" stroke="#7B61FF" stroke-width="1.5" stroke-linecap="round" stroke-linejoin="round"/>
<path d="M420.5 191C420.5 190.172 421.172 189.5 422 189.5C422.828 189.5 423.5 190.172 423.5 191C423.5 191.828 422.828 192.5 422 192.5C421.172 192.5 420.5 191.828 420.5 191Z" stroke="#7B61FF" stroke-width="3" stroke-linecap="round" stroke-linejoin="round"/>
<path d="M290 199V199C290 194.582 293.582 191 298 191L306 191" stroke="#7B61FF" stroke-width="1.5" stroke-linecap="round" stroke-linejoin="round"/>
<path d="M290 199V199C290 203.418 293.582 207 298 207L306 207" stroke="#7B61FF" stroke-width="1.5" stroke-linecap="round" stroke-linejoin="round"/>
<path d="M304 203L307.646 206.646C307.842 206.842 307.842 207.158 307.646 207.354L304 211" stroke="#7B61FF" stroke-width="1.5" stroke-linecap="round" stroke-linejoin="round"/>
<line x1="0.75" y1="-0.75" x2="1.25" y2="1.25" transform="matrix(1 0 0 -1 305 206.25)" stroke="#7B61FF" stroke-width="1.5" stroke-linecap="round" stroke-linejoin="round"/>
<path d="M305.75 191C305.75 190.172 306.422 189.5 307.25 189.5C308.078 189.5 308.75 190.172 308.75 191C308.75 191.828 308.078 192.5 307.25 192.5C306.422 192.5 305.75 191.828 305.75 191Z" stroke="#7B61FF" stroke-width="3" stroke-linecap="round" stroke-linejoin="round"/>
<path d="M1218 199L1218 195C1218 192.791 1219.79 191 1222 191V191" stroke="#7B61FF" stroke-width="1.5" stroke-linecap="round" stroke-linejoin="round"/>
<path d="M1226 199L1226 195C1226 192.791 1224.21 191 1222 191V191" stroke="#7B61FF" stroke-width="1.5" stroke-linecap="round" stroke-linejoin="round"/>
<path d="M1226 199V199C1226 203.418 1229.58 207 1234 207V207" stroke="#7B61FF" stroke-width="1.5" stroke-linecap="round" stroke-linejoin="round"/>
<path d="M1222 197L1218.35 200.646C1218.16 200.842 1217.84 200.842 1217.65 200.646L1214 197" stroke="#7B61FF" stroke-width="1.5" stroke-linecap="round" stroke-linejoin="round"/>
<line x1="0.75" y1="-0.75" x2="1.25" y2="1.25" transform="matrix(0 1 1 0 1218.75 198)" stroke="#7B61FF" stroke-width="1.5" stroke-linecap="round" stroke-linejoin="round"/>
<path d="M1232.5 207C1232.5 207.828 1233.17 208.5 1234 208.5C1234.83 208.5 1235.5 207.828 1235.5 207C1235.5 206.172 1234.83 205.5 1234 205.5C1233.17 205.5 1232.5 206.172 1232.5 207Z" stroke="#7B61FF" stroke-width="3" stroke-linecap="round" stroke-linejoin="round"/>
<path d="M1110 199V199C1110 203.418 1113.58 207 1118 207V207" stroke="#7B61FF" stroke-width="1.5" stroke-linecap="round" stroke-linejoin="round"/>
<path d="M1110 199V199C1110 194.582 1106.42 191 1102 191V191" stroke="#7B61FF" stroke-width="1.5" stroke-linecap="round" stroke-linejoin="round"/>
<path d="M1104 195L1100.35 191.354C1100.16 191.158 1100.16 190.842 1100.35 190.646L1104 187" stroke="#7B61FF" stroke-width="1.5" stroke-linecap="round" stroke-linejoin="round"/>
<line x1="0.75" y1="-0.75" x2="1.25" y2="1.25" transform="matrix(-1 0 0 1 1103 191.75)" stroke="#7B61FF" stroke-width="1.5" stroke-linecap="round" stroke-linejoin="round"/>
<path d="M1116.5 207C1116.5 207.828 1117.17 208.5 1118 208.5C1118.83 208.5 1119.5 207.828 1119.5 207C1119.5 206.172 1118.83 205.5 1118 205.5C1117.17 205.5 1116.5 206.172 1116.5 207Z" stroke="#7B61FF" stroke-width="3" stroke-linecap="round" stroke-linejoin="round"/>
<path d="M986 199V199C986 203.418 989.582 207 994 207L1002 207" stroke="#7B61FF" stroke-width="1.5" stroke-linecap="round" stroke-linejoin="round"/>
<path d="M986 199V199C986 194.582 989.582 191 994 191V191" stroke="#7B61FF" stroke-width="1.5" stroke-linecap="round" stroke-linejoin="round"/>
<path d="M992 195L995.646 191.354C995.842 191.158 995.842 190.842 995.646 190.646L992 187" stroke="#7B61FF" stroke-width="1.5" stroke-linecap="round" stroke-linejoin="round"/>
<line x1="993.75" y1="191" x2="994.25" y2="193" stroke="#7B61FF" stroke-width="1.5" stroke-linecap="round" stroke-linejoin="round"/>
<path d="M1000.5 207C1000.5 207.828 1001.17 208.5 1002 208.5C1002.83 208.5 1003.5 207.828 1003.5 207C1003.5 206.172 1002.83 205.5 1002 205.5C1001.17 205.5 1000.5 206.172 1000.5 207Z" stroke="#7B61FF" stroke-width="3" stroke-linecap="round" stroke-linejoin="round"/>
<path d="M870 199V199C870 203.418 873.582 207 878 207L886 207" stroke="#7B61FF" stroke-width="1.5" stroke-linecap="round" stroke-linejoin="round"/>
<path d="M870 199V199C870 194.582 873.582 191 878 191L886 191" stroke="#7B61FF" stroke-width="1.5" stroke-linecap="round" stroke-linejoin="round"/>
<path d="M884 195L887.646 191.354C887.842 191.158 887.842 190.842 887.646 190.646L884 187" stroke="#7B61FF" stroke-width="1.5" stroke-linecap="round" stroke-linejoin="round"/>
<line x1="885.75" y1="191" x2="886.25" y2="193" stroke="#7B61FF" stroke-width="1.5" stroke-linecap="round" stroke-linejoin="round"/>
<path d="M885.75 207C885.75 207.828 886.422 208.5 887.25 208.5C888.078 208.5 888.75 207.828 888.75 207C888.75 206.172 888.078 205.5 887.25 205.5C886.422 205.5 885.75 206.172 885.75 207Z" stroke="#7B61FF" stroke-width="3" stroke-linecap="round" stroke-linejoin="round"/>
<path d="M754 191L754 199C754 203.418 757.582 207 762 207L770 207" stroke="#7B61FF" stroke-width="1.5" stroke-linecap="round" stroke-linejoin="round"/>
<path d="M750 193L753.646 189.354C753.842 189.158 754.158 189.158 754.354 189.354L758 193" stroke="#7B61FF" stroke-width="1.5" stroke-linecap="round" stroke-linejoin="round"/>
<line x1="0.75" y1="-0.75" x2="1.25" y2="1.25" transform="matrix(0 -1 -1 0 753.25 192)" stroke="#7B61FF" stroke-width="1.5" stroke-linecap="round" stroke-linejoin="round"/>
<path d="M768.5 207.25C768.5 208.078 769.172 208.75 770 208.75C770.828 208.75 771.5 208.078 771.5 207.25C771.5 206.422 770.828 205.75 770 205.75C769.172 205.75 768.5 206.422 768.5 207.25Z" stroke="#7B61FF" stroke-width="3" stroke-linecap="round" stroke-linejoin="round"/>
<path d="M174 207L174 199C174 194.582 177.582 191 182 191L190 191" stroke="#7B61FF" stroke-width="1.5" stroke-linecap="round" stroke-linejoin="round"/>
<path d="M170 205L173.646 208.646C173.842 208.842 174.158 208.842 174.354 208.646L178 205" stroke="#7B61FF" stroke-width="1.5" stroke-linecap="round" stroke-linejoin="round"/>
<line x1="174" y1="206.75" x2="172" y2="207.25" stroke="#7B61FF" stroke-width="1.5" stroke-linecap="round" stroke-linejoin="round"/>
<path d="M188.5 190.75C188.5 189.922 189.172 189.25 190 189.25C190.828 189.25 191.5 189.922 191.5 190.75C191.5 191.578 190.828 192.25 190 192.25C189.172 192.25 188.5 191.578 188.5 190.75Z" stroke="#7B61FF" stroke-width="3" stroke-linecap="round" stroke-linejoin="round"/>
<line x1="0.75" y1="-0.75" x2="15.25" y2="0.1875" transform="matrix(-1 0 0 1 74 199.75)" stroke="#7B61FF" stroke-width="1.5" stroke-linecap="round" stroke-linejoin="round"/>
<path d="M60 203L56.3536 199.354C56.1583 199.158 56.1583 198.842 56.3536 198.646L60 195" stroke="#7B61FF" stroke-width="1.5" stroke-linecap="round" stroke-linejoin="round"/>
<line x1="0.75" y1="-0.75" x2="1.25" y2="1.25" transform="matrix(-1 0 0 1 59 199.75)" stroke="#7B61FF" stroke-width="1.5" stroke-linecap="round" stroke-linejoin="round"/>
<path d="M72.5 199C72.5 199.828 73.1716 200.5 74 200.5C74.8284 200.5 75.5 199.828 75.5 199C75.5 198.172 74.8284 197.5 74 197.5C73.1716 197.5 72.5 198.172 72.5 199Z" stroke="#7B61FF" stroke-width="3" stroke-linecap="round" stroke-linejoin="round"/>
<path d="M654 83L654 87C654 89.2091 652.209 91 650 91V91" stroke="#7B61FF" stroke-width="1.5" stroke-linecap="round" stroke-linejoin="round"/>
<path d="M646 83L646 87C646 89.2091 647.791 91 650 91V91" stroke="#7B61FF" stroke-width="1.5" stroke-linecap="round" stroke-linejoin="round"/>
<path d="M646 83V83C646 78.5817 642.418 75 638 75V75" stroke="#7B61FF" stroke-width="1.5" stroke-linecap="round" stroke-linejoin="round"/>
<path d="M650 85L653.646 81.3536C653.842 81.1583 654.158 81.1583 654.354 81.3536L658 85" stroke="#7B61FF" stroke-width="1.5" stroke-linecap="round" stroke-linejoin="round"/>
<line x1="0.75" y1="-0.75" x2="1.25" y2="1.25" transform="matrix(0 -1 -1 0 653.25 84)" stroke="#7B61FF" stroke-width="1.5" stroke-linecap="round" stroke-linejoin="round"/>
<path d="M639.5 75C639.5 74.1716 638.828 73.5 638 73.5C637.172 73.5 636.5 74.1716 636.5 75C636.5 75.8284 637.172 76.5 638 76.5C638.828 76.5 639.5 75.8284 639.5 75Z" stroke="#7B61FF" stroke-width="3" stroke-linecap="round" stroke-linejoin="round"/>
<path d="M530 83V83C530 78.5817 526.418 75 522 75V75" stroke="#7B61FF" stroke-width="1.5" stroke-linecap="round" stroke-linejoin="round"/>
<path d="M530 83V83C530 87.4183 533.582 91 538 91V91" stroke="#7B61FF" stroke-width="1.5" stroke-linecap="round" stroke-linejoin="round"/>
<path d="M536 87L539.646 90.6464C539.842 90.8417 539.842 91.1583 539.646 91.3536L536 95" stroke="#7B61FF" stroke-width="1.5" stroke-linecap="round" stroke-linejoin="round"/>
<line x1="0.75" y1="-0.75" x2="1.25" y2="1.25" transform="matrix(1 0 0 -1 537 90.25)" stroke="#7B61FF" stroke-width="1.5" stroke-linecap="round" stroke-linejoin="round"/>
<path d="M523.5 75C523.5 74.1716 522.828 73.5 522 73.5C521.172 73.5 520.5 74.1716 520.5 75C520.5 75.8284 521.172 76.5 522 76.5C522.828 76.5 523.5 75.8284 523.5 75Z" stroke="#7B61FF" stroke-width="3" stroke-linecap="round" stroke-linejoin="round"/>
<path d="M422 83V83C422 78.5817 418.418 75 414 75L406 75" stroke="#7B61FF" stroke-width="1.5" stroke-linecap="round" stroke-linejoin="round"/>
<path d="M422 83V83C422 87.4183 418.418 91 414 91V91" stroke="#7B61FF" stroke-width="1.5" stroke-linecap="round" stroke-linejoin="round"/>
<path d="M416 87L412.354 90.6464C412.158 90.8417 412.158 91.1583 412.354 91.3536L416 95" stroke="#7B61FF" stroke-width="1.5" stroke-linecap="round" stroke-linejoin="round"/>
<line x1="414.25" y1="91" x2="413.75" y2="89" stroke="#7B61FF" stroke-width="1.5" stroke-linecap="round" stroke-linejoin="round"/>
<path d="M407.5 75C407.5 74.1716 406.828 73.5 406 73.5C405.172 73.5 404.5 74.1716 404.5 75C404.5 75.8284 405.172 76.5 406 76.5C406.828 76.5 407.5 75.8284 407.5 75Z" stroke="#7B61FF" stroke-width="3" stroke-linecap="round" stroke-linejoin="round"/>
<path d="M306 83V83C306 78.5817 302.418 75 298 75L290 75" stroke="#7B61FF" stroke-width="1.5" stroke-linecap="round" stroke-linejoin="round"/>
<path d="M306 83V83C306 87.4183 302.418 91 298 91L290 91" stroke="#7B61FF" stroke-width="1.5" stroke-linecap="round" stroke-linejoin="round"/>
<path d="M292 87L288.354 90.6464C288.158 90.8417 288.158 91.1583 288.354 91.3536L292 95" stroke="#7B61FF" stroke-width="1.5" stroke-linecap="round" stroke-linejoin="round"/>
<line x1="290.25" y1="91" x2="289.75" y2="89" stroke="#7B61FF" stroke-width="1.5" stroke-linecap="round" stroke-linejoin="round"/>
<path d="M290.25 75C290.25 74.1716 289.578 73.5 288.75 73.5C287.922 73.5 287.25 74.1716 287.25 75C287.25 75.8284 287.922 76.5 288.75 76.5C289.578 76.5 290.25 75.8284 290.25 75Z" stroke="#7B61FF" stroke-width="3" stroke-linecap="round" stroke-linejoin="round"/>
<path d="M1234 83L1234 79C1234 76.7909 1232.21 75 1230 75V75" stroke="#7B61FF" stroke-width="1.5" stroke-linecap="round" stroke-linejoin="round"/>
<path d="M1226 83L1226 79C1226 76.7909 1227.79 75 1230 75V75" stroke="#7B61FF" stroke-width="1.5" stroke-linecap="round" stroke-linejoin="round"/>
<path d="M1226 83V83C1226 87.4183 1222.42 91 1218 91V91" stroke="#7B61FF" stroke-width="1.5" stroke-linecap="round" stroke-linejoin="round"/>
<path d="M1230 81L1233.65 84.6464C1233.84 84.8417 1234.16 84.8417 1234.35 84.6464L1238 81" stroke="#7B61FF" stroke-width="1.5" stroke-linecap="round" stroke-linejoin="round"/>
<line x1="1234" y1="82.75" x2="1232" y2="83.25" stroke="#7B61FF" stroke-width="1.5" stroke-linecap="round" stroke-linejoin="round"/>
<path d="M1219.5 91C1219.5 91.8284 1218.83 92.5 1218 92.5C1217.17 92.5 1216.5 91.8284 1216.5 91C1216.5 90.1716 1217.17 89.5 1218 89.5C1218.83 89.5 1219.5 90.1716 1219.5 91Z" stroke="#7B61FF" stroke-width="3" stroke-linecap="round" stroke-linejoin="round"/>
<path d="M1110 83V83C1110 87.4183 1106.42 91 1102 91V91" stroke="#7B61FF" stroke-width="1.5" stroke-linecap="round" stroke-linejoin="round"/>
<path d="M1110 83V83C1110 78.5817 1113.58 75 1118 75V75" stroke="#7B61FF" stroke-width="1.5" stroke-linecap="round" stroke-linejoin="round"/>
<path d="M1116 79L1119.65 75.3536C1119.84 75.1583 1119.84 74.8417 1119.65 74.6464L1116 71" stroke="#7B61FF" stroke-width="1.5" stroke-linecap="round" stroke-linejoin="round"/>
<line x1="1117.75" y1="75" x2="1118.25" y2="77" stroke="#7B61FF" stroke-width="1.5" stroke-linecap="round" stroke-linejoin="round"/>
<path d="M1103.5 91C1103.5 91.8284 1102.83 92.5 1102 92.5C1101.17 92.5 1100.5 91.8284 1100.5 91C1100.5 90.1716 1101.17 89.5 1102 89.5C1102.83 89.5 1103.5 90.1716 1103.5 91Z" stroke="#7B61FF" stroke-width="3" stroke-linecap="round" stroke-linejoin="round"/>
<path d="M1002 83V83C1002 87.4183 998.418 91 994 91L986 91" stroke="#7B61FF" stroke-width="1.5" stroke-linecap="round" stroke-linejoin="round"/>
<path d="M1002 83V83C1002 78.5817 998.418 75 994 75V75" stroke="#7B61FF" stroke-width="1.5" stroke-linecap="round" stroke-linejoin="round"/>
<path d="M996 79L992.354 75.3536C992.158 75.1583 992.158 74.8417 992.354 74.6464L996 71" stroke="#7B61FF" stroke-width="1.5" stroke-linecap="round" stroke-linejoin="round"/>
<line x1="0.75" y1="-0.75" x2="1.25" y2="1.25" transform="matrix(-1 0 0 1 995 75.75)" stroke="#7B61FF" stroke-width="1.5" stroke-linecap="round" stroke-linejoin="round"/>
<path d="M987.5 91C987.5 91.8284 986.828 92.5 986 92.5C985.172 92.5 984.5 91.8284 984.5 91C984.5 90.1716 985.172 89.5 986 89.5C986.828 89.5 987.5 90.1716 987.5 91Z" stroke="#7B61FF" stroke-width="3" stroke-linecap="round" stroke-linejoin="round"/>
<path d="M886 83V83C886 87.4183 882.418 91 878 91L870 91" stroke="#7B61FF" stroke-width="1.5" stroke-linecap="round" stroke-linejoin="round"/>
<path d="M886 83V83C886 78.5817 882.418 75 878 75L870 75" stroke="#7B61FF" stroke-width="1.5" stroke-linecap="round" stroke-linejoin="round"/>
<path d="M872 79L868.354 75.3536C868.158 75.1583 868.158 74.8417 868.354 74.6464L872 71" stroke="#7B61FF" stroke-width="1.5" stroke-linecap="round" stroke-linejoin="round"/>
<line x1="0.75" y1="-0.75" x2="1.25" y2="1.25" transform="matrix(-1 0 0 1 871 75.75)" stroke="#7B61FF" stroke-width="1.5" stroke-linecap="round" stroke-linejoin="round"/>
<path d="M870.25 91C870.25 91.8284 869.578 92.5 868.75 92.5C867.922 92.5 867.25 91.8284 867.25 91C867.25 90.1716 867.922 89.5 868.75 89.5C869.578 89.5 870.25 90.1716 870.25 91Z" stroke="#7B61FF" stroke-width="3" stroke-linecap="round" stroke-linejoin="round"/>
<path d="M770 75L770 83C770 87.4183 766.418 91 762 91L754 91" stroke="#7B61FF" stroke-width="1.5" stroke-linecap="round" stroke-linejoin="round"/>
<path d="M774 77L770.354 73.3536C770.158 73.1583 769.842 73.1583 769.646 73.3536L766 77" stroke="#7B61FF" stroke-width="1.5" stroke-linecap="round" stroke-linejoin="round"/>
<line x1="770" y1="75.25" x2="772" y2="74.75" stroke="#7B61FF" stroke-width="1.5" stroke-linecap="round" stroke-linejoin="round"/>
<path d="M755.5 91.25C755.5 92.0784 754.828 92.75 754 92.75C753.172 92.75 752.5 92.0784 752.5 91.25C752.5 90.4216 753.172 89.75 754 89.75C754.828 89.75 755.5 90.4216 755.5 91.25Z" stroke="#7B61FF" stroke-width="3" stroke-linecap="round" stroke-linejoin="round"/>
<path d="M190 91L190 83C190 78.5817 186.418 75 182 75L174 75" stroke="#7B61FF" stroke-width="1.5" stroke-linecap="round" stroke-linejoin="round"/>
<path d="M194 89L190.354 92.6464C190.158 92.8417 189.842 92.8417 189.646 92.6464L186 89" stroke="#7B61FF" stroke-width="1.5" stroke-linecap="round" stroke-linejoin="round"/>
<line x1="0.75" y1="-0.75" x2="1.25" y2="1.25" transform="matrix(0 1 1 0 190.75 90)" stroke="#7B61FF" stroke-width="1.5" stroke-linecap="round" stroke-linejoin="round"/>
<path d="M175.5 74.75C175.5 73.9216 174.828 73.25 174 73.25C173.172 73.25 172.5 73.9216 172.5 74.75C172.5 75.5784 173.172 76.25 174 76.25C174.828 76.25 175.5 75.5784 175.5 74.75Z" stroke="#7B61FF" stroke-width="3" stroke-linecap="round" stroke-linejoin="round"/>
<line x1="58.75" y1="83" x2="73.25" y2="83.9375" stroke="#7B61FF" stroke-width="1.5" stroke-linecap="round" stroke-linejoin="round"/>
<path d="M72 87L75.6464 83.3536C75.8417 83.1583 75.8417 82.8417 75.6464 82.6464L72 79" stroke="#7B61FF" stroke-width="1.5" stroke-linecap="round" stroke-linejoin="round"/>
<line x1="73.75" y1="83" x2="74.25" y2="85" stroke="#7B61FF" stroke-width="1.5" stroke-linecap="round" stroke-linejoin="round"/>
<path d="M59.5 83C59.5 83.8284 58.8284 84.5 58 84.5C57.1716 84.5 56.5 83.8284 56.5 83C56.5 82.1716 57.1716 81.5 58 81.5C58.8284 81.5 59.5 82.1716 59.5 83Z" stroke="#7B61FF" stroke-width="3" stroke-linecap="round" stroke-linejoin="round"/>
<path d="M646 903L650 903C652.209 903 654 901.209 654 899V899" stroke="#7B61FF" stroke-width="1.5" stroke-linecap="round" stroke-linejoin="round" stroke-dasharray="2 4"/>
<path d="M646 895L650 895C652.209 895 654 896.791 654 899V899" stroke="#7B61FF" stroke-width="1.5" stroke-linecap="round" stroke-linejoin="round" stroke-dasharray="2 4"/>
<path d="M646 895V895C641.582 895 638 891.418 638 887V887" stroke="#7B61FF" stroke-width="1.5" stroke-linecap="round" stroke-linejoin="round" stroke-dasharray="2 4"/>
<path d="M648 899L644.354 902.646C644.158 902.842 644.158 903.158 644.354 903.354L648 907" stroke="#7B61FF" stroke-width="1.5" stroke-linecap="round" stroke-linejoin="round"/>
<line x1="646.25" y1="903" x2="645.75" y2="901" stroke="#7B61FF" stroke-width="1.5" stroke-linecap="round" stroke-linejoin="round"/>
<path d="M638 888.5C637.172 888.5 636.5 887.828 636.5 887C636.5 886.172 637.172 885.5 638 885.5C638.828 885.5 639.5 886.172 639.5 887C639.5 887.828 638.828 888.5 638 888.5Z" stroke="#7B61FF" stroke-width="3" stroke-linecap="round" stroke-linejoin="round"/>
<path d="M530 895V895C525.582 895 522 891.418 522 887V887" stroke="#7B61FF" stroke-width="1.5" stroke-linecap="round" stroke-linejoin="round" stroke-dasharray="2 4"/>
<path d="M530 895V895C534.418 895 538 898.582 538 903V903" stroke="#7B61FF" stroke-width="1.5" stroke-linecap="round" stroke-linejoin="round" stroke-dasharray="2 4"/>
<path d="M534 901L537.646 904.646C537.842 904.842 538.158 904.842 538.354 904.646L542 901" stroke="#7B61FF" stroke-width="1.5" stroke-linecap="round" stroke-linejoin="round"/>
<line x1="538" y1="902.75" x2="536" y2="903.25" stroke="#7B61FF" stroke-width="1.5" stroke-linecap="round" stroke-linejoin="round"/>
<path d="M522 888.5C521.172 888.5 520.5 887.828 520.5 887C520.5 886.172 521.172 885.5 522 885.5C522.828 885.5 523.5 886.172 523.5 887C523.5 887.828 522.828 888.5 522 888.5Z" stroke="#7B61FF" stroke-width="3" stroke-linecap="round" stroke-linejoin="round"/>
<path d="M414 903V903C409.582 903 406 899.418 406 895L406 887" stroke="#7B61FF" stroke-width="1.5" stroke-linecap="round" stroke-linejoin="round" stroke-dasharray="2 4"/>
<path d="M414 903V903C418.418 903 422 899.418 422 895V895" stroke="#7B61FF" stroke-width="1.5" stroke-linecap="round" stroke-linejoin="round" stroke-dasharray="2 4"/>
<path d="M418 897L421.646 893.354C421.842 893.158 422.158 893.158 422.354 893.354L426 897" stroke="#7B61FF" stroke-width="1.5" stroke-linecap="round" stroke-linejoin="round"/>
<line x1="0.75" y1="-0.75" x2="1.25" y2="1.25" transform="matrix(0 -1 -1 0 421.25 896)" stroke="#7B61FF" stroke-width="1.5" stroke-linecap="round" stroke-linejoin="round"/>
<path d="M406 888.5C405.172 888.5 404.5 887.828 404.5 887C404.5 886.172 405.172 885.5 406 885.5C406.828 885.5 407.5 886.172 407.5 887C407.5 887.828 406.828 888.5 406 888.5Z" stroke="#7B61FF" stroke-width="3" stroke-linecap="round" stroke-linejoin="round"/>
<path d="M298 903V903C293.582 903 290 899.418 290 895L290 887" stroke="#7B61FF" stroke-width="1.5" stroke-linecap="round" stroke-linejoin="round" stroke-dasharray="2 4"/>
<path d="M298 903V903C302.418 903 306 899.418 306 895L306 887" stroke="#7B61FF" stroke-width="1.5" stroke-linecap="round" stroke-linejoin="round" stroke-dasharray="2 4"/>
<path d="M302 889L305.646 885.354C305.842 885.158 306.158 885.158 306.354 885.354L310 889" stroke="#7B61FF" stroke-width="1.5" stroke-linecap="round" stroke-linejoin="round"/>
<line x1="0.75" y1="-0.75" x2="1.25" y2="1.25" transform="matrix(0 -1 -1 0 305.25 888)" stroke="#7B61FF" stroke-width="1.5" stroke-linecap="round" stroke-linejoin="round"/>
<path d="M290 887.25C289.172 887.25 288.5 886.578 288.5 885.75C288.5 884.922 289.172 884.25 290 884.25C290.828 884.25 291.5 884.922 291.5 885.75C291.5 886.578 290.828 887.25 290 887.25Z" stroke="#7B61FF" stroke-width="3" stroke-linecap="round" stroke-linejoin="round"/>
<path d="M1226 903L1222 903C1219.79 903 1218 901.209 1218 899V899" stroke="#7B61FF" stroke-width="1.5" stroke-linecap="round" stroke-linejoin="round" stroke-dasharray="2 4"/>
<path d="M1226 895L1222 895C1219.79 895 1218 896.791 1218 899V899" stroke="#7B61FF" stroke-width="1.5" stroke-linecap="round" stroke-linejoin="round" stroke-dasharray="2 4"/>
<path d="M1226 895V895C1230.42 895 1234 891.418 1234 887V887" stroke="#7B61FF" stroke-width="1.5" stroke-linecap="round" stroke-linejoin="round" stroke-dasharray="2 4"/>
<path d="M1224 899L1227.65 902.646C1227.84 902.842 1227.84 903.158 1227.65 903.354L1224 907" stroke="#7B61FF" stroke-width="1.5" stroke-linecap="round" stroke-linejoin="round"/>
<line x1="0.75" y1="-0.75" x2="1.25" y2="1.25" transform="matrix(1 0 0 -1 1225 902.25)" stroke="#7B61FF" stroke-width="1.5" stroke-linecap="round" stroke-linejoin="round"/>
<path d="M1234 888.5C1234.83 888.5 1235.5 887.828 1235.5 887C1235.5 886.172 1234.83 885.5 1234 885.5C1233.17 885.5 1232.5 886.172 1232.5 887C1232.5 887.828 1233.17 888.5 1234 888.5Z" stroke="#7B61FF" stroke-width="3" stroke-linecap="round" stroke-linejoin="round"/>
<path d="M1110 895V895C1114.42 895 1118 891.418 1118 887V887" stroke="#7B61FF" stroke-width="1.5" stroke-linecap="round" stroke-linejoin="round" stroke-dasharray="2 4"/>
<path d="M1110 895V895C1105.58 895 1102 898.582 1102 903V903" stroke="#7B61FF" stroke-width="1.5" stroke-linecap="round" stroke-linejoin="round" stroke-dasharray="2 4"/>
<path d="M1106 901L1102.35 904.646C1102.16 904.842 1101.84 904.842 1101.65 904.646L1098 901" stroke="#7B61FF" stroke-width="1.5" stroke-linecap="round" stroke-linejoin="round"/>
<line x1="0.75" y1="-0.75" x2="1.25" y2="1.25" transform="matrix(0 1 1 0 1102.75 902)" stroke="#7B61FF" stroke-width="1.5" stroke-linecap="round" stroke-linejoin="round"/>
<path d="M1118 888.5C1118.83 888.5 1119.5 887.828 1119.5 887C1119.5 886.172 1118.83 885.5 1118 885.5C1117.17 885.5 1116.5 886.172 1116.5 887C1116.5 887.828 1117.17 888.5 1118 888.5Z" stroke="#7B61FF" stroke-width="3" stroke-linecap="round" stroke-linejoin="round"/>
<path d="M994 903V903C998.418 903 1002 899.418 1002 895L1002 887" stroke="#7B61FF" stroke-width="1.5" stroke-linecap="round" stroke-linejoin="round" stroke-dasharray="2 4"/>
<path d="M994 903V903C989.582 903 986 899.418 986 895V895" stroke="#7B61FF" stroke-width="1.5" stroke-linecap="round" stroke-linejoin="round" stroke-dasharray="2 4"/>
<path d="M990 897L986.354 893.354C986.158 893.158 985.842 893.158 985.646 893.354L982 897" stroke="#7B61FF" stroke-width="1.5" stroke-linecap="round" stroke-linejoin="round"/>
<line x1="986" y1="895.25" x2="988" y2="894.75" stroke="#7B61FF" stroke-width="1.5" stroke-linecap="round" stroke-linejoin="round"/>
<path d="M1002 888.5C1002.83 888.5 1003.5 887.828 1003.5 887C1003.5 886.172 1002.83 885.5 1002 885.5C1001.17 885.5 1000.5 886.172 1000.5 887C1000.5 887.828 1001.17 888.5 1002 888.5Z" stroke="#7B61FF" stroke-width="3" stroke-linecap="round" stroke-linejoin="round"/>
<path d="M878 903V903C882.418 903 886 899.418 886 895L886 887" stroke="#7B61FF" stroke-width="1.5" stroke-linecap="round" stroke-linejoin="round" stroke-dasharray="2 4"/>
<path d="M878 903V903C873.582 903 870 899.418 870 895L870 887" stroke="#7B61FF" stroke-width="1.5" stroke-linecap="round" stroke-linejoin="round" stroke-dasharray="2 4"/>
<path d="M874 889L870.354 885.354C870.158 885.158 869.842 885.158 869.646 885.354L866 889" stroke="#7B61FF" stroke-width="1.5" stroke-linecap="round" stroke-linejoin="round"/>
<line x1="870" y1="887.25" x2="872" y2="886.75" stroke="#7B61FF" stroke-width="1.5" stroke-linecap="round" stroke-linejoin="round"/>
<path d="M886 887.25C886.828 887.25 887.5 886.578 887.5 885.75C887.5 884.922 886.828 884.25 886 884.25C885.172 884.25 884.5 884.922 884.5 885.75C884.5 886.578 885.172 887.25 886 887.25Z" stroke="#7B61FF" stroke-width="3" stroke-linecap="round" stroke-linejoin="round"/>
<path d="M754 903L762 903C766.418 903 770 899.418 770 895L770 887" stroke="#7B61FF" stroke-width="1.5" stroke-linecap="round" stroke-linejoin="round" stroke-dasharray="2 4"/>
<path d="M756 907L752.354 903.354C752.158 903.158 752.158 902.842 752.354 902.646L756 899" stroke="#7B61FF" stroke-width="1.5" stroke-linecap="round" stroke-linejoin="round"/>
<line x1="0.75" y1="-0.75" x2="1.25" y2="1.25" transform="matrix(-1 0 0 1 755 903.75)" stroke="#7B61FF" stroke-width="1.5" stroke-linecap="round" stroke-linejoin="round"/>
<path d="M770.25 888.5C771.078 888.5 771.75 887.828 771.75 887C771.75 886.172 771.078 885.5 770.25 885.5C769.422 885.5 768.75 886.172 768.75 887C768.75 887.828 769.422 888.5 770.25 888.5Z" stroke="#7B61FF" stroke-width="3" stroke-linecap="round" stroke-linejoin="round"/>
<path d="M190 903L182 903C177.582 903 174 899.418 174 895L174 887" stroke="#7B61FF" stroke-width="1.5" stroke-linecap="round" stroke-linejoin="round" stroke-dasharray="2 4"/>
<path d="M188 907L191.646 903.354C191.842 903.158 191.842 902.842 191.646 902.646L188 899" stroke="#7B61FF" stroke-width="1.5" stroke-linecap="round" stroke-linejoin="round"/>
<line x1="189.75" y1="903" x2="190.25" y2="905" stroke="#7B61FF" stroke-width="1.5" stroke-linecap="round" stroke-linejoin="round"/>
<path d="M173.75 888.5C172.922 888.5 172.25 887.828 172.25 887C172.25 886.172 172.922 885.5 173.75 885.5C174.578 885.5 175.25 886.172 175.25 887C175.25 887.828 174.578 888.5 173.75 888.5Z" stroke="#7B61FF" stroke-width="3" stroke-linecap="round" stroke-linejoin="round"/>
<line x1="0.75" y1="-0.75" x2="15.25" y2="0.1875" transform="matrix(0 1 1 0 66.75 887)" stroke="#7B61FF" stroke-width="1.5" stroke-linecap="round" stroke-linejoin="round" stroke-dasharray="2 4"/>
<path d="M70 901L66.3536 904.646C66.1583 904.842 65.8417 904.842 65.6464 904.646L62 901" stroke="#7B61FF" stroke-width="1.5" stroke-linecap="round" stroke-linejoin="round"/>
<line x1="0.75" y1="-0.75" x2="1.25" y2="1.25" transform="matrix(0 1 1 0 66.75 902)" stroke="#7B61FF" stroke-width="1.5" stroke-linecap="round" stroke-linejoin="round"/>
<path d="M66 888.5C66.8284 888.5 67.5 887.828 67.5 887C67.5 886.172 66.8284 885.5 66 885.5C65.1716 885.5 64.5 886.172 64.5 887C64.5 887.828 65.1716 888.5 66 888.5Z" stroke="#7B61FF" stroke-width="3" stroke-linecap="round" stroke-linejoin="round"/>
<line x1="66" y1="786.25" x2="66.9375" y2="771.75" stroke="#7B61FF" stroke-width="1.5" stroke-linecap="round" stroke-linejoin="round" stroke-dasharray="2 4"/>
<path d="M70 773L66.3536 769.354C66.1583 769.158 65.8417 769.158 65.6464 769.354L62 773" stroke="#7B61FF" stroke-width="1.5" stroke-linecap="round" stroke-linejoin="round"/>
<line x1="66" y1="771.25" x2="68" y2="770.75" stroke="#7B61FF" stroke-width="1.5" stroke-linecap="round" stroke-linejoin="round"/>
<path d="M66 785.5C66.8284 785.5 67.5 786.172 67.5 787C67.5 787.828 66.8284 788.5 66 788.5C65.1716 788.5 64.5 787.828 64.5 787C64.5 786.172 65.1716 785.5 66 785.5Z" stroke="#7B61FF" stroke-width="3" stroke-linecap="round" stroke-linejoin="round"/>
<path d="M646 771L650 771C652.209 771 654 772.791 654 775V775" stroke="#7B61FF" stroke-width="1.5" stroke-linecap="round" stroke-linejoin="round" stroke-dasharray="2 4"/>
<path d="M646 779L650 779C652.209 779 654 777.209 654 775V775" stroke="#7B61FF" stroke-width="1.5" stroke-linecap="round" stroke-linejoin="round" stroke-dasharray="2 4"/>
<path d="M646 779V779C641.582 779 638 782.582 638 787V787" stroke="#7B61FF" stroke-width="1.5" stroke-linecap="round" stroke-linejoin="round" stroke-dasharray="2 4"/>
<path d="M648 775L644.354 771.354C644.158 771.158 644.158 770.842 644.354 770.646L648 767" stroke="#7B61FF" stroke-width="1.5" stroke-linecap="round" stroke-linejoin="round"/>
<line x1="0.75" y1="-0.75" x2="1.25" y2="1.25" transform="matrix(-1 0 0 1 647 771.75)" stroke="#7B61FF" stroke-width="1.5" stroke-linecap="round" stroke-linejoin="round"/>
<path d="M638 785.5C637.172 785.5 636.5 786.172 636.5 787C636.5 787.828 637.172 788.5 638 788.5C638.828 788.5 639.5 787.828 639.5 787C639.5 786.172 638.828 785.5 638 785.5Z" stroke="#7B61FF" stroke-width="3" stroke-linecap="round" stroke-linejoin="round"/>
<path d="M530 779V779C525.582 779 522 782.582 522 787V787" stroke="#7B61FF" stroke-width="1.5" stroke-linecap="round" stroke-linejoin="round" stroke-dasharray="2 4"/>
<path d="M530 779V779C534.418 779 538 775.418 538 771V771" stroke="#7B61FF" stroke-width="1.5" stroke-linecap="round" stroke-linejoin="round" stroke-dasharray="2 4"/>
<path d="M534 773L537.646 769.354C537.842 769.158 538.158 769.158 538.354 769.354L542 773" stroke="#7B61FF" stroke-width="1.5" stroke-linecap="round" stroke-linejoin="round"/>
<line x1="0.75" y1="-0.75" x2="1.25" y2="1.25" transform="matrix(0 -1 -1 0 537.25 772)" stroke="#7B61FF" stroke-width="1.5" stroke-linecap="round" stroke-linejoin="round"/>
<path d="M522 785.5C521.172 785.5 520.5 786.172 520.5 787C520.5 787.828 521.172 788.5 522 788.5C522.828 788.5 523.5 787.828 523.5 787C523.5 786.172 522.828 785.5 522 785.5Z" stroke="#7B61FF" stroke-width="3" stroke-linecap="round" stroke-linejoin="round"/>
<path d="M414 771V771C409.582 771 406 774.582 406 779L406 787" stroke="#7B61FF" stroke-width="1.5" stroke-linecap="round" stroke-linejoin="round" stroke-dasharray="2 4"/>
<path d="M414 771V771C418.418 771 422 774.582 422 779V779" stroke="#7B61FF" stroke-width="1.5" stroke-linecap="round" stroke-linejoin="round" stroke-dasharray="2 4"/>
<path d="M418 777L421.646 780.646C421.842 780.842 422.158 780.842 422.354 780.646L426 777" stroke="#7B61FF" stroke-width="1.5" stroke-linecap="round" stroke-linejoin="round"/>
<line x1="422" y1="778.75" x2="420" y2="779.25" stroke="#7B61FF" stroke-width="1.5" stroke-linecap="round" stroke-linejoin="round"/>
<path d="M406 785.5C405.172 785.5 404.5 786.172 404.5 787C404.5 787.828 405.172 788.5 406 788.5C406.828 788.5 407.5 787.828 407.5 787C407.5 786.172 406.828 785.5 406 785.5Z" stroke="#7B61FF" stroke-width="3" stroke-linecap="round" stroke-linejoin="round"/>
<path d="M298 771V771C293.582 771 290 774.582 290 779L290 787" stroke="#7B61FF" stroke-width="1.5" stroke-linecap="round" stroke-linejoin="round" stroke-dasharray="2 4"/>
<path d="M298 771V771C302.418 771 306 774.582 306 779L306 787" stroke="#7B61FF" stroke-width="1.5" stroke-linecap="round" stroke-linejoin="round" stroke-dasharray="2 4"/>
<path d="M302 785L305.646 788.646C305.842 788.842 306.158 788.842 306.354 788.646L310 785" stroke="#7B61FF" stroke-width="1.5" stroke-linecap="round" stroke-linejoin="round"/>
<line x1="306" y1="786.75" x2="304" y2="787.25" stroke="#7B61FF" stroke-width="1.5" stroke-linecap="round" stroke-linejoin="round"/>
<path d="M290 786.75C289.172 786.75 288.5 787.422 288.5 788.25C288.5 789.078 289.172 789.75 290 789.75C290.828 789.75 291.5 789.078 291.5 788.25C291.5 787.422 290.828 786.75 290 786.75Z" stroke="#7B61FF" stroke-width="3" stroke-linecap="round" stroke-linejoin="round"/>
<path d="M1226 771L1222 771C1219.79 771 1218 772.791 1218 775V775" stroke="#7B61FF" stroke-width="1.5" stroke-linecap="round" stroke-linejoin="round" stroke-dasharray="2 4"/>
<path d="M1226 779L1222 779C1219.79 779 1218 777.209 1218 775V775" stroke="#7B61FF" stroke-width="1.5" stroke-linecap="round" stroke-linejoin="round" stroke-dasharray="2 4"/>
<path d="M1226 779V779C1230.42 779 1234 782.582 1234 787V787" stroke="#7B61FF" stroke-width="1.5" stroke-linecap="round" stroke-linejoin="round" stroke-dasharray="2 4"/>
<path d="M1224 775L1227.65 771.354C1227.84 771.158 1227.84 770.842 1227.65 770.646L1224 767" stroke="#7B61FF" stroke-width="1.5" stroke-linecap="round" stroke-linejoin="round"/>
<line x1="1225.75" y1="771" x2="1226.25" y2="773" stroke="#7B61FF" stroke-width="1.5" stroke-linecap="round" stroke-linejoin="round"/>
<path d="M1234 785.5C1234.83 785.5 1235.5 786.172 1235.5 787C1235.5 787.828 1234.83 788.5 1234 788.5C1233.17 788.5 1232.5 787.828 1232.5 787C1232.5 786.172 1233.17 785.5 1234 785.5Z" stroke="#7B61FF" stroke-width="3" stroke-linecap="round" stroke-linejoin="round"/>
<path d="M1110 779V779C1114.42 779 1118 782.582 1118 787V787" stroke="#7B61FF" stroke-width="1.5" stroke-linecap="round" stroke-linejoin="round" stroke-dasharray="2 4"/>
<path d="M1110 779V779C1105.58 779 1102 775.418 1102 771V771" stroke="#7B61FF" stroke-width="1.5" stroke-linecap="round" stroke-linejoin="round" stroke-dasharray="2 4"/>
<path d="M1106 773L1102.35 769.354C1102.16 769.158 1101.84 769.158 1101.65 769.354L1098 773" stroke="#7B61FF" stroke-width="1.5" stroke-linecap="round" stroke-linejoin="round"/>
<line x1="1102" y1="771.25" x2="1104" y2="770.75" stroke="#7B61FF" stroke-width="1.5" stroke-linecap="round" stroke-linejoin="round"/>
<path d="M1118 785.5C1118.83 785.5 1119.5 786.172 1119.5 787C1119.5 787.828 1118.83 788.5 1118 788.5C1117.17 788.5 1116.5 787.828 1116.5 787C1116.5 786.172 1117.17 785.5 1118 785.5Z" stroke="#7B61FF" stroke-width="3" stroke-linecap="round" stroke-linejoin="round"/>
<path d="M994 771V771C998.418 771 1002 774.582 1002 779L1002 787" stroke="#7B61FF" stroke-width="1.5" stroke-linecap="round" stroke-linejoin="round" stroke-dasharray="2 4"/>
<path d="M994 771V771C989.582 771 986 774.582 986 779V779" stroke="#7B61FF" stroke-width="1.5" stroke-linecap="round" stroke-linejoin="round" stroke-dasharray="2 4"/>
<path d="M990 777L986.354 780.646C986.158 780.842 985.842 780.842 985.646 780.646L982 777" stroke="#7B61FF" stroke-width="1.5" stroke-linecap="round" stroke-linejoin="round"/>
<line x1="0.75" y1="-0.75" x2="1.25" y2="1.25" transform="matrix(0 1 1 0 986.75 778)" stroke="#7B61FF" stroke-width="1.5" stroke-linecap="round" stroke-linejoin="round"/>
<path d="M1002 785.5C1002.83 785.5 1003.5 786.172 1003.5 787C1003.5 787.828 1002.83 788.5 1002 788.5C1001.17 788.5 1000.5 787.828 1000.5 787C1000.5 786.172 1001.17 785.5 1002 785.5Z" stroke="#7B61FF" stroke-width="3" stroke-linecap="round" stroke-linejoin="round"/>
<path d="M878 771V771C882.418 771 886 774.582 886 779L886 787" stroke="#7B61FF" stroke-width="1.5" stroke-linecap="round" stroke-linejoin="round" stroke-dasharray="2 4"/>
<path d="M878 771V771C873.582 771 870 774.582 870 779L870 787" stroke="#7B61FF" stroke-width="1.5" stroke-linecap="round" stroke-linejoin="round" stroke-dasharray="2 4"/>
<path d="M874 785L870.354 788.646C870.158 788.842 869.842 788.842 869.646 788.646L866 785" stroke="#7B61FF" stroke-width="1.5" stroke-linecap="round" stroke-linejoin="round"/>
<line x1="0.75" y1="-0.75" x2="1.25" y2="1.25" transform="matrix(0 1 1 0 870.75 786)" stroke="#7B61FF" stroke-width="1.5" stroke-linecap="round" stroke-linejoin="round"/>
<path d="M886 786.75C886.828 786.75 887.5 787.422 887.5 788.25C887.5 789.078 886.828 789.75 886 789.75C885.172 789.75 884.5 789.078 884.5 788.25C884.5 787.422 885.172 786.75 886 786.75Z" stroke="#7B61FF" stroke-width="3" stroke-linecap="round" stroke-linejoin="round"/>
<path d="M754 771L762 771C766.418 771 770 774.582 770 779L770 787" stroke="#7B61FF" stroke-width="1.5" stroke-linecap="round" stroke-linejoin="round" stroke-dasharray="2 4"/>
<path d="M756 767L752.354 770.646C752.158 770.842 752.158 771.158 752.354 771.354L756 775" stroke="#7B61FF" stroke-width="1.5" stroke-linecap="round" stroke-linejoin="round"/>
<line x1="754.25" y1="771" x2="753.75" y2="769" stroke="#7B61FF" stroke-width="1.5" stroke-linecap="round" stroke-linejoin="round"/>
<path d="M770.25 785.5C771.078 785.5 771.75 786.172 771.75 787C771.75 787.828 771.078 788.5 770.25 788.5C769.422 788.5 768.75 787.828 768.75 787C768.75 786.172 769.422 785.5 770.25 785.5Z" stroke="#7B61FF" stroke-width="3" stroke-linecap="round" stroke-linejoin="round"/>
<path d="M190 771L182 771C177.582 771 174 774.582 174 779L174 787" stroke="#7B61FF" stroke-width="1.5" stroke-linecap="round" stroke-linejoin="round" stroke-dasharray="2 4"/>
<path d="M188 767L191.646 770.646C191.842 770.842 191.842 771.158 191.646 771.354L188 775" stroke="#7B61FF" stroke-width="1.5" stroke-linecap="round" stroke-linejoin="round"/>
<line x1="0.75" y1="-0.75" x2="1.25" y2="1.25" transform="matrix(1 0 0 -1 189 770.25)" stroke="#7B61FF" stroke-width="1.5" stroke-linecap="round" stroke-linejoin="round"/>
<path d="M173.75 785.5C172.922 785.5 172.25 786.172 172.25 787C172.25 787.828 172.922 788.5 173.75 788.5C174.578 788.5 175.25 787.828 175.25 787C175.25 786.172 174.578 785.5 173.75 785.5Z" stroke="#7B61FF" stroke-width="3" stroke-linecap="round" stroke-linejoin="round"/>
<path d="M638 663L638 667C638 669.209 639.791 671 642 671V671" stroke="#7B61FF" stroke-width="1.5" stroke-linecap="round" stroke-linejoin="round" stroke-dasharray="2 4"/>
<path d="M646 663L646 667C646 669.209 644.209 671 642 671V671" stroke="#7B61FF" stroke-width="1.5" stroke-linecap="round" stroke-linejoin="round" stroke-dasharray="2 4"/>
<path d="M646 663V663C646 658.582 649.582 655 654 655V655" stroke="#7B61FF" stroke-width="1.5" stroke-linecap="round" stroke-linejoin="round" stroke-dasharray="2 4"/>
<path d="M642 665L638.354 661.354C638.158 661.158 637.842 661.158 637.646 661.354L634 665" stroke="#7B61FF" stroke-width="1.5" stroke-linecap="round" stroke-linejoin="round"/>
<line x1="638" y1="663.25" x2="640" y2="662.75" stroke="#7B61FF" stroke-width="1.5" stroke-linecap="round" stroke-linejoin="round"/>
<path d="M652.5 655C652.5 654.172 653.172 653.5 654 653.5C654.828 653.5 655.5 654.172 655.5 655C655.5 655.828 654.828 656.5 654 656.5C653.172 656.5 652.5 655.828 652.5 655Z" stroke="#7B61FF" stroke-width="3" stroke-linecap="round" stroke-linejoin="round"/>
<path d="M530 663V663C530 658.582 533.582 655 538 655V655" stroke="#7B61FF" stroke-width="1.5" stroke-linecap="round" stroke-linejoin="round" stroke-dasharray="2 4"/>
<path d="M530 663V663C530 667.418 526.418 671 522 671V671" stroke="#7B61FF" stroke-width="1.5" stroke-linecap="round" stroke-linejoin="round" stroke-dasharray="2 4"/>
<path d="M524 667L520.354 670.646C520.158 670.842 520.158 671.158 520.354 671.354L524 675" stroke="#7B61FF" stroke-width="1.5" stroke-linecap="round" stroke-linejoin="round"/>
<line x1="522.25" y1="671" x2="521.75" y2="669" stroke="#7B61FF" stroke-width="1.5" stroke-linecap="round" stroke-linejoin="round"/>
<path d="M536.5 655C536.5 654.172 537.172 653.5 538 653.5C538.828 653.5 539.5 654.172 539.5 655C539.5 655.828 538.828 656.5 538 656.5C537.172 656.5 536.5 655.828 536.5 655Z" stroke="#7B61FF" stroke-width="3" stroke-linecap="round" stroke-linejoin="round"/>
<path d="M406 663V663C406 658.582 409.582 655 414 655L422 655" stroke="#7B61FF" stroke-width="1.5" stroke-linecap="round" stroke-linejoin="round" stroke-dasharray="2 4"/>
<path d="M406 663V663C406 667.418 409.582 671 414 671V671" stroke="#7B61FF" stroke-width="1.5" stroke-linecap="round" stroke-linejoin="round" stroke-dasharray="2 4"/>
<path d="M412 667L415.646 670.646C415.842 670.842 415.842 671.158 415.646 671.354L412 675" stroke="#7B61FF" stroke-width="1.5" stroke-linecap="round" stroke-linejoin="round"/>
<line x1="0.75" y1="-0.75" x2="1.25" y2="1.25" transform="matrix(1 0 0 -1 413 670.25)" stroke="#7B61FF" stroke-width="1.5" stroke-linecap="round" stroke-linejoin="round"/>
<path d="M420.5 655C420.5 654.172 421.172 653.5 422 653.5C422.828 653.5 423.5 654.172 423.5 655C423.5 655.828 422.828 656.5 422 656.5C421.172 656.5 420.5 655.828 420.5 655Z" stroke="#7B61FF" stroke-width="3" stroke-linecap="round" stroke-linejoin="round"/>
<path d="M290 663V663C290 658.582 293.582 655 298 655L306 655" stroke="#7B61FF" stroke-width="1.5" stroke-linecap="round" stroke-linejoin="round" stroke-dasharray="2 4"/>
<path d="M290 663V663C290 667.418 293.582 671 298 671L306 671" stroke="#7B61FF" stroke-width="1.5" stroke-linecap="round" stroke-linejoin="round" stroke-dasharray="2 4"/>
<path d="M304 667L307.646 670.646C307.842 670.842 307.842 671.158 307.646 671.354L304 675" stroke="#7B61FF" stroke-width="1.5" stroke-linecap="round" stroke-linejoin="round"/>
<line x1="0.75" y1="-0.75" x2="1.25" y2="1.25" transform="matrix(1 0 0 -1 305 670.25)" stroke="#7B61FF" stroke-width="1.5" stroke-linecap="round" stroke-linejoin="round"/>
<path d="M305.75 655C305.75 654.172 306.422 653.5 307.25 653.5C308.078 653.5 308.75 654.172 308.75 655C308.75 655.828 308.078 656.5 307.25 656.5C306.422 656.5 305.75 655.828 305.75 655Z" stroke="#7B61FF" stroke-width="3" stroke-linecap="round" stroke-linejoin="round"/>
<path d="M1218 663L1218 659C1218 656.791 1219.79 655 1222 655V655" stroke="#7B61FF" stroke-width="1.5" stroke-linecap="round" stroke-linejoin="round" stroke-dasharray="2 4"/>
<path d="M1226 663L1226 659C1226 656.791 1224.21 655 1222 655V655" stroke="#7B61FF" stroke-width="1.5" stroke-linecap="round" stroke-linejoin="round" stroke-dasharray="2 4"/>
<path d="M1226 663V663C1226 667.418 1229.58 671 1234 671V671" stroke="#7B61FF" stroke-width="1.5" stroke-linecap="round" stroke-linejoin="round" stroke-dasharray="2 4"/>
<path d="M1222 661L1218.35 664.646C1218.16 664.842 1217.84 664.842 1217.65 664.646L1214 661" stroke="#7B61FF" stroke-width="1.5" stroke-linecap="round" stroke-linejoin="round"/>
<line x1="0.75" y1="-0.75" x2="1.25" y2="1.25" transform="matrix(0 1 1 0 1218.75 662)" stroke="#7B61FF" stroke-width="1.5" stroke-linecap="round" stroke-linejoin="round"/>
<path d="M1232.5 671C1232.5 671.828 1233.17 672.5 1234 672.5C1234.83 672.5 1235.5 671.828 1235.5 671C1235.5 670.172 1234.83 669.5 1234 669.5C1233.17 669.5 1232.5 670.172 1232.5 671Z" stroke="#7B61FF" stroke-width="3" stroke-linecap="round" stroke-linejoin="round"/>
<path d="M1110 663V663C1110 667.418 1113.58 671 1118 671V671" stroke="#7B61FF" stroke-width="1.5" stroke-linecap="round" stroke-linejoin="round" stroke-dasharray="2 4"/>
<path d="M1110 663V663C1110 658.582 1106.42 655 1102 655V655" stroke="#7B61FF" stroke-width="1.5" stroke-linecap="round" stroke-linejoin="round" stroke-dasharray="2 4"/>
<path d="M1104 659L1100.35 655.354C1100.16 655.158 1100.16 654.842 1100.35 654.646L1104 651" stroke="#7B61FF" stroke-width="1.5" stroke-linecap="round" stroke-linejoin="round"/>
<line x1="0.75" y1="-0.75" x2="1.25" y2="1.25" transform="matrix(-1 0 0 1 1103 655.75)" stroke="#7B61FF" stroke-width="1.5" stroke-linecap="round" stroke-linejoin="round"/>
<path d="M1116.5 671C1116.5 671.828 1117.17 672.5 1118 672.5C1118.83 672.5 1119.5 671.828 1119.5 671C1119.5 670.172 1118.83 669.5 1118 669.5C1117.17 669.5 1116.5 670.172 1116.5 671Z" stroke="#7B61FF" stroke-width="3" stroke-linecap="round" stroke-linejoin="round"/>
<path d="M986 663V663C986 667.418 989.582 671 994 671L1002 671" stroke="#7B61FF" stroke-width="1.5" stroke-linecap="round" stroke-linejoin="round" stroke-dasharray="2 4"/>
<path d="M986 663V663C986 658.582 989.582 655 994 655V655" stroke="#7B61FF" stroke-width="1.5" stroke-linecap="round" stroke-linejoin="round" stroke-dasharray="2 4"/>
<path d="M992 659L995.646 655.354C995.842 655.158 995.842 654.842 995.646 654.646L992 651" stroke="#7B61FF" stroke-width="1.5" stroke-linecap="round" stroke-linejoin="round"/>
<line x1="993.75" y1="655" x2="994.25" y2="657" stroke="#7B61FF" stroke-width="1.5" stroke-linecap="round" stroke-linejoin="round"/>
<path d="M1000.5 671C1000.5 671.828 1001.17 672.5 1002 672.5C1002.83 672.5 1003.5 671.828 1003.5 671C1003.5 670.172 1002.83 669.5 1002 669.5C1001.17 669.5 1000.5 670.172 1000.5 671Z" stroke="#7B61FF" stroke-width="3" stroke-linecap="round" stroke-linejoin="round"/>
<path d="M870 663V663C870 667.418 873.582 671 878 671L886 671" stroke="#7B61FF" stroke-width="1.5" stroke-linecap="round" stroke-linejoin="round" stroke-dasharray="2 4"/>
<path d="M870 663V663C870 658.582 873.582 655 878 655L886 655" stroke="#7B61FF" stroke-width="1.5" stroke-linecap="round" stroke-linejoin="round" stroke-dasharray="2 4"/>
<path d="M884 659L887.646 655.354C887.842 655.158 887.842 654.842 887.646 654.646L884 651" stroke="#7B61FF" stroke-width="1.5" stroke-linecap="round" stroke-linejoin="round"/>
<line x1="885.75" y1="655" x2="886.25" y2="657" stroke="#7B61FF" stroke-width="1.5" stroke-linecap="round" stroke-linejoin="round"/>
<path d="M885.75 671C885.75 671.828 886.422 672.5 887.25 672.5C888.078 672.5 888.75 671.828 888.75 671C888.75 670.172 888.078 669.5 887.25 669.5C886.422 669.5 885.75 670.172 885.75 671Z" stroke="#7B61FF" stroke-width="3" stroke-linecap="round" stroke-linejoin="round"/>
<path d="M754 655L754 663C754 667.418 757.582 671 762 671L770 671" stroke="#7B61FF" stroke-width="1.5" stroke-linecap="round" stroke-linejoin="round" stroke-dasharray="2 4"/>
<path d="M750 657L753.646 653.354C753.842 653.158 754.158 653.158 754.354 653.354L758 657" stroke="#7B61FF" stroke-width="1.5" stroke-linecap="round" stroke-linejoin="round"/>
<line x1="0.75" y1="-0.75" x2="1.25" y2="1.25" transform="matrix(0 -1 -1 0 753.25 656)" stroke="#7B61FF" stroke-width="1.5" stroke-linecap="round" stroke-linejoin="round"/>
<path d="M768.5 671.25C768.5 672.078 769.172 672.75 770 672.75C770.828 672.75 771.5 672.078 771.5 671.25C771.5 670.422 770.828 669.75 770 669.75C769.172 669.75 768.5 670.422 768.5 671.25Z" stroke="#7B61FF" stroke-width="3" stroke-linecap="round" stroke-linejoin="round"/>
<path d="M174 671L174 663C174 658.582 177.582 655 182 655L190 655" stroke="#7B61FF" stroke-width="1.5" stroke-linecap="round" stroke-linejoin="round" stroke-dasharray="2 4"/>
<path d="M170 669L173.646 672.646C173.842 672.842 174.158 672.842 174.354 672.646L178 669" stroke="#7B61FF" stroke-width="1.5" stroke-linecap="round" stroke-linejoin="round"/>
<line x1="174" y1="670.75" x2="172" y2="671.25" stroke="#7B61FF" stroke-width="1.5" stroke-linecap="round" stroke-linejoin="round"/>
<path d="M188.5 654.75C188.5 653.922 189.172 653.25 190 653.25C190.828 653.25 191.5 653.922 191.5 654.75C191.5 655.578 190.828 656.25 190 656.25C189.172 656.25 188.5 655.578 188.5 654.75Z" stroke="#7B61FF" stroke-width="3" stroke-linecap="round" stroke-linejoin="round"/>
<line x1="0.75" y1="-0.75" x2="15.25" y2="0.1875" transform="matrix(-1 0 0 1 74 663.75)" stroke="#7B61FF" stroke-width="1.5" stroke-linecap="round" stroke-linejoin="round" stroke-dasharray="2 4"/>
<path d="M60 667L56.3536 663.354C56.1583 663.158 56.1583 662.842 56.3536 662.646L60 659" stroke="#7B61FF" stroke-width="1.5" stroke-linecap="round" stroke-linejoin="round"/>
<line x1="0.75" y1="-0.75" x2="1.25" y2="1.25" transform="matrix(-1 0 0 1 59 663.75)" stroke="#7B61FF" stroke-width="1.5" stroke-linecap="round" stroke-linejoin="round"/>
<path d="M72.5 663C72.5 663.828 73.1716 664.5 74 664.5C74.8284 664.5 75.5 663.828 75.5 663C75.5 662.172 74.8284 661.5 74 661.5C73.1716 661.5 72.5 662.172 72.5 663Z" stroke="#7B61FF" stroke-width="3" stroke-linecap="round" stroke-linejoin="round"/>
<path d="M654 547L654 551C654 553.209 652.209 555 650 555V555" stroke="#7B61FF" stroke-width="1.5" stroke-linecap="round" stroke-linejoin="round" stroke-dasharray="2 4"/>
<path d="M646 547L646 551C646 553.209 647.791 555 650 555V555" stroke="#7B61FF" stroke-width="1.5" stroke-linecap="round" stroke-linejoin="round" stroke-dasharray="2 4"/>
<path d="M646 547V547C646 542.582 642.418 539 638 539V539" stroke="#7B61FF" stroke-width="1.5" stroke-linecap="round" stroke-linejoin="round" stroke-dasharray="2 4"/>
<path d="M650 549L653.646 545.354C653.842 545.158 654.158 545.158 654.354 545.354L658 549" stroke="#7B61FF" stroke-width="1.5" stroke-linecap="round" stroke-linejoin="round"/>
<line x1="0.75" y1="-0.75" x2="1.25" y2="1.25" transform="matrix(0 -1 -1 0 653.25 548)" stroke="#7B61FF" stroke-width="1.5" stroke-linecap="round" stroke-linejoin="round"/>
<path d="M639.5 539C639.5 538.172 638.828 537.5 638 537.5C637.172 537.5 636.5 538.172 636.5 539C636.5 539.828 637.172 540.5 638 540.5C638.828 540.5 639.5 539.828 639.5 539Z" stroke="#7B61FF" stroke-width="3" stroke-linecap="round" stroke-linejoin="round"/>
<path d="M530 547V547C530 542.582 526.418 539 522 539V539" stroke="#7B61FF" stroke-width="1.5" stroke-linecap="round" stroke-linejoin="round" stroke-dasharray="2 4"/>
<path d="M530 547V547C530 551.418 533.582 555 538 555V555" stroke="#7B61FF" stroke-width="1.5" stroke-linecap="round" stroke-linejoin="round" stroke-dasharray="2 4"/>
<path d="M536 551L539.646 554.646C539.842 554.842 539.842 555.158 539.646 555.354L536 559" stroke="#7B61FF" stroke-width="1.5" stroke-linecap="round" stroke-linejoin="round"/>
<line x1="0.75" y1="-0.75" x2="1.25" y2="1.25" transform="matrix(1 0 0 -1 537 554.25)" stroke="#7B61FF" stroke-width="1.5" stroke-linecap="round" stroke-linejoin="round"/>
<path d="M523.5 539C523.5 538.172 522.828 537.5 522 537.5C521.172 537.5 520.5 538.172 520.5 539C520.5 539.828 521.172 540.5 522 540.5C522.828 540.5 523.5 539.828 523.5 539Z" stroke="#7B61FF" stroke-width="3" stroke-linecap="round" stroke-linejoin="round"/>
<path d="M422 547V547C422 542.582 418.418 539 414 539L406 539" stroke="#7B61FF" stroke-width="1.5" stroke-linecap="round" stroke-linejoin="round" stroke-dasharray="2 4"/>
<path d="M422 547V547C422 551.418 418.418 555 414 555V555" stroke="#7B61FF" stroke-width="1.5" stroke-linecap="round" stroke-linejoin="round" stroke-dasharray="2 4"/>
<path d="M416 551L412.354 554.646C412.158 554.842 412.158 555.158 412.354 555.354L416 559" stroke="#7B61FF" stroke-width="1.5" stroke-linecap="round" stroke-linejoin="round"/>
<line x1="414.25" y1="555" x2="413.75" y2="553" stroke="#7B61FF" stroke-width="1.5" stroke-linecap="round" stroke-linejoin="round"/>
<path d="M407.5 539C407.5 538.172 406.828 537.5 406 537.5C405.172 537.5 404.5 538.172 404.5 539C404.5 539.828 405.172 540.5 406 540.5C406.828 540.5 407.5 539.828 407.5 539Z" stroke="#7B61FF" stroke-width="3" stroke-linecap="round" stroke-linejoin="round"/>
<path d="M306 547V547C306 542.582 302.418 539 298 539L290 539" stroke="#7B61FF" stroke-width="1.5" stroke-linecap="round" stroke-linejoin="round" stroke-dasharray="2 4"/>
<path d="M306 547V547C306 551.418 302.418 555 298 555L290 555" stroke="#7B61FF" stroke-width="1.5" stroke-linecap="round" stroke-linejoin="round" stroke-dasharray="2 4"/>
<path d="M292 551L288.354 554.646C288.158 554.842 288.158 555.158 288.354 555.354L292 559" stroke="#7B61FF" stroke-width="1.5" stroke-linecap="round" stroke-linejoin="round"/>
<line x1="290.25" y1="555" x2="289.75" y2="553" stroke="#7B61FF" stroke-width="1.5" stroke-linecap="round" stroke-linejoin="round"/>
<path d="M290.25 539C290.25 538.172 289.578 537.5 288.75 537.5C287.922 537.5 287.25 538.172 287.25 539C287.25 539.828 287.922 540.5 288.75 540.5C289.578 540.5 290.25 539.828 290.25 539Z" stroke="#7B61FF" stroke-width="3" stroke-linecap="round" stroke-linejoin="round"/>
<path d="M1234 547L1234 543C1234 540.791 1232.21 539 1230 539V539" stroke="#7B61FF" stroke-width="1.5" stroke-linecap="round" stroke-linejoin="round" stroke-dasharray="2 4"/>
<path d="M1226 547L1226 543C1226 540.791 1227.79 539 1230 539V539" stroke="#7B61FF" stroke-width="1.5" stroke-linecap="round" stroke-linejoin="round" stroke-dasharray="2 4"/>
<path d="M1226 547V547C1226 551.418 1222.42 555 1218 555V555" stroke="#7B61FF" stroke-width="1.5" stroke-linecap="round" stroke-linejoin="round" stroke-dasharray="2 4"/>
<path d="M1230 545L1233.65 548.646C1233.84 548.842 1234.16 548.842 1234.35 548.646L1238 545" stroke="#7B61FF" stroke-width="1.5" stroke-linecap="round" stroke-linejoin="round"/>
<line x1="1234" y1="546.75" x2="1232" y2="547.25" stroke="#7B61FF" stroke-width="1.5" stroke-linecap="round" stroke-linejoin="round"/>
<path d="M1219.5 555C1219.5 555.828 1218.83 556.5 1218 556.5C1217.17 556.5 1216.5 555.828 1216.5 555C1216.5 554.172 1217.17 553.5 1218 553.5C1218.83 553.5 1219.5 554.172 1219.5 555Z" stroke="#7B61FF" stroke-width="3" stroke-linecap="round" stroke-linejoin="round"/>
<path d="M1110 547V547C1110 551.418 1106.42 555 1102 555V555" stroke="#7B61FF" stroke-width="1.5" stroke-linecap="round" stroke-linejoin="round" stroke-dasharray="2 4"/>
<path d="M1110 547V547C1110 542.582 1113.58 539 1118 539V539" stroke="#7B61FF" stroke-width="1.5" stroke-linecap="round" stroke-linejoin="round" stroke-dasharray="2 4"/>
<path d="M1116 543L1119.65 539.354C1119.84 539.158 1119.84 538.842 1119.65 538.646L1116 535" stroke="#7B61FF" stroke-width="1.5" stroke-linecap="round" stroke-linejoin="round"/>
<line x1="1117.75" y1="539" x2="1118.25" y2="541" stroke="#7B61FF" stroke-width="1.5" stroke-linecap="round" stroke-linejoin="round"/>
<path d="M1103.5 555C1103.5 555.828 1102.83 556.5 1102 556.5C1101.17 556.5 1100.5 555.828 1100.5 555C1100.5 554.172 1101.17 553.5 1102 553.5C1102.83 553.5 1103.5 554.172 1103.5 555Z" stroke="#7B61FF" stroke-width="3" stroke-linecap="round" stroke-linejoin="round"/>
<path d="M1002 547V547C1002 551.418 998.418 555 994 555L986 555" stroke="#7B61FF" stroke-width="1.5" stroke-linecap="round" stroke-linejoin="round" stroke-dasharray="2 4"/>
<path d="M1002 547V547C1002 542.582 998.418 539 994 539V539" stroke="#7B61FF" stroke-width="1.5" stroke-linecap="round" stroke-linejoin="round" stroke-dasharray="2 4"/>
<path d="M996 543L992.354 539.354C992.158 539.158 992.158 538.842 992.354 538.646L996 535" stroke="#7B61FF" stroke-width="1.5" stroke-linecap="round" stroke-linejoin="round"/>
<line x1="0.75" y1="-0.75" x2="1.25" y2="1.25" transform="matrix(-1 0 0 1 995 539.75)" stroke="#7B61FF" stroke-width="1.5" stroke-linecap="round" stroke-linejoin="round"/>
<path d="M987.5 555C987.5 555.828 986.828 556.5 986 556.5C985.172 556.5 984.5 555.828 984.5 555C984.5 554.172 985.172 553.5 986 553.5C986.828 553.5 987.5 554.172 987.5 555Z" stroke="#7B61FF" stroke-width="3" stroke-linecap="round" stroke-linejoin="round"/>
<path d="M886 547V547C886 551.418 882.418 555 878 555L870 555" stroke="#7B61FF" stroke-width="1.5" stroke-linecap="round" stroke-linejoin="round" stroke-dasharray="2 4"/>
<path d="M886 547V547C886 542.582 882.418 539 878 539L870 539" stroke="#7B61FF" stroke-width="1.5" stroke-linecap="round" stroke-linejoin="round" stroke-dasharray="2 4"/>
<path d="M872 543L868.354 539.354C868.158 539.158 868.158 538.842 868.354 538.646L872 535" stroke="#7B61FF" stroke-width="1.5" stroke-linecap="round" stroke-linejoin="round"/>
<line x1="0.75" y1="-0.75" x2="1.25" y2="1.25" transform="matrix(-1 0 0 1 871 539.75)" stroke="#7B61FF" stroke-width="1.5" stroke-linecap="round" stroke-linejoin="round"/>
<path d="M870.25 555C870.25 555.828 869.578 556.5 868.75 556.5C867.922 556.5 867.25 555.828 867.25 555C867.25 554.172 867.922 553.5 868.75 553.5C869.578 553.5 870.25 554.172 870.25 555Z" stroke="#7B61FF" stroke-width="3" stroke-linecap="round" stroke-linejoin="round"/>
<path d="M770 539L770 547C770 551.418 766.418 555 762 555L754 555" stroke="#7B61FF" stroke-width="1.5" stroke-linecap="round" stroke-linejoin="round" stroke-dasharray="2 4"/>
<path d="M774 541L770.354 537.354C770.158 537.158 769.842 537.158 769.646 537.354L766 541" stroke="#7B61FF" stroke-width="1.5" stroke-linecap="round" stroke-linejoin="round"/>
<line x1="770" y1="539.25" x2="772" y2="538.75" stroke="#7B61FF" stroke-width="1.5" stroke-linecap="round" stroke-linejoin="round"/>
<path d="M755.5 555.25C755.5 556.078 754.828 556.75 754 556.75C753.172 556.75 752.5 556.078 752.5 555.25C752.5 554.422 753.172 553.75 754 553.75C754.828 553.75 755.5 554.422 755.5 555.25Z" stroke="#7B61FF" stroke-width="3" stroke-linecap="round" stroke-linejoin="round"/>
<path d="M190 555L190 547C190 542.582 186.418 539 182 539L174 539" stroke="#7B61FF" stroke-width="1.5" stroke-linecap="round" stroke-linejoin="round" stroke-dasharray="2 4"/>
<path d="M194 553L190.354 556.646C190.158 556.842 189.842 556.842 189.646 556.646L186 553" stroke="#7B61FF" stroke-width="1.5" stroke-linecap="round" stroke-linejoin="round"/>
<line x1="0.75" y1="-0.75" x2="1.25" y2="1.25" transform="matrix(0 1 1 0 190.75 554)" stroke="#7B61FF" stroke-width="1.5" stroke-linecap="round" stroke-linejoin="round"/>
<path d="M175.5 538.75C175.5 537.922 174.828 537.25 174 537.25C173.172 537.25 172.5 537.922 172.5 538.75C172.5 539.578 173.172 540.25 174 540.25C174.828 540.25 175.5 539.578 175.5 538.75Z" stroke="#7B61FF" stroke-width="3" stroke-linecap="round" stroke-linejoin="round"/>
<line x1="58.75" y1="547" x2="73.25" y2="547.938" stroke="#7B61FF" stroke-width="1.5" stroke-linecap="round" stroke-linejoin="round" stroke-dasharray="2 4"/>
<path d="M72 551L75.6464 547.354C75.8417 547.158 75.8417 546.842 75.6464 546.646L72 543" stroke="#7B61FF" stroke-width="1.5" stroke-linecap="round" stroke-linejoin="round"/>
<line x1="73.75" y1="547" x2="74.25" y2="549" stroke="#7B61FF" stroke-width="1.5" stroke-linecap="round" stroke-linejoin="round"/>
<path d="M59.5 547C59.5 547.828 58.8284 548.5 58 548.5C57.1716 548.5 56.5 547.828 56.5 547C56.5 546.172 57.1716 545.5 58 545.5C58.8284 545.5 59.5 546.172 59.5 547Z" stroke="#7B61FF" stroke-width="3" stroke-linecap="round" stroke-linejoin="round"/>
</svg>
