<?xml version="1.0" encoding="UTF-8"?>
<svg width="137px" height="30px" viewBox="0 0 137 30" version="1.1" xmlns="http://www.w3.org/2000/svg" xmlns:xlink="http://www.w3.org/1999/xlink">
    <!-- Generator: Sketch 48.2 (47327) - http://www.bohemiancoding.com/sketch -->
    <title>logo-microsoft</title>
    <desc>Created with Sketch.</desc>
    <defs>
        <polygon id="path-1" points="15.5780011 0.0417218767 15.5780011 19.1807723 0.0588272597 19.1807723 0.0588272597 0.0417218767 15.5780011 0.0417218767"></polygon>
        <polygon id="path-3" points="13.4857779 13.5259146 0 13.5259146 0 6.78278858 0 0.0396625173 13.4857779 0.0396625173 13.4857779 13.5259146"></polygon>
        <polygon id="path-5" points="13.5258984 13.5259146 0.0404805517 13.5259146 0.0404805517 0.0402797369 13.5258984 0.0402797369 13.5258984 13.5259146"></polygon>
    </defs>
    <g id="Desktop-HD-Copy-17" stroke="none" stroke-width="1" fill="none" fill-rule="evenodd" transform="translate(-1094.000000, -4880.000000)">
        <g id="logos---color" transform="translate(222.000000, 4880.000000)">
            <g id="logo-microsoft" transform="translate(872.000000, 0.000000)">
                <path d="M0,0 L13.5259146,0 C13.5251023,4.50863821 13.5259146,9.01727642 13.5251023,13.5259146 L0,13.5259146 L0,0 Z" id="Fill-1" fill="#F25022"></path>
                <path d="M15.6617885,0 L29.1872969,0 C29.1872969,4.50863821 29.1881093,9.01727642 29.1864846,13.5259146 C24.6787941,13.525021 20.1702913,13.5259146 15.6626008,13.5259146 C15.6609761,9.01727642 15.6617885,4.50863821 15.6617885,0" id="Fill-3" fill="#80BA01"></path>
                <g id="Group-7" transform="translate(121.021341, 4.271341)">
                    <mask id="mask-2" fill="white">
                        <use xlink:href="#path-1"></use>
                    </mask>
                    <g id="Clip-6"></g>
                    <path d="M12.5822329,8.73772445 C12.5864205,10.1425315 12.5830704,11.5473386 12.583908,12.9528978 C12.5998208,13.7310155 12.5420321,14.5131445 12.6332378,15.2887551 C12.6885977,15.745798 12.8552638,16.2523141 13.2849105,16.4888164 C14.0042546,16.8907868 14.9172329,16.7152903 15.5780346,16.2740422 L15.5780346,18.7418561 C14.7161449,19.1154128 13.7529992,19.2290676 12.8209255,19.1630476 C11.9365066,19.0978632 11.020262,18.7769554 10.4432121,18.0748862 C9.77654785,17.2818095 9.60485667,16.2080221 9.59145638,15.203514 C9.58391872,13.0473316 9.5922939,10.8913162 9.58810631,8.73438166 C8.1165873,8.73354596 6.64498454,8.7326267 5.1743868,8.73521736 C5.17262801,12.1189555 5.17354928,15.5026936 5.17354928,18.8863482 L2.15756345,18.8863482 C2.15756345,15.5035293 2.15337586,12.121379 2.15932224,8.73856015 C1.45999476,8.72518899 0.75982977,8.74190294 0.0604185438,8.72769608 C0.0630148494,7.92459103 0.0663649211,7.12056671 0.0588272597,6.31662597 C0.754720911,6.30083129 1.45161958,6.30751687 2.14927202,6.31244748 C2.20036062,5.24450997 2.03704462,4.1455681 2.35689272,3.10512503 C2.62749476,2.16571776 3.22874889,1.31840433 4.05797539,0.788572275 C5.34348167,-0.0462892703 7.00427973,-0.124009114 8.45326951,0.273782774 C8.46583228,1.13287954 8.45494455,1.992812 8.45913214,2.85274447 C7.7706924,2.55022206 6.96081255,2.35299751 6.23627579,2.64958647 C5.66182224,2.87697969 5.32011492,3.46531054 5.2305005,4.0536414 C5.12246069,4.79991904 5.1928122,5.55622505 5.1743868,6.30668117 C6.64498454,6.31002396 8.11574978,6.30751687 9.58634753,6.30835256 C9.59723526,5.35557414 9.57470603,4.40212715 9.59899405,3.4494323 C10.5989067,3.16521166 11.5880991,2.84689458 12.5830704,2.54771497 C12.5913619,3.80293223 12.5713452,5.05890162 12.5939582,6.31503814 C13.588092,6.30083129 14.5830633,6.31169535 15.5780346,6.30835256 L15.5780346,8.7519313 C14.5797132,8.71098214 13.5805543,8.74106724 12.5822329,8.73772445" id="Fill-5" fill="#777777" mask="url(#mask-2)"></path>
                </g>
                <path d="M60.590729,5.71714189 C61.1881099,5.622149 61.8348611,5.83620656 62.2307288,6.32626981 C62.6947276,6.86283731 62.7803028,7.71708314 62.4364385,8.34424331 C62.056287,9.051729 61.2054718,9.38053729 60.4640118,9.21048189 C59.6946576,9.06561988 59.0536663,8.31577133 59.0882255,7.4798166 C59.0660911,6.59968715 59.7678903,5.81549966 60.590729,5.71714189" id="Fill-8" fill="#777777"></path>
                <path d="M37.7311594,5.69686398 L42.1596628,5.69686398 C43.5380208,9.20379077 44.9265262,12.7072437 46.3065754,16.2142552 C46.6591982,17.091114 46.9889048,17.978225 47.3585246,18.8484749 C49.1317864,14.4662992 50.9304166,10.0950535 52.6901485,5.70694671 C54.1099418,5.68415465 55.5305806,5.70194771 56.9512195,5.69855856 C56.947837,11.6287302 56.9495283,17.5589019 56.9503739,23.4889889 C55.9254844,23.4865318 54.9014406,23.4975465 53.8773967,23.4831426 C53.8883897,19.1068979 53.8765511,14.7305684 53.8824704,10.3535612 C53.8841616,10.1569903 53.8773967,9.96033461 53.8638668,9.76384842 C53.8038279,9.85527084 53.7505539,9.95016715 53.7040449,10.0484526 C51.9443131,14.5280665 50.1507565,18.9949711 48.4011721,23.4788214 C47.672249,23.5051721 46.9424804,23.4806007 46.2127117,23.492378 C44.397169,19.0127641 42.6044581,14.5230675 40.7982172,10.0400644 C40.7508626,9.94677799 40.7001255,9.85620286 40.6451603,9.76893215 C40.6079531,11.6862611 40.639241,13.6054541 40.6290935,15.5228678 C40.6299392,18.1782698 40.6274023,20.833587 40.6299392,23.4889889 C39.6633974,23.4916155 38.6968556,23.4889889 37.7311594,23.4899209 C37.7303137,17.5589019 37.7294681,11.627883 37.7311594,5.69686398" id="Fill-10" fill="#777777"></path>
                <path d="M69.3663313,10.9885186 C70.8334214,10.5642494 72.4153127,10.5813916 73.8814743,11.0022324 C74.1836712,11.0879433 74.4766672,11.2070815 74.7484756,11.3690752 C74.7315931,12.3521798 74.7484756,13.3361415 74.7391058,14.3201032 C73.7591605,13.5598471 72.5157636,13.0781515 71.2698343,13.2375739 C70.2805192,13.3284275 69.3367025,13.8495501 68.7450549,14.6612327 C67.9844978,15.6674793 67.8089197,17.003713 67.9397592,18.2345222 C68.0376777,19.1979132 68.4301117,20.1604472 69.1678774,20.7989938 C69.9343434,21.4906811 71.0089996,21.7358144 72.0118207,21.6586746 C73.002824,21.5429648 73.9380307,21.1169814 74.7391058,20.5220617 C74.7476315,21.4538254 74.7349696,22.3855034 74.7458588,23.3171814 C73.5033905,24.0680093 72.0134245,24.2617161 70.5911574,24.190576 C69.135885,24.112579 67.6848333,23.5528865 66.6313646,22.5140698 C65.4867304,21.3938277 64.865454,19.7961757 64.7920151,18.1959523 C64.717732,16.5323027 65.0511616,14.796656 65.9940498,13.4072816 C66.7840669,12.2218991 68.0199511,11.382789 69.3663313,10.9885186" id="Fill-12" fill="#777777"></path>
                <path d="M93.3174407,19.9310337 C93.0327212,20.5942293 92.5111356,21.1546038 91.8529442,21.4202248 C91.0829845,21.7261174 90.2178148,21.744111 89.4229349,21.5307574 C88.6140632,21.3106347 87.9277228,20.7056187 87.5544165,19.9354035 C87.0742266,18.9431807 87.0021981,17.7957837 87.1015478,16.7075946 C87.1917903,15.7179422 87.5245288,14.7000141 88.2530929,14.0171111 C88.7813018,13.506519 89.5015867,13.2570924 90.2145031,13.215964 C91.1103057,13.1551282 92.0639794,13.4173218 92.7081791,14.091742 C93.3969204,14.792553 93.6635914,15.8096243 93.7371929,16.779655 C93.7901794,17.8411963 93.7479558,18.9474649 93.3174407,19.9310337 M96.1969244,14.0119701 C95.6794784,12.8210456 94.7455918,11.8261665 93.593136,11.2880698 C92.2651625,10.6625752 90.7559586,10.5786904 89.3252411,10.7671956 C87.8225778,10.9633267 86.3596543,11.6950697 85.4058978,12.9350055 C84.5350154,14.0420452 84.1110408,15.464317 84.0299053,16.8755356 C83.9098578,18.5386656 84.1781018,20.3038455 85.1220062,21.6919294 C85.9259104,22.8897086 87.1950192,23.7132193 88.5660442,24.0165413 C89.7118767,24.2657966 90.9107785,24.2667392 92.056611,24.0199687 C93.3969204,23.7346404 94.6487259,22.9669101 95.4791233,21.8340794 C96.2904787,20.767397 96.6978122,19.4221553 96.7897106,18.0794841 C96.8832649,16.7041672 96.7491428,15.2801817 96.1969244,14.0119701" id="Fill-14" fill="#777777"></path>
                <path d="M101.855714,10.7897438 C103.273793,10.5385761 104.758304,10.7228801 106.100581,11.234645 C106.102284,12.1810244 106.100581,13.1265465 106.101432,14.0720687 C105.163712,13.4231473 104.018177,13.0742556 102.880308,13.1145453 C102.307115,13.1368333 101.676858,13.3811432 101.415386,13.9297689 C101.207572,14.472394 101.351509,15.183893 101.859973,15.5087823 C102.729557,16.0942688 103.766926,16.3428649 104.668024,16.8674882 C105.377489,17.2686708 106.065661,17.7932941 106.425078,18.5493689 C107.100475,19.9655091 106.814304,21.8368372 105.627036,22.8929417 C104.493425,23.9593329 102.860719,24.2542193 101.359174,24.1976422 C100.292847,24.1282068 99.2214101,23.9164716 98.2411049,23.477571 C98.2453634,22.4823296 98.235143,21.4879455 98.2462151,20.4935614 C99.0706595,21.0961924 100.022007,21.527378 101.028715,21.7022524 C101.729663,21.8171209 102.491933,21.8222643 103.145186,21.5068045 C103.770333,21.1939164 103.882757,20.2998279 103.511417,19.7529166 C103.163924,19.3311606 102.653756,19.0988519 102.172546,18.8708293 C101.268894,18.4619317 100.31925,18.1198979 99.5254666,17.5069801 C98.9676039,17.0689367 98.5451613,16.4517328 98.3799318,15.7556639 C98.1346425,14.7295623 98.2112954,13.5731622 98.8040777,12.676502 C99.4811782,11.6315414 100.657374,11.004908 101.855714,10.7897438" id="Fill-16" fill="#777777"></path>
                <path d="M117.864004,18.7568352 C117.749662,19.4355086 117.522636,20.1124682 117.092528,20.6497514 C116.659272,21.1896909 116.014649,21.518659 115.349312,21.6197745 C114.63509,21.730316 113.882753,21.6771875 113.214931,21.3798395 C112.493997,21.0645819 111.935627,20.4192423 111.641487,19.6771575 C111.28769,18.7928255 111.217262,17.8133763 111.28769,16.8673467 C111.355633,15.9513946 111.606688,15.0112777 112.191654,14.2991848 C112.725249,13.6343076 113.543788,13.2666928 114.36912,13.2186201 C115.21177,13.1577794 116.111591,13.3592392 116.759528,13.9478513 C117.356923,14.460284 117.68752,15.2280762 117.839147,16.0010098 C118.009832,16.9076215 118.008174,17.8459389 117.864004,18.7568352 M120.555181,14.3848758 C120.096073,13.104651 119.177278,11.9975221 117.992432,11.3849165 C116.633586,10.6753086 115.052686,10.5716224 113.563756,10.7627135 C112.363084,10.9220989 111.183291,11.3933999 110.266899,12.2254604 C109.148338,13.2220478 108.492115,14.6874511 108.299059,16.1861025 C108.115118,17.6848397 108.17726,19.2632696 108.768027,20.6660327 C109.334765,22.0422316 110.453326,23.1596434 111.798914,23.7072951 C113.127103,24.2479202 114.603604,24.3087609 116.001392,24.0749099 C117.430665,23.8306046 118.784456,23.0534721 119.669446,21.8572245 C120.614837,20.621559 121.021579,19.0225633 121.019177,17.4646136 C121.039891,16.421753 120.913949,15.364325 120.555181,14.3848758" id="Fill-18" fill="#777777"></path>
                <path d="M81.2855374,11.1067935 C82.0937736,10.6077765 83.1207378,10.5659898 84.0030488,10.8711164 C83.9989019,11.8747499 84.0030488,12.8785506 84.0006094,13.8822676 C83.4232165,13.4977462 82.702878,13.3331901 82.0214877,13.4042275 C81.190403,13.5010891 80.5317799,14.1572243 80.1902716,14.9093853 C79.8195725,15.7057566 79.7495633,16.6067619 79.7731437,17.4775136 C79.7731437,19.4825242 79.7739568,21.4874511 79.7731437,23.492378 L76.8865857,23.492378 C76.8841463,19.3020055 76.8898381,15.1107973 76.8841463,10.9204247 C77.8477688,10.9078887 78.8112287,10.9129031 79.7747699,10.9179175 C79.7707043,11.6374849 79.7747699,12.3570523 79.7724118,13.0774554 C80.0853798,12.2943722 80.5513759,11.5337703 81.2855374,11.1067935" id="Fill-20" fill="#777777"></path>
                <path d="M59.7987805,10.6848987 C60.7477026,10.6805575 61.6974989,10.6703428 62.6463415,10.690006 C62.6352151,14.9570945 62.6455467,19.2251193 62.6416525,23.492378 L59.8004494,23.492378 C59.7979857,19.223502 59.8011647,14.9545408 59.7987805,10.6848987" id="Fill-22" fill="#777777"></path>
                <g id="Group-26" transform="translate(0.000000, 15.661585)">
                    <mask id="mask-4" fill="white">
                        <use xlink:href="#path-3"></use>
                    </mask>
                    <g id="Clip-25"></g>
                    <path d="M0,0.0396625173 C4.49513929,0.0413633809 8.99027859,0.0388525823 13.4854179,0.0413633809 C13.4862278,4.53650268 13.4854179,9.03083204 13.4854179,13.5259713 L0,13.5259713 L0,0.0396625173 Z" id="Fill-24" fill="#02A4EF" mask="url(#mask-4)"></path>
                </g>
                <g id="Group-29" transform="translate(15.661585, 15.661585)">
                    <mask id="mask-6" fill="white">
                        <use xlink:href="#path-5"></use>
                    </mask>
                    <g id="Clip-28"></g>
                    <path d="M0.0412904867,0.0413228841 C4.53561985,0.0396220206 9.03075914,0.0405129491 13.5258984,0.0405129491 L13.5258984,13.5259308 L0.0404805517,13.5259308 C0.0412904867,9.03079154 0.0396706167,4.53565224 0.0412904867,0.0413228841" id="Fill-27" fill="#FFB902" mask="url(#mask-6)"></path>
                </g>
            </g>
        </g>
    </g>
</svg>