<svg id="Logos" xmlns="http://www.w3.org/2000/svg" viewBox="0 0 216 50"><defs><style>.cls-1{fill:#19191e;}.cls-2{fill:#0030ff;}</style></defs><title>logo-sapientrazorfish</title><path class="cls-1" d="M0,15.43,1.88,13.2a8.19,8.19,0,0,0,5.61,2.31c1.92,0,3.14-.89,3.14-2.24v0c0-1.27-.71-2-4-2.71C2.84,9.59.71,8.48.71,5.2v0C.71,2.11,3.25,0,6.78,0a9.88,9.88,0,0,1,6.44,2.23L11.55,4.59A8.09,8.09,0,0,0,6.72,2.77c-1.82,0-2.89.94-2.89,2.1v0c0,1.37.81,2,4.22,2.8,3.75.91,5.71,2.25,5.71,5.2V13c0,3.32-2.62,5.3-6.35,5.3A11,11,0,0,1,0,15.43"/><path class="cls-1" d="M28.76.13h2.9L39.47,18h-3.3l-1.8-4.29H26L24.14,18H21ZM33.23,11l-3.07-7.1L27.11,11Z"/><path class="cls-1" d="M46.66.25h7c4.14,0,6.75,2.36,6.75,5.94v0c0,4-3.2,6.07-7.11,6.07H49.78V18H46.66Zm6.75,9.24c2.36,0,3.83-1.32,3.83-3.17V6.27c0-2.08-1.5-3.17-3.83-3.17H49.78V9.49Z"/><rect class="cls-1" x="69.28" y="0.25" width="3.12" height="17.76"/><polygon class="cls-1" points="82.39 0.25 95.57 0.25 95.57 3.05 85.52 3.05 85.52 7.66 94.42 7.66 94.42 10.46 85.52 10.46 85.52 15.23 95.69 15.23 95.69 18.02 82.39 18.02 82.39 0.25"/><polygon class="cls-1" points="105.21 0.25 108.1 0.25 117.62 12.54 117.62 0.25 120.69 0.25 120.69 18.02 118.07 18.02 108.28 5.38 108.28 18.02 105.21 18.02 105.21 0.25"/><polygon class="cls-1" points="134.92 3.15 129.29 3.15 129.29 0.25 143.7 0.25 143.7 3.15 138.07 3.15 138.07 18.02 134.92 18.02 134.92 3.15"/><path class="cls-1" d="M.18,29H8.1a7.17,7.17,0,0,1,5.12,1.77,5.39,5.39,0,0,1,1.47,3.84v0a5.33,5.33,0,0,1-4.23,5.38l4.79,6.72H11.57L7.21,40.59H3.3v6.19H.18Zm7.69,8.8c2.23,0,3.65-1.16,3.65-3V34.8c0-1.9-1.37-2.94-3.68-2.94H3.3v6Z"/><path class="cls-1" d="M28.71,28.89H31.6l7.82,17.89h-3.3l-1.8-4.29h-8.4l-1.83,4.29H20.9Zm4.47,10.84-3.07-7.11-3.05,7.11Z"/><polygon class="cls-1" points="46.66 44.47 57.14 31.78 46.98 31.78 46.98 29.02 61.2 29.02 61.2 31.33 50.72 44.02 61.2 44.02 61.2 46.78 46.66 46.78 46.66 44.47"/><path class="cls-1" d="M68.63,38V37.9a9.29,9.29,0,0,1,18.57,0v0A9.29,9.29,0,0,1,68.63,38m15.3,0V37.9a6.09,6.09,0,0,0-6-6.32,6,6,0,0,0-6,6.27v0a6.09,6.09,0,0,0,6,6.32,6,6,0,0,0,6-6.27"/><path class="cls-1" d="M95,29h7.92A7.21,7.21,0,0,1,108,30.79a5.43,5.43,0,0,1,1.47,3.84v0a5.33,5.33,0,0,1-4.24,5.38l4.8,6.72h-3.68L102,40.59H98.08v6.19H95Zm7.69,8.8c2.23,0,3.65-1.16,3.65-3V34.8c0-1.9-1.37-2.94-3.68-2.94H98.08v6Z"/><polygon class="cls-1" points="119.4 29.02 132.62 29.02 132.62 31.86 122.52 31.86 122.52 36.71 131.48 36.71 131.48 39.55 122.52 39.55 122.52 46.78 119.4 46.78 119.4 29.02"/><rect class="cls-1" x="141.9" y="29.02" width="3.12" height="17.76"/><path class="cls-1" d="M153.81,44.19,155.69,42a8.19,8.19,0,0,0,5.61,2.31c1.93,0,3.15-.89,3.15-2.23v0c0-1.27-.71-2-4-2.72-3.78-.91-5.92-2-5.92-5.3v0c0-3.05,2.54-5.16,6.07-5.16A9.86,9.86,0,0,1,167,31l-1.68,2.36a8,8,0,0,0-4.82-1.83c-1.83,0-2.89.94-2.89,2.11v0c0,1.37.81,2,4.21,2.79,3.76.91,5.71,2.26,5.71,5.2v0c0,3.33-2.61,5.31-6.35,5.31a10.94,10.94,0,0,1-7.41-2.85"/><polygon class="cls-1" points="176.49 29.02 179.62 29.02 179.62 36.4 188.09 36.4 188.09 29.02 191.21 29.02 191.21 46.78 188.09 46.78 188.09 39.3 179.62 39.3 179.62 46.78 176.49 46.78 176.49 29.02"/><rect class="cls-2" x="200.49" y="46.78" width="15.51" height="3.1"/></svg>