<?xml version="1.0" encoding="UTF-8"?>
<svg width="93px" height="66px" viewBox="0 0 93 66" version="1.1" xmlns="http://www.w3.org/2000/svg" xmlns:xlink="http://www.w3.org/1999/xlink">
    <!-- Generator: Sketch 48.2 (47327) - http://www.bohemiancoding.com/sketch -->
    <title>logo-salesforce</title>
    <desc>Created with Sketch.</desc>
    <defs></defs>
    <g id="Desktop-HD-Copy-17" stroke="none" stroke-width="1" fill="none" fill-rule="evenodd" transform="translate(-232.000000, -5008.000000)">
        <g id="logos---color" transform="translate(222.000000, 4880.000000)" fill="#139CD8" fill-rule="nonzero">
            <g id="logo-salesforce" transform="translate(10.000000, 128.000000)">
                <path d="M81.9285714,29.8928571 L77.5,29.8928571 C77.5962733,29.3560606 77.7406832,28.8863636 78.0054348,28.5284993 C78.390528,27.9917027 78.9681677,27.6785714 79.7864907,27.6785714 C80.6048137,27.6785714 81.1343168,27.9693362 81.5194099,28.5284993 C81.7841615,28.8863636 81.9045031,29.3560606 81.9285714,29.8928571 Z" id="Shape"></path>
                <path d="M59.98981,28.4944024 C59.6559537,27.9919302 59.1551692,27.7406941 58.4457245,27.7406941 C57.7362797,27.7406941 57.2354952,27.9919302 56.9016389,28.4944024 C56.5677826,28.9968746 56.4008544,29.7296466 56.4008544,30.6508457 C56.4008544,31.5720447 56.5677826,32.3048167 56.9016389,32.8282253 C57.2354952,33.3306975 57.7362797,33.5819336 58.4457245,33.5819336 C59.1551692,33.5819336 59.6559537,33.3306975 59.98981,32.8282253 C60.3236663,32.3048167 60.5114605,31.5720447 60.5114605,30.6508457 C60.4905945,29.7296466 60.3236663,28.9968746 59.98981,28.4944024 Z M59.98981,28.4944024 C59.6559537,27.9919302 59.1551692,27.7406941 58.4457245,27.7406941 C57.7362797,27.7406941 57.2354952,27.9919302 56.9016389,28.4944024 C56.5677826,28.9968746 56.4008544,29.7296466 56.4008544,30.6508457 C56.4008544,31.5720447 56.5677826,32.3048167 56.9016389,32.8282253 C57.2354952,33.3306975 57.7362797,33.5819336 58.4457245,33.5819336 C59.1551692,33.5819336 59.6559537,33.3306975 59.98981,32.8282253 C60.3236663,32.3048167 60.5114605,31.5720447 60.5114605,30.6508457 C60.4905945,29.7296466 60.3236663,28.9968746 59.98981,28.4944024 Z M38.2474163,28.4944024 C37.9135599,27.9919302 37.4336414,27.6988214 36.7450627,27.6988214 C36.035618,27.6988214 35.5348335,27.9709938 35.2009772,28.4944024 C34.992317,28.8293839 34.8462549,29.2481107 34.7627908,29.7715193 L38.6021386,29.7715193 C38.5812726,29.2690471 38.4769425,28.8293839 38.2474163,28.4944024 Z M59.98981,28.4944024 C59.6559537,27.9919302 59.1551692,27.7406941 58.4457245,27.7406941 C57.7362797,27.7406941 57.2354952,27.9919302 56.9016389,28.4944024 C56.5677826,28.9968746 56.4008544,29.7296466 56.4008544,30.6508457 C56.4008544,31.5720447 56.5677826,32.3048167 56.9016389,32.8282253 C57.2354952,33.3306975 57.7362797,33.5819336 58.4457245,33.5819336 C59.1551692,33.5819336 59.6559537,33.3306975 59.98981,32.8282253 C60.3236663,32.3048167 60.5114605,31.5720447 60.5114605,30.6508457 C60.4905945,29.7296466 60.3236663,28.9968746 59.98981,28.4944024 Z M59.98981,28.4944024 C59.6559537,27.9919302 59.1551692,27.7406941 58.4457245,27.7406941 C57.7362797,27.7406941 57.2354952,27.9919302 56.9016389,28.4944024 C56.5677826,28.9968746 56.4008544,29.7296466 56.4008544,30.6508457 C56.4008544,31.5720447 56.5677826,32.3048167 56.9016389,32.8282253 C57.2354952,33.3306975 57.7362797,33.5819336 58.4457245,33.5819336 C59.1551692,33.5819336 59.6559537,33.3306975 59.98981,32.8282253 C60.3236663,32.3048167 60.5114605,31.5720447 60.5114605,30.6508457 C60.4905945,29.7296466 60.3236663,28.9968746 59.98981,28.4944024 Z M38.2474163,28.4944024 C37.9135599,27.9919302 37.4336414,27.6988214 36.7450627,27.6988214 C36.035618,27.6988214 35.5348335,27.9709938 35.2009772,28.4944024 C34.992317,28.8293839 34.8462549,29.2481107 34.7627908,29.7715193 L38.6021386,29.7715193 C38.5812726,29.2690471 38.4769425,28.8293839 38.2474163,28.4944024 Z M24.6845027,30.8392727 C23.5786036,30.8183364 23.1195511,31.2370632 23.1195511,31.2370632 C22.8065608,31.467363 22.6396326,31.8023445 22.6396326,32.2838804 C22.6396326,32.5769892 22.7022307,32.8282253 22.8065608,32.995716 C22.8691589,33.1003977 22.9108909,33.1422704 23.1195511,33.3097611 C23.1195511,33.3097611 23.5994696,33.6866153 24.7053687,33.6238063 C25.4774115,33.5819336 26.1659902,33.4353792 26.1659902,33.4353792 L26.1659902,30.9648908 C26.1451241,30.9648908 25.4565455,30.8602091 24.6845027,30.8392727 Z M38.2474163,28.4944024 C37.9135599,27.9919302 37.4336414,27.6988214 36.7450627,27.6988214 C36.035618,27.6988214 35.5348335,27.9709938 35.2009772,28.4944024 C34.992317,28.8293839 34.8462549,29.2481107 34.7627908,29.7715193 L38.6021386,29.7715193 C38.5812726,29.2690471 38.4769425,28.8293839 38.2474163,28.4944024 Z M59.98981,28.4944024 C59.6559537,27.9919302 59.1551692,27.7406941 58.4457245,27.7406941 C57.7362797,27.7406941 57.2354952,27.9919302 56.9016389,28.4944024 C56.5677826,28.9968746 56.4008544,29.7296466 56.4008544,30.6508457 C56.4008544,31.5720447 56.5677826,32.3048167 56.9016389,32.8282253 C57.2354952,33.3306975 57.7362797,33.5819336 58.4457245,33.5819336 C59.1551692,33.5819336 59.6559537,33.3306975 59.98981,32.8282253 C60.3236663,32.3048167 60.5114605,31.5720447 60.5114605,30.6508457 C60.4905945,29.7296466 60.3236663,28.9968746 59.98981,28.4944024 Z M59.98981,28.4944024 C59.6559537,27.9919302 59.1551692,27.7406941 58.4457245,27.7406941 C57.7362797,27.7406941 57.2354952,27.9919302 56.9016389,28.4944024 C56.5677826,28.9968746 56.4008544,29.7296466 56.4008544,30.6508457 C56.4008544,31.5720447 56.5677826,32.3048167 56.9016389,32.8282253 C57.2354952,33.3306975 57.7362797,33.5819336 58.4457245,33.5819336 C59.1551692,33.5819336 59.6559537,33.3306975 59.98981,32.8282253 C60.3236663,32.3048167 60.5114605,31.5720447 60.5114605,30.6508457 C60.4905945,29.7296466 60.3236663,28.9968746 59.98981,28.4944024 Z M38.2474163,28.4944024 C37.9135599,27.9919302 37.4336414,27.6988214 36.7450627,27.6988214 C36.035618,27.6988214 35.5348335,27.9709938 35.2009772,28.4944024 C34.992317,28.8293839 34.8462549,29.2481107 34.7627908,29.7715193 L38.6021386,29.7715193 C38.5812726,29.2690471 38.4769425,28.8293839 38.2474163,28.4944024 Z M24.6845027,30.8392727 C23.5786036,30.8183364 23.1195511,31.2370632 23.1195511,31.2370632 C22.8065608,31.467363 22.6396326,31.8023445 22.6396326,32.2838804 C22.6396326,32.5769892 22.7022307,32.8282253 22.8065608,32.995716 C22.8691589,33.1003977 22.9108909,33.1422704 23.1195511,33.3097611 C23.1195511,33.3097611 23.5994696,33.6866153 24.7053687,33.6238063 C25.4774115,33.5819336 26.1659902,33.4353792 26.1659902,33.4353792 L26.1659902,30.9648908 C26.1451241,30.9648908 25.4565455,30.8602091 24.6845027,30.8392727 Z M24.6845027,30.8392727 C23.5786036,30.8183364 23.1195511,31.2370632 23.1195511,31.2370632 C22.8065608,31.467363 22.6396326,31.8023445 22.6396326,32.2838804 C22.6396326,32.5769892 22.7022307,32.8282253 22.8065608,32.995716 C22.8691589,33.1003977 22.9108909,33.1422704 23.1195511,33.3097611 C23.1195511,33.3097611 23.5994696,33.6866153 24.7053687,33.6238063 C25.4774115,33.5819336 26.1659902,33.4353792 26.1659902,33.4353792 L26.1659902,30.9648908 C26.1451241,30.9648908 25.4565455,30.8602091 24.6845027,30.8392727 Z M38.2474163,28.4944024 C37.9135599,27.9919302 37.4336414,27.6988214 36.7450627,27.6988214 C36.035618,27.6988214 35.5348335,27.9709938 35.2009772,28.4944024 C34.992317,28.8293839 34.8462549,29.2481107 34.7627908,29.7715193 L38.6021386,29.7715193 C38.5812726,29.2690471 38.4769425,28.8293839 38.2474163,28.4944024 Z M59.98981,28.4944024 C59.6559537,27.9919302 59.1551692,27.7406941 58.4457245,27.7406941 C57.7362797,27.7406941 57.2354952,27.9919302 56.9016389,28.4944024 C56.5677826,28.9968746 56.4008544,29.7296466 56.4008544,30.6508457 C56.4008544,31.5720447 56.5677826,32.3048167 56.9016389,32.8282253 C57.2354952,33.3306975 57.7362797,33.5819336 58.4457245,33.5819336 C59.1551692,33.5819336 59.6559537,33.3306975 59.98981,32.8282253 C60.3236663,32.3048167 60.5114605,31.5720447 60.5114605,30.6508457 C60.4905945,29.7296466 60.3236663,28.9968746 59.98981,28.4944024 Z M59.98981,28.4944024 C59.6559537,27.9919302 59.1551692,27.7406941 58.4457245,27.7406941 C57.7362797,27.7406941 57.2354952,27.9919302 56.9016389,28.4944024 C56.5677826,28.9968746 56.4008544,29.7296466 56.4008544,30.6508457 C56.4008544,31.5720447 56.5677826,32.3048167 56.9016389,32.8282253 C57.2354952,33.3306975 57.7362797,33.5819336 58.4457245,33.5819336 C59.1551692,33.5819336 59.6559537,33.3306975 59.98981,32.8282253 C60.3236663,32.3048167 60.5114605,31.5720447 60.5114605,30.6508457 C60.4905945,29.7296466 60.3236663,28.9968746 59.98981,28.4944024 Z M38.2474163,28.4944024 C37.9135599,27.9919302 37.4336414,27.6988214 36.7450627,27.6988214 C36.035618,27.6988214 35.5348335,27.9709938 35.2009772,28.4944024 C34.992317,28.8293839 34.8462549,29.2481107 34.7627908,29.7715193 L38.6021386,29.7715193 C38.5812726,29.2690471 38.4769425,28.8293839 38.2474163,28.4944024 Z M24.6845027,30.8392727 C23.5786036,30.8183364 23.1195511,31.2370632 23.1195511,31.2370632 C22.8065608,31.467363 22.6396326,31.8023445 22.6396326,32.2838804 C22.6396326,32.5769892 22.7022307,32.8282253 22.8065608,32.995716 C22.8691589,33.1003977 22.9108909,33.1422704 23.1195511,33.3097611 C23.1195511,33.3097611 23.5994696,33.6866153 24.7053687,33.6238063 C25.4774115,33.5819336 26.1659902,33.4353792 26.1659902,33.4353792 L26.1659902,30.9648908 C26.1451241,30.9648908 25.4565455,30.8602091 24.6845027,30.8392727 Z M24.6845027,30.8392727 C23.5786036,30.8183364 23.1195511,31.2370632 23.1195511,31.2370632 C22.8065608,31.467363 22.6396326,31.8023445 22.6396326,32.2838804 C22.6396326,32.5769892 22.7022307,32.8282253 22.8065608,32.995716 C22.8691589,33.1003977 22.9108909,33.1422704 23.1195511,33.3097611 C23.1195511,33.3097611 23.5994696,33.6866153 24.7053687,33.6238063 C25.4774115,33.5819336 26.1659902,33.4353792 26.1659902,33.4353792 L26.1659902,30.9648908 C26.1451241,30.9648908 25.4565455,30.8602091 24.6845027,30.8392727 Z M38.2474163,28.4944024 C37.9135599,27.9919302 37.4336414,27.6988214 36.7450627,27.6988214 C36.035618,27.6988214 35.5348335,27.9709938 35.2009772,28.4944024 C34.992317,28.8293839 34.8462549,29.2481107 34.7627908,29.7715193 L38.6021386,29.7715193 C38.5812726,29.2690471 38.4769425,28.8293839 38.2474163,28.4944024 Z M59.98981,28.4944024 C59.6559537,27.9919302 59.1551692,27.7406941 58.4457245,27.7406941 C57.7362797,27.7406941 57.2354952,27.9919302 56.9016389,28.4944024 C56.5677826,28.9968746 56.4008544,29.7296466 56.4008544,30.6508457 C56.4008544,31.5720447 56.5677826,32.3048167 56.9016389,32.8282253 C57.2354952,33.3306975 57.7362797,33.5819336 58.4457245,33.5819336 C59.1551692,33.5819336 59.6559537,33.3306975 59.98981,32.8282253 C60.3236663,32.3048167 60.5114605,31.5720447 60.5114605,30.6508457 C60.4905945,29.7296466 60.3236663,28.9968746 59.98981,28.4944024 Z M59.98981,28.4944024 C59.6559537,27.9919302 59.1551692,27.7406941 58.4457245,27.7406941 C57.7362797,27.7406941 57.2354952,27.9919302 56.9016389,28.4944024 C56.5677826,28.9968746 56.4008544,29.7296466 56.4008544,30.6508457 C56.4008544,31.5720447 56.5677826,32.3048167 56.9016389,32.8282253 C57.2354952,33.3306975 57.7362797,33.5819336 58.4457245,33.5819336 C59.1551692,33.5819336 59.6559537,33.3306975 59.98981,32.8282253 C60.3236663,32.3048167 60.5114605,31.5720447 60.5114605,30.6508457 C60.4905945,29.7296466 60.3236663,28.9968746 59.98981,28.4944024 Z M38.2474163,28.4944024 C37.9135599,27.9919302 37.4336414,27.6988214 36.7450627,27.6988214 C36.035618,27.6988214 35.5348335,27.9709938 35.2009772,28.4944024 C34.992317,28.8293839 34.8462549,29.2481107 34.7627908,29.7715193 L38.6021386,29.7715193 C38.5812726,29.2690471 38.4769425,28.8293839 38.2474163,28.4944024 Z M24.6845027,30.8392727 C23.5786036,30.8183364 23.1195511,31.2370632 23.1195511,31.2370632 C22.8065608,31.467363 22.6396326,31.8023445 22.6396326,32.2838804 C22.6396326,32.5769892 22.7022307,32.8282253 22.8065608,32.995716 C22.8691589,33.1003977 22.9108909,33.1422704 23.1195511,33.3097611 C23.1195511,33.3097611 23.5994696,33.6866153 24.7053687,33.6238063 C25.4774115,33.5819336 26.1659902,33.4353792 26.1659902,33.4353792 L26.1659902,30.9648908 C26.1451241,30.9648908 25.4565455,30.8602091 24.6845027,30.8392727 Z M24.6845027,30.8392727 C23.5786036,30.8183364 23.1195511,31.2370632 23.1195511,31.2370632 C22.8065608,31.467363 22.6396326,31.8023445 22.6396326,32.2838804 C22.6396326,32.5769892 22.7022307,32.8282253 22.8065608,32.995716 C22.8691589,33.1003977 22.9108909,33.1422704 23.1195511,33.3097611 C23.1195511,33.3097611 23.5994696,33.6866153 24.7053687,33.6238063 C25.4774115,33.5819336 26.1659902,33.4353792 26.1659902,33.4353792 L26.1659902,30.9648908 C26.1451241,30.9648908 25.4565455,30.8602091 24.6845027,30.8392727 Z M38.2474163,28.4944024 C37.9135599,27.9919302 37.4336414,27.6988214 36.7450627,27.6988214 C36.035618,27.6988214 35.5348335,27.9709938 35.2009772,28.4944024 C34.992317,28.8293839 34.8462549,29.2481107 34.7627908,29.7715193 L38.6021386,29.7715193 C38.5812726,29.2690471 38.4769425,28.8293839 38.2474163,28.4944024 Z M59.98981,28.4944024 C59.6559537,27.9919302 59.1551692,27.7406941 58.4457245,27.7406941 C57.7362797,27.7406941 57.2354952,27.9919302 56.9016389,28.4944024 C56.5677826,28.9968746 56.4008544,29.7296466 56.4008544,30.6508457 C56.4008544,31.5720447 56.5677826,32.3048167 56.9016389,32.8282253 C57.2354952,33.3306975 57.7362797,33.5819336 58.4457245,33.5819336 C59.1551692,33.5819336 59.6559537,33.3306975 59.98981,32.8282253 C60.3236663,32.3048167 60.5114605,31.5720447 60.5114605,30.6508457 C60.4905945,29.7296466 60.3236663,28.9968746 59.98981,28.4944024 Z M59.98981,28.4944024 C59.6559537,27.9919302 59.1551692,27.7406941 58.4457245,27.7406941 C57.7362797,27.7406941 57.2354952,27.9919302 56.9016389,28.4944024 C56.5677826,28.9968746 56.4008544,29.7296466 56.4008544,30.6508457 C56.4008544,31.5720447 56.5677826,32.3048167 56.9016389,32.8282253 C57.2354952,33.3306975 57.7362797,33.5819336 58.4457245,33.5819336 C59.1551692,33.5819336 59.6559537,33.3306975 59.98981,32.8282253 C60.3236663,32.3048167 60.5114605,31.5720447 60.5114605,30.6508457 C60.4905945,29.7296466 60.3236663,28.9968746 59.98981,28.4944024 Z M38.2474163,28.4944024 C37.9135599,27.9919302 37.4336414,27.6988214 36.7450627,27.6988214 C36.035618,27.6988214 35.5348335,27.9709938 35.2009772,28.4944024 C34.992317,28.8293839 34.8462549,29.2481107 34.7627908,29.7715193 L38.6021386,29.7715193 C38.5812726,29.2690471 38.4769425,28.8293839 38.2474163,28.4944024 Z M24.6845027,30.8392727 C23.5786036,30.8183364 23.1195511,31.2370632 23.1195511,31.2370632 C22.8065608,31.467363 22.6396326,31.8023445 22.6396326,32.2838804 C22.6396326,32.5769892 22.7022307,32.8282253 22.8065608,32.995716 C22.8691589,33.1003977 22.9108909,33.1422704 23.1195511,33.3097611 C23.1195511,33.3097611 23.5994696,33.6866153 24.7053687,33.6238063 C25.4774115,33.5819336 26.1659902,33.4353792 26.1659902,33.4353792 L26.1659902,30.9648908 C26.1451241,30.9648908 25.4565455,30.8602091 24.6845027,30.8392727 Z M24.6845027,30.8392727 C23.5786036,30.8183364 23.1195511,31.2370632 23.1195511,31.2370632 C22.8065608,31.467363 22.6396326,31.8023445 22.6396326,32.2838804 C22.6396326,32.5769892 22.7022307,32.8282253 22.8065608,32.995716 C22.8691589,33.1003977 22.9108909,33.1422704 23.1195511,33.3097611 C23.1195511,33.3097611 23.5994696,33.6866153 24.7053687,33.6238063 C25.4774115,33.5819336 26.1659902,33.4353792 26.1659902,33.4353792 L26.1659902,30.9648908 C26.1451241,30.9648908 25.4565455,30.8602091 24.6845027,30.8392727 Z M38.2474163,28.4944024 C37.9135599,27.9919302 37.4336414,27.6988214 36.7450627,27.6988214 C36.035618,27.6988214 35.5348335,27.9709938 35.2009772,28.4944024 C34.992317,28.8293839 34.8462549,29.2481107 34.7627908,29.7715193 L38.6021386,29.7715193 C38.5812726,29.2690471 38.4769425,28.8293839 38.2474163,28.4944024 Z M59.98981,28.4944024 C59.6559537,27.9919302 59.1551692,27.7406941 58.4457245,27.7406941 C57.7362797,27.7406941 57.2354952,27.9919302 56.9016389,28.4944024 C56.5677826,28.9968746 56.4008544,29.7296466 56.4008544,30.6508457 C56.4008544,31.5720447 56.5677826,32.3048167 56.9016389,32.8282253 C57.2354952,33.3306975 57.7362797,33.5819336 58.4457245,33.5819336 C59.1551692,33.5819336 59.6559537,33.3306975 59.98981,32.8282253 C60.3236663,32.3048167 60.5114605,31.5720447 60.5114605,30.6508457 C60.4905945,29.7296466 60.3236663,28.9968746 59.98981,28.4944024 Z M59.98981,28.4944024 C59.6559537,27.9919302 59.1551692,27.7406941 58.4457245,27.7406941 C57.7362797,27.7406941 57.2354952,27.9919302 56.9016389,28.4944024 C56.5677826,28.9968746 56.4008544,29.7296466 56.4008544,30.6508457 C56.4008544,31.5720447 56.5677826,32.3048167 56.9016389,32.8282253 C57.2354952,33.3306975 57.7362797,33.5819336 58.4457245,33.5819336 C59.1551692,33.5819336 59.6559537,33.3306975 59.98981,32.8282253 C60.3236663,32.3048167 60.5114605,31.5720447 60.5114605,30.6508457 C60.4905945,29.7296466 60.3236663,28.9968746 59.98981,28.4944024 Z M38.2474163,28.4944024 C37.9135599,27.9919302 37.4336414,27.6988214 36.7450627,27.6988214 C36.035618,27.6988214 35.5348335,27.9709938 35.2009772,28.4944024 C34.992317,28.8293839 34.8462549,29.2481107 34.7627908,29.7715193 L38.6021386,29.7715193 C38.5812726,29.2690471 38.4769425,28.8293839 38.2474163,28.4944024 Z M24.6845027,30.8392727 C23.5786036,30.8183364 23.1195511,31.2370632 23.1195511,31.2370632 C22.8065608,31.467363 22.6396326,31.8023445 22.6396326,32.2838804 C22.6396326,32.5769892 22.7022307,32.8282253 22.8065608,32.995716 C22.8691589,33.1003977 22.9108909,33.1422704 23.1195511,33.3097611 C23.1195511,33.3097611 23.5994696,33.6866153 24.7053687,33.6238063 C25.4774115,33.5819336 26.1659902,33.4353792 26.1659902,33.4353792 L26.1659902,30.9648908 C26.1451241,30.9648908 25.4565455,30.8602091 24.6845027,30.8392727 Z M24.6845027,30.8392727 C23.5786036,30.8183364 23.1195511,31.2370632 23.1195511,31.2370632 C22.8065608,31.467363 22.6396326,31.8023445 22.6396326,32.2838804 C22.6396326,32.5769892 22.7022307,32.8282253 22.8065608,32.995716 C22.8691589,33.1003977 22.9108909,33.1422704 23.1195511,33.3097611 C23.1195511,33.3097611 23.5994696,33.6866153 24.7053687,33.6238063 C25.4774115,33.5819336 26.1659902,33.4353792 26.1659902,33.4353792 L26.1659902,30.9648908 C26.1451241,30.9648908 25.4565455,30.8602091 24.6845027,30.8392727 Z M38.2474163,28.4944024 C37.9135599,27.9919302 37.4336414,27.6988214 36.7450627,27.6988214 C36.035618,27.6988214 35.5348335,27.9709938 35.2009772,28.4944024 C34.992317,28.8293839 34.8462549,29.2481107 34.7627908,29.7715193 L38.6021386,29.7715193 C38.5812726,29.2690471 38.4769425,28.8293839 38.2474163,28.4944024 Z M59.98981,28.4944024 C59.6559537,27.9919302 59.1551692,27.7406941 58.4457245,27.7406941 C57.7362797,27.7406941 57.2354952,27.9919302 56.9016389,28.4944024 C56.5677826,28.9968746 56.4008544,29.7296466 56.4008544,30.6508457 C56.4008544,31.5720447 56.5677826,32.3048167 56.9016389,32.8282253 C57.2354952,33.3306975 57.7362797,33.5819336 58.4457245,33.5819336 C59.1551692,33.5819336 59.6559537,33.3306975 59.98981,32.8282253 C60.3236663,32.3048167 60.5114605,31.5720447 60.5114605,30.6508457 C60.4905945,29.7296466 60.3236663,28.9968746 59.98981,28.4944024 Z M59.98981,28.4944024 C59.6559537,27.9919302 59.1551692,27.7406941 58.4457245,27.7406941 C57.7362797,27.7406941 57.2354952,27.9919302 56.9016389,28.4944024 C56.5677826,28.9968746 56.4008544,29.7296466 56.4008544,30.6508457 C56.4008544,31.5720447 56.5677826,32.3048167 56.9016389,32.8282253 C57.2354952,33.3306975 57.7362797,33.5819336 58.4457245,33.5819336 C59.1551692,33.5819336 59.6559537,33.3306975 59.98981,32.8282253 C60.3236663,32.3048167 60.5114605,31.5720447 60.5114605,30.6508457 C60.4905945,29.7296466 60.3236663,28.9968746 59.98981,28.4944024 Z M38.2474163,28.4944024 C37.9135599,27.9919302 37.4336414,27.6988214 36.7450627,27.6988214 C36.035618,27.6988214 35.5348335,27.9709938 35.2009772,28.4944024 C34.992317,28.8293839 34.8462549,29.2481107 34.7627908,29.7715193 L38.6021386,29.7715193 C38.5812726,29.2690471 38.4769425,28.8293839 38.2474163,28.4944024 Z M24.6845027,30.8392727 C23.5786036,30.8183364 23.1195511,31.2370632 23.1195511,31.2370632 C22.8065608,31.467363 22.6396326,31.8023445 22.6396326,32.2838804 C22.6396326,32.5769892 22.7022307,32.8282253 22.8065608,32.995716 C22.8691589,33.1003977 22.9108909,33.1422704 23.1195511,33.3097611 C23.1195511,33.3097611 23.5994696,33.6866153 24.7053687,33.6238063 C25.4774115,33.5819336 26.1659902,33.4353792 26.1659902,33.4353792 L26.1659902,30.9648908 C26.1451241,30.9648908 25.4565455,30.8602091 24.6845027,30.8392727 Z M24.6845027,30.8392727 C23.5786036,30.8183364 23.1195511,31.2370632 23.1195511,31.2370632 C22.8065608,31.467363 22.6396326,31.8023445 22.6396326,32.2838804 C22.6396326,32.5769892 22.7022307,32.8282253 22.8065608,32.995716 C22.8691589,33.1003977 22.9108909,33.1422704 23.1195511,33.3097611 C23.1195511,33.3097611 23.5994696,33.6866153 24.7053687,33.6238063 C25.4774115,33.5819336 26.1659902,33.4353792 26.1659902,33.4353792 L26.1659902,30.9648908 C26.1451241,30.9648908 25.4565455,30.8602091 24.6845027,30.8392727 Z M38.2474163,28.4944024 C37.9135599,27.9919302 37.4336414,27.6988214 36.7450627,27.6988214 C36.035618,27.6988214 35.5348335,27.9709938 35.2009772,28.4944024 C34.992317,28.8293839 34.8462549,29.2481107 34.7627908,29.7715193 L38.6021386,29.7715193 C38.5812726,29.2690471 38.4769425,28.8293839 38.2474163,28.4944024 Z M59.98981,28.4944024 C59.6559537,27.9919302 59.1551692,27.7406941 58.4457245,27.7406941 C57.7362797,27.7406941 57.2354952,27.9919302 56.9016389,28.4944024 C56.5677826,28.9968746 56.4008544,29.7296466 56.4008544,30.6508457 C56.4008544,31.5720447 56.5677826,32.3048167 56.9016389,32.8282253 C57.2354952,33.3306975 57.7362797,33.5819336 58.4457245,33.5819336 C59.1551692,33.5819336 59.6559537,33.3306975 59.98981,32.8282253 C60.3236663,32.3048167 60.5114605,31.5720447 60.5114605,30.6508457 C60.4905945,29.7296466 60.3236663,28.9968746 59.98981,28.4944024 Z M59.98981,28.4944024 C59.6559537,27.9919302 59.1551692,27.7406941 58.4457245,27.7406941 C57.7362797,27.7406941 57.2354952,27.9919302 56.9016389,28.4944024 C56.5677826,28.9968746 56.4008544,29.7296466 56.4008544,30.6508457 C56.4008544,31.5720447 56.5677826,32.3048167 56.9016389,32.8282253 C57.2354952,33.3306975 57.7362797,33.5819336 58.4457245,33.5819336 C59.1551692,33.5819336 59.6559537,33.3306975 59.98981,32.8282253 C60.3236663,32.3048167 60.5114605,31.5720447 60.5114605,30.6508457 C60.4905945,29.7296466 60.3236663,28.9968746 59.98981,28.4944024 Z M38.2474163,28.4944024 C37.9135599,27.9919302 37.4336414,27.6988214 36.7450627,27.6988214 C36.035618,27.6988214 35.5348335,27.9709938 35.2009772,28.4944024 C34.992317,28.8293839 34.8462549,29.2481107 34.7627908,29.7715193 L38.6021386,29.7715193 C38.5812726,29.2690471 38.4769425,28.8293839 38.2474163,28.4944024 Z M24.6845027,30.8392727 C23.5786036,30.8183364 23.1195511,31.2370632 23.1195511,31.2370632 C22.8065608,31.467363 22.6396326,31.8023445 22.6396326,32.2838804 C22.6396326,32.5769892 22.7022307,32.8282253 22.8065608,32.995716 C22.8691589,33.1003977 22.9108909,33.1422704 23.1195511,33.3097611 C23.1195511,33.3097611 23.5994696,33.6866153 24.7053687,33.6238063 C25.4774115,33.5819336 26.1659902,33.4353792 26.1659902,33.4353792 L26.1659902,30.9648908 C26.1451241,30.9648908 25.4565455,30.8602091 24.6845027,30.8392727 Z M24.6845027,30.8392727 C23.5786036,30.8183364 23.1195511,31.2370632 23.1195511,31.2370632 C22.8065608,31.467363 22.6396326,31.8023445 22.6396326,32.2838804 C22.6396326,32.5769892 22.7022307,32.8282253 22.8065608,32.995716 C22.8691589,33.1003977 22.9108909,33.1422704 23.1195511,33.3097611 C23.1195511,33.3097611 23.5994696,33.6866153 24.7053687,33.6238063 C25.4774115,33.5819336 26.1659902,33.4353792 26.1659902,33.4353792 L26.1659902,30.9648908 C26.1451241,30.9648908 25.4565455,30.8602091 24.6845027,30.8392727 Z M38.2474163,28.4944024 C37.9135599,27.9919302 37.4336414,27.6988214 36.7450627,27.6988214 C36.035618,27.6988214 35.5348335,27.9709938 35.2009772,28.4944024 C34.992317,28.8293839 34.8462549,29.2481107 34.7627908,29.7715193 L38.6021386,29.7715193 C38.5812726,29.2690471 38.4769425,28.8293839 38.2474163,28.4944024 Z M59.98981,28.4944024 C59.6559537,27.9919302 59.1551692,27.7406941 58.4457245,27.7406941 C57.7362797,27.7406941 57.2354952,27.9919302 56.9016389,28.4944024 C56.5677826,28.9968746 56.4008544,29.7296466 56.4008544,30.6508457 C56.4008544,31.5720447 56.5677826,32.3048167 56.9016389,32.8282253 C57.2354952,33.3306975 57.7362797,33.5819336 58.4457245,33.5819336 C59.1551692,33.5819336 59.6559537,33.3306975 59.98981,32.8282253 C60.3236663,32.3048167 60.5114605,31.5720447 60.5114605,30.6508457 C60.4905945,29.7296466 60.3236663,28.9968746 59.98981,28.4944024 Z M59.98981,28.4944024 C59.6559537,27.9919302 59.1551692,27.7406941 58.4457245,27.7406941 C57.7362797,27.7406941 57.2354952,27.9919302 56.9016389,28.4944024 C56.5677826,28.9968746 56.4008544,29.7296466 56.4008544,30.6508457 C56.4008544,31.5720447 56.5677826,32.3048167 56.9016389,32.8282253 C57.2354952,33.3306975 57.7362797,33.5819336 58.4457245,33.5819336 C59.1551692,33.5819336 59.6559537,33.3306975 59.98981,32.8282253 C60.3236663,32.3048167 60.5114605,31.5720447 60.5114605,30.6508457 C60.4905945,29.7296466 60.3236663,28.9968746 59.98981,28.4944024 Z M38.2474163,28.4944024 C37.9135599,27.9919302 37.4336414,27.6988214 36.7450627,27.6988214 C36.035618,27.6988214 35.5348335,27.9709938 35.2009772,28.4944024 C34.992317,28.8293839 34.8462549,29.2481107 34.7627908,29.7715193 L38.6021386,29.7715193 C38.5812726,29.2690471 38.4769425,28.8293839 38.2474163,28.4944024 Z M24.6845027,30.8392727 C23.5786036,30.8183364 23.1195511,31.2370632 23.1195511,31.2370632 C22.8065608,31.467363 22.6396326,31.8023445 22.6396326,32.2838804 C22.6396326,32.5769892 22.7022307,32.8282253 22.8065608,32.995716 C22.8691589,33.1003977 22.9108909,33.1422704 23.1195511,33.3097611 C23.1195511,33.3097611 23.5994696,33.6866153 24.7053687,33.6238063 C25.4774115,33.5819336 26.1659902,33.4353792 26.1659902,33.4353792 L26.1659902,30.9648908 C26.1451241,30.9648908 25.4565455,30.8602091 24.6845027,30.8392727 Z M24.6845027,30.8392727 C23.5786036,30.8183364 23.1195511,31.2370632 23.1195511,31.2370632 C22.8065608,31.467363 22.6396326,31.8023445 22.6396326,32.2838804 C22.6396326,32.5769892 22.7022307,32.8282253 22.8065608,32.995716 C22.8691589,33.1003977 22.9108909,33.1422704 23.1195511,33.3097611 C23.1195511,33.3097611 23.5994696,33.6866153 24.7053687,33.6238063 C25.4774115,33.5819336 26.1659902,33.4353792 26.1659902,33.4353792 L26.1659902,30.9648908 C26.1451241,30.9648908 25.4565455,30.8602091 24.6845027,30.8392727 Z M38.2474163,28.4944024 C37.9135599,27.9919302 37.4336414,27.6988214 36.7450627,27.6988214 C36.035618,27.6988214 35.5348335,27.9709938 35.2009772,28.4944024 C34.992317,28.8293839 34.8462549,29.2481107 34.7627908,29.7715193 L38.6021386,29.7715193 C38.5812726,29.2690471 38.4769425,28.8293839 38.2474163,28.4944024 Z M59.98981,28.4944024 C59.6559537,27.9919302 59.1551692,27.7406941 58.4457245,27.7406941 C57.7362797,27.7406941 57.2354952,27.9919302 56.9016389,28.4944024 C56.5677826,28.9968746 56.4008544,29.7296466 56.4008544,30.6508457 C56.4008544,31.5720447 56.5677826,32.3048167 56.9016389,32.8282253 C57.2354952,33.3306975 57.7362797,33.5819336 58.4457245,33.5819336 C59.1551692,33.5819336 59.6559537,33.3306975 59.98981,32.8282253 C60.3236663,32.3048167 60.5114605,31.5720447 60.5114605,30.6508457 C60.4905945,29.7296466 60.3236663,28.9968746 59.98981,28.4944024 Z M59.98981,28.4944024 C59.6559537,27.9919302 59.1551692,27.7406941 58.4457245,27.7406941 C57.7362797,27.7406941 57.2354952,27.9919302 56.9016389,28.4944024 C56.5677826,28.9968746 56.4008544,29.7296466 56.4008544,30.6508457 C56.4008544,31.5720447 56.5677826,32.3048167 56.9016389,32.8282253 C57.2354952,33.3306975 57.7362797,33.5819336 58.4457245,33.5819336 C59.1551692,33.5819336 59.6559537,33.3306975 59.98981,32.8282253 C60.3236663,32.3048167 60.5114605,31.5720447 60.5114605,30.6508457 C60.4905945,29.7296466 60.3236663,28.9968746 59.98981,28.4944024 Z M38.2474163,28.4944024 C37.9135599,27.9919302 37.4336414,27.6988214 36.7450627,27.6988214 C36.035618,27.6988214 35.5348335,27.9709938 35.2009772,28.4944024 C34.992317,28.8293839 34.8462549,29.2481107 34.7627908,29.7715193 L38.6021386,29.7715193 C38.5812726,29.2690471 38.4769425,28.8293839 38.2474163,28.4944024 Z M24.6845027,30.8392727 C23.5786036,30.8183364 23.1195511,31.2370632 23.1195511,31.2370632 C22.8065608,31.467363 22.6396326,31.8023445 22.6396326,32.2838804 C22.6396326,32.5769892 22.7022307,32.8282253 22.8065608,32.995716 C22.8691589,33.1003977 22.9108909,33.1422704 23.1195511,33.3097611 C23.1195511,33.3097611 23.5994696,33.6866153 24.7053687,33.6238063 C25.4774115,33.5819336 26.1659902,33.4353792 26.1659902,33.4353792 L26.1659902,30.9648908 C26.1451241,30.9648908 25.4565455,30.8602091 24.6845027,30.8392727 Z M24.6845027,30.8392727 C23.5786036,30.8183364 23.1195511,31.2370632 23.1195511,31.2370632 C22.8065608,31.467363 22.6396326,31.8023445 22.6396326,32.2838804 C22.6396326,32.5769892 22.7022307,32.8282253 22.8065608,32.995716 C22.8691589,33.1003977 22.9108909,33.1422704 23.1195511,33.3097611 C23.1195511,33.3097611 23.5994696,33.6866153 24.7053687,33.6238063 C25.4774115,33.5819336 26.1659902,33.4353792 26.1659902,33.4353792 L26.1659902,30.9648908 C26.1451241,30.9648908 25.4565455,30.8602091 24.6845027,30.8392727 Z M38.2474163,28.4944024 C37.9135599,27.9919302 37.4336414,27.6988214 36.7450627,27.6988214 C36.035618,27.6988214 35.5348335,27.9709938 35.2009772,28.4944024 C34.992317,28.8293839 34.8462549,29.2481107 34.7627908,29.7715193 L38.6021386,29.7715193 C38.5812726,29.2690471 38.4769425,28.8293839 38.2474163,28.4944024 Z M59.98981,28.4944024 C59.6559537,27.9919302 59.1551692,27.7406941 58.4457245,27.7406941 C57.7362797,27.7406941 57.2354952,27.9919302 56.9016389,28.4944024 C56.5677826,28.9968746 56.4008544,29.7296466 56.4008544,30.6508457 C56.4008544,31.5720447 56.5677826,32.3048167 56.9016389,32.8282253 C57.2354952,33.3306975 57.7362797,33.5819336 58.4457245,33.5819336 C59.1551692,33.5819336 59.6559537,33.3306975 59.98981,32.8282253 C60.3236663,32.3048167 60.5114605,31.5720447 60.5114605,30.6508457 C60.4905945,29.7296466 60.3236663,28.9968746 59.98981,28.4944024 Z M59.98981,28.4944024 C59.6559537,27.9919302 59.1551692,27.7406941 58.4457245,27.7406941 C57.7362797,27.7406941 57.2354952,27.9919302 56.9016389,28.4944024 C56.5677826,28.9968746 56.4008544,29.7296466 56.4008544,30.6508457 C56.4008544,31.5720447 56.5677826,32.3048167 56.9016389,32.8282253 C57.2354952,33.3306975 57.7362797,33.5819336 58.4457245,33.5819336 C59.1551692,33.5819336 59.6559537,33.3306975 59.98981,32.8282253 C60.3236663,32.3048167 60.5114605,31.5720447 60.5114605,30.6508457 C60.4905945,29.7296466 60.3236663,28.9968746 59.98981,28.4944024 Z M38.2474163,28.4944024 C37.9135599,27.9919302 37.4336414,27.6988214 36.7450627,27.6988214 C36.035618,27.6988214 35.5348335,27.9709938 35.2009772,28.4944024 C34.992317,28.8293839 34.8462549,29.2481107 34.7627908,29.7715193 L38.6021386,29.7715193 C38.5812726,29.2690471 38.4769425,28.8293839 38.2474163,28.4944024 Z M24.6845027,30.8392727 C23.5786036,30.8183364 23.1195511,31.2370632 23.1195511,31.2370632 C22.8065608,31.467363 22.6396326,31.8023445 22.6396326,32.2838804 C22.6396326,32.5769892 22.7022307,32.8282253 22.8065608,32.995716 C22.8691589,33.1003977 22.9108909,33.1422704 23.1195511,33.3097611 C23.1195511,33.3097611 23.5994696,33.6866153 24.7053687,33.6238063 C25.4774115,33.5819336 26.1659902,33.4353792 26.1659902,33.4353792 L26.1659902,30.9648908 C26.1451241,30.9648908 25.4565455,30.8602091 24.6845027,30.8392727 Z M24.6845027,30.8392727 C23.5786036,30.8183364 23.1195511,31.2370632 23.1195511,31.2370632 C22.8065608,31.467363 22.6396326,31.8023445 22.6396326,32.2838804 C22.6396326,32.5769892 22.7022307,32.8282253 22.8065608,32.995716 C22.8691589,33.1003977 22.9108909,33.1422704 23.1195511,33.3097611 C23.1195511,33.3097611 23.5994696,33.6866153 24.7053687,33.6238063 C25.4774115,33.5819336 26.1659902,33.4353792 26.1659902,33.4353792 L26.1659902,30.9648908 C26.1451241,30.9648908 25.4565455,30.8602091 24.6845027,30.8392727 Z M38.2474163,28.4944024 C37.9135599,27.9919302 37.4336414,27.6988214 36.7450627,27.6988214 C36.035618,27.6988214 35.5348335,27.9709938 35.2009772,28.4944024 C34.992317,28.8293839 34.8462549,29.2481107 34.7627908,29.7715193 L38.6021386,29.7715193 C38.5812726,29.2690471 38.4769425,28.8293839 38.2474163,28.4944024 Z M59.98981,28.4944024 C59.6559537,27.9919302 59.1551692,27.7406941 58.4457245,27.7406941 C57.7362797,27.7406941 57.2354952,27.9919302 56.9016389,28.4944024 C56.5677826,28.9968746 56.4008544,29.7296466 56.4008544,30.6508457 C56.4008544,31.5720447 56.5677826,32.3048167 56.9016389,32.8282253 C57.2354952,33.3306975 57.7362797,33.5819336 58.4457245,33.5819336 C59.1551692,33.5819336 59.6559537,33.3306975 59.98981,32.8282253 C60.3236663,32.3048167 60.5114605,31.5720447 60.5114605,30.6508457 C60.4905945,29.7296466 60.3236663,28.9968746 59.98981,28.4944024 Z M59.98981,28.4944024 C59.6559537,27.9919302 59.1551692,27.7406941 58.4457245,27.7406941 C57.7362797,27.7406941 57.2354952,27.9919302 56.9016389,28.4944024 C56.5677826,28.9968746 56.4008544,29.7296466 56.4008544,30.6508457 C56.4008544,31.5720447 56.5677826,32.3048167 56.9016389,32.8282253 C57.2354952,33.3306975 57.7362797,33.5819336 58.4457245,33.5819336 C59.1551692,33.5819336 59.6559537,33.3306975 59.98981,32.8282253 C60.3236663,32.3048167 60.5114605,31.5720447 60.5114605,30.6508457 C60.4905945,29.7296466 60.3236663,28.9968746 59.98981,28.4944024 Z M38.2474163,28.4944024 C37.9135599,27.9919302 37.4336414,27.6988214 36.7450627,27.6988214 C36.035618,27.6988214 35.5348335,27.9709938 35.2009772,28.4944024 C34.992317,28.8293839 34.8462549,29.2481107 34.7627908,29.7715193 L38.6021386,29.7715193 C38.5812726,29.2690471 38.4769425,28.8293839 38.2474163,28.4944024 Z M24.6845027,30.8392727 C23.5786036,30.8183364 23.1195511,31.2370632 23.1195511,31.2370632 C22.8065608,31.467363 22.6396326,31.8023445 22.6396326,32.2838804 C22.6396326,32.5769892 22.7022307,32.8282253 22.8065608,32.995716 C22.8691589,33.1003977 22.9108909,33.1422704 23.1195511,33.3097611 C23.1195511,33.3097611 23.5994696,33.6866153 24.7053687,33.6238063 C25.4774115,33.5819336 26.1659902,33.4353792 26.1659902,33.4353792 L26.1659902,30.9648908 C26.1451241,30.9648908 25.4565455,30.8602091 24.6845027,30.8392727 Z M72.989341,8.83517695 C70.1098301,8.83517695 67.3555154,9.46326722 64.8724589,10.5728934 C62.013814,5.46442583 56.6721127,2.03086569 50.5166365,2.03086569 C45.8843799,2.03086569 41.7111757,3.97794553 38.7273347,7.11839688 C35.4305034,2.78457401 30.2139982,4.04830505e-05 24.3506464,4.04830505e-05 C14.3766884,-0.0208958593 6.28067228,8.08146862 6.28067228,18.0890403 C6.28067228,20.643274 6.8023228,23.0928261 7.76215976,25.291142 C3.12990313,28.0128665 0,33.1003977 0,38.9207009 C0,47.609283 6.94838495,54.6648303 15.5243195,54.6648303 C16.6093526,54.6648303 17.6943857,54.5601486 18.7168207,54.3298488 C21.0746811,60.7363696 27.2092912,65.3214286 34.4080684,65.3214286 C41.3355873,65.3214286 47.2615373,61.1132238 49.8071918,55.0835572 C51.7477318,56.0256926 53.9177979,56.5700375 56.2130602,56.5700375 C61.7008237,56.5700375 66.5000085,53.5342678 69.003931,49.0329542 C70.2767583,49.2841903 71.6121836,49.4307447 72.947609,49.4307447 C84.027466,49.4307447 92.999855,40.3443722 92.999855,29.1224927 C93.0415871,17.9215495 84.0691981,8.83517695 72.989341,8.83517695 Z M19.9270499,32.3885621 C19.9270499,34.0215968 18.7376867,35.0474776 16.8388788,35.0474776 C15.8999079,35.0474776 15.002669,34.9009232 14.0636981,34.3984509 C13.8759039,34.2937692 13.7089757,34.2100239 13.5420475,34.0844058 C13.5211815,34.0634695 13.4377174,34.0215968 13.5003155,33.8750424 L13.8759039,32.8282253 C13.9385019,32.6397982 14.0636981,32.7026072 14.1262961,32.7444799 C14.2306262,32.8072889 14.3140903,32.870098 14.4392864,32.9538433 C15.5451855,33.665679 16.5676206,33.665679 16.9014769,33.665679 C17.7361177,33.665679 18.2369022,33.2260158 18.2369022,32.6397982 L18.2369022,32.5979255 C18.2369022,31.9488989 17.4439934,31.6976628 16.5258885,31.4254903 L16.3172283,31.3626813 C15.0652671,31.0067635 13.7089757,30.4833549 13.7089757,28.8921929 L13.7089757,28.8503202 C13.7089757,27.3429036 14.9192049,26.2751501 16.6719507,26.2751501 L16.8597449,26.2751501 C17.8821799,26.2751501 18.8837489,26.5682589 19.5931936,27.0079221 C19.6557917,27.0497948 19.7183897,27.1126038 19.6766577,27.2172855 C19.6349256,27.3010309 19.3219353,28.1594209 19.2802033,28.2641026 C19.2176052,28.4525297 19.029811,28.3269117 19.029811,28.3269117 C18.4038304,27.9709938 17.4231274,27.6988214 16.6093526,27.6988214 C15.8790419,27.6988214 15.3991234,28.0966119 15.3991234,28.6200205 L15.3991234,28.6409568 C15.3991234,29.2690471 16.2128982,29.5412195 17.1727352,29.8343283 L17.3396633,29.876201 C18.5916246,30.2739915 19.9270499,30.8183364 19.9270499,32.3466894 L19.9270499,32.3885621 Z M27.7309417,34.524069 C27.7309417,34.524069 27.5222815,34.586878 27.3553534,34.6287507 C27.1675592,34.6706234 26.5207125,34.7962414 25.999062,34.9009232 C25.4565455,34.9846685 24.9140289,35.0474776 24.3506464,35.0474776 C23.8289958,35.0474776 23.3490774,35.0056049 22.9317569,34.9009232 C22.5144365,34.7962414 22.1388481,34.649687 21.8258578,34.4193873 C21.5128675,34.2100239 21.2833413,33.9169151 21.1164131,33.5819336 C20.949485,33.2469521 20.8660209,32.8282253 20.8660209,32.3466894 C20.8660209,31.8860899 20.970351,31.467363 21.1581452,31.0905089 C21.3459393,30.734591 21.6171976,30.4414822 21.951054,30.1902461 C22.2849103,29.9599464 22.6604987,29.7715193 23.0778191,29.6668376 C23.4951395,29.5621559 23.9333259,29.4993468 24.4132444,29.4993468 C24.7471008,29.4993468 25.039225,29.4993468 25.2478853,29.5202832 C25.2478853,29.5202832 25.6652057,29.5621559 26.1451241,29.6249649 L26.1451241,29.3946651 C26.1451241,28.6618931 25.999062,28.3269117 25.7069377,28.0966119 C25.4148134,27.8663121 24.955761,27.7406941 24.3715124,27.7406941 C24.3715124,27.7406941 23.0569531,27.7197577 22.034518,28.285039 C21.992786,28.3059753 21.951054,28.3269117 21.951054,28.3269117 C21.951054,28.3269117 21.8258578,28.3687843 21.7841258,28.2431663 L21.4085374,27.2172855 C21.3459393,27.0707311 21.4502695,27.0079221 21.4502695,27.0079221 C21.9301879,26.6310679 23.1195511,26.4007682 23.1195511,26.4007682 C23.5160055,26.3170228 24.1628522,26.2751501 24.5593066,26.2751501 C25.6443396,26.2751501 26.4789805,26.5263862 27.042363,27.0288584 C27.6057456,27.5313307 27.8978699,28.3269117 27.8978699,29.4156015 L27.8978699,34.3565783 C27.8561379,34.3565783 27.8770039,34.4821963 27.7309417,34.524069 Z M31.3616294,34.6706234 C31.3616294,34.7543688 31.2990313,34.8381141 31.2155672,34.8381141 L29.7758118,34.8381141 C29.6923477,34.8381141 29.6297496,34.7543688 29.6297496,34.6706234 L29.6297496,23.1137624 C29.6297496,23.0300171 29.6923477,22.9462717 29.7758118,22.9462717 L31.2155672,22.9462717 C31.2990313,22.9462717 31.3616294,23.0090807 31.3616294,23.1137624 L31.3616294,34.6706234 Z M40.2922863,30.9648908 C40.2714203,31.1114452 40.1253581,31.1114452 40.1253581,31.1114452 L34.7419247,31.1114452 C34.7836568,31.9279625 34.971451,32.5141801 35.3679054,32.9119706 C35.7643598,33.2888248 36.3694744,33.5400609 37.2041152,33.5400609 C38.4769425,33.5400609 39.040325,33.2888248 39.4159134,33.1422704 C39.4159134,33.1422704 39.5619756,33.1003977 39.6245736,33.2469521 L39.979296,34.2309602 C40.041894,34.3984509 40.000162,34.46126 39.9375639,34.4821963 C39.6037076,34.6706234 38.7899328,35.0265412 37.2249812,35.0265412 C36.4738045,35.0265412 35.8060918,34.9218595 35.2635753,34.7124961 C34.7210587,34.5031327 34.2620063,34.1890875 33.9072839,33.8122334 C33.5525616,33.4353792 33.2813033,32.9747797 33.1143751,32.4304348 C32.947447,31.9070262 32.8639829,31.3208086 32.8639829,30.7136547 C32.8639829,30.1065008 32.947447,29.5202832 33.0935091,28.9968746 C33.2604373,28.4525297 33.4899635,27.9919302 33.8238198,27.5941397 C34.1576762,27.1963492 34.5749966,26.882304 35.0757811,26.6520043 C35.5765656,26.4217045 36.1816802,26.2960865 36.8493929,26.2960865 C37.4336414,26.2960865 37.955292,26.4217045 38.3934784,26.6101316 C38.7273347,26.756686 39.0611911,27.0079221 39.4159134,27.3847763 C39.6245736,27.615076 39.979296,28.1384846 40.1044921,28.6409568 C40.4800805,29.8552647 40.2922863,30.9020818 40.2922863,30.9648908 Z M44.7784808,35.0474776 C43.8395098,35.0474776 42.9422709,34.9009232 42.0033,34.3984509 C41.8155058,34.2937692 41.6485777,34.2100239 41.4816495,34.0844058 C41.4607835,34.0634695 41.3773194,34.0215968 41.4399174,33.8750424 L41.8155058,32.8282253 C41.8781039,32.6607345 42.024166,32.7235436 42.0658981,32.7444799 C42.1702282,32.8072889 42.2536923,32.870098 42.3788884,32.9538433 C43.4847875,33.665679 44.5072225,33.665679 44.8410788,33.665679 C45.6757197,33.665679 46.1973702,33.2260158 46.1973702,32.6397982 L46.1973702,32.5979255 C46.1973702,31.9488989 45.4044614,31.6976628 44.4863565,31.4254903 L44.2776963,31.3626813 C43.025735,31.0067635 41.6694437,30.4833549 41.6694437,28.8921929 L41.6694437,28.8503202 C41.6694437,27.3429036 42.8796729,26.2751501 44.6324186,26.2751501 L44.8202128,26.2751501 C45.8426478,26.2751501 46.8442168,26.5682589 47.5536616,27.0079221 C47.6162596,27.0497948 47.6788577,27.1126038 47.6371256,27.2172855 C47.5953936,27.3010309 47.2824033,28.1594209 47.2406712,28.2641026 C47.1780732,28.4525297 46.990279,28.3269117 46.990279,28.3269117 C46.3642984,27.9709938 45.3835954,27.6988214 44.5698206,27.6988214 C43.8186438,27.6988214 43.3595914,28.0966119 43.3595914,28.6200205 L43.3595914,28.6409568 C43.3595914,29.2690471 44.1733662,29.5412195 45.1123371,29.8343283 L45.2792653,29.876201 C46.5312265,30.2739915 47.8666519,30.8183364 47.8666519,32.3466894 L47.8666519,32.3885621 C47.8666519,34.0425331 46.6772887,35.0474776 44.7784808,35.0474776 Z M54.1890562,27.7406941 C54.1681902,27.9081848 54.001262,27.9081848 54.001262,27.9081848 L52.2276502,27.9081848 L51.017421,34.7962414 C50.8922249,35.5080771 50.7252967,36.115231 50.5375025,36.6177032 C50.3497084,37.1201754 50.1410481,37.4760933 49.8280578,37.8320111 C49.5359335,38.1460562 49.2020772,38.3972923 48.8264888,38.5229104 C48.4509005,38.6485284 47.991848,38.7322738 47.5119295,38.7322738 C47.2824033,38.7322738 47.032011,38.7322738 46.7190207,38.6485284 C46.5103605,38.6066558 46.3851644,38.5647831 46.2182362,38.501974 C46.1556382,38.4810377 46.0930401,38.3972923 46.1347721,38.2926106 C46.1765042,38.1879289 46.4894945,37.3086025 46.5312265,37.2039208 C46.5938246,37.0573664 46.7190207,37.1201754 46.7190207,37.1201754 C46.8233508,37.1620481 46.8859489,37.1829845 47.011145,37.2039208 C47.1363411,37.2248572 47.3241353,37.2457935 47.4493315,37.2457935 C47.6788577,37.2457935 47.9083839,37.2248572 48.0753121,37.1620481 C48.3048383,37.0783028 48.4300344,36.9526847 48.5760966,36.785194 C48.7221587,36.5967669 48.8264888,36.3455308 48.951685,36.0105493 C49.0768811,35.6755678 49.1812112,35.2149683 49.2646753,34.6706234 L50.4749045,27.9081848 L49.2855413,27.9081848 C49.1394791,27.9081848 49.0977471,27.8453758 49.1186131,27.7406941 L49.3272733,26.6101316 C49.3481394,26.4635772 49.4942015,26.4426409 49.5150675,26.4426409 L50.7461628,26.4426409 L50.8087608,26.0657867 C50.996555,24.9770969 51.3512774,24.1605795 51.8937939,23.6162346 C52.4363104,23.0718897 53.2083532,22.7997173 54.1890562,22.7997173 C54.4603145,22.7997173 54.7107067,22.8206536 54.9193669,22.8625263 C55.1280271,22.904399 55.2740893,22.9253353 55.4618835,22.9881444 C55.5036155,23.0090807 55.6079456,23.0509534 55.5662136,23.1765714 L55.1488932,24.3071339 C55.1071611,24.3908793 55.0862951,24.4536883 54.9193669,24.3908793 C54.8776349,24.369943 54.8150368,24.3490066 54.6481087,24.3280703 C54.5229125,24.3071339 54.3768504,24.2861976 54.2099222,24.2861976 C54.001262,24.2861976 53.7926018,24.3071339 53.6256736,24.369943 C53.4587455,24.432752 53.3126833,24.5164974 53.1666212,24.6421154 C53.020559,24.7886698 52.8744969,24.9770969 52.7910328,25.228333 C52.5823726,25.7936142 52.5197745,26.4007682 52.4989085,26.4426409 L54.2307882,26.4426409 C54.3768504,26.4426409 54.4185824,26.5054499 54.3977164,26.6101316 L54.1890562,27.7406941 Z M62.0764121,32.3676257 C61.9094839,32.8910343 61.6799577,33.3725702 61.3461014,33.7494243 C61.012245,34.1472148 60.6157906,34.46126 60.1150061,34.6706234 C59.6350876,34.9009232 59.0508391,35.0056049 58.4039924,35.0056049 C57.7571458,35.0056049 57.1937632,34.9009232 56.6929787,34.6706234 C56.2130602,34.4403236 55.7957398,34.1262785 55.4618835,33.7494243 C55.1280271,33.3516338 54.8985009,32.8910343 54.7315727,32.3676257 C54.5855106,31.8442172 54.5020465,31.2579996 54.5020465,30.6508457 C54.5020465,30.0436917 54.5855106,29.4574741 54.7315727,28.9340656 C54.8985009,28.410657 55.1280271,27.9291212 55.4618835,27.552267 C55.7748738,27.1544765 56.1921942,26.8404314 56.6929787,26.6101316 C57.1728972,26.3798318 57.7571458,26.2751501 58.4039924,26.2751501 C59.0508391,26.2751501 59.6142216,26.3798318 60.1150061,26.6101316 C60.5949246,26.8404314 61.012245,27.1544765 61.3461014,27.552267 C61.6799577,27.9500575 61.9094839,28.410657 62.0764121,28.9340656 C62.2224742,29.4574741 62.3059383,30.0436917 62.3059383,30.6508457 C62.3268043,31.2579996 62.2433403,31.8442172 62.0764121,32.3676257 Z M68.7535388,26.7148133 C68.7118067,26.8613677 68.4405484,27.5941397 68.3570844,27.8453758 C68.3153523,27.9291212 68.2736203,28.0128665 68.1484242,27.9919302 C68.1484242,27.9919302 67.8354338,27.9081848 67.5641756,27.9081848 C67.3763814,27.9081848 67.0842571,27.9291212 66.8338648,28.0128665 C66.5834726,28.0966119 66.3748124,28.22223 66.1661522,28.410657 C65.957492,28.5990841 65.8114298,28.8712566 65.6862337,29.206238 C65.5610376,29.5412195 65.5193055,30.0855644 65.5193055,30.6299093 L65.5193055,34.6706234 C65.5193055,34.7543688 65.4358414,34.8381141 65.3523774,34.8381141 L63.9334879,34.8381141 C63.8500239,34.8381141 63.7665598,34.7753051 63.7665598,34.6706234 L63.7665598,26.6101316 C63.7665598,26.5263862 63.8291578,26.4426409 63.9126219,26.4426409 L65.2897793,26.4426409 C65.3732434,26.4426409 65.4358414,26.5054499 65.4358414,26.6101316 L65.4358414,27.2591582 C65.6445017,26.9869858 66.02009,26.7357496 66.3539464,26.5891952 C66.6878027,26.4426409 67.0633911,26.3170228 67.7519698,26.3588955 C68.1066921,26.3798318 68.5657446,26.4845135 68.6492087,26.5054499 C68.7118067,26.5263862 68.7952708,26.5891952 68.7535388,26.7148133 Z M75.4932635,34.6078144 C74.8881489,34.8381141 74.0535081,35.0056049 73.2397332,35.0056049 C71.8625759,35.0056049 70.7984088,34.6078144 70.0889641,33.8122334 C69.3795194,33.0375887 69.024797,31.9488989 69.024797,30.6299093 C69.024797,30.0227554 69.1082611,29.4365378 69.2751893,28.9131292 C69.4421175,28.3897207 69.7133757,27.9081848 70.0472321,27.5313307 C70.3810884,27.1335402 70.8192748,26.819495 71.3409253,26.5891952 C71.8417099,26.3588955 72.4468245,26.2542138 73.1145371,26.2542138 C73.5735896,26.2542138 73.970044,26.2751501 74.3039003,26.3379591 C74.6794887,26.4007682 75.1594072,26.5263862 75.3680674,26.6101316 C75.4097994,26.6310679 75.5141295,26.6729406 75.4723975,26.7985587 C75.3263353,27.2172855 75.2220052,27.5103943 75.0759431,27.8872485 C75.013345,28.0547392 74.8881489,27.9919302 74.8881489,27.9919302 C74.3664984,27.8244394 73.8657139,27.7616304 73.1980012,27.7616304 C72.4050924,27.7616304 71.8208438,28.0338029 71.4243894,28.5362751 C71.027935,29.0596836 70.8192748,29.7296466 70.8192748,30.6299093 C70.8192748,31.6348538 71.0696671,32.3676257 71.5078535,32.8072889 C71.94604,33.2678885 72.5511546,33.4981882 73.3231973,33.4981882 C73.6361876,33.4981882 73.9283119,33.4772519 74.1995702,33.4353792 C74.4708285,33.3935065 74.7003547,33.3097611 74.9298809,33.2260158 C74.9298809,33.2260158 75.0759431,33.1632067 75.1385411,33.3306975 L75.5349955,34.4193873 C75.6184596,34.5659417 75.4932635,34.6078144 75.4932635,34.6078144 Z M83.4849495,30.9648908 C83.4640835,31.1114452 83.3180213,31.1114452 83.3180213,31.1114452 L77.9345879,31.1114452 C77.97632,31.9279625 78.1641142,32.5141801 78.5605686,32.9119706 C78.957023,33.2888248 79.5621376,33.5400609 80.3967784,33.5400609 C81.6696057,33.5400609 82.2329882,33.2888248 82.6085766,33.1422704 C82.6085766,33.1422704 82.7546388,33.1003977 82.8172368,33.2469521 L83.1719592,34.2309602 C83.2345572,34.3984509 83.1928252,34.46126 83.1302271,34.4821963 C82.7963708,34.6706234 81.982596,35.0265412 80.4176444,35.0265412 C79.6664677,35.0265412 78.998755,34.9218595 78.4562385,34.7124961 C77.9137219,34.5031327 77.4546695,34.1890875 77.0999471,33.8122334 C76.7452248,33.4353792 76.4739665,32.9747797 76.3279043,32.4304348 C76.1609762,31.9070262 76.0775121,31.3208086 76.0775121,30.7136547 C76.0775121,30.1065008 76.1609762,29.5202832 76.3070383,28.9968746 C76.4739665,28.4525297 76.7034927,27.9919302 77.037349,27.5941397 C77.3712054,27.1963492 77.7885258,26.882304 78.2893103,26.6520043 C78.7900948,26.4217045 79.3952094,26.2960865 80.0629221,26.2960865 C80.6471707,26.2960865 81.1688212,26.4217045 81.6070076,26.6101316 C81.940864,26.756686 82.2747203,27.0079221 82.6294426,27.3847763 C82.8381028,27.615076 83.1719592,28.1384846 83.3180213,28.6409568 C83.6727437,29.8552647 83.4849495,30.9020818 83.4849495,30.9648908 Z M58.4248584,27.7406941 C57.7154137,27.7406941 57.2146292,27.9919302 56.8807729,28.4944024 C56.5469166,28.9968746 56.3799884,29.7296466 56.3799884,30.6508457 C56.3799884,31.5720447 56.5469166,32.3048167 56.8807729,32.8282253 C57.2146292,33.3306975 57.7154137,33.5819336 58.4248584,33.5819336 C59.1343031,33.5819336 59.6350876,33.3306975 59.968944,32.8282253 C60.3028003,32.3048167 60.4905945,31.5720447 60.4905945,30.6508457 C60.4905945,29.7296466 60.3236663,28.9968746 59.968944,28.4944024 C59.6350876,27.9919302 59.1343031,27.7406941 58.4248584,27.7406941 Z M36.7450627,27.6988214 C36.035618,27.6988214 35.5348335,27.9709938 35.2009772,28.4944024 C34.992317,28.8293839 34.8462549,29.2481107 34.7627908,29.7715193 L38.6021386,29.7715193 C38.5604066,29.2690471 38.4560765,28.8293839 38.2474163,28.4944024 C37.9135599,27.9919302 37.4545075,27.6988214 36.7450627,27.6988214 Z M23.1195511,31.2370632 C22.8065608,31.467363 22.6396326,31.8023445 22.6396326,32.2838804 C22.6396326,32.5769892 22.7022307,32.8282253 22.8065608,32.995716 C22.8691589,33.1003977 22.9108909,33.1422704 23.1195511,33.3097611 C23.1195511,33.3097611 23.5994696,33.6866153 24.7053687,33.6238063 C25.4774115,33.5819336 26.1659902,33.4353792 26.1659902,33.4353792 L26.1659902,30.9648908 C26.1659902,30.9648908 25.4774115,30.8602091 24.7053687,30.8392727 C23.5786036,30.8392727 23.1195511,31.2370632 23.1195511,31.2370632 Z M24.6845027,30.8392727 C23.5786036,30.8183364 23.1195511,31.2370632 23.1195511,31.2370632 C22.8065608,31.467363 22.6396326,31.8023445 22.6396326,32.2838804 C22.6396326,32.5769892 22.7022307,32.8282253 22.8065608,32.995716 C22.8691589,33.1003977 22.9108909,33.1422704 23.1195511,33.3097611 C23.1195511,33.3097611 23.5994696,33.6866153 24.7053687,33.6238063 C25.4774115,33.5819336 26.1659902,33.4353792 26.1659902,33.4353792 L26.1659902,30.9648908 C26.1451241,30.9648908 25.4565455,30.8602091 24.6845027,30.8392727 Z M38.2474163,28.4944024 C37.9135599,27.9919302 37.4336414,27.6988214 36.7450627,27.6988214 C36.035618,27.6988214 35.5348335,27.9709938 35.2009772,28.4944024 C34.992317,28.8293839 34.8462549,29.2481107 34.7627908,29.7715193 L38.6021386,29.7715193 C38.5812726,29.2690471 38.4769425,28.8293839 38.2474163,28.4944024 Z M59.98981,28.4944024 C59.6559537,27.9919302 59.1551692,27.7406941 58.4457245,27.7406941 C57.7362797,27.7406941 57.2354952,27.9919302 56.9016389,28.4944024 C56.5677826,28.9968746 56.4008544,29.7296466 56.4008544,30.6508457 C56.4008544,31.5720447 56.5677826,32.3048167 56.9016389,32.8282253 C57.2354952,33.3306975 57.7362797,33.5819336 58.4457245,33.5819336 C59.1551692,33.5819336 59.6559537,33.3306975 59.98981,32.8282253 C60.3236663,32.3048167 60.5114605,31.5720447 60.5114605,30.6508457 C60.4905945,29.7296466 60.3236663,28.9968746 59.98981,28.4944024 Z M59.98981,28.4944024 C59.6559537,27.9919302 59.1551692,27.7406941 58.4457245,27.7406941 C57.7362797,27.7406941 57.2354952,27.9919302 56.9016389,28.4944024 C56.5677826,28.9968746 56.4008544,29.7296466 56.4008544,30.6508457 C56.4008544,31.5720447 56.5677826,32.3048167 56.9016389,32.8282253 C57.2354952,33.3306975 57.7362797,33.5819336 58.4457245,33.5819336 C59.1551692,33.5819336 59.6559537,33.3306975 59.98981,32.8282253 C60.3236663,32.3048167 60.5114605,31.5720447 60.5114605,30.6508457 C60.4905945,29.7296466 60.3236663,28.9968746 59.98981,28.4944024 Z M38.2474163,28.4944024 C37.9135599,27.9919302 37.4336414,27.6988214 36.7450627,27.6988214 C36.035618,27.6988214 35.5348335,27.9709938 35.2009772,28.4944024 C34.992317,28.8293839 34.8462549,29.2481107 34.7627908,29.7715193 L38.6021386,29.7715193 C38.5812726,29.2690471 38.4769425,28.8293839 38.2474163,28.4944024 Z M24.6845027,30.8392727 C23.5786036,30.8183364 23.1195511,31.2370632 23.1195511,31.2370632 C22.8065608,31.467363 22.6396326,31.8023445 22.6396326,32.2838804 C22.6396326,32.5769892 22.7022307,32.8282253 22.8065608,32.995716 C22.8691589,33.1003977 22.9108909,33.1422704 23.1195511,33.3097611 C23.1195511,33.3097611 23.5994696,33.6866153 24.7053687,33.6238063 C25.4774115,33.5819336 26.1659902,33.4353792 26.1659902,33.4353792 L26.1659902,30.9648908 C26.1451241,30.9648908 25.4565455,30.8602091 24.6845027,30.8392727 Z M24.6845027,30.8392727 C23.5786036,30.8183364 23.1195511,31.2370632 23.1195511,31.2370632 C22.8065608,31.467363 22.6396326,31.8023445 22.6396326,32.2838804 C22.6396326,32.5769892 22.7022307,32.8282253 22.8065608,32.995716 C22.8691589,33.1003977 22.9108909,33.1422704 23.1195511,33.3097611 C23.1195511,33.3097611 23.5994696,33.6866153 24.7053687,33.6238063 C25.4774115,33.5819336 26.1659902,33.4353792 26.1659902,33.4353792 L26.1659902,30.9648908 C26.1451241,30.9648908 25.4565455,30.8602091 24.6845027,30.8392727 Z M38.2474163,28.4944024 C37.9135599,27.9919302 37.4336414,27.6988214 36.7450627,27.6988214 C36.035618,27.6988214 35.5348335,27.9709938 35.2009772,28.4944024 C34.992317,28.8293839 34.8462549,29.2481107 34.7627908,29.7715193 L38.6021386,29.7715193 C38.5812726,29.2690471 38.4769425,28.8293839 38.2474163,28.4944024 Z M59.98981,28.4944024 C59.6559537,27.9919302 59.1551692,27.7406941 58.4457245,27.7406941 C57.7362797,27.7406941 57.2354952,27.9919302 56.9016389,28.4944024 C56.5677826,28.9968746 56.4008544,29.7296466 56.4008544,30.6508457 C56.4008544,31.5720447 56.5677826,32.3048167 56.9016389,32.8282253 C57.2354952,33.3306975 57.7362797,33.5819336 58.4457245,33.5819336 C59.1551692,33.5819336 59.6559537,33.3306975 59.98981,32.8282253 C60.3236663,32.3048167 60.5114605,31.5720447 60.5114605,30.6508457 C60.4905945,29.7296466 60.3236663,28.9968746 59.98981,28.4944024 Z M59.98981,28.4944024 C59.6559537,27.9919302 59.1551692,27.7406941 58.4457245,27.7406941 C57.7362797,27.7406941 57.2354952,27.9919302 56.9016389,28.4944024 C56.5677826,28.9968746 56.4008544,29.7296466 56.4008544,30.6508457 C56.4008544,31.5720447 56.5677826,32.3048167 56.9016389,32.8282253 C57.2354952,33.3306975 57.7362797,33.5819336 58.4457245,33.5819336 C59.1551692,33.5819336 59.6559537,33.3306975 59.98981,32.8282253 C60.3236663,32.3048167 60.5114605,31.5720447 60.5114605,30.6508457 C60.4905945,29.7296466 60.3236663,28.9968746 59.98981,28.4944024 Z M38.2474163,28.4944024 C37.9135599,27.9919302 37.4336414,27.6988214 36.7450627,27.6988214 C36.035618,27.6988214 35.5348335,27.9709938 35.2009772,28.4944024 C34.992317,28.8293839 34.8462549,29.2481107 34.7627908,29.7715193 L38.6021386,29.7715193 C38.5812726,29.2690471 38.4769425,28.8293839 38.2474163,28.4944024 Z M24.6845027,30.8392727 C23.5786036,30.8183364 23.1195511,31.2370632 23.1195511,31.2370632 C22.8065608,31.467363 22.6396326,31.8023445 22.6396326,32.2838804 C22.6396326,32.5769892 22.7022307,32.8282253 22.8065608,32.995716 C22.8691589,33.1003977 22.9108909,33.1422704 23.1195511,33.3097611 C23.1195511,33.3097611 23.5994696,33.6866153 24.7053687,33.6238063 C25.4774115,33.5819336 26.1659902,33.4353792 26.1659902,33.4353792 L26.1659902,30.9648908 C26.1451241,30.9648908 25.4565455,30.8602091 24.6845027,30.8392727 Z M24.6845027,30.8392727 C23.5786036,30.8183364 23.1195511,31.2370632 23.1195511,31.2370632 C22.8065608,31.467363 22.6396326,31.8023445 22.6396326,32.2838804 C22.6396326,32.5769892 22.7022307,32.8282253 22.8065608,32.995716 C22.8691589,33.1003977 22.9108909,33.1422704 23.1195511,33.3097611 C23.1195511,33.3097611 23.5994696,33.6866153 24.7053687,33.6238063 C25.4774115,33.5819336 26.1659902,33.4353792 26.1659902,33.4353792 L26.1659902,30.9648908 C26.1451241,30.9648908 25.4565455,30.8602091 24.6845027,30.8392727 Z M38.2474163,28.4944024 C37.9135599,27.9919302 37.4336414,27.6988214 36.7450627,27.6988214 C36.035618,27.6988214 35.5348335,27.9709938 35.2009772,28.4944024 C34.992317,28.8293839 34.8462549,29.2481107 34.7627908,29.7715193 L38.6021386,29.7715193 C38.5812726,29.2690471 38.4769425,28.8293839 38.2474163,28.4944024 Z M59.98981,28.4944024 C59.6559537,27.9919302 59.1551692,27.7406941 58.4457245,27.7406941 C57.7362797,27.7406941 57.2354952,27.9919302 56.9016389,28.4944024 C56.5677826,28.9968746 56.4008544,29.7296466 56.4008544,30.6508457 C56.4008544,31.5720447 56.5677826,32.3048167 56.9016389,32.8282253 C57.2354952,33.3306975 57.7362797,33.5819336 58.4457245,33.5819336 C59.1551692,33.5819336 59.6559537,33.3306975 59.98981,32.8282253 C60.3236663,32.3048167 60.5114605,31.5720447 60.5114605,30.6508457 C60.4905945,29.7296466 60.3236663,28.9968746 59.98981,28.4944024 Z M59.98981,28.4944024 C59.6559537,27.9919302 59.1551692,27.7406941 58.4457245,27.7406941 C57.7362797,27.7406941 57.2354952,27.9919302 56.9016389,28.4944024 C56.5677826,28.9968746 56.4008544,29.7296466 56.4008544,30.6508457 C56.4008544,31.5720447 56.5677826,32.3048167 56.9016389,32.8282253 C57.2354952,33.3306975 57.7362797,33.5819336 58.4457245,33.5819336 C59.1551692,33.5819336 59.6559537,33.3306975 59.98981,32.8282253 C60.3236663,32.3048167 60.5114605,31.5720447 60.5114605,30.6508457 C60.4905945,29.7296466 60.3236663,28.9968746 59.98981,28.4944024 Z M38.2474163,28.4944024 C37.9135599,27.9919302 37.4336414,27.6988214 36.7450627,27.6988214 C36.035618,27.6988214 35.5348335,27.9709938 35.2009772,28.4944024 C34.992317,28.8293839 34.8462549,29.2481107 34.7627908,29.7715193 L38.6021386,29.7715193 C38.5812726,29.2690471 38.4769425,28.8293839 38.2474163,28.4944024 Z M24.6845027,30.8392727 C23.5786036,30.8183364 23.1195511,31.2370632 23.1195511,31.2370632 C22.8065608,31.467363 22.6396326,31.8023445 22.6396326,32.2838804 C22.6396326,32.5769892 22.7022307,32.8282253 22.8065608,32.995716 C22.8691589,33.1003977 22.9108909,33.1422704 23.1195511,33.3097611 C23.1195511,33.3097611 23.5994696,33.6866153 24.7053687,33.6238063 C25.4774115,33.5819336 26.1659902,33.4353792 26.1659902,33.4353792 L26.1659902,30.9648908 C26.1451241,30.9648908 25.4565455,30.8602091 24.6845027,30.8392727 Z M24.6845027,30.8392727 C23.5786036,30.8183364 23.1195511,31.2370632 23.1195511,31.2370632 C22.8065608,31.467363 22.6396326,31.8023445 22.6396326,32.2838804 C22.6396326,32.5769892 22.7022307,32.8282253 22.8065608,32.995716 C22.8691589,33.1003977 22.9108909,33.1422704 23.1195511,33.3097611 C23.1195511,33.3097611 23.5994696,33.6866153 24.7053687,33.6238063 C25.4774115,33.5819336 26.1659902,33.4353792 26.1659902,33.4353792 L26.1659902,30.9648908 C26.1451241,30.9648908 25.4565455,30.8602091 24.6845027,30.8392727 Z M38.2474163,28.4944024 C37.9135599,27.9919302 37.4336414,27.6988214 36.7450627,27.6988214 C36.035618,27.6988214 35.5348335,27.9709938 35.2009772,28.4944024 C34.992317,28.8293839 34.8462549,29.2481107 34.7627908,29.7715193 L38.6021386,29.7715193 C38.5812726,29.2690471 38.4769425,28.8293839 38.2474163,28.4944024 Z M59.98981,28.4944024 C59.6559537,27.9919302 59.1551692,27.7406941 58.4457245,27.7406941 C57.7362797,27.7406941 57.2354952,27.9919302 56.9016389,28.4944024 C56.5677826,28.9968746 56.4008544,29.7296466 56.4008544,30.6508457 C56.4008544,31.5720447 56.5677826,32.3048167 56.9016389,32.8282253 C57.2354952,33.3306975 57.7362797,33.5819336 58.4457245,33.5819336 C59.1551692,33.5819336 59.6559537,33.3306975 59.98981,32.8282253 C60.3236663,32.3048167 60.5114605,31.5720447 60.5114605,30.6508457 C60.4905945,29.7296466 60.3236663,28.9968746 59.98981,28.4944024 Z M59.98981,28.4944024 C59.6559537,27.9919302 59.1551692,27.7406941 58.4457245,27.7406941 C57.7362797,27.7406941 57.2354952,27.9919302 56.9016389,28.4944024 C56.5677826,28.9968746 56.4008544,29.7296466 56.4008544,30.6508457 C56.4008544,31.5720447 56.5677826,32.3048167 56.9016389,32.8282253 C57.2354952,33.3306975 57.7362797,33.5819336 58.4457245,33.5819336 C59.1551692,33.5819336 59.6559537,33.3306975 59.98981,32.8282253 C60.3236663,32.3048167 60.5114605,31.5720447 60.5114605,30.6508457 C60.4905945,29.7296466 60.3236663,28.9968746 59.98981,28.4944024 Z M38.2474163,28.4944024 C37.9135599,27.9919302 37.4336414,27.6988214 36.7450627,27.6988214 C36.035618,27.6988214 35.5348335,27.9709938 35.2009772,28.4944024 C34.992317,28.8293839 34.8462549,29.2481107 34.7627908,29.7715193 L38.6021386,29.7715193 C38.5812726,29.2690471 38.4769425,28.8293839 38.2474163,28.4944024 Z M24.6845027,30.8392727 C23.5786036,30.8183364 23.1195511,31.2370632 23.1195511,31.2370632 C22.8065608,31.467363 22.6396326,31.8023445 22.6396326,32.2838804 C22.6396326,32.5769892 22.7022307,32.8282253 22.8065608,32.995716 C22.8691589,33.1003977 22.9108909,33.1422704 23.1195511,33.3097611 C23.1195511,33.3097611 23.5994696,33.6866153 24.7053687,33.6238063 C25.4774115,33.5819336 26.1659902,33.4353792 26.1659902,33.4353792 L26.1659902,30.9648908 C26.1451241,30.9648908 25.4565455,30.8602091 24.6845027,30.8392727 Z M24.6845027,30.8392727 C23.5786036,30.8183364 23.1195511,31.2370632 23.1195511,31.2370632 C22.8065608,31.467363 22.6396326,31.8023445 22.6396326,32.2838804 C22.6396326,32.5769892 22.7022307,32.8282253 22.8065608,32.995716 C22.8691589,33.1003977 22.9108909,33.1422704 23.1195511,33.3097611 C23.1195511,33.3097611 23.5994696,33.6866153 24.7053687,33.6238063 C25.4774115,33.5819336 26.1659902,33.4353792 26.1659902,33.4353792 L26.1659902,30.9648908 C26.1451241,30.9648908 25.4565455,30.8602091 24.6845027,30.8392727 Z M38.2474163,28.4944024 C37.9135599,27.9919302 37.4336414,27.6988214 36.7450627,27.6988214 C36.035618,27.6988214 35.5348335,27.9709938 35.2009772,28.4944024 C34.992317,28.8293839 34.8462549,29.2481107 34.7627908,29.7715193 L38.6021386,29.7715193 C38.5812726,29.2690471 38.4769425,28.8293839 38.2474163,28.4944024 Z M59.98981,28.4944024 C59.6559537,27.9919302 59.1551692,27.7406941 58.4457245,27.7406941 C57.7362797,27.7406941 57.2354952,27.9919302 56.9016389,28.4944024 C56.5677826,28.9968746 56.4008544,29.7296466 56.4008544,30.6508457 C56.4008544,31.5720447 56.5677826,32.3048167 56.9016389,32.8282253 C57.2354952,33.3306975 57.7362797,33.5819336 58.4457245,33.5819336 C59.1551692,33.5819336 59.6559537,33.3306975 59.98981,32.8282253 C60.3236663,32.3048167 60.5114605,31.5720447 60.5114605,30.6508457 C60.4905945,29.7296466 60.3236663,28.9968746 59.98981,28.4944024 Z M59.98981,28.4944024 C59.6559537,27.9919302 59.1551692,27.7406941 58.4457245,27.7406941 C57.7362797,27.7406941 57.2354952,27.9919302 56.9016389,28.4944024 C56.5677826,28.9968746 56.4008544,29.7296466 56.4008544,30.6508457 C56.4008544,31.5720447 56.5677826,32.3048167 56.9016389,32.8282253 C57.2354952,33.3306975 57.7362797,33.5819336 58.4457245,33.5819336 C59.1551692,33.5819336 59.6559537,33.3306975 59.98981,32.8282253 C60.3236663,32.3048167 60.5114605,31.5720447 60.5114605,30.6508457 C60.4905945,29.7296466 60.3236663,28.9968746 59.98981,28.4944024 Z M38.2474163,28.4944024 C37.9135599,27.9919302 37.4336414,27.6988214 36.7450627,27.6988214 C36.035618,27.6988214 35.5348335,27.9709938 35.2009772,28.4944024 C34.992317,28.8293839 34.8462549,29.2481107 34.7627908,29.7715193 L38.6021386,29.7715193 C38.5812726,29.2690471 38.4769425,28.8293839 38.2474163,28.4944024 Z M24.6845027,30.8392727 C23.5786036,30.8183364 23.1195511,31.2370632 23.1195511,31.2370632 C22.8065608,31.467363 22.6396326,31.8023445 22.6396326,32.2838804 C22.6396326,32.5769892 22.7022307,32.8282253 22.8065608,32.995716 C22.8691589,33.1003977 22.9108909,33.1422704 23.1195511,33.3097611 C23.1195511,33.3097611 23.5994696,33.6866153 24.7053687,33.6238063 C25.4774115,33.5819336 26.1659902,33.4353792 26.1659902,33.4353792 L26.1659902,30.9648908 C26.1451241,30.9648908 25.4565455,30.8602091 24.6845027,30.8392727 Z M24.6845027,30.8392727 C23.5786036,30.8183364 23.1195511,31.2370632 23.1195511,31.2370632 C22.8065608,31.467363 22.6396326,31.8023445 22.6396326,32.2838804 C22.6396326,32.5769892 22.7022307,32.8282253 22.8065608,32.995716 C22.8691589,33.1003977 22.9108909,33.1422704 23.1195511,33.3097611 C23.1195511,33.3097611 23.5994696,33.6866153 24.7053687,33.6238063 C25.4774115,33.5819336 26.1659902,33.4353792 26.1659902,33.4353792 L26.1659902,30.9648908 C26.1451241,30.9648908 25.4565455,30.8602091 24.6845027,30.8392727 Z M38.2474163,28.4944024 C37.9135599,27.9919302 37.4336414,27.6988214 36.7450627,27.6988214 C36.035618,27.6988214 35.5348335,27.9709938 35.2009772,28.4944024 C34.992317,28.8293839 34.8462549,29.2481107 34.7627908,29.7715193 L38.6021386,29.7715193 C38.5812726,29.2690471 38.4769425,28.8293839 38.2474163,28.4944024 Z M59.98981,28.4944024 C59.6559537,27.9919302 59.1551692,27.7406941 58.4457245,27.7406941 C57.7362797,27.7406941 57.2354952,27.9919302 56.9016389,28.4944024 C56.5677826,28.9968746 56.4008544,29.7296466 56.4008544,30.6508457 C56.4008544,31.5720447 56.5677826,32.3048167 56.9016389,32.8282253 C57.2354952,33.3306975 57.7362797,33.5819336 58.4457245,33.5819336 C59.1551692,33.5819336 59.6559537,33.3306975 59.98981,32.8282253 C60.3236663,32.3048167 60.5114605,31.5720447 60.5114605,30.6508457 C60.4905945,29.7296466 60.3236663,28.9968746 59.98981,28.4944024 Z M59.98981,28.4944024 C59.6559537,27.9919302 59.1551692,27.7406941 58.4457245,27.7406941 C57.7362797,27.7406941 57.2354952,27.9919302 56.9016389,28.4944024 C56.5677826,28.9968746 56.4008544,29.7296466 56.4008544,30.6508457 C56.4008544,31.5720447 56.5677826,32.3048167 56.9016389,32.8282253 C57.2354952,33.3306975 57.7362797,33.5819336 58.4457245,33.5819336 C59.1551692,33.5819336 59.6559537,33.3306975 59.98981,32.8282253 C60.3236663,32.3048167 60.5114605,31.5720447 60.5114605,30.6508457 C60.4905945,29.7296466 60.3236663,28.9968746 59.98981,28.4944024 Z M38.2474163,28.4944024 C37.9135599,27.9919302 37.4336414,27.6988214 36.7450627,27.6988214 C36.035618,27.6988214 35.5348335,27.9709938 35.2009772,28.4944024 C34.992317,28.8293839 34.8462549,29.2481107 34.7627908,29.7715193 L38.6021386,29.7715193 C38.5812726,29.2690471 38.4769425,28.8293839 38.2474163,28.4944024 Z M24.6845027,30.8392727 C23.5786036,30.8183364 23.1195511,31.2370632 23.1195511,31.2370632 C22.8065608,31.467363 22.6396326,31.8023445 22.6396326,32.2838804 C22.6396326,32.5769892 22.7022307,32.8282253 22.8065608,32.995716 C22.8691589,33.1003977 22.9108909,33.1422704 23.1195511,33.3097611 C23.1195511,33.3097611 23.5994696,33.6866153 24.7053687,33.6238063 C25.4774115,33.5819336 26.1659902,33.4353792 26.1659902,33.4353792 L26.1659902,30.9648908 C26.1451241,30.9648908 25.4565455,30.8602091 24.6845027,30.8392727 Z M24.6845027,30.8392727 C23.5786036,30.8183364 23.1195511,31.2370632 23.1195511,31.2370632 C22.8065608,31.467363 22.6396326,31.8023445 22.6396326,32.2838804 C22.6396326,32.5769892 22.7022307,32.8282253 22.8065608,32.995716 C22.8691589,33.1003977 22.9108909,33.1422704 23.1195511,33.3097611 C23.1195511,33.3097611 23.5994696,33.6866153 24.7053687,33.6238063 C25.4774115,33.5819336 26.1659902,33.4353792 26.1659902,33.4353792 L26.1659902,30.9648908 C26.1451241,30.9648908 25.4565455,30.8602091 24.6845027,30.8392727 Z M38.2474163,28.4944024 C37.9135599,27.9919302 37.4336414,27.6988214 36.7450627,27.6988214 C36.035618,27.6988214 35.5348335,27.9709938 35.2009772,28.4944024 C34.992317,28.8293839 34.8462549,29.2481107 34.7627908,29.7715193 L38.6021386,29.7715193 C38.5812726,29.2690471 38.4769425,28.8293839 38.2474163,28.4944024 Z M59.98981,28.4944024 C59.6559537,27.9919302 59.1551692,27.7406941 58.4457245,27.7406941 C57.7362797,27.7406941 57.2354952,27.9919302 56.9016389,28.4944024 C56.5677826,28.9968746 56.4008544,29.7296466 56.4008544,30.6508457 C56.4008544,31.5720447 56.5677826,32.3048167 56.9016389,32.8282253 C57.2354952,33.3306975 57.7362797,33.5819336 58.4457245,33.5819336 C59.1551692,33.5819336 59.6559537,33.3306975 59.98981,32.8282253 C60.3236663,32.3048167 60.5114605,31.5720447 60.5114605,30.6508457 C60.4905945,29.7296466 60.3236663,28.9968746 59.98981,28.4944024 Z M59.98981,28.4944024 C59.6559537,27.9919302 59.1551692,27.7406941 58.4457245,27.7406941 C57.7362797,27.7406941 57.2354952,27.9919302 56.9016389,28.4944024 C56.5677826,28.9968746 56.4008544,29.7296466 56.4008544,30.6508457 C56.4008544,31.5720447 56.5677826,32.3048167 56.9016389,32.8282253 C57.2354952,33.3306975 57.7362797,33.5819336 58.4457245,33.5819336 C59.1551692,33.5819336 59.6559537,33.3306975 59.98981,32.8282253 C60.3236663,32.3048167 60.5114605,31.5720447 60.5114605,30.6508457 C60.4905945,29.7296466 60.3236663,28.9968746 59.98981,28.4944024 Z M38.2474163,28.4944024 C37.9135599,27.9919302 37.4336414,27.6988214 36.7450627,27.6988214 C36.035618,27.6988214 35.5348335,27.9709938 35.2009772,28.4944024 C34.992317,28.8293839 34.8462549,29.2481107 34.7627908,29.7715193 L38.6021386,29.7715193 C38.5812726,29.2690471 38.4769425,28.8293839 38.2474163,28.4944024 Z M24.6845027,30.8392727 C23.5786036,30.8183364 23.1195511,31.2370632 23.1195511,31.2370632 C22.8065608,31.467363 22.6396326,31.8023445 22.6396326,32.2838804 C22.6396326,32.5769892 22.7022307,32.8282253 22.8065608,32.995716 C22.8691589,33.1003977 22.9108909,33.1422704 23.1195511,33.3097611 C23.1195511,33.3097611 23.5994696,33.6866153 24.7053687,33.6238063 C25.4774115,33.5819336 26.1659902,33.4353792 26.1659902,33.4353792 L26.1659902,30.9648908 C26.1451241,30.9648908 25.4565455,30.8602091 24.6845027,30.8392727 Z M24.6845027,30.8392727 C23.5786036,30.8183364 23.1195511,31.2370632 23.1195511,31.2370632 C22.8065608,31.467363 22.6396326,31.8023445 22.6396326,32.2838804 C22.6396326,32.5769892 22.7022307,32.8282253 22.8065608,32.995716 C22.8691589,33.1003977 22.9108909,33.1422704 23.1195511,33.3097611 C23.1195511,33.3097611 23.5994696,33.6866153 24.7053687,33.6238063 C25.4774115,33.5819336 26.1659902,33.4353792 26.1659902,33.4353792 L26.1659902,30.9648908 C26.1451241,30.9648908 25.4565455,30.8602091 24.6845027,30.8392727 Z M38.2474163,28.4944024 C37.9135599,27.9919302 37.4336414,27.6988214 36.7450627,27.6988214 C36.035618,27.6988214 35.5348335,27.9709938 35.2009772,28.4944024 C34.992317,28.8293839 34.8462549,29.2481107 34.7627908,29.7715193 L38.6021386,29.7715193 C38.5812726,29.2690471 38.4769425,28.8293839 38.2474163,28.4944024 Z M59.98981,28.4944024 C59.6559537,27.9919302 59.1551692,27.7406941 58.4457245,27.7406941 C57.7362797,27.7406941 57.2354952,27.9919302 56.9016389,28.4944024 C56.5677826,28.9968746 56.4008544,29.7296466 56.4008544,30.6508457 C56.4008544,31.5720447 56.5677826,32.3048167 56.9016389,32.8282253 C57.2354952,33.3306975 57.7362797,33.5819336 58.4457245,33.5819336 C59.1551692,33.5819336 59.6559537,33.3306975 59.98981,32.8282253 C60.3236663,32.3048167 60.5114605,31.5720447 60.5114605,30.6508457 C60.4905945,29.7296466 60.3236663,28.9968746 59.98981,28.4944024 Z M59.98981,28.4944024 C59.6559537,27.9919302 59.1551692,27.7406941 58.4457245,27.7406941 C57.7362797,27.7406941 57.2354952,27.9919302 56.9016389,28.4944024 C56.5677826,28.9968746 56.4008544,29.7296466 56.4008544,30.6508457 C56.4008544,31.5720447 56.5677826,32.3048167 56.9016389,32.8282253 C57.2354952,33.3306975 57.7362797,33.5819336 58.4457245,33.5819336 C59.1551692,33.5819336 59.6559537,33.3306975 59.98981,32.8282253 C60.3236663,32.3048167 60.5114605,31.5720447 60.5114605,30.6508457 C60.4905945,29.7296466 60.3236663,28.9968746 59.98981,28.4944024 Z M38.2474163,28.4944024 C37.9135599,27.9919302 37.4336414,27.6988214 36.7450627,27.6988214 C36.035618,27.6988214 35.5348335,27.9709938 35.2009772,28.4944024 C34.992317,28.8293839 34.8462549,29.2481107 34.7627908,29.7715193 L38.6021386,29.7715193 C38.5812726,29.2690471 38.4769425,28.8293839 38.2474163,28.4944024 Z M24.6845027,30.8392727 C23.5786036,30.8183364 23.1195511,31.2370632 23.1195511,31.2370632 C22.8065608,31.467363 22.6396326,31.8023445 22.6396326,32.2838804 C22.6396326,32.5769892 22.7022307,32.8282253 22.8065608,32.995716 C22.8691589,33.1003977 22.9108909,33.1422704 23.1195511,33.3097611 C23.1195511,33.3097611 23.5994696,33.6866153 24.7053687,33.6238063 C25.4774115,33.5819336 26.1659902,33.4353792 26.1659902,33.4353792 L26.1659902,30.9648908 C26.1451241,30.9648908 25.4565455,30.8602091 24.6845027,30.8392727 Z M24.6845027,30.8392727 C23.5786036,30.8183364 23.1195511,31.2370632 23.1195511,31.2370632 C22.8065608,31.467363 22.6396326,31.8023445 22.6396326,32.2838804 C22.6396326,32.5769892 22.7022307,32.8282253 22.8065608,32.995716 C22.8691589,33.1003977 22.9108909,33.1422704 23.1195511,33.3097611 C23.1195511,33.3097611 23.5994696,33.6866153 24.7053687,33.6238063 C25.4774115,33.5819336 26.1659902,33.4353792 26.1659902,33.4353792 L26.1659902,30.9648908 C26.1451241,30.9648908 25.4565455,30.8602091 24.6845027,30.8392727 Z M38.2474163,28.4944024 C37.9135599,27.9919302 37.4336414,27.6988214 36.7450627,27.6988214 C36.035618,27.6988214 35.5348335,27.9709938 35.2009772,28.4944024 C34.992317,28.8293839 34.8462549,29.2481107 34.7627908,29.7715193 L38.6021386,29.7715193 C38.5812726,29.2690471 38.4769425,28.8293839 38.2474163,28.4944024 Z M59.98981,28.4944024 C59.6559537,27.9919302 59.1551692,27.7406941 58.4457245,27.7406941 C57.7362797,27.7406941 57.2354952,27.9919302 56.9016389,28.4944024 C56.5677826,28.9968746 56.4008544,29.7296466 56.4008544,30.6508457 C56.4008544,31.5720447 56.5677826,32.3048167 56.9016389,32.8282253 C57.2354952,33.3306975 57.7362797,33.5819336 58.4457245,33.5819336 C59.1551692,33.5819336 59.6559537,33.3306975 59.98981,32.8282253 C60.3236663,32.3048167 60.5114605,31.5720447 60.5114605,30.6508457 C60.4905945,29.7296466 60.3236663,28.9968746 59.98981,28.4944024 Z M59.98981,28.4944024 C59.6559537,27.9919302 59.1551692,27.7406941 58.4457245,27.7406941 C57.7362797,27.7406941 57.2354952,27.9919302 56.9016389,28.4944024 C56.5677826,28.9968746 56.4008544,29.7296466 56.4008544,30.6508457 C56.4008544,31.5720447 56.5677826,32.3048167 56.9016389,32.8282253 C57.2354952,33.3306975 57.7362797,33.5819336 58.4457245,33.5819336 C59.1551692,33.5819336 59.6559537,33.3306975 59.98981,32.8282253 C60.3236663,32.3048167 60.5114605,31.5720447 60.5114605,30.6508457 C60.4905945,29.7296466 60.3236663,28.9968746 59.98981,28.4944024 Z M38.2474163,28.4944024 C37.9135599,27.9919302 37.4336414,27.6988214 36.7450627,27.6988214 C36.035618,27.6988214 35.5348335,27.9709938 35.2009772,28.4944024 C34.992317,28.8293839 34.8462549,29.2481107 34.7627908,29.7715193 L38.6021386,29.7715193 C38.5812726,29.2690471 38.4769425,28.8293839 38.2474163,28.4944024 Z M24.6845027,30.8392727 C23.5786036,30.8183364 23.1195511,31.2370632 23.1195511,31.2370632 C22.8065608,31.467363 22.6396326,31.8023445 22.6396326,32.2838804 C22.6396326,32.5769892 22.7022307,32.8282253 22.8065608,32.995716 C22.8691589,33.1003977 22.9108909,33.1422704 23.1195511,33.3097611 C23.1195511,33.3097611 23.5994696,33.6866153 24.7053687,33.6238063 C25.4774115,33.5819336 26.1659902,33.4353792 26.1659902,33.4353792 L26.1659902,30.9648908 C26.1451241,30.9648908 25.4565455,30.8602091 24.6845027,30.8392727 Z M24.6845027,30.8392727 C23.5786036,30.8183364 23.1195511,31.2370632 23.1195511,31.2370632 C22.8065608,31.467363 22.6396326,31.8023445 22.6396326,32.2838804 C22.6396326,32.5769892 22.7022307,32.8282253 22.8065608,32.995716 C22.8691589,33.1003977 22.9108909,33.1422704 23.1195511,33.3097611 C23.1195511,33.3097611 23.5994696,33.6866153 24.7053687,33.6238063 C25.4774115,33.5819336 26.1659902,33.4353792 26.1659902,33.4353792 L26.1659902,30.9648908 C26.1451241,30.9648908 25.4565455,30.8602091 24.6845027,30.8392727 Z M38.2474163,28.4944024 C37.9135599,27.9919302 37.4336414,27.6988214 36.7450627,27.6988214 C36.035618,27.6988214 35.5348335,27.9709938 35.2009772,28.4944024 C34.992317,28.8293839 34.8462549,29.2481107 34.7627908,29.7715193 L38.6021386,29.7715193 C38.5812726,29.2690471 38.4769425,28.8293839 38.2474163,28.4944024 Z M59.98981,28.4944024 C59.6559537,27.9919302 59.1551692,27.7406941 58.4457245,27.7406941 C57.7362797,27.7406941 57.2354952,27.9919302 56.9016389,28.4944024 C56.5677826,28.9968746 56.4008544,29.7296466 56.4008544,30.6508457 C56.4008544,31.5720447 56.5677826,32.3048167 56.9016389,32.8282253 C57.2354952,33.3306975 57.7362797,33.5819336 58.4457245,33.5819336 C59.1551692,33.5819336 59.6559537,33.3306975 59.98981,32.8282253 C60.3236663,32.3048167 60.5114605,31.5720447 60.5114605,30.6508457 C60.4905945,29.7296466 60.3236663,28.9968746 59.98981,28.4944024 Z M59.98981,28.4944024 C59.6559537,27.9919302 59.1551692,27.7406941 58.4457245,27.7406941 C57.7362797,27.7406941 57.2354952,27.9919302 56.9016389,28.4944024 C56.5677826,28.9968746 56.4008544,29.7296466 56.4008544,30.6508457 C56.4008544,31.5720447 56.5677826,32.3048167 56.9016389,32.8282253 C57.2354952,33.3306975 57.7362797,33.5819336 58.4457245,33.5819336 C59.1551692,33.5819336 59.6559537,33.3306975 59.98981,32.8282253 C60.3236663,32.3048167 60.5114605,31.5720447 60.5114605,30.6508457 C60.4905945,29.7296466 60.3236663,28.9968746 59.98981,28.4944024 Z M38.2474163,28.4944024 C37.9135599,27.9919302 37.4336414,27.6988214 36.7450627,27.6988214 C36.035618,27.6988214 35.5348335,27.9709938 35.2009772,28.4944024 C34.992317,28.8293839 34.8462549,29.2481107 34.7627908,29.7715193 L38.6021386,29.7715193 C38.5812726,29.2690471 38.4769425,28.8293839 38.2474163,28.4944024 Z M24.6845027,30.8392727 C23.5786036,30.8183364 23.1195511,31.2370632 23.1195511,31.2370632 C22.8065608,31.467363 22.6396326,31.8023445 22.6396326,32.2838804 C22.6396326,32.5769892 22.7022307,32.8282253 22.8065608,32.995716 C22.8691589,33.1003977 22.9108909,33.1422704 23.1195511,33.3097611 C23.1195511,33.3097611 23.5994696,33.6866153 24.7053687,33.6238063 C25.4774115,33.5819336 26.1659902,33.4353792 26.1659902,33.4353792 L26.1659902,30.9648908 C26.1451241,30.9648908 25.4565455,30.8602091 24.6845027,30.8392727 Z M38.2474163,28.4944024 C37.9135599,27.9919302 37.4336414,27.6988214 36.7450627,27.6988214 C36.035618,27.6988214 35.5348335,27.9709938 35.2009772,28.4944024 C34.992317,28.8293839 34.8462549,29.2481107 34.7627908,29.7715193 L38.6021386,29.7715193 C38.5812726,29.2690471 38.4769425,28.8293839 38.2474163,28.4944024 Z M59.98981,28.4944024 C59.6559537,27.9919302 59.1551692,27.7406941 58.4457245,27.7406941 C57.7362797,27.7406941 57.2354952,27.9919302 56.9016389,28.4944024 C56.5677826,28.9968746 56.4008544,29.7296466 56.4008544,30.6508457 C56.4008544,31.5720447 56.5677826,32.3048167 56.9016389,32.8282253 C57.2354952,33.3306975 57.7362797,33.5819336 58.4457245,33.5819336 C59.1551692,33.5819336 59.6559537,33.3306975 59.98981,32.8282253 C60.3236663,32.3048167 60.5114605,31.5720447 60.5114605,30.6508457 C60.4905945,29.7296466 60.3236663,28.9968746 59.98981,28.4944024 Z M59.98981,28.4944024 C59.6559537,27.9919302 59.1551692,27.7406941 58.4457245,27.7406941 C57.7362797,27.7406941 57.2354952,27.9919302 56.9016389,28.4944024 C56.5677826,28.9968746 56.4008544,29.7296466 56.4008544,30.6508457 C56.4008544,31.5720447 56.5677826,32.3048167 56.9016389,32.8282253 C57.2354952,33.3306975 57.7362797,33.5819336 58.4457245,33.5819336 C59.1551692,33.5819336 59.6559537,33.3306975 59.98981,32.8282253 C60.3236663,32.3048167 60.5114605,31.5720447 60.5114605,30.6508457 C60.4905945,29.7296466 60.3236663,28.9968746 59.98981,28.4944024 Z M38.2474163,28.4944024 C37.9135599,27.9919302 37.4336414,27.6988214 36.7450627,27.6988214 C36.035618,27.6988214 35.5348335,27.9709938 35.2009772,28.4944024 C34.992317,28.8293839 34.8462549,29.2481107 34.7627908,29.7715193 L38.6021386,29.7715193 C38.5812726,29.2690471 38.4769425,28.8293839 38.2474163,28.4944024 Z M59.98981,28.4944024 C59.6559537,27.9919302 59.1551692,27.7406941 58.4457245,27.7406941 C57.7362797,27.7406941 57.2354952,27.9919302 56.9016389,28.4944024 C56.5677826,28.9968746 56.4008544,29.7296466 56.4008544,30.6508457 C56.4008544,31.5720447 56.5677826,32.3048167 56.9016389,32.8282253 C57.2354952,33.3306975 57.7362797,33.5819336 58.4457245,33.5819336 C59.1551692,33.5819336 59.6559537,33.3306975 59.98981,32.8282253 C60.3236663,32.3048167 60.5114605,31.5720447 60.5114605,30.6508457 C60.4905945,29.7296466 60.3236663,28.9968746 59.98981,28.4944024 Z M59.98981,28.4944024 C59.6559537,27.9919302 59.1551692,27.7406941 58.4457245,27.7406941 C57.7362797,27.7406941 57.2354952,27.9919302 56.9016389,28.4944024 C56.5677826,28.9968746 56.4008544,29.7296466 56.4008544,30.6508457 C56.4008544,31.5720447 56.5677826,32.3048167 56.9016389,32.8282253 C57.2354952,33.3306975 57.7362797,33.5819336 58.4457245,33.5819336 C59.1551692,33.5819336 59.6559537,33.3306975 59.98981,32.8282253 C60.3236663,32.3048167 60.5114605,31.5720447 60.5114605,30.6508457 C60.4905945,29.7296466 60.3236663,28.9968746 59.98981,28.4944024 Z M59.98981,28.4944024 C59.6559537,27.9919302 59.1551692,27.7406941 58.4457245,27.7406941 C57.7362797,27.7406941 57.2354952,27.9919302 56.9016389,28.4944024 C56.5677826,28.9968746 56.4008544,29.7296466 56.4008544,30.6508457 C56.4008544,31.5720447 56.5677826,32.3048167 56.9016389,32.8282253 C57.2354952,33.3306975 57.7362797,33.5819336 58.4457245,33.5819336 C59.1551692,33.5819336 59.6559537,33.3306975 59.98981,32.8282253 C60.3236663,32.3048167 60.5114605,31.5720447 60.5114605,30.6508457 C60.4905945,29.7296466 60.3236663,28.9968746 59.98981,28.4944024 Z M59.98981,28.4944024 C59.6559537,27.9919302 59.1551692,27.7406941 58.4457245,27.7406941 C57.7362797,27.7406941 57.2354952,27.9919302 56.9016389,28.4944024 C56.5677826,28.9968746 56.4008544,29.7296466 56.4008544,30.6508457 C56.4008544,31.5720447 56.5677826,32.3048167 56.9016389,32.8282253 C57.2354952,33.3306975 57.7362797,33.5819336 58.4457245,33.5819336 C59.1551692,33.5819336 59.6559537,33.3306975 59.98981,32.8282253 C60.3236663,32.3048167 60.5114605,31.5720447 60.5114605,30.6508457 C60.4905945,29.7296466 60.3236663,28.9968746 59.98981,28.4944024 Z" id="Shape"></path>
            </g>
        </g>
    </g>
</svg>