<?xml version="1.0" encoding="utf-8"?>
<!-- Generator: Adobe Illustrator 22.0.1, SVG Export Plug-In . SVG Version: 6.00 Build 0)  -->
<svg version="1.1" id="Layer_1" xmlns="http://www.w3.org/2000/svg" xmlns:xlink="http://www.w3.org/1999/xlink" x="0px" y="0px"
	 viewBox="0 0 279.9 88.3" style="enable-background:new 0 0 279.9 88.3;" xml:space="preserve">
<style type="text/css">
	.st0{fill:#231F20;}
</style>
<title>GoPro_Mono_Blk</title>
<g id="Layer_2_1_">
	<g id="R">
		<path class="st0" d="M101.8,39c12.4,0,18.6-3.2,18.6-9.8V18.1c0-6.6-6.2-9.8-18.6-9.8H86.9c-12.4,0-18.6,3.2-18.6,9.8v11.1
			c0,6.6,6.2,9.8,18.6,9.8H101.8z M101.8,33.3H86.9c-6.9,0-10.2-1.2-10.2-3.6v-12c0-2.4,3.3-3.6,10.2-3.6h14.9
			c6.9,0,10.2,1.2,10.2,3.6v12C112,32.1,108.8,33.3,101.8,33.3"/>
		<path class="st0" d="M261.3,39c12.4,0,18.6-3.2,18.6-9.8V18.1c0-6.6-6.2-9.8-18.6-9.8h-14.9c-12.4,0-18.6,3.2-18.6,9.8v11.1
			c0,6.6,6.2,9.8,18.6,9.8H261.3z M261.3,33.3h-14.9c-6.9,0-10.2-1.2-10.2-3.6v-12c0-2.4,3.3-3.6,10.2-3.6h14.9
			c6.9,0,10.2,1.2,10.2,3.6v12C271.6,32.1,268.3,33.3,261.3,33.3"/>
		<path class="st0" d="M59.7,29.1v-7.7c0-1.7-1-2.4-3.1-2.4H38.5c-1.7,0.1-3.1,1.5-3,3.3c0.1,1.6,1.4,2.9,3,3h12.4v4.1
			c0,1.2-1.6,2.4-4.3,3.2c-1.9,0.5-3.9,0.7-5.8,0.6h-20c-8,0-11.9-1.3-11.9-4V9.6c0-2.6,4.8-3.9,14.3-3.9h5.6c2.1,0,3.2-1,3.2-2.9
			C31.9,1,30.9,0,28.7,0h-8c-4.5-0.1-8.9,0.5-13.2,1.9C3.1,3.4,0,6.1,0,9.6v19.6c0,3.6,2.5,6.3,7.4,7.9c4.3,1.3,8.8,1.9,13.3,1.8
			h20.1c4.2,0.1,8.5-0.6,12.4-2C57.6,35.2,59.8,32.6,59.7,29.1z"/>
		<path class="st0" d="M182,1.6c-4.2-1.2-8.4-1.7-12.8-1.6h-37.5c-1.4,0-2.5,1.1-2.5,2.5v33.9c0,1.7,1.1,2.6,3.1,2.6h2.6
			c2,0,3.1-0.8,3.1-2.6V25h31.2c4.5,0.1,8.9-0.5,13.2-1.8c4.8-1.8,7.3-4.6,7.3-8.5V8.6C189.7,5.6,187.1,3.2,182,1.6z M180.8,15.2
			c0,3.1-3.9,4.1-11.6,4.1H138V5.8h31.2c7.7,0,11.6,0.9,11.6,4.1V15.2z"/>
		<path class="st0" d="M218.9,8.3c-7.7,0-11-0.1-15.5,1.7c-4.3,1.8-6.1,4.9-6.1,7.7v18.8c0,1.6,1,2.4,3,2.4h2.5c1.9,0,3-0.8,3-2.4
			V17.8c0-2.6,3.3-3.7,9.7-3.7h3.6c2.1,0,3.1-1,3.1-2.9C222,9.3,221,8.3,218.9,8.3"/>
		<rect y="48.6" class="st0" width="60.7" height="39.8"/>
		<rect x="73.1" y="48.6" class="st0" width="60.7" height="39.8"/>
		<rect x="146.1" y="48.6" class="st0" width="60.7" height="39.8"/>
		<rect x="219.2" y="48.6" class="st0" width="60.7" height="39.8"/>
	</g>
</g>
</svg>
