<svg width="1024" height="640" viewBox="0 0 1024 640" fill="none" xmlns="http://www.w3.org/2000/svg">
<g clip-path="url(#clip0)">
<rect width="1024" height="640" fill="#F7F7F7"/>
<rect x="132" y="232" width="176" height="176" rx="28" fill="#F7F7F7" stroke="#222222" stroke-width="4"/>
<path d="M191.436 309.7H185.951V315H183.473V302.203H192.121V304.216H185.951V307.696H191.436V309.7ZM194.723 301.5H200.04V313.014H202.765V315H194.723V313.014H197.57V303.495H194.723V301.5ZM204.689 310.157C204.689 309.466 204.789 308.827 204.988 308.241C205.188 307.649 205.478 307.137 205.858 306.703C206.245 306.27 206.714 305.93 207.265 305.684C207.821 305.438 208.457 305.314 209.172 305.314C209.887 305.314 210.522 305.438 211.079 305.684C211.636 305.93 212.104 306.27 212.485 306.703C212.872 307.137 213.165 307.649 213.364 308.241C213.563 308.827 213.663 309.466 213.663 310.157V310.342C213.663 311.039 213.563 311.684 213.364 312.275C213.165 312.861 212.875 313.371 212.494 313.805C212.113 314.238 211.645 314.578 211.088 314.824C210.531 315.064 209.898 315.185 209.189 315.185C208.475 315.185 207.836 315.064 207.273 314.824C206.717 314.578 206.245 314.238 205.858 313.805C205.478 313.371 205.188 312.861 204.988 312.275C204.789 311.684 204.689 311.039 204.689 310.342V310.157ZM207.133 310.342C207.133 310.74 207.171 311.115 207.247 311.467C207.323 311.812 207.443 312.117 207.607 312.381C207.771 312.639 207.982 312.844 208.24 312.996C208.504 313.148 208.82 313.225 209.189 313.225C209.547 313.225 209.854 313.148 210.112 312.996C210.37 312.844 210.578 312.639 210.736 312.381C210.9 312.117 211.021 311.812 211.097 311.467C211.173 311.115 211.211 310.74 211.211 310.342V310.157C211.211 309.771 211.173 309.404 211.097 309.059C211.021 308.713 210.9 308.408 210.736 308.145C210.578 307.881 210.37 307.673 210.112 307.521C209.854 307.368 209.541 307.292 209.172 307.292C208.809 307.292 208.498 307.368 208.24 307.521C207.982 307.673 207.771 307.881 207.607 308.145C207.443 308.408 207.323 308.713 207.247 309.059C207.171 309.404 207.133 309.771 207.133 310.157V310.342ZM221.916 312.021L222.742 305.49H224.983L223.278 315H221.134L219.886 308.953L218.682 315H216.537L214.832 305.49H217.064L217.891 312.047L219.086 305.49H220.721L221.916 312.021ZM230.222 311.071L229.114 312.1V315H226.671V301.5H229.114V309.217L229.853 308.373L232.48 305.49H235.416L231.83 309.454L235.917 315H232.92L230.222 311.071ZM238.105 305.49H243.282V313.014H245.857V315H238.105V313.014H240.812V307.485H238.105V305.49ZM240.637 303.056C240.637 302.868 240.669 302.695 240.733 302.537C240.804 302.373 240.9 302.235 241.023 302.124C241.146 302.007 241.293 301.916 241.463 301.852C241.639 301.787 241.832 301.755 242.043 301.755C242.477 301.755 242.819 301.878 243.071 302.124C243.329 302.364 243.458 302.675 243.458 303.056C243.458 303.437 243.329 303.75 243.071 303.996C242.819 304.236 242.477 304.356 242.043 304.356C241.832 304.356 241.639 304.324 241.463 304.26C241.293 304.195 241.146 304.107 241.023 303.996C240.9 303.879 240.804 303.741 240.733 303.583C240.669 303.419 240.637 303.243 240.637 303.056ZM252.748 303.161V305.49H256.299V307.292H252.748V311.379C252.748 311.725 252.786 312.015 252.862 312.249C252.944 312.478 253.059 312.662 253.205 312.803C253.352 312.938 253.527 313.034 253.732 313.093C253.943 313.151 254.178 313.181 254.436 313.181C254.623 313.181 254.813 313.172 255.007 313.154C255.206 313.137 255.394 313.116 255.569 313.093C255.751 313.063 255.918 313.034 256.07 313.005C256.229 312.976 256.363 312.946 256.475 312.917L256.712 314.596C256.542 314.695 256.343 314.783 256.114 314.859C255.886 314.93 255.643 314.988 255.385 315.035C255.127 315.082 254.857 315.117 254.576 315.141C254.301 315.17 254.028 315.185 253.759 315.185C253.237 315.185 252.763 315.117 252.335 314.982C251.913 314.842 251.55 314.628 251.245 314.341C250.946 314.048 250.715 313.679 250.551 313.233C250.387 312.782 250.305 312.243 250.305 311.616V307.292H248.134V305.49H250.305V303.161H252.748ZM213.391 339H204.663V337.33L208.803 332.883C209.125 332.531 209.397 332.212 209.62 331.925C209.843 331.638 210.021 331.377 210.156 331.143C210.297 330.902 210.396 330.68 210.455 330.475C210.52 330.27 210.552 330.07 210.552 329.877C210.552 329.59 210.511 329.335 210.429 329.112C210.347 328.89 210.229 328.702 210.077 328.55C209.931 328.392 209.752 328.271 209.541 328.189C209.336 328.107 209.107 328.066 208.855 328.066C208.182 328.066 207.678 328.254 207.344 328.629C207.016 329.004 206.852 329.528 206.852 330.202H204.399C204.399 329.634 204.508 329.098 204.725 328.594C204.941 328.084 205.246 327.639 205.639 327.258C206.037 326.877 206.515 326.578 207.071 326.361C207.634 326.139 208.255 326.027 208.935 326.027C209.585 326.027 210.159 326.118 210.657 326.3C211.161 326.481 211.58 326.736 211.914 327.064C212.254 327.393 212.512 327.788 212.688 328.251C212.863 328.708 212.951 329.215 212.951 329.771C212.951 330.193 212.884 330.598 212.749 330.984C212.62 331.365 212.433 331.743 212.187 332.118C211.946 332.493 211.656 332.877 211.316 333.27C210.977 333.656 210.599 334.063 210.183 334.491L207.774 337.04H213.391V339ZM218.304 337.585C218.304 337.356 218.342 337.146 218.418 336.952C218.494 336.753 218.605 336.583 218.752 336.442C218.898 336.296 219.077 336.182 219.288 336.1C219.499 336.012 219.736 335.968 220 335.968C220.264 335.968 220.501 336.012 220.712 336.1C220.923 336.182 221.099 336.296 221.239 336.442C221.386 336.583 221.497 336.753 221.573 336.952C221.655 337.146 221.696 337.356 221.696 337.585C221.696 337.808 221.655 338.016 221.573 338.209C221.497 338.402 221.386 338.572 221.239 338.719C221.099 338.859 220.923 338.971 220.712 339.053C220.501 339.135 220.264 339.176 220 339.176C219.736 339.176 219.499 339.135 219.288 339.053C219.077 338.971 218.898 338.859 218.752 338.719C218.605 338.572 218.494 338.402 218.418 338.209C218.342 338.016 218.304 337.808 218.304 337.585ZM234.977 334.131C234.977 334.957 234.88 335.687 234.687 336.319C234.499 336.946 234.227 337.474 233.869 337.901C233.512 338.323 233.075 338.643 232.56 338.859C232.044 339.076 231.464 339.185 230.819 339.185C230.181 339.185 229.604 339.076 229.088 338.859C228.572 338.643 228.133 338.323 227.77 337.901C227.412 337.474 227.134 336.946 226.935 336.319C226.741 335.687 226.645 334.957 226.645 334.131V331.072C226.645 330.246 226.741 329.52 226.935 328.893C227.128 328.26 227.403 327.732 227.761 327.311C228.124 326.883 228.561 326.561 229.07 326.344C229.586 326.127 230.163 326.019 230.802 326.019C231.446 326.019 232.026 326.127 232.542 326.344C233.058 326.561 233.494 326.883 233.852 327.311C234.215 327.732 234.493 328.26 234.687 328.893C234.88 329.52 234.977 330.246 234.977 331.072V334.131ZM229.105 333.076L232.516 330.536C232.498 329.675 232.349 329.036 232.067 328.62C231.786 328.204 231.364 327.996 230.802 327.996C230.233 327.996 229.809 328.216 229.527 328.655C229.246 329.095 229.105 329.771 229.105 330.686V333.076ZM232.516 332.197L229.105 334.729C229.135 335.572 229.29 336.199 229.571 336.609C229.853 337.014 230.269 337.216 230.819 337.216C231.394 337.216 231.818 336.993 232.094 336.548C232.375 336.103 232.516 335.42 232.516 334.5V332.197Z" fill="#222222"/>
<path d="M529 320V420C529 464.183 564.817 500 609 500H709" stroke="#222222" stroke-width="4"/>
<path fill-rule="evenodd" clip-rule="evenodd" d="M704.029 510.183C702.696 510.982 701 510.022 701 508.468L701 491.532C701 489.978 702.696 489.018 704.029 489.817L718.142 498.285C719.436 499.062 719.436 500.938 718.142 501.715L704.029 510.183Z" fill="#222222"/>
<path fill-rule="evenodd" clip-rule="evenodd" d="M529 312C524.582 312 521 315.582 521 320C521 324.418 524.582 328 529 328C533.418 328 537 324.418 537 320C537 315.582 533.418 312 529 312Z" fill="#222222"/>
<path d="M529 320V220C529 175.817 564.817 140 609 140H709" stroke="#222222" stroke-width="4"/>
<path fill-rule="evenodd" clip-rule="evenodd" d="M704.029 129.817C702.696 129.018 701 129.978 701 131.532L701 148.468C701 150.022 702.696 150.982 704.029 150.183L718.142 141.715C719.436 140.938 719.436 139.062 718.142 138.285L704.029 129.817Z" fill="#222222"/>
<path fill-rule="evenodd" clip-rule="evenodd" d="M529 328C524.582 328 521 324.418 521 320C521 315.582 524.582 312 529 312C533.418 312 537 315.582 537 320C537 324.418 533.418 328 529 328Z" fill="#222222"/>
<line x1="351" y1="320" x2="527" y2="320" stroke="#222222" stroke-width="4" stroke-linecap="round" stroke-linejoin="round"/>
<path d="M511.828 320L529 302.828L546.172 320L529 337.172L511.828 320Z" fill="white" stroke="#222222" stroke-width="4" stroke-linecap="round" stroke-linejoin="bevel"/>
<path fill-rule="evenodd" clip-rule="evenodd" d="M349 328C353.418 328 357 324.418 357 320C357 315.582 353.418 312 349 312C344.582 312 341 315.582 341 320C341 324.418 344.582 328 349 328Z" fill="#222222"/>
<path d="M841 452H793C779.745 452 769 462.745 769 476V524C769 537.255 779.745 548 793 548H841C854.255 548 865 537.255 865 524V476C865 462.745 854.255 452 841 452Z" fill="url(#paint0_linear)"/>
<path d="M799 483C799 478.029 803.029 474 808 474H817V492H808C803.029 492 799 487.971 799 483Z" fill="#E05A32"/>
<path d="M817 474H826C830.971 474 835 478.029 835 483C835 487.971 830.971 492 826 492H817V474Z" fill="#EF7A69"/>
<path d="M799 501C799 496.029 803.029 492 808 492H817V510H808C803.029 510 799 505.971 799 501Z" fill="#9762F6"/>
<path d="M835 501C835 496.029 830.971 492 826 492C821.029 492 817 496.029 817 501C817 505.971 821.029 510 826 510C830.971 510 835 505.971 835 501Z" fill="#54BBF8"/>
<path d="M799 519C799 514.029 803.029 510 808 510H817V519C817 523.971 812.971 528 808 528C803.029 528 799 523.971 799 519Z" fill="#5ECB89"/>
<path fill-rule="evenodd" clip-rule="evenodd" d="M865 126L817 186L845 126H865ZM789 126V98L817 94L789 126ZM845 126L817 94L845 98V126ZM769 126L789 98V126H769ZM865 126H845V98L865 126ZM789 126H845L817 186L789 126ZM789 126L817 94L845 126H789ZM769 126H789L817 186L769 126Z" fill="#FCEEB0"/>
<path d="M789 126L817 94L789 98V126Z" fill="#FECE1D"/>
<path d="M789 126L817 94L789 98V126Z" fill="url(#paint1_linear)"/>
<path d="M845 126L817 94L845 98V126Z" fill="#FECE1D"/>
<path d="M845 126L817 94L845 98V126Z" fill="url(#paint2_linear)"/>
<path fill-rule="evenodd" clip-rule="evenodd" d="M769 126H789V98L769 126Z" fill="#FCA200"/>
<path fill-rule="evenodd" clip-rule="evenodd" d="M865 126H845V98L865 126Z" fill="#FCA200"/>
<path fill-rule="evenodd" clip-rule="evenodd" d="M789 126L817 186L845 126H789Z" fill="#FC9A00"/>
<path fill-rule="evenodd" clip-rule="evenodd" d="M789 126L817 94L845 126H789Z" fill="#FCEEB0"/>
<path fill-rule="evenodd" clip-rule="evenodd" d="M769 126L817 186L789 126H769Z" fill="#EF6D01"/>
<path fill-rule="evenodd" clip-rule="evenodd" d="M865 126L817 186L845 126H865Z" fill="#EF6D01"/>
</g>
<defs>
<linearGradient id="paint0_linear" x1="817" y1="452" x2="817" y2="548" gradientUnits="userSpaceOnUse">
<stop stop-color="#30333B"/>
<stop offset="1" stop-color="#2B2C34"/>
</linearGradient>
<linearGradient id="paint1_linear" x1="803" y1="108.688" x2="789.604" y2="100.089" gradientUnits="userSpaceOnUse">
<stop stop-color="#FDC004"/>
<stop offset="1" stop-color="#FDD026"/>
</linearGradient>
<linearGradient id="paint2_linear" x1="831" y1="108.688" x2="817.604" y2="100.089" gradientUnits="userSpaceOnUse">
<stop stop-color="#FDC004"/>
<stop offset="1" stop-color="#FDD026"/>
</linearGradient>
<clipPath id="clip0">
<rect width="1024" height="640" fill="white"/>
</clipPath>
</defs>
</svg>
