<?xml version="1.0" encoding="UTF-8"?>
<svg width="240px" height="170px" viewBox="0 0 240 170" version="1.1" xmlns="http://www.w3.org/2000/svg" xmlns:xlink="http://www.w3.org/1999/xlink">
    <!-- Generator: Sketch 47.1 (45422) - http://www.bohemiancoding.com/sketch -->
    <title>02-tap-right-curve-down</title>
    <desc>Created with Sketch.</desc>
    <defs></defs>
    <g id="Page-1" stroke="none" stroke-width="1" fill="none" fill-rule="evenodd">
        <g id="02-tap-right-curve-down">
            <path d="M205.258963,158 L194.741037,158 L194.741037,158 C194.188752,158 193.741037,158.447715 193.741037,159 C193.741037,159.177055 193.788045,159.350935 193.877258,159.503871 L199.136221,168.519236 L199.136221,168.519236 C199.414501,168.996288 200.026819,169.157424 200.503871,168.879144 C200.652875,168.792225 200.77686,168.66824 200.863779,168.519236 L206.122742,159.503871 L206.122742,159.503871 C206.401022,159.026819 206.239886,158.414501 205.762834,158.136221 C205.609898,158.047008 205.436018,158 205.258963,158 Z" id="2-endpoint-b" fill="#252525"></path>
            <path d="M11.7157288,68.2842712 C27.3367004,83.9052429 52.6632996,83.9052429 68.2842712,68.2842712 C83.9052429,52.6632996 83.9052429,27.3367004 68.2842712,11.7157288 C52.6632996,-3.90524292 27.3367004,-3.90524292 11.7157288,11.7157288 C-3.90524292,27.3367004 -3.90524292,52.6632996 11.7157288,68.2842712 Z" id="2-tap" fill-opacity="0.400000006" fill="#006DFF"></path>
            <path d="M36.4644661,43.5355339 C38.4170876,45.4881554 41.5829124,45.4881554 43.5355339,43.5355339 C45.4881554,41.5829124 45.4881554,38.4170876 43.5355339,36.4644661 C41.5829124,34.5118446 38.4170876,34.5118446 36.4644661,36.4644661 C34.5118446,38.4170876 34.5118446,41.5829124 36.4644661,43.5355339 Z" id="2-endpoint-a" fill="#252525"></path>
            <path d="M40,40 L160,40 C182.09139,40 200,57.90861 200,80 L200,160" id="2-path" stroke="#252525" stroke-width="4" stroke-linecap="round"></path>
        </g>
    </g>
</svg>
