<?xml version="1.0" encoding="UTF-8"?>
<svg width="240px" height="170px" viewBox="0 0 240 170" version="1.1" xmlns="http://www.w3.org/2000/svg" xmlns:xlink="http://www.w3.org/1999/xlink">
    <!-- Generator: Sketch 47.1 (45422) - http://www.bohemiancoding.com/sketch -->
    <title>03-tap-right-curve-down-hook</title>
    <desc>Created with Sketch.</desc>
    <defs></defs>
    <g id="Page-1" stroke="none" stroke-width="1" fill="none" fill-rule="evenodd">
        <g id="03-tap-right-curve-down-hook">
            <path d="M11.7157288,68.2842712 C27.3367004,83.9052429 52.6632996,83.9052429 68.2842712,68.2842712 C83.9052429,52.6632996 83.9052429,27.3367004 68.2842712,11.7157288 C52.6632996,-3.90524292 27.3367004,-3.90524292 11.7157288,11.7157288 C-3.90524292,27.3367004 -3.90524292,52.6632996 11.7157288,68.2842712 Z" id="3-tap" fill-opacity="0.400000006" fill="#006DFF"></path>
            <path d="M36.4644661,43.5355339 C38.4170876,45.4881554 41.5829124,45.4881554 43.5355339,43.5355339 C45.4881554,41.5829124 45.4881554,38.4170876 43.5355339,36.4644661 C41.5829124,34.5118446 38.4170876,34.5118446 36.4644661,36.4644661 C34.5118446,38.4170876 34.5118446,41.5829124 36.4644661,43.5355339 Z" id="3-endpoint-a" fill="#252525"></path>
            <path d="M115,154.741037 L115,165.258963 L115,165.258963 C115,165.811248 114.552285,166.258963 114,166.258963 C113.822945,166.258963 113.649065,166.211955 113.496129,166.122742 L104.480764,160.863779 L104.480764,160.863779 C104.003712,160.585499 103.842576,159.973181 104.120856,159.496129 C104.207775,159.347125 104.33176,159.22314 104.480764,159.136221 L113.496129,153.877258 L113.496129,153.877258 C113.973181,153.598978 114.585499,153.760114 114.863779,154.237166 C114.952992,154.390102 115,154.563982 115,154.741037 Z" id="3-endpoint-b" fill="#252525"></path>
            <path d="M40,40 L160,40 C182.09139,40 200,57.90861 200,80 L200,120 C200,142.09139 182.09139,160 160,160 L115.294118,160" id="3-path" stroke="#252525" stroke-width="4" stroke-linecap="round"></path>
        </g>
    </g>
</svg>