<?xml version="1.0" encoding="UTF-8"?>
<svg width="240px" height="170px" viewBox="0 0 240 170" version="1.1" xmlns="http://www.w3.org/2000/svg" xmlns:xlink="http://www.w3.org/1999/xlink">
    <!-- Generator: Sketch 47.1 (45422) - http://www.bohemiancoding.com/sketch -->
    <title>04-tap-right-curve-down-u-turn</title>
    <desc>Created with Sketch.</desc>
    <defs></defs>
    <g id="Page-1" stroke="none" stroke-width="1" fill="none" fill-rule="evenodd">
        <g id="04-tap-right-curve-down-u-turn">
            <path d="M11.7157288,68.2842712 C27.3367004,83.9052429 52.6632996,83.9052429 68.2842712,68.2842712 C83.9052429,52.6632996 83.9052429,27.3367004 68.2842712,11.7157288 C52.6632996,-3.90524292 27.3367004,-3.90524292 11.7157288,11.7157288 C-3.90524292,27.3367004 -3.90524292,52.6632996 11.7157288,68.2842712 Z" id="4-tap" fill-opacity="0.400000006" fill="#006DFF"></path>
            <path d="M36.4644661,43.5355339 C38.4170876,45.4881554 41.5829124,45.4881554 43.5355339,43.5355339 C45.4881554,41.5829124 45.4881554,38.4170876 43.5355339,36.4644661 C41.5829124,34.5118446 38.4170876,34.5118446 36.4644661,36.4644661 C34.5118446,38.4170876 34.5118446,41.5829124 36.4644661,43.5355339 Z" id="4-endpoint-a" fill="#252525"></path>
            <path d="M43,154.741037 L43,165.258963 L43,165.258963 C43,165.811248 42.5522847,166.258963 42,166.258963 C41.8229454,166.258963 41.649065,166.211955 41.496129,166.122742 L32.4807638,160.863779 L32.4807638,160.863779 C32.0037119,160.585499 31.8425757,159.973181 32.120856,159.496129 C32.2077747,159.347125 32.3317602,159.22314 32.4807638,159.136221 L41.496129,153.877258 L41.496129,153.877258 C41.9731809,153.598978 42.5854986,153.760114 42.8637789,154.237166 C42.9529916,154.390102 43,154.563982 43,154.741037 Z" id="4-endpoint-b" fill="#252525"></path>
            <path d="M40,40 L160,40 C182.09139,40 200,57.90861 200,80 L200,120 C200,142.09139 182.09139,160 160,160 L40,160" id="4-path" stroke="#252525" stroke-width="4" stroke-linecap="round"></path>
        </g>
    </g>
</svg>