<?xml version="1.0" encoding="UTF-8"?>
<svg width="240px" height="170px" viewBox="0 0 240 170" version="1.1" xmlns="http://www.w3.org/2000/svg" xmlns:xlink="http://www.w3.org/1999/xlink">
    <!-- Generator: Sketch 47.1 (45422) - http://www.bohemiancoding.com/sketch -->
    <title>01-tap-right</title>
    <desc>Created with Sketch.</desc>
    <defs></defs>
    <g id="Page-1" stroke="none" stroke-width="1" fill="none" fill-rule="evenodd">
        <g id="01-tap-right">
            <path class="fk-tap" d="M11.7157288,113.284271 C27.3367004,128.905243 52.6632996,128.905243 68.2842712,113.284271 C83.9052429,97.6632996 83.9052429,72.3367004 68.2842712,56.7157288 C52.6632996,41.0947571 27.3367004,41.0947571 11.7157288,56.7157288 C-3.90524292,72.3367004 -3.90524292,97.6632996 11.7157288,113.284271 Z" id="1-tap" fill-opacity="0.75" fill="#006DFF"></path>
            <path d="M194,90.258963 L194,79.741037 L194,79.741037 C194,79.1887522 194.447715,78.741037 195,78.741037 C195.177055,78.741037 195.350935,78.7880454 195.503871,78.8772581 L204.519236,84.1362211 L204.519236,84.1362211 C204.996288,84.4145014 205.157424,85.0268191 204.879144,85.503871 C204.792225,85.6528747 204.66824,85.7768601 204.519236,85.8637789 L195.503871,91.1227419 L195.503871,91.1227419 C195.026819,91.4010222 194.414501,91.2398859 194.136221,90.762834 C194.047008,90.609898 194,90.4360176 194,90.258963 Z" id="1-endpoint-b" fill="#252525"></path>
            <path d="M36.4644661,88.5355339 C38.4170876,90.4881554 41.5829124,90.4881554 43.5355339,88.5355339 C45.4881554,86.5829124 45.4881554,83.4170876 43.5355339,81.4644661 C41.5829124,79.5118446 38.4170876,79.5118446 36.4644661,81.4644661 C34.5118446,83.4170876 34.5118446,86.5829124 36.4644661,88.5355339 Z" id="1-endpoint-a" fill="#252525"></path>
            <path class="fk-path" d="M40,85 L200,85" id="1-path" stroke="#252525" stroke-width="4" stroke-linecap="round"></path>
        </g>
    </g>
</svg>
