<?xml version="1.0" encoding="UTF-8"?>
<svg width="240px" height="170px" viewBox="0 0 240 170" version="1.1" xmlns="http://www.w3.org/2000/svg" xmlns:xlink="http://www.w3.org/1999/xlink">
    <!-- Generator: Sketch 47.1 (45422) - http://www.bohemiancoding.com/sketch -->
    <title>05-tap-right-curve-up</title>
    <desc>Created with Sketch.</desc>
    <defs></defs>
    <g id="Page-1" stroke="none" stroke-width="1" fill="none" fill-rule="evenodd">
        <g id="05-tap-right-curve-up">
            <path d="M11.7157288,158.284271 C27.3367004,173.905243 52.6632996,173.905243 68.2842712,158.284271 C83.9052429,142.6633 83.9052429,117.3367 68.2842712,101.715729 C52.6632996,86.0947571 27.3367004,86.0947571 11.7157288,101.715729 C-3.90524292,117.3367 -3.90524292,142.6633 11.7157288,158.284271 Z" id="5-tap" fill-opacity="0.400000006" fill="#006DFF"></path>
            <path d="M36.4644661,133.535534 C38.4170876,135.488155 41.5829124,135.488155 43.5355339,133.535534 C45.4881554,131.582912 45.4881554,128.417088 43.5355339,126.464466 C41.5829124,124.511845 38.4170876,124.511845 36.4644661,126.464466 C34.5118446,128.417088 34.5118446,131.582912 36.4644661,133.535534 Z" id="5-endpoint-a" fill="#252525"></path>
            <path d="M205.258963,12 L194.741037,12 L194.741037,12 C194.188752,12 193.741037,11.5522847 193.741037,11 C193.741037,10.8229454 193.788045,10.649065 193.877258,10.496129 L199.136221,1.48076383 L199.136221,1.48076383 C199.414501,1.00371192 200.026819,0.842575671 200.503871,1.12085595 C200.652875,1.20777474 200.77686,1.3317602 200.863779,1.48076383 L206.122742,10.496129 L206.122742,10.496129 C206.401022,10.9731809 206.239886,11.5854986 205.762834,11.8637789 C205.609898,11.9529916 205.436018,12 205.258963,12 Z" id="5-endpoint-b" fill="#252525"></path>
            <path d="M200,10 L200,90 C200,112.09139 182.09139,130 160,130 L40,130 L40,130" id="5-path" stroke="#252525" stroke-width="4" stroke-linecap="round"></path>
        </g>
    </g>
</svg>