<?xml version="1.0" encoding="UTF-8"?>
<svg width="240px" height="170px" viewBox="0 0 240 170" version="1.1" xmlns="http://www.w3.org/2000/svg" xmlns:xlink="http://www.w3.org/1999/xlink">
    <!-- Generator: Sketch 47.1 (45422) - http://www.bohemiancoding.com/sketch -->
    <title>07-tap-right-curve-up-u-turn</title>
    <desc>Created with Sketch.</desc>
    <defs></defs>
    <g id="Page-1" stroke="none" stroke-width="1" fill="none" fill-rule="evenodd">
        <g id="07-tap-right-curve-up-u-turn">
            <path d="M11.7157288,158.284271 C27.3367004,173.905243 52.6632996,173.905243 68.2842712,158.284271 C83.9052429,142.6633 83.9052429,117.3367 68.2842712,101.715729 C52.6632996,86.0947571 27.3367004,86.0947571 11.7157288,101.715729 C-3.90524292,117.3367 -3.90524292,142.6633 11.7157288,158.284271 Z" id="7-tap" fill-opacity="0.400000006" fill="#006DFF"></path>
            <path d="M36.4644661,133.535534 C38.4170876,135.488155 41.5829124,135.488155 43.5355339,133.535534 C45.4881554,131.582912 45.4881554,128.417088 43.5355339,126.464466 C41.5829124,124.511845 38.4170876,124.511845 36.4644661,126.464466 C34.5118446,128.417088 34.5118446,131.582912 36.4644661,133.535534 Z" id="7-endpoint-a" fill="#252525"></path>
            <path d="M43,15.258963 L43,4.741037 L43,4.741037 C43,4.18875225 42.5522847,3.741037 42,3.741037 C41.8229454,3.741037 41.649065,3.7880454 41.496129,3.8772581 L32.4807638,9.1362211 L32.4807638,9.1362211 C32.0037119,9.41450138 31.8425757,10.0268191 32.120856,10.503871 C32.2077747,10.6528747 32.3317602,10.7768601 32.4807638,10.8637789 L41.496129,16.1227419 L41.496129,16.1227419 C41.9731809,16.4010222 42.5854986,16.2398859 42.8637789,15.762834 C42.9529916,15.609898 43,15.4360176 43,15.258963 Z" id="7-endpoint-b" fill="#252525"></path>
            <path d="M40,10 L160,10 C182.09139,10 200,27.90861 200,50 L200,90 C200,112.09139 182.09139,130 160,130 L40,130 L40,130" id="7-path" stroke="#252525" stroke-width="4" stroke-linecap="round"></path>
        </g>
    </g>
</svg>