<?xml version="1.0" encoding="UTF-8"?>
<svg width="124px" height="25px" viewBox="0 0 124 25" version="1.1" xmlns="http://www.w3.org/2000/svg" xmlns:xlink="http://www.w3.org/1999/xlink">
    <!-- Generator: Sketch 48.2 (47327) - http://www.bohemiancoding.com/sketch -->
    <title>logo-facebook</title>
    <desc>Created with Sketch.</desc>
    <defs></defs>
    <g id="Desktop-HD-Copy-17" stroke="none" stroke-width="1" fill="none" fill-rule="evenodd" transform="translate(-507.000000, -4881.000000)">
        <g id="logos---color" transform="translate(222.000000, 4880.000000)" fill="#4668AB" fill-rule="nonzero">
            <g id="logo-facebook" transform="translate(285.000000, 1.000000)">
                <polygon id="Shape" points="123.96 23.0623256 119.012353 23.0623256 114.207702 15.6823814 114.207702 23.0623256 109.546047 23.0623256 109.546047 0.391360677 114.207702 0 114.207702 15.1792034 118.812159 7.9669852 123.788405 7.9669852 118.955155 15.4307924"></polygon>
                <path d="M8.86580886,0 C9.79166865,0 10.8578102,0.0557061004 11.5311628,0.167118301 L11.5311628,3.67660263 L9.51110508,3.67660263 C8.08023086,3.67660263 7.6593855,4.31722278 7.6593855,5.70987529 L7.6593855,8.02167846 L11.4750501,8.02167846 L11.0822611,11.7539872 L7.6593855,11.7539872 L7.6593855,23.0623256 L3.08619929,23.0623256 L3.08619929,11.7539872 L0,11.7539872 L0,8.02167846 L3.08619929,8.02167846 L3.08619929,5.79343445 C3.08619929,1.97756657 4.60124257,0 8.86580886,0 Z" id="Shape"></path>
                <path d="M22.3772346,10.4197666 C21.6849322,8.90826781 20.2426354,7.68744186 17.9061146,7.68744186 C13.5792242,7.68744186 11.5311628,10.972045 11.5311628,15.361205 L11.5311628,16.3494927 C11.5311628,20.7386527 13.5792242,24.0232558 17.9061146,24.0232558 C20.2714813,24.0232558 21.742624,22.8314971 22.3772346,21.3199983 L22.3772346,23.7035157 L26.9060465,23.7035157 L26.9060465,8.00718199 L22.3772346,8.00718199 L22.3772346,10.4197666 Z M22.1753131,16.6401655 C22.1753131,18.8783464 21.1945512,20.3026434 19.2618736,20.3026434 C17.0695824,20.3026434 16.2330503,18.7620773 16.2330503,16.4076272 L16.2330503,15.2740031 C16.2330503,12.9486204 17.0984284,11.378987 19.2618736,11.378987 C21.1945512,11.378987 22.1753131,12.803284 22.1753131,15.0414649 L22.1753131,16.6401655 Z" id="Shape"></path>
                <path d="M67.6355307,7.86424384 C65.4595695,7.86424384 63.970754,8.98360701 63.2836083,10.3325831 L63.2836083,0 L58.6167442,0.430524298 L58.6167442,23.707538 L63.0259287,23.707538 L63.0259287,21.3540052 C63.6844433,22.8464894 65.2877831,24.0232558 67.6355307,24.0232558 C71.930191,24.0232558 73.9916279,20.7799728 73.9916279,16.4460282 L73.9916279,15.4414715 C73.9916279,11.1075269 71.930191,7.86424384 67.6355307,7.86424384 Z M69.3247638,16.532133 C69.3247638,18.7134561 68.4658317,20.3494485 66.2326084,20.3494485 C64.3143268,20.3494485 63.2836083,18.9717707 63.2836083,16.761746 L63.2836083,15.1257537 C63.2836083,12.9157289 64.3143268,11.5380512 66.2326084,11.5380512 C68.4658317,11.5380512 69.3247638,13.1740435 69.3247638,15.3553666 L69.3247638,16.532133 Z" id="Shape"></path>
                <path d="M99.9367442,7.68744186 C94.792731,7.68744186 92.2493023,10.9371953 92.2493023,15.4636375 L92.2493023,16.2470602 C92.2493023,20.7444868 94.7641532,24.0232558 99.9367442,24.0232558 C105.080757,24.0232558 107.624186,20.7735024 107.624186,16.2470602 L107.624186,15.4636375 C107.624186,10.9371953 105.080757,7.68744186 99.9367442,7.68744186 Z M102.965996,16.5662324 C102.965996,18.6263439 102.108661,20.2802363 99.965322,20.2802363 C97.7934054,20.2802363 96.9360699,18.6263439 96.9360699,16.5662324 L96.9360699,15.1154496 C96.9360699,13.0553381 97.7934054,11.4014457 99.965322,11.4014457 C102.137239,11.4014457 102.965996,13.0553381 102.965996,15.1154496 L102.965996,16.5662324 Z" id="Shape"></path>
                <path d="M33.5088522,15.4056062 L33.5088522,16.3341072 C33.5088522,18.8584692 34.6001155,20.3382676 37.155969,20.3382676 C38.3908196,20.3382676 39.5682352,19.9900797 40.2861716,19.6128762 L41.32,22.9786922 C40.372324,23.6460523 38.6492767,24.0232558 36.840077,24.0232558 C31.3263256,24.0232558 28.827907,21.0346433 28.827907,16.2180445 L28.827907,15.4926531 C28.827907,10.70507 31.3263256,7.68744186 36.840077,7.68744186 C38.6492767,7.68744186 40.4010414,8.09366104 41.32,8.73200545 L40.2861716,12.0978215 C39.5682352,11.7496336 38.3908196,11.3724301 37.155969,11.3724301 C34.6001155,11.4014457 33.5088522,12.8812442 33.5088522,15.4056062 Z" id="Shape"></path>
                <path d="M49.8295908,7.68744186 C44.7591697,7.68744186 42.2809302,10.612827 42.2809302,15.044351 L42.2809302,16.434633 C42.2809302,21.0399423 44.4743146,24.0232558 50.34233,24.0232558 C52.5641999,24.0232558 55.0994104,23.5308643 56.3242874,22.8646874 L55.469722,19.620696 C54.1024175,20.1999802 52.2793448,20.5765149 50.5417286,20.5765149 C47.949547,20.5765149 47.0095251,19.620696 46.9240686,17.5063088 L56.694599,17.5063088 L56.694599,15.0153868 C56.7230845,10.6417912 54.6151567,7.68744186 49.8295908,7.68744186 Z M52.5641999,14.3781742 L46.9525541,14.3781742 C46.9525541,12.2927511 47.7501484,10.9314333 49.8580763,10.9314333 C51.8805476,10.9314333 52.5641999,12.2927511 52.5641999,13.9726752 L52.5641999,14.3781742 Z" id="Shape"></path>
                <path d="M83.6009302,7.68744186 C78.4569171,7.68744186 75.9134884,10.9371953 75.9134884,15.4636375 L75.9134884,16.2470602 C75.9134884,20.7444868 78.4283392,24.0232558 83.6009302,24.0232558 C88.7449434,24.0232558 91.2883721,20.7735024 91.2883721,16.2470602 L91.2883721,15.4636375 C91.2883721,10.9371953 88.7449434,7.68744186 83.6009302,7.68744186 Z M86.6301824,16.5662324 C86.6301824,18.6263439 85.7728469,20.2802363 83.6295081,20.2802363 C81.4575914,20.2802363 80.6288338,18.6263439 80.6288338,16.5662324 L80.6288338,15.1154496 C80.6288338,13.0553381 81.4575914,11.4014457 83.6295081,11.4014457 C85.8014247,11.4014457 86.6301824,13.0553381 86.6301824,15.1154496 L86.6301824,16.5662324 Z" id="Shape"></path>
            </g>
        </g>
    </g>
</svg>