<?xml version="1.0" encoding="UTF-8"?>
<svg width="32px" height="32px" viewBox="0 0 32 32" version="1.1" xmlns="http://www.w3.org/2000/svg" xmlns:xlink="http://www.w3.org/1999/xlink">
    <!-- Generator: Sketch 48.2 (47327) - http://www.bohemiancoding.com/sketch -->
    <title>favicon copy</title>
    <desc>Created with Sketch.</desc>
    <defs></defs>
    <g id="Page-1" stroke="none" stroke-width="1" fill="none" fill-rule="evenodd">
        <g id="favicon-copy">
            <g id="Group" transform="translate(0.000000, 6.000000)">
                <circle id="Oval" fill-opacity="0.400000006" fill="#006DFF" cx="10" cy="10" r="10"></circle>
                <path d="M27,12.4604992 L27,7.53943316 C27,7.26329078 27.2238576,7.03943316 27.5,7.03943316 C27.5930619,7.03943316 27.684277,7.06540521 27.7633808,7.11442665 L31.7338387,9.57495965 C31.9685633,9.72042087 32.0409256,10.0286224 31.8954643,10.263347 C31.8547914,10.3289791 31.7994708,10.3842998 31.7338387,10.4249727 L27.7633808,12.8855057 C27.5286562,13.0309669 27.2204547,12.9586046 27.0749935,12.72388 C27.0259721,12.6447762 27,12.553561 27,12.4604992 Z" id="shape" fill="#252525"></path>
                <circle id="map/path-end-circle" fill="#252525" transform="translate(10.000000, 10.000000) scale(1, -1) translate(-10.000000, -10.000000) " cx="10" cy="10" r="3"></circle>
                <path d="M11,10 L27,10" id="path" stroke="#252525" stroke-width="2" stroke-linecap="round" transform="translate(19.000000, 10.000000) scale(-1, 1) translate(-19.000000, -10.000000) "></path>
            </g>
        </g>
    </g>
</svg>