<svg width="800" height="600" viewBox="0 0 800 600" fill="none" xmlns="http://www.w3.org/2000/svg">
<rect width="800" height="600" fill="#F5F5F5"/>
<path d="M188.172 448H190.445V441.203H192.227V439.477H190.398V438.75C190.398 438 190.727 437.633 191.617 437.633C191.914 437.633 192.148 437.656 192.297 437.68V436.109C191.969 436.062 191.586 436.023 191.125 436.023C189.047 436.023 188.172 436.883 188.172 438.594V439.477H186.781V441.203H188.172V448ZM194.117 448H196.391V436.109H194.117V448ZM202.578 448.18C205.227 448.18 206.82 446.508 206.82 443.695C206.82 440.906 205.203 439.211 202.578 439.211C199.953 439.211 198.336 440.914 198.336 443.695C198.336 446.5 199.93 448.18 202.578 448.18ZM202.578 446.383C201.359 446.383 200.672 445.398 200.672 443.695C200.672 442.008 201.367 441.016 202.578 441.016C203.781 441.016 204.484 442.008 204.484 443.695C204.484 445.398 203.789 446.383 202.578 446.383ZM220.258 439.398H218L216.719 445.625H216.578L215.062 439.398H212.891L211.383 445.625H211.242L209.961 439.398H207.656L209.953 448H212.344L213.867 442H214.008L215.547 448H217.969L220.258 439.398ZM224.375 442.797H224.234V436.109H221.961V448H224.234V445.109L224.859 444.461L227.375 448H230.07L226.562 443.086L229.844 439.398H227.258L224.375 442.797ZM232.664 438.078C233.367 438.078 233.945 437.516 233.945 436.812C233.945 436.102 233.367 435.539 232.664 435.539C231.961 435.539 231.375 436.102 231.375 436.812C231.375 437.516 231.961 438.078 232.664 438.078ZM231.523 448H233.797V439.398H231.523V448ZM236.75 437.344V439.477H235.406V441.203H236.75V445.68C236.75 447.352 237.578 448.031 239.672 448.031C240.109 448.031 240.531 447.984 240.812 447.93V446.25C240.594 446.273 240.438 446.289 240.141 446.289C239.367 446.289 239.023 445.93 239.023 445.156V441.203H240.812V439.477H239.023V437.344H236.75ZM247.859 444.477V442.422H242.727V444.477H247.859ZM257.812 439.398H255.414L253.648 445.867H253.508L251.727 439.398H249.281L252.273 448H254.836L257.812 439.398ZM262.07 443.055H263.5C264.766 443.055 265.547 443.695 265.547 444.727C265.547 445.719 264.711 446.391 263.516 446.391C262.305 446.391 261.492 445.773 261.422 444.797H259.164C259.266 446.906 261 448.289 263.547 448.289C266.094 448.289 267.953 446.891 267.953 444.922C267.953 443.406 267 442.406 265.43 442.172V442.031C266.641 441.727 267.5 440.836 267.508 439.469C267.516 437.82 266.125 436.438 263.625 436.438C261.086 436.438 259.484 437.836 259.406 439.891H261.586C261.664 438.852 262.367 438.258 263.508 438.258C264.609 438.258 265.273 438.922 265.273 439.789C265.273 440.727 264.547 441.375 263.477 441.375H262.07V443.055ZM271.07 448.195C271.914 448.195 272.453 447.633 272.453 446.867C272.453 446.102 271.914 445.547 271.07 445.547C270.234 445.547 269.688 446.102 269.688 446.867C269.688 447.633 270.234 448.195 271.07 448.195ZM274.984 448H277.258V441.203H279.039V439.477H277.211V438.75C277.211 438 277.539 437.633 278.43 437.633C278.727 437.633 278.961 437.656 279.109 437.68V436.109C278.781 436.062 278.398 436.023 277.938 436.023C275.859 436.023 274.984 436.883 274.984 438.594V439.477H273.594V441.203H274.984V448ZM282.008 438.078C282.711 438.078 283.289 437.516 283.289 436.812C283.289 436.102 282.711 435.539 282.008 435.539C281.305 435.539 280.719 436.102 280.719 436.812C280.719 437.516 281.305 438.078 282.008 438.078ZM280.867 448H283.141V439.398H280.867V448ZM289.242 451.258C291.844 451.258 293.492 449.992 293.492 447.984V439.398H291.289V440.773H291.148C290.688 439.836 289.695 439.258 288.531 439.258C286.344 439.258 285 440.961 285 443.625C285 446.203 286.336 447.875 288.484 447.875C289.695 447.875 290.602 447.383 291.078 446.477H291.219V448.078C291.219 449.07 290.508 449.648 289.289 449.648C288.305 449.648 287.664 449.305 287.547 448.758H285.297C285.438 450.266 286.953 451.258 289.242 451.258ZM289.273 446.133C288.039 446.133 287.336 445.164 287.336 443.617C287.336 442.07 288.047 441.102 289.273 441.102C290.5 441.102 291.242 442.07 291.242 443.617C291.242 445.164 290.508 446.133 289.273 446.133Z" fill="#222222"/>
<path d="M140 147H259.789C268.718 147 277.241 150.731 283.299 157.291L331.51 209.501C336.969 215.413 340 223.164 340 231.21V413H140V147Z" fill="url(#paint0_linear)"/>
<mask id="mask0" mask-type="alpha" maskUnits="userSpaceOnUse" x="140" y="147" width="200" height="266">
<path d="M140 147H259.789C268.718 147 277.241 150.731 283.299 157.291L331.51 209.501C336.969 215.413 340 223.164 340 231.21V413H140V147Z" fill="#2C2D35"/>
</mask>
<g mask="url(#mask0)">
<g filter="url(#filter0_di)">
<path d="M273.333 142.567L344.445 219.411C344.445 219.411 328.889 217.933 309.63 217.933C290.37 217.933 273.333 219.411 273.333 219.411C273.333 219.411 274.815 204.264 274.815 180.989C274.815 157.714 273.333 142.567 273.333 142.567Z" fill="#363942"/>
</g>
</g>
<path d="M211.852 254.139C211.852 246.793 217.821 240.839 225.185 240.839H238.518V267.439H225.185C217.821 267.439 211.852 261.484 211.852 254.139Z" fill="#E05A32"/>
<path d="M238.518 240.839H251.852C259.216 240.839 265.185 246.793 265.185 254.139C265.185 261.484 259.216 267.439 251.852 267.439H238.518V240.839Z" fill="#EF7A69"/>
<path d="M211.852 280.739C211.852 273.393 217.821 267.439 225.185 267.439H238.518V294.039H225.185C217.821 294.039 211.852 288.084 211.852 280.739Z" fill="#9762F6"/>
<path d="M265.185 280.739C265.185 273.393 259.216 267.439 251.852 267.439C244.488 267.439 238.518 273.393 238.518 280.739C238.518 288.084 244.488 294.039 251.852 294.039C259.216 294.039 265.185 288.084 265.185 280.739Z" fill="#54BBF8"/>
<path d="M211.852 307.339C211.852 299.993 217.821 294.039 225.185 294.039H238.518V307.339C238.518 314.684 232.549 320.639 225.185 320.639C217.821 320.639 211.852 314.684 211.852 307.339Z" fill="#5ECB89"/>
<path d="M491.078 448H493.352V441.203H495.133V439.477H493.305V438.75C493.305 438 493.633 437.633 494.523 437.633C494.82 437.633 495.055 437.656 495.203 437.68V436.109C494.875 436.062 494.492 436.023 494.031 436.023C491.953 436.023 491.078 436.883 491.078 438.594V439.477H489.688V441.203H491.078V448ZM497.023 448H499.297V436.109H497.023V448ZM505.484 448.18C508.133 448.18 509.727 446.508 509.727 443.695C509.727 440.906 508.109 439.211 505.484 439.211C502.859 439.211 501.242 440.914 501.242 443.695C501.242 446.5 502.836 448.18 505.484 448.18ZM505.484 446.383C504.266 446.383 503.578 445.398 503.578 443.695C503.578 442.008 504.273 441.016 505.484 441.016C506.688 441.016 507.391 442.008 507.391 443.695C507.391 445.398 506.695 446.383 505.484 446.383ZM523.164 439.398H520.906L519.625 445.625H519.484L517.969 439.398H515.797L514.289 445.625H514.148L512.867 439.398H510.562L512.859 448H515.25L516.773 442H516.914L518.453 448H520.875L523.164 439.398ZM527.281 442.797H527.141V436.109H524.867V448H527.141V445.109L527.766 444.461L530.281 448H532.977L529.469 443.086L532.75 439.398H530.164L527.281 442.797ZM535.57 438.078C536.273 438.078 536.852 437.516 536.852 436.812C536.852 436.102 536.273 435.539 535.57 435.539C534.867 435.539 534.281 436.102 534.281 436.812C534.281 437.516 534.867 438.078 535.57 438.078ZM534.43 448H536.703V439.398H534.43V448ZM539.656 437.344V439.477H538.312V441.203H539.656V445.68C539.656 447.352 540.484 448.031 542.578 448.031C543.016 448.031 543.438 447.984 543.719 447.93V446.25C543.5 446.273 543.344 446.289 543.047 446.289C542.273 446.289 541.93 445.93 541.93 445.156V441.203H543.719V439.477H541.93V437.344H539.656ZM550.766 444.477V442.422H545.633V444.477H550.766ZM560.719 439.398H558.32L556.555 445.867H556.414L554.633 439.398H552.188L555.18 448H557.742L560.719 439.398ZM564.977 443.055H566.406C567.672 443.055 568.453 443.695 568.453 444.727C568.453 445.719 567.617 446.391 566.422 446.391C565.211 446.391 564.398 445.773 564.328 444.797H562.07C562.172 446.906 563.906 448.289 566.453 448.289C569 448.289 570.859 446.891 570.859 444.922C570.859 443.406 569.906 442.406 568.336 442.172V442.031C569.547 441.727 570.406 440.836 570.414 439.469C570.422 437.82 569.031 436.438 566.531 436.438C563.992 436.438 562.391 437.836 562.312 439.891H564.492C564.57 438.852 565.273 438.258 566.414 438.258C567.516 438.258 568.18 438.922 568.18 439.789C568.18 440.727 567.453 441.375 566.383 441.375H564.977V443.055ZM573.977 448.195C574.82 448.195 575.359 447.633 575.359 446.867C575.359 446.102 574.82 445.547 573.977 445.547C573.141 445.547 572.594 446.102 572.594 446.867C572.594 447.633 573.141 448.195 573.977 448.195ZM577.703 441.906C577.703 443.227 578.516 444.016 580.188 444.383L581.75 444.734C582.508 444.906 582.836 445.172 582.836 445.609C582.836 446.18 582.227 446.57 581.344 446.57C580.438 446.57 579.883 446.219 579.711 445.625H577.492C577.648 447.25 579.023 448.18 581.297 448.18C583.555 448.18 585.094 447.07 585.094 445.367C585.094 444.086 584.344 443.383 582.672 443.016L581.055 442.664C580.258 442.484 579.891 442.211 579.891 441.773C579.891 441.211 580.492 440.828 581.305 440.828C582.148 440.828 582.672 441.18 582.789 441.75H584.891C584.766 440.125 583.477 439.211 581.289 439.211C579.141 439.211 577.703 440.297 577.703 441.906ZM589.453 442.797H589.312V436.109H587.039V448H589.312V445.109L589.938 444.461L592.453 448H595.148L591.641 443.086L594.922 439.398H592.336L589.453 442.797ZM601.641 445.57C601.398 446.156 600.781 446.484 599.883 446.484C598.695 446.484 597.945 445.664 597.914 444.352V444.234H603.828V443.555C603.828 440.836 602.328 439.211 599.789 439.211C597.227 439.211 595.648 440.945 595.648 443.742C595.648 446.523 597.195 448.18 599.82 448.18C601.93 448.18 603.422 447.172 603.758 445.57H601.641ZM599.797 440.906C600.859 440.906 601.547 441.641 601.594 442.82H597.922C598 441.664 598.742 440.906 599.797 440.906ZM606.344 437.344V439.477H605V441.203H606.344V445.68C606.344 447.352 607.172 448.031 609.266 448.031C609.703 448.031 610.125 447.984 610.406 447.93V446.25C610.188 446.273 610.031 446.289 609.734 446.289C608.961 446.289 608.617 445.93 608.617 445.156V441.203H610.406V439.477H608.617V437.344H606.344ZM619.867 442.398C619.68 440.477 618.312 439.211 616.031 439.211C613.336 439.211 611.82 440.844 611.82 443.68C611.82 446.547 613.344 448.18 616.031 448.18C618.273 448.18 619.68 446.945 619.867 445.055H617.742C617.57 445.914 616.961 446.375 616.031 446.375C614.812 446.375 614.117 445.414 614.117 443.68C614.117 441.969 614.805 441.023 616.031 441.023C617 441.023 617.586 441.57 617.742 442.398H619.867ZM621.727 448H624V443.047C624 441.906 624.656 441.133 625.797 441.133C626.828 441.133 627.383 441.758 627.383 442.977V448H629.656V442.461C629.656 440.398 628.555 439.234 626.703 439.234C625.438 439.234 624.5 439.828 624.102 440.805H623.961V436.109H621.727V448Z" fill="#222222"/>
<path d="M460 147H579.789C588.718 147 597.241 150.731 603.299 157.291L651.51 209.501C656.969 215.413 660 223.164 660 231.21V413H460V147Z" fill="white"/>
<mask id="mask1" mask-type="alpha" maskUnits="userSpaceOnUse" x="460" y="147" width="200" height="266">
<path d="M460 147H579.789C588.718 147 597.241 150.731 603.299 157.291L651.51 209.501C656.969 215.413 660 223.164 660 231.21V413H460V147Z" fill="#F7F7F7"/>
</mask>
<g mask="url(#mask1)">
<g filter="url(#filter1_di)">
<path d="M593.333 142.567L664.444 219.411C664.444 219.411 648.889 217.933 629.63 217.933C610.37 217.933 593.333 219.411 593.333 219.411C593.333 219.411 594.815 204.264 594.815 180.989C594.815 157.714 593.333 142.567 593.333 142.567Z" fill="#FEFEFE"/>
</g>
</g>
<g clip-path="url(#clip0)">
<path fill-rule="evenodd" clip-rule="evenodd" d="M608.148 268.411L560 327.442L588.086 268.411H608.148ZM531.914 268.411V240.863L560 236.928L531.914 268.411ZM588.086 268.411L560 236.928L588.086 240.863V268.411ZM511.852 268.411L531.914 240.863V268.411H511.852ZM608.148 268.411H588.086V240.863L608.148 268.411ZM531.914 268.411H588.086L560 327.442L531.914 268.411ZM531.914 268.411L560 236.928L588.086 268.411H531.914ZM511.852 268.411H531.914L560 327.442L511.852 268.411Z" fill="#FCEEB0"/>
<path d="M531.914 268.411L560 236.928L531.914 240.863V268.411Z" fill="#FECE1D"/>
<path d="M531.914 268.411L560 236.928L531.914 240.863V268.411Z" fill="url(#paint1_linear)"/>
<path d="M588.086 268.411L560 236.928L588.086 240.863V268.411Z" fill="#FECE1D"/>
<path d="M588.086 268.411L560 236.928L588.086 240.863V268.411Z" fill="url(#paint2_linear)"/>
<path fill-rule="evenodd" clip-rule="evenodd" d="M511.852 268.411H531.914V240.863L511.852 268.411Z" fill="#FCA200"/>
<path fill-rule="evenodd" clip-rule="evenodd" d="M608.148 268.411H588.086V240.863L608.148 268.411Z" fill="#FCA200"/>
<path fill-rule="evenodd" clip-rule="evenodd" d="M531.914 268.411L560 327.442L588.086 268.411H531.914Z" fill="#FC9A00"/>
<path fill-rule="evenodd" clip-rule="evenodd" d="M531.914 268.411L560 236.928L588.086 268.411H531.914Z" fill="#FCEEB0"/>
<path fill-rule="evenodd" clip-rule="evenodd" d="M511.852 268.411L560 327.442L531.914 268.411H511.852Z" fill="#EF6D01"/>
<path fill-rule="evenodd" clip-rule="evenodd" d="M608.148 268.411L560 327.442L588.086 268.411H608.148Z" fill="#EF6D01"/>
</g>
<defs>
<filter id="filter0_di" x="239.333" y="122.567" width="139.111" height="144.844" filterUnits="userSpaceOnUse" color-interpolation-filters="sRGB">
<feFlood flood-opacity="0" result="BackgroundImageFix"/>
<feColorMatrix in="SourceAlpha" type="matrix" values="0 0 0 0 0 0 0 0 0 0 0 0 0 0 0 0 0 0 127 0"/>
<feOffset dy="14"/>
<feGaussianBlur stdDeviation="17"/>
<feColorMatrix type="matrix" values="0 0 0 0 0 0 0 0 0 0 0 0 0 0 0 0 0 0 0.4 0"/>
<feBlend mode="normal" in2="BackgroundImageFix" result="effect1_dropShadow"/>
<feBlend mode="normal" in="SourceGraphic" in2="effect1_dropShadow" result="shape"/>
<feColorMatrix in="SourceAlpha" type="matrix" values="0 0 0 0 0 0 0 0 0 0 0 0 0 0 0 0 0 0 127 0" result="hardAlpha"/>
<feOffset dx="-11"/>
<feGaussianBlur stdDeviation="6.5"/>
<feComposite in2="hardAlpha" operator="arithmetic" k2="-1" k3="1"/>
<feColorMatrix type="matrix" values="0 0 0 0 0 0 0 0 0 0 0 0 0 0 0 0 0 0 0.1 0"/>
<feBlend mode="normal" in2="shape" result="effect2_innerShadow"/>
</filter>
<filter id="filter1_di" x="558.333" y="117.567" width="131.111" height="136.844" filterUnits="userSpaceOnUse" color-interpolation-filters="sRGB">
<feFlood flood-opacity="0" result="BackgroundImageFix"/>
<feColorMatrix in="SourceAlpha" type="matrix" values="0 0 0 0 0 0 0 0 0 0 0 0 0 0 0 0 0 0 127 0"/>
<feOffset dx="-5" dy="5"/>
<feGaussianBlur stdDeviation="15"/>
<feColorMatrix type="matrix" values="0 0 0 0 0 0 0 0 0 0 0 0 0 0 0 0 0 0 0.1 0"/>
<feBlend mode="normal" in2="BackgroundImageFix" result="effect1_dropShadow"/>
<feBlend mode="normal" in="SourceGraphic" in2="effect1_dropShadow" result="shape"/>
<feColorMatrix in="SourceAlpha" type="matrix" values="0 0 0 0 0 0 0 0 0 0 0 0 0 0 0 0 0 0 127 0" result="hardAlpha"/>
<feOffset dx="-11" dy="4"/>
<feGaussianBlur stdDeviation="6.5"/>
<feComposite in2="hardAlpha" operator="arithmetic" k2="-1" k3="1"/>
<feColorMatrix type="matrix" values="0 0 0 0 0 0 0 0 0 0 0 0 0 0 0 0 0 0 0.06 0"/>
<feBlend mode="normal" in2="shape" result="effect2_innerShadow"/>
</filter>
<linearGradient id="paint0_linear" x1="240" y1="348.578" x2="240" y2="219.734" gradientUnits="userSpaceOnUse">
<stop stop-color="#30333B"/>
<stop offset="1" stop-color="#2B2C34"/>
</linearGradient>
<linearGradient id="paint1_linear" x1="545.957" y1="251.379" x2="532.672" y2="242.685" gradientUnits="userSpaceOnUse">
<stop stop-color="#FDC004"/>
<stop offset="1" stop-color="#FDD026"/>
</linearGradient>
<linearGradient id="paint2_linear" x1="574.043" y1="251.379" x2="560.759" y2="242.685" gradientUnits="userSpaceOnUse">
<stop stop-color="#FDC004"/>
<stop offset="1" stop-color="#FDD026"/>
</linearGradient>
<clipPath id="clip0">
<rect width="96.2963" height="90.5139" fill="white" transform="translate(511.852 236.928)"/>
</clipPath>
</defs>
</svg>
