<?xml version="1.0" encoding="UTF-8"?>
<svg width="89px" height="21px" viewBox="0 0 89 21" version="1.1" xmlns="http://www.w3.org/2000/svg" xmlns:xlink="http://www.w3.org/1999/xlink">
    <!-- Generator: Sketch 48.2 (47327) - http://www.bohemiancoding.com/sketch -->
    <title>logo-ueno</title>
    <desc>Created with Sketch.</desc>
    <defs></defs>
    <g id="Desktop-HD-Copy-17" stroke="none" stroke-width="1" fill="none" fill-rule="evenodd" transform="translate(-1116.000000, -5031.000000)">
        <g id="logos---color" transform="translate(222.000000, 4880.000000)" fill="#000000" fill-rule="nonzero">
            <g id="logo-ueno" transform="translate(894.000000, 150.000000)">
                <path d="M47.6431646,20.8800759 L42.3594937,20.8800759 L42.3594937,1.64818987 L47.6409114,1.64818987 L47.6409114,4.78910127 C48.8548126,2.43198726 51.3329888,1.00047503 53.9813165,1.12658228 C59.1748608,1.12658228 61.067519,4.61898734 61.067519,8.88986076 L61.067519,20.8800759 L55.7861013,20.8800759 L55.7861013,9.93420253 C55.7861013,6.97016456 54.597557,5.26789873 52.0007848,5.26789873 C49.3161392,5.26789873 47.6431646,7.35996203 47.6431646,10.5876203 L47.6431646,20.8800759 Z M73.2278481,21.4050633 C67.6402587,21.3429621 63.1561992,16.771775 63.2016245,11.1840252 C63.2470498,5.59627539 67.8048343,1.09859356 73.3926948,1.12734263 C78.9805553,1.1560917 83.4918194,5.70043301 83.4797468,11.2883544 C83.4797468,17.2626203 79.2550633,21.4050633 73.2278481,21.4050633 Z M73.2278481,17.4361139 C76.4847975,17.4361139 78.1577722,14.9080633 78.1577722,11.2883544 C78.1577722,7.6224557 76.4847975,5.0921519 73.2278481,5.0921519 C70.0148354,5.0921519 68.3429873,7.62020253 68.3429873,11.2883544 C68.3407342,14.9069367 70.0125823,17.4349873 73.2278481,17.4349873 L73.2278481,17.4361139 Z M13.4243544,1.64818987 L18.7012658,1.64818987 L18.7012658,20.8800759 L13.4198481,20.8800759 L13.4198481,17.7391646 C12.2079368,20.0952891 9.73289446,21.5278376 7.08620253,21.4050633 C1.89265823,21.4050633 2.84217094e-14,17.9126582 2.84217094e-14,13.6429114 L2.84217094e-14,1.64818987 L5.28141772,1.64818987 L5.28141772,12.5951899 C5.28141772,15.5592278 6.46996203,17.2614937 9.06673418,17.2614937 C11.7513797,17.2614937 13.4243544,15.1671772 13.4243544,11.939519 L13.4243544,1.64818987 Z M35.4186203,15.410519 C34.4656646,16.8185179 32.8214707,17.5957104 31.1285949,17.4383671 C28.3417932,17.5330915 25.9924278,15.3786298 25.8460506,12.5940633 L40.4150127,12.5940633 L40.4150127,10.7194304 C40.4150127,5.4864557 37.1580633,1.1254557 30.8199114,1.1254557 C28.0634095,1.07471404 25.4084162,2.16506529 23.4831991,4.13849284 C21.557982,6.11192038 20.5336171,8.79306414 20.6525063,11.5474684 C20.6525063,17.608481 24.9661899,21.4028101 30.9517215,21.4028101 C34.7483038,21.4028101 37.598557,19.9281139 39.1757722,17.3302152 L35.4186203,15.410519 Z M30.7759747,4.96259494 C31.9548148,4.92597546 33.0980847,5.36912872 33.9442776,6.19068969 C34.7904705,7.01225066 35.2671943,8.14193442 35.2654101,9.32134177 L25.9339241,9.32134177 C26.4183544,6.92622785 27.8716456,4.96372152 30.7759747,4.96372152 L30.7759747,4.96259494 Z M86.3480253,21.298038 C84.8906555,21.3048992 83.7034987,20.1293416 83.6960506,18.6719747 L83.6960506,18.5593165 C83.6993296,17.8592533 83.9805772,17.1891664 84.4779207,16.696471 C84.9752641,16.2037757 85.6479622,15.9288322 86.3480253,15.9321266 C87.0486716,15.9288331 87.7218806,16.2042399 88.2193213,16.6976656 C88.716762,17.1910912 88.9976154,17.8620462 89,18.5626962 L89,18.6753544 C88.9919324,20.1322805 87.8049576,21.3071536 86.3480253,21.3002911 L86.3480253,21.298038 Z" id="Shape"></path>
            </g>
        </g>
    </g>
</svg>