<?xml version="1.0" encoding="UTF-8"?>
<svg width="160px" height="80px" viewBox="0 0 486 117" version="1.1" xmlns="http://www.w3.org/2000/svg" xmlns:xlink="http://www.w3.org/1999/xlink">
    <!-- Generator: Sketch 48.2 (47327) - http://www.bohemiancoding.com/sketch -->
    <title>logo-palantir</title>
    <desc>Created with Sketch.</desc>
    <defs></defs>
    <g id="Desktop-HD-Copy-17" stroke="none" stroke-width="1" fill="none" fill-rule="evenodd" transform="translate(-301.000000, -5288.000000)">
        <g id="logos---color" transform="translate(222.000000, 4880.000000)" fill="#000000">
            <g id="logo-palantir" transform="translate(79.000000, 408.000000)">
                <polygon id="Fill-1" points="240.881 102.893 252.614 102.893 252.614 12.246 240.881 12.246"></polygon>
                <path d="M428.267,102.893 L440.026,102.893 L440.026,39.862 L428.267,39.862 L428.267,102.893 Z M427.017,25.426 L441.136,25.426 L441.136,12.246 L427.017,12.246 L427.017,25.426 Z" id="Fill-2"></path>
                <path d="M295.012,71.885 C290.265,71.885 272.408,71.885 272.408,84.691 C272.408,88.708 274.902,95.612 285.398,95.612 C291.401,95.612 295.894,93.232 298.768,88.835 C301.383,84.57 301.503,81.049 301.763,72.26 C299.65,72.006 297.892,71.885 295.012,71.885 M303.14,102.897 C302.271,99.768 302.017,96.748 302.017,93.48 C296.395,103.906 287.892,104.908 282.663,104.908 C268.284,104.908 260.529,96.748 260.529,86.328 C260.529,81.296 262.287,73.269 271.533,67.869 C278.278,64.106 288.266,63.731 293.267,63.731 C296.255,63.731 298.146,63.852 301.763,64.106 C301.763,56.32 301.763,52.919 299.517,50.164 C297.144,47.017 292.016,46.021 288.653,46.021 C276.781,46.021 276.165,54.181 276.038,56.694 L264.286,56.694 C264.66,53.439 265.035,49.041 268.658,44.764 C273.405,39.491 282.289,37.987 288.894,37.987 C298.026,37.987 307.754,40.862 311.129,47.277 C313.128,51.046 313.255,54.061 313.255,56.942 L312.76,87.077 C312.76,88.073 312.881,96.5 313.757,102.897 L303.14,102.897" id="Fill-3"></path>
                <path d="M323.777,47.154 L323.656,39.863 L335.396,39.863 L335.516,50.042 C336.893,47.402 341.386,38.613 355.626,38.613 C361.235,38.613 378.375,40.752 378.375,60.081 L378.375,102.895 L366.369,102.895 L366.369,62.847 C366.369,58.697 365.874,54.934 362.999,52.041 C359.991,49.153 355.88,47.783 351.882,47.783 C343.385,47.783 335.516,53.932 335.516,66.604 L335.516,102.895 L323.777,102.895 L323.777,47.154" id="Fill-4"></path>
                <path d="M382.04,39.862 L393.158,39.862 L393.158,26.429 L404.77,22.666 L404.77,39.862 L418.756,39.862 L418.756,48.524 L404.77,48.524 L404.77,86.077 C404.77,89.206 404.77,94.492 413.14,94.492 C415.52,94.492 417.76,94.111 418.756,93.857 L418.756,103.027 C416.636,103.401 413.267,103.769 409.009,103.769 C398.272,103.769 393.158,100.641 393.158,90.348 L393.158,48.524 L382.04,48.524 L382.04,39.862" id="Fill-5"></path>
                <path d="M450.84,52.673 C450.84,48.403 450.586,44.005 450.205,39.861 L462.078,39.861 L462.332,52.045 C464.572,43.263 472.072,40.369 477.32,39.614 C480.823,39.113 483.45,39.233 485.443,39.373 L485.443,50.915 C484.821,50.674 484.072,50.535 483.19,50.42 C482.314,50.293 481.204,50.293 479.82,50.293 C465.955,50.293 462.694,58.568 462.694,69.369 L462.694,102.892 L450.84,102.892 L450.84,52.673" id="Fill-6"></path>
                <path d="M45.88,75.032 C29.07,75.032 15.446,61.332 15.446,44.44 C15.446,27.548 29.07,13.854 45.88,13.854 C62.683,13.854 76.313,27.548 76.313,44.44 C76.313,61.332 62.683,75.032 45.88,75.032 M45.88,0.16 C21.569,0.16 1.86,19.965 1.86,44.402 C1.86,68.832 21.569,88.643 45.88,88.643 C70.19,88.643 89.899,68.832 89.899,44.402 C89.899,19.965 70.19,0.16 45.88,0.16" id="Fill-7"></path>
                <polyline id="Fill-8" points="85.222 84.757 45.879 101.833 6.53 84.757 0 97.347 45.879 117 91.758 97.347 85.222 84.757"></polyline>
                <path d="M130.924,52.043 L145.786,52.043 C154.048,52.043 166.657,51.421 166.657,36.611 C166.657,22.409 154.911,22.409 148.4,22.409 L130.924,22.409 L130.924,52.043 Z M118.436,12.249 L148.654,12.249 C159.651,12.249 167.158,12.878 173.281,19.528 C177.78,24.167 179.894,30.328 179.894,37.099 C179.894,44.009 177.654,49.917 172.786,54.81 C168.027,59.575 161.796,62.602 145.538,62.602 L130.924,62.602 L130.924,102.897 L118.436,102.897 L118.436,12.249 Z" id="Fill-9"></path>
                <path d="M212.279,71.885 C207.526,71.885 189.676,71.885 189.676,84.691 C189.676,88.708 192.163,95.612 202.665,95.612 C208.656,95.612 213.155,93.232 216.042,88.835 C218.663,84.57 218.777,81.049 219.031,72.26 C216.905,72.006 215.154,71.885 212.279,71.885 M220.402,102.897 C219.526,99.768 219.272,96.748 219.272,93.48 C213.662,103.906 205.159,104.908 199.905,104.908 C185.539,104.908 177.816,96.748 177.816,86.328 C177.816,81.296 179.548,73.269 188.8,67.869 C195.552,64.106 205.546,63.731 210.534,63.731 C213.529,63.731 215.408,63.852 219.031,64.106 C219.031,56.32 219.031,52.919 216.791,50.164 C214.411,47.017 209.29,46.021 205.908,46.021 C194.042,46.021 193.42,54.181 193.293,56.694 L181.56,56.694 C181.922,53.439 182.302,49.041 185.919,44.764 C190.685,39.491 199.537,37.987 206.162,37.987 C215.281,37.987 225.027,40.862 228.403,47.277 C230.415,51.046 230.529,54.061 230.529,56.942 L230.022,87.077 C230.022,88.073 230.161,96.5 231.024,102.897 L220.402,102.897" id="Fill-10"></path>
            </g>
        </g>
    </g>
</svg>
