<svg width="1800" height="1080" viewBox="0 0 1800 1080" fill="none" xmlns="http://www.w3.org/2000/svg">
<rect width="1800" height="1080" fill="#F7F7F7"/>
<g filter="url(#filter0_d)">
<path d="M490 323H656.594C665.537 323 674.072 326.742 680.131 333.32L751.537 410.843C756.979 416.751 760 424.49 760 432.523V683H490V323Z" fill="url(#paint0_linear)"/>
</g>
<mask id="mask0" mask-type="alpha" maskUnits="userSpaceOnUse" x="490" y="323" width="270" height="360">
<path d="M490 323H656.594C665.537 323 674.072 326.742 680.131 333.32L751.537 410.843C756.979 416.751 760 424.49 760 432.523V683H490V323Z" fill="#2C2D35"/>
</mask>
<g mask="url(#mask0)">
<g filter="url(#filter1_di)">
<path d="M670 317L766 421C766 421 745 419 719 419C693 419 670 421 670 421C670 421 672 400.5 672 369C672 337.5 670 317 670 317Z" fill="#363942"/>
</g>
</g>
<path d="M587 468C587 458.059 595.059 450 605 450H623V486H605C595.059 486 587 477.941 587 468Z" fill="#E05A32"/>
<path d="M623 450H641C650.941 450 659 458.059 659 468C659 477.941 650.941 486 641 486H623V450Z" fill="#EF7A69"/>
<path d="M587 504C587 494.059 595.059 486 605 486H623V522H605C595.059 522 587 513.941 587 504Z" fill="#9762F6"/>
<path d="M659 504C659 494.059 650.941 486 641 486C631.059 486 623 494.059 623 504C623 513.941 631.059 522 641 522C650.941 522 659 513.941 659 504Z" fill="#54BBF8"/>
<path d="M587 540C587 530.059 595.059 522 605 522H623V540C623 549.941 614.941 558 605 558C595.059 558 587 549.941 587 540Z" fill="#5ECB89"/>
<g filter="url(#filter2_d)">
<path d="M531.344 749H535.322V737.201H538.439V734.07H535.24V732.826C535.24 731.541 535.814 730.926 537.373 730.926C537.893 730.926 538.303 730.967 538.562 730.994V728.178C537.988 728.082 537.318 728.027 536.512 728.027C532.875 728.027 531.344 729.545 531.344 732.539V734.07H528.91V737.201H531.344V749ZM541.748 749H545.727V728.164H541.748V749ZM556.555 749.328C561.189 749.328 563.979 746.389 563.979 741.453C563.979 736.559 561.148 733.592 556.555 733.592C551.961 733.592 549.131 736.572 549.131 741.453C549.131 746.389 551.92 749.328 556.555 749.328ZM556.555 746.074C554.422 746.074 553.219 744.393 553.219 741.453C553.219 738.555 554.436 736.846 556.555 736.846C558.66 736.846 559.891 738.555 559.891 741.453C559.891 744.379 558.674 746.074 556.555 746.074ZM587.494 733.92H583.543L581.301 744.734H581.055L578.402 733.92H574.602L571.963 744.734H571.717L569.475 733.92H565.441L569.461 749H573.645L576.311 738.596H576.557L579.25 749H583.488L587.494 733.92ZM594.699 739.812H594.453V728.164H590.475V749H594.453V743.996L595.547 742.875L599.949 749H604.666L598.527 740.387L604.27 733.92H599.744L594.699 739.812ZM607.209 749H611.188V733.92H607.209V749ZM609.205 731.814C610.627 731.814 611.557 730.98 611.557 729.805C611.557 728.615 610.627 727.795 609.205 727.795C607.77 727.795 606.854 728.615 606.854 729.805C606.854 730.98 607.77 731.814 609.205 731.814ZM616.355 730.338V734.07H614.004V737.201H616.355V744.926C616.355 747.865 617.805 749.055 621.469 749.055C622.234 749.055 622.973 748.973 623.465 748.877V745.842C623.082 745.883 622.809 745.896 622.289 745.896C620.936 745.896 620.334 745.295 620.334 743.982V737.201H623.465V734.07H620.334V730.338H616.355ZM635.797 742.902V739.17H626.814V742.902H635.797ZM653.215 733.92H649.018L645.928 745.158H645.682L642.564 733.92H638.285L643.521 749H648.006L653.215 733.92ZM655.676 735.178V735.246H659.504V735.164C659.504 733.346 660.816 732.088 662.73 732.088C664.535 732.088 665.82 733.209 665.82 734.795C665.82 736.08 665.123 737.105 662.348 739.812L655.908 746.115V749H670.141V745.568H661.5V745.322L665.273 741.727C668.691 738.514 669.854 736.668 669.854 734.521C669.854 731.131 666.982 728.766 662.867 728.766C658.602 728.766 655.676 731.363 655.676 735.178ZM676.58 749.369C678.057 749.369 679 748.371 679 746.99C679 745.609 678.057 744.625 676.58 744.625C675.117 744.625 674.16 745.609 674.16 746.99C674.16 748.371 675.117 749.369 676.58 749.369ZM683.43 749H687.408V737.201H690.525V734.07H687.326V732.826C687.326 731.541 687.9 730.926 689.459 730.926C689.979 730.926 690.389 730.967 690.648 730.994V728.178C690.074 728.082 689.404 728.027 688.598 728.027C684.961 728.027 683.43 729.545 683.43 732.539V734.07H680.996V737.201H683.43V749ZM693.725 749H697.703V733.92H693.725V749ZM695.721 731.814C697.143 731.814 698.072 730.98 698.072 729.805C698.072 728.615 697.143 727.795 695.721 727.795C694.285 727.795 693.369 728.615 693.369 729.805C693.369 730.98 694.285 731.814 695.721 731.814ZM708.436 745.637C706.275 745.637 705.045 743.982 705.045 741.316C705.045 738.678 706.289 737.01 708.436 737.01C710.582 737.01 711.881 738.678 711.881 741.33C711.881 743.982 710.596 745.637 708.436 745.637ZM708.381 754.715C712.934 754.715 715.818 752.486 715.818 748.945V733.92H711.963V736.34H711.717C710.91 734.686 709.174 733.674 707.137 733.674C703.309 733.674 700.957 736.654 700.957 741.33C700.957 745.869 703.295 748.781 707.055 748.781C709.174 748.781 710.76 747.934 711.594 746.348H711.84V749.137C711.84 750.832 710.596 751.816 708.463 751.816C706.74 751.816 705.619 751.229 705.414 750.299H701.477C701.723 752.951 704.375 754.715 708.381 754.715Z" fill="#222222"/>
</g>
<g filter="url(#filter3_d)">
<path d="M1040 323H1206.59C1215.54 323 1224.07 326.742 1230.13 333.32L1301.54 410.843C1306.98 416.751 1310 424.49 1310 432.523V683H1040V323Z" fill="white"/>
</g>
<mask id="mask1" mask-type="alpha" maskUnits="userSpaceOnUse" x="1040" y="323" width="270" height="360">
<path d="M1040 323H1206.59C1215.54 323 1224.07 326.742 1230.13 333.32L1301.54 410.843C1306.98 416.751 1310 424.49 1310 432.523V683H1040V323Z" fill="#F7F7F7"/>
</mask>
<g mask="url(#mask1)">
<g filter="url(#filter4_di)">
<path d="M1220 317L1316 421C1316 421 1295 419 1269 419C1243 419 1220 421 1220 421C1220 421 1222 400.5 1222 369C1222 337.5 1220 317 1220 317Z" fill="#FEFEFE"/>
</g>
</g>
<g clip-path="url(#clip0)">
<path fill-rule="evenodd" clip-rule="evenodd" d="M1240 484.609L1175 564.5L1212.92 484.609H1240ZM1137.08 484.609V447.326L1175 442L1137.08 484.609ZM1212.92 484.609L1175 442L1212.92 447.326V484.609ZM1110 484.609L1137.08 447.326V484.609H1110ZM1240 484.609H1212.92V447.326L1240 484.609ZM1137.08 484.609H1212.92L1175 564.5L1137.08 484.609ZM1137.08 484.609L1175 442L1212.92 484.609H1137.08ZM1110 484.609H1137.08L1175 564.5L1110 484.609Z" fill="#FCEEB0"/>
<path d="M1137.08 484.609L1175 442L1137.08 447.326V484.609Z" fill="#FECE1D"/>
<path d="M1137.08 484.609L1175 442L1137.08 447.326V484.609Z" fill="url(#paint1_linear)"/>
<path d="M1212.92 484.609L1175 442L1212.92 447.326V484.609Z" fill="#FECE1D"/>
<path d="M1212.92 484.609L1175 442L1212.92 447.326V484.609Z" fill="url(#paint2_linear)"/>
<path fill-rule="evenodd" clip-rule="evenodd" d="M1110 484.609H1137.08V447.326L1110 484.609Z" fill="#FCA200"/>
<path fill-rule="evenodd" clip-rule="evenodd" d="M1240 484.609H1212.92V447.326L1240 484.609Z" fill="#FCA200"/>
<path fill-rule="evenodd" clip-rule="evenodd" d="M1137.08 484.609L1175 564.5L1212.92 484.609H1137.08Z" fill="#FC9A00"/>
<path fill-rule="evenodd" clip-rule="evenodd" d="M1137.08 484.609L1175 442L1212.92 484.609H1137.08Z" fill="#FCEEB0"/>
<path fill-rule="evenodd" clip-rule="evenodd" d="M1110 484.609L1175 564.5L1137.08 484.609H1110Z" fill="#EF6D01"/>
<path fill-rule="evenodd" clip-rule="evenodd" d="M1240 484.609L1175 564.5L1212.92 484.609H1240Z" fill="#EF6D01"/>
</g>
<g filter="url(#filter5_d)">
<path d="M1054.3 749H1058.28V737.201H1061.4V734.07H1058.2V732.826C1058.2 731.541 1058.78 730.926 1060.33 730.926C1060.85 730.926 1061.26 730.967 1061.52 730.994V728.178C1060.95 728.082 1060.28 728.027 1059.47 728.027C1055.84 728.027 1054.3 729.545 1054.3 732.539V734.07H1051.87V737.201H1054.3V749ZM1064.71 749H1068.69V728.164H1064.71V749ZM1079.52 749.328C1084.15 749.328 1086.94 746.389 1086.94 741.453C1086.94 736.559 1084.11 733.592 1079.52 733.592C1074.92 733.592 1072.09 736.572 1072.09 741.453C1072.09 746.389 1074.88 749.328 1079.52 749.328ZM1079.52 746.074C1077.38 746.074 1076.18 744.393 1076.18 741.453C1076.18 738.555 1077.4 736.846 1079.52 736.846C1081.62 736.846 1082.85 738.555 1082.85 741.453C1082.85 744.379 1081.63 746.074 1079.52 746.074ZM1110.46 733.92H1106.5L1104.26 744.734H1104.02L1101.36 733.92H1097.56L1094.92 744.734H1094.68L1092.44 733.92H1088.4L1092.42 749H1096.61L1099.27 738.596H1099.52L1102.21 749H1106.45L1110.46 733.92ZM1117.66 739.812H1117.41V728.164H1113.44V749H1117.41V743.996L1118.51 742.875L1122.91 749H1127.63L1121.49 740.387L1127.23 733.92H1122.71L1117.66 739.812ZM1130.17 749H1134.15V733.92H1130.17V749ZM1132.17 731.814C1133.59 731.814 1134.52 730.98 1134.52 729.805C1134.52 728.615 1133.59 727.795 1132.17 727.795C1130.73 727.795 1129.81 728.615 1129.81 729.805C1129.81 730.98 1130.73 731.814 1132.17 731.814ZM1139.32 730.338V734.07H1136.96V737.201H1139.32V744.926C1139.32 747.865 1140.77 749.055 1144.43 749.055C1145.2 749.055 1145.93 748.973 1146.43 748.877V745.842C1146.04 745.883 1145.77 745.896 1145.25 745.896C1143.9 745.896 1143.29 745.295 1143.29 743.982V737.201H1146.43V734.07H1143.29V730.338H1139.32ZM1158.76 742.902V739.17H1149.78V742.902H1158.76ZM1176.18 733.92H1171.98L1168.89 745.158H1168.64L1165.53 733.92H1161.25L1166.48 749H1170.97L1176.18 733.92ZM1178.64 735.178V735.246H1182.46V735.164C1182.46 733.346 1183.78 732.088 1185.69 732.088C1187.5 732.088 1188.78 733.209 1188.78 734.795C1188.78 736.08 1188.08 737.105 1185.31 739.812L1178.87 746.115V749H1193.1V745.568H1184.46V745.322L1188.23 741.727C1191.65 738.514 1192.81 736.668 1192.81 734.521C1192.81 731.131 1189.94 728.766 1185.83 728.766C1181.56 728.766 1178.64 731.363 1178.64 735.178ZM1199.54 749.369C1201.02 749.369 1201.96 748.371 1201.96 746.99C1201.96 745.609 1201.02 744.625 1199.54 744.625C1198.08 744.625 1197.12 745.609 1197.12 746.99C1197.12 748.371 1198.08 749.369 1199.54 749.369ZM1206.06 738.35C1206.06 740.674 1207.48 742.068 1210.41 742.711L1213.14 743.326C1214.47 743.613 1215.04 744.064 1215.04 744.803C1215.04 745.773 1213.98 746.416 1212.43 746.416C1210.85 746.416 1209.88 745.828 1209.58 744.803H1205.69C1205.97 747.701 1208.37 749.328 1212.35 749.328C1216.3 749.328 1219 747.359 1219 744.352C1219 742.096 1217.68 740.865 1214.76 740.223L1211.93 739.607C1210.53 739.293 1209.89 738.842 1209.89 738.104C1209.89 737.146 1210.94 736.504 1212.37 736.504C1213.84 736.504 1214.76 737.105 1214.96 738.076H1218.64C1218.42 735.191 1216.17 733.592 1212.34 733.592C1208.58 733.592 1206.06 735.492 1206.06 738.35ZM1226.62 739.812H1226.38V728.164H1222.4V749H1226.38V743.996L1227.47 742.875L1231.88 749H1236.59L1230.45 740.387L1236.2 733.92H1231.67L1226.62 739.812ZM1244.73 736.641C1246.59 736.641 1247.79 737.885 1247.87 739.881H1241.45C1241.58 737.926 1242.88 736.641 1244.73 736.641ZM1247.95 744.707C1247.53 745.705 1246.45 746.266 1244.88 746.266C1242.8 746.266 1241.49 744.871 1241.43 742.629V742.424H1251.78V741.207C1251.78 736.422 1249.16 733.592 1244.71 733.592C1240.23 733.592 1237.47 736.627 1237.47 741.535C1237.47 746.43 1240.17 749.328 1244.77 749.328C1248.46 749.328 1251.06 747.551 1251.66 744.707H1247.95ZM1256.18 730.338V734.07H1253.83V737.201H1256.18V744.926C1256.18 747.865 1257.63 749.055 1261.3 749.055C1262.06 749.055 1262.8 748.973 1263.29 748.877V745.842C1262.91 745.883 1262.64 745.896 1262.12 745.896C1260.76 745.896 1260.16 745.295 1260.16 743.982V737.201H1263.29V734.07H1260.16V730.338H1256.18ZM1279.85 739.238C1279.52 735.807 1277.13 733.592 1273.14 733.592C1268.42 733.592 1265.77 736.422 1265.77 741.426C1265.77 746.484 1268.43 749.328 1273.14 749.328C1277.06 749.328 1279.52 747.154 1279.85 743.777H1276.13C1275.83 745.268 1274.76 746.061 1273.14 746.061C1271 746.061 1269.79 744.434 1269.79 741.426C1269.79 738.459 1270.99 736.859 1273.14 736.859C1274.83 736.859 1275.86 737.803 1276.13 739.238H1279.85ZM1283.1 749H1287.08V740.346C1287.08 738.391 1288.23 737.064 1290.23 737.064C1292.03 737.064 1293 738.145 1293 740.236V749H1296.98V739.293C1296.98 735.67 1295.05 733.633 1291.81 733.633C1289.6 733.633 1287.96 734.672 1287.26 736.395H1287.01V728.164H1283.1V749Z" fill="#222222"/>
</g>
<defs>
<filter id="filter0_d" x="470" y="323" width="310" height="400" filterUnits="userSpaceOnUse" color-interpolation-filters="sRGB">
<feFlood flood-opacity="0" result="BackgroundImageFix"/>
<feColorMatrix in="SourceAlpha" type="matrix" values="0 0 0 0 0 0 0 0 0 0 0 0 0 0 0 0 0 0 127 0"/>
<feOffset dy="20"/>
<feGaussianBlur stdDeviation="10"/>
<feColorMatrix type="matrix" values="0 0 0 0 0 0 0 0 0 0 0 0 0 0 0 0 0 0 0.1 0"/>
<feBlend mode="normal" in2="BackgroundImageFix" result="effect1_dropShadow"/>
<feBlend mode="normal" in="SourceGraphic" in2="effect1_dropShadow" result="shape"/>
</filter>
<filter id="filter1_di" x="636" y="297" width="164" height="172" filterUnits="userSpaceOnUse" color-interpolation-filters="sRGB">
<feFlood flood-opacity="0" result="BackgroundImageFix"/>
<feColorMatrix in="SourceAlpha" type="matrix" values="0 0 0 0 0 0 0 0 0 0 0 0 0 0 0 0 0 0 127 0"/>
<feOffset dy="14"/>
<feGaussianBlur stdDeviation="17"/>
<feColorMatrix type="matrix" values="0 0 0 0 0 0 0 0 0 0 0 0 0 0 0 0 0 0 0.4 0"/>
<feBlend mode="normal" in2="BackgroundImageFix" result="effect1_dropShadow"/>
<feBlend mode="normal" in="SourceGraphic" in2="effect1_dropShadow" result="shape"/>
<feColorMatrix in="SourceAlpha" type="matrix" values="0 0 0 0 0 0 0 0 0 0 0 0 0 0 0 0 0 0 127 0" result="hardAlpha"/>
<feOffset dx="-11"/>
<feGaussianBlur stdDeviation="6.5"/>
<feComposite in2="hardAlpha" operator="arithmetic" k2="-1" k3="1"/>
<feColorMatrix type="matrix" values="0 0 0 0 0 0 0 0 0 0 0 0 0 0 0 0 0 0 0.1 0"/>
<feBlend mode="normal" in2="shape" result="effect2_innerShadow"/>
</filter>
<filter id="filter2_d" x="526.91" y="727.795" width="190.908" height="31.9199" filterUnits="userSpaceOnUse" color-interpolation-filters="sRGB">
<feFlood flood-opacity="0" result="BackgroundImageFix"/>
<feColorMatrix in="SourceAlpha" type="matrix" values="0 0 0 0 0 0 0 0 0 0 0 0 0 0 0 0 0 0 127 0"/>
<feOffset dy="3"/>
<feGaussianBlur stdDeviation="1"/>
<feColorMatrix type="matrix" values="0 0 0 0 0 0 0 0 0 0 0 0 0 0 0 0 0 0 0.1 0"/>
<feBlend mode="normal" in2="BackgroundImageFix" result="effect1_dropShadow"/>
<feBlend mode="normal" in="SourceGraphic" in2="effect1_dropShadow" result="shape"/>
</filter>
<filter id="filter3_d" x="1020" y="323" width="310" height="400" filterUnits="userSpaceOnUse" color-interpolation-filters="sRGB">
<feFlood flood-opacity="0" result="BackgroundImageFix"/>
<feColorMatrix in="SourceAlpha" type="matrix" values="0 0 0 0 0 0 0 0 0 0 0 0 0 0 0 0 0 0 127 0"/>
<feOffset dy="20"/>
<feGaussianBlur stdDeviation="10"/>
<feColorMatrix type="matrix" values="0 0 0 0 0 0 0 0 0 0 0 0 0 0 0 0 0 0 0.1 0"/>
<feBlend mode="normal" in2="BackgroundImageFix" result="effect1_dropShadow"/>
<feBlend mode="normal" in="SourceGraphic" in2="effect1_dropShadow" result="shape"/>
</filter>
<filter id="filter4_di" x="1185" y="292" width="156" height="164" filterUnits="userSpaceOnUse" color-interpolation-filters="sRGB">
<feFlood flood-opacity="0" result="BackgroundImageFix"/>
<feColorMatrix in="SourceAlpha" type="matrix" values="0 0 0 0 0 0 0 0 0 0 0 0 0 0 0 0 0 0 127 0"/>
<feOffset dx="-5" dy="5"/>
<feGaussianBlur stdDeviation="15"/>
<feColorMatrix type="matrix" values="0 0 0 0 0 0 0 0 0 0 0 0 0 0 0 0 0 0 0.1 0"/>
<feBlend mode="normal" in2="BackgroundImageFix" result="effect1_dropShadow"/>
<feBlend mode="normal" in="SourceGraphic" in2="effect1_dropShadow" result="shape"/>
<feColorMatrix in="SourceAlpha" type="matrix" values="0 0 0 0 0 0 0 0 0 0 0 0 0 0 0 0 0 0 127 0" result="hardAlpha"/>
<feOffset dx="-11"/>
<feGaussianBlur stdDeviation="6.5"/>
<feComposite in2="hardAlpha" operator="arithmetic" k2="-1" k3="1"/>
<feColorMatrix type="matrix" values="0 0 0 0 0 0 0 0 0 0 0 0 0 0 0 0 0 0 0.11 0"/>
<feBlend mode="normal" in2="shape" result="effect2_innerShadow"/>
</filter>
<filter id="filter5_d" x="1049.87" y="727.795" width="249.109" height="26.5742" filterUnits="userSpaceOnUse" color-interpolation-filters="sRGB">
<feFlood flood-opacity="0" result="BackgroundImageFix"/>
<feColorMatrix in="SourceAlpha" type="matrix" values="0 0 0 0 0 0 0 0 0 0 0 0 0 0 0 0 0 0 127 0"/>
<feOffset dy="3"/>
<feGaussianBlur stdDeviation="1"/>
<feColorMatrix type="matrix" values="0 0 0 0 0 0 0 0 0 0 0 0 0 0 0 0 0 0 0.1 0"/>
<feBlend mode="normal" in2="BackgroundImageFix" result="effect1_dropShadow"/>
<feBlend mode="normal" in="SourceGraphic" in2="effect1_dropShadow" result="shape"/>
</filter>
<linearGradient id="paint0_linear" x1="625" y1="595.813" x2="625" y2="421.438" gradientUnits="userSpaceOnUse">
<stop stop-color="#30333B"/>
<stop offset="1" stop-color="#2B2C34"/>
</linearGradient>
<linearGradient id="paint1_linear" x1="1156.04" y1="461.558" x2="1138.08" y2="449.833" gradientUnits="userSpaceOnUse">
<stop stop-color="#FDC004"/>
<stop offset="1" stop-color="#FDD026"/>
</linearGradient>
<linearGradient id="paint2_linear" x1="1193.96" y1="461.558" x2="1176" y2="449.833" gradientUnits="userSpaceOnUse">
<stop stop-color="#FDC004"/>
<stop offset="1" stop-color="#FDD026"/>
</linearGradient>
<clipPath id="clip0">
<rect width="130" height="122.5" fill="white" transform="translate(1110 442)"/>
</clipPath>
</defs>
</svg>
