<svg id="05-tap-right-curve-up" width="240" height="180" viewBox="0 0 240 180" fill="none" xmlns="http://www.w3.org/2000/svg">
<path id="5-path" d="M228 4L228 106C228 130.301 208.301 150 184 150L38 150" stroke="#222222" stroke-width="4" stroke-linecap="round" stroke-linejoin="round"/>
<path id="5-endpoint-b" d="M238 13L229.536 2.84373C228.737 1.88422 227.263 1.88422 226.464 2.84373L218 13" stroke="#222222" stroke-width="4" stroke-linecap="round" stroke-linejoin="round"/>
<path id="5-tap" d="M58 150C58 165.464 45.464 178 30 178C14.536 178 2 165.464 2 150C2 134.536 14.536 122 30 122C45.464 122 58 134.536 58 150Z" fill="#7B61FF" fill-opacity="0.1" stroke="#7B61FF" stroke-width="4" stroke-linecap="round" stroke-linejoin="round"/>
<path id="5-endpoint-a" fill-rule="evenodd" clip-rule="evenodd" d="M30 158C34.4183 158 38 154.418 38 150C38 145.582 34.4183 142 30 142C25.5817 142 22 145.582 22 150C22 154.418 25.5817 158 30 158Z" stroke="#222222" stroke-width="4" stroke-linecap="round" stroke-linejoin="round"/>
</svg>
