<svg id="06-tap-right-curve-up-hook" width="240" height="180" viewBox="0 0 240 180" fill="none" xmlns="http://www.w3.org/2000/svg">
<path id="6-path" d="M117 11.9998L194 11.9998C218.301 11.9998 238 31.6993 238 55.9998V106C238 130.3 218.301 150 194 150L39 150" stroke="#222222" stroke-width="4" stroke-linecap="round" stroke-linejoin="round"/>
<path id="6-endpoint-b" d="M125.894 2.00002L115.738 10.4636C114.779 11.2632 114.779 12.7369 115.738 13.5365L125.894 22" stroke="#222222" stroke-width="4" stroke-linecap="round" stroke-linejoin="round"/>
<path id="6-tap" d="M58 150C58 165.464 45.464 178 30 178C14.536 178 2 165.464 2 150C2 134.536 14.536 122 30 122C45.464 122 58 134.536 58 150Z" fill="#7B61FF" fill-opacity="0.1" stroke="#7B61FF" stroke-width="4" stroke-linecap="round" stroke-linejoin="round"/>
<path id="6-endpoint-a" fill-rule="evenodd" clip-rule="evenodd" d="M30 158C34.4183 158 38 154.418 38 150C38 145.582 34.4183 142 30 142C25.5817 142 22 145.582 22 150C22 154.418 25.5817 158 30 158Z" stroke="#222222" stroke-width="4" stroke-linecap="round" stroke-linejoin="round"/>
</svg>


