<svg width="1800" height="1080" viewBox="0 0 1800 1080" fill="none" xmlns="http://www.w3.org/2000/svg">
<rect width="1800" height="1080" fill="#F7F7F7"/>
<path d="M900 820H1180C1224.18 820 1260 855.817 1260 900V1000" stroke="#222222" stroke-width="4" stroke-linecap="round" stroke-linejoin="round"/>
<path fill-rule="evenodd" clip-rule="evenodd" d="M1270.18 995.029C1270.98 993.696 1270.02 992 1268.47 992H1251.53C1249.98 992 1249.02 993.696 1249.82 995.029L1258.29 1009.14C1259.06 1010.44 1260.94 1010.44 1261.71 1009.14L1270.18 995.029Z" fill="#222222"/>
<path d="M900 820H620C575.817 820 540 855.817 540 900V1000" stroke="#222222" stroke-width="4" stroke-linecap="round" stroke-linejoin="round"/>
<path fill-rule="evenodd" clip-rule="evenodd" d="M529.817 995.029C529.018 993.696 529.978 992 531.532 992H548.468C550.022 992 550.982 993.696 550.183 995.029L541.715 1009.14C540.938 1010.44 539.062 1010.44 538.285 1009.14L529.817 995.029Z" fill="#222222"/>
<path d="M900 640V820" stroke="#222222" stroke-width="4"/>
<path d="M900 802.828L917.172 820L900 837.172L882.828 820L900 802.828Z" fill="white" stroke="#222222" stroke-width="4" stroke-linecap="round" stroke-linejoin="bevel"/>
<path fill-rule="evenodd" clip-rule="evenodd" d="M900 648C904.418 648 908 644.418 908 640C908 635.582 904.418 632 900 632C895.582 632 892 635.582 892 640C892 644.418 895.582 648 900 648Z" fill="#222222"/>
<path d="M360 540V820C360 864.183 324.183 900 280 900H120" stroke="#222222" stroke-width="4"/>
<path fill-rule="evenodd" clip-rule="evenodd" d="M124.971 910.183C126.304 910.982 128 910.022 128 908.468L128 891.532C128 889.978 126.304 889.018 124.971 889.817L110.858 898.285C109.564 899.062 109.564 900.938 110.858 901.715L124.971 910.183Z" fill="#222222"/>
<path fill-rule="evenodd" clip-rule="evenodd" d="M360 532C364.418 532 368 535.582 368 540C368 544.418 364.418 548 360 548C355.582 548 352 544.418 352 540C352 535.582 355.582 532 360 532Z" fill="#222222"/>
<path d="M360 540V260C360 215.817 324.183 180 280 180H120" stroke="#222222" stroke-width="4"/>
<path fill-rule="evenodd" clip-rule="evenodd" d="M124.971 169.817C126.304 169.018 128 169.978 128 171.532L128 188.468C128 190.022 126.304 190.982 124.971 190.183L110.858 181.715C109.564 180.938 109.564 179.062 110.858 178.285L124.971 169.817Z" fill="#222222"/>
<path fill-rule="evenodd" clip-rule="evenodd" d="M360 548C364.418 548 368 544.418 368 540C368 535.582 364.418 532 360 532C355.582 532 352 535.582 352 540C352 544.418 355.582 548 360 548Z" fill="#222222"/>
<line x1="2" y1="-2" x2="178" y2="-2" transform="matrix(-1 0 0 1 540 542)" stroke="#222222" stroke-width="4" stroke-linecap="round" stroke-linejoin="round"/>
<path d="M377.172 540L360 522.828L342.828 540L360 557.172L377.172 540Z" fill="white" stroke="#222222" stroke-width="4" stroke-linecap="round" stroke-linejoin="bevel"/>
<path fill-rule="evenodd" clip-rule="evenodd" d="M540 548C535.582 548 532 544.418 532 540C532 535.582 535.582 532 540 532C544.418 532 548 535.582 548 540C548 544.418 544.418 548 540 548Z" fill="#222222"/>
<path d="M1440 540V820C1440 864.183 1475.82 900 1520 900H1680" stroke="#222222" stroke-width="4"/>
<path fill-rule="evenodd" clip-rule="evenodd" d="M1675.03 910.183C1673.7 910.982 1672 910.022 1672 908.468L1672 891.532C1672 889.978 1673.7 889.018 1675.03 889.817L1689.14 898.285C1690.44 899.062 1690.44 900.938 1689.14 901.715L1675.03 910.183Z" fill="#222222"/>
<path fill-rule="evenodd" clip-rule="evenodd" d="M1440 532C1435.58 532 1432 535.582 1432 540C1432 544.418 1435.58 548 1440 548C1444.42 548 1448 544.418 1448 540C1448 535.582 1444.42 532 1440 532Z" fill="#222222"/>
<path d="M1440 540V260C1440 215.817 1475.82 180 1520 180H1680" stroke="#222222" stroke-width="4"/>
<path fill-rule="evenodd" clip-rule="evenodd" d="M1675.03 169.817C1673.7 169.018 1672 169.978 1672 171.532L1672 188.468C1672 190.022 1673.7 190.982 1675.03 190.183L1689.14 181.715C1690.44 180.938 1690.44 179.062 1689.14 178.285L1675.03 169.817Z" fill="#222222"/>
<path fill-rule="evenodd" clip-rule="evenodd" d="M1440 548C1435.58 548 1432 544.418 1432 540C1432 535.582 1435.58 532 1440 532C1444.42 532 1448 535.582 1448 540C1448 544.418 1444.42 548 1440 548Z" fill="#222222"/>
<line x1="1262" y1="540" x2="1438" y2="540" stroke="#222222" stroke-width="4" stroke-linecap="round" stroke-linejoin="round"/>
<path d="M1422.83 540L1440 522.828L1457.17 540L1440 557.172L1422.83 540Z" fill="white" stroke="#222222" stroke-width="4" stroke-linecap="round" stroke-linejoin="bevel"/>
<path fill-rule="evenodd" clip-rule="evenodd" d="M1260 548C1264.42 548 1268 544.418 1268 540C1268 535.582 1264.42 532 1260 532C1255.58 532 1252 535.582 1252 540C1252 544.418 1255.58 548 1260 548Z" fill="#222222"/>
<path d="M900 260H1180C1224.18 260 1260 224.183 1260 180V80" stroke="#222222" stroke-width="4" stroke-linecap="round" stroke-linejoin="round"/>
<path fill-rule="evenodd" clip-rule="evenodd" d="M1270.18 84.971C1270.98 86.3041 1270.02 88 1268.47 88H1251.53C1249.98 88 1249.02 86.3041 1249.82 84.971L1258.29 70.8583C1259.06 69.5636 1260.94 69.5636 1261.71 70.8583L1270.18 84.971Z" fill="#222222"/>
<path fill-rule="evenodd" clip-rule="evenodd" d="M900 268C904.418 268 908 264.418 908 260C908 255.582 904.418 252 900 252C895.582 252 892 255.582 892 260C892 264.418 895.582 268 900 268Z" fill="#222222"/>
<path d="M900 260H620C575.817 260 540 224.183 540 180V80" stroke="#222222" stroke-width="4" stroke-linecap="round" stroke-linejoin="round"/>
<path fill-rule="evenodd" clip-rule="evenodd" d="M529.817 84.971C529.018 86.3041 529.978 88 531.532 88H548.468C550.022 88 550.982 86.3041 550.183 84.971L541.715 70.8583C540.938 69.5636 539.062 69.5636 538.285 70.8583L529.817 84.971Z" fill="#222222"/>
<path fill-rule="evenodd" clip-rule="evenodd" d="M900 268C895.582 268 892 264.418 892 260C892 255.582 895.582 252 900 252C904.418 252 908 255.582 908 260C908 264.418 904.418 268 900 268Z" fill="#222222"/>
<path d="M900 440V260" stroke="#222222" stroke-width="4"/>
<path d="M900 277.172L917.172 260L900 242.828L882.828 260L900 277.172Z" fill="white" stroke="#222222" stroke-width="4" stroke-linecap="round" stroke-linejoin="bevel"/>
<path fill-rule="evenodd" clip-rule="evenodd" d="M900 432C904.418 432 908 435.582 908 440C908 444.418 904.418 448 900 448C895.582 448 892 444.418 892 440C892 435.582 895.582 432 900 432Z" fill="#222222"/>
<rect x="596" y="520" width="608" height="40" rx="20" fill="#222222"/>
<path d="M808.225 540.101L810.747 534.203H813.463L809.438 542.57L809.429 547H806.968L806.959 542.465L802.995 534.203H805.702L808.225 540.101ZM814.421 542.157C814.421 541.466 814.521 540.827 814.72 540.241C814.919 539.649 815.209 539.137 815.59 538.703C815.977 538.27 816.445 537.93 816.996 537.684C817.553 537.438 818.188 537.314 818.903 537.314C819.618 537.314 820.254 537.438 820.811 537.684C821.367 537.93 821.836 538.27 822.217 538.703C822.604 539.137 822.896 539.649 823.096 540.241C823.295 540.827 823.395 541.466 823.395 542.157V542.342C823.395 543.039 823.295 543.684 823.096 544.275C822.896 544.861 822.606 545.371 822.226 545.805C821.845 546.238 821.376 546.578 820.819 546.824C820.263 547.064 819.63 547.185 818.921 547.185C818.206 547.185 817.567 547.064 817.005 546.824C816.448 546.578 815.977 546.238 815.59 545.805C815.209 545.371 814.919 544.861 814.72 544.275C814.521 543.684 814.421 543.039 814.421 542.342V542.157ZM816.864 542.342C816.864 542.74 816.902 543.115 816.979 543.467C817.055 543.812 817.175 544.117 817.339 544.381C817.503 544.639 817.714 544.844 817.972 544.996C818.235 545.148 818.552 545.225 818.921 545.225C819.278 545.225 819.586 545.148 819.844 544.996C820.102 544.844 820.31 544.639 820.468 544.381C820.632 544.117 820.752 543.812 820.828 543.467C820.904 543.115 820.942 542.74 820.942 542.342V542.157C820.942 541.771 820.904 541.404 820.828 541.059C820.752 540.713 820.632 540.408 820.468 540.145C820.31 539.881 820.102 539.673 819.844 539.521C819.586 539.368 819.272 539.292 818.903 539.292C818.54 539.292 818.229 539.368 817.972 539.521C817.714 539.673 817.503 539.881 817.339 540.145C817.175 540.408 817.055 540.713 816.979 541.059C816.902 541.404 816.864 541.771 816.864 542.157V542.342ZM831.63 545.664C831.308 546.139 830.918 546.511 830.461 546.78C830.01 547.05 829.515 547.185 828.976 547.185C828.483 547.185 828.032 547.108 827.622 546.956C827.212 546.804 826.86 546.563 826.567 546.235C826.274 545.901 826.046 545.479 825.882 544.97C825.724 544.454 825.645 543.836 825.645 543.115V537.49H828.088V543.133C828.088 543.52 828.114 543.845 828.167 544.108C828.226 544.372 828.316 544.586 828.439 544.75C828.562 544.908 828.724 545.022 828.923 545.093C829.122 545.163 829.365 545.198 829.652 545.198C830.139 545.198 830.534 545.107 830.839 544.926C831.144 544.738 831.375 544.483 831.533 544.161V537.49H833.985V547H831.771L831.63 545.664ZM843.205 537.314C843.574 537.314 843.914 537.341 844.225 537.394C844.541 537.44 844.796 537.493 844.989 537.552L844.629 539.986C844.307 539.91 843.976 539.854 843.636 539.819C843.302 539.778 842.982 539.758 842.678 539.758C841.992 539.758 841.441 539.89 841.025 540.153C840.615 540.417 840.308 540.795 840.103 541.287V547H837.659V537.49H839.936L840.05 539.046C840.437 538.507 840.899 538.085 841.438 537.78C841.978 537.47 842.566 537.314 843.205 537.314ZM864.554 543.66C864.554 543.432 864.513 543.218 864.431 543.019C864.354 542.819 864.22 542.635 864.026 542.465C863.839 542.289 863.59 542.131 863.279 541.99C862.975 541.844 862.594 541.709 862.137 541.586C861.58 541.434 861.047 541.243 860.537 541.015C860.033 540.786 859.588 540.511 859.201 540.188C858.814 539.866 858.504 539.491 858.27 539.063C858.041 538.636 857.927 538.144 857.927 537.587C857.927 537.048 858.041 536.559 858.27 536.119C858.498 535.68 858.814 535.305 859.219 534.994C859.623 534.684 860.101 534.446 860.651 534.282C861.202 534.112 861.8 534.027 862.444 534.027C863.112 534.027 863.722 534.124 864.272 534.317C864.829 534.511 865.307 534.783 865.705 535.135C866.104 535.48 866.414 535.894 866.637 536.374C866.859 536.854 866.971 537.382 866.971 537.956H864.562C864.551 537.669 864.498 537.405 864.404 537.165C864.316 536.925 864.182 536.72 864 536.55C863.824 536.374 863.602 536.239 863.332 536.146C863.068 536.046 862.758 535.996 862.4 535.996C862.072 535.996 861.779 536.037 861.521 536.119C861.27 536.195 861.056 536.307 860.88 536.453C860.704 536.594 860.569 536.764 860.476 536.963C860.388 537.156 860.344 537.367 860.344 537.596C860.344 537.836 860.402 538.053 860.52 538.246C860.643 538.439 860.818 538.615 861.047 538.773C861.275 538.926 861.551 539.066 861.873 539.195C862.201 539.324 862.57 539.444 862.98 539.556C863.566 539.726 864.105 539.934 864.598 540.18C865.09 540.426 865.512 540.719 865.863 541.059C866.221 541.393 866.496 541.776 866.689 542.21C866.889 542.638 866.988 543.115 866.988 543.643C866.988 544.205 866.874 544.706 866.646 545.146C866.423 545.579 866.112 545.948 865.714 546.253C865.315 546.552 864.841 546.78 864.29 546.938C863.739 547.091 863.139 547.167 862.488 547.167C862.084 547.167 861.68 547.129 861.275 547.053C860.877 546.982 860.493 546.871 860.124 546.719C859.761 546.566 859.421 546.376 859.104 546.147C858.788 545.919 858.513 545.652 858.278 545.348C858.05 545.043 857.868 544.697 857.733 544.311C857.604 543.924 857.54 543.496 857.54 543.027H859.966C859.978 543.414 860.045 543.745 860.168 544.021C860.291 544.296 860.461 544.521 860.678 544.697C860.9 544.873 861.164 545.002 861.469 545.084C861.779 545.166 862.119 545.207 862.488 545.207C862.816 545.207 863.106 545.169 863.358 545.093C863.616 545.017 863.833 544.911 864.009 544.776C864.185 544.642 864.319 544.48 864.413 544.293C864.507 544.1 864.554 543.889 864.554 543.66ZM877.351 542.333C877.351 543.024 877.269 543.666 877.104 544.258C876.946 544.85 876.709 545.362 876.393 545.796C876.082 546.224 875.695 546.561 875.232 546.807C874.77 547.053 874.239 547.176 873.642 547.176C873.132 547.176 872.684 547.088 872.297 546.912C871.91 546.736 871.573 546.49 871.286 546.174V550.656H868.843V537.49H871.102L871.189 538.422C871.482 538.07 871.828 537.798 872.227 537.604C872.625 537.411 873.091 537.314 873.624 537.314C874.228 537.314 874.761 537.432 875.224 537.666C875.687 537.895 876.076 538.223 876.393 538.65C876.709 539.072 876.946 539.582 877.104 540.18C877.269 540.771 877.351 541.428 877.351 542.148V542.333ZM874.907 542.148C874.907 541.75 874.869 541.378 874.793 541.032C874.723 540.681 874.608 540.379 874.45 540.127C874.298 539.869 874.099 539.667 873.853 539.521C873.612 539.374 873.319 539.301 872.974 539.301C872.546 539.301 872.194 539.386 871.919 539.556C871.649 539.72 871.438 539.954 871.286 540.259V544.231C871.438 544.53 871.649 544.771 871.919 544.952C872.194 545.128 872.552 545.216 872.991 545.216C873.337 545.216 873.63 545.14 873.87 544.987C874.116 544.835 874.315 544.627 874.468 544.363C874.62 544.1 874.731 543.795 874.802 543.449C874.872 543.098 874.907 542.726 874.907 542.333V542.148ZM880.128 533.5H885.445V545.014H888.17V547H880.128V545.014H882.976V535.495H880.128V533.5ZM891.079 537.49H896.256V545.014H898.831V547H891.079V545.014H893.786V539.485H891.079V537.49ZM893.61 535.056C893.61 534.868 893.643 534.695 893.707 534.537C893.777 534.373 893.874 534.235 893.997 534.124C894.12 534.007 894.267 533.916 894.437 533.852C894.612 533.787 894.806 533.755 895.017 533.755C895.45 533.755 895.793 533.878 896.045 534.124C896.303 534.364 896.432 534.675 896.432 535.056C896.432 535.437 896.303 535.75 896.045 535.996C895.793 536.236 895.45 536.356 895.017 536.356C894.806 536.356 894.612 536.324 894.437 536.26C894.267 536.195 894.12 536.107 893.997 535.996C893.874 535.879 893.777 535.741 893.707 535.583C893.643 535.419 893.61 535.243 893.61 535.056ZM905.722 535.161V537.49H909.272V539.292H905.722V543.379C905.722 543.725 905.76 544.015 905.836 544.249C905.918 544.478 906.032 544.662 906.179 544.803C906.325 544.938 906.501 545.034 906.706 545.093C906.917 545.151 907.151 545.181 907.409 545.181C907.597 545.181 907.787 545.172 907.98 545.154C908.18 545.137 908.367 545.116 908.543 545.093C908.725 545.063 908.892 545.034 909.044 545.005C909.202 544.976 909.337 544.946 909.448 544.917L909.686 546.596C909.516 546.695 909.316 546.783 909.088 546.859C908.859 546.93 908.616 546.988 908.358 547.035C908.101 547.082 907.831 547.117 907.55 547.141C907.274 547.17 907.002 547.185 906.732 547.185C906.211 547.185 905.736 547.117 905.309 546.982C904.887 546.842 904.523 546.628 904.219 546.341C903.92 546.048 903.688 545.679 903.524 545.233C903.36 544.782 903.278 544.243 903.278 543.616V539.292H901.107V537.49H903.278V535.161H905.722ZM931.702 541.542C931.702 542.362 931.594 543.118 931.377 543.81C931.16 544.501 930.847 545.096 930.437 545.594C930.026 546.092 929.525 546.481 928.934 546.763C928.348 547.038 927.686 547.176 926.947 547.176C926.209 547.176 925.553 547.038 924.979 546.763C924.404 546.481 923.921 546.092 923.528 545.594C923.136 545.09 922.837 544.495 922.632 543.81C922.427 543.118 922.324 542.362 922.324 541.542V539.679C922.324 538.858 922.427 538.103 922.632 537.411C922.837 536.72 923.136 536.125 923.528 535.627C923.921 535.123 924.401 534.73 924.97 534.449C925.544 534.168 926.2 534.027 926.938 534.027C927.683 534.027 928.348 534.168 928.934 534.449C929.525 534.73 930.026 535.123 930.437 535.627C930.847 536.125 931.16 536.72 931.377 537.411C931.594 538.103 931.702 538.858 931.702 539.679V541.542ZM929.197 539.661C929.197 539.14 929.153 538.659 929.065 538.22C928.983 537.78 928.852 537.402 928.67 537.086C928.488 536.77 928.254 536.523 927.967 536.348C927.686 536.166 927.343 536.075 926.938 536.075C926.54 536.075 926.206 536.166 925.937 536.348C925.667 536.523 925.45 536.77 925.286 537.086C925.122 537.402 925.005 537.78 924.935 538.22C924.864 538.659 924.829 539.14 924.829 539.661V541.542C924.829 542.058 924.864 542.535 924.935 542.975C925.005 543.414 925.122 543.795 925.286 544.117C925.45 544.439 925.667 544.691 925.937 544.873C926.206 545.055 926.543 545.146 926.947 545.146C927.346 545.146 927.686 545.055 927.967 544.873C928.254 544.691 928.485 544.442 928.661 544.126C928.843 543.804 928.978 543.423 929.065 542.983C929.153 542.544 929.197 542.063 929.197 541.542V539.661ZM942.214 542.333C942.214 543.024 942.132 543.666 941.968 544.258C941.81 544.85 941.572 545.362 941.256 545.796C940.945 546.224 940.559 546.561 940.096 546.807C939.633 547.053 939.103 547.176 938.505 547.176C937.995 547.176 937.547 547.088 937.16 546.912C936.773 546.736 936.437 546.49 936.149 546.174V550.656H933.706V537.49H935.965L936.053 538.422C936.346 538.07 936.691 537.798 937.09 537.604C937.488 537.411 937.954 537.314 938.487 537.314C939.091 537.314 939.624 537.432 940.087 537.666C940.55 537.895 940.939 538.223 941.256 538.65C941.572 539.072 941.81 539.582 941.968 540.18C942.132 540.771 942.214 541.428 942.214 542.148V542.333ZM939.771 542.148C939.771 541.75 939.732 541.378 939.656 541.032C939.586 540.681 939.472 540.379 939.313 540.127C939.161 539.869 938.962 539.667 938.716 539.521C938.476 539.374 938.183 539.301 937.837 539.301C937.409 539.301 937.058 539.386 936.782 539.556C936.513 539.72 936.302 539.954 936.149 540.259V544.231C936.302 544.53 936.513 544.771 936.782 544.952C937.058 545.128 937.415 545.216 937.854 545.216C938.2 545.216 938.493 545.14 938.733 544.987C938.979 544.835 939.179 544.627 939.331 544.363C939.483 544.1 939.595 543.795 939.665 543.449C939.735 543.098 939.771 542.726 939.771 542.333V542.148ZM948.964 535.161V537.49H952.515V539.292H948.964V543.379C948.964 543.725 949.002 544.015 949.078 544.249C949.16 544.478 949.274 544.662 949.421 544.803C949.567 544.938 949.743 545.034 949.948 545.093C950.159 545.151 950.394 545.181 950.651 545.181C950.839 545.181 951.029 545.172 951.223 545.154C951.422 545.137 951.609 545.116 951.785 545.093C951.967 545.063 952.134 545.034 952.286 545.005C952.444 544.976 952.579 544.946 952.69 544.917L952.928 546.596C952.758 546.695 952.559 546.783 952.33 546.859C952.102 546.93 951.858 546.988 951.601 547.035C951.343 547.082 951.073 547.117 950.792 547.141C950.517 547.17 950.244 547.185 949.975 547.185C949.453 547.185 948.979 547.117 948.551 546.982C948.129 546.842 947.766 546.628 947.461 546.341C947.162 546.048 946.931 545.679 946.767 545.233C946.603 544.782 946.521 544.243 946.521 543.616V539.292H944.35V537.49H946.521V535.161H948.964ZM955.942 537.49H961.119V545.014H963.694V547H955.942V545.014H958.649V539.485H955.942V537.49ZM958.474 535.056C958.474 534.868 958.506 534.695 958.57 534.537C958.641 534.373 958.737 534.235 958.86 534.124C958.983 534.007 959.13 533.916 959.3 533.852C959.476 533.787 959.669 533.755 959.88 533.755C960.313 533.755 960.656 533.878 960.908 534.124C961.166 534.364 961.295 534.675 961.295 535.056C961.295 535.437 961.166 535.75 960.908 535.996C960.656 536.236 960.313 536.356 959.88 536.356C959.669 536.356 959.476 536.324 959.3 536.26C959.13 536.195 958.983 536.107 958.86 535.996C958.737 535.879 958.641 535.741 958.57 535.583C958.506 535.419 958.474 535.243 958.474 535.056ZM965.769 542.157C965.769 541.466 965.868 540.827 966.067 540.241C966.267 539.649 966.557 539.137 966.938 538.703C967.324 538.27 967.793 537.93 968.344 537.684C968.9 537.438 969.536 537.314 970.251 537.314C970.966 537.314 971.602 537.438 972.158 537.684C972.715 537.93 973.184 538.27 973.564 538.703C973.951 539.137 974.244 539.649 974.443 540.241C974.643 540.827 974.742 541.466 974.742 542.157V542.342C974.742 543.039 974.643 543.684 974.443 544.275C974.244 544.861 973.954 545.371 973.573 545.805C973.192 546.238 972.724 546.578 972.167 546.824C971.61 547.064 970.978 547.185 970.269 547.185C969.554 547.185 968.915 547.064 968.353 546.824C967.796 546.578 967.324 546.238 966.938 545.805C966.557 545.371 966.267 544.861 966.067 544.275C965.868 543.684 965.769 543.039 965.769 542.342V542.157ZM968.212 542.342C968.212 542.74 968.25 543.115 968.326 543.467C968.402 543.812 968.522 544.117 968.687 544.381C968.851 544.639 969.062 544.844 969.319 544.996C969.583 545.148 969.899 545.225 970.269 545.225C970.626 545.225 970.934 545.148 971.191 544.996C971.449 544.844 971.657 544.639 971.815 544.381C971.979 544.117 972.1 543.812 972.176 543.467C972.252 543.115 972.29 542.74 972.29 542.342V542.157C972.29 541.771 972.252 541.404 972.176 541.059C972.1 540.713 971.979 540.408 971.815 540.145C971.657 539.881 971.449 539.673 971.191 539.521C970.934 539.368 970.62 539.292 970.251 539.292C969.888 539.292 969.577 539.368 969.319 539.521C969.062 539.673 968.851 539.881 968.687 540.145C968.522 540.408 968.402 540.713 968.326 541.059C968.25 541.404 968.212 541.771 968.212 542.157V542.342ZM979.128 537.49L979.277 538.809C979.617 538.334 980.03 537.968 980.517 537.71C981.003 537.446 981.542 537.314 982.134 537.314C982.614 537.314 983.054 537.385 983.452 537.525C983.851 537.666 984.193 537.892 984.48 538.202C984.773 538.507 984.999 538.902 985.157 539.389C985.321 539.869 985.403 540.455 985.403 541.146V547H982.96V541.182C982.96 540.807 982.916 540.499 982.828 540.259C982.746 540.013 982.626 539.819 982.468 539.679C982.31 539.538 982.119 539.441 981.896 539.389C981.674 539.33 981.422 539.301 981.141 539.301C980.725 539.301 980.37 539.386 980.077 539.556C979.784 539.72 979.547 539.948 979.365 540.241V547H976.913V537.49H979.128ZM993.858 544.39C993.858 544.243 993.823 544.114 993.753 544.003C993.688 543.892 993.568 543.789 993.393 543.695C993.223 543.596 992.994 543.505 992.707 543.423C992.42 543.341 992.057 543.259 991.617 543.177C991.061 543.065 990.551 542.928 990.088 542.764C989.631 542.594 989.238 542.392 988.91 542.157C988.582 541.917 988.324 541.642 988.137 541.331C987.955 541.021 987.864 540.663 987.864 540.259C987.864 539.866 987.958 539.491 988.146 539.134C988.333 538.776 988.603 538.463 988.954 538.193C989.306 537.924 989.733 537.71 990.237 537.552C990.741 537.394 991.31 537.314 991.942 537.314C992.604 537.314 993.199 537.394 993.727 537.552C994.254 537.704 994.699 537.918 995.062 538.193C995.432 538.463 995.713 538.785 995.906 539.16C996.1 539.535 996.196 539.942 996.196 540.382H993.753C993.753 540.013 993.604 539.705 993.305 539.459C993.006 539.207 992.552 539.081 991.942 539.081C991.374 539.081 990.943 539.184 990.65 539.389C990.363 539.594 990.22 539.846 990.22 540.145C990.22 540.285 990.249 540.417 990.308 540.54C990.366 540.657 990.469 540.766 990.615 540.865C990.768 540.959 990.973 541.047 991.23 541.129C991.488 541.205 991.816 541.272 992.215 541.331C992.789 541.425 993.322 541.545 993.814 541.691C994.307 541.838 994.731 542.028 995.089 542.263C995.446 542.491 995.725 542.772 995.924 543.106C996.129 543.435 996.231 543.827 996.231 544.284C996.231 544.706 996.129 545.096 995.924 545.453C995.725 545.805 995.438 546.109 995.062 546.367C994.693 546.625 994.245 546.827 993.718 546.974C993.19 547.114 992.602 547.185 991.951 547.185C991.236 547.185 990.604 547.091 990.053 546.903C989.508 546.716 989.051 546.473 988.682 546.174C988.312 545.869 988.031 545.526 987.838 545.146C987.65 544.759 987.557 544.372 987.557 543.985H989.886C989.903 544.243 989.974 544.466 990.097 544.653C990.22 544.835 990.378 544.984 990.571 545.102C990.765 545.213 990.984 545.295 991.23 545.348C991.482 545.4 991.74 545.427 992.004 545.427C992.607 545.427 993.067 545.33 993.384 545.137C993.7 544.943 993.858 544.694 993.858 544.39Z" fill="white"/>
</svg>
