<svg width="1800" height="840" viewBox="0 0 1800 840" fill="none" xmlns="http://www.w3.org/2000/svg">
<rect width="1800" height="840" fill="#F7F7F7"/>
<rect x="260" y="360" width="200" height="40" rx="20" fill="#222222"/>
<path d="M336.771 385.005H342.765V387H334.292V374.203H336.771V385.005ZM350.965 387C350.906 386.883 350.856 386.748 350.815 386.596C350.774 386.443 350.739 386.282 350.71 386.112C350.575 386.259 350.42 386.396 350.244 386.525C350.068 386.654 349.872 386.769 349.655 386.868C349.444 386.962 349.21 387.035 348.952 387.088C348.694 387.146 348.416 387.176 348.117 387.176C347.631 387.176 347.183 387.105 346.772 386.965C346.368 386.824 346.02 386.628 345.727 386.376C345.434 386.124 345.205 385.825 345.041 385.479C344.877 385.128 344.795 384.747 344.795 384.337C344.795 383.335 345.167 382.562 345.911 382.017C346.661 381.466 347.777 381.19 349.26 381.19H350.622V380.628C350.622 380.171 350.473 379.811 350.174 379.547C349.875 379.277 349.444 379.143 348.882 379.143C348.384 379.143 348.021 379.251 347.792 379.468C347.563 379.679 347.449 379.963 347.449 380.32H345.006C345.006 379.916 345.094 379.532 345.27 379.169C345.451 378.806 345.712 378.486 346.052 378.211C346.397 377.936 346.816 377.719 347.309 377.561C347.807 377.396 348.375 377.314 349.014 377.314C349.588 377.314 350.121 377.385 350.613 377.525C351.111 377.666 351.542 377.874 351.905 378.149C352.269 378.425 352.553 378.773 352.758 379.195C352.963 379.611 353.065 380.095 353.065 380.646V384.724C353.065 385.233 353.098 385.655 353.162 385.989C353.227 386.323 353.32 386.61 353.443 386.851V387H350.965ZM348.636 385.286C348.882 385.286 349.11 385.257 349.321 385.198C349.532 385.14 349.723 385.063 349.893 384.97C350.062 384.876 350.209 384.771 350.332 384.653C350.455 384.53 350.552 384.407 350.622 384.284V382.649H349.374C348.993 382.649 348.668 382.688 348.398 382.764C348.129 382.834 347.909 382.937 347.739 383.071C347.569 383.2 347.443 383.358 347.361 383.546C347.279 383.728 347.238 383.927 347.238 384.144C347.238 384.472 347.353 384.744 347.581 384.961C347.815 385.178 348.167 385.286 348.636 385.286ZM364.403 382.342C364.403 383.051 364.324 383.701 364.166 384.293C364.014 384.885 363.782 385.395 363.472 385.822C363.161 386.25 362.774 386.584 362.312 386.824C361.849 387.059 361.31 387.176 360.694 387.176C360.138 387.176 359.654 387.073 359.244 386.868C358.84 386.657 358.491 386.364 358.198 385.989L358.084 387H355.887V373.5H358.33V378.352C358.611 378.023 358.942 377.769 359.323 377.587C359.71 377.405 360.161 377.314 360.677 377.314C361.298 377.314 361.84 377.435 362.303 377.675C362.771 377.915 363.161 378.249 363.472 378.677C363.782 379.104 364.014 379.617 364.166 380.215C364.324 380.807 364.403 381.454 364.403 382.157V382.342ZM361.96 382.157C361.96 381.771 361.931 381.404 361.872 381.059C361.813 380.713 361.711 380.411 361.564 380.153C361.424 379.89 361.23 379.682 360.984 379.529C360.738 379.377 360.431 379.301 360.062 379.301C359.616 379.301 359.253 379.395 358.972 379.582C358.696 379.77 358.482 380.027 358.33 380.355V384.144C358.482 384.472 358.696 384.729 358.972 384.917C359.253 385.104 359.622 385.198 360.079 385.198C360.448 385.198 360.753 385.128 360.993 384.987C361.233 384.841 361.424 384.642 361.564 384.39C361.711 384.132 361.813 383.83 361.872 383.484C361.931 383.133 361.96 382.752 361.96 382.342V382.157ZM371.259 387.176C370.526 387.176 369.861 387.056 369.264 386.815C368.666 386.575 368.153 386.25 367.726 385.84C367.298 385.424 366.967 384.938 366.732 384.381C366.504 383.818 366.39 383.218 366.39 382.579V382.228C366.39 381.501 366.504 380.839 366.732 380.241C366.961 379.638 367.28 379.119 367.69 378.686C368.101 378.252 368.587 377.915 369.149 377.675C369.712 377.435 370.324 377.314 370.986 377.314C371.672 377.314 372.281 377.429 372.814 377.657C373.354 377.88 373.808 378.196 374.177 378.606C374.552 379.017 374.836 379.512 375.029 380.092C375.223 380.666 375.319 381.302 375.319 381.999V383.036H368.868C368.915 383.358 369.009 383.654 369.149 383.924C369.296 384.188 369.48 384.416 369.703 384.609C369.926 384.803 370.181 384.952 370.468 385.058C370.755 385.163 371.068 385.216 371.408 385.216C371.648 385.216 371.886 385.192 372.12 385.146C372.36 385.099 372.589 385.031 372.806 384.943C373.022 384.85 373.225 384.735 373.412 384.601C373.6 384.466 373.764 384.308 373.904 384.126L375.126 385.444C374.974 385.661 374.774 385.875 374.528 386.086C374.288 386.291 374.001 386.476 373.667 386.64C373.339 386.798 372.973 386.927 372.568 387.026C372.164 387.126 371.728 387.176 371.259 387.176ZM370.969 379.292C370.693 379.292 370.441 379.342 370.213 379.441C369.984 379.535 369.782 379.673 369.606 379.854C369.437 380.036 369.293 380.253 369.176 380.505C369.059 380.757 368.971 381.038 368.912 381.349H372.92V381.155C372.908 380.897 372.858 380.654 372.771 380.426C372.683 380.197 372.557 380.001 372.393 379.837C372.229 379.667 372.026 379.535 371.786 379.441C371.552 379.342 371.279 379.292 370.969 379.292ZM377.965 373.5H383.282V385.014H386.007V387H377.965V385.014H380.812V375.495H377.965V373.5Z" fill="white"/>
<rect x="620" y="360" width="200" height="40" rx="20" fill="#EE0033"/>
<path d="M696.771 385.005H702.765V387H694.292V374.203H696.771V385.005ZM710.965 387C710.906 386.883 710.856 386.748 710.815 386.596C710.774 386.443 710.739 386.282 710.71 386.112C710.575 386.259 710.42 386.396 710.244 386.525C710.068 386.654 709.872 386.769 709.655 386.868C709.444 386.962 709.21 387.035 708.952 387.088C708.694 387.146 708.416 387.176 708.117 387.176C707.631 387.176 707.183 387.105 706.772 386.965C706.368 386.824 706.02 386.628 705.727 386.376C705.434 386.124 705.205 385.825 705.041 385.479C704.877 385.128 704.795 384.747 704.795 384.337C704.795 383.335 705.167 382.562 705.911 382.017C706.661 381.466 707.777 381.19 709.26 381.19H710.622V380.628C710.622 380.171 710.473 379.811 710.174 379.547C709.875 379.277 709.444 379.143 708.882 379.143C708.384 379.143 708.021 379.251 707.792 379.468C707.563 379.679 707.449 379.963 707.449 380.32H705.006C705.006 379.916 705.094 379.532 705.27 379.169C705.451 378.806 705.712 378.486 706.052 378.211C706.397 377.936 706.816 377.719 707.309 377.561C707.807 377.396 708.375 377.314 709.014 377.314C709.588 377.314 710.121 377.385 710.613 377.525C711.111 377.666 711.542 377.874 711.905 378.149C712.269 378.425 712.553 378.773 712.758 379.195C712.963 379.611 713.065 380.095 713.065 380.646V384.724C713.065 385.233 713.098 385.655 713.162 385.989C713.227 386.323 713.32 386.61 713.443 386.851V387H710.965ZM708.636 385.286C708.882 385.286 709.11 385.257 709.321 385.198C709.532 385.14 709.723 385.063 709.893 384.97C710.062 384.876 710.209 384.771 710.332 384.653C710.455 384.53 710.552 384.407 710.622 384.284V382.649H709.374C708.993 382.649 708.668 382.688 708.398 382.764C708.129 382.834 707.909 382.937 707.739 383.071C707.569 383.2 707.443 383.358 707.361 383.546C707.279 383.728 707.238 383.927 707.238 384.144C707.238 384.472 707.353 384.744 707.581 384.961C707.815 385.178 708.167 385.286 708.636 385.286ZM724.403 382.342C724.403 383.051 724.324 383.701 724.166 384.293C724.014 384.885 723.782 385.395 723.472 385.822C723.161 386.25 722.774 386.584 722.312 386.824C721.849 387.059 721.31 387.176 720.694 387.176C720.138 387.176 719.654 387.073 719.244 386.868C718.84 386.657 718.491 386.364 718.198 385.989L718.084 387H715.887V373.5H718.33V378.352C718.611 378.023 718.942 377.769 719.323 377.587C719.71 377.405 720.161 377.314 720.677 377.314C721.298 377.314 721.84 377.435 722.303 377.675C722.771 377.915 723.161 378.249 723.472 378.677C723.782 379.104 724.014 379.617 724.166 380.215C724.324 380.807 724.403 381.454 724.403 382.157V382.342ZM721.96 382.157C721.96 381.771 721.931 381.404 721.872 381.059C721.813 380.713 721.711 380.411 721.564 380.153C721.424 379.89 721.23 379.682 720.984 379.529C720.738 379.377 720.431 379.301 720.062 379.301C719.616 379.301 719.253 379.395 718.972 379.582C718.696 379.77 718.482 380.027 718.33 380.355V384.144C718.482 384.472 718.696 384.729 718.972 384.917C719.253 385.104 719.622 385.198 720.079 385.198C720.448 385.198 720.753 385.128 720.993 384.987C721.233 384.841 721.424 384.642 721.564 384.39C721.711 384.132 721.813 383.83 721.872 383.484C721.931 383.133 721.96 382.752 721.96 382.342V382.157ZM731.259 387.176C730.526 387.176 729.861 387.056 729.264 386.815C728.666 386.575 728.153 386.25 727.726 385.84C727.298 385.424 726.967 384.938 726.732 384.381C726.504 383.818 726.39 383.218 726.39 382.579V382.228C726.39 381.501 726.504 380.839 726.732 380.241C726.961 379.638 727.28 379.119 727.69 378.686C728.101 378.252 728.587 377.915 729.149 377.675C729.712 377.435 730.324 377.314 730.986 377.314C731.672 377.314 732.281 377.429 732.814 377.657C733.354 377.88 733.808 378.196 734.177 378.606C734.552 379.017 734.836 379.512 735.029 380.092C735.223 380.666 735.319 381.302 735.319 381.999V383.036H728.868C728.915 383.358 729.009 383.654 729.149 383.924C729.296 384.188 729.48 384.416 729.703 384.609C729.926 384.803 730.181 384.952 730.468 385.058C730.755 385.163 731.068 385.216 731.408 385.216C731.648 385.216 731.886 385.192 732.12 385.146C732.36 385.099 732.589 385.031 732.806 384.943C733.022 384.85 733.225 384.735 733.412 384.601C733.6 384.466 733.764 384.308 733.904 384.126L735.126 385.444C734.974 385.661 734.774 385.875 734.528 386.086C734.288 386.291 734.001 386.476 733.667 386.64C733.339 386.798 732.973 386.927 732.568 387.026C732.164 387.126 731.728 387.176 731.259 387.176ZM730.969 379.292C730.693 379.292 730.441 379.342 730.213 379.441C729.984 379.535 729.782 379.673 729.606 379.854C729.437 380.036 729.293 380.253 729.176 380.505C729.059 380.757 728.971 381.038 728.912 381.349H732.92V381.155C732.908 380.897 732.858 380.654 732.771 380.426C732.683 380.197 732.557 380.001 732.393 379.837C732.229 379.667 732.026 379.535 731.786 379.441C731.552 379.342 731.279 379.292 730.969 379.292ZM737.965 373.5H743.282V385.014H746.007V387H737.965V385.014H740.812V375.495H737.965V373.5Z" fill="white"/>
<rect x="980" y="360" width="200" height="40" rx="20" fill="#00AA00"/>
<path d="M1056.77 385.005H1062.76V387H1054.29V374.203H1056.77V385.005ZM1070.96 387C1070.91 386.883 1070.86 386.748 1070.82 386.596C1070.77 386.443 1070.74 386.282 1070.71 386.112C1070.58 386.259 1070.42 386.396 1070.24 386.525C1070.07 386.654 1069.87 386.769 1069.66 386.868C1069.44 386.962 1069.21 387.035 1068.95 387.088C1068.69 387.146 1068.42 387.176 1068.12 387.176C1067.63 387.176 1067.18 387.105 1066.77 386.965C1066.37 386.824 1066.02 386.628 1065.73 386.376C1065.43 386.124 1065.21 385.825 1065.04 385.479C1064.88 385.128 1064.79 384.747 1064.79 384.337C1064.79 383.335 1065.17 382.562 1065.91 382.017C1066.66 381.466 1067.78 381.19 1069.26 381.19H1070.62V380.628C1070.62 380.171 1070.47 379.811 1070.17 379.547C1069.88 379.277 1069.44 379.143 1068.88 379.143C1068.38 379.143 1068.02 379.251 1067.79 379.468C1067.56 379.679 1067.45 379.963 1067.45 380.32H1065.01C1065.01 379.916 1065.09 379.532 1065.27 379.169C1065.45 378.806 1065.71 378.486 1066.05 378.211C1066.4 377.936 1066.82 377.719 1067.31 377.561C1067.81 377.396 1068.38 377.314 1069.01 377.314C1069.59 377.314 1070.12 377.385 1070.61 377.525C1071.11 377.666 1071.54 377.874 1071.91 378.149C1072.27 378.425 1072.55 378.773 1072.76 379.195C1072.96 379.611 1073.07 380.095 1073.07 380.646V384.724C1073.07 385.233 1073.1 385.655 1073.16 385.989C1073.23 386.323 1073.32 386.61 1073.44 386.851V387H1070.96ZM1068.64 385.286C1068.88 385.286 1069.11 385.257 1069.32 385.198C1069.53 385.14 1069.72 385.063 1069.89 384.97C1070.06 384.876 1070.21 384.771 1070.33 384.653C1070.46 384.53 1070.55 384.407 1070.62 384.284V382.649H1069.37C1068.99 382.649 1068.67 382.688 1068.4 382.764C1068.13 382.834 1067.91 382.937 1067.74 383.071C1067.57 383.2 1067.44 383.358 1067.36 383.546C1067.28 383.728 1067.24 383.927 1067.24 384.144C1067.24 384.472 1067.35 384.744 1067.58 384.961C1067.82 385.178 1068.17 385.286 1068.64 385.286ZM1084.4 382.342C1084.4 383.051 1084.32 383.701 1084.17 384.293C1084.01 384.885 1083.78 385.395 1083.47 385.822C1083.16 386.25 1082.77 386.584 1082.31 386.824C1081.85 387.059 1081.31 387.176 1080.69 387.176C1080.14 387.176 1079.65 387.073 1079.24 386.868C1078.84 386.657 1078.49 386.364 1078.2 385.989L1078.08 387H1075.89V373.5H1078.33V378.352C1078.61 378.023 1078.94 377.769 1079.32 377.587C1079.71 377.405 1080.16 377.314 1080.68 377.314C1081.3 377.314 1081.84 377.435 1082.3 377.675C1082.77 377.915 1083.16 378.249 1083.47 378.677C1083.78 379.104 1084.01 379.617 1084.17 380.215C1084.32 380.807 1084.4 381.454 1084.4 382.157V382.342ZM1081.96 382.157C1081.96 381.771 1081.93 381.404 1081.87 381.059C1081.81 380.713 1081.71 380.411 1081.56 380.153C1081.42 379.89 1081.23 379.682 1080.98 379.529C1080.74 379.377 1080.43 379.301 1080.06 379.301C1079.62 379.301 1079.25 379.395 1078.97 379.582C1078.7 379.77 1078.48 380.027 1078.33 380.355V384.144C1078.48 384.472 1078.7 384.729 1078.97 384.917C1079.25 385.104 1079.62 385.198 1080.08 385.198C1080.45 385.198 1080.75 385.128 1080.99 384.987C1081.23 384.841 1081.42 384.642 1081.56 384.39C1081.71 384.132 1081.81 383.83 1081.87 383.484C1081.93 383.133 1081.96 382.752 1081.96 382.342V382.157ZM1091.26 387.176C1090.53 387.176 1089.86 387.056 1089.26 386.815C1088.67 386.575 1088.15 386.25 1087.73 385.84C1087.3 385.424 1086.97 384.938 1086.73 384.381C1086.5 383.818 1086.39 383.218 1086.39 382.579V382.228C1086.39 381.501 1086.5 380.839 1086.73 380.241C1086.96 379.638 1087.28 379.119 1087.69 378.686C1088.1 378.252 1088.59 377.915 1089.15 377.675C1089.71 377.435 1090.32 377.314 1090.99 377.314C1091.67 377.314 1092.28 377.429 1092.81 377.657C1093.35 377.88 1093.81 378.196 1094.18 378.606C1094.55 379.017 1094.84 379.512 1095.03 380.092C1095.22 380.666 1095.32 381.302 1095.32 381.999V383.036H1088.87C1088.92 383.358 1089.01 383.654 1089.15 383.924C1089.3 384.188 1089.48 384.416 1089.7 384.609C1089.93 384.803 1090.18 384.952 1090.47 385.058C1090.75 385.163 1091.07 385.216 1091.41 385.216C1091.65 385.216 1091.89 385.192 1092.12 385.146C1092.36 385.099 1092.59 385.031 1092.81 384.943C1093.02 384.85 1093.22 384.735 1093.41 384.601C1093.6 384.466 1093.76 384.308 1093.9 384.126L1095.13 385.444C1094.97 385.661 1094.77 385.875 1094.53 386.086C1094.29 386.291 1094 386.476 1093.67 386.64C1093.34 386.798 1092.97 386.927 1092.57 387.026C1092.16 387.126 1091.73 387.176 1091.26 387.176ZM1090.97 379.292C1090.69 379.292 1090.44 379.342 1090.21 379.441C1089.98 379.535 1089.78 379.673 1089.61 379.854C1089.44 380.036 1089.29 380.253 1089.18 380.505C1089.06 380.757 1088.97 381.038 1088.91 381.349H1092.92V381.155C1092.91 380.897 1092.86 380.654 1092.77 380.426C1092.68 380.197 1092.56 380.001 1092.39 379.837C1092.23 379.667 1092.03 379.535 1091.79 379.441C1091.55 379.342 1091.28 379.292 1090.97 379.292ZM1097.96 373.5H1103.28V385.014H1106.01V387H1097.96V385.014H1100.81V375.495H1097.96V373.5Z" fill="white"/>
<rect x="1340" y="360" width="200" height="40" rx="20" fill="#0066FF"/>
<path d="M1416.77 385.005H1422.76V387H1414.29V374.203H1416.77V385.005ZM1430.96 387C1430.91 386.883 1430.86 386.748 1430.82 386.596C1430.77 386.443 1430.74 386.282 1430.71 386.112C1430.58 386.259 1430.42 386.396 1430.24 386.525C1430.07 386.654 1429.87 386.769 1429.66 386.868C1429.44 386.962 1429.21 387.035 1428.95 387.088C1428.69 387.146 1428.42 387.176 1428.12 387.176C1427.63 387.176 1427.18 387.105 1426.77 386.965C1426.37 386.824 1426.02 386.628 1425.73 386.376C1425.43 386.124 1425.21 385.825 1425.04 385.479C1424.88 385.128 1424.79 384.747 1424.79 384.337C1424.79 383.335 1425.17 382.562 1425.91 382.017C1426.66 381.466 1427.78 381.19 1429.26 381.19H1430.62V380.628C1430.62 380.171 1430.47 379.811 1430.17 379.547C1429.88 379.277 1429.44 379.143 1428.88 379.143C1428.38 379.143 1428.02 379.251 1427.79 379.468C1427.56 379.679 1427.45 379.963 1427.45 380.32H1425.01C1425.01 379.916 1425.09 379.532 1425.27 379.169C1425.45 378.806 1425.71 378.486 1426.05 378.211C1426.4 377.936 1426.82 377.719 1427.31 377.561C1427.81 377.396 1428.38 377.314 1429.01 377.314C1429.59 377.314 1430.12 377.385 1430.61 377.525C1431.11 377.666 1431.54 377.874 1431.91 378.149C1432.27 378.425 1432.55 378.773 1432.76 379.195C1432.96 379.611 1433.07 380.095 1433.07 380.646V384.724C1433.07 385.233 1433.1 385.655 1433.16 385.989C1433.23 386.323 1433.32 386.61 1433.44 386.851V387H1430.96ZM1428.64 385.286C1428.88 385.286 1429.11 385.257 1429.32 385.198C1429.53 385.14 1429.72 385.063 1429.89 384.97C1430.06 384.876 1430.21 384.771 1430.33 384.653C1430.46 384.53 1430.55 384.407 1430.62 384.284V382.649H1429.37C1428.99 382.649 1428.67 382.688 1428.4 382.764C1428.13 382.834 1427.91 382.937 1427.74 383.071C1427.57 383.2 1427.44 383.358 1427.36 383.546C1427.28 383.728 1427.24 383.927 1427.24 384.144C1427.24 384.472 1427.35 384.744 1427.58 384.961C1427.82 385.178 1428.17 385.286 1428.64 385.286ZM1444.4 382.342C1444.4 383.051 1444.32 383.701 1444.17 384.293C1444.01 384.885 1443.78 385.395 1443.47 385.822C1443.16 386.25 1442.77 386.584 1442.31 386.824C1441.85 387.059 1441.31 387.176 1440.69 387.176C1440.14 387.176 1439.65 387.073 1439.24 386.868C1438.84 386.657 1438.49 386.364 1438.2 385.989L1438.08 387H1435.89V373.5H1438.33V378.352C1438.61 378.023 1438.94 377.769 1439.32 377.587C1439.71 377.405 1440.16 377.314 1440.68 377.314C1441.3 377.314 1441.84 377.435 1442.3 377.675C1442.77 377.915 1443.16 378.249 1443.47 378.677C1443.78 379.104 1444.01 379.617 1444.17 380.215C1444.32 380.807 1444.4 381.454 1444.4 382.157V382.342ZM1441.96 382.157C1441.96 381.771 1441.93 381.404 1441.87 381.059C1441.81 380.713 1441.71 380.411 1441.56 380.153C1441.42 379.89 1441.23 379.682 1440.98 379.529C1440.74 379.377 1440.43 379.301 1440.06 379.301C1439.62 379.301 1439.25 379.395 1438.97 379.582C1438.7 379.77 1438.48 380.027 1438.33 380.355V384.144C1438.48 384.472 1438.7 384.729 1438.97 384.917C1439.25 385.104 1439.62 385.198 1440.08 385.198C1440.45 385.198 1440.75 385.128 1440.99 384.987C1441.23 384.841 1441.42 384.642 1441.56 384.39C1441.71 384.132 1441.81 383.83 1441.87 383.484C1441.93 383.133 1441.96 382.752 1441.96 382.342V382.157ZM1451.26 387.176C1450.53 387.176 1449.86 387.056 1449.26 386.815C1448.67 386.575 1448.15 386.25 1447.73 385.84C1447.3 385.424 1446.97 384.938 1446.73 384.381C1446.5 383.818 1446.39 383.218 1446.39 382.579V382.228C1446.39 381.501 1446.5 380.839 1446.73 380.241C1446.96 379.638 1447.28 379.119 1447.69 378.686C1448.1 378.252 1448.59 377.915 1449.15 377.675C1449.71 377.435 1450.32 377.314 1450.99 377.314C1451.67 377.314 1452.28 377.429 1452.81 377.657C1453.35 377.88 1453.81 378.196 1454.18 378.606C1454.55 379.017 1454.84 379.512 1455.03 380.092C1455.22 380.666 1455.32 381.302 1455.32 381.999V383.036H1448.87C1448.92 383.358 1449.01 383.654 1449.15 383.924C1449.3 384.188 1449.48 384.416 1449.7 384.609C1449.93 384.803 1450.18 384.952 1450.47 385.058C1450.75 385.163 1451.07 385.216 1451.41 385.216C1451.65 385.216 1451.89 385.192 1452.12 385.146C1452.36 385.099 1452.59 385.031 1452.81 384.943C1453.02 384.85 1453.22 384.735 1453.41 384.601C1453.6 384.466 1453.76 384.308 1453.9 384.126L1455.13 385.444C1454.97 385.661 1454.77 385.875 1454.53 386.086C1454.29 386.291 1454 386.476 1453.67 386.64C1453.34 386.798 1452.97 386.927 1452.57 387.026C1452.16 387.126 1451.73 387.176 1451.26 387.176ZM1450.97 379.292C1450.69 379.292 1450.44 379.342 1450.21 379.441C1449.98 379.535 1449.78 379.673 1449.61 379.854C1449.44 380.036 1449.29 380.253 1449.18 380.505C1449.06 380.757 1448.97 381.038 1448.91 381.349H1452.92V381.155C1452.91 380.897 1452.86 380.654 1452.77 380.426C1452.68 380.197 1452.56 380.001 1452.39 379.837C1452.23 379.667 1452.03 379.535 1451.79 379.441C1451.55 379.342 1451.28 379.292 1450.97 379.292ZM1457.96 373.5H1463.28V385.014H1466.01V387H1457.96V385.014H1460.81V375.495H1457.96V373.5Z" fill="white"/>
<rect x="262" y="562" width="196" height="36" rx="18" fill="#F7F7F7" stroke="#222222" stroke-width="4" stroke-linecap="round" stroke-linejoin="round"/>
<path d="M336.771 584.005H342.765V586H334.292V573.203H336.771V584.005ZM350.965 586C350.906 585.883 350.856 585.748 350.815 585.596C350.774 585.443 350.739 585.282 350.71 585.112C350.575 585.259 350.42 585.396 350.244 585.525C350.068 585.654 349.872 585.769 349.655 585.868C349.444 585.962 349.21 586.035 348.952 586.088C348.694 586.146 348.416 586.176 348.117 586.176C347.631 586.176 347.183 586.105 346.772 585.965C346.368 585.824 346.02 585.628 345.727 585.376C345.434 585.124 345.205 584.825 345.041 584.479C344.877 584.128 344.795 583.747 344.795 583.337C344.795 582.335 345.167 581.562 345.911 581.017C346.661 580.466 347.777 580.19 349.26 580.19H350.622V579.628C350.622 579.171 350.473 578.811 350.174 578.547C349.875 578.277 349.444 578.143 348.882 578.143C348.384 578.143 348.021 578.251 347.792 578.468C347.563 578.679 347.449 578.963 347.449 579.32H345.006C345.006 578.916 345.094 578.532 345.27 578.169C345.451 577.806 345.712 577.486 346.052 577.211C346.397 576.936 346.816 576.719 347.309 576.561C347.807 576.396 348.375 576.314 349.014 576.314C349.588 576.314 350.121 576.385 350.613 576.525C351.111 576.666 351.542 576.874 351.905 577.149C352.269 577.425 352.553 577.773 352.758 578.195C352.963 578.611 353.065 579.095 353.065 579.646V583.724C353.065 584.233 353.098 584.655 353.162 584.989C353.227 585.323 353.32 585.61 353.443 585.851V586H350.965ZM348.636 584.286C348.882 584.286 349.11 584.257 349.321 584.198C349.532 584.14 349.723 584.063 349.893 583.97C350.062 583.876 350.209 583.771 350.332 583.653C350.455 583.53 350.552 583.407 350.622 583.284V581.649H349.374C348.993 581.649 348.668 581.688 348.398 581.764C348.129 581.834 347.909 581.937 347.739 582.071C347.569 582.2 347.443 582.358 347.361 582.546C347.279 582.728 347.238 582.927 347.238 583.144C347.238 583.472 347.353 583.744 347.581 583.961C347.815 584.178 348.167 584.286 348.636 584.286ZM364.403 581.342C364.403 582.051 364.324 582.701 364.166 583.293C364.014 583.885 363.782 584.395 363.472 584.822C363.161 585.25 362.774 585.584 362.312 585.824C361.849 586.059 361.31 586.176 360.694 586.176C360.138 586.176 359.654 586.073 359.244 585.868C358.84 585.657 358.491 585.364 358.198 584.989L358.084 586H355.887V572.5H358.33V577.352C358.611 577.023 358.942 576.769 359.323 576.587C359.71 576.405 360.161 576.314 360.677 576.314C361.298 576.314 361.84 576.435 362.303 576.675C362.771 576.915 363.161 577.249 363.472 577.677C363.782 578.104 364.014 578.617 364.166 579.215C364.324 579.807 364.403 580.454 364.403 581.157V581.342ZM361.96 581.157C361.96 580.771 361.931 580.404 361.872 580.059C361.813 579.713 361.711 579.411 361.564 579.153C361.424 578.89 361.23 578.682 360.984 578.529C360.738 578.377 360.431 578.301 360.062 578.301C359.616 578.301 359.253 578.395 358.972 578.582C358.696 578.77 358.482 579.027 358.33 579.355V583.144C358.482 583.472 358.696 583.729 358.972 583.917C359.253 584.104 359.622 584.198 360.079 584.198C360.448 584.198 360.753 584.128 360.993 583.987C361.233 583.841 361.424 583.642 361.564 583.39C361.711 583.132 361.813 582.83 361.872 582.484C361.931 582.133 361.96 581.752 361.96 581.342V581.157ZM371.259 586.176C370.526 586.176 369.861 586.056 369.264 585.815C368.666 585.575 368.153 585.25 367.726 584.84C367.298 584.424 366.967 583.938 366.732 583.381C366.504 582.818 366.39 582.218 366.39 581.579V581.228C366.39 580.501 366.504 579.839 366.732 579.241C366.961 578.638 367.28 578.119 367.69 577.686C368.101 577.252 368.587 576.915 369.149 576.675C369.712 576.435 370.324 576.314 370.986 576.314C371.672 576.314 372.281 576.429 372.814 576.657C373.354 576.88 373.808 577.196 374.177 577.606C374.552 578.017 374.836 578.512 375.029 579.092C375.223 579.666 375.319 580.302 375.319 580.999V582.036H368.868C368.915 582.358 369.009 582.654 369.149 582.924C369.296 583.188 369.48 583.416 369.703 583.609C369.926 583.803 370.181 583.952 370.468 584.058C370.755 584.163 371.068 584.216 371.408 584.216C371.648 584.216 371.886 584.192 372.12 584.146C372.36 584.099 372.589 584.031 372.806 583.943C373.022 583.85 373.225 583.735 373.412 583.601C373.6 583.466 373.764 583.308 373.904 583.126L375.126 584.444C374.974 584.661 374.774 584.875 374.528 585.086C374.288 585.291 374.001 585.476 373.667 585.64C373.339 585.798 372.973 585.927 372.568 586.026C372.164 586.126 371.728 586.176 371.259 586.176ZM370.969 578.292C370.693 578.292 370.441 578.342 370.213 578.441C369.984 578.535 369.782 578.673 369.606 578.854C369.437 579.036 369.293 579.253 369.176 579.505C369.059 579.757 368.971 580.038 368.912 580.349H372.92V580.155C372.908 579.897 372.858 579.654 372.771 579.426C372.683 579.197 372.557 579.001 372.393 578.837C372.229 578.667 372.026 578.535 371.786 578.441C371.552 578.342 371.279 578.292 370.969 578.292ZM377.965 572.5H383.282V584.014H386.007V586H377.965V584.014H380.812V574.495H377.965V572.5Z" fill="#222222"/>
<rect x="622" y="562" width="196" height="36" rx="18" fill="#F7F7F7" stroke="#EE0033" stroke-width="4" stroke-linecap="round" stroke-linejoin="round"/>
<path d="M696.771 584.005H702.765V586H694.292V573.203H696.771V584.005ZM710.965 586C710.906 585.883 710.856 585.748 710.815 585.596C710.774 585.443 710.739 585.282 710.71 585.112C710.575 585.259 710.42 585.396 710.244 585.525C710.068 585.654 709.872 585.769 709.655 585.868C709.444 585.962 709.21 586.035 708.952 586.088C708.694 586.146 708.416 586.176 708.117 586.176C707.631 586.176 707.183 586.105 706.772 585.965C706.368 585.824 706.02 585.628 705.727 585.376C705.434 585.124 705.205 584.825 705.041 584.479C704.877 584.128 704.795 583.747 704.795 583.337C704.795 582.335 705.167 581.562 705.911 581.017C706.661 580.466 707.777 580.19 709.26 580.19H710.622V579.628C710.622 579.171 710.473 578.811 710.174 578.547C709.875 578.277 709.444 578.143 708.882 578.143C708.384 578.143 708.021 578.251 707.792 578.468C707.563 578.679 707.449 578.963 707.449 579.32H705.006C705.006 578.916 705.094 578.532 705.27 578.169C705.451 577.806 705.712 577.486 706.052 577.211C706.397 576.936 706.816 576.719 707.309 576.561C707.807 576.396 708.375 576.314 709.014 576.314C709.588 576.314 710.121 576.385 710.613 576.525C711.111 576.666 711.542 576.874 711.905 577.149C712.269 577.425 712.553 577.773 712.758 578.195C712.963 578.611 713.065 579.095 713.065 579.646V583.724C713.065 584.233 713.098 584.655 713.162 584.989C713.227 585.323 713.32 585.61 713.443 585.851V586H710.965ZM708.636 584.286C708.882 584.286 709.11 584.257 709.321 584.198C709.532 584.14 709.723 584.063 709.893 583.97C710.062 583.876 710.209 583.771 710.332 583.653C710.455 583.53 710.552 583.407 710.622 583.284V581.649H709.374C708.993 581.649 708.668 581.688 708.398 581.764C708.129 581.834 707.909 581.937 707.739 582.071C707.569 582.2 707.443 582.358 707.361 582.546C707.279 582.728 707.238 582.927 707.238 583.144C707.238 583.472 707.353 583.744 707.581 583.961C707.815 584.178 708.167 584.286 708.636 584.286ZM724.403 581.342C724.403 582.051 724.324 582.701 724.166 583.293C724.014 583.885 723.782 584.395 723.472 584.822C723.161 585.25 722.774 585.584 722.312 585.824C721.849 586.059 721.31 586.176 720.694 586.176C720.138 586.176 719.654 586.073 719.244 585.868C718.84 585.657 718.491 585.364 718.198 584.989L718.084 586H715.887V572.5H718.33V577.352C718.611 577.023 718.942 576.769 719.323 576.587C719.71 576.405 720.161 576.314 720.677 576.314C721.298 576.314 721.84 576.435 722.303 576.675C722.771 576.915 723.161 577.249 723.472 577.677C723.782 578.104 724.014 578.617 724.166 579.215C724.324 579.807 724.403 580.454 724.403 581.157V581.342ZM721.96 581.157C721.96 580.771 721.931 580.404 721.872 580.059C721.813 579.713 721.711 579.411 721.564 579.153C721.424 578.89 721.23 578.682 720.984 578.529C720.738 578.377 720.431 578.301 720.062 578.301C719.616 578.301 719.253 578.395 718.972 578.582C718.696 578.77 718.482 579.027 718.33 579.355V583.144C718.482 583.472 718.696 583.729 718.972 583.917C719.253 584.104 719.622 584.198 720.079 584.198C720.448 584.198 720.753 584.128 720.993 583.987C721.233 583.841 721.424 583.642 721.564 583.39C721.711 583.132 721.813 582.83 721.872 582.484C721.931 582.133 721.96 581.752 721.96 581.342V581.157ZM731.259 586.176C730.526 586.176 729.861 586.056 729.264 585.815C728.666 585.575 728.153 585.25 727.726 584.84C727.298 584.424 726.967 583.938 726.732 583.381C726.504 582.818 726.39 582.218 726.39 581.579V581.228C726.39 580.501 726.504 579.839 726.732 579.241C726.961 578.638 727.28 578.119 727.69 577.686C728.101 577.252 728.587 576.915 729.149 576.675C729.712 576.435 730.324 576.314 730.986 576.314C731.672 576.314 732.281 576.429 732.814 576.657C733.354 576.88 733.808 577.196 734.177 577.606C734.552 578.017 734.836 578.512 735.029 579.092C735.223 579.666 735.319 580.302 735.319 580.999V582.036H728.868C728.915 582.358 729.009 582.654 729.149 582.924C729.296 583.188 729.48 583.416 729.703 583.609C729.926 583.803 730.181 583.952 730.468 584.058C730.755 584.163 731.068 584.216 731.408 584.216C731.648 584.216 731.886 584.192 732.12 584.146C732.36 584.099 732.589 584.031 732.806 583.943C733.022 583.85 733.225 583.735 733.412 583.601C733.6 583.466 733.764 583.308 733.904 583.126L735.126 584.444C734.974 584.661 734.774 584.875 734.528 585.086C734.288 585.291 734.001 585.476 733.667 585.64C733.339 585.798 732.973 585.927 732.568 586.026C732.164 586.126 731.728 586.176 731.259 586.176ZM730.969 578.292C730.693 578.292 730.441 578.342 730.213 578.441C729.984 578.535 729.782 578.673 729.606 578.854C729.437 579.036 729.293 579.253 729.176 579.505C729.059 579.757 728.971 580.038 728.912 580.349H732.92V580.155C732.908 579.897 732.858 579.654 732.771 579.426C732.683 579.197 732.557 579.001 732.393 578.837C732.229 578.667 732.026 578.535 731.786 578.441C731.552 578.342 731.279 578.292 730.969 578.292ZM737.965 572.5H743.282V584.014H746.007V586H737.965V584.014H740.812V574.495H737.965V572.5Z" fill="#EE0033"/>
<rect x="982" y="562" width="196" height="36" rx="18" fill="#F7F7F7" stroke="#00AA00" stroke-width="4" stroke-linecap="round" stroke-linejoin="round"/>
<path d="M1056.77 584.005H1062.76V586H1054.29V573.203H1056.77V584.005ZM1070.96 586C1070.91 585.883 1070.86 585.748 1070.82 585.596C1070.77 585.443 1070.74 585.282 1070.71 585.112C1070.58 585.259 1070.42 585.396 1070.24 585.525C1070.07 585.654 1069.87 585.769 1069.66 585.868C1069.44 585.962 1069.21 586.035 1068.95 586.088C1068.69 586.146 1068.42 586.176 1068.12 586.176C1067.63 586.176 1067.18 586.105 1066.77 585.965C1066.37 585.824 1066.02 585.628 1065.73 585.376C1065.43 585.124 1065.21 584.825 1065.04 584.479C1064.88 584.128 1064.79 583.747 1064.79 583.337C1064.79 582.335 1065.17 581.562 1065.91 581.017C1066.66 580.466 1067.78 580.19 1069.26 580.19H1070.62V579.628C1070.62 579.171 1070.47 578.811 1070.17 578.547C1069.88 578.277 1069.44 578.143 1068.88 578.143C1068.38 578.143 1068.02 578.251 1067.79 578.468C1067.56 578.679 1067.45 578.963 1067.45 579.32H1065.01C1065.01 578.916 1065.09 578.532 1065.27 578.169C1065.45 577.806 1065.71 577.486 1066.05 577.211C1066.4 576.936 1066.82 576.719 1067.31 576.561C1067.81 576.396 1068.38 576.314 1069.01 576.314C1069.59 576.314 1070.12 576.385 1070.61 576.525C1071.11 576.666 1071.54 576.874 1071.91 577.149C1072.27 577.425 1072.55 577.773 1072.76 578.195C1072.96 578.611 1073.07 579.095 1073.07 579.646V583.724C1073.07 584.233 1073.1 584.655 1073.16 584.989C1073.23 585.323 1073.32 585.61 1073.44 585.851V586H1070.96ZM1068.64 584.286C1068.88 584.286 1069.11 584.257 1069.32 584.198C1069.53 584.14 1069.72 584.063 1069.89 583.97C1070.06 583.876 1070.21 583.771 1070.33 583.653C1070.46 583.53 1070.55 583.407 1070.62 583.284V581.649H1069.37C1068.99 581.649 1068.67 581.688 1068.4 581.764C1068.13 581.834 1067.91 581.937 1067.74 582.071C1067.57 582.2 1067.44 582.358 1067.36 582.546C1067.28 582.728 1067.24 582.927 1067.24 583.144C1067.24 583.472 1067.35 583.744 1067.58 583.961C1067.82 584.178 1068.17 584.286 1068.64 584.286ZM1084.4 581.342C1084.4 582.051 1084.32 582.701 1084.17 583.293C1084.01 583.885 1083.78 584.395 1083.47 584.822C1083.16 585.25 1082.77 585.584 1082.31 585.824C1081.85 586.059 1081.31 586.176 1080.69 586.176C1080.14 586.176 1079.65 586.073 1079.24 585.868C1078.84 585.657 1078.49 585.364 1078.2 584.989L1078.08 586H1075.89V572.5H1078.33V577.352C1078.61 577.023 1078.94 576.769 1079.32 576.587C1079.71 576.405 1080.16 576.314 1080.68 576.314C1081.3 576.314 1081.84 576.435 1082.3 576.675C1082.77 576.915 1083.16 577.249 1083.47 577.677C1083.78 578.104 1084.01 578.617 1084.17 579.215C1084.32 579.807 1084.4 580.454 1084.4 581.157V581.342ZM1081.96 581.157C1081.96 580.771 1081.93 580.404 1081.87 580.059C1081.81 579.713 1081.71 579.411 1081.56 579.153C1081.42 578.89 1081.23 578.682 1080.98 578.529C1080.74 578.377 1080.43 578.301 1080.06 578.301C1079.62 578.301 1079.25 578.395 1078.97 578.582C1078.7 578.77 1078.48 579.027 1078.33 579.355V583.144C1078.48 583.472 1078.7 583.729 1078.97 583.917C1079.25 584.104 1079.62 584.198 1080.08 584.198C1080.45 584.198 1080.75 584.128 1080.99 583.987C1081.23 583.841 1081.42 583.642 1081.56 583.39C1081.71 583.132 1081.81 582.83 1081.87 582.484C1081.93 582.133 1081.96 581.752 1081.96 581.342V581.157ZM1091.26 586.176C1090.53 586.176 1089.86 586.056 1089.26 585.815C1088.67 585.575 1088.15 585.25 1087.73 584.84C1087.3 584.424 1086.97 583.938 1086.73 583.381C1086.5 582.818 1086.39 582.218 1086.39 581.579V581.228C1086.39 580.501 1086.5 579.839 1086.73 579.241C1086.96 578.638 1087.28 578.119 1087.69 577.686C1088.1 577.252 1088.59 576.915 1089.15 576.675C1089.71 576.435 1090.32 576.314 1090.99 576.314C1091.67 576.314 1092.28 576.429 1092.81 576.657C1093.35 576.88 1093.81 577.196 1094.18 577.606C1094.55 578.017 1094.84 578.512 1095.03 579.092C1095.22 579.666 1095.32 580.302 1095.32 580.999V582.036H1088.87C1088.92 582.358 1089.01 582.654 1089.15 582.924C1089.3 583.188 1089.48 583.416 1089.7 583.609C1089.93 583.803 1090.18 583.952 1090.47 584.058C1090.75 584.163 1091.07 584.216 1091.41 584.216C1091.65 584.216 1091.89 584.192 1092.12 584.146C1092.36 584.099 1092.59 584.031 1092.81 583.943C1093.02 583.85 1093.22 583.735 1093.41 583.601C1093.6 583.466 1093.76 583.308 1093.9 583.126L1095.13 584.444C1094.97 584.661 1094.77 584.875 1094.53 585.086C1094.29 585.291 1094 585.476 1093.67 585.64C1093.34 585.798 1092.97 585.927 1092.57 586.026C1092.16 586.126 1091.73 586.176 1091.26 586.176ZM1090.97 578.292C1090.69 578.292 1090.44 578.342 1090.21 578.441C1089.98 578.535 1089.78 578.673 1089.61 578.854C1089.44 579.036 1089.29 579.253 1089.18 579.505C1089.06 579.757 1088.97 580.038 1088.91 580.349H1092.92V580.155C1092.91 579.897 1092.86 579.654 1092.77 579.426C1092.68 579.197 1092.56 579.001 1092.39 578.837C1092.23 578.667 1092.03 578.535 1091.79 578.441C1091.55 578.342 1091.28 578.292 1090.97 578.292ZM1097.96 572.5H1103.28V584.014H1106.01V586H1097.96V584.014H1100.81V574.495H1097.96V572.5Z" fill="#00AA00"/>
<rect x="1342" y="562" width="196" height="36" rx="18" fill="#F7F7F7" stroke="#0066FF" stroke-width="4" stroke-linecap="round" stroke-linejoin="round"/>
<path d="M1416.77 584.005H1422.76V586H1414.29V573.203H1416.77V584.005ZM1430.96 586C1430.91 585.883 1430.86 585.748 1430.82 585.596C1430.77 585.443 1430.74 585.282 1430.71 585.112C1430.58 585.259 1430.42 585.396 1430.24 585.525C1430.07 585.654 1429.87 585.769 1429.66 585.868C1429.44 585.962 1429.21 586.035 1428.95 586.088C1428.69 586.146 1428.42 586.176 1428.12 586.176C1427.63 586.176 1427.18 586.105 1426.77 585.965C1426.37 585.824 1426.02 585.628 1425.73 585.376C1425.43 585.124 1425.21 584.825 1425.04 584.479C1424.88 584.128 1424.79 583.747 1424.79 583.337C1424.79 582.335 1425.17 581.562 1425.91 581.017C1426.66 580.466 1427.78 580.19 1429.26 580.19H1430.62V579.628C1430.62 579.171 1430.47 578.811 1430.17 578.547C1429.88 578.277 1429.44 578.143 1428.88 578.143C1428.38 578.143 1428.02 578.251 1427.79 578.468C1427.56 578.679 1427.45 578.963 1427.45 579.32H1425.01C1425.01 578.916 1425.09 578.532 1425.27 578.169C1425.45 577.806 1425.71 577.486 1426.05 577.211C1426.4 576.936 1426.82 576.719 1427.31 576.561C1427.81 576.396 1428.38 576.314 1429.01 576.314C1429.59 576.314 1430.12 576.385 1430.61 576.525C1431.11 576.666 1431.54 576.874 1431.91 577.149C1432.27 577.425 1432.55 577.773 1432.76 578.195C1432.96 578.611 1433.07 579.095 1433.07 579.646V583.724C1433.07 584.233 1433.1 584.655 1433.16 584.989C1433.23 585.323 1433.32 585.61 1433.44 585.851V586H1430.96ZM1428.64 584.286C1428.88 584.286 1429.11 584.257 1429.32 584.198C1429.53 584.14 1429.72 584.063 1429.89 583.97C1430.06 583.876 1430.21 583.771 1430.33 583.653C1430.46 583.53 1430.55 583.407 1430.62 583.284V581.649H1429.37C1428.99 581.649 1428.67 581.688 1428.4 581.764C1428.13 581.834 1427.91 581.937 1427.74 582.071C1427.57 582.2 1427.44 582.358 1427.36 582.546C1427.28 582.728 1427.24 582.927 1427.24 583.144C1427.24 583.472 1427.35 583.744 1427.58 583.961C1427.82 584.178 1428.17 584.286 1428.64 584.286ZM1444.4 581.342C1444.4 582.051 1444.32 582.701 1444.17 583.293C1444.01 583.885 1443.78 584.395 1443.47 584.822C1443.16 585.25 1442.77 585.584 1442.31 585.824C1441.85 586.059 1441.31 586.176 1440.69 586.176C1440.14 586.176 1439.65 586.073 1439.24 585.868C1438.84 585.657 1438.49 585.364 1438.2 584.989L1438.08 586H1435.89V572.5H1438.33V577.352C1438.61 577.023 1438.94 576.769 1439.32 576.587C1439.71 576.405 1440.16 576.314 1440.68 576.314C1441.3 576.314 1441.84 576.435 1442.3 576.675C1442.77 576.915 1443.16 577.249 1443.47 577.677C1443.78 578.104 1444.01 578.617 1444.17 579.215C1444.32 579.807 1444.4 580.454 1444.4 581.157V581.342ZM1441.96 581.157C1441.96 580.771 1441.93 580.404 1441.87 580.059C1441.81 579.713 1441.71 579.411 1441.56 579.153C1441.42 578.89 1441.23 578.682 1440.98 578.529C1440.74 578.377 1440.43 578.301 1440.06 578.301C1439.62 578.301 1439.25 578.395 1438.97 578.582C1438.7 578.77 1438.48 579.027 1438.33 579.355V583.144C1438.48 583.472 1438.7 583.729 1438.97 583.917C1439.25 584.104 1439.62 584.198 1440.08 584.198C1440.45 584.198 1440.75 584.128 1440.99 583.987C1441.23 583.841 1441.42 583.642 1441.56 583.39C1441.71 583.132 1441.81 582.83 1441.87 582.484C1441.93 582.133 1441.96 581.752 1441.96 581.342V581.157ZM1451.26 586.176C1450.53 586.176 1449.86 586.056 1449.26 585.815C1448.67 585.575 1448.15 585.25 1447.73 584.84C1447.3 584.424 1446.97 583.938 1446.73 583.381C1446.5 582.818 1446.39 582.218 1446.39 581.579V581.228C1446.39 580.501 1446.5 579.839 1446.73 579.241C1446.96 578.638 1447.28 578.119 1447.69 577.686C1448.1 577.252 1448.59 576.915 1449.15 576.675C1449.71 576.435 1450.32 576.314 1450.99 576.314C1451.67 576.314 1452.28 576.429 1452.81 576.657C1453.35 576.88 1453.81 577.196 1454.18 577.606C1454.55 578.017 1454.84 578.512 1455.03 579.092C1455.22 579.666 1455.32 580.302 1455.32 580.999V582.036H1448.87C1448.92 582.358 1449.01 582.654 1449.15 582.924C1449.3 583.188 1449.48 583.416 1449.7 583.609C1449.93 583.803 1450.18 583.952 1450.47 584.058C1450.75 584.163 1451.07 584.216 1451.41 584.216C1451.65 584.216 1451.89 584.192 1452.12 584.146C1452.36 584.099 1452.59 584.031 1452.81 583.943C1453.02 583.85 1453.22 583.735 1453.41 583.601C1453.6 583.466 1453.76 583.308 1453.9 583.126L1455.13 584.444C1454.97 584.661 1454.77 584.875 1454.53 585.086C1454.29 585.291 1454 585.476 1453.67 585.64C1453.34 585.798 1452.97 585.927 1452.57 586.026C1452.16 586.126 1451.73 586.176 1451.26 586.176ZM1450.97 578.292C1450.69 578.292 1450.44 578.342 1450.21 578.441C1449.98 578.535 1449.78 578.673 1449.61 578.854C1449.44 579.036 1449.29 579.253 1449.18 579.505C1449.06 579.757 1448.97 580.038 1448.91 580.349H1452.92V580.155C1452.91 579.897 1452.86 579.654 1452.77 579.426C1452.68 579.197 1452.56 579.001 1452.39 578.837C1452.23 578.667 1452.03 578.535 1451.79 578.441C1451.55 578.342 1451.28 578.292 1450.97 578.292ZM1457.96 572.5H1463.28V584.014H1466.01V586H1457.96V584.014H1460.81V574.495H1457.96V572.5Z" fill="#0066FF"/>
<path d="M260 199.786H1540" stroke="#222222" stroke-width="4" stroke-linecap="round"/>
<path d="M270.556 166.216H266.609V177H264.131V166.216H260.237V164.203H270.556V166.216ZM274.493 168.8C274.81 168.337 275.193 167.974 275.645 167.71C276.102 167.446 276.611 167.314 277.174 167.314C277.672 167.314 278.129 167.391 278.545 167.543C278.961 167.689 279.318 167.921 279.617 168.237C279.916 168.554 280.147 168.961 280.312 169.459C280.481 169.951 280.566 170.546 280.566 171.243V177H278.123V171.226C278.123 170.886 278.079 170.593 277.991 170.347C277.909 170.101 277.789 169.901 277.631 169.749C277.473 169.597 277.282 169.485 277.06 169.415C276.837 169.339 276.585 169.301 276.304 169.301C275.894 169.301 275.536 169.374 275.231 169.521C274.933 169.667 274.687 169.872 274.493 170.136V177H272.05V163.5H274.493V168.8ZM283.511 167.49H288.688V175.014H291.263V177H283.511V175.014H286.218V169.485H283.511V167.49ZM286.042 165.056C286.042 164.868 286.074 164.695 286.139 164.537C286.209 164.373 286.306 164.235 286.429 164.124C286.552 164.007 286.698 163.916 286.868 163.852C287.044 163.787 287.237 163.755 287.448 163.755C287.882 163.755 288.225 163.878 288.477 164.124C288.734 164.364 288.863 164.675 288.863 165.056C288.863 165.437 288.734 165.75 288.477 165.996C288.225 166.236 287.882 166.356 287.448 166.356C287.237 166.356 287.044 166.324 286.868 166.26C286.698 166.195 286.552 166.107 286.429 165.996C286.306 165.879 286.209 165.741 286.139 165.583C286.074 165.419 286.042 165.243 286.042 165.056ZM299.806 174.39C299.806 174.243 299.771 174.114 299.7 174.003C299.636 173.892 299.516 173.789 299.34 173.695C299.17 173.596 298.941 173.505 298.654 173.423C298.367 173.341 298.004 173.259 297.564 173.177C297.008 173.065 296.498 172.928 296.035 172.764C295.578 172.594 295.186 172.392 294.857 172.157C294.529 171.917 294.271 171.642 294.084 171.331C293.902 171.021 293.812 170.663 293.812 170.259C293.812 169.866 293.905 169.491 294.093 169.134C294.28 168.776 294.55 168.463 294.901 168.193C295.253 167.924 295.681 167.71 296.185 167.552C296.688 167.394 297.257 167.314 297.89 167.314C298.552 167.314 299.146 167.394 299.674 167.552C300.201 167.704 300.646 167.918 301.01 168.193C301.379 168.463 301.66 168.785 301.854 169.16C302.047 169.535 302.144 169.942 302.144 170.382H299.7C299.7 170.013 299.551 169.705 299.252 169.459C298.953 169.207 298.499 169.081 297.89 169.081C297.321 169.081 296.891 169.184 296.598 169.389C296.311 169.594 296.167 169.846 296.167 170.145C296.167 170.285 296.196 170.417 296.255 170.54C296.313 170.657 296.416 170.766 296.562 170.865C296.715 170.959 296.92 171.047 297.178 171.129C297.436 171.205 297.764 171.272 298.162 171.331C298.736 171.425 299.27 171.545 299.762 171.691C300.254 171.838 300.679 172.028 301.036 172.263C301.394 172.491 301.672 172.772 301.871 173.106C302.076 173.435 302.179 173.827 302.179 174.284C302.179 174.706 302.076 175.096 301.871 175.453C301.672 175.805 301.385 176.109 301.01 176.367C300.641 176.625 300.192 176.827 299.665 176.974C299.138 177.114 298.549 177.185 297.898 177.185C297.184 177.185 296.551 177.091 296 176.903C295.455 176.716 294.998 176.473 294.629 176.174C294.26 175.869 293.979 175.526 293.785 175.146C293.598 174.759 293.504 174.372 293.504 173.985H295.833C295.851 174.243 295.921 174.466 296.044 174.653C296.167 174.835 296.325 174.984 296.519 175.102C296.712 175.213 296.932 175.295 297.178 175.348C297.43 175.4 297.688 175.427 297.951 175.427C298.555 175.427 299.015 175.33 299.331 175.137C299.647 174.943 299.806 174.694 299.806 174.39ZM315.942 167.49H321.119V175.014H323.694V177H315.942V175.014H318.649V169.485H315.942V167.49ZM318.474 165.056C318.474 164.868 318.506 164.695 318.57 164.537C318.641 164.373 318.737 164.235 318.86 164.124C318.983 164.007 319.13 163.916 319.3 163.852C319.476 163.787 319.669 163.755 319.88 163.755C320.313 163.755 320.656 163.878 320.908 164.124C321.166 164.364 321.295 164.675 321.295 165.056C321.295 165.437 321.166 165.75 320.908 165.996C320.656 166.236 320.313 166.356 319.88 166.356C319.669 166.356 319.476 166.324 319.3 166.26C319.13 166.195 318.983 166.107 318.86 165.996C318.737 165.879 318.641 165.741 318.57 165.583C318.506 165.419 318.474 165.243 318.474 165.056ZM332.237 174.39C332.237 174.243 332.202 174.114 332.132 174.003C332.067 173.892 331.947 173.789 331.771 173.695C331.602 173.596 331.373 173.505 331.086 173.423C330.799 173.341 330.436 173.259 329.996 173.177C329.439 173.065 328.93 172.928 328.467 172.764C328.01 172.594 327.617 172.392 327.289 172.157C326.961 171.917 326.703 171.642 326.516 171.331C326.334 171.021 326.243 170.663 326.243 170.259C326.243 169.866 326.337 169.491 326.524 169.134C326.712 168.776 326.981 168.463 327.333 168.193C327.685 167.924 328.112 167.71 328.616 167.552C329.12 167.394 329.688 167.314 330.321 167.314C330.983 167.314 331.578 167.394 332.105 167.552C332.633 167.704 333.078 167.918 333.441 168.193C333.811 168.463 334.092 168.785 334.285 169.16C334.479 169.535 334.575 169.942 334.575 170.382H332.132C332.132 170.013 331.982 169.705 331.684 169.459C331.385 169.207 330.931 169.081 330.321 169.081C329.753 169.081 329.322 169.184 329.029 169.389C328.742 169.594 328.599 169.846 328.599 170.145C328.599 170.285 328.628 170.417 328.687 170.54C328.745 170.657 328.848 170.766 328.994 170.865C329.146 170.959 329.352 171.047 329.609 171.129C329.867 171.205 330.195 171.272 330.594 171.331C331.168 171.425 331.701 171.545 332.193 171.691C332.686 171.838 333.11 172.028 333.468 172.263C333.825 172.491 334.104 172.772 334.303 173.106C334.508 173.435 334.61 173.827 334.61 174.284C334.61 174.706 334.508 175.096 334.303 175.453C334.104 175.805 333.816 176.109 333.441 176.367C333.072 176.625 332.624 176.827 332.097 176.974C331.569 177.114 330.98 177.185 330.33 177.185C329.615 177.185 328.982 177.091 328.432 176.903C327.887 176.716 327.43 176.473 327.061 176.174C326.691 175.869 326.41 175.526 326.217 175.146C326.029 174.759 325.936 174.372 325.936 173.985H328.265C328.282 174.243 328.353 174.466 328.476 174.653C328.599 174.835 328.757 174.984 328.95 175.102C329.144 175.213 329.363 175.295 329.609 175.348C329.861 175.4 330.119 175.427 330.383 175.427C330.986 175.427 331.446 175.33 331.763 175.137C332.079 174.943 332.237 174.694 332.237 174.39ZM353.665 177C353.606 176.883 353.557 176.748 353.516 176.596C353.475 176.443 353.439 176.282 353.41 176.112C353.275 176.259 353.12 176.396 352.944 176.525C352.769 176.654 352.572 176.769 352.355 176.868C352.145 176.962 351.91 177.035 351.652 177.088C351.395 177.146 351.116 177.176 350.817 177.176C350.331 177.176 349.883 177.105 349.473 176.965C349.068 176.824 348.72 176.628 348.427 176.376C348.134 176.124 347.905 175.825 347.741 175.479C347.577 175.128 347.495 174.747 347.495 174.337C347.495 173.335 347.867 172.562 348.611 172.017C349.361 171.466 350.478 171.19 351.96 171.19H353.322V170.628C353.322 170.171 353.173 169.811 352.874 169.547C352.575 169.277 352.145 169.143 351.582 169.143C351.084 169.143 350.721 169.251 350.492 169.468C350.264 169.679 350.149 169.963 350.149 170.32H347.706C347.706 169.916 347.794 169.532 347.97 169.169C348.151 168.806 348.412 168.486 348.752 168.211C349.098 167.936 349.517 167.719 350.009 167.561C350.507 167.396 351.075 167.314 351.714 167.314C352.288 167.314 352.821 167.385 353.313 167.525C353.812 167.666 354.242 167.874 354.605 168.149C354.969 168.425 355.253 168.773 355.458 169.195C355.663 169.611 355.766 170.095 355.766 170.646V174.724C355.766 175.233 355.798 175.655 355.862 175.989C355.927 176.323 356.021 176.61 356.144 176.851V177H353.665ZM351.336 175.286C351.582 175.286 351.811 175.257 352.021 175.198C352.232 175.14 352.423 175.063 352.593 174.97C352.763 174.876 352.909 174.771 353.032 174.653C353.155 174.53 353.252 174.407 353.322 174.284V172.649H352.074C351.693 172.649 351.368 172.688 351.099 172.764C350.829 172.834 350.609 172.937 350.439 173.071C350.27 173.2 350.144 173.358 350.062 173.546C349.979 173.728 349.938 173.927 349.938 174.144C349.938 174.472 350.053 174.744 350.281 174.961C350.516 175.178 350.867 175.286 351.336 175.286ZM369.854 163.5H375.172V175.014H377.896V177H369.854V175.014H372.702V165.495H369.854V163.5ZM386.097 177C386.038 176.883 385.988 176.748 385.947 176.596C385.906 176.443 385.871 176.282 385.842 176.112C385.707 176.259 385.552 176.396 385.376 176.525C385.2 176.654 385.004 176.769 384.787 176.868C384.576 176.962 384.342 177.035 384.084 177.088C383.826 177.146 383.548 177.176 383.249 177.176C382.763 177.176 382.314 177.105 381.904 176.965C381.5 176.824 381.151 176.628 380.858 176.376C380.565 176.124 380.337 175.825 380.173 175.479C380.009 175.128 379.927 174.747 379.927 174.337C379.927 173.335 380.299 172.562 381.043 172.017C381.793 171.466 382.909 171.19 384.392 171.19H385.754V170.628C385.754 170.171 385.604 169.811 385.306 169.547C385.007 169.277 384.576 169.143 384.014 169.143C383.516 169.143 383.152 169.251 382.924 169.468C382.695 169.679 382.581 169.963 382.581 170.32H380.138C380.138 169.916 380.226 169.532 380.401 169.169C380.583 168.806 380.844 168.486 381.184 168.211C381.529 167.936 381.948 167.719 382.44 167.561C382.938 167.396 383.507 167.314 384.146 167.314C384.72 167.314 385.253 167.385 385.745 167.525C386.243 167.666 386.674 167.874 387.037 168.149C387.4 168.425 387.685 168.773 387.89 169.195C388.095 169.611 388.197 170.095 388.197 170.646V174.724C388.197 175.233 388.229 175.655 388.294 175.989C388.358 176.323 388.452 176.61 388.575 176.851V177H386.097ZM383.768 175.286C384.014 175.286 384.242 175.257 384.453 175.198C384.664 175.14 384.854 175.063 385.024 174.97C385.194 174.876 385.341 174.771 385.464 174.653C385.587 174.53 385.684 174.407 385.754 174.284V172.649H384.506C384.125 172.649 383.8 172.688 383.53 172.764C383.261 172.834 383.041 172.937 382.871 173.071C382.701 173.2 382.575 173.358 382.493 173.546C382.411 173.728 382.37 173.927 382.37 174.144C382.37 174.472 382.484 174.744 382.713 174.961C382.947 175.178 383.299 175.286 383.768 175.286ZM399.535 172.342C399.535 173.051 399.456 173.701 399.298 174.293C399.146 174.885 398.914 175.395 398.604 175.822C398.293 176.25 397.906 176.584 397.443 176.824C396.98 177.059 396.441 177.176 395.826 177.176C395.27 177.176 394.786 177.073 394.376 176.868C393.972 176.657 393.623 176.364 393.33 175.989L393.216 177H391.019V163.5H393.462V168.352C393.743 168.023 394.074 167.769 394.455 167.587C394.842 167.405 395.293 167.314 395.809 167.314C396.43 167.314 396.972 167.435 397.435 167.675C397.903 167.915 398.293 168.249 398.604 168.677C398.914 169.104 399.146 169.617 399.298 170.215C399.456 170.807 399.535 171.454 399.535 172.157V172.342ZM397.092 172.157C397.092 171.771 397.062 171.404 397.004 171.059C396.945 170.713 396.843 170.411 396.696 170.153C396.556 169.89 396.362 169.682 396.116 169.529C395.87 169.377 395.562 169.301 395.193 169.301C394.748 169.301 394.385 169.395 394.104 169.582C393.828 169.77 393.614 170.027 393.462 170.355V174.144C393.614 174.472 393.828 174.729 394.104 174.917C394.385 175.104 394.754 175.198 395.211 175.198C395.58 175.198 395.885 175.128 396.125 174.987C396.365 174.841 396.556 174.642 396.696 174.39C396.843 174.132 396.945 173.83 397.004 173.484C397.062 173.133 397.092 172.752 397.092 172.342V172.157ZM406.391 177.176C405.658 177.176 404.993 177.056 404.396 176.815C403.798 176.575 403.285 176.25 402.857 175.84C402.43 175.424 402.099 174.938 401.864 174.381C401.636 173.818 401.521 173.218 401.521 172.579V172.228C401.521 171.501 401.636 170.839 401.864 170.241C402.093 169.638 402.412 169.119 402.822 168.686C403.232 168.252 403.719 167.915 404.281 167.675C404.844 167.435 405.456 167.314 406.118 167.314C406.804 167.314 407.413 167.429 407.946 167.657C408.485 167.88 408.939 168.196 409.309 168.606C409.684 169.017 409.968 169.512 410.161 170.092C410.354 170.666 410.451 171.302 410.451 171.999V173.036H404C404.047 173.358 404.141 173.654 404.281 173.924C404.428 174.188 404.612 174.416 404.835 174.609C405.058 174.803 405.312 174.952 405.6 175.058C405.887 175.163 406.2 175.216 406.54 175.216C406.78 175.216 407.018 175.192 407.252 175.146C407.492 175.099 407.721 175.031 407.938 174.943C408.154 174.85 408.356 174.735 408.544 174.601C408.731 174.466 408.896 174.308 409.036 174.126L410.258 175.444C410.105 175.661 409.906 175.875 409.66 176.086C409.42 176.291 409.133 176.476 408.799 176.64C408.471 176.798 408.104 176.927 407.7 177.026C407.296 177.126 406.859 177.176 406.391 177.176ZM406.101 169.292C405.825 169.292 405.573 169.342 405.345 169.441C405.116 169.535 404.914 169.673 404.738 169.854C404.568 170.036 404.425 170.253 404.308 170.505C404.19 170.757 404.103 171.038 404.044 171.349H408.052V171.155C408.04 170.897 407.99 170.654 407.902 170.426C407.814 170.197 407.688 170.001 407.524 169.837C407.36 169.667 407.158 169.535 406.918 169.441C406.684 169.342 406.411 169.292 406.101 169.292ZM413.097 163.5H418.414V175.014H421.139V177H413.097V175.014H415.944V165.495H413.097V163.5ZM440.149 177C440.091 176.883 440.041 176.748 440 176.596C439.959 176.443 439.924 176.282 439.895 176.112C439.76 176.259 439.604 176.396 439.429 176.525C439.253 176.654 439.057 176.769 438.84 176.868C438.629 176.962 438.395 177.035 438.137 177.088C437.879 177.146 437.601 177.176 437.302 177.176C436.815 177.176 436.367 177.105 435.957 176.965C435.553 176.824 435.204 176.628 434.911 176.376C434.618 176.124 434.39 175.825 434.226 175.479C434.062 175.128 433.979 174.747 433.979 174.337C433.979 173.335 434.352 172.562 435.096 172.017C435.846 171.466 436.962 171.19 438.444 171.19H439.807V170.628C439.807 170.171 439.657 169.811 439.358 169.547C439.06 169.277 438.629 169.143 438.066 169.143C437.568 169.143 437.205 169.251 436.977 169.468C436.748 169.679 436.634 169.963 436.634 170.32H434.19C434.19 169.916 434.278 169.532 434.454 169.169C434.636 168.806 434.896 168.486 435.236 168.211C435.582 167.936 436.001 167.719 436.493 167.561C436.991 167.396 437.56 167.314 438.198 167.314C438.772 167.314 439.306 167.385 439.798 167.525C440.296 167.666 440.727 167.874 441.09 168.149C441.453 168.425 441.737 168.773 441.942 169.195C442.147 169.611 442.25 170.095 442.25 170.646V174.724C442.25 175.233 442.282 175.655 442.347 175.989C442.411 176.323 442.505 176.61 442.628 176.851V177H440.149ZM437.82 175.286C438.066 175.286 438.295 175.257 438.506 175.198C438.717 175.14 438.907 175.063 439.077 174.97C439.247 174.876 439.394 174.771 439.517 174.653C439.64 174.53 439.736 174.407 439.807 174.284V172.649H438.559C438.178 172.649 437.853 172.688 437.583 172.764C437.313 172.834 437.094 172.937 436.924 173.071C436.754 173.2 436.628 173.358 436.546 173.546C436.464 173.728 436.423 173.927 436.423 174.144C436.423 174.472 436.537 174.744 436.766 174.961C437 175.178 437.352 175.286 437.82 175.286ZM447.233 167.49L447.383 168.809C447.723 168.334 448.136 167.968 448.622 167.71C449.108 167.446 449.647 167.314 450.239 167.314C450.72 167.314 451.159 167.385 451.558 167.525C451.956 167.666 452.299 167.892 452.586 168.202C452.879 168.507 453.104 168.902 453.263 169.389C453.427 169.869 453.509 170.455 453.509 171.146V177H451.065V171.182C451.065 170.807 451.021 170.499 450.934 170.259C450.852 170.013 450.731 169.819 450.573 169.679C450.415 169.538 450.225 169.441 450.002 169.389C449.779 169.33 449.527 169.301 449.246 169.301C448.83 169.301 448.476 169.386 448.183 169.556C447.89 169.72 447.652 169.948 447.471 170.241V177H445.019V167.49H447.233ZM455.574 172.175C455.574 171.454 455.656 170.795 455.82 170.197C455.99 169.6 456.236 169.087 456.559 168.659C456.881 168.231 457.271 167.9 457.728 167.666C458.19 167.432 458.718 167.314 459.31 167.314C459.808 167.314 460.244 167.405 460.619 167.587C461 167.763 461.337 168.015 461.63 168.343V163.5H464.082V177H461.876L461.753 176.007C461.454 176.376 461.103 176.663 460.698 176.868C460.294 177.073 459.825 177.176 459.292 177.176C458.712 177.176 458.19 177.056 457.728 176.815C457.271 176.569 456.881 176.232 456.559 175.805C456.242 175.377 455.999 174.87 455.829 174.284C455.659 173.692 455.574 173.051 455.574 172.359V172.175ZM458.018 172.359C458.018 172.758 458.05 173.13 458.114 173.476C458.185 173.815 458.296 174.114 458.448 174.372C458.601 174.624 458.797 174.823 459.037 174.97C459.277 175.116 459.57 175.189 459.916 175.189C460.338 175.189 460.687 175.099 460.962 174.917C461.243 174.735 461.466 174.486 461.63 174.17V170.32C461.466 169.998 461.246 169.749 460.971 169.573C460.695 169.392 460.35 169.301 459.934 169.301C459.588 169.301 459.292 169.377 459.046 169.529C458.806 169.676 458.609 169.881 458.457 170.145C458.305 170.402 458.193 170.707 458.123 171.059C458.053 171.404 458.018 171.776 458.018 172.175V172.359ZM483.585 174.39C483.585 174.243 483.55 174.114 483.479 174.003C483.415 173.892 483.295 173.789 483.119 173.695C482.949 173.596 482.721 173.505 482.434 173.423C482.146 173.341 481.783 173.259 481.344 173.177C480.787 173.065 480.277 172.928 479.814 172.764C479.357 172.594 478.965 172.392 478.637 172.157C478.309 171.917 478.051 171.642 477.863 171.331C477.682 171.021 477.591 170.663 477.591 170.259C477.591 169.866 477.685 169.491 477.872 169.134C478.06 168.776 478.329 168.463 478.681 168.193C479.032 167.924 479.46 167.71 479.964 167.552C480.468 167.394 481.036 167.314 481.669 167.314C482.331 167.314 482.926 167.394 483.453 167.552C483.98 167.704 484.426 167.918 484.789 168.193C485.158 168.463 485.439 168.785 485.633 169.16C485.826 169.535 485.923 169.942 485.923 170.382H483.479C483.479 170.013 483.33 169.705 483.031 169.459C482.732 169.207 482.278 169.081 481.669 169.081C481.101 169.081 480.67 169.184 480.377 169.389C480.09 169.594 479.946 169.846 479.946 170.145C479.946 170.285 479.976 170.417 480.034 170.54C480.093 170.657 480.195 170.766 480.342 170.865C480.494 170.959 480.699 171.047 480.957 171.129C481.215 171.205 481.543 171.272 481.941 171.331C482.516 171.425 483.049 171.545 483.541 171.691C484.033 171.838 484.458 172.028 484.815 172.263C485.173 172.491 485.451 172.772 485.65 173.106C485.855 173.435 485.958 173.827 485.958 174.284C485.958 174.706 485.855 175.096 485.65 175.453C485.451 175.805 485.164 176.109 484.789 176.367C484.42 176.625 483.972 176.827 483.444 176.974C482.917 177.114 482.328 177.185 481.678 177.185C480.963 177.185 480.33 177.091 479.779 176.903C479.234 176.716 478.777 176.473 478.408 176.174C478.039 175.869 477.758 175.526 477.564 175.146C477.377 174.759 477.283 174.372 477.283 173.985H479.612C479.63 174.243 479.7 174.466 479.823 174.653C479.946 174.835 480.104 174.984 480.298 175.102C480.491 175.213 480.711 175.295 480.957 175.348C481.209 175.4 481.467 175.427 481.73 175.427C482.334 175.427 482.794 175.33 483.11 175.137C483.427 174.943 483.585 174.694 483.585 174.39ZM487.927 172.157C487.927 171.466 488.026 170.827 488.226 170.241C488.425 169.649 488.715 169.137 489.096 168.703C489.482 168.27 489.951 167.93 490.502 167.684C491.059 167.438 491.694 167.314 492.409 167.314C493.124 167.314 493.76 167.438 494.316 167.684C494.873 167.93 495.342 168.27 495.723 168.703C496.109 169.137 496.402 169.649 496.602 170.241C496.801 170.827 496.9 171.466 496.9 172.157V172.342C496.9 173.039 496.801 173.684 496.602 174.275C496.402 174.861 496.112 175.371 495.731 175.805C495.351 176.238 494.882 176.578 494.325 176.824C493.769 177.064 493.136 177.185 492.427 177.185C491.712 177.185 491.073 177.064 490.511 176.824C489.954 176.578 489.482 176.238 489.096 175.805C488.715 175.371 488.425 174.861 488.226 174.275C488.026 173.684 487.927 173.039 487.927 172.342V172.157ZM490.37 172.342C490.37 172.74 490.408 173.115 490.484 173.467C490.561 173.812 490.681 174.117 490.845 174.381C491.009 174.639 491.22 174.844 491.478 174.996C491.741 175.148 492.058 175.225 492.427 175.225C492.784 175.225 493.092 175.148 493.35 174.996C493.607 174.844 493.815 174.639 493.974 174.381C494.138 174.117 494.258 173.812 494.334 173.467C494.41 173.115 494.448 172.74 494.448 172.342V172.157C494.448 171.771 494.41 171.404 494.334 171.059C494.258 170.713 494.138 170.408 493.974 170.145C493.815 169.881 493.607 169.673 493.35 169.521C493.092 169.368 492.778 169.292 492.409 169.292C492.046 169.292 491.735 169.368 491.478 169.521C491.22 169.673 491.009 169.881 490.845 170.145C490.681 170.408 490.561 170.713 490.484 171.059C490.408 171.404 490.37 171.771 490.37 172.157V172.342ZM515.823 177C515.765 176.883 515.715 176.748 515.674 176.596C515.633 176.443 515.598 176.282 515.568 176.112C515.434 176.259 515.278 176.396 515.103 176.525C514.927 176.654 514.73 176.769 514.514 176.868C514.303 176.962 514.068 177.035 513.811 177.088C513.553 177.146 513.274 177.176 512.976 177.176C512.489 177.176 512.041 177.105 511.631 176.965C511.227 176.824 510.878 176.628 510.585 176.376C510.292 176.124 510.063 175.825 509.899 175.479C509.735 175.128 509.653 174.747 509.653 174.337C509.653 173.335 510.025 172.562 510.77 172.017C511.52 171.466 512.636 171.19 514.118 171.19H515.48V170.628C515.48 170.171 515.331 169.811 515.032 169.547C514.733 169.277 514.303 169.143 513.74 169.143C513.242 169.143 512.879 169.251 512.65 169.468C512.422 169.679 512.308 169.963 512.308 170.32H509.864C509.864 169.916 509.952 169.532 510.128 169.169C510.31 168.806 510.57 168.486 510.91 168.211C511.256 167.936 511.675 167.719 512.167 167.561C512.665 167.396 513.233 167.314 513.872 167.314C514.446 167.314 514.979 167.385 515.472 167.525C515.97 167.666 516.4 167.874 516.764 168.149C517.127 168.425 517.411 168.773 517.616 169.195C517.821 169.611 517.924 170.095 517.924 170.646V174.724C517.924 175.233 517.956 175.655 518.021 175.989C518.085 176.323 518.179 176.61 518.302 176.851V177H515.823ZM513.494 175.286C513.74 175.286 513.969 175.257 514.18 175.198C514.391 175.14 514.581 175.063 514.751 174.97C514.921 174.876 515.067 174.771 515.19 174.653C515.313 174.53 515.41 174.407 515.48 174.284V172.649H514.232C513.852 172.649 513.526 172.688 513.257 172.764C512.987 172.834 512.768 172.937 512.598 173.071C512.428 173.2 512.302 173.358 512.22 173.546C512.138 173.728 512.097 173.927 512.097 174.144C512.097 174.472 512.211 174.744 512.439 174.961C512.674 175.178 513.025 175.286 513.494 175.286ZM527.521 167.314C527.891 167.314 528.23 167.341 528.541 167.394C528.857 167.44 529.112 167.493 529.306 167.552L528.945 169.986C528.623 169.91 528.292 169.854 527.952 169.819C527.618 169.778 527.299 169.758 526.994 169.758C526.309 169.758 525.758 169.89 525.342 170.153C524.932 170.417 524.624 170.795 524.419 171.287V177H521.976V167.49H524.252L524.366 169.046C524.753 168.507 525.216 168.085 525.755 167.78C526.294 167.47 526.883 167.314 527.521 167.314ZM536.117 177.176C535.385 177.176 534.72 177.056 534.122 176.815C533.524 176.575 533.012 176.25 532.584 175.84C532.156 175.424 531.825 174.938 531.591 174.381C531.362 173.818 531.248 173.218 531.248 172.579V172.228C531.248 171.501 531.362 170.839 531.591 170.241C531.819 169.638 532.139 169.119 532.549 168.686C532.959 168.252 533.445 167.915 534.008 167.675C534.57 167.435 535.183 167.314 535.845 167.314C536.53 167.314 537.14 167.429 537.673 167.657C538.212 167.88 538.666 168.196 539.035 168.606C539.41 169.017 539.694 169.512 539.888 170.092C540.081 170.666 540.178 171.302 540.178 171.999V173.036H533.727C533.773 173.358 533.867 173.654 534.008 173.924C534.154 174.188 534.339 174.416 534.562 174.609C534.784 174.803 535.039 174.952 535.326 175.058C535.613 175.163 535.927 175.216 536.267 175.216C536.507 175.216 536.744 175.192 536.979 175.146C537.219 175.099 537.447 175.031 537.664 174.943C537.881 174.85 538.083 174.735 538.271 174.601C538.458 174.466 538.622 174.308 538.763 174.126L539.984 175.444C539.832 175.661 539.633 175.875 539.387 176.086C539.146 176.291 538.859 176.476 538.525 176.64C538.197 176.798 537.831 176.927 537.427 177.026C537.022 177.126 536.586 177.176 536.117 177.176ZM535.827 169.292C535.552 169.292 535.3 169.342 535.071 169.441C534.843 169.535 534.641 169.673 534.465 169.854C534.295 170.036 534.151 170.253 534.034 170.505C533.917 170.757 533.829 171.038 533.771 171.349H537.778V171.155C537.767 170.897 537.717 170.654 537.629 170.426C537.541 170.197 537.415 170.001 537.251 169.837C537.087 169.667 536.885 169.535 536.645 169.441C536.41 169.342 536.138 169.292 535.827 169.292ZM557.606 165.161V167.49H561.157V169.292H557.606V173.379C557.606 173.725 557.645 174.015 557.721 174.249C557.803 174.478 557.917 174.662 558.063 174.803C558.21 174.938 558.386 175.034 558.591 175.093C558.802 175.151 559.036 175.181 559.294 175.181C559.481 175.181 559.672 175.172 559.865 175.154C560.064 175.137 560.252 175.116 560.428 175.093C560.609 175.063 560.776 175.034 560.929 175.005C561.087 174.976 561.222 174.946 561.333 174.917L561.57 176.596C561.4 176.695 561.201 176.783 560.973 176.859C560.744 176.93 560.501 176.988 560.243 177.035C559.985 177.082 559.716 177.117 559.435 177.141C559.159 177.17 558.887 177.185 558.617 177.185C558.096 177.185 557.621 177.117 557.193 176.982C556.771 176.842 556.408 176.628 556.104 176.341C555.805 176.048 555.573 175.679 555.409 175.233C555.245 174.782 555.163 174.243 555.163 173.616V169.292H552.992V167.49H555.163V165.161H557.606ZM566.378 168.8C566.694 168.337 567.078 167.974 567.529 167.71C567.986 167.446 568.496 167.314 569.059 167.314C569.557 167.314 570.014 167.391 570.43 167.543C570.846 167.689 571.203 167.921 571.502 168.237C571.801 168.554 572.032 168.961 572.196 169.459C572.366 169.951 572.451 170.546 572.451 171.243V177H570.008V171.226C570.008 170.886 569.964 170.593 569.876 170.347C569.794 170.101 569.674 169.901 569.516 169.749C569.357 169.597 569.167 169.485 568.944 169.415C568.722 169.339 568.47 169.301 568.188 169.301C567.778 169.301 567.421 169.374 567.116 169.521C566.817 169.667 566.571 169.872 566.378 170.136V177H563.935V163.5H566.378V168.8ZM574.411 172.157C574.411 171.466 574.511 170.827 574.71 170.241C574.909 169.649 575.199 169.137 575.58 168.703C575.967 168.27 576.436 167.93 576.986 167.684C577.543 167.438 578.179 167.314 578.894 167.314C579.608 167.314 580.244 167.438 580.801 167.684C581.357 167.93 581.826 168.27 582.207 168.703C582.594 169.137 582.887 169.649 583.086 170.241C583.285 170.827 583.385 171.466 583.385 172.157V172.342C583.385 173.039 583.285 173.684 583.086 174.275C582.887 174.861 582.597 175.371 582.216 175.805C581.835 176.238 581.366 176.578 580.81 176.824C580.253 177.064 579.62 177.185 578.911 177.185C578.196 177.185 577.558 177.064 576.995 176.824C576.438 176.578 575.967 176.238 575.58 175.805C575.199 175.371 574.909 174.861 574.71 174.275C574.511 173.684 574.411 173.039 574.411 172.342V172.157ZM576.854 172.342C576.854 172.74 576.893 173.115 576.969 173.467C577.045 173.812 577.165 174.117 577.329 174.381C577.493 174.639 577.704 174.844 577.962 174.996C578.226 175.148 578.542 175.225 578.911 175.225C579.269 175.225 579.576 175.148 579.834 174.996C580.092 174.844 580.3 174.639 580.458 174.381C580.622 174.117 580.742 173.812 580.818 173.467C580.895 173.115 580.933 172.74 580.933 172.342V172.157C580.933 171.771 580.895 171.404 580.818 171.059C580.742 170.713 580.622 170.408 580.458 170.145C580.3 169.881 580.092 169.673 579.834 169.521C579.576 169.368 579.263 169.292 578.894 169.292C578.53 169.292 578.22 169.368 577.962 169.521C577.704 169.673 577.493 169.881 577.329 170.145C577.165 170.408 577.045 170.713 576.969 171.059C576.893 171.404 576.854 171.771 576.854 172.157V172.342ZM591.69 174.39C591.69 174.243 591.655 174.114 591.585 174.003C591.521 173.892 591.4 173.789 591.225 173.695C591.055 173.596 590.826 173.505 590.539 173.423C590.252 173.341 589.889 173.259 589.449 173.177C588.893 173.065 588.383 172.928 587.92 172.764C587.463 172.594 587.07 172.392 586.742 172.157C586.414 171.917 586.156 171.642 585.969 171.331C585.787 171.021 585.696 170.663 585.696 170.259C585.696 169.866 585.79 169.491 585.978 169.134C586.165 168.776 586.435 168.463 586.786 168.193C587.138 167.924 587.565 167.71 588.069 167.552C588.573 167.394 589.142 167.314 589.774 167.314C590.437 167.314 591.031 167.394 591.559 167.552C592.086 167.704 592.531 167.918 592.895 168.193C593.264 168.463 593.545 168.785 593.738 169.16C593.932 169.535 594.028 169.942 594.028 170.382H591.585C591.585 170.013 591.436 169.705 591.137 169.459C590.838 169.207 590.384 169.081 589.774 169.081C589.206 169.081 588.775 169.184 588.482 169.389C588.195 169.594 588.052 169.846 588.052 170.145C588.052 170.285 588.081 170.417 588.14 170.54C588.198 170.657 588.301 170.766 588.447 170.865C588.6 170.959 588.805 171.047 589.062 171.129C589.32 171.205 589.648 171.272 590.047 171.331C590.621 171.425 591.154 171.545 591.646 171.691C592.139 171.838 592.563 172.028 592.921 172.263C593.278 172.491 593.557 172.772 593.756 173.106C593.961 173.435 594.063 173.827 594.063 174.284C594.063 174.706 593.961 175.096 593.756 175.453C593.557 175.805 593.27 176.109 592.895 176.367C592.525 176.625 592.077 176.827 591.55 176.974C591.022 177.114 590.434 177.185 589.783 177.185C589.068 177.185 588.436 177.091 587.885 176.903C587.34 176.716 586.883 176.473 586.514 176.174C586.145 175.869 585.863 175.526 585.67 175.146C585.482 174.759 585.389 174.372 585.389 173.985H587.718C587.735 174.243 587.806 174.466 587.929 174.653C588.052 174.835 588.21 174.984 588.403 175.102C588.597 175.213 588.816 175.295 589.062 175.348C589.314 175.4 589.572 175.427 589.836 175.427C590.439 175.427 590.899 175.33 591.216 175.137C591.532 174.943 591.69 174.694 591.69 174.39ZM600.98 177.176C600.248 177.176 599.583 177.056 598.985 176.815C598.388 176.575 597.875 176.25 597.447 175.84C597.02 175.424 596.688 174.938 596.454 174.381C596.226 173.818 596.111 173.218 596.111 172.579V172.228C596.111 171.501 596.226 170.839 596.454 170.241C596.683 169.638 597.002 169.119 597.412 168.686C597.822 168.252 598.309 167.915 598.871 167.675C599.434 167.435 600.046 167.314 600.708 167.314C601.394 167.314 602.003 167.429 602.536 167.657C603.075 167.88 603.529 168.196 603.898 168.606C604.273 169.017 604.558 169.512 604.751 170.092C604.944 170.666 605.041 171.302 605.041 171.999V173.036H598.59C598.637 173.358 598.73 173.654 598.871 173.924C599.018 174.188 599.202 174.416 599.425 174.609C599.647 174.803 599.902 174.952 600.189 175.058C600.477 175.163 600.79 175.216 601.13 175.216C601.37 175.216 601.607 175.192 601.842 175.146C602.082 175.099 602.311 175.031 602.527 174.943C602.744 174.85 602.946 174.735 603.134 174.601C603.321 174.466 603.485 174.308 603.626 174.126L604.848 175.444C604.695 175.661 604.496 175.875 604.25 176.086C604.01 176.291 603.723 176.476 603.389 176.64C603.061 176.798 602.694 176.927 602.29 177.026C601.886 177.126 601.449 177.176 600.98 177.176ZM600.69 169.292C600.415 169.292 600.163 169.342 599.935 169.441C599.706 169.535 599.504 169.673 599.328 169.854C599.158 170.036 599.015 170.253 598.897 170.505C598.78 170.757 598.692 171.038 598.634 171.349H602.642V171.155C602.63 170.897 602.58 170.654 602.492 170.426C602.404 170.197 602.278 170.001 602.114 169.837C601.95 169.667 601.748 169.535 601.508 169.441C601.273 169.342 601.001 169.292 600.69 169.292ZM617.732 172.175C617.732 171.454 617.814 170.795 617.979 170.197C618.148 169.6 618.395 169.087 618.717 168.659C619.039 168.231 619.429 167.9 619.886 167.666C620.349 167.432 620.876 167.314 621.468 167.314C621.966 167.314 622.402 167.405 622.777 167.587C623.158 167.763 623.495 168.015 623.788 168.343V163.5H626.24V177H624.034L623.911 176.007C623.612 176.376 623.261 176.663 622.856 176.868C622.452 177.073 621.983 177.176 621.45 177.176C620.87 177.176 620.349 177.056 619.886 176.815C619.429 176.569 619.039 176.232 618.717 175.805C618.4 175.377 618.157 174.87 617.987 174.284C617.817 173.692 617.732 173.051 617.732 172.359V172.175ZM620.176 172.359C620.176 172.758 620.208 173.13 620.272 173.476C620.343 173.815 620.454 174.114 620.606 174.372C620.759 174.624 620.955 174.823 621.195 174.97C621.436 175.116 621.729 175.189 622.074 175.189C622.496 175.189 622.845 175.099 623.12 174.917C623.401 174.735 623.624 174.486 623.788 174.17V170.32C623.624 169.998 623.404 169.749 623.129 169.573C622.854 169.392 622.508 169.301 622.092 169.301C621.746 169.301 621.45 169.377 621.204 169.529C620.964 169.676 620.768 169.881 620.615 170.145C620.463 170.402 620.352 170.707 620.281 171.059C620.211 171.404 620.176 171.776 620.176 172.175V172.359ZM628.464 172.157C628.464 171.466 628.563 170.827 628.763 170.241C628.962 169.649 629.252 169.137 629.633 168.703C630.02 168.27 630.488 167.93 631.039 167.684C631.596 167.438 632.231 167.314 632.946 167.314C633.661 167.314 634.297 167.438 634.854 167.684C635.41 167.93 635.879 168.27 636.26 168.703C636.646 169.137 636.939 169.649 637.139 170.241C637.338 170.827 637.438 171.466 637.438 172.157V172.342C637.438 173.039 637.338 173.684 637.139 174.275C636.939 174.861 636.649 175.371 636.269 175.805C635.888 176.238 635.419 176.578 634.862 176.824C634.306 177.064 633.673 177.185 632.964 177.185C632.249 177.185 631.61 177.064 631.048 176.824C630.491 176.578 630.02 176.238 629.633 175.805C629.252 175.371 628.962 174.861 628.763 174.275C628.563 173.684 628.464 173.039 628.464 172.342V172.157ZM630.907 172.342C630.907 172.74 630.945 173.115 631.021 173.467C631.098 173.812 631.218 174.117 631.382 174.381C631.546 174.639 631.757 174.844 632.015 174.996C632.278 175.148 632.595 175.225 632.964 175.225C633.321 175.225 633.629 175.148 633.887 174.996C634.145 174.844 634.353 174.639 634.511 174.381C634.675 174.117 634.795 173.812 634.871 173.467C634.947 173.115 634.985 172.74 634.985 172.342V172.157C634.985 171.771 634.947 171.404 634.871 171.059C634.795 170.713 634.675 170.408 634.511 170.145C634.353 169.881 634.145 169.673 633.887 169.521C633.629 169.368 633.315 169.292 632.946 169.292C632.583 169.292 632.272 169.368 632.015 169.521C631.757 169.673 631.546 169.881 631.382 170.145C631.218 170.408 631.098 170.713 631.021 171.059C630.945 171.404 630.907 171.771 630.907 172.157V172.342ZM645.69 174.021L646.517 167.49H648.758L647.053 177H644.908L643.66 170.953L642.456 177H640.312L638.606 167.49H640.839L641.665 174.047L642.86 167.49H644.495L645.69 174.021ZM652.634 167.49L652.783 168.809C653.123 168.334 653.536 167.968 654.022 167.71C654.509 167.446 655.048 167.314 655.64 167.314C656.12 167.314 656.56 167.385 656.958 167.525C657.356 167.666 657.699 167.892 657.986 168.202C658.279 168.507 658.505 168.902 658.663 169.389C658.827 169.869 658.909 170.455 658.909 171.146V177H656.466V171.182C656.466 170.807 656.422 170.499 656.334 170.259C656.252 170.013 656.132 169.819 655.974 169.679C655.815 169.538 655.625 169.441 655.402 169.389C655.18 169.33 654.928 169.301 654.646 169.301C654.23 169.301 653.876 169.386 653.583 169.556C653.29 169.72 653.053 169.948 652.871 170.241V177H650.419V167.49H652.634ZM680.609 172.342C680.609 173.051 680.53 173.701 680.372 174.293C680.22 174.885 679.988 175.395 679.678 175.822C679.367 176.25 678.98 176.584 678.518 176.824C678.055 177.059 677.516 177.176 676.9 177.176C676.344 177.176 675.86 177.073 675.45 176.868C675.046 176.657 674.697 176.364 674.404 175.989L674.29 177H672.093V163.5H674.536V168.352C674.817 168.023 675.148 167.769 675.529 167.587C675.916 167.405 676.367 167.314 676.883 167.314C677.504 167.314 678.046 167.435 678.509 167.675C678.978 167.915 679.367 168.249 679.678 168.677C679.988 169.104 680.22 169.617 680.372 170.215C680.53 170.807 680.609 171.454 680.609 172.157V172.342ZM678.166 172.157C678.166 171.771 678.137 171.404 678.078 171.059C678.02 170.713 677.917 170.411 677.771 170.153C677.63 169.89 677.437 169.682 677.19 169.529C676.944 169.377 676.637 169.301 676.268 169.301C675.822 169.301 675.459 169.395 675.178 169.582C674.902 169.77 674.688 170.027 674.536 170.355V174.144C674.688 174.472 674.902 174.729 675.178 174.917C675.459 175.104 675.828 175.198 676.285 175.198C676.654 175.198 676.959 175.128 677.199 174.987C677.439 174.841 677.63 174.642 677.771 174.39C677.917 174.132 678.02 173.83 678.078 173.484C678.137 173.133 678.166 172.752 678.166 172.342V172.157ZM687.465 177.176C686.732 177.176 686.067 177.056 685.47 176.815C684.872 176.575 684.359 176.25 683.932 175.84C683.504 175.424 683.173 174.938 682.938 174.381C682.71 173.818 682.596 173.218 682.596 172.579V172.228C682.596 171.501 682.71 170.839 682.938 170.241C683.167 169.638 683.486 169.119 683.896 168.686C684.307 168.252 684.793 167.915 685.355 167.675C685.918 167.435 686.53 167.314 687.192 167.314C687.878 167.314 688.487 167.429 689.021 167.657C689.56 167.88 690.014 168.196 690.383 168.606C690.758 169.017 691.042 169.512 691.235 170.092C691.429 170.666 691.525 171.302 691.525 171.999V173.036H685.074C685.121 173.358 685.215 173.654 685.355 173.924C685.502 174.188 685.687 174.416 685.909 174.609C686.132 174.803 686.387 174.952 686.674 175.058C686.961 175.163 687.274 175.216 687.614 175.216C687.854 175.216 688.092 175.192 688.326 175.146C688.566 175.099 688.795 175.031 689.012 174.943C689.229 174.85 689.431 174.735 689.618 174.601C689.806 174.466 689.97 174.308 690.11 174.126L691.332 175.444C691.18 175.661 690.98 175.875 690.734 176.086C690.494 176.291 690.207 176.476 689.873 176.64C689.545 176.798 689.179 176.927 688.774 177.026C688.37 177.126 687.934 177.176 687.465 177.176ZM687.175 169.292C686.899 169.292 686.647 169.342 686.419 169.441C686.19 169.535 685.988 169.673 685.812 169.854C685.643 170.036 685.499 170.253 685.382 170.505C685.265 170.757 685.177 171.038 685.118 171.349H689.126V171.155C689.114 170.897 689.064 170.654 688.977 170.426C688.889 170.197 688.763 170.001 688.599 169.837C688.435 169.667 688.232 169.535 687.992 169.441C687.758 169.342 687.485 169.292 687.175 169.292ZM694.171 163.5H699.488V175.014H702.213V177H694.171V175.014H697.019V165.495H694.171V163.5ZM704.138 172.157C704.138 171.466 704.237 170.827 704.437 170.241C704.636 169.649 704.926 169.137 705.307 168.703C705.693 168.27 706.162 167.93 706.713 167.684C707.27 167.438 707.905 167.314 708.62 167.314C709.335 167.314 709.971 167.438 710.527 167.684C711.084 167.93 711.553 168.27 711.934 168.703C712.32 169.137 712.613 169.649 712.812 170.241C713.012 170.827 713.111 171.466 713.111 172.157V172.342C713.111 173.039 713.012 173.684 712.812 174.275C712.613 174.861 712.323 175.371 711.942 175.805C711.562 176.238 711.093 176.578 710.536 176.824C709.979 177.064 709.347 177.185 708.638 177.185C707.923 177.185 707.284 177.064 706.722 176.824C706.165 176.578 705.693 176.238 705.307 175.805C704.926 175.371 704.636 174.861 704.437 174.275C704.237 173.684 704.138 173.039 704.138 172.342V172.157ZM706.581 172.342C706.581 172.74 706.619 173.115 706.695 173.467C706.771 173.812 706.892 174.117 707.056 174.381C707.22 174.639 707.431 174.844 707.688 174.996C707.952 175.148 708.269 175.225 708.638 175.225C708.995 175.225 709.303 175.148 709.561 174.996C709.818 174.844 710.026 174.639 710.185 174.381C710.349 174.117 710.469 173.812 710.545 173.467C710.621 173.115 710.659 172.74 710.659 172.342V172.157C710.659 171.771 710.621 171.404 710.545 171.059C710.469 170.713 710.349 170.408 710.185 170.145C710.026 169.881 709.818 169.673 709.561 169.521C709.303 169.368 708.989 169.292 708.62 169.292C708.257 169.292 707.946 169.368 707.688 169.521C707.431 169.673 707.22 169.881 707.056 170.145C706.892 170.408 706.771 170.713 706.695 171.059C706.619 171.404 706.581 171.771 706.581 172.157V172.342ZM721.364 174.021L722.19 167.49H724.432L722.727 177H720.582L719.334 170.953L718.13 177H715.985L714.28 167.49H716.513L717.339 174.047L718.534 167.49H720.169L721.364 174.021Z" fill="#252525"/>
</svg>
