<svg width="1800" height="1080" viewBox="0 0 1800 1080" fill="none" xmlns="http://www.w3.org/2000/svg">
<rect width="1800" height="1080" fill="#F7F7F7"/>
<rect x="359" width="2" height="1080" fill="#0066FF"/>
<rect y="359" width="1800" height="2" fill="#0066FF"/>
<rect y="719" width="1800" height="2" fill="#0066FF"/>
<rect opacity="0.5" y="180" width="1800" height="1" fill="#0066FF"/>
<rect opacity="0.5" y="540" width="1800" height="1" fill="#0066FF"/>
<rect opacity="0.5" y="900" width="1800" height="1" fill="#0066FF"/>
<rect x="719" width="2" height="1080" fill="#0066FF"/>
<rect opacity="0.5" x="180" width="1" height="1080" fill="#0066FF"/>
<rect opacity="0.5" x="540" width="1" height="1080" fill="#0066FF"/>
<rect opacity="0.5" x="900" width="1" height="1080" fill="#0066FF"/>
<rect opacity="0.5" x="1260" width="1" height="1080" fill="#0066FF"/>
<rect opacity="0.5" x="1620" width="1" height="1080" fill="#0066FF"/>
<rect x="1079" width="2" height="1080" fill="#0066FF"/>
<rect x="1439" width="2" height="1080" fill="#0066FF"/>
<rect x="452" y="92" width="176" height="176" rx="28" fill="#F7F7F7" stroke="#222222" stroke-width="4"/>
<path d="M503.262 187V174.203H506.575C507.425 174.203 508.192 174.35 508.878 174.643C509.569 174.93 510.158 175.334 510.645 175.855C511.137 176.371 511.515 176.989 511.778 177.71C512.048 178.431 512.183 179.222 512.183 180.083V181.138C512.183 181.999 512.048 182.79 511.778 183.511C511.515 184.226 511.143 184.844 510.662 185.365C510.182 185.881 509.604 186.282 508.931 186.569C508.257 186.856 507.513 187 506.698 187H503.262ZM505.749 176.207V185.014H506.698C507.161 185.014 507.574 184.926 507.938 184.75C508.307 184.574 508.617 184.319 508.869 183.985C509.127 183.651 509.323 183.247 509.458 182.772C509.593 182.292 509.66 181.747 509.66 181.138V180.065C509.66 179.491 509.593 178.97 509.458 178.501C509.329 178.026 509.133 177.619 508.869 177.279C508.611 176.939 508.289 176.676 507.902 176.488C507.521 176.301 507.079 176.207 506.575 176.207H505.749ZM518.827 187.176C518.095 187.176 517.43 187.056 516.832 186.815C516.234 186.575 515.722 186.25 515.294 185.84C514.866 185.424 514.535 184.938 514.301 184.381C514.072 183.818 513.958 183.218 513.958 182.579V182.228C513.958 181.501 514.072 180.839 514.301 180.241C514.529 179.638 514.849 179.119 515.259 178.686C515.669 178.252 516.155 177.915 516.718 177.675C517.28 177.435 517.893 177.314 518.555 177.314C519.24 177.314 519.85 177.429 520.383 177.657C520.922 177.88 521.376 178.196 521.745 178.606C522.12 179.017 522.404 179.512 522.598 180.092C522.791 180.666 522.888 181.302 522.888 181.999V183.036H516.437C516.483 183.358 516.577 183.654 516.718 183.924C516.864 184.188 517.049 184.416 517.271 184.609C517.494 184.803 517.749 184.952 518.036 185.058C518.323 185.163 518.637 185.216 518.977 185.216C519.217 185.216 519.454 185.192 519.688 185.146C519.929 185.099 520.157 185.031 520.374 184.943C520.591 184.85 520.793 184.735 520.98 184.601C521.168 184.466 521.332 184.308 521.473 184.126L522.694 185.444C522.542 185.661 522.343 185.875 522.097 186.086C521.856 186.291 521.569 186.476 521.235 186.64C520.907 186.798 520.541 186.927 520.137 187.026C519.732 187.126 519.296 187.176 518.827 187.176ZM518.537 179.292C518.262 179.292 518.01 179.342 517.781 179.441C517.553 179.535 517.351 179.673 517.175 179.854C517.005 180.036 516.861 180.253 516.744 180.505C516.627 180.757 516.539 181.038 516.48 181.349H520.488V181.155C520.477 180.897 520.427 180.654 520.339 180.426C520.251 180.197 520.125 180.001 519.961 179.837C519.797 179.667 519.595 179.535 519.354 179.441C519.12 179.342 518.848 179.292 518.537 179.292ZM527.388 187V179.292H524.892V177.49H527.388V176.972C527.388 176.345 527.487 175.791 527.687 175.311C527.886 174.83 528.17 174.426 528.539 174.098C528.908 173.77 529.356 173.523 529.884 173.359C530.411 173.189 531 173.104 531.65 173.104C531.855 173.104 532.052 173.113 532.239 173.131C532.433 173.143 532.62 173.16 532.802 173.184C532.983 173.207 533.165 173.233 533.347 173.263C533.534 173.292 533.728 173.324 533.927 173.359L533.769 175.275C533.546 175.229 533.294 175.188 533.013 175.152C532.731 175.117 532.4 175.1 532.02 175.1C531.258 175.1 530.704 175.261 530.358 175.583C530.013 175.905 529.84 176.368 529.84 176.972V177.49H533.268V179.292H529.84V187H527.388ZM541.775 187C541.717 186.883 541.667 186.748 541.626 186.596C541.585 186.443 541.55 186.282 541.521 186.112C541.386 186.259 541.23 186.396 541.055 186.525C540.879 186.654 540.683 186.769 540.466 186.868C540.255 186.962 540.021 187.035 539.763 187.088C539.505 187.146 539.227 187.176 538.928 187.176C538.441 187.176 537.993 187.105 537.583 186.965C537.179 186.824 536.83 186.628 536.537 186.376C536.244 186.124 536.016 185.825 535.852 185.479C535.688 185.128 535.605 184.747 535.605 184.337C535.605 183.335 535.978 182.562 536.722 182.017C537.472 181.466 538.588 181.19 540.07 181.19H541.433V180.628C541.433 180.171 541.283 179.811 540.984 179.547C540.686 179.277 540.255 179.143 539.692 179.143C539.194 179.143 538.831 179.251 538.603 179.468C538.374 179.679 538.26 179.963 538.26 180.32H535.816C535.816 179.916 535.904 179.532 536.08 179.169C536.262 178.806 536.522 178.486 536.862 178.211C537.208 177.936 537.627 177.719 538.119 177.561C538.617 177.396 539.186 177.314 539.824 177.314C540.398 177.314 540.932 177.385 541.424 177.525C541.922 177.666 542.353 177.874 542.716 178.149C543.079 178.425 543.363 178.773 543.568 179.195C543.773 179.611 543.876 180.095 543.876 180.646V184.724C543.876 185.233 543.908 185.655 543.973 185.989C544.037 186.323 544.131 186.61 544.254 186.851V187H541.775ZM539.446 185.286C539.692 185.286 539.921 185.257 540.132 185.198C540.343 185.14 540.533 185.063 540.703 184.97C540.873 184.876 541.02 184.771 541.143 184.653C541.266 184.53 541.362 184.407 541.433 184.284V182.649H540.185C539.804 182.649 539.479 182.688 539.209 182.764C538.939 182.834 538.72 182.937 538.55 183.071C538.38 183.2 538.254 183.358 538.172 183.546C538.09 183.728 538.049 183.927 538.049 184.144C538.049 184.472 538.163 184.744 538.392 184.961C538.626 185.178 538.978 185.286 539.446 185.286ZM552.709 185.664C552.387 186.139 551.997 186.511 551.54 186.78C551.089 187.05 550.594 187.185 550.055 187.185C549.562 187.185 549.111 187.108 548.701 186.956C548.291 186.804 547.939 186.563 547.646 186.235C547.354 185.901 547.125 185.479 546.961 184.97C546.803 184.454 546.724 183.836 546.724 183.115V177.49H549.167V183.133C549.167 183.52 549.193 183.845 549.246 184.108C549.305 184.372 549.396 184.586 549.519 184.75C549.642 184.908 549.803 185.022 550.002 185.093C550.201 185.163 550.444 185.198 550.731 185.198C551.218 185.198 551.613 185.107 551.918 184.926C552.223 184.738 552.454 184.483 552.612 184.161V177.49H555.064V187H552.85L552.709 185.664ZM557.965 173.5H563.282V185.014H566.007V187H557.965V185.014H560.812V175.495H557.965V173.5ZM572.748 175.161V177.49H576.299V179.292H572.748V183.379C572.748 183.725 572.786 184.015 572.862 184.249C572.944 184.478 573.059 184.662 573.205 184.803C573.352 184.938 573.527 185.034 573.732 185.093C573.943 185.151 574.178 185.181 574.436 185.181C574.623 185.181 574.813 185.172 575.007 185.154C575.206 185.137 575.394 185.116 575.569 185.093C575.751 185.063 575.918 185.034 576.07 185.005C576.229 184.976 576.363 184.946 576.475 184.917L576.712 186.596C576.542 186.695 576.343 186.783 576.114 186.859C575.886 186.93 575.643 186.988 575.385 187.035C575.127 187.082 574.857 187.117 574.576 187.141C574.301 187.17 574.028 187.185 573.759 187.185C573.237 187.185 572.763 187.117 572.335 186.982C571.913 186.842 571.55 186.628 571.245 186.341C570.946 186.048 570.715 185.679 570.551 185.233C570.387 184.782 570.305 184.243 570.305 183.616V179.292H568.134V177.49H570.305V175.161H572.748Z" fill="#222222"/>
<rect x="90" y="450" width="180" height="180" rx="30" fill="#222222"/>
<path d="M160.77 543.66C160.77 543.432 160.729 543.218 160.646 543.019C160.57 542.819 160.436 542.635 160.242 542.465C160.055 542.289 159.806 542.131 159.495 541.99C159.19 541.844 158.81 541.709 158.353 541.586C157.796 541.434 157.263 541.243 156.753 541.015C156.249 540.786 155.804 540.511 155.417 540.188C155.03 539.866 154.72 539.491 154.485 539.063C154.257 538.636 154.143 538.144 154.143 537.587C154.143 537.048 154.257 536.559 154.485 536.119C154.714 535.68 155.03 535.305 155.435 534.994C155.839 534.684 156.316 534.446 156.867 534.282C157.418 534.112 158.016 534.027 158.66 534.027C159.328 534.027 159.938 534.124 160.488 534.317C161.045 534.511 161.522 534.783 161.921 535.135C162.319 535.48 162.63 535.894 162.853 536.374C163.075 536.854 163.187 537.382 163.187 537.956H160.778C160.767 537.669 160.714 537.405 160.62 537.165C160.532 536.925 160.397 536.72 160.216 536.55C160.04 536.374 159.817 536.239 159.548 536.146C159.284 536.046 158.974 535.996 158.616 535.996C158.288 535.996 157.995 536.037 157.737 536.119C157.485 536.195 157.271 536.307 157.096 536.453C156.92 536.594 156.785 536.764 156.691 536.963C156.604 537.156 156.56 537.367 156.56 537.596C156.56 537.836 156.618 538.053 156.735 538.246C156.858 538.439 157.034 538.615 157.263 538.773C157.491 538.926 157.767 539.066 158.089 539.195C158.417 539.324 158.786 539.444 159.196 539.556C159.782 539.726 160.321 539.934 160.813 540.18C161.306 540.426 161.728 540.719 162.079 541.059C162.437 541.393 162.712 541.776 162.905 542.21C163.104 542.638 163.204 543.115 163.204 543.643C163.204 544.205 163.09 544.706 162.861 545.146C162.639 545.579 162.328 545.948 161.93 546.253C161.531 546.552 161.057 546.78 160.506 546.938C159.955 547.091 159.354 547.167 158.704 547.167C158.3 547.167 157.896 547.129 157.491 547.053C157.093 546.982 156.709 546.871 156.34 546.719C155.977 546.566 155.637 546.376 155.32 546.147C155.004 545.919 154.729 545.652 154.494 545.348C154.266 545.043 154.084 544.697 153.949 544.311C153.82 543.924 153.756 543.496 153.756 543.027H156.182C156.193 543.414 156.261 543.745 156.384 544.021C156.507 544.296 156.677 544.521 156.894 544.697C157.116 544.873 157.38 545.002 157.685 545.084C157.995 545.166 158.335 545.207 158.704 545.207C159.032 545.207 159.322 545.169 159.574 545.093C159.832 545.017 160.049 544.911 160.225 544.776C160.4 544.642 160.535 544.48 160.629 544.293C160.723 544.1 160.77 543.889 160.77 543.66ZM164.689 542.157C164.689 541.466 164.789 540.827 164.988 540.241C165.188 539.649 165.478 539.137 165.858 538.703C166.245 538.27 166.714 537.93 167.265 537.684C167.821 537.438 168.457 537.314 169.172 537.314C169.887 537.314 170.522 537.438 171.079 537.684C171.636 537.93 172.104 538.27 172.485 538.703C172.872 539.137 173.165 539.649 173.364 540.241C173.563 540.827 173.663 541.466 173.663 542.157V542.342C173.663 543.039 173.563 543.684 173.364 544.275C173.165 544.861 172.875 545.371 172.494 545.805C172.113 546.238 171.645 546.578 171.088 546.824C170.531 547.064 169.898 547.185 169.189 547.185C168.475 547.185 167.836 547.064 167.273 546.824C166.717 546.578 166.245 546.238 165.858 545.805C165.478 545.371 165.188 544.861 164.988 544.275C164.789 543.684 164.689 543.039 164.689 542.342V542.157ZM167.133 542.342C167.133 542.74 167.171 543.115 167.247 543.467C167.323 543.812 167.443 544.117 167.607 544.381C167.771 544.639 167.982 544.844 168.24 544.996C168.504 545.148 168.82 545.225 169.189 545.225C169.547 545.225 169.854 545.148 170.112 544.996C170.37 544.844 170.578 544.639 170.736 544.381C170.9 544.117 171.021 543.812 171.097 543.467C171.173 543.115 171.211 542.74 171.211 542.342V542.157C171.211 541.771 171.173 541.404 171.097 541.059C171.021 540.713 170.9 540.408 170.736 540.145C170.578 539.881 170.37 539.673 170.112 539.521C169.854 539.368 169.541 539.292 169.172 539.292C168.809 539.292 168.498 539.368 168.24 539.521C167.982 539.673 167.771 539.881 167.607 540.145C167.443 540.408 167.323 540.713 167.247 541.059C167.171 541.404 167.133 541.771 167.133 542.157V542.342ZM176.344 533.5H181.661V545.014H184.386V547H176.344V545.014H179.191V535.495H176.344V533.5ZM187.295 537.49H192.472V545.014H195.047V547H187.295V545.014H190.002V539.485H187.295V537.49ZM189.826 535.056C189.826 534.868 189.858 534.695 189.923 534.537C189.993 534.373 190.09 534.235 190.213 534.124C190.336 534.007 190.482 533.916 190.652 533.852C190.828 533.787 191.021 533.755 191.232 533.755C191.666 533.755 192.009 533.878 192.261 534.124C192.519 534.364 192.647 534.675 192.647 535.056C192.647 535.437 192.519 535.75 192.261 535.996C192.009 536.236 191.666 536.356 191.232 536.356C191.021 536.356 190.828 536.324 190.652 536.26C190.482 536.195 190.336 536.107 190.213 535.996C190.09 535.879 189.993 535.741 189.923 535.583C189.858 535.419 189.826 535.243 189.826 535.056ZM197.2 542.175C197.2 541.454 197.282 540.795 197.446 540.197C197.616 539.6 197.862 539.087 198.185 538.659C198.507 538.231 198.896 537.9 199.354 537.666C199.816 537.432 200.344 537.314 200.936 537.314C201.434 537.314 201.87 537.405 202.245 537.587C202.626 537.763 202.963 538.015 203.256 538.343V533.5H205.708V547H203.502L203.379 546.007C203.08 546.376 202.729 546.663 202.324 546.868C201.92 547.073 201.451 547.176 200.918 547.176C200.338 547.176 199.816 547.056 199.354 546.815C198.896 546.569 198.507 546.232 198.185 545.805C197.868 545.377 197.625 544.87 197.455 544.284C197.285 543.692 197.2 543.051 197.2 542.359V542.175ZM199.644 542.359C199.644 542.758 199.676 543.13 199.74 543.476C199.811 543.815 199.922 544.114 200.074 544.372C200.227 544.624 200.423 544.823 200.663 544.97C200.903 545.116 201.196 545.189 201.542 545.189C201.964 545.189 202.312 545.099 202.588 544.917C202.869 544.735 203.092 544.486 203.256 544.17V540.32C203.092 539.998 202.872 539.749 202.597 539.573C202.321 539.392 201.976 539.301 201.56 539.301C201.214 539.301 200.918 539.377 200.672 539.529C200.432 539.676 200.235 539.881 200.083 540.145C199.931 540.402 199.819 540.707 199.749 541.059C199.679 541.404 199.644 541.776 199.644 542.175V542.359Z" fill="white"/>
<rect x="454" y="814" width="172" height="172" rx="26" fill="#F7F7F7" stroke="#222222" stroke-width="8"/>
<path d="M505.784 901.393H500.528V905.005H506.672V907H498.05V894.203H506.646V896.216H500.528V899.441H505.784V901.393ZM510.328 897.49L510.398 898.642C510.58 898.231 510.829 897.909 511.146 897.675C511.468 897.435 511.857 897.314 512.314 897.314C513.082 897.314 513.583 897.651 513.817 898.325C514.005 898.009 514.242 897.763 514.529 897.587C514.822 897.405 515.174 897.314 515.584 897.314C515.871 897.314 516.138 897.367 516.384 897.473C516.636 897.578 516.853 897.748 517.034 897.982C517.222 898.211 517.365 898.51 517.465 898.879C517.57 899.242 517.623 899.688 517.623 900.215V907H515.399V900.206C515.399 900.024 515.379 899.875 515.338 899.758C515.303 899.641 515.253 899.55 515.188 899.485C515.124 899.415 515.048 899.368 514.96 899.345C514.878 899.315 514.793 899.301 514.705 899.301C514.535 899.301 514.392 899.342 514.274 899.424C514.157 899.5 514.066 899.605 514.002 899.74V907H511.849V900.197C511.849 900.016 511.831 899.866 511.796 899.749C511.761 899.632 511.711 899.541 511.646 899.477C511.588 899.412 511.518 899.368 511.436 899.345C511.354 899.315 511.266 899.301 511.172 899.301C510.984 899.301 510.832 899.354 510.715 899.459C510.604 899.564 510.516 899.705 510.451 899.881V907H508.228V897.49H510.328ZM528.161 902.333C528.161 903.024 528.079 903.666 527.915 904.258C527.757 904.85 527.52 905.362 527.203 905.796C526.893 906.224 526.506 906.561 526.043 906.807C525.58 907.053 525.05 907.176 524.452 907.176C523.942 907.176 523.494 907.088 523.107 906.912C522.721 906.736 522.384 906.49 522.097 906.174V910.656H519.653V897.49H521.912L522 898.422C522.293 898.07 522.639 897.798 523.037 897.604C523.436 897.411 523.901 897.314 524.435 897.314C525.038 897.314 525.571 897.432 526.034 897.666C526.497 897.895 526.887 898.223 527.203 898.65C527.52 899.072 527.757 899.582 527.915 900.18C528.079 900.771 528.161 901.428 528.161 902.148V902.333ZM525.718 902.148C525.718 901.75 525.68 901.378 525.604 901.032C525.533 900.681 525.419 900.379 525.261 900.127C525.108 899.869 524.909 899.667 524.663 899.521C524.423 899.374 524.13 899.301 523.784 899.301C523.356 899.301 523.005 899.386 522.729 899.556C522.46 899.72 522.249 899.954 522.097 900.259V904.231C522.249 904.53 522.46 904.771 522.729 904.952C523.005 905.128 523.362 905.216 523.802 905.216C524.147 905.216 524.44 905.14 524.681 904.987C524.927 904.835 525.126 904.627 525.278 904.363C525.431 904.1 525.542 903.795 525.612 903.449C525.683 903.098 525.718 902.726 525.718 902.333V902.148ZM532.872 898.8C533.188 898.337 533.572 897.974 534.023 897.71C534.48 897.446 534.99 897.314 535.553 897.314C536.051 897.314 536.508 897.391 536.924 897.543C537.34 897.689 537.697 897.921 537.996 898.237C538.295 898.554 538.526 898.961 538.69 899.459C538.86 899.951 538.945 900.546 538.945 901.243V907H536.502V901.226C536.502 900.886 536.458 900.593 536.37 900.347C536.288 900.101 536.168 899.901 536.01 899.749C535.852 899.597 535.661 899.485 535.438 899.415C535.216 899.339 534.964 899.301 534.683 899.301C534.272 899.301 533.915 899.374 533.61 899.521C533.312 899.667 533.065 899.872 532.872 900.136V907H530.429V893.5H532.872V898.8ZM547.181 907C547.122 906.883 547.072 906.748 547.031 906.596C546.99 906.443 546.955 906.282 546.926 906.112C546.791 906.259 546.636 906.396 546.46 906.525C546.284 906.654 546.088 906.769 545.871 906.868C545.66 906.962 545.426 907.035 545.168 907.088C544.91 907.146 544.632 907.176 544.333 907.176C543.847 907.176 543.398 907.105 542.988 906.965C542.584 906.824 542.235 906.628 541.942 906.376C541.649 906.124 541.421 905.825 541.257 905.479C541.093 905.128 541.011 904.747 541.011 904.337C541.011 903.335 541.383 902.562 542.127 902.017C542.877 901.466 543.993 901.19 545.476 901.19H546.838V900.628C546.838 900.171 546.688 899.811 546.39 899.547C546.091 899.277 545.66 899.143 545.098 899.143C544.6 899.143 544.236 899.251 544.008 899.468C543.779 899.679 543.665 899.963 543.665 900.32H541.222C541.222 899.916 541.31 899.532 541.485 899.169C541.667 898.806 541.928 898.486 542.268 898.211C542.613 897.936 543.032 897.719 543.524 897.561C544.022 897.396 544.591 897.314 545.229 897.314C545.804 897.314 546.337 897.385 546.829 897.525C547.327 897.666 547.758 897.874 548.121 898.149C548.484 898.425 548.769 898.773 548.974 899.195C549.179 899.611 549.281 900.095 549.281 900.646V904.724C549.281 905.233 549.313 905.655 549.378 905.989C549.442 906.323 549.536 906.61 549.659 906.851V907H547.181ZM544.852 905.286C545.098 905.286 545.326 905.257 545.537 905.198C545.748 905.14 545.938 905.063 546.108 904.97C546.278 904.876 546.425 904.771 546.548 904.653C546.671 904.53 546.768 904.407 546.838 904.284V902.649H545.59C545.209 902.649 544.884 902.688 544.614 902.764C544.345 902.834 544.125 902.937 543.955 903.071C543.785 903.2 543.659 903.358 543.577 903.546C543.495 903.728 543.454 903.927 543.454 904.144C543.454 904.472 543.568 904.744 543.797 904.961C544.031 905.178 544.383 905.286 544.852 905.286ZM558.185 904.39C558.185 904.243 558.149 904.114 558.079 904.003C558.015 903.892 557.895 903.789 557.719 903.695C557.549 903.596 557.32 903.505 557.033 903.423C556.746 903.341 556.383 903.259 555.943 903.177C555.387 903.065 554.877 902.928 554.414 902.764C553.957 902.594 553.564 902.392 553.236 902.157C552.908 901.917 552.65 901.642 552.463 901.331C552.281 901.021 552.19 900.663 552.19 900.259C552.19 899.866 552.284 899.491 552.472 899.134C552.659 898.776 552.929 898.463 553.28 898.193C553.632 897.924 554.06 897.71 554.563 897.552C555.067 897.394 555.636 897.314 556.269 897.314C556.931 897.314 557.525 897.394 558.053 897.552C558.58 897.704 559.025 897.918 559.389 898.193C559.758 898.463 560.039 898.785 560.232 899.16C560.426 899.535 560.522 899.942 560.522 900.382H558.079C558.079 900.013 557.93 899.705 557.631 899.459C557.332 899.207 556.878 899.081 556.269 899.081C555.7 899.081 555.27 899.184 554.977 899.389C554.689 899.594 554.546 899.846 554.546 900.145C554.546 900.285 554.575 900.417 554.634 900.54C554.692 900.657 554.795 900.766 554.941 900.865C555.094 900.959 555.299 901.047 555.557 901.129C555.814 901.205 556.143 901.272 556.541 901.331C557.115 901.425 557.648 901.545 558.141 901.691C558.633 901.838 559.058 902.028 559.415 902.263C559.772 902.491 560.051 902.772 560.25 903.106C560.455 903.435 560.558 903.827 560.558 904.284C560.558 904.706 560.455 905.096 560.25 905.453C560.051 905.805 559.764 906.109 559.389 906.367C559.02 906.625 558.571 906.827 558.044 906.974C557.517 907.114 556.928 907.185 556.277 907.185C555.562 907.185 554.93 907.091 554.379 906.903C553.834 906.716 553.377 906.473 553.008 906.174C552.639 905.869 552.357 905.526 552.164 905.146C551.977 904.759 551.883 904.372 551.883 903.985H554.212C554.229 904.243 554.3 904.466 554.423 904.653C554.546 904.835 554.704 904.984 554.897 905.102C555.091 905.213 555.311 905.295 555.557 905.348C555.809 905.4 556.066 905.427 556.33 905.427C556.934 905.427 557.394 905.33 557.71 905.137C558.026 904.943 558.185 904.694 558.185 904.39ZM563.511 897.49H568.688V905.014H571.263V907H563.511V905.014H566.218V899.485H563.511V897.49ZM566.042 895.056C566.042 894.868 566.074 894.695 566.139 894.537C566.209 894.373 566.306 894.235 566.429 894.124C566.552 894.007 566.698 893.916 566.868 893.852C567.044 893.787 567.237 893.755 567.448 893.755C567.882 893.755 568.225 893.878 568.477 894.124C568.734 894.364 568.863 894.675 568.863 895.056C568.863 895.437 568.734 895.75 568.477 895.996C568.225 896.236 567.882 896.356 567.448 896.356C567.237 896.356 567.044 896.324 566.868 896.26C566.698 896.195 566.552 896.107 566.429 895.996C566.306 895.879 566.209 895.741 566.139 895.583C566.074 895.419 566.042 895.243 566.042 895.056ZM579.806 904.39C579.806 904.243 579.771 904.114 579.7 904.003C579.636 903.892 579.516 903.789 579.34 903.695C579.17 903.596 578.941 903.505 578.654 903.423C578.367 903.341 578.004 903.259 577.564 903.177C577.008 903.065 576.498 902.928 576.035 902.764C575.578 902.594 575.186 902.392 574.857 902.157C574.529 901.917 574.271 901.642 574.084 901.331C573.902 901.021 573.812 900.663 573.812 900.259C573.812 899.866 573.905 899.491 574.093 899.134C574.28 898.776 574.55 898.463 574.901 898.193C575.253 897.924 575.681 897.71 576.185 897.552C576.688 897.394 577.257 897.314 577.89 897.314C578.552 897.314 579.146 897.394 579.674 897.552C580.201 897.704 580.646 897.918 581.01 898.193C581.379 898.463 581.66 898.785 581.854 899.16C582.047 899.535 582.144 899.942 582.144 900.382H579.7C579.7 900.013 579.551 899.705 579.252 899.459C578.953 899.207 578.499 899.081 577.89 899.081C577.321 899.081 576.891 899.184 576.598 899.389C576.311 899.594 576.167 899.846 576.167 900.145C576.167 900.285 576.196 900.417 576.255 900.54C576.313 900.657 576.416 900.766 576.562 900.865C576.715 900.959 576.92 901.047 577.178 901.129C577.436 901.205 577.764 901.272 578.162 901.331C578.736 901.425 579.27 901.545 579.762 901.691C580.254 901.838 580.679 902.028 581.036 902.263C581.394 902.491 581.672 902.772 581.871 903.106C582.076 903.435 582.179 903.827 582.179 904.284C582.179 904.706 582.076 905.096 581.871 905.453C581.672 905.805 581.385 906.109 581.01 906.367C580.641 906.625 580.192 906.827 579.665 906.974C579.138 907.114 578.549 907.185 577.898 907.185C577.184 907.185 576.551 907.091 576 906.903C575.455 906.716 574.998 906.473 574.629 906.174C574.26 905.869 573.979 905.526 573.785 905.146C573.598 904.759 573.504 904.372 573.504 903.985H575.833C575.851 904.243 575.921 904.466 576.044 904.653C576.167 904.835 576.325 904.984 576.519 905.102C576.712 905.213 576.932 905.295 577.178 905.348C577.43 905.4 577.688 905.427 577.951 905.427C578.555 905.427 579.015 905.33 579.331 905.137C579.647 904.943 579.806 904.694 579.806 904.39Z" fill="#222222"/>
<line x1="1620" y1="362" x2="1620" y2="718" stroke="#222222" stroke-width="4" stroke-linecap="round" stroke-linejoin="round"/>
<path fill-rule="evenodd" clip-rule="evenodd" d="M1609.82 715.029C1609.02 713.696 1609.98 712 1611.53 712H1628.47C1630.02 712 1630.98 713.696 1630.18 715.029L1621.71 729.142C1620.94 730.436 1619.06 730.436 1618.29 729.142L1609.82 715.029Z" fill="#222222"/>
<path fill-rule="evenodd" clip-rule="evenodd" d="M1612 360C1612 364.418 1615.58 368 1620 368C1624.42 368 1628 364.418 1628 360C1628 355.582 1624.42 352 1620 352C1615.58 352 1612 355.582 1612 360Z" fill="#222222"/>
<rect x="1532" y="92" width="176" height="176" rx="28" fill="#F7F7F7" stroke="#222222" stroke-width="4"/>
<path d="M1583.26 187V174.203H1586.58C1587.42 174.203 1588.19 174.35 1588.88 174.643C1589.57 174.93 1590.16 175.334 1590.64 175.855C1591.14 176.371 1591.51 176.989 1591.78 177.71C1592.05 178.431 1592.18 179.222 1592.18 180.083V181.138C1592.18 181.999 1592.05 182.79 1591.78 183.511C1591.51 184.226 1591.14 184.844 1590.66 185.365C1590.18 185.881 1589.6 186.282 1588.93 186.569C1588.26 186.856 1587.51 187 1586.7 187H1583.26ZM1585.75 176.207V185.014H1586.7C1587.16 185.014 1587.57 184.926 1587.94 184.75C1588.31 184.574 1588.62 184.319 1588.87 183.985C1589.13 183.651 1589.32 183.247 1589.46 182.772C1589.59 182.292 1589.66 181.747 1589.66 181.138V180.065C1589.66 179.491 1589.59 178.97 1589.46 178.501C1589.33 178.026 1589.13 177.619 1588.87 177.279C1588.61 176.939 1588.29 176.676 1587.9 176.488C1587.52 176.301 1587.08 176.207 1586.58 176.207H1585.75ZM1598.83 187.176C1598.09 187.176 1597.43 187.056 1596.83 186.815C1596.23 186.575 1595.72 186.25 1595.29 185.84C1594.87 185.424 1594.54 184.938 1594.3 184.381C1594.07 183.818 1593.96 183.218 1593.96 182.579V182.228C1593.96 181.501 1594.07 180.839 1594.3 180.241C1594.53 179.638 1594.85 179.119 1595.26 178.686C1595.67 178.252 1596.16 177.915 1596.72 177.675C1597.28 177.435 1597.89 177.314 1598.55 177.314C1599.24 177.314 1599.85 177.429 1600.38 177.657C1600.92 177.88 1601.38 178.196 1601.75 178.606C1602.12 179.017 1602.4 179.512 1602.6 180.092C1602.79 180.666 1602.89 181.302 1602.89 181.999V183.036H1596.44C1596.48 183.358 1596.58 183.654 1596.72 183.924C1596.86 184.188 1597.05 184.416 1597.27 184.609C1597.49 184.803 1597.75 184.952 1598.04 185.058C1598.32 185.163 1598.64 185.216 1598.98 185.216C1599.22 185.216 1599.45 185.192 1599.69 185.146C1599.93 185.099 1600.16 185.031 1600.37 184.943C1600.59 184.85 1600.79 184.735 1600.98 184.601C1601.17 184.466 1601.33 184.308 1601.47 184.126L1602.69 185.444C1602.54 185.661 1602.34 185.875 1602.1 186.086C1601.86 186.291 1601.57 186.476 1601.24 186.64C1600.91 186.798 1600.54 186.927 1600.14 187.026C1599.73 187.126 1599.3 187.176 1598.83 187.176ZM1598.54 179.292C1598.26 179.292 1598.01 179.342 1597.78 179.441C1597.55 179.535 1597.35 179.673 1597.17 179.854C1597 180.036 1596.86 180.253 1596.74 180.505C1596.63 180.757 1596.54 181.038 1596.48 181.349H1600.49V181.155C1600.48 180.897 1600.43 180.654 1600.34 180.426C1600.25 180.197 1600.12 180.001 1599.96 179.837C1599.8 179.667 1599.59 179.535 1599.35 179.441C1599.12 179.342 1598.85 179.292 1598.54 179.292ZM1607.39 187V179.292H1604.89V177.49H1607.39V176.972C1607.39 176.345 1607.49 175.791 1607.69 175.311C1607.89 174.83 1608.17 174.426 1608.54 174.098C1608.91 173.77 1609.36 173.523 1609.88 173.359C1610.41 173.189 1611 173.104 1611.65 173.104C1611.86 173.104 1612.05 173.113 1612.24 173.131C1612.43 173.143 1612.62 173.16 1612.8 173.184C1612.98 173.207 1613.17 173.233 1613.35 173.263C1613.53 173.292 1613.73 173.324 1613.93 173.359L1613.77 175.275C1613.55 175.229 1613.29 175.188 1613.01 175.152C1612.73 175.117 1612.4 175.1 1612.02 175.1C1611.26 175.1 1610.7 175.261 1610.36 175.583C1610.01 175.905 1609.84 176.368 1609.84 176.972V177.49H1613.27V179.292H1609.84V187H1607.39ZM1621.78 187C1621.72 186.883 1621.67 186.748 1621.63 186.596C1621.58 186.443 1621.55 186.282 1621.52 186.112C1621.39 186.259 1621.23 186.396 1621.05 186.525C1620.88 186.654 1620.68 186.769 1620.47 186.868C1620.25 186.962 1620.02 187.035 1619.76 187.088C1619.5 187.146 1619.23 187.176 1618.93 187.176C1618.44 187.176 1617.99 187.105 1617.58 186.965C1617.18 186.824 1616.83 186.628 1616.54 186.376C1616.24 186.124 1616.02 185.825 1615.85 185.479C1615.69 185.128 1615.61 184.747 1615.61 184.337C1615.61 183.335 1615.98 182.562 1616.72 182.017C1617.47 181.466 1618.59 181.19 1620.07 181.19H1621.43V180.628C1621.43 180.171 1621.28 179.811 1620.98 179.547C1620.69 179.277 1620.25 179.143 1619.69 179.143C1619.19 179.143 1618.83 179.251 1618.6 179.468C1618.37 179.679 1618.26 179.963 1618.26 180.32H1615.82C1615.82 179.916 1615.9 179.532 1616.08 179.169C1616.26 178.806 1616.52 178.486 1616.86 178.211C1617.21 177.936 1617.63 177.719 1618.12 177.561C1618.62 177.396 1619.19 177.314 1619.82 177.314C1620.4 177.314 1620.93 177.385 1621.42 177.525C1621.92 177.666 1622.35 177.874 1622.72 178.149C1623.08 178.425 1623.36 178.773 1623.57 179.195C1623.77 179.611 1623.88 180.095 1623.88 180.646V184.724C1623.88 185.233 1623.91 185.655 1623.97 185.989C1624.04 186.323 1624.13 186.61 1624.25 186.851V187H1621.78ZM1619.45 185.286C1619.69 185.286 1619.92 185.257 1620.13 185.198C1620.34 185.14 1620.53 185.063 1620.7 184.97C1620.87 184.876 1621.02 184.771 1621.14 184.653C1621.27 184.53 1621.36 184.407 1621.43 184.284V182.649H1620.18C1619.8 182.649 1619.48 182.688 1619.21 182.764C1618.94 182.834 1618.72 182.937 1618.55 183.071C1618.38 183.2 1618.25 183.358 1618.17 183.546C1618.09 183.728 1618.05 183.927 1618.05 184.144C1618.05 184.472 1618.16 184.744 1618.39 184.961C1618.63 185.178 1618.98 185.286 1619.45 185.286ZM1632.71 185.664C1632.39 186.139 1632 186.511 1631.54 186.78C1631.09 187.05 1630.59 187.185 1630.05 187.185C1629.56 187.185 1629.11 187.108 1628.7 186.956C1628.29 186.804 1627.94 186.563 1627.65 186.235C1627.35 185.901 1627.12 185.479 1626.96 184.97C1626.8 184.454 1626.72 183.836 1626.72 183.115V177.49H1629.17V183.133C1629.17 183.52 1629.19 183.845 1629.25 184.108C1629.3 184.372 1629.4 184.586 1629.52 184.75C1629.64 184.908 1629.8 185.022 1630 185.093C1630.2 185.163 1630.44 185.198 1630.73 185.198C1631.22 185.198 1631.61 185.107 1631.92 184.926C1632.22 184.738 1632.45 184.483 1632.61 184.161V177.49H1635.06V187H1632.85L1632.71 185.664ZM1637.96 173.5H1643.28V185.014H1646.01V187H1637.96V185.014H1640.81V175.495H1637.96V173.5ZM1652.75 175.161V177.49H1656.3V179.292H1652.75V183.379C1652.75 183.725 1652.79 184.015 1652.86 184.249C1652.94 184.478 1653.06 184.662 1653.21 184.803C1653.35 184.938 1653.53 185.034 1653.73 185.093C1653.94 185.151 1654.18 185.181 1654.44 185.181C1654.62 185.181 1654.81 185.172 1655.01 185.154C1655.21 185.137 1655.39 185.116 1655.57 185.093C1655.75 185.063 1655.92 185.034 1656.07 185.005C1656.23 184.976 1656.36 184.946 1656.47 184.917L1656.71 186.596C1656.54 186.695 1656.34 186.783 1656.11 186.859C1655.89 186.93 1655.64 186.988 1655.38 187.035C1655.13 187.082 1654.86 187.117 1654.58 187.141C1654.3 187.17 1654.03 187.185 1653.76 187.185C1653.24 187.185 1652.76 187.117 1652.33 186.982C1651.91 186.842 1651.55 186.628 1651.25 186.341C1650.95 186.048 1650.71 185.679 1650.55 185.233C1650.39 184.782 1650.3 184.243 1650.3 183.616V179.292H1648.13V177.49H1650.3V175.161H1652.75Z" fill="#222222"/>
<rect x="1533" y="813" width="174" height="174" rx="9" fill="#F7F7F7" stroke="#222222" stroke-width="6" stroke-linecap="round" stroke-linejoin="round"/>
<path d="M1530 822C1530 815.373 1535.37 810 1542 810H1698C1704.63 810 1710 815.373 1710 822V830H1530V822Z" fill="#222222"/>
<path fill-rule="evenodd" clip-rule="evenodd" d="M1546 820C1546 821.657 1544.66 823 1543 823C1541.34 823 1540 821.657 1540 820C1540 818.343 1541.34 817 1543 817C1544.66 817 1546 818.343 1546 820ZM1556 820C1556 821.657 1554.66 823 1553 823C1551.34 823 1550 821.657 1550 820C1550 818.343 1551.34 817 1553 817C1554.66 817 1556 818.343 1556 820ZM1566 820C1566 821.657 1564.66 823 1563 823C1561.34 823 1560 821.657 1560 820C1560 818.343 1561.34 817 1563 817C1564.66 817 1566 818.343 1566 820Z" fill="#DFDFE6"/>
<path d="M1583.3 907V894.203H1587.59C1588.29 894.203 1588.92 894.273 1589.49 894.414C1590.07 894.555 1590.56 894.769 1590.96 895.056C1591.37 895.343 1591.68 895.706 1591.89 896.146C1592.12 896.585 1592.23 897.104 1592.23 897.701C1592.22 898.299 1592.06 898.835 1591.74 899.31C1591.43 899.784 1590.97 900.145 1590.36 900.391C1590.73 900.484 1591.05 900.625 1591.32 900.812C1591.59 901 1591.81 901.223 1591.99 901.48C1592.17 901.732 1592.3 902.011 1592.38 902.315C1592.47 902.614 1592.52 902.925 1592.52 903.247C1592.52 903.862 1592.41 904.404 1592.2 904.873C1591.99 905.342 1591.69 905.734 1591.29 906.051C1590.9 906.367 1590.42 906.604 1589.86 906.763C1589.3 906.921 1588.67 907 1587.96 907H1583.3ZM1585.78 901.357V905.005H1587.97C1588.65 904.999 1589.16 904.835 1589.51 904.513C1589.87 904.185 1590.05 903.757 1590.05 903.229C1590.05 902.644 1589.89 902.187 1589.57 901.858C1589.25 901.53 1588.75 901.363 1588.08 901.357H1585.78ZM1585.78 899.573H1587.61C1588.3 899.567 1588.83 899.424 1589.19 899.143C1589.56 898.861 1589.75 898.448 1589.76 897.903C1589.76 897.306 1589.57 896.878 1589.2 896.62C1588.83 896.356 1588.3 896.222 1587.6 896.216H1585.78V899.573ZM1601.04 897.314C1601.41 897.314 1601.75 897.341 1602.06 897.394C1602.38 897.44 1602.63 897.493 1602.83 897.552L1602.47 899.986C1602.14 899.91 1601.81 899.854 1601.47 899.819C1601.14 899.778 1600.82 899.758 1600.51 899.758C1599.83 899.758 1599.28 899.89 1598.86 900.153C1598.45 900.417 1598.14 900.795 1597.94 901.287V907H1595.5V897.49H1597.77L1597.89 899.046C1598.27 898.507 1598.74 898.085 1599.28 897.78C1599.81 897.47 1600.4 897.314 1601.04 897.314ZM1604.69 902.157C1604.69 901.466 1604.79 900.827 1604.99 900.241C1605.19 899.649 1605.48 899.137 1605.86 898.703C1606.25 898.27 1606.71 897.93 1607.26 897.684C1607.82 897.438 1608.46 897.314 1609.17 897.314C1609.89 897.314 1610.52 897.438 1611.08 897.684C1611.64 897.93 1612.1 898.27 1612.49 898.703C1612.87 899.137 1613.17 899.649 1613.36 900.241C1613.56 900.827 1613.66 901.466 1613.66 902.157V902.342C1613.66 903.039 1613.56 903.684 1613.36 904.275C1613.17 904.861 1612.88 905.371 1612.49 905.805C1612.11 906.238 1611.64 906.578 1611.09 906.824C1610.53 907.064 1609.9 907.185 1609.19 907.185C1608.47 907.185 1607.84 907.064 1607.27 906.824C1606.72 906.578 1606.25 906.238 1605.86 905.805C1605.48 905.371 1605.19 904.861 1604.99 904.275C1604.79 903.684 1604.69 903.039 1604.69 902.342V902.157ZM1607.13 902.342C1607.13 902.74 1607.17 903.115 1607.25 903.467C1607.32 903.812 1607.44 904.117 1607.61 904.381C1607.77 904.639 1607.98 904.844 1608.24 904.996C1608.5 905.148 1608.82 905.225 1609.19 905.225C1609.55 905.225 1609.85 905.148 1610.11 904.996C1610.37 904.844 1610.58 904.639 1610.74 904.381C1610.9 904.117 1611.02 903.812 1611.1 903.467C1611.17 903.115 1611.21 902.74 1611.21 902.342V902.157C1611.21 901.771 1611.17 901.404 1611.1 901.059C1611.02 900.713 1610.9 900.408 1610.74 900.145C1610.58 899.881 1610.37 899.673 1610.11 899.521C1609.85 899.368 1609.54 899.292 1609.17 899.292C1608.81 899.292 1608.5 899.368 1608.24 899.521C1607.98 899.673 1607.77 899.881 1607.61 900.145C1607.44 900.408 1607.32 900.713 1607.25 901.059C1607.17 901.404 1607.13 901.771 1607.13 902.157V902.342ZM1621.92 904.021L1622.74 897.49H1624.98L1623.28 907H1621.13L1619.89 900.953L1618.68 907H1616.54L1614.83 897.49H1617.06L1617.89 904.047L1619.09 897.49H1620.72L1621.92 904.021ZM1632.78 904.39C1632.78 904.243 1632.74 904.114 1632.67 904.003C1632.61 903.892 1632.49 903.789 1632.31 903.695C1632.14 903.596 1631.92 903.505 1631.63 903.423C1631.34 903.341 1630.98 903.259 1630.54 903.177C1629.98 903.065 1629.47 902.928 1629.01 902.764C1628.55 902.594 1628.16 902.392 1627.83 902.157C1627.5 901.917 1627.25 901.642 1627.06 901.331C1626.88 901.021 1626.79 900.663 1626.79 900.259C1626.79 899.866 1626.88 899.491 1627.07 899.134C1627.25 898.776 1627.52 898.463 1627.88 898.193C1628.23 897.924 1628.65 897.71 1629.16 897.552C1629.66 897.394 1630.23 897.314 1630.86 897.314C1631.53 897.314 1632.12 897.394 1632.65 897.552C1633.17 897.704 1633.62 897.918 1633.98 898.193C1634.35 898.463 1634.63 898.785 1634.83 899.16C1635.02 899.535 1635.12 899.942 1635.12 900.382H1632.67C1632.67 900.013 1632.52 899.705 1632.23 899.459C1631.93 899.207 1631.47 899.081 1630.86 899.081C1630.29 899.081 1629.86 899.184 1629.57 899.389C1629.28 899.594 1629.14 899.846 1629.14 900.145C1629.14 900.285 1629.17 900.417 1629.23 900.54C1629.29 900.657 1629.39 900.766 1629.54 900.865C1629.69 900.959 1629.89 901.047 1630.15 901.129C1630.41 901.205 1630.74 901.272 1631.14 901.331C1631.71 901.425 1632.24 901.545 1632.74 901.691C1633.23 901.838 1633.65 902.028 1634.01 902.263C1634.37 902.491 1634.65 902.772 1634.84 903.106C1635.05 903.435 1635.15 903.827 1635.15 904.284C1635.15 904.706 1635.05 905.096 1634.84 905.453C1634.65 905.805 1634.36 906.109 1633.98 906.367C1633.61 906.625 1633.17 906.827 1632.64 906.974C1632.11 907.114 1631.52 907.185 1630.87 907.185C1630.16 907.185 1629.52 907.091 1628.97 906.903C1628.43 906.716 1627.97 906.473 1627.6 906.174C1627.23 905.869 1626.95 905.526 1626.76 905.146C1626.57 904.759 1626.48 904.372 1626.48 903.985H1628.81C1628.82 904.243 1628.89 904.466 1629.02 904.653C1629.14 904.835 1629.3 904.984 1629.49 905.102C1629.69 905.213 1629.91 905.295 1630.15 905.348C1630.4 905.4 1630.66 905.427 1630.92 905.427C1631.53 905.427 1631.99 905.33 1632.3 905.137C1632.62 904.943 1632.78 904.694 1632.78 904.39ZM1642.07 907.176C1641.34 907.176 1640.67 907.056 1640.07 906.815C1639.48 906.575 1638.96 906.25 1638.54 905.84C1638.11 905.424 1637.78 904.938 1637.54 904.381C1637.31 903.818 1637.2 903.218 1637.2 902.579V902.228C1637.2 901.501 1637.31 900.839 1637.54 900.241C1637.77 899.638 1638.09 899.119 1638.5 898.686C1638.91 898.252 1639.4 897.915 1639.96 897.675C1640.52 897.435 1641.13 897.314 1641.8 897.314C1642.48 897.314 1643.09 897.429 1643.62 897.657C1644.16 897.88 1644.62 898.196 1644.99 898.606C1645.36 899.017 1645.65 899.512 1645.84 900.092C1646.03 900.666 1646.13 901.302 1646.13 901.999V903.036H1639.68C1639.73 903.358 1639.82 903.654 1639.96 903.924C1640.11 904.188 1640.29 904.416 1640.51 904.609C1640.74 904.803 1640.99 904.952 1641.28 905.058C1641.57 905.163 1641.88 905.216 1642.22 905.216C1642.46 905.216 1642.7 905.192 1642.93 905.146C1643.17 905.099 1643.4 905.031 1643.62 904.943C1643.83 904.85 1644.04 904.735 1644.22 904.601C1644.41 904.466 1644.57 904.308 1644.71 904.126L1645.94 905.444C1645.78 905.661 1645.58 905.875 1645.34 906.086C1645.1 906.291 1644.81 906.476 1644.48 906.64C1644.15 906.798 1643.78 906.927 1643.38 907.026C1642.97 907.126 1642.54 907.176 1642.07 907.176ZM1641.78 899.292C1641.5 899.292 1641.25 899.342 1641.02 899.441C1640.79 899.535 1640.59 899.673 1640.42 899.854C1640.25 900.036 1640.1 900.253 1639.99 900.505C1639.87 900.757 1639.78 901.038 1639.72 901.349H1643.73V901.155C1643.72 900.897 1643.67 900.654 1643.58 900.426C1643.49 900.197 1643.37 900.001 1643.2 899.837C1643.04 899.667 1642.84 899.535 1642.6 899.441C1642.36 899.342 1642.09 899.292 1641.78 899.292ZM1655.09 897.314C1655.46 897.314 1655.8 897.341 1656.11 897.394C1656.43 897.44 1656.69 897.493 1656.88 897.552L1656.52 899.986C1656.2 899.91 1655.87 899.854 1655.53 899.819C1655.19 899.778 1654.87 899.758 1654.57 899.758C1653.88 899.758 1653.33 899.89 1652.92 900.153C1652.5 900.417 1652.2 900.795 1651.99 901.287V907H1649.55V897.49H1651.83L1651.94 899.046C1652.33 898.507 1652.79 898.085 1653.33 897.78C1653.87 897.47 1654.46 897.314 1655.09 897.314Z" fill="#252525"/>
<rect x="830" y="450" width="140" height="180" rx="30" fill="#222222"/>
<rect x="836" y="456" width="128" height="168" rx="24" fill="#F7F7F7"/>
<path fill-rule="evenodd" clip-rule="evenodd" d="M862.606 454C864.815 454 866.606 455.791 866.606 458V460C866.606 463.314 869.292 466 872.606 466H927.394C930.708 466 933.394 463.314 933.394 460V458C933.394 455.791 935.185 454 937.394 454H942H858H862.606Z" fill="#222222"/>
<path d="M885.674 537.49H890.851V545.014H893.426V547H885.674V545.014H888.381V539.485H885.674V537.49ZM888.205 535.056C888.205 534.868 888.237 534.695 888.302 534.537C888.372 534.373 888.469 534.235 888.592 534.124C888.715 534.007 888.861 533.916 889.031 533.852C889.207 533.787 889.4 533.755 889.611 533.755C890.045 533.755 890.388 533.878 890.64 534.124C890.897 534.364 891.026 534.675 891.026 535.056C891.026 535.437 890.897 535.75 890.64 535.996C890.388 536.236 890.045 536.356 889.611 536.356C889.4 536.356 889.207 536.324 889.031 536.26C888.861 536.195 888.715 536.107 888.592 535.996C888.469 535.879 888.372 535.741 888.302 535.583C888.237 535.419 888.205 535.243 888.205 535.056ZM904.676 541.542C904.676 542.362 904.567 543.118 904.351 543.81C904.134 544.501 903.82 545.096 903.41 545.594C903 546.092 902.499 546.481 901.907 546.763C901.321 547.038 900.659 547.176 899.921 547.176C899.183 547.176 898.526 547.038 897.952 546.763C897.378 546.481 896.895 546.092 896.502 545.594C896.109 545.09 895.811 544.495 895.605 543.81C895.4 543.118 895.298 542.362 895.298 541.542V539.679C895.298 538.858 895.4 538.103 895.605 537.411C895.811 536.72 896.109 536.125 896.502 535.627C896.895 535.123 897.375 534.73 897.943 534.449C898.518 534.168 899.174 534.027 899.912 534.027C900.656 534.027 901.321 534.168 901.907 534.449C902.499 534.73 903 535.123 903.41 535.627C903.82 536.125 904.134 536.72 904.351 537.411C904.567 538.103 904.676 538.858 904.676 539.679V541.542ZM902.171 539.661C902.171 539.14 902.127 538.659 902.039 538.22C901.957 537.78 901.825 537.402 901.644 537.086C901.462 536.77 901.228 536.523 900.94 536.348C900.659 536.166 900.316 536.075 899.912 536.075C899.514 536.075 899.18 536.166 898.91 536.348C898.641 536.523 898.424 536.77 898.26 537.086C898.096 537.402 897.979 537.78 897.908 538.22C897.838 538.659 897.803 539.14 897.803 539.661V541.542C897.803 542.058 897.838 542.535 897.908 542.975C897.979 543.414 898.096 543.795 898.26 544.117C898.424 544.439 898.641 544.691 898.91 544.873C899.18 545.055 899.517 545.146 899.921 545.146C900.319 545.146 900.659 545.055 900.94 544.873C901.228 544.691 901.459 544.442 901.635 544.126C901.816 543.804 901.951 543.423 902.039 542.983C902.127 542.544 902.171 542.063 902.171 541.542V539.661ZM913.201 543.66C913.201 543.432 913.16 543.218 913.078 543.019C913.002 542.819 912.867 542.635 912.674 542.465C912.486 542.289 912.237 542.131 911.927 541.99C911.622 541.844 911.241 541.709 910.784 541.586C910.228 541.434 909.694 541.243 909.185 541.015C908.681 540.786 908.235 540.511 907.849 540.188C907.462 539.866 907.151 539.491 906.917 539.063C906.688 538.636 906.574 538.144 906.574 537.587C906.574 537.048 906.688 536.559 906.917 536.119C907.146 535.68 907.462 535.305 907.866 534.994C908.271 534.684 908.748 534.446 909.299 534.282C909.85 534.112 910.447 534.027 911.092 534.027C911.76 534.027 912.369 534.124 912.92 534.317C913.477 534.511 913.954 534.783 914.353 535.135C914.751 535.48 915.062 535.894 915.284 536.374C915.507 536.854 915.618 537.382 915.618 537.956H913.21C913.198 537.669 913.146 537.405 913.052 537.165C912.964 536.925 912.829 536.72 912.647 536.55C912.472 536.374 912.249 536.239 911.979 536.146C911.716 536.046 911.405 535.996 911.048 535.996C910.72 535.996 910.427 536.037 910.169 536.119C909.917 536.195 909.703 536.307 909.527 536.453C909.352 536.594 909.217 536.764 909.123 536.963C909.035 537.156 908.991 537.367 908.991 537.596C908.991 537.836 909.05 538.053 909.167 538.246C909.29 538.439 909.466 538.615 909.694 538.773C909.923 538.926 910.198 539.066 910.521 539.195C910.849 539.324 911.218 539.444 911.628 539.556C912.214 539.726 912.753 539.934 913.245 540.18C913.737 540.426 914.159 540.719 914.511 541.059C914.868 541.393 915.144 541.776 915.337 542.21C915.536 542.638 915.636 543.115 915.636 543.643C915.636 544.205 915.521 544.706 915.293 545.146C915.07 545.579 914.76 545.948 914.361 546.253C913.963 546.552 913.488 546.78 912.938 546.938C912.387 547.091 911.786 547.167 911.136 547.167C910.731 547.167 910.327 547.129 909.923 547.053C909.524 546.982 909.141 546.871 908.771 546.719C908.408 546.566 908.068 546.376 907.752 546.147C907.436 545.919 907.16 545.652 906.926 545.348C906.697 545.043 906.516 544.697 906.381 544.311C906.252 543.924 906.188 543.496 906.188 543.027H908.613C908.625 543.414 908.692 543.745 908.815 544.021C908.938 544.296 909.108 544.521 909.325 544.697C909.548 544.873 909.812 545.002 910.116 545.084C910.427 545.166 910.767 545.207 911.136 545.207C911.464 545.207 911.754 545.169 912.006 545.093C912.264 545.017 912.48 544.911 912.656 544.776C912.832 544.642 912.967 544.48 913.061 544.293C913.154 544.1 913.201 543.889 913.201 543.66Z" fill="#252525"/>
<path d="M720 180H820C864.183 180 900 215.817 900 260V360" stroke="#222222" stroke-width="4" stroke-linecap="round" stroke-linejoin="round"/>
<path fill-rule="evenodd" clip-rule="evenodd" d="M910.183 355.029C910.982 353.696 910.022 352 908.468 352H891.532C889.978 352 889.018 353.696 889.817 355.029L898.285 369.142C899.062 370.436 900.938 370.436 901.715 369.142L910.183 355.029Z" fill="#222222"/>
<path fill-rule="evenodd" clip-rule="evenodd" d="M720 172C724.418 172 728 175.582 728 180C728 184.418 724.418 188 720 188C715.582 188 712 184.418 712 180C712 175.582 715.582 172 720 172Z" fill="#222222"/>
<path fill-rule="evenodd" clip-rule="evenodd" d="M715.029 550.183C713.696 550.982 712 550.022 712 548.468V531.532C712 529.978 713.696 529.018 715.029 529.817L729.142 538.285C730.436 539.062 730.436 540.938 729.142 541.715L715.029 550.183Z" fill="#222222"/>
<path fill-rule="evenodd" clip-rule="evenodd" d="M360 548C364.418 548 368 544.418 368 540C368 535.582 364.418 532 360 532C355.582 532 352 535.582 352 540C352 544.418 355.582 548 360 548Z" fill="#222222"/>
<line x1="362" y1="540" x2="718" y2="540" stroke="#222222" stroke-width="4" stroke-linecap="round" stroke-dasharray="4 12"/>
<path d="M720 900H820C864.183 900 900 864.183 900 820V720" stroke="#222222" stroke-width="4" stroke-linecap="round" stroke-linejoin="round"/>
<path fill-rule="evenodd" clip-rule="evenodd" d="M910.183 724.971C910.982 726.304 910.022 728 908.468 728H891.532C889.978 728 889.018 726.304 889.817 724.971L898.285 710.858C899.062 709.564 900.938 709.564 901.715 710.858L910.183 724.971Z" fill="#222222"/>
<path fill-rule="evenodd" clip-rule="evenodd" d="M720 908C724.418 908 728 904.418 728 900C728 895.582 724.418 892 720 892C715.582 892 712 895.582 712 900C712 904.418 715.582 908 720 908Z" fill="#222222"/>
<path d="M1080 539H1180C1224.18 539 1260 503.183 1260 459V259C1260 214.817 1295.82 179 1340 179H1440" stroke="#222222" stroke-width="4" stroke-linecap="round"/>
<path fill-rule="evenodd" clip-rule="evenodd" d="M1435.03 189.183C1433.7 189.982 1432 189.022 1432 187.468V170.532C1432 168.978 1433.7 168.018 1435.03 168.817L1449.14 177.285C1450.44 178.062 1450.44 179.938 1449.14 180.715L1435.03 189.183Z" fill="#222222"/>
<path fill-rule="evenodd" clip-rule="evenodd" d="M1080 547C1084.42 547 1088 543.418 1088 539C1088 534.582 1084.42 531 1080 531C1075.58 531 1072 534.582 1072 539C1072 543.418 1075.58 547 1080 547Z" fill="#222222"/>
</svg>
