<svg width="1800" height="540" viewBox="0 0 1800 540" fill="none" xmlns="http://www.w3.org/2000/svg">
<g clip-path="url(#clip0)">
<rect width="1800" height="540" fill="#F7F7F7"/>
<path d="M440 180H540C584.183 180 620 215.817 620 260V360" stroke="#222222" stroke-width="4" stroke-linecap="round" stroke-linejoin="round" stroke-dasharray="4 12"/>
<path fill-rule="evenodd" clip-rule="evenodd" d="M630.183 355.029C630.982 353.696 630.022 352 628.468 352H611.532C609.978 352 609.018 353.696 609.817 355.029L618.285 369.142C619.062 370.436 620.938 370.436 621.715 369.142L630.183 355.029Z" fill="#222222"/>
<path fill-rule="evenodd" clip-rule="evenodd" d="M440 172C444.418 172 448 175.582 448 180C448 184.418 444.418 188 440 188C435.582 188 432 184.418 432 180C432 175.582 435.582 172 440 172Z" fill="#222222"/>
<path d="M800 180H900C944.183 180 980 215.817 980 260V360" stroke="#EE0033" stroke-width="4" stroke-linecap="round" stroke-linejoin="round"/>
<path fill-rule="evenodd" clip-rule="evenodd" d="M990.183 355.029C990.982 353.696 990.022 352 988.468 352H971.532C969.978 352 969.018 353.696 969.817 355.029L978.285 369.142C979.062 370.436 980.938 370.436 981.715 369.142L990.183 355.029Z" fill="#EE0033"/>
<path fill-rule="evenodd" clip-rule="evenodd" d="M800 172C804.418 172 808 175.582 808 180C808 184.418 804.418 188 800 188C795.582 188 792 184.418 792 180C792 175.582 795.582 172 800 172Z" fill="#EE0033"/>
<path d="M1160 180H1260C1304.18 180 1340 215.817 1340 260V360" stroke="#00AA00" stroke-width="4" stroke-linecap="round" stroke-linejoin="round"/>
<path fill-rule="evenodd" clip-rule="evenodd" d="M1350.18 355.029C1350.98 353.696 1350.02 352 1348.47 352H1331.53C1329.98 352 1329.02 353.696 1329.82 355.029L1338.29 369.142C1339.06 370.436 1340.94 370.436 1341.71 369.142L1350.18 355.029Z" fill="#00AA00"/>
<path fill-rule="evenodd" clip-rule="evenodd" d="M1160 172C1164.42 172 1168 175.582 1168 180C1168 184.418 1164.42 188 1160 188C1155.58 188 1152 184.418 1152 180C1152 175.582 1155.58 172 1160 172Z" fill="#00AA00"/>
<path d="M1520 180H1620C1664.18 180 1700 215.817 1700 260V360" stroke="#0066FF" stroke-width="4" stroke-linecap="round" stroke-linejoin="round"/>
<path fill-rule="evenodd" clip-rule="evenodd" d="M1710.18 355.029C1710.98 353.696 1710.02 352 1708.47 352H1691.53C1689.98 352 1689.02 353.696 1689.82 355.029L1698.29 369.142C1699.06 370.436 1700.94 370.436 1701.71 369.142L1710.18 355.029Z" fill="#0066FF"/>
<path fill-rule="evenodd" clip-rule="evenodd" d="M1520 172C1524.42 172 1528 175.582 1528 180C1528 184.418 1524.42 188 1520 188C1515.58 188 1512 184.418 1512 180C1512 175.582 1515.58 172 1520 172Z" fill="#0066FF"/>
<path d="M80 180H180C224.183 180 260 215.817 260 260V360" stroke="#222222" stroke-width="4" stroke-linecap="round" stroke-linejoin="round"/>
<path fill-rule="evenodd" clip-rule="evenodd" d="M270.183 355.029C270.982 353.696 270.022 352 268.468 352H251.532C249.978 352 249.018 353.696 249.817 355.029L258.285 369.142C259.062 370.436 260.938 370.436 261.715 369.142L270.183 355.029Z" fill="#222222"/>
<path fill-rule="evenodd" clip-rule="evenodd" d="M80 172C84.4183 172 88 175.582 88 180C88 184.418 84.4183 188 80 188C75.5817 188 72 184.418 72 180C72 175.582 75.5817 172 80 172Z" fill="#222222"/>
</g>
<defs>
<clipPath id="clip0">
<rect width="1800" height="540" fill="white"/>
</clipPath>
</defs>
</svg>
