<svg width="1800" height="1080" viewBox="0 0 1800 1080" fill="none" xmlns="http://www.w3.org/2000/svg">
<rect width="1800" height="1080" fill="#F7F7F7"/>
<path d="M544 291H820C864.183 291 900 326.817 900 371V571C900 615.183 935.817 651 980 651H1256" stroke="#222222" stroke-width="4" stroke-linecap="round"/>
<path fill-rule="evenodd" clip-rule="evenodd" d="M1251.03 640.817C1249.7 640.018 1248 640.978 1248 642.532V659.468C1248 661.022 1249.7 661.982 1251.03 661.183L1265.14 652.715C1266.44 651.938 1266.44 650.062 1265.14 649.285L1251.03 640.817Z" fill="#222222"/>
<path opacity="0.5" fill-rule="evenodd" clip-rule="evenodd" d="M544 251C566.091 251 584 268.909 584 291C584 313.091 566.091 331 544 331C521.909 331 504 313.091 504 291C504 268.909 521.909 251 544 251Z" fill="#0066FF"/>
<path fill-rule="evenodd" clip-rule="evenodd" d="M544 283C548.418 283 552 286.582 552 291C552 295.418 548.418 299 544 299C539.582 299 536 295.418 536 291C536 286.582 539.582 283 544 283Z" fill="#222222"/>
<path d="M563.219 830.828H556.203V850H551.797V830.828H544.875V827.25H563.219V830.828ZM576.438 850C576.333 849.792 576.245 849.552 576.172 849.281C576.099 849.01 576.036 848.724 575.984 848.422C575.745 848.682 575.469 848.927 575.156 849.156C574.844 849.385 574.495 849.589 574.109 849.766C573.734 849.932 573.318 850.062 572.859 850.156C572.401 850.26 571.906 850.312 571.375 850.312C570.51 850.312 569.714 850.188 568.984 849.938C568.266 849.688 567.646 849.339 567.125 848.891C566.604 848.443 566.198 847.911 565.906 847.297C565.615 846.672 565.469 845.995 565.469 845.266C565.469 843.484 566.13 842.109 567.453 841.141C568.786 840.161 570.771 839.672 573.406 839.672H575.828V838.672C575.828 837.859 575.562 837.219 575.031 836.75C574.5 836.271 573.734 836.031 572.734 836.031C571.849 836.031 571.203 836.224 570.797 836.609C570.391 836.984 570.188 837.49 570.188 838.125H565.844C565.844 837.406 566 836.724 566.312 836.078C566.635 835.432 567.099 834.865 567.703 834.375C568.318 833.885 569.062 833.5 569.938 833.219C570.823 832.927 571.833 832.781 572.969 832.781C573.99 832.781 574.938 832.906 575.812 833.156C576.698 833.406 577.464 833.776 578.109 834.266C578.755 834.755 579.26 835.375 579.625 836.125C579.99 836.865 580.172 837.724 580.172 838.703V845.953C580.172 846.859 580.229 847.609 580.344 848.203C580.458 848.797 580.625 849.307 580.844 849.734V850H576.438ZM572.297 846.953C572.734 846.953 573.141 846.901 573.516 846.797C573.891 846.693 574.229 846.557 574.531 846.391C574.833 846.224 575.094 846.036 575.312 845.828C575.531 845.609 575.703 845.391 575.828 845.172V842.266H573.609C572.932 842.266 572.354 842.333 571.875 842.469C571.396 842.594 571.005 842.776 570.703 843.016C570.401 843.245 570.177 843.526 570.031 843.859C569.885 844.182 569.812 844.536 569.812 844.922C569.812 845.505 570.016 845.99 570.422 846.375C570.839 846.76 571.464 846.953 572.297 846.953ZM600.281 841.703C600.281 842.932 600.135 844.073 599.844 845.125C599.562 846.177 599.141 847.089 598.578 847.859C598.026 848.62 597.339 849.219 596.516 849.656C595.693 850.094 594.75 850.312 593.688 850.312C592.781 850.312 591.984 850.156 591.297 849.844C590.609 849.531 590.01 849.094 589.5 848.531V856.5H585.156V833.094H589.172L589.328 834.75C589.849 834.125 590.464 833.641 591.172 833.297C591.88 832.953 592.708 832.781 593.656 832.781C594.729 832.781 595.677 832.99 596.5 833.406C597.323 833.812 598.016 834.396 598.578 835.156C599.141 835.906 599.562 836.812 599.844 837.875C600.135 838.927 600.281 840.094 600.281 841.375V841.703ZM595.938 841.375C595.938 840.667 595.87 840.005 595.734 839.391C595.609 838.766 595.406 838.229 595.125 837.781C594.854 837.323 594.5 836.964 594.062 836.703C593.635 836.443 593.115 836.312 592.5 836.312C591.74 836.312 591.115 836.464 590.625 836.766C590.146 837.057 589.771 837.474 589.5 838.016V845.078C589.771 845.609 590.146 846.036 590.625 846.359C591.115 846.672 591.75 846.828 592.531 846.828C593.146 846.828 593.667 846.693 594.094 846.422C594.531 846.151 594.885 845.781 595.156 845.312C595.427 844.844 595.625 844.302 595.75 843.688C595.875 843.062 595.938 842.401 595.938 841.703V841.375ZM628.812 851.953H624.766L633.281 827.25H637.328L628.812 851.953ZM669.531 841.5H666.203V850H661.812V827.25H669.438C670.698 827.25 671.839 827.401 672.859 827.703C673.88 827.995 674.75 828.427 675.469 829C676.198 829.573 676.755 830.286 677.141 831.141C677.536 831.995 677.734 832.984 677.734 834.109C677.734 834.922 677.635 835.656 677.438 836.312C677.25 836.958 676.974 837.542 676.609 838.062C676.255 838.573 675.823 839.021 675.312 839.406C674.812 839.792 674.25 840.125 673.625 840.406L678.516 849.797V850H673.812L669.531 841.5ZM666.203 837.938H669.453C670.693 837.938 671.646 837.625 672.312 837C672.99 836.365 673.328 835.5 673.328 834.406C673.328 833.271 673 832.391 672.344 831.766C671.688 831.13 670.719 830.812 669.438 830.812H666.203V837.938ZM682.344 833.094H691.547V846.469H696.125V850H682.344V846.469H687.156V836.641H682.344V833.094ZM686.844 828.766C686.844 828.432 686.901 828.125 687.016 827.844C687.141 827.552 687.312 827.307 687.531 827.109C687.75 826.901 688.01 826.74 688.312 826.625C688.625 826.51 688.969 826.453 689.344 826.453C690.115 826.453 690.724 826.672 691.172 827.109C691.63 827.536 691.859 828.089 691.859 828.766C691.859 829.443 691.63 830 691.172 830.438C690.724 830.865 690.115 831.078 689.344 831.078C688.969 831.078 688.625 831.021 688.312 830.906C688.01 830.792 687.75 830.635 687.531 830.438C687.312 830.229 687.141 829.984 687.016 829.703C686.901 829.411 686.844 829.099 686.844 828.766ZM699.969 841.422C699.969 840.141 700.125 838.969 700.438 837.906C700.76 836.844 701.219 835.932 701.812 835.172C702.406 834.411 703.125 833.823 703.969 833.406C704.812 832.99 705.766 832.781 706.828 832.781C707.818 832.781 708.667 832.948 709.375 833.281C710.083 833.615 710.688 834.089 711.188 834.703L711.359 833.094H715.312V849.453C715.312 850.599 715.115 851.62 714.719 852.516C714.333 853.411 713.786 854.167 713.078 854.781C712.38 855.396 711.536 855.859 710.547 856.172C709.568 856.495 708.484 856.656 707.297 856.656C706.786 856.656 706.24 856.604 705.656 856.5C705.073 856.396 704.495 856.234 703.922 856.016C703.349 855.797 702.807 855.516 702.297 855.172C701.786 854.839 701.349 854.438 700.984 853.969L702.938 851.328C703.49 851.953 704.115 852.427 704.812 852.75C705.51 853.083 706.266 853.25 707.078 853.25C708.297 853.25 709.245 852.922 709.922 852.266C710.609 851.62 710.953 850.698 710.953 849.5V848.531C710.443 849.094 709.844 849.531 709.156 849.844C708.479 850.156 707.693 850.312 706.797 850.312C705.745 850.312 704.797 850.099 703.953 849.672C703.12 849.234 702.406 848.635 701.812 847.875C701.219 847.115 700.76 846.214 700.438 845.172C700.125 844.12 699.969 842.979 699.969 841.75V841.422ZM704.328 841.75C704.328 842.458 704.396 843.12 704.531 843.734C704.677 844.339 704.896 844.87 705.188 845.328C705.479 845.776 705.849 846.13 706.297 846.391C706.745 846.651 707.276 846.781 707.891 846.781C708.651 846.781 709.276 846.635 709.766 846.344C710.266 846.052 710.661 845.646 710.953 845.125V837.969C710.661 837.438 710.266 837.031 709.766 836.75C709.276 836.458 708.661 836.312 707.922 836.312C707.307 836.312 706.776 836.448 706.328 836.719C705.88 836.979 705.505 837.344 705.203 837.812C704.911 838.271 704.693 838.812 704.547 839.438C704.401 840.052 704.328 840.714 704.328 841.422V841.75ZM723.969 835.422C724.531 834.599 725.214 833.953 726.016 833.484C726.828 833.016 727.734 832.781 728.734 832.781C729.62 832.781 730.432 832.917 731.172 833.188C731.911 833.448 732.547 833.859 733.078 834.422C733.609 834.984 734.021 835.708 734.312 836.594C734.615 837.469 734.766 838.526 734.766 839.766V850H730.422V839.734C730.422 839.13 730.344 838.609 730.188 838.172C730.042 837.734 729.828 837.38 729.547 837.109C729.266 836.839 728.927 836.641 728.531 836.516C728.135 836.38 727.688 836.312 727.188 836.312C726.458 836.312 725.823 836.443 725.281 836.703C724.75 836.964 724.312 837.328 723.969 837.797V850H719.625V826H723.969V835.422ZM746.812 828.953V833.094H753.125V836.297H746.812V843.562C746.812 844.177 746.88 844.693 747.016 845.109C747.161 845.516 747.365 845.844 747.625 846.094C747.885 846.333 748.198 846.505 748.562 846.609C748.938 846.714 749.354 846.766 749.812 846.766C750.146 846.766 750.484 846.75 750.828 846.719C751.182 846.688 751.516 846.651 751.828 846.609C752.151 846.557 752.448 846.505 752.719 846.453C753 846.401 753.24 846.349 753.438 846.297L753.859 849.281C753.557 849.458 753.203 849.615 752.797 849.75C752.391 849.875 751.958 849.979 751.5 850.062C751.042 850.146 750.562 850.208 750.062 850.25C749.573 850.302 749.089 850.328 748.609 850.328C747.682 850.328 746.839 850.208 746.078 849.969C745.328 849.719 744.682 849.339 744.141 848.828C743.609 848.307 743.198 847.651 742.906 846.859C742.615 846.057 742.469 845.099 742.469 843.984V836.297H738.609V833.094H742.469V828.953H746.812ZM782.562 851.953H778.516L787.031 827.25H791.078L782.562 851.953ZM827.375 844.062C827.375 843.656 827.302 843.276 827.156 842.922C827.021 842.568 826.781 842.24 826.438 841.938C826.104 841.625 825.661 841.344 825.109 841.094C824.568 840.833 823.891 840.594 823.078 840.375C822.089 840.104 821.141 839.766 820.234 839.359C819.339 838.953 818.547 838.464 817.859 837.891C817.172 837.318 816.62 836.651 816.203 835.891C815.797 835.13 815.594 834.255 815.594 833.266C815.594 832.307 815.797 831.438 816.203 830.656C816.609 829.875 817.172 829.208 817.891 828.656C818.609 828.104 819.458 827.682 820.438 827.391C821.417 827.089 822.479 826.938 823.625 826.938C824.812 826.938 825.896 827.109 826.875 827.453C827.865 827.797 828.714 828.281 829.422 828.906C830.13 829.521 830.682 830.255 831.078 831.109C831.474 831.964 831.672 832.901 831.672 833.922H827.391C827.37 833.411 827.276 832.943 827.109 832.516C826.953 832.089 826.714 831.724 826.391 831.422C826.078 831.109 825.682 830.87 825.203 830.703C824.734 830.526 824.182 830.438 823.547 830.438C822.964 830.438 822.443 830.51 821.984 830.656C821.536 830.792 821.156 830.99 820.844 831.25C820.531 831.5 820.292 831.802 820.125 832.156C819.969 832.5 819.891 832.875 819.891 833.281C819.891 833.708 819.995 834.094 820.203 834.438C820.422 834.781 820.734 835.094 821.141 835.375C821.547 835.646 822.036 835.896 822.609 836.125C823.193 836.354 823.849 836.568 824.578 836.766C825.62 837.068 826.578 837.438 827.453 837.875C828.328 838.312 829.078 838.833 829.703 839.438C830.339 840.031 830.828 840.714 831.172 841.484C831.526 842.245 831.703 843.094 831.703 844.031C831.703 845.031 831.5 845.922 831.094 846.703C830.698 847.474 830.146 848.13 829.438 848.672C828.729 849.203 827.885 849.609 826.906 849.891C825.927 850.161 824.859 850.297 823.703 850.297C822.984 850.297 822.266 850.229 821.547 850.094C820.839 849.969 820.156 849.771 819.5 849.5C818.854 849.229 818.25 848.891 817.688 848.484C817.125 848.078 816.635 847.604 816.219 847.062C815.812 846.521 815.49 845.906 815.25 845.219C815.021 844.531 814.906 843.771 814.906 842.938H819.219C819.24 843.625 819.359 844.214 819.578 844.703C819.797 845.193 820.099 845.594 820.484 845.906C820.88 846.219 821.349 846.448 821.891 846.594C822.443 846.74 823.047 846.812 823.703 846.812C824.286 846.812 824.802 846.745 825.25 846.609C825.708 846.474 826.094 846.286 826.406 846.047C826.719 845.807 826.958 845.521 827.125 845.188C827.292 844.844 827.375 844.469 827.375 844.062ZM838.875 833.094L839.141 835.438C839.745 834.594 840.479 833.943 841.344 833.484C842.208 833.016 843.167 832.781 844.219 832.781C845.073 832.781 845.854 832.906 846.562 833.156C847.271 833.406 847.88 833.807 848.391 834.359C848.911 834.901 849.312 835.604 849.594 836.469C849.885 837.323 850.031 838.365 850.031 839.594V850H845.688V839.656C845.688 838.99 845.609 838.443 845.453 838.016C845.307 837.578 845.094 837.234 844.812 836.984C844.531 836.734 844.193 836.562 843.797 836.469C843.401 836.365 842.953 836.312 842.453 836.312C841.714 836.312 841.083 836.464 840.562 836.766C840.042 837.057 839.62 837.464 839.297 837.984V850H834.938V833.094H838.875ZM864.719 850C864.615 849.792 864.526 849.552 864.453 849.281C864.38 849.01 864.318 848.724 864.266 848.422C864.026 848.682 863.75 848.927 863.438 849.156C863.125 849.385 862.776 849.589 862.391 849.766C862.016 849.932 861.599 850.062 861.141 850.156C860.682 850.26 860.188 850.312 859.656 850.312C858.792 850.312 857.995 850.188 857.266 849.938C856.547 849.688 855.927 849.339 855.406 848.891C854.885 848.443 854.479 847.911 854.188 847.297C853.896 846.672 853.75 845.995 853.75 845.266C853.75 843.484 854.411 842.109 855.734 841.141C857.068 840.161 859.052 839.672 861.688 839.672H864.109V838.672C864.109 837.859 863.844 837.219 863.312 836.75C862.781 836.271 862.016 836.031 861.016 836.031C860.13 836.031 859.484 836.224 859.078 836.609C858.672 836.984 858.469 837.49 858.469 838.125H854.125C854.125 837.406 854.281 836.724 854.594 836.078C854.917 835.432 855.38 834.865 855.984 834.375C856.599 833.885 857.344 833.5 858.219 833.219C859.104 832.927 860.115 832.781 861.25 832.781C862.271 832.781 863.219 832.906 864.094 833.156C864.979 833.406 865.745 833.776 866.391 834.266C867.036 834.755 867.542 835.375 867.906 836.125C868.271 836.865 868.453 837.724 868.453 838.703V845.953C868.453 846.859 868.51 847.609 868.625 848.203C868.74 848.797 868.906 849.307 869.125 849.734V850H864.719ZM860.578 846.953C861.016 846.953 861.422 846.901 861.797 846.797C862.172 846.693 862.51 846.557 862.812 846.391C863.115 846.224 863.375 846.036 863.594 845.828C863.812 845.609 863.984 845.391 864.109 845.172V842.266H861.891C861.214 842.266 860.635 842.333 860.156 842.469C859.677 842.594 859.286 842.776 858.984 843.016C858.682 843.245 858.458 843.526 858.312 843.859C858.167 844.182 858.094 844.536 858.094 844.922C858.094 845.505 858.297 845.99 858.703 846.375C859.12 846.76 859.745 846.953 860.578 846.953ZM879.734 843.016L877.766 844.844V850H873.422V826H877.766V839.719L879.078 838.219L883.75 833.094H888.969L882.594 840.141L889.859 850H884.531L879.734 843.016ZM900.797 850.312C899.495 850.312 898.312 850.099 897.25 849.672C896.188 849.245 895.276 848.667 894.516 847.938C893.755 847.198 893.167 846.333 892.75 845.344C892.344 844.344 892.141 843.276 892.141 842.141V841.516C892.141 840.224 892.344 839.047 892.75 837.984C893.156 836.911 893.724 835.99 894.453 835.219C895.182 834.448 896.047 833.849 897.047 833.422C898.047 832.995 899.135 832.781 900.312 832.781C901.531 832.781 902.615 832.984 903.562 833.391C904.521 833.786 905.328 834.349 905.984 835.078C906.651 835.807 907.156 836.688 907.5 837.719C907.844 838.74 908.016 839.87 908.016 841.109V842.953H896.547C896.63 843.526 896.797 844.052 897.047 844.531C897.307 845 897.635 845.406 898.031 845.75C898.427 846.094 898.88 846.359 899.391 846.547C899.901 846.734 900.458 846.828 901.062 846.828C901.49 846.828 901.911 846.786 902.328 846.703C902.755 846.62 903.161 846.5 903.547 846.344C903.932 846.177 904.292 845.974 904.625 845.734C904.958 845.495 905.25 845.214 905.5 844.891L907.672 847.234C907.401 847.62 907.047 848 906.609 848.375C906.182 848.74 905.672 849.068 905.078 849.359C904.495 849.641 903.844 849.87 903.125 850.047C902.406 850.224 901.63 850.312 900.797 850.312ZM900.281 836.297C899.792 836.297 899.344 836.385 898.938 836.562C898.531 836.729 898.172 836.974 897.859 837.297C897.557 837.62 897.302 838.005 897.094 838.453C896.885 838.901 896.729 839.401 896.625 839.953H903.75V839.609C903.729 839.151 903.641 838.719 903.484 838.312C903.328 837.906 903.104 837.557 902.812 837.266C902.521 836.964 902.161 836.729 901.734 836.562C901.318 836.385 900.833 836.297 900.281 836.297ZM936.312 851.953H932.266L940.781 827.25H944.828L936.312 851.953ZM969.219 850V827.25H975.109C976.62 827.25 977.984 827.51 979.203 828.031C980.432 828.542 981.479 829.26 982.344 830.188C983.219 831.104 983.891 832.203 984.359 833.484C984.839 834.766 985.078 836.172 985.078 837.703V839.578C985.078 841.109 984.839 842.516 984.359 843.797C983.891 845.068 983.229 846.167 982.375 847.094C981.521 848.01 980.495 848.724 979.297 849.234C978.099 849.745 976.776 850 975.328 850H969.219ZM973.641 830.812V846.469H975.328C976.151 846.469 976.885 846.312 977.531 846C978.188 845.688 978.74 845.234 979.188 844.641C979.646 844.047 979.995 843.328 980.234 842.484C980.474 841.63 980.594 840.661 980.594 839.578V837.672C980.594 836.651 980.474 835.724 980.234 834.891C980.005 834.047 979.656 833.323 979.188 832.719C978.729 832.115 978.156 831.646 977.469 831.312C976.792 830.979 976.005 830.812 975.109 830.812H973.641ZM988.094 841.391C988.094 840.161 988.271 839.026 988.625 837.984C988.979 836.932 989.495 836.021 990.172 835.25C990.859 834.479 991.693 833.875 992.672 833.438C993.661 833 994.792 832.781 996.062 832.781C997.333 832.781 998.464 833 999.453 833.438C1000.44 833.875 1001.28 834.479 1001.95 835.25C1002.64 836.021 1003.16 836.932 1003.52 837.984C1003.87 839.026 1004.05 840.161 1004.05 841.391V841.719C1004.05 842.958 1003.87 844.104 1003.52 845.156C1003.16 846.198 1002.65 847.104 1001.97 847.875C1001.29 848.646 1000.46 849.25 999.469 849.688C998.479 850.115 997.354 850.328 996.094 850.328C994.823 850.328 993.688 850.115 992.688 849.688C991.698 849.25 990.859 848.646 990.172 847.875C989.495 847.104 988.979 846.198 988.625 845.156C988.271 844.104 988.094 842.958 988.094 841.719V841.391ZM992.438 841.719C992.438 842.427 992.505 843.094 992.641 843.719C992.776 844.333 992.99 844.875 993.281 845.344C993.573 845.802 993.948 846.167 994.406 846.438C994.875 846.708 995.438 846.844 996.094 846.844C996.729 846.844 997.276 846.708 997.734 846.438C998.193 846.167 998.562 845.802 998.844 845.344C999.135 844.875 999.349 844.333 999.484 843.719C999.62 843.094 999.688 842.427 999.688 841.719V841.391C999.688 840.703 999.62 840.052 999.484 839.438C999.349 838.823 999.135 838.281 998.844 837.812C998.562 837.344 998.193 836.974 997.734 836.703C997.276 836.432 996.719 836.297 996.062 836.297C995.417 836.297 994.865 836.432 994.406 836.703C993.948 836.974 993.573 837.344 993.281 837.812C992.99 838.281 992.776 838.823 992.641 839.438C992.505 840.052 992.438 840.703 992.438 841.391V841.719ZM1018.72 844.703L1020.19 833.094H1024.17L1021.14 850H1017.33L1015.11 839.25L1012.97 850H1009.16L1006.12 833.094H1010.09L1011.56 844.75L1013.69 833.094H1016.59L1018.72 844.703ZM1031.06 833.094L1031.33 835.438C1031.93 834.594 1032.67 833.943 1033.53 833.484C1034.4 833.016 1035.35 832.781 1036.41 832.781C1037.26 832.781 1038.04 832.906 1038.75 833.156C1039.46 833.406 1040.07 833.807 1040.58 834.359C1041.1 834.901 1041.5 835.604 1041.78 836.469C1042.07 837.323 1042.22 838.365 1042.22 839.594V850H1037.88V839.656C1037.88 838.99 1037.8 838.443 1037.64 838.016C1037.49 837.578 1037.28 837.234 1037 836.984C1036.72 836.734 1036.38 836.562 1035.98 836.469C1035.59 836.365 1035.14 836.312 1034.64 836.312C1033.9 836.312 1033.27 836.464 1032.75 836.766C1032.23 837.057 1031.81 837.464 1031.48 837.984V850H1027.12V833.094H1031.06ZM1070.84 851.953H1066.8L1075.31 827.25H1079.36L1070.84 851.953ZM1115.66 844.062C1115.66 843.656 1115.58 843.276 1115.44 842.922C1115.3 842.568 1115.06 842.24 1114.72 841.938C1114.39 841.625 1113.94 841.344 1113.39 841.094C1112.85 840.833 1112.17 840.594 1111.36 840.375C1110.37 840.104 1109.42 839.766 1108.52 839.359C1107.62 838.953 1106.83 838.464 1106.14 837.891C1105.45 837.318 1104.9 836.651 1104.48 835.891C1104.08 835.13 1103.88 834.255 1103.88 833.266C1103.88 832.307 1104.08 831.438 1104.48 830.656C1104.89 829.875 1105.45 829.208 1106.17 828.656C1106.89 828.104 1107.74 827.682 1108.72 827.391C1109.7 827.089 1110.76 826.938 1111.91 826.938C1113.09 826.938 1114.18 827.109 1115.16 827.453C1116.15 827.797 1116.99 828.281 1117.7 828.906C1118.41 829.521 1118.96 830.255 1119.36 831.109C1119.76 831.964 1119.95 832.901 1119.95 833.922H1115.67C1115.65 833.411 1115.56 832.943 1115.39 832.516C1115.23 832.089 1114.99 831.724 1114.67 831.422C1114.36 831.109 1113.96 830.87 1113.48 830.703C1113.02 830.526 1112.46 830.438 1111.83 830.438C1111.24 830.438 1110.72 830.51 1110.27 830.656C1109.82 830.792 1109.44 830.99 1109.12 831.25C1108.81 831.5 1108.57 831.802 1108.41 832.156C1108.25 832.5 1108.17 832.875 1108.17 833.281C1108.17 833.708 1108.28 834.094 1108.48 834.438C1108.7 834.781 1109.02 835.094 1109.42 835.375C1109.83 835.646 1110.32 835.896 1110.89 836.125C1111.47 836.354 1112.13 836.568 1112.86 836.766C1113.9 837.068 1114.86 837.438 1115.73 837.875C1116.61 838.312 1117.36 838.833 1117.98 839.438C1118.62 840.031 1119.11 840.714 1119.45 841.484C1119.81 842.245 1119.98 843.094 1119.98 844.031C1119.98 845.031 1119.78 845.922 1119.38 846.703C1118.98 847.474 1118.43 848.13 1117.72 848.672C1117.01 849.203 1116.17 849.609 1115.19 849.891C1114.21 850.161 1113.14 850.297 1111.98 850.297C1111.27 850.297 1110.55 850.229 1109.83 850.094C1109.12 849.969 1108.44 849.771 1107.78 849.5C1107.14 849.229 1106.53 848.891 1105.97 848.484C1105.41 848.078 1104.92 847.604 1104.5 847.062C1104.09 846.521 1103.77 845.906 1103.53 845.219C1103.3 844.531 1103.19 843.771 1103.19 842.938H1107.5C1107.52 843.625 1107.64 844.214 1107.86 844.703C1108.08 845.193 1108.38 845.594 1108.77 845.906C1109.16 846.219 1109.63 846.448 1110.17 846.594C1110.72 846.74 1111.33 846.812 1111.98 846.812C1112.57 846.812 1113.08 846.745 1113.53 846.609C1113.99 846.474 1114.38 846.286 1114.69 846.047C1115 845.807 1115.24 845.521 1115.41 845.188C1115.57 844.844 1115.66 844.469 1115.66 844.062ZM1131.19 828.953V833.094H1137.5V836.297H1131.19V843.562C1131.19 844.177 1131.26 844.693 1131.39 845.109C1131.54 845.516 1131.74 845.844 1132 846.094C1132.26 846.333 1132.57 846.505 1132.94 846.609C1133.31 846.714 1133.73 846.766 1134.19 846.766C1134.52 846.766 1134.86 846.75 1135.2 846.719C1135.56 846.688 1135.89 846.651 1136.2 846.609C1136.53 846.557 1136.82 846.505 1137.09 846.453C1137.38 846.401 1137.61 846.349 1137.81 846.297L1138.23 849.281C1137.93 849.458 1137.58 849.615 1137.17 849.75C1136.77 849.875 1136.33 849.979 1135.88 850.062C1135.42 850.146 1134.94 850.208 1134.44 850.25C1133.95 850.302 1133.46 850.328 1132.98 850.328C1132.06 850.328 1131.21 850.208 1130.45 849.969C1129.7 849.719 1129.06 849.339 1128.52 848.828C1127.98 848.307 1127.57 847.651 1127.28 846.859C1126.99 846.057 1126.84 845.099 1126.84 843.984V836.297H1122.98V833.094H1126.84V828.953H1131.19ZM1154.58 832.781C1155.23 832.781 1155.84 832.828 1156.39 832.922C1156.95 833.005 1157.41 833.099 1157.75 833.203L1157.11 837.531C1156.54 837.396 1155.95 837.297 1155.34 837.234C1154.75 837.161 1154.18 837.125 1153.64 837.125C1152.42 837.125 1151.44 837.359 1150.7 837.828C1149.97 838.297 1149.43 838.969 1149.06 839.844V850H1144.72V833.094H1148.77L1148.97 835.859C1149.66 834.901 1150.48 834.151 1151.44 833.609C1152.4 833.057 1153.44 832.781 1154.58 832.781ZM1172.22 850C1172.11 849.792 1172.03 849.552 1171.95 849.281C1171.88 849.01 1171.82 848.724 1171.77 848.422C1171.53 848.682 1171.25 848.927 1170.94 849.156C1170.62 849.385 1170.28 849.589 1169.89 849.766C1169.52 849.932 1169.1 850.062 1168.64 850.156C1168.18 850.26 1167.69 850.312 1167.16 850.312C1166.29 850.312 1165.49 850.188 1164.77 849.938C1164.05 849.688 1163.43 849.339 1162.91 848.891C1162.39 848.443 1161.98 847.911 1161.69 847.297C1161.4 846.672 1161.25 845.995 1161.25 845.266C1161.25 843.484 1161.91 842.109 1163.23 841.141C1164.57 840.161 1166.55 839.672 1169.19 839.672H1171.61V838.672C1171.61 837.859 1171.34 837.219 1170.81 836.75C1170.28 836.271 1169.52 836.031 1168.52 836.031C1167.63 836.031 1166.98 836.224 1166.58 836.609C1166.17 836.984 1165.97 837.49 1165.97 838.125H1161.62C1161.62 837.406 1161.78 836.724 1162.09 836.078C1162.42 835.432 1162.88 834.865 1163.48 834.375C1164.1 833.885 1164.84 833.5 1165.72 833.219C1166.6 832.927 1167.61 832.781 1168.75 832.781C1169.77 832.781 1170.72 832.906 1171.59 833.156C1172.48 833.406 1173.24 833.776 1173.89 834.266C1174.54 834.755 1175.04 835.375 1175.41 836.125C1175.77 836.865 1175.95 837.724 1175.95 838.703V845.953C1175.95 846.859 1176.01 847.609 1176.12 848.203C1176.24 848.797 1176.41 849.307 1176.62 849.734V850H1172.22ZM1168.08 846.953C1168.52 846.953 1168.92 846.901 1169.3 846.797C1169.67 846.693 1170.01 846.557 1170.31 846.391C1170.61 846.224 1170.88 846.036 1171.09 845.828C1171.31 845.609 1171.48 845.391 1171.61 845.172V842.266H1169.39C1168.71 842.266 1168.14 842.333 1167.66 842.469C1167.18 842.594 1166.79 842.776 1166.48 843.016C1166.18 843.245 1165.96 843.526 1165.81 843.859C1165.67 844.182 1165.59 844.536 1165.59 844.922C1165.59 845.505 1165.8 845.99 1166.2 846.375C1166.62 846.76 1167.24 846.953 1168.08 846.953ZM1182.03 833.094H1191.23V846.469H1195.81V850H1182.03V846.469H1186.84V836.641H1182.03V833.094ZM1186.53 828.766C1186.53 828.432 1186.59 828.125 1186.7 827.844C1186.83 827.552 1187 827.307 1187.22 827.109C1187.44 826.901 1187.7 826.74 1188 826.625C1188.31 826.51 1188.66 826.453 1189.03 826.453C1189.8 826.453 1190.41 826.672 1190.86 827.109C1191.32 827.536 1191.55 828.089 1191.55 828.766C1191.55 829.443 1191.32 830 1190.86 830.438C1190.41 830.865 1189.8 831.078 1189.03 831.078C1188.66 831.078 1188.31 831.021 1188 830.906C1187.7 830.792 1187.44 830.635 1187.22 830.438C1187 830.229 1186.83 829.984 1186.7 829.703C1186.59 829.411 1186.53 829.099 1186.53 828.766ZM1199.66 841.422C1199.66 840.141 1199.81 838.969 1200.12 837.906C1200.45 836.844 1200.91 835.932 1201.5 835.172C1202.09 834.411 1202.81 833.823 1203.66 833.406C1204.5 832.99 1205.45 832.781 1206.52 832.781C1207.51 832.781 1208.35 832.948 1209.06 833.281C1209.77 833.615 1210.38 834.089 1210.88 834.703L1211.05 833.094H1215V849.453C1215 850.599 1214.8 851.62 1214.41 852.516C1214.02 853.411 1213.47 854.167 1212.77 854.781C1212.07 855.396 1211.22 855.859 1210.23 856.172C1209.26 856.495 1208.17 856.656 1206.98 856.656C1206.47 856.656 1205.93 856.604 1205.34 856.5C1204.76 856.396 1204.18 856.234 1203.61 856.016C1203.04 855.797 1202.49 855.516 1201.98 855.172C1201.47 854.839 1201.04 854.438 1200.67 853.969L1202.62 851.328C1203.18 851.953 1203.8 852.427 1204.5 852.75C1205.2 853.083 1205.95 853.25 1206.77 853.25C1207.98 853.25 1208.93 852.922 1209.61 852.266C1210.3 851.62 1210.64 850.698 1210.64 849.5V848.531C1210.13 849.094 1209.53 849.531 1208.84 849.844C1208.17 850.156 1207.38 850.312 1206.48 850.312C1205.43 850.312 1204.48 850.099 1203.64 849.672C1202.81 849.234 1202.09 848.635 1201.5 847.875C1200.91 847.115 1200.45 846.214 1200.12 845.172C1199.81 844.12 1199.66 842.979 1199.66 841.75V841.422ZM1204.02 841.75C1204.02 842.458 1204.08 843.12 1204.22 843.734C1204.36 844.339 1204.58 844.87 1204.88 845.328C1205.17 845.776 1205.54 846.13 1205.98 846.391C1206.43 846.651 1206.96 846.781 1207.58 846.781C1208.34 846.781 1208.96 846.635 1209.45 846.344C1209.95 846.052 1210.35 845.646 1210.64 845.125V837.969C1210.35 837.438 1209.95 837.031 1209.45 836.75C1208.96 836.458 1208.35 836.312 1207.61 836.312C1206.99 836.312 1206.46 836.448 1206.02 836.719C1205.57 836.979 1205.19 837.344 1204.89 837.812C1204.6 838.271 1204.38 838.812 1204.23 839.438C1204.09 840.052 1204.02 840.714 1204.02 841.422V841.75ZM1223.66 835.422C1224.22 834.599 1224.9 833.953 1225.7 833.484C1226.52 833.016 1227.42 832.781 1228.42 832.781C1229.31 832.781 1230.12 832.917 1230.86 833.188C1231.6 833.448 1232.23 833.859 1232.77 834.422C1233.3 834.984 1233.71 835.708 1234 836.594C1234.3 837.469 1234.45 838.526 1234.45 839.766V850H1230.11V839.734C1230.11 839.13 1230.03 838.609 1229.88 838.172C1229.73 837.734 1229.52 837.38 1229.23 837.109C1228.95 836.839 1228.61 836.641 1228.22 836.516C1227.82 836.38 1227.38 836.312 1226.88 836.312C1226.15 836.312 1225.51 836.443 1224.97 836.703C1224.44 836.964 1224 837.328 1223.66 837.797V850H1219.31V826H1223.66V835.422ZM1246.5 828.953V833.094H1252.81V836.297H1246.5V843.562C1246.5 844.177 1246.57 844.693 1246.7 845.109C1246.85 845.516 1247.05 845.844 1247.31 846.094C1247.57 846.333 1247.89 846.505 1248.25 846.609C1248.62 846.714 1249.04 846.766 1249.5 846.766C1249.83 846.766 1250.17 846.75 1250.52 846.719C1250.87 846.688 1251.2 846.651 1251.52 846.609C1251.84 846.557 1252.14 846.505 1252.41 846.453C1252.69 846.401 1252.93 846.349 1253.12 846.297L1253.55 849.281C1253.24 849.458 1252.89 849.615 1252.48 849.75C1252.08 849.875 1251.65 849.979 1251.19 850.062C1250.73 850.146 1250.25 850.208 1249.75 850.25C1249.26 850.302 1248.78 850.328 1248.3 850.328C1247.37 850.328 1246.53 850.208 1245.77 849.969C1245.02 849.719 1244.37 849.339 1243.83 848.828C1243.3 848.307 1242.89 847.651 1242.59 846.859C1242.3 846.057 1242.16 845.099 1242.16 843.984V836.297H1238.3V833.094H1242.16V828.953H1246.5Z" fill="#EE0033"/>
</svg>
