<svg width="1800" height="1080" viewBox="0 0 1800 1080" fill="none" xmlns="http://www.w3.org/2000/svg">
<g clip-path="url(#clip0)">
<rect width="1800" height="1080" fill="#F7F7F7"/>
<path d="M133 259H333C377.183 259 413 294.817 413 339V449C413 493.183 377.183 529 333 529H133" stroke="#222222" stroke-width="4" stroke-linecap="round"/>
<path fill-rule="evenodd" clip-rule="evenodd" d="M137.971 518.817C139.304 518.018 141 518.978 141 520.532V537.468C141 539.022 139.304 539.982 137.971 539.183L123.858 530.715C122.564 529.938 122.564 528.062 123.858 527.285L137.971 518.817Z" fill="#222222"/>
<path fill-rule="evenodd" clip-rule="evenodd" d="M133 251C128.582 251 125 254.582 125 259C125 263.418 128.582 267 133 267C137.418 267 141 263.418 141 259C141 254.582 137.418 251 133 251Z" fill="#222222"/>
<path d="M996 667H1186C1230.18 667 1266 702.817 1266 747V938" stroke="#222222" stroke-width="4" stroke-linecap="round" stroke-linejoin="round"/>
<path fill-rule="evenodd" clip-rule="evenodd" d="M1276.18 933.029C1276.98 931.696 1276.02 930 1274.47 930H1257.53C1255.98 930 1255.02 931.696 1255.82 933.029L1264.29 947.142C1265.06 948.436 1266.94 948.436 1267.71 947.142L1276.18 933.029Z" fill="#222222"/>
<path fill-rule="evenodd" clip-rule="evenodd" d="M996 659C1000.42 659 1004 662.582 1004 667C1004 671.418 1000.42 675 996 675C991.582 675 988 671.418 988 667C988 662.582 991.582 659 996 659Z" fill="#222222"/>
<path d="M520 937H620C664.183 937 700 901.183 700 857V747C700 702.817 735.817 667 780 667H880" stroke="#222222" stroke-width="4" stroke-linecap="round"/>
<path fill-rule="evenodd" clip-rule="evenodd" d="M875.029 677.183C873.696 677.982 872 677.022 872 675.468V658.532C872 656.978 873.696 656.018 875.029 656.817L889.142 665.285C890.436 666.062 890.436 667.938 889.142 668.715L875.029 677.183Z" fill="#222222"/>
<path fill-rule="evenodd" clip-rule="evenodd" d="M520 945C524.418 945 528 941.418 528 937C528 932.582 524.418 929 520 929C515.582 929 512 932.582 512 937C512 941.418 515.582 945 520 945Z" fill="#222222"/>
<path d="M133 938H333C377.183 938 413 902.183 413 858V748C413 703.817 377.183 668 333 668H133" stroke="#222222" stroke-width="4" stroke-linecap="round"/>
<path fill-rule="evenodd" clip-rule="evenodd" d="M137.971 678.183C139.304 678.982 141 678.022 141 676.468V659.532C141 657.978 139.304 657.018 137.971 657.817L123.858 666.285C122.564 667.062 122.564 668.938 123.858 669.715L137.971 678.183Z" fill="#222222"/>
<path fill-rule="evenodd" clip-rule="evenodd" d="M133 946C128.582 946 125 942.418 125 938C125 933.582 128.582 930 133 930C137.418 930 141 933.582 141 938C141 942.418 137.418 946 133 946Z" fill="#222222"/>
<path d="M1651 848V858C1651 902.183 1615.18 938 1571 938H1381" stroke="#222222" stroke-width="4" stroke-linecap="round"/>
<path d="M1651 758V748C1651 703.817 1615.18 668 1571 668H1551" stroke="#222222" stroke-width="4"/>
<path d="M1651 856V742" stroke="#222222" stroke-width="4"/>
<path fill-rule="evenodd" clip-rule="evenodd" d="M1555.97 657.817C1557.3 657.018 1559 657.978 1559 659.532V676.468C1559 678.022 1557.3 678.982 1555.97 678.183L1541.86 669.715C1540.56 668.938 1540.56 667.062 1541.86 666.285L1555.97 657.817Z" fill="#222222"/>
<path fill-rule="evenodd" clip-rule="evenodd" d="M1381 930C1385.42 930 1389 933.582 1389 938C1389 942.418 1385.42 946 1381 946C1376.58 946 1373 942.418 1373 938C1373 933.582 1376.58 930 1381 930Z" fill="#222222"/>
<path d="M996 529H1186C1230.18 529 1266 493.183 1266 449V259" stroke="#222222" stroke-width="4" stroke-linecap="round" stroke-linejoin="round"/>
<path fill-rule="evenodd" clip-rule="evenodd" d="M1276.18 263.971C1276.98 265.304 1276.02 267 1274.47 267H1257.53C1255.98 267 1255.02 265.304 1255.82 263.971L1264.29 249.858C1265.06 248.564 1266.94 248.564 1267.71 249.858L1276.18 263.971Z" fill="#222222"/>
<path fill-rule="evenodd" clip-rule="evenodd" d="M996 537C1000.42 537 1004 533.418 1004 529C1004 524.582 1000.42 521 996 521C991.582 521 988 524.582 988 529C988 533.418 991.582 537 996 537Z" fill="#222222"/>
<path d="M1651 349V339C1651 294.817 1615.18 259 1571 259H1381" stroke="#222222" stroke-width="4" stroke-linecap="round"/>
<path d="M1651 439V449C1651 493.183 1615.18 529 1571 529H1551" stroke="#222222" stroke-width="4"/>
<path d="M1651 341V455" stroke="#222222" stroke-width="4"/>
<path fill-rule="evenodd" clip-rule="evenodd" d="M1555.97 539.183C1557.3 539.982 1559 539.022 1559 537.468V520.532C1559 518.978 1557.3 518.018 1555.97 518.817L1541.86 527.285C1540.56 528.062 1540.56 529.938 1541.86 530.715L1555.97 539.183Z" fill="#222222"/>
<path fill-rule="evenodd" clip-rule="evenodd" d="M1381 267C1385.42 267 1389 263.418 1389 259C1389 254.582 1385.42 251 1381 251C1376.58 251 1373 254.582 1373 259C1373 263.418 1376.58 267 1381 267Z" fill="#222222"/>
<path d="M520 260H620C664.183 260 700 295.817 700 340V450C700 494.183 735.817 530 780 530H880" stroke="#222222" stroke-width="4" stroke-linecap="round"/>
<path fill-rule="evenodd" clip-rule="evenodd" d="M875.029 519.817C873.696 519.018 872 519.978 872 521.532V538.468C872 540.022 873.696 540.982 875.029 540.183L889.142 531.715C890.436 530.938 890.436 529.062 889.142 528.285L875.029 519.817Z" fill="#222222"/>
<path fill-rule="evenodd" clip-rule="evenodd" d="M520 252C524.418 252 528 255.582 528 260C528 264.418 524.418 268 520 268C515.582 268 512 264.418 512 260C512 255.582 515.582 252 520 252Z" fill="#222222"/>
<line x1="135" y1="130" x2="411" y2="130" stroke="#222222" stroke-width="4" stroke-linecap="round" stroke-linejoin="round"/>
<path fill-rule="evenodd" clip-rule="evenodd" d="M408.029 140.183C406.696 140.982 405 140.022 405 138.468V121.532C405 119.978 406.696 119.018 408.029 119.817L422.142 128.285C423.436 129.062 423.436 130.938 422.142 131.715L408.029 140.183Z" fill="#222222"/>
<path fill-rule="evenodd" clip-rule="evenodd" d="M133 138C137.418 138 141 134.418 141 130C141 125.582 137.418 122 133 122C128.582 122 125 125.582 125 130C125 134.418 128.582 138 133 138Z" fill="#222222"/>
</g>
<defs>
<clipPath id="clip0">
<rect width="1800" height="1080" fill="white"/>
</clipPath>
</defs>
</svg>
