<svg width="1800" height="360" viewBox="0 0 1800 360" fill="none" xmlns="http://www.w3.org/2000/svg">
<rect width="1800" height="360" fill="#F7F7F7"/>
<line x1="103" y1="180" x2="339" y2="180" stroke="#222222" stroke-width="4" stroke-linecap="round" stroke-linejoin="round"/>
<path fill-rule="evenodd" clip-rule="evenodd" d="M336.029 190.183C334.696 190.982 333 190.022 333 188.468V171.532C333 169.978 334.696 169.018 336.029 169.817L350.142 178.285C351.436 179.062 351.436 180.938 350.142 181.715L336.029 190.183Z" fill="#222222"/>
<path opacity="0.5" fill-rule="evenodd" clip-rule="evenodd" d="M101 220C123.091 220 141 202.091 141 180C141 157.909 123.091 140 101 140C78.9086 140 61 157.909 61 180C61 202.091 78.9086 220 101 220Z" fill="#0066FF"/>
<path fill-rule="evenodd" clip-rule="evenodd" d="M101 188C105.418 188 109 184.418 109 180C109 175.582 105.418 172 101 172C96.5817 172 93 175.582 93 180C93 184.418 96.5817 188 101 188Z" fill="#222222"/>
<line x1="556" y1="180" x2="792" y2="180" stroke="#222222" stroke-width="4" stroke-linecap="round" stroke-linejoin="round"/>
<path fill-rule="evenodd" clip-rule="evenodd" d="M789.029 190.183C787.696 190.982 786 190.022 786 188.468V171.532C786 169.978 787.696 169.018 789.029 169.817L803.142 178.285C804.436 179.062 804.436 180.938 803.142 181.715L789.029 190.183Z" fill="#222222"/>
<path opacity="0.05" fill-rule="evenodd" clip-rule="evenodd" d="M464 220C486.091 220 504 202.091 504 180C504 157.909 486.091 140 464 140C441.909 140 424 157.909 424 180C424 202.091 441.909 220 464 220Z" fill="#EE0033"/>
<path opacity="0.1" fill-rule="evenodd" clip-rule="evenodd" d="M494 220C516.091 220 534 202.091 534 180C534 157.909 516.091 140 494 140C471.909 140 454 157.909 454 180C454 202.091 471.909 220 494 220Z" fill="#EE0033"/>
<path opacity="0.15" fill-rule="evenodd" clip-rule="evenodd" d="M524 220C546.091 220 564 202.091 564 180C564 157.909 546.091 140 524 140C501.909 140 484 157.909 484 180C484 202.091 501.909 220 524 220Z" fill="#EE0033"/>
<path opacity="0.5" fill-rule="evenodd" clip-rule="evenodd" d="M554 220C576.091 220 594 202.091 594 180C594 157.909 576.091 140 554 140C531.909 140 514 157.909 514 180C514 202.091 531.909 220 554 220Z" fill="#EE0033"/>
<path fill-rule="evenodd" clip-rule="evenodd" d="M554 188C558.418 188 562 184.418 562 180C562 175.582 558.418 172 554 172C549.582 172 546 175.582 546 180C546 184.418 549.582 188 554 188Z" fill="#222222"/>
<line x1="1009" y1="180" x2="1245" y2="180" stroke="#222222" stroke-width="4" stroke-linecap="round" stroke-linejoin="round"/>
<path fill-rule="evenodd" clip-rule="evenodd" d="M1242.03 190.183C1240.7 190.982 1239 190.022 1239 188.468V171.532C1239 169.978 1240.7 169.018 1242.03 169.817L1256.14 178.285C1257.44 179.062 1257.44 180.938 1256.14 181.715L1242.03 190.183Z" fill="#222222"/>
<circle opacity="0.1" cx="1007" cy="180" r="90" fill="#00AA00"/>
<circle opacity="0.5" cx="1007" cy="180" r="40" fill="#00AA00"/>
<path fill-rule="evenodd" clip-rule="evenodd" d="M1007 188C1011.42 188 1015 184.418 1015 180C1015 175.582 1011.42 172 1007 172C1002.58 172 999 175.582 999 180C999 184.418 1002.58 188 1007 188Z" fill="#222222"/>
<line x1="1462" y1="180" x2="1698" y2="180" stroke="#222222" stroke-width="4" stroke-linecap="round" stroke-linejoin="round"/>
<path fill-rule="evenodd" clip-rule="evenodd" d="M1695.03 190.183C1693.7 190.982 1692 190.022 1692 188.468V171.532C1692 169.978 1693.7 169.018 1695.03 169.817L1709.14 178.285C1710.44 179.062 1710.44 180.938 1709.14 181.715L1695.03 190.183Z" fill="#222222"/>
<path opacity="0.5" fill-rule="evenodd" clip-rule="evenodd" d="M1520 180C1520 213.137 1493.14 240 1460 240C1426.86 240 1400 213.137 1400 180C1400 146.863 1426.86 120 1460 120C1493.14 120 1520 146.863 1520 180ZM1510 180C1510 207.614 1487.61 230 1460 230C1432.39 230 1410 207.614 1410 180C1410 152.386 1432.39 130 1460 130C1487.61 130 1510 152.386 1510 180Z" fill="#0066FF"/>
<path opacity="0.5" fill-rule="evenodd" clip-rule="evenodd" d="M1500 180C1500 202.091 1482.09 220 1460 220C1437.91 220 1420 202.091 1420 180C1420 157.909 1437.91 140 1460 140C1482.09 140 1500 157.909 1500 180ZM1490 180C1490 196.569 1476.57 210 1460 210C1443.43 210 1430 196.569 1430 180C1430 163.431 1443.43 150 1460 150C1476.57 150 1490 163.431 1490 180Z" fill="#0066FF"/>
<path fill-rule="evenodd" clip-rule="evenodd" d="M1460 188C1464.42 188 1468 184.418 1468 180C1468 175.582 1464.42 172 1460 172C1455.58 172 1452 175.582 1452 180C1452 184.418 1455.58 188 1460 188Z" fill="#222222"/>
</svg>
