<svg width="1800" height="720" viewBox="0 0 1800 720" fill="none" xmlns="http://www.w3.org/2000/svg">
<rect width="1800" height="720" fill="#F7F7F7"/>
<rect x="830" y="270" width="140" height="180" rx="30" fill="#222222"/>
<path d="M836 300C836 290.059 844.059 282 854 282H946C955.941 282 964 290.059 964 300V420C964 429.941 955.941 438 946 438H854C844.059 438 836 429.941 836 420V300Z" fill="#F7F7F7"/>
<path d="M869.607 364.328H865.767L865.011 367H862.409L866.602 354.203H868.843L872.956 367H870.354L869.607 364.328ZM866.373 362.228H869.027L867.718 357.517L866.373 362.228ZM876.428 357.49L876.577 358.809C876.917 358.334 877.33 357.968 877.816 357.71C878.303 357.446 878.842 357.314 879.434 357.314C879.914 357.314 880.354 357.385 880.752 357.525C881.15 357.666 881.493 357.892 881.78 358.202C882.073 358.507 882.299 358.902 882.457 359.389C882.621 359.869 882.703 360.455 882.703 361.146V367H880.26V361.182C880.26 360.807 880.216 360.499 880.128 360.259C880.046 360.013 879.926 359.819 879.768 359.679C879.609 359.538 879.419 359.441 879.196 359.389C878.974 359.33 878.722 359.301 878.44 359.301C878.024 359.301 877.67 359.386 877.377 359.556C877.084 359.72 876.847 359.948 876.665 360.241V367H874.213V357.49H876.428ZM884.769 362.175C884.769 361.454 884.851 360.795 885.015 360.197C885.185 359.6 885.431 359.087 885.753 358.659C886.075 358.231 886.465 357.9 886.922 357.666C887.385 357.432 887.912 357.314 888.504 357.314C889.002 357.314 889.438 357.405 889.813 357.587C890.194 357.763 890.531 358.015 890.824 358.343V353.5H893.276V367H891.07L890.947 366.007C890.648 366.376 890.297 366.663 889.893 366.868C889.488 367.073 889.02 367.176 888.486 367.176C887.906 367.176 887.385 367.056 886.922 366.815C886.465 366.569 886.075 366.232 885.753 365.805C885.437 365.377 885.193 364.87 885.023 364.284C884.854 363.692 884.769 363.051 884.769 362.359V362.175ZM887.212 362.359C887.212 362.758 887.244 363.13 887.309 363.476C887.379 363.815 887.49 364.114 887.643 364.372C887.795 364.624 887.991 364.823 888.231 364.97C888.472 365.116 888.765 365.189 889.11 365.189C889.532 365.189 889.881 365.099 890.156 364.917C890.438 364.735 890.66 364.486 890.824 364.17V360.32C890.66 359.998 890.44 359.749 890.165 359.573C889.89 359.392 889.544 359.301 889.128 359.301C888.782 359.301 888.486 359.377 888.24 359.529C888 359.676 887.804 359.881 887.651 360.145C887.499 360.402 887.388 360.707 887.317 361.059C887.247 361.404 887.212 361.776 887.212 362.175V362.359ZM902.663 357.314C903.032 357.314 903.372 357.341 903.683 357.394C903.999 357.44 904.254 357.493 904.447 357.552L904.087 359.986C903.765 359.91 903.434 359.854 903.094 359.819C902.76 359.778 902.44 359.758 902.136 359.758C901.45 359.758 900.899 359.89 900.483 360.153C900.073 360.417 899.766 360.795 899.561 361.287V367H897.117V357.49H899.394L899.508 359.046C899.895 358.507 900.357 358.085 900.896 357.78C901.436 357.47 902.024 357.314 902.663 357.314ZM906.311 362.157C906.311 361.466 906.41 360.827 906.609 360.241C906.809 359.649 907.099 359.137 907.479 358.703C907.866 358.27 908.335 357.93 908.886 357.684C909.442 357.438 910.078 357.314 910.793 357.314C911.508 357.314 912.144 357.438 912.7 357.684C913.257 357.93 913.726 358.27 914.106 358.703C914.493 359.137 914.786 359.649 914.985 360.241C915.185 360.827 915.284 361.466 915.284 362.157V362.342C915.284 363.039 915.185 363.684 914.985 364.275C914.786 364.861 914.496 365.371 914.115 365.805C913.734 366.238 913.266 366.578 912.709 366.824C912.152 367.064 911.52 367.185 910.811 367.185C910.096 367.185 909.457 367.064 908.895 366.824C908.338 366.578 907.866 366.238 907.479 365.805C907.099 365.371 906.809 364.861 906.609 364.275C906.41 363.684 906.311 363.039 906.311 362.342V362.157ZM908.754 362.342C908.754 362.74 908.792 363.115 908.868 363.467C908.944 363.812 909.064 364.117 909.229 364.381C909.393 364.639 909.604 364.844 909.861 364.996C910.125 365.148 910.441 365.225 910.811 365.225C911.168 365.225 911.476 365.148 911.733 364.996C911.991 364.844 912.199 364.639 912.357 364.381C912.521 364.117 912.642 363.812 912.718 363.467C912.794 363.115 912.832 362.74 912.832 362.342V362.157C912.832 361.771 912.794 361.404 912.718 361.059C912.642 360.713 912.521 360.408 912.357 360.145C912.199 359.881 911.991 359.673 911.733 359.521C911.476 359.368 911.162 359.292 910.793 359.292C910.43 359.292 910.119 359.368 909.861 359.521C909.604 359.673 909.393 359.881 909.229 360.145C909.064 360.408 908.944 360.713 908.868 361.059C908.792 361.404 908.754 361.771 908.754 362.157V362.342ZM918.105 357.49H923.282V365.014H925.857V367H918.105V365.014H920.812V359.485H918.105V357.49ZM920.637 355.056C920.637 354.868 920.669 354.695 920.733 354.537C920.804 354.373 920.9 354.235 921.023 354.124C921.146 354.007 921.293 353.916 921.463 353.852C921.639 353.787 921.832 353.755 922.043 353.755C922.477 353.755 922.819 353.878 923.071 354.124C923.329 354.364 923.458 354.675 923.458 355.056C923.458 355.437 923.329 355.75 923.071 355.996C922.819 356.236 922.477 356.356 922.043 356.356C921.832 356.356 921.639 356.324 921.463 356.26C921.293 356.195 921.146 356.107 921.023 355.996C920.9 355.879 920.804 355.741 920.733 355.583C920.669 355.419 920.637 355.243 920.637 355.056ZM928.011 362.175C928.011 361.454 928.093 360.795 928.257 360.197C928.427 359.6 928.673 359.087 928.995 358.659C929.317 358.231 929.707 357.9 930.164 357.666C930.627 357.432 931.154 357.314 931.746 357.314C932.244 357.314 932.681 357.405 933.056 357.587C933.437 357.763 933.773 358.015 934.066 358.343V353.5H936.519V367H934.312L934.189 366.007C933.891 366.376 933.539 366.663 933.135 366.868C932.73 367.073 932.262 367.176 931.729 367.176C931.148 367.176 930.627 367.056 930.164 366.815C929.707 366.569 929.317 366.232 928.995 365.805C928.679 365.377 928.436 364.87 928.266 364.284C928.096 363.692 928.011 363.051 928.011 362.359V362.175ZM930.454 362.359C930.454 362.758 930.486 363.13 930.551 363.476C930.621 363.815 930.732 364.114 930.885 364.372C931.037 364.624 931.233 364.823 931.474 364.97C931.714 365.116 932.007 365.189 932.353 365.189C932.774 365.189 933.123 365.099 933.398 364.917C933.68 364.735 933.902 364.486 934.066 364.17V360.32C933.902 359.998 933.683 359.749 933.407 359.573C933.132 359.392 932.786 359.301 932.37 359.301C932.024 359.301 931.729 359.377 931.482 359.529C931.242 359.676 931.046 359.881 930.894 360.145C930.741 360.402 930.63 360.707 930.56 361.059C930.489 361.404 930.454 361.776 930.454 362.175V362.359Z" fill="#252525"/>
<rect x="1171" y="273" width="174" height="174" rx="9" fill="#F7F7F7" stroke="#222222" stroke-width="6" stroke-linecap="round" stroke-linejoin="round"/>
<path d="M1168 282C1168 275.373 1173.37 270 1180 270H1336C1342.63 270 1348 275.373 1348 282V290H1168V282Z" fill="#222222"/>
<path fill-rule="evenodd" clip-rule="evenodd" d="M1184 280C1184 281.657 1182.66 283 1181 283C1179.34 283 1178 281.657 1178 280C1178 278.343 1179.34 277 1181 277C1182.66 277 1184 278.343 1184 280ZM1194 280C1194 281.657 1192.66 283 1191 283C1189.34 283 1188 281.657 1188 280C1188 278.343 1189.34 277 1191 277C1192.66 277 1194 278.343 1194 280ZM1204 280C1204 281.657 1202.66 283 1201 283C1199.34 283 1198 281.657 1198 280C1198 278.343 1199.34 277 1201 277C1202.66 277 1204 278.343 1204 280Z" fill="#DFDFE6"/>
<path d="M1221.3 367V354.203H1225.59C1226.29 354.203 1226.92 354.273 1227.49 354.414C1228.07 354.555 1228.56 354.769 1228.96 355.056C1229.37 355.343 1229.68 355.706 1229.89 356.146C1230.12 356.585 1230.23 357.104 1230.23 357.701C1230.22 358.299 1230.06 358.835 1229.74 359.31C1229.43 359.784 1228.97 360.145 1228.36 360.391C1228.73 360.484 1229.05 360.625 1229.32 360.812C1229.59 361 1229.81 361.223 1229.99 361.48C1230.17 361.732 1230.3 362.011 1230.38 362.315C1230.47 362.614 1230.52 362.925 1230.52 363.247C1230.52 363.862 1230.41 364.404 1230.2 364.873C1229.99 365.342 1229.69 365.734 1229.29 366.051C1228.9 366.367 1228.42 366.604 1227.86 366.763C1227.3 366.921 1226.67 367 1225.96 367H1221.3ZM1223.78 361.357V365.005H1225.97C1226.65 364.999 1227.16 364.835 1227.51 364.513C1227.87 364.185 1228.05 363.757 1228.05 363.229C1228.05 362.644 1227.89 362.187 1227.57 361.858C1227.25 361.53 1226.75 361.363 1226.08 361.357H1223.78ZM1223.78 359.573H1225.61C1226.3 359.567 1226.83 359.424 1227.19 359.143C1227.56 358.861 1227.75 358.448 1227.76 357.903C1227.76 357.306 1227.57 356.878 1227.2 356.62C1226.83 356.356 1226.3 356.222 1225.6 356.216H1223.78V359.573ZM1239.04 357.314C1239.41 357.314 1239.75 357.341 1240.06 357.394C1240.38 357.44 1240.63 357.493 1240.83 357.552L1240.47 359.986C1240.14 359.91 1239.81 359.854 1239.47 359.819C1239.14 359.778 1238.82 359.758 1238.51 359.758C1237.83 359.758 1237.28 359.89 1236.86 360.153C1236.45 360.417 1236.14 360.795 1235.94 361.287V367H1233.5V357.49H1235.77L1235.89 359.046C1236.27 358.507 1236.74 358.085 1237.28 357.78C1237.81 357.47 1238.4 357.314 1239.04 357.314ZM1242.69 362.157C1242.69 361.466 1242.79 360.827 1242.99 360.241C1243.19 359.649 1243.48 359.137 1243.86 358.703C1244.25 358.27 1244.71 357.93 1245.26 357.684C1245.82 357.438 1246.46 357.314 1247.17 357.314C1247.89 357.314 1248.52 357.438 1249.08 357.684C1249.64 357.93 1250.1 358.27 1250.49 358.703C1250.87 359.137 1251.17 359.649 1251.36 360.241C1251.56 360.827 1251.66 361.466 1251.66 362.157V362.342C1251.66 363.039 1251.56 363.684 1251.36 364.275C1251.17 364.861 1250.88 365.371 1250.49 365.805C1250.11 366.238 1249.64 366.578 1249.09 366.824C1248.53 367.064 1247.9 367.185 1247.19 367.185C1246.47 367.185 1245.84 367.064 1245.27 366.824C1244.72 366.578 1244.25 366.238 1243.86 365.805C1243.48 365.371 1243.19 364.861 1242.99 364.275C1242.79 363.684 1242.69 363.039 1242.69 362.342V362.157ZM1245.13 362.342C1245.13 362.74 1245.17 363.115 1245.25 363.467C1245.32 363.812 1245.44 364.117 1245.61 364.381C1245.77 364.639 1245.98 364.844 1246.24 364.996C1246.5 365.148 1246.82 365.225 1247.19 365.225C1247.55 365.225 1247.85 365.148 1248.11 364.996C1248.37 364.844 1248.58 364.639 1248.74 364.381C1248.9 364.117 1249.02 363.812 1249.1 363.467C1249.17 363.115 1249.21 362.74 1249.21 362.342V362.157C1249.21 361.771 1249.17 361.404 1249.1 361.059C1249.02 360.713 1248.9 360.408 1248.74 360.145C1248.58 359.881 1248.37 359.673 1248.11 359.521C1247.85 359.368 1247.54 359.292 1247.17 359.292C1246.81 359.292 1246.5 359.368 1246.24 359.521C1245.98 359.673 1245.77 359.881 1245.61 360.145C1245.44 360.408 1245.32 360.713 1245.25 361.059C1245.17 361.404 1245.13 361.771 1245.13 362.157V362.342ZM1259.92 364.021L1260.74 357.49H1262.98L1261.28 367H1259.13L1257.89 360.953L1256.68 367H1254.54L1252.83 357.49H1255.06L1255.89 364.047L1257.09 357.49H1258.72L1259.92 364.021ZM1270.78 364.39C1270.78 364.243 1270.74 364.114 1270.67 364.003C1270.61 363.892 1270.49 363.789 1270.31 363.695C1270.14 363.596 1269.92 363.505 1269.63 363.423C1269.34 363.341 1268.98 363.259 1268.54 363.177C1267.98 363.065 1267.47 362.928 1267.01 362.764C1266.55 362.594 1266.16 362.392 1265.83 362.157C1265.5 361.917 1265.25 361.642 1265.06 361.331C1264.88 361.021 1264.79 360.663 1264.79 360.259C1264.79 359.866 1264.88 359.491 1265.07 359.134C1265.25 358.776 1265.52 358.463 1265.88 358.193C1266.23 357.924 1266.65 357.71 1267.16 357.552C1267.66 357.394 1268.23 357.314 1268.86 357.314C1269.53 357.314 1270.12 357.394 1270.65 357.552C1271.17 357.704 1271.62 357.918 1271.98 358.193C1272.35 358.463 1272.63 358.785 1272.83 359.16C1273.02 359.535 1273.12 359.942 1273.12 360.382H1270.67C1270.67 360.013 1270.52 359.705 1270.23 359.459C1269.93 359.207 1269.47 359.081 1268.86 359.081C1268.29 359.081 1267.86 359.184 1267.57 359.389C1267.28 359.594 1267.14 359.846 1267.14 360.145C1267.14 360.285 1267.17 360.417 1267.23 360.54C1267.29 360.657 1267.39 360.766 1267.54 360.865C1267.69 360.959 1267.89 361.047 1268.15 361.129C1268.41 361.205 1268.74 361.272 1269.14 361.331C1269.71 361.425 1270.24 361.545 1270.74 361.691C1271.23 361.838 1271.65 362.028 1272.01 362.263C1272.37 362.491 1272.65 362.772 1272.84 363.106C1273.05 363.435 1273.15 363.827 1273.15 364.284C1273.15 364.706 1273.05 365.096 1272.84 365.453C1272.65 365.805 1272.36 366.109 1271.98 366.367C1271.61 366.625 1271.17 366.827 1270.64 366.974C1270.11 367.114 1269.52 367.185 1268.87 367.185C1268.16 367.185 1267.52 367.091 1266.97 366.903C1266.43 366.716 1265.97 366.473 1265.6 366.174C1265.23 365.869 1264.95 365.526 1264.76 365.146C1264.57 364.759 1264.48 364.372 1264.48 363.985H1266.81C1266.82 364.243 1266.89 364.466 1267.02 364.653C1267.14 364.835 1267.3 364.984 1267.49 365.102C1267.69 365.213 1267.91 365.295 1268.15 365.348C1268.4 365.4 1268.66 365.427 1268.92 365.427C1269.53 365.427 1269.99 365.33 1270.3 365.137C1270.62 364.943 1270.78 364.694 1270.78 364.39ZM1280.07 367.176C1279.34 367.176 1278.67 367.056 1278.07 366.815C1277.48 366.575 1276.96 366.25 1276.54 365.84C1276.11 365.424 1275.78 364.938 1275.54 364.381C1275.31 363.818 1275.2 363.218 1275.2 362.579V362.228C1275.2 361.501 1275.31 360.839 1275.54 360.241C1275.77 359.638 1276.09 359.119 1276.5 358.686C1276.91 358.252 1277.4 357.915 1277.96 357.675C1278.52 357.435 1279.13 357.314 1279.8 357.314C1280.48 357.314 1281.09 357.429 1281.62 357.657C1282.16 357.88 1282.62 358.196 1282.99 358.606C1283.36 359.017 1283.65 359.512 1283.84 360.092C1284.03 360.666 1284.13 361.302 1284.13 361.999V363.036H1277.68C1277.73 363.358 1277.82 363.654 1277.96 363.924C1278.11 364.188 1278.29 364.416 1278.51 364.609C1278.74 364.803 1278.99 364.952 1279.28 365.058C1279.57 365.163 1279.88 365.216 1280.22 365.216C1280.46 365.216 1280.7 365.192 1280.93 365.146C1281.17 365.099 1281.4 365.031 1281.62 364.943C1281.83 364.85 1282.04 364.735 1282.22 364.601C1282.41 364.466 1282.57 364.308 1282.71 364.126L1283.94 365.444C1283.78 365.661 1283.58 365.875 1283.34 366.086C1283.1 366.291 1282.81 366.476 1282.48 366.64C1282.15 366.798 1281.78 366.927 1281.38 367.026C1280.97 367.126 1280.54 367.176 1280.07 367.176ZM1279.78 359.292C1279.5 359.292 1279.25 359.342 1279.02 359.441C1278.79 359.535 1278.59 359.673 1278.42 359.854C1278.25 360.036 1278.1 360.253 1277.99 360.505C1277.87 360.757 1277.78 361.038 1277.72 361.349H1281.73V361.155C1281.72 360.897 1281.67 360.654 1281.58 360.426C1281.49 360.197 1281.37 360.001 1281.2 359.837C1281.04 359.667 1280.84 359.535 1280.6 359.441C1280.36 359.342 1280.09 359.292 1279.78 359.292ZM1293.09 357.314C1293.46 357.314 1293.8 357.341 1294.11 357.394C1294.43 357.44 1294.69 357.493 1294.88 357.552L1294.52 359.986C1294.2 359.91 1293.87 359.854 1293.53 359.819C1293.19 359.778 1292.87 359.758 1292.57 359.758C1291.88 359.758 1291.33 359.89 1290.92 360.153C1290.5 360.417 1290.2 360.795 1289.99 361.287V367H1287.55V357.49H1289.83L1289.94 359.046C1290.33 358.507 1290.79 358.085 1291.33 357.78C1291.87 357.47 1292.46 357.314 1293.09 357.314Z" fill="#252525"/>
<rect x="472" y="270" width="140" height="180" rx="30" fill="#222222"/>
<rect x="478" y="276" width="128" height="168" rx="24" fill="#F7F7F7"/>
<path fill-rule="evenodd" clip-rule="evenodd" d="M504.606 274C506.815 274 508.606 275.791 508.606 278V280C508.606 283.314 511.292 286 514.606 286H569.394C572.708 286 575.394 283.314 575.394 280V278C575.394 275.791 577.185 274 579.394 274H584H500H504.606Z" fill="#222222"/>
<path d="M511.458 357.49H516.635V365.014H519.21V367H511.458V365.014H514.165V359.485H511.458V357.49ZM513.989 355.056C513.989 354.868 514.021 354.695 514.086 354.537C514.156 354.373 514.253 354.235 514.376 354.124C514.499 354.007 514.646 353.916 514.815 353.852C514.991 353.787 515.185 353.755 515.396 353.755C515.829 353.755 516.172 353.878 516.424 354.124C516.682 354.364 516.811 354.675 516.811 355.056C516.811 355.437 516.682 355.75 516.424 355.996C516.172 356.236 515.829 356.356 515.396 356.356C515.185 356.356 514.991 356.324 514.815 356.26C514.646 356.195 514.499 356.107 514.376 355.996C514.253 355.879 514.156 355.741 514.086 355.583C514.021 355.419 513.989 355.243 513.989 355.056ZM524.158 362.307V367H521.688V354.203H526.065C526.763 354.203 527.393 354.306 527.955 354.511C528.518 354.71 528.995 354.991 529.388 355.354C529.786 355.712 530.091 356.143 530.302 356.646C530.519 357.15 530.627 357.71 530.627 358.325C530.627 358.899 530.519 359.43 530.302 359.916C530.091 360.402 529.786 360.824 529.388 361.182C528.995 361.533 528.518 361.809 527.955 362.008C527.393 362.207 526.763 362.307 526.065 362.307H524.158ZM524.158 360.303H526.065C526.417 360.303 526.722 360.25 526.979 360.145C527.237 360.039 527.451 359.896 527.621 359.714C527.797 359.532 527.926 359.324 528.008 359.09C528.096 358.85 528.14 358.601 528.14 358.343C528.14 358.044 528.096 357.766 528.008 357.508C527.926 357.25 527.797 357.024 527.621 356.831C527.451 356.638 527.237 356.485 526.979 356.374C526.722 356.263 526.417 356.207 526.065 356.207H524.158V360.303ZM534.872 358.8C535.188 358.337 535.572 357.974 536.023 357.71C536.48 357.446 536.99 357.314 537.553 357.314C538.051 357.314 538.508 357.391 538.924 357.543C539.34 357.689 539.697 357.921 539.996 358.237C540.295 358.554 540.526 358.961 540.69 359.459C540.86 359.951 540.945 360.546 540.945 361.243V367H538.502V361.226C538.502 360.886 538.458 360.593 538.37 360.347C538.288 360.101 538.168 359.901 538.01 359.749C537.852 359.597 537.661 359.485 537.438 359.415C537.216 359.339 536.964 359.301 536.683 359.301C536.272 359.301 535.915 359.374 535.61 359.521C535.312 359.667 535.065 359.872 534.872 360.136V367H532.429V353.5H534.872V358.8ZM542.905 362.157C542.905 361.466 543.005 360.827 543.204 360.241C543.403 359.649 543.693 359.137 544.074 358.703C544.461 358.27 544.93 357.93 545.48 357.684C546.037 357.438 546.673 357.314 547.388 357.314C548.103 357.314 548.738 357.438 549.295 357.684C549.852 357.93 550.32 358.27 550.701 358.703C551.088 359.137 551.381 359.649 551.58 360.241C551.779 360.827 551.879 361.466 551.879 362.157V362.342C551.879 363.039 551.779 363.684 551.58 364.275C551.381 364.861 551.091 365.371 550.71 365.805C550.329 366.238 549.86 366.578 549.304 366.824C548.747 367.064 548.114 367.185 547.405 367.185C546.69 367.185 546.052 367.064 545.489 366.824C544.933 366.578 544.461 366.238 544.074 365.805C543.693 365.371 543.403 364.861 543.204 364.275C543.005 363.684 542.905 363.039 542.905 362.342V362.157ZM545.349 362.342C545.349 362.74 545.387 363.115 545.463 363.467C545.539 363.812 545.659 364.117 545.823 364.381C545.987 364.639 546.198 364.844 546.456 364.996C546.72 365.148 547.036 365.225 547.405 365.225C547.763 365.225 548.07 365.148 548.328 364.996C548.586 364.844 548.794 364.639 548.952 364.381C549.116 364.117 549.236 363.812 549.312 363.467C549.389 363.115 549.427 362.74 549.427 362.342V362.157C549.427 361.771 549.389 361.404 549.312 361.059C549.236 360.713 549.116 360.408 548.952 360.145C548.794 359.881 548.586 359.673 548.328 359.521C548.07 359.368 547.757 359.292 547.388 359.292C547.024 359.292 546.714 359.368 546.456 359.521C546.198 359.673 545.987 359.881 545.823 360.145C545.659 360.408 545.539 360.713 545.463 361.059C545.387 361.404 545.349 361.771 545.349 362.157V362.342ZM556.265 357.49L556.414 358.809C556.754 358.334 557.167 357.968 557.653 357.71C558.14 357.446 558.679 357.314 559.271 357.314C559.751 357.314 560.19 357.385 560.589 357.525C560.987 357.666 561.33 357.892 561.617 358.202C561.91 358.507 562.136 358.902 562.294 359.389C562.458 359.869 562.54 360.455 562.54 361.146V367H560.097V361.182C560.097 360.807 560.053 360.499 559.965 360.259C559.883 360.013 559.763 359.819 559.604 359.679C559.446 359.538 559.256 359.441 559.033 359.389C558.811 359.33 558.559 359.301 558.277 359.301C557.861 359.301 557.507 359.386 557.214 359.556C556.921 359.72 556.684 359.948 556.502 360.241V367H554.05V357.49H556.265ZM569.475 367.176C568.742 367.176 568.077 367.056 567.479 366.815C566.882 366.575 566.369 366.25 565.941 365.84C565.514 365.424 565.183 364.938 564.948 364.381C564.72 363.818 564.605 363.218 564.605 362.579V362.228C564.605 361.501 564.72 360.839 564.948 360.241C565.177 359.638 565.496 359.119 565.906 358.686C566.316 358.252 566.803 357.915 567.365 357.675C567.928 357.435 568.54 357.314 569.202 357.314C569.888 357.314 570.497 357.429 571.03 357.657C571.569 357.88 572.023 358.196 572.393 358.606C572.768 359.017 573.052 359.512 573.245 360.092C573.438 360.666 573.535 361.302 573.535 361.999V363.036H567.084C567.131 363.358 567.225 363.654 567.365 363.924C567.512 364.188 567.696 364.416 567.919 364.609C568.142 364.803 568.396 364.952 568.684 365.058C568.971 365.163 569.284 365.216 569.624 365.216C569.864 365.216 570.102 365.192 570.336 365.146C570.576 365.099 570.805 365.031 571.021 364.943C571.238 364.85 571.44 364.735 571.628 364.601C571.815 364.466 571.979 364.308 572.12 364.126L573.342 365.444C573.189 365.661 572.99 365.875 572.744 366.086C572.504 366.291 572.217 366.476 571.883 366.64C571.555 366.798 571.188 366.927 570.784 367.026C570.38 367.126 569.943 367.176 569.475 367.176ZM569.185 359.292C568.909 359.292 568.657 359.342 568.429 359.441C568.2 359.535 567.998 359.673 567.822 359.854C567.652 360.036 567.509 360.253 567.392 360.505C567.274 360.757 567.187 361.038 567.128 361.349H571.136V361.155C571.124 360.897 571.074 360.654 570.986 360.426C570.898 360.197 570.772 360.001 570.608 359.837C570.444 359.667 570.242 359.535 570.002 359.441C569.768 359.342 569.495 359.292 569.185 359.292Z" fill="#252525"/>
</svg>
